<?xml version="1.0" encoding="UTF-8"?>
<svg width="15px" height="14px" viewBox="0 0 15 14" version="1.1" xmlns="http://www.w3.org/2000/svg" xmlns:xlink="http://www.w3.org/1999/xlink">
    <title>编组</title>
    <defs>
        <filter id="filter-1">
            <feColorMatrix in="SourceGraphic" type="matrix" values="0 0 0 0 1.000000 0 0 0 0 1.000000 0 0 0 0 1.000000 0 0 0 1.000000 0"></feColorMatrix>
        </filter>
    </defs>
    <g id="页面-1" stroke="none" stroke-width="1" fill="none" fill-rule="evenodd">
        <g id="监测预警" transform="translate(-1243.000000, -217.000000)">
            <g id="右侧预案响应" transform="translate(1066.000000, 72.000000)">
                <g id="天气" transform="translate(44.000000, 81.000000)">
                    <g id="小标题" transform="translate(8.000000, 5.000000)">
                        <g id="编组" transform="translate(125.000000, 55.000000)" filter="url(#filter-1)">
                            <g transform="translate(0.000000, 4.000000)">
                                <path d="M14.4358103,0.16831922 C14.3526255,0.0851344293 14.2278483,0.00194963862 14.1030712,0.00194963862 L13.7287396,0.00194963862 C9.9854241,0.00194963862 6.99077169,0.00194963862 4.78637477,0.542650771 C3.62178773,0.833797531 2.70675505,1.24972148 2.04127674,1.832015 C1.29261364,2.49749332 0.793504907,3.32934121 0.460765744,4.41074346 C0.252803775,5.11781417 0.169618984,6.44877079 0.585542923,7.73813503 C0.710320102,8.23724376 0.918282086,8.65316771 1.20942885,9.06909165 C0.335988565,10.5664179 0.00324940257,11.3566734 0.00324940257,13.5194779 C0.00324940257,13.7274398 0.169618984,13.9354018 0.419173356,13.9354018 C0.627135325,13.9354018 0.835097295,13.7690322 0.835097295,13.5194779 C0.835097295,10.3168635 2.24923871,8.86112968 3.37223336,7.65495024 C3.45541815,7.57176545 3.53860294,7.48858065 3.58019533,7.40539586 C4.45363561,6.53195558 5.4102607,5.82488487 6.40847817,5.28418375 C7.32351085,4.78507502 8.19695113,4.53552065 8.86242944,4.53552065 C9.07039141,4.53552065 9.27835338,4.36915107 9.27835338,4.1195967 C9.27835338,3.91163473 9.1119838,3.70367276 8.86242944,3.70367276 C8.03058155,3.70367276 7.07395648,3.99481952 5.99255422,4.53552065 C4.91115195,5.07622178 3.87134209,5.86647727 2.95630942,6.78150996 C2.49879308,7.2390263 2.04127674,7.73813503 1.66694519,8.27883616 C1.50057561,8.02928179 1.37579843,7.73813503 1.29261364,7.44698827 C0.918282086,6.24080882 1.04305926,5.07622178 1.20942885,4.57711304 C2.24923871,0.792205143 6.28370098,0.792205143 13.56237,0.792205143 C12.6889297,5.45055333 11.0668263,8.44520574 8.73765226,9.73456996 C6.57484775,10.9407494 4.41204324,10.2752711 3.62178773,9.94253194 L3.122679,9.69297757 C3.03949421,9.65138518 2.91471703,9.60979278 2.78993984,9.65138517 C2.66516266,9.69297756 2.58197787,9.73456996 2.54038547,9.85934715 C2.49879308,9.94253194 2.45720068,10.0673091 2.49879308,10.1920863 C2.54038547,10.3168635 2.58197787,10.4000483 2.70675505,10.4416407 C2.91471702,10.5664179 3.12267899,10.6496026 3.33064097,10.7743798 C3.78815731,10.9823418 4.53682041,11.2318962 5.49344549,11.2734886 C5.70140746,11.2734886 5.90936942,11.315081 6.11733141,11.315081 C7.19873367,11.315081 8.23854353,11.0655266 9.19516859,10.5248255 C10.401348,9.85934715 11.4411579,8.77794489 12.3145982,7.28061869 C13.3128157,5.57533051 14.0614788,3.28774881 14.5605875,0.501058383 C14.5605875,0.376281204 14.5189951,0.251504011 14.4358103,0.16831922 Z" id="路径" fill="#333333" fill-rule="nonzero"></path>
                            </g>
                        </g>
                    </g>
                </g>
            </g>
        </g>
    </g>
</svg>