<?xml version="1.0" encoding="UTF-8"?>
<svg width="13px" height="16px" viewBox="0 0 13 16" version="1.1" xmlns="http://www.w3.org/2000/svg" xmlns:xlink="http://www.w3.org/1999/xlink">
    <title>形状</title>
    <g id="页面-1" stroke="none" stroke-width="1" fill="none" fill-rule="evenodd">
        <g id="监测预警" transform="translate(-1540.000000, -228.000000)" fill="#56E9FF" fill-rule="nonzero">
            <g id="右侧预案响应" transform="translate(1486.000000, 72.000000)">
                <g id="天气" transform="translate(44.000000, 81.000000)">
                    <g transform="translate(0.000000, 10.000000)" id="编组-7">
                        <path d="M22.86386,71.63796 C22.86386,68.01518 19.98418,65.0785 16.43186,65.0785 C12.87964,65.0785 10,68.01518 10,71.63796 C10,71.75294 10.0111,71.86408 10.01692,71.97664 C10.01164,72.03224 10,72.08586 10,72.14292 C10,76.1802 15.93718,80.75334 15.93718,80.75334 C15.93718,80.75334 16.43192,81.1317 16.92668,80.75334 C17.42142,80.37456 22.86386,76.1802 22.86386,72.14292 C22.86386,72.08586 22.85222,72.03224 22.84694,71.97664 C22.8527,71.86408 22.86386,71.75294 22.86386,71.63796 L22.86386,71.63796 Z M16.43186,74.1615 C15.06548,74.1615 13.95812,73.03192 13.95812,71.63796 C13.95812,70.24498 15.06546,69.11536 16.43186,69.11536 C17.79832,69.11536 18.90574,70.24498 18.90574,71.63796 C18.90574,73.03192 17.79832,74.1615 16.43186,74.1615 L16.43186,74.1615 Z" id="形状"></path>
                    </g>
                </g>
            </g>
        </g>
    </g>
</svg>