<?xml version="1.0" encoding="UTF-8"?>
<svg width="17px" height="14px" viewBox="0 0 17 14" version="1.1" xmlns="http://www.w3.org/2000/svg" xmlns:xlink="http://www.w3.org/1999/xlink">
    <title>Group 5</title>
    <g id="页面-1" stroke="none" stroke-width="1" fill="none" fill-rule="evenodd">
        <g id="菜单栏1" transform="translate(-879.000000, -335.000000)" fill-rule="nonzero">
            <g id="菜单栏" transform="translate(344.000000, 221.000000)">
                <g id="04" transform="translate(480.000000, 34.000000)">
                    <g id="menu" transform="translate(0.000000, 7.000000)">
                        <g id="Group-5" transform="translate(55.000000, 73.000000)">
                            <path d="M16.9534328,4.70509837 L14.9449971,12.2232954 C14.7670845,12.753735 14.1126658,13.187731 13.4907335,13.187731 L1.27672467,13.187731 C0.654792307,13.187731 0.291503431,12.753735 0.469416047,12.2232954 L2.67575874,4.70509837 L16.9534328,4.70509837 Z" id="Shape" fill="#FFCE17"></path>
                            <path d="M7.09825288,2.17754744 L14.9263768,2.17754744 C15.2656126,2.17754744 15.4917699,2.48862565 15.4917699,2.79970386 L15.4917699,3.8748111 L2.25614318,3.8748111 L0,11.0536456 L0,0.622156419 C0,0.24886257 0.226157229,0 0.565393065,0 L2.82696531,0 C3.44889767,0 4.41006587,0.311078202 4.91891963,0.68437205 L7.09825288,2.17754744 Z" id="Combined-Shape" fill="#FFB927"></path>
                        </g>
                    </g>
                </g>
            </g>
        </g>
    </g>
</svg>