<?xml version="1.0" encoding="UTF-8"?>
<svg width="112px" height="112px" viewBox="0 0 112 112" version="1.1" xmlns="http://www.w3.org/2000/svg" xmlns:xlink="http://www.w3.org/1999/xlink">
    <title>暂无数据</title>
    <defs>
        <rect id="path-1" x="8.34472137" y="24.0685714" width="46.2946029" height="60.1714286" rx="2.9952"></rect>
        <mask id="mask-2" maskContentUnits="userSpaceOnUse" maskUnits="objectBoundingBox" x="0" y="0" width="46.2946029" height="60.1714286" fill="white">
            <use xlink:href="#path-1"></use>
        </mask>
        <linearGradient x1="100%" y1="75.7294004%" x2="0%" y2="24.2389356%" id="linearGradient-3">
            <stop stop-color="#C2E9FB" offset="0%"></stop>
            <stop stop-color="#A1C4FD" offset="100%"></stop>
        </linearGradient>
    </defs>
    <g id="通用图标" stroke="none" stroke-width="1" fill="none" fill-rule="evenodd">
        <g transform="translate(-66.000000, -617.000000)" id="编组-5">
            <g transform="translate(66.000000, 552.000000)">
                <g id="暂无数据备份-2" transform="translate(0.000000, 65.000000)">
                    <g id="分组-8-copy" transform="translate(21.200000, 16.000000)">
                        <rect id="矩形" opacity="0.5" fill-rule="nonzero" x="4.61128565" y="9.02571429" width="74.6687143" height="75.2142857"></rect>
                        <use id="矩形" stroke="#D0DAED" mask="url(#mask-2)" stroke-width="1.4976" fill="#F5F8FE" stroke-dasharray="3.743999862670899,2.24640007019043" xlink:href="#path-1"></use>
                        <rect id="矩形" stroke="#D0DAED" stroke-width="0.7488" fill="#F5F8FE" x="27.3863" y="9.40011429" width="45.5458029" height="64.6876286" rx="1.4976"></rect>
                        <path d="M50.7500081,16.9215429 L61.7317957,27.9835696 L61.7317957,75.2209714 C61.7317957,75.5311345 61.6060773,75.8119345 61.402818,76.0151938 C61.1995588,76.218453 60.9187588,76.3441714 60.6085957,76.3441714 L60.6085957,76.3441714 L17.3091928,76.3441714 C16.9990297,76.3441714 16.7182297,76.218453 16.5149705,76.0151938 C16.3117112,75.8119345 16.1859928,75.5311345 16.1859928,75.2209714 L16.1859928,75.2209714 L16.1859928,18.0447429 C16.1859928,17.7345797 16.3117112,17.4537797 16.5149705,17.2505205 C16.7182297,17.0472613 16.9990297,16.9215429 17.3091928,16.9215429 L17.3091928,16.9215429 L50.7500081,16.9215429 Z" id="合并形状" stroke="#D0DAED" stroke-width="0.7488" fill="#FFFFFF"></path>
                        <path d="M51.2802885,17.4556979 L61.2069467,27.4548857 L52.4034885,27.4548857 C52.0933254,27.4548857 51.8125254,27.3291673 51.6092662,27.1259081 C51.406007,26.9226488 51.2802885,26.6418488 51.2802885,26.3316857 L51.2802885,26.3316857 L51.2802885,17.4556979 Z" id="矩形" stroke="#D0DAED" stroke-width="0.7488" fill="#CAD5E8"></path>
                        <ellipse id="椭圆形" fill="#CAD5E8" fill-rule="nonzero" cx="30.7453357" cy="36.855" rx="1.49337429" ry="1.50428571"></ellipse>
                        <ellipse id="椭圆形-copy-4" fill="#CAD5E8" fill-rule="nonzero" cx="47.1724528" cy="36.855" rx="1.49337429" ry="1.50428571"></ellipse>
                        <path d="M44.1857043,44.3764286 C44.1857043,41.4686494 41.8455817,39.1114286 38.9588943,39.1114286 C36.0722068,39.1114286 33.7320842,41.4686494 33.7320842,44.3764286" id="路径" stroke="#CAD5E8" stroke-width="0.7488" stroke-linecap="round" fill-rule="nonzero"></path>
                        <path d="M7.93624982,13.5359622 C8.3962091,13.5359622 8.79344666,13.6833822 9.10705526,13.9782222 C9.39975662,14.2730622 9.56701454,14.6521422 9.56701454,15.1154622 C9.56701454,15.5787822 9.39975662,15.9789222 9.08614802,16.2737622 C8.77253942,16.5686022 8.3962091,16.7160222 7.93624982,16.7160222 C7.47629054,16.7160222 7.09996022,16.5475422 6.78635162,16.2527022 C6.47274302,15.9578622 6.32639234,15.5787822 6.32639234,15.1154622 C6.32639234,14.6521422 6.47274302,14.2730622 6.78635162,13.9782222 C7.09996022,13.6833822 7.47629054,13.5359622 7.93624982,13.5359622 Z M8.31258014,1.38434218 C9.67155074,1.38434218 10.7796345,1.74236218 11.6159241,2.50052218 C12.4522137,3.23762218 12.8703585,4.24850218 12.8703585,5.53316218 C12.8703585,6.58616218 12.5985643,7.44962218 12.0967906,8.12354218 C11.9086254,8.33414218 11.3023155,8.90276218 10.2987679,9.78728218 C9.92243762,10.1031822 9.6506435,10.4612022 9.46247834,10.8402822 C9.25340594,11.2614822 9.14886974,11.7037422 9.14886974,12.2091822 L9.14886974,12.2091822 L9.14886974,12.5040222 L6.74453714,12.5040222 L6.74453714,12.2091822 C6.74453714,11.4089022 6.86998058,10.7139222 7.16268194,10.1453022 C7.43447606,9.57668218 8.24985842,8.69216218 9.60882902,7.47068218 L9.60882902,7.47068218 L9.8597159,7.17584218 C10.2360462,6.71252218 10.4242114,6.20708218 10.4242114,5.68058218 C10.4242114,4.98560218 10.215139,4.43804218 9.83880866,4.03790218 C9.4415711,3.63776218 8.87707562,3.44822218 8.16622946,3.44822218 C7.2463109,3.44822218 6.59818646,3.72200218 6.2009489,4.31168218 C5.84552582,4.79606218 5.6782679,5.49104218 5.6782679,6.37556218 L5.6782679,6.37556218 L3.29484253,6.37556218 C3.29484253,4.81712218 3.73389457,3.59564218 4.65381314,2.71112218 C5.55282446,1.82660218 6.76544438,1.38434218 8.31258014,1.38434218 Z" id="合并形状" fill="#EAEAEA" fill-rule="nonzero" transform="translate(8.082600, 9.050182) rotate(-30.000000) translate(-8.082600, -9.050182) "></path>
                        <path d="M24.2969164,19.4533935 L24.29645,21.3333935 L26.1636343,21.3337507 L26.1636343,24.3423221 L24.29645,24.3413935 L24.2969164,26.2226793 L21.3101678,26.2226793 L21.30945,24.3413935 L19.44345,24.3423221 L19.44345,21.3337507 L21.30945,21.3333935 L21.3101678,19.4533935 L24.2969164,19.4533935 Z" id="合并形状" fill="#EAEAEA" fill-rule="nonzero" transform="translate(22.803542, 22.838036) rotate(-315.000000) translate(-22.803542, -22.838036) "></path>
                        <path d="M22.9078485,50.3935714 L40.0761971,50.3935714 C40.2838956,50.3935714 40.4522685,50.5619443 40.4522685,50.7696429 C40.4522685,50.9773414 40.2838956,51.1457143 40.0761971,51.1457143 L22.9078485,51.1457143 C22.70015,51.1457143 22.5317771,50.9773414 22.5317771,50.7696429 C22.5317771,50.5619443 22.70015,50.3935714 22.9078485,50.3935714 Z" id="矩形" fill="#E5E9F1"></path>
                        <path d="M22.9078485,54.9064286 L47.5430685,54.9064286 C47.7507671,54.9064286 47.91914,55.0748015 47.91914,55.2825 C47.91914,55.4901985 47.7507671,55.6585714 47.5430685,55.6585714 L22.9078485,55.6585714 C22.70015,55.6585714 22.5317771,55.4901985 22.5317771,55.2825 C22.5317771,55.0748015 22.70015,54.9064286 22.9078485,54.9064286 Z" id="矩形-copy-6" fill="#E5E9F1"></path>
                        <rect id="矩形-copy-7" fill="#E5E9F1" x="22.5317771" y="59.4192857" width="32.8542343" height="1" rx="0.5"></rect>
                        <rect id="矩形-copy-8" fill="#E5E9F1" x="22.5317771" y="63.9321429" width="32.8542343" height="1" rx="0.5"></rect>
                        <rect id="矩形-copy-9" fill="#E5E9F1" x="22.5317771" y="68.445" width="32.8542343" height="1" rx="0.5"></rect>
                    </g>
                    <path d="M14.0074219,60.8 L14.0074219,68.8 M18,64.819873 L10,64.819873" id="合并形状" stroke="url(#linearGradient-3)" stroke-width="1.6" opacity="0.535412016" stroke-linecap="round"></path>
                    <path d="M98.8074219,95.2 L98.8074219,103.2 M102.8,99.219873 L94.8,99.219873" id="合并形状-copy-2" stroke="url(#linearGradient-3)" stroke-width="1.6" opacity="0.535412016" stroke-linecap="round" transform="translate(98.800000, 99.200000) rotate(-315.000000) translate(-98.800000, -99.200000) "></path>
                    <circle id="Oval-14" stroke="url(#linearGradient-3)" stroke-width="1.6" fill="#FFFFFF" opacity="0.535412016" cx="58" cy="12" r="3.2"></circle>
                </g>
            </g>
        </g>
    </g>
</svg>