<?xml version="1.0" encoding="UTF-8"?>
<svg width="21px" height="21px" viewBox="0 0 21 21" version="1.1" xmlns="http://www.w3.org/2000/svg" xmlns:xlink="http://www.w3.org/1999/xlink">
    <title>切图</title>
    <g id="任务调度" stroke="none" stroke-width="1" fill="none" fill-rule="evenodd">
        <g id="切图" transform="translate(-115.000000, -25.000000)" fill="#FFFFFF" fill-rule="nonzero">
            <g transform="translate(20.000000, 20.000000)" id="方块">
                <g transform="translate(95.000000, 5.000000)">
                    <path d="M7.8,0 L1.73333333,0 C0.776039767,0 0,0.776039767 0,1.73333333 L0,7.8 C0,8.75729357 0.776039767,9.53333333 1.73333333,9.53333333 L7.8,9.53333333 C8.75729357,9.53333333 9.53333333,8.75729357 9.53333333,7.8 L9.53333333,1.73333333 C9.53333333,0.776039767 8.75729357,0 7.8,0 Z" id="路径" opacity="0.6"></path>
                    <path d="M7.8,11.2666667 L1.73333333,11.2666667 C0.776039767,11.2666667 0,12.0427064 0,13 L0,19.0666667 C0,20.0239602 0.776039767,20.8 1.73333333,20.8 L7.8,20.8 C8.75729357,20.8 9.53333333,20.0239602 9.53333333,19.0666667 L9.53333333,13 C9.53333333,12.0427064 8.75729357,11.2666667 7.8,11.2666667 Z" id="路径" opacity="0.6"></path>
                    <path d="M19.0666667,11.2666667 L13,11.2666667 C12.0427064,11.2666667 11.2666667,12.0427064 11.2666667,13 L11.2666667,19.0666667 C11.2666667,20.0239602 12.0427064,20.8 13,20.8 L19.0666667,20.8 C20.0239602,20.8 20.8,20.0239602 20.8,19.0666667 L20.8,13 C20.8,12.0427064 20.0239602,11.2666667 19.0666667,11.2666667 Z" id="路径" opacity="0.6"></path>
                    <path d="M19.0666667,0 C20.0239602,0 20.8,0.776039767 20.8,1.73333333 L20.8,1.73333333 L20.8,7.8 C20.8,8.75729357 20.0239602,9.53333333 19.0666667,9.53333333 L19.0666667,9.53333333 L13,9.53333333 C12.0427064,9.53333333 11.2666667,8.75729357 11.2666667,7.8 L11.2666667,7.8 L11.2666667,1.73333333 C11.2666667,0.776039767 12.0427064,0 13,0 L13,0 Z M19.0666667,1.73333333 L13,1.73333333 L13,7.8 L19.0666667,7.8 L19.0666667,1.73333333 Z" id="形状结合"></path>
                    <polygon id="路径" points="17.3333333 3.46666667 14.7333333 3.46666667 14.7333333 6.06666667 17.3333333 6.06666667"></polygon>
                </g>
            </g>
        </g>
    </g>
</svg>