<?xml version="1.0" encoding="UTF-8"?>
<svg width="32px" height="32px" viewBox="0 0 32 32" version="1.1" xmlns="http://www.w3.org/2000/svg" xmlns:xlink="http://www.w3.org/1999/xlink">
    <title>形状</title>
    <g id="页面-1" stroke="none" stroke-width="1" fill="none" fill-rule="evenodd">
        <g id="根据搜索结果选择任务参与/抄送人，多选项" transform="translate(-689.000000, -1141.000000)" fill="#C9C9C9" fill-rule="nonzero">
            <g id="编组-3" transform="translate(0.000000, 128.000000)">
                <g id="编组" transform="translate(0.000000, 881.000000)">
                    <path d="M705,132 C696.163847,132 689,139.163847 689,148 C689,156.836153 696.163847,164 705,164 C713.836153,164 721,156.836153 721,148 C721,139.163847 713.836153,132 705,132 Z M713.228042,153.803013 C713.895481,154.470452 713.895481,155.560603 713.228042,156.228042 C712.560603,156.895481 711.470452,156.895481 710.803013,156.228042 L705,150.425029 L699.196987,156.228042 C698.529548,156.895481 697.439397,156.895481 696.771958,156.228042 C696.104519,155.560603 696.104519,154.470452 696.771958,153.803013 L702.574971,148 L696.771958,142.196987 C696.104519,141.529548 696.104519,140.439397 696.771958,139.771958 C697.439397,139.104519 698.529548,139.104519 699.196987,139.771958 L705,145.574971 L710.803013,139.771958 C711.470452,139.104519 712.560603,139.104519 713.228042,139.771958 C713.895481,140.439397 713.895481,141.529548 713.228042,142.196987 L707.425029,148 L713.228042,153.803013 L713.228042,153.803013 Z" id="形状"></path>
                </g>
            </g>
        </g>
    </g>
</svg>