<?xml version="1.0" encoding="UTF-8"?>
<svg width="23px" height="28px" viewBox="0 0 23 28" version="1.1" xmlns="http://www.w3.org/2000/svg" xmlns:xlink="http://www.w3.org/1999/xlink">
    <title>编组</title>
    <defs>
        <filter id="filter-1">
            <feColorMatrix in="SourceGraphic" type="matrix" values="0 0 0 0 0.000000 0 0 0 0 0.568627 0 0 0 0 1.000000 0 0 0 1.000000 0"></feColorMatrix>
        </filter>
    </defs>
    <g id="页面-1" stroke="none" stroke-width="1" fill="none" fill-rule="evenodd">
        <g id="通告详情（成员单位）" transform="translate(-564.000000, -180.000000)">
            <g id="编组" transform="translate(20.000000, 148.000000)" filter="url(#filter-1)">
                <g transform="translate(544.000000, 32.000000)">
                    <path d="M4.94241489,1.66886736 L4.94241489,4.95525236 L18.0879548,4.95525236 L18.0879548,1.66886736 L21.3628374,1.66886736 C22.2764525,1.66886736 23.0175323,2.40008803 23.0175323,3.31370306 L23.0175323,26.3151115 C23.0175323,27.223797 22.2780957,27.9599677 21.3628374,27.9599677 L1.66753229,27.9599677 C1.22972178,27.9621321 0.809069418,27.789855 0.498563115,27.4811988 C0.188056812,27.1725426 0.013268922,26.7529273 0.0128374285,26.3151115 L0.0128374285,3.31370306 C0.0128374285,2.40501761 0.752274048,1.66886736 1.66753229,1.66886736 L4.94241489,1.66886736 Z M3.29922243,8.24163732 L3.29922243,9.88482983 L19.7311473,9.88482983 L19.7311473,8.24163732 L3.29922243,8.24163732 Z M3.29922243,13.1712148 L3.29922243,14.8144073 L19.7311473,14.8144073 L19.7311473,13.1712148 L3.29922243,13.1712148 L3.29922243,13.1712148 Z M3.29922243,18.1007923 L3.29922243,19.7439848 L13.1583774,19.7439848 L13.1583774,18.1007923 L3.29922243,18.1007923 Z M8.2287999,0.0256748955 L14.8015698,0.0256748955 C15.70908,0.0256748955 16.4447623,0.761357214 16.4447623,1.66886736 L16.4447623,3.31205986 L6.58560739,3.31205986 L6.58560739,1.66886736 C6.58560739,0.761357214 7.32128975,0.0256748955 8.2287999,0.0256748955 L8.2287999,0.0256748955 Z" id="形状" fill="#000000" fill-rule="nonzero"></path>
                </g>
            </g>
        </g>
    </g>
</svg>