<?xml version="1.0" encoding="UTF-8"?>
<svg width="30px" height="32px" viewBox="0 0 30 32" version="1.1" xmlns="http://www.w3.org/2000/svg" xmlns:xlink="http://www.w3.org/1999/xlink">
    <title>形状</title>
    <g id="页面-1" stroke="none" stroke-width="1" fill="none" fill-rule="evenodd">
        <g id="通告详情（成员单位）" transform="translate(-92.000000, -1509.000000)" fill="#333333" fill-rule="nonzero">
            <g id="编组-8" transform="translate(0.000000, 1482.000000)">
                <g id="编组-4" transform="translate(67.000000, 26.000000)">
                    <g id="编组-6" transform="translate(24.000000, 0.000000)">
                        <g id="bianji" transform="translate(1.000000, 1.000000)">
                            <path d="M25.3497095,31.9999996 L4.65966686,31.9999996 C2.08834393,31.9948419 0.00515889789,29.9116568 -6.69929916e-06,27.3403339 L-6.69929916e-06,4.65966686 C-0.000496912534,3.42369407 0.490270969,2.23820059 1.36423578,1.36423578 C2.23820059,0.490270969 3.42369407,-0.000496912534 4.65966686,-3.76981635e-07 L28.7901748,-3.76981635e-07 C29.4306926,-3.76981635e-07 29.9499348,0.519242983 29.9499348,1.15976072 C29.9499348,1.80027845 29.4306926,2.31952067 28.7901748,2.31952068 L4.65966686,2.31952068 C3.36771115,2.31952068 2.31952065,3.36771118 2.31952068,4.65966686 L2.31952068,27.3403339 C2.31952068,28.6322896 3.36771118,29.6804801 4.65966686,29.6804801 L25.3403339,29.6804801 C26.6322896,29.6804801 27.678605,28.6322896 27.678605,27.3403339 L27.678605,1.21920152 C27.6787068,0.578238 28.198339,0.0586884055 28.8393025,0.0586884055 C29.480266,0.0586884055 29.9999933,0.578238 29.9999933,1.21920152 L29.9999933,27.3403339 C29.9948647,29.9080102 27.9173703,31.9896931 25.3497095,31.9999996 Z M6.09999293,6.99999925 L23.8999929,6.99999925 C24.5075062,6.99999925 24.9999929,7.49248602 24.9999929,8.09999925 C24.9999929,8.70751247 24.5075062,9.19999925 23.8999929,9.19999925 L6.09999293,9.19999925 C5.49247971,9.19999925 4.99999293,8.70751247 4.99999293,8.09999925 C4.99999293,7.49248602 5.49247971,6.99999925 6.09999293,6.99999925 Z M6.09999293,20.9999992 L23.8999929,20.9999992 C24.5075062,20.9999992 24.9999929,21.492486 24.9999929,22.0999992 C24.9999929,22.7075125 24.5075062,23.1999992 23.8999929,23.1999992 L6.09999293,23.1999992 C5.49247971,23.1999992 4.99999293,22.7075125 4.99999293,22.0999992 C4.99999293,21.492486 5.49247971,20.9999992 6.09999293,20.9999992 Z M6.09999293,13.9999992 L16.8999929,13.9999992 C17.5075062,13.9999992 17.9999929,14.492486 17.9999929,15.0999992 C17.9999929,15.7075125 17.5075062,16.1999992 16.8999929,16.1999992 L6.09999293,16.1999992 C5.49247971,16.1999992 4.99999293,15.7075125 4.99999293,15.0999992 C4.99999293,14.492486 5.49247971,13.9999992 6.09999293,13.9999992 Z" id="形状"></path>
                        </g>
                    </g>
                </g>
            </g>
        </g>
    </g>
</svg>