<?xml version="1.0" encoding="UTF-8"?>
<svg width="152px" height="137px" viewBox="0 0 152 137" version="1.1" xmlns="http://www.w3.org/2000/svg" xmlns:xlink="http://www.w3.org/1999/xlink">
    <title>无充值记录icon</title>
    <defs>
        <linearGradient x1="42.7494821%" y1="-10.1230104%" x2="47.0995769%" y2="23.4597213%" id="linearGradient-1">
            <stop stop-color="#0DA1E2" stop-opacity="0.6" offset="0%"></stop>
            <stop stop-color="#15C3C3" stop-opacity="0" offset="100%"></stop>
        </linearGradient>
        <linearGradient x1="94.9207923%" y1="50%" x2="26.4252296%" y2="50%" id="linearGradient-2">
            <stop stop-color="#75D1FE" offset="0%"></stop>
            <stop stop-color="#77DEFF" stop-opacity="0.04" offset="100%"></stop>
        </linearGradient>
        <linearGradient x1="94.9207923%" y1="50%" x2="26.4252296%" y2="50%" id="linearGradient-3">
            <stop stop-color="#77DEFF" stop-opacity="0.04" offset="0%"></stop>
            <stop stop-color="#75D1FE" offset="100%"></stop>
        </linearGradient>
        <linearGradient x1="94.9207923%" y1="50%" x2="26.4252296%" y2="50%" id="linearGradient-4">
            <stop stop-color="#75D1FE" offset="0%"></stop>
            <stop stop-color="#77DEFF" stop-opacity="0.04" offset="100%"></stop>
        </linearGradient>
        <linearGradient x1="94.9207923%" y1="50%" x2="26.4252296%" y2="50%" id="linearGradient-5">
            <stop stop-color="#77DEFF" stop-opacity="0.04" offset="0%"></stop>
            <stop stop-color="#75D1FE" offset="100%"></stop>
        </linearGradient>
        <linearGradient x1="100%" y1="52.7072282%" x2="0%" y2="47.2927718%" id="linearGradient-6">
            <stop stop-color="#69C9FD" offset="0%"></stop>
            <stop stop-color="#83D9FF" offset="100%"></stop>
        </linearGradient>
        <linearGradient x1="90.9971687%" y1="100%" x2="9.00283134%" y2="0%" id="linearGradient-7">
            <stop stop-color="#69C9FD" offset="0%"></stop>
            <stop stop-color="#83D9FF" offset="100%"></stop>
        </linearGradient>
    </defs>
    <g id="页面-1" stroke="none" stroke-width="1" fill="none" fill-rule="evenodd">
        <g id="转交记录-暂无数据" transform="translate(-299.000000, -427.000000)">
            <g id="无充值记录icon" transform="translate(299.000000, 427.000000)">
                <circle id="Oval-6" stroke="url(#linearGradient-1)" cx="79.5" cy="70.5" r="65.5"></circle>
                <g id="通行Label" transform="translate(0.000000, 55.000000)">
                    <path d="M89.1978144,18.5375524 L89.1978144,0.849790456 L141.220644,0.849790456 C146.104984,0.849790456 150.064525,4.80933084 150.064525,9.69367142 C150.064525,14.578012 146.104984,18.5375524 141.220644,18.5375524 L141.220644,18.5375524 L89.1978144,18.5375524 Z" id="Combined-Shape" fill="url(#linearGradient-2)"></path>
                    <path d="M0.759004796,28.2658214 C0.759004796,23.3814809 4.71854518,19.4219405 9.60288576,19.4219405 L61.625715,19.4219405 L61.625715,37.1097024 L9.60288576,37.1097024 C4.71854518,37.1097024 0.759004796,33.150162 0.759004796,28.2658214 Z" id="Combined-Shape-Copy-3" fill="url(#linearGradient-3)"></path>
                    <path d="M77.8163811,52.1443001 L77.8163811,45.0691953 L117.197663,45.0691953 C119.151399,45.0691953 120.735215,46.6530114 120.735215,48.6067477 C120.735215,50.5604839 119.151399,52.1443001 117.197663,52.1443001 L117.197663,52.1443001 L77.8163811,52.1443001 Z" id="Combined-Shape-Copy" fill="url(#linearGradient-4)"></path>
                    <path d="M33.5969763,48.6067477 C33.5969763,46.6530114 35.1807924,45.0691953 37.1345287,45.0691953 L76.5158104,45.0691953 L76.5158104,52.1443001 L37.1345287,52.1443001 C35.1807924,52.1443001 33.5969763,50.5604839 33.5969763,48.6067477 Z" id="Combined-Shape-Copy" fill="url(#linearGradient-5)"></path>
                </g>
                <path d="M29,49 C30.6568542,49 32,50.3431458 32,52 L32,70 C32,71.3117996 31.1580438,72.4269497 29.9850473,72.8345346 C29.9072096,72.3607162 29.4957297,72 29,72 C28.4477153,72 28,72.4477153 28,73 L27,73 L27,73 C27,72.4477153 26.5522847,72 26,72 C25.4477153,72 25,72.4477153 25,73 L24,73 L24,73 C24,72.4477153 23.5522847,72 23,72 C22.4477153,72 22,72.4477153 22,73 L21,73 L21,73 C21,72.4477153 20.5522847,72 20,72 C19.4477153,72 19,72.4477153 19,73 L18,73 L18,73 C18,72.4477153 17.5522847,72 17,72 C16.4477153,72 16,72.4477153 16,73 L15,73 C15,72.4477153 14.5522847,72 14,72 C13.6733276,72 13.3832402,72.1566393 13.2007491,72.3989067 C12.4718278,71.8538124 12,70.9820069 12,70 L12,52 C12,50.3431458 13.3431458,49 15,49 L29,49 Z M21.25,63 L15.75,63 C15.3357864,63 15,63.3357864 15,63.75 C15,64.1642136 15.3357864,64.5 15.75,64.5 L15.75,64.5 L21.25,64.5 C21.6642136,64.5 22,64.1642136 22,63.75 C22,63.3357864 21.6642136,63 21.25,63 L21.25,63 Z M28.25,58 L15.75,58 C15.3357864,58 15,58.3357864 15,58.75 C15,59.1642136 15.3357864,59.5 15.75,59.5 L15.75,59.5 L28.25,59.5 C28.6642136,59.5 29,59.1642136 29,58.75 C29,58.3357864 28.6642136,58 28.25,58 L28.25,58 Z M28.25,53 L15.75,53 C15.3357864,53 15,53.3357864 15,53.75 C15,54.1642136 15.3357864,54.5 15.75,54.5 L15.75,54.5 L28.25,54.5 C28.6642136,54.5 29,54.1642136 29,53.75 C29,53.3357864 28.6642136,53 28.25,53 L28.25,53 Z" id="Combined-Shape" fill="#76D1FE"></path>
                <g id="mark" transform="translate(49.000000, 37.000000)">
                    <path d="M17.7674857,5.32394366 L36.7925143,5.32394366 C37.8817585,5.32394366 38.72,4.16629262 38.72,2.66168222 C38.72,1.1575352 37.8817585,0 36.7925143,0 L17.7674857,0 C16.6782415,0 15.84,1.1575352 15.84,2.66168222 C15.84,4.16629262 16.6782415,5.32394366 17.7674857,5.32394366" id="Fill-1" fill="url(#linearGradient-6)"></path>
                    <path d="M38.7263746,38.9087811 L12.8002242,38.9087811 C11.8218127,38.9087811 11.0063746,38.141718 11.0063746,37.2209044 C11.0063746,36.3003211 11.8218127,35.5329508 12.8002242,35.5329508 L38.7263746,35.5329508 C39.7047045,35.5329508 40.5202242,36.3003211 40.5202242,37.2209044 C40.5202242,38.141718 39.7047045,38.9087811 38.7263746,38.9087811 M34.2423625,53.0257989 L12.3925052,53.0257989 C11.4140936,53.0257989 10.5989819,52.2588126 10.5989819,51.3381525 C10.5989819,50.4173389 11.4140936,49.6499686 12.3925052,49.6499686 L34.2423625,49.6499686 C35.2206924,49.6499686 36.0361306,50.4173389 36.0361306,51.3381525 C36.0361306,52.2588126 35.2206924,53.0257989 34.2423625,53.0257989 M12.8002242,21.4158563 L42.5584931,21.4158563 C43.536823,21.4158563 44.3520163,22.1832266 44.3520163,23.1038866 C44.3520163,24.0245467 43.536823,24.7916866 42.5584931,24.7916866 L12.8002242,24.7916866 C11.8218127,24.7916866 11.0063746,24.0245467 11.0063746,23.1038866 C11.0879837,22.1832266 11.8218127,21.4158563 12.8002242,21.4158563 M46.3086761,51.7215305 L46.0641753,51.9519259 C45.6564562,52.3353038 45.0858454,52.5656992 44.5152345,52.5656992 C43.9442973,52.5656992 43.2919957,52.3353038 42.8846031,51.8751274 C42.476884,51.4146438 42.3136658,50.8776689 42.3136658,50.3405404 L42.3136658,50.0336537 C42.8846031,45.2002653 44.2704072,40.5199362 46.3902852,36.1467242 L55.44,17.809861 L55.44,5.30407512 C55.44,3.38587976 53.8093686,1.77464789 51.7710997,1.77464789 L44.5965172,1.77464789 C44.1891246,1.77464789 43.7814055,2.08153457 43.6997964,2.46521972 L42.3136658,7.45228189 C42.0691649,8.21942179 41.3353359,8.75639669 40.5202242,8.75639669 L14.9197758,8.75639669 C14.1046641,8.75639669 13.3708351,8.21942179 13.1263342,7.45228189 L11.7402036,2.46521972 C11.6585945,2.08153457 11.2512019,1.77464789 10.8434828,1.77464789 L3.66890034,1.77464789 C1.63054983,1.85144636 0,3.38587976 0,5.30407512 L0,59.4705728 C0,61.3888449 1.63054983,63 3.66890034,63 L51.689817,63 C53.7277595,63 55.3583909,61.4656434 55.3583909,59.4705728 L55.3583909,38.6018944 L54.7877801,39.7525659 C52.7494296,44.1260083 49.8959674,48.1924104 46.3086761,51.7215305" id="Fill-3" fill="url(#linearGradient-7)"></path>
                    <path d="M63.5574625,11.1892283 C62.439788,10.6480038 61.0426249,11.1892283 60.5537123,12.2717449 L48.8874951,36.8980002 C47.1412686,40.6189862 46.0235941,44.6105844 45.5344017,48.6697679 L45.5344017,48.9403801 C45.5344017,49.0758217 45.7441754,49.2110601 45.8138203,49.0758217 L46.0235941,48.8729302 C48.8874951,45.8961279 51.2628332,42.445551 53.0091996,38.7247005 L64.675137,14.0983098 C65.2340442,13.0158609 64.675137,11.7305205 63.5574625,11.1892283" id="Fill-5" fill="#76D1FE" transform="translate(55.214402, 30.054369) rotate(2.000000) translate(-55.214402, -30.054369) "></path>
                </g>
            </g>
        </g>
    </g>
</svg>