<?xml version="1.0" encoding="UTF-8"?>
<svg width="25px" height="25px" viewBox="0 0 25 25" version="1.1" xmlns="http://www.w3.org/2000/svg" xmlns:xlink="http://www.w3.org/1999/xlink">
    <title>切图</title>
    <g id="页面-1" stroke="none" stroke-width="1" fill="none" fill-rule="evenodd">
        <g id="切图" transform="translate(-252.000000, -320.000000)" fill="#9FC8FE">
            <g id="编组-16" transform="translate(252.000000, 320.000000)">
                <path d="M8.86852675,20.3349569 C10.9990498,21.9164793 13.87079,21.9192538 16.0033879,20.3489503 C16.3242233,20.112751 16.7759697,20.1811016 17.0123862,20.5016958 C17.2488268,20.82229 17.1803797,21.2736744 16.8595442,21.509922 C14.2166206,23.4559731 10.6481526,23.452523 8.00785876,21.4925991 C7.68794012,21.2551211 7.62125422,20.8034471 7.8589253,20.4837939 C8.09657225,20.1641165 8.54860811,20.0974788 8.86852675,20.334981 L8.86852675,20.3349569 Z M4.27501626,13.5922977 C6.08378701,13.5922977 7.55005664,15.0574575 7.55005664,16.8647806 C7.55005664,18.6721038 6.08376289,20.1372636 4.27501626,20.1372636 C2.46626963,20.1372636 1,18.6721279 1,16.8647806 C1,15.0574575 2.46626963,13.5922977 4.27501626,13.5922977 L4.27501626,13.5922977 Z M20.4281087,13.5922977 C22.2368554,13.5922977 23.703125,15.0574575 23.703125,16.8647806 C23.703125,18.6721038 22.2368554,20.1372636 20.4281087,20.1372636 C18.619338,20.1372636 17.1530684,18.6721279 17.1530684,16.8647806 C17.1530684,15.0574575 18.6193621,13.5922977 20.4281087,13.5922977 L20.4281087,13.5922977 Z M17.7093311,4.94018738 C20.6723181,6.17990829 22.5406574,9.19097961 22.3587429,12.4127243 C22.3363052,12.8103306 21.9955171,13.1144463 21.5976213,13.0920086 C21.1997255,13.0695709 20.8953444,12.7290722 20.9178062,12.3314901 C21.0653886,9.71747014 19.5487909,7.27325315 17.1519103,6.27040715 C16.7842934,6.11657598 16.6110644,5.69411932 16.7650162,5.32681605 C16.9189439,4.95946453 17.3417142,4.78638035 17.7093311,4.94018738 L17.7093311,4.94018738 Z M8.10465466,5.32679193 C8.25858233,5.69411932 8.08535338,6.11657598 7.71773647,6.27038302 C5.32085585,7.27325315 3.80425815,9.71747014 3.95184053,12.331466 C3.97430239,12.7290722 3.6699454,13.0695709 3.27202549,13.0920086 C2.8741297,13.1144463 2.53336568,12.8103065 2.51090383,12.4127243 C2.32898931,9.19097961 4.19732862,6.17990829 7.16031564,4.94018738 C7.52793255,4.78638035 7.95070286,4.95948866 8.10463053,5.32679193 L8.10465466,5.32679193 Z M12.4347992,2 C14.2435459,2 15.7098155,3.46513568 15.7098155,5.27248296 C15.7098155,7.07980612 14.2435459,8.5449418 12.4347992,8.5449418 C10.6260526,8.5449418 9.15978299,7.07980612 9.15978299,5.27248296 C9.15978299,3.46513568 10.6260767,2 12.4347992,2 Z" id="形状"></path>
            </g>
        </g>
    </g>
</svg>