<?xml version="1.0" encoding="UTF-8"?>
<svg width="25px" height="25px" viewBox="0 0 25 25" version="1.1" xmlns="http://www.w3.org/2000/svg" xmlns:xlink="http://www.w3.org/1999/xlink">
    <title>切图</title>
    <g id="页面-1" stroke="none" stroke-width="1" fill="none" fill-rule="evenodd">
        <g id="切图" transform="translate(-187.000000, -320.000000)" fill="#9FC8FE">
            <g id="编组-14" transform="translate(187.000000, 320.000000)">
                <path d="M11.4930462,3.44098048 C10.9998438,3.73241829 10.5918309,4.15612405 10.3093603,4.66614022 L3.42582326,17.0836331 C2.54478432,18.6730901 3.07497696,20.7019457 4.60950915,21.6143703 C5.09486521,21.9024453 5.64523433,22.0548897 6.20457076,22.0548897 L19.9716449,22.0548897 C21.7415692,22.0548897 23.17634,20.5685569 23.17634,18.7369823 C23.17634,18.1563485 23.0306211,17.5869238 22.7503924,17.0836331 L15.8679762,4.66614022 C14.9869373,3.07780413 13.0275784,2.52855591 11.4930462,3.44098048 Z M13.0881078,16.4503163 C13.7071719,16.4503163 14.2090225,16.9521669 14.2090225,17.571231 C14.2090225,18.1902951 13.7071719,18.6921457 13.0881078,18.6921457 C12.4690437,18.6921457 11.9671931,18.1902951 11.9671931,17.571231 C11.9671931,16.9521669 12.4690437,16.4503163 13.0881078,16.4503163 L13.0881078,16.4503163 Z M13.0881078,7.48299882 C13.6653269,7.48321893 14.148005,7.92175261 14.203418,8.4963057 L14.2090225,8.60391352 L14.2090225,13.0875723 C14.2067543,13.6840393 13.7377744,14.1742596 13.1419923,14.2029288 C12.5462103,14.231598 12.0323272,13.7886734 11.9727977,13.1951801 L11.9671932,13.0875723 L11.9671932,8.60391352 C11.9671932,8.30662846 12.0852892,8.02151942 12.2955015,7.81130714 C12.5057137,7.60109485 12.7908228,7.48299882 13.0881078,7.48299882 Z" id="形状"></path>
            </g>
        </g>
    </g>
</svg>