<?xml version="1.0" encoding="UTF-8"?>
<svg width="24px" height="20px" viewBox="0 0 24 20" version="1.1" xmlns="http://www.w3.org/2000/svg" xmlns:xlink="http://www.w3.org/1999/xlink">
    <title>形状备份 15</title>
    <g id="页面-1" stroke="none" stroke-width="1" fill="none" fill-rule="evenodd">
        <g id="步行-骑行-驾车" transform="translate(-1515.000000, -87.000000)" fill="#FFFFFF" fill-rule="nonzero">
            <g id="搜索备份-2" transform="translate(1405.000000, 73.000000)">
                <g id="编组-2" transform="translate(110.000000, 13.000000)">
                    <path d="M4.83125289,11.3837263 C5.49237169,11.3837263 6.11881644,11.5131761 6.70596393,11.7674526 C7.29311141,12.0240407 7.79704113,12.3615349 8.2177531,12.7822469 C8.66851594,13.2052705 9.01525659,13.7092002 9.25566343,14.2963477 C9.49607026,14.8834951 9.6162737,15.5238095 9.6162737,16.2149792 C9.6162737,16.876098 9.49607028,17.5025427 9.25566345,18.0873786 C9.01525659,18.6768377 8.66851594,19.1807674 8.21775312,19.6014794 C7.79472953,20.0522423 7.29079982,20.3989829 6.70365233,20.6393897 C6.11881647,20.8821082 5.49237172,21 4.83125289,21 C4.14008321,21 3.49976883,20.8797966 2.91262135,20.6393897 C2.32547389,20.3989829 1.82154415,20.0522423 1.39852058,19.6014794 C0.977808607,19.1807674 0.638002784,18.6768377 0.383726322,18.0896902 C0.129449859,17.5025428 5.15143483e-14,16.8784096 5.15143483e-14,16.2149792 C5.15143483e-14,15.5238095 0.127138243,14.8834951 0.383726299,14.2963476 C0.640314378,13.7092002 0.977808607,13.2052705 1.39852058,12.7845585 C1.81923255,12.3638465 2.32316229,12.0240407 2.91030975,11.7697642 C3.49976885,11.5131761 4.13777161,11.3837263 4.83125289,11.3837263 Z M4.83125289,19.5552474 C5.28201571,19.5552474 5.7119741,19.4650948 6.11881644,19.2847896 C6.52565879,19.1044845 6.87933424,18.8640777 7.17984279,18.5612575 C7.48035135,18.260749 7.72075818,17.9070735 7.90337492,17.5002312 C8.08368005,17.0933888 8.17383262,16.665742 8.17383262,16.2126676 C8.17383262,15.7318539 8.08368005,15.2880259 7.90337492,14.8811836 C7.72075821,14.4766528 7.48035137,14.1229774 7.1775312,13.8224688 C6.87702265,13.5219602 6.5233472,13.2815534 6.11650485,13.0989367 C5.71197412,12.9186315 5.28201573,12.828479 4.83125289,12.828479 C4.35043919,12.828479 3.90661117,12.9186315 3.49976883,13.0989367 C3.09292648,13.2815534 2.73925103,13.5219602 2.4387425,13.8224688 C2.13592233,14.1229774 1.89551549,14.4766528 1.71521036,14.8834951 C1.53490522,15.2903375 1.44475267,15.7341655 1.44475267,16.2149792 C1.44475267,16.665742 1.53490524,17.0957004 1.71521038,17.5025427 C1.89551549,17.9093851 2.13592233,18.2630606 2.4387425,18.5635691 C2.73925106,18.8640777 3.09292651,19.1044845 3.49976885,19.2871012 C3.90429958,19.4650948 4.35043922,19.5552474 4.83125289,19.5552474 Z M12.5959316,7.04946833 L10.3837263,9.2616736 L12.505779,10.8867314 L12.505779,17.1627369 L10.7905686,17.1627369 L10.7905686,12.3314841 L7.49422098,10.4359686 C7.37401756,10.345816 7.26999539,10.2487286 7.1775312,10.1423948 C7.08737863,10.0383726 7.01340731,9.92510402 6.95330559,9.8049006 C6.89320387,9.68469719 6.84003697,9.55062414 6.7961165,9.39805826 C6.74988443,9.24780397 6.72676838,9.11141933 6.72676838,8.99121591 C6.72676838,8.75080908 6.77300047,8.53351827 6.86315304,8.33703191 C6.95330559,8.14054555 7.073509,7.96948683 7.22376329,7.81692095 L10.7905686,4.2501156 C10.9408229,4.09986133 11.1141932,3.97965789 11.3106796,3.88950534 C11.507166,3.79935278 11.7244568,3.75312068 11.9648636,3.75312068 C12.1151179,3.75312068 12.2653722,3.77623673 12.4156264,3.82015721 C12.5658807,3.8663893 12.7022654,3.91724458 12.8224688,3.9773463 C12.9426722,4.03744802 13.049006,4.12066576 13.1391586,4.22468796 C13.2293111,4.33102175 13.3194637,4.44429036 13.4096163,4.56218219 L15.2149792,7.72676838 L18.2847896,7.72676838 L18.2847896,9.44197874 L14.2672214,9.44197874 L12.5959316,7.04946833 Z M18.2847896,11.3837263 C18.9759593,11.3837263 19.6162737,11.5131761 20.2034212,11.7674526 C20.7905687,12.0240407 21.2944984,12.3615349 21.7152104,12.7822469 C22.1359223,13.2052704 22.4757282,13.7068886 22.7300046,14.294036 C22.9889043,14.8834951 23.1160425,15.5238095 23.1160425,16.2149792 C23.1160425,16.876098 22.9889043,17.5025427 22.7323162,18.0873786 C22.4757282,18.6768377 22.1382339,19.1807674 21.7152104,19.6014794 C21.2944984,20.0522422 20.7905686,20.3989829 20.2034212,20.6393897 C19.6162737,20.8821082 18.9782709,21 18.2847896,21 C17.6236708,21 16.9972261,20.8797966 16.4100786,20.6393897 C15.8252427,20.3989829 15.321313,20.0522423 14.8982894,19.6014794 C14.4475266,19.1807674 14.1007859,18.6768377 13.8603791,18.0896902 C13.6199723,17.5025428 13.4997688,16.8784096 13.4997688,16.2149792 C13.4997688,15.5238095 13.6199722,14.8834951 13.8603791,14.2963476 C14.1007859,13.7092002 14.4475266,13.2052705 14.8982894,12.7845585 C15.3190014,12.3638465 15.8229311,12.0240407 16.4100786,11.7697642 C16.9972261,11.5131761 17.6236708,11.3837263 18.2847896,11.3837263 Z M15.3952843,4.43042071 C15.1548775,4.43042071 14.9283403,4.38418862 14.7179843,4.29403605 C14.5076283,4.2061951 14.3273232,4.08599168 14.1770689,3.93573741 C14.0268146,3.78317153 13.9066112,3.60286639 13.8164586,3.39251041 C13.7263061,3.18215442 13.680074,2.95792881 13.680074,2.71521036 C13.680074,2.47480352 13.7239944,2.24826629 13.8164586,2.0379103 C13.9066112,1.82986593 14.0268146,1.6472492 14.1770689,1.49699491 C14.3273232,1.34674065 14.5076283,1.22653723 14.7179843,1.13638466 C14.9283403,1.04623209 15.1548775,1 15.3952843,1 C15.6356912,1 15.8622284,1.04623209 16.0725844,1.13638466 C16.2829404,1.22653723 16.4794267,1.34674065 16.6597319,1.49699491 C16.8099861,1.6472492 16.9301895,1.82986593 17.0203421,2.03791033 C17.1104947,2.24826631 17.1567268,2.47480352 17.1567268,2.71521036 C17.1567268,2.95561719 17.1104947,3.18215442 17.0203421,3.39251041 C16.9301895,3.60286639 16.8099861,3.78317153 16.6597319,3.93573741 C16.4794267,4.08599168 16.2829404,4.2061951 16.0725844,4.29634767 C15.8622284,4.38650024 15.6356912,4.43042071 15.3952843,4.43042071 Z M18.2847896,19.5552474 C18.7656033,19.5552474 19.2094314,19.4650948 19.6162737,19.2847896 C20.023116,19.1044845 20.3767915,18.8640777 20.6773001,18.5612575 C20.9778086,18.260749 21.2182154,17.9070735 21.4008322,17.5002312 C21.5811373,17.0933888 21.6712899,16.665742 21.6712899,16.2126676 C21.6712899,15.7318539 21.5811373,15.2880259 21.4008322,14.8811836 C21.220527,14.4766528 20.9778086,14.1229774 20.6773,13.8224688 C20.3767915,13.5219602 20.023116,13.2815534 19.6162737,13.0989367 C19.2117429,12.9186315 18.7656033,12.828479 18.2847896,12.828479 C17.8340268,12.828479 17.4040684,12.9186315 16.9972261,13.0989367 C16.5926953,13.2815534 16.2390199,13.5219602 15.9361997,13.8224688 C15.6356912,14.1229774 15.3952843,14.4766528 15.2149792,14.8834951 C15.0346741,15.2903375 14.9445215,15.7341655 14.9445215,16.2149792 C14.9445215,16.665742 15.0346741,17.0957004 15.2149792,17.5025427 C15.3952843,17.9093851 15.6356912,18.2630606 15.9361997,18.5635691 C16.2367083,18.8640777 16.5903837,19.1044845 16.9972261,19.2871012 C17.4040684,19.4650948 17.8340268,19.5552474 18.2847896,19.5552474 Z" id="形状备份-15"></path>
                </g>
            </g>
        </g>
    </g>
</svg>