<?xml version="1.0" encoding="UTF-8"?>
<svg width="18px" height="17px" viewBox="0 0 18 17" version="1.1" xmlns="http://www.w3.org/2000/svg" xmlns:xlink="http://www.w3.org/1999/xlink">
    <title>形状备份 13</title>
    <g id="页面-1" stroke="none" stroke-width="1" fill="none" fill-rule="evenodd">
        <g id="步行-骑行-驾车" transform="translate(-1152.000000, -89.000000)" fill="#FFFFFF" fill-rule="nonzero">
            <g id="搜索备份" transform="translate(945.000000, 73.000000)">
                <g id="编组-3" transform="translate(207.000000, 13.000000)">
                    <path d="M16.2828234,8.39219465 L14.7217538,4.40713081 C14.4290532,3.64827752 13.7916165,3 12.5904601,3 L5.40520357,3 C4.20621537,3 3.57094676,3.64827752 3.27607805,4.40713081 L1.71500843,8.39219465 C1.09708504,8.47024813 0,9.19007468 0,10.5516743 L0,16.6203325 L1.75620332,16.6203325 L1.75620332,17.8821971 C1.75620332,19.8768971 4.13249819,19.8530475 4.13249819,17.8821971 L4.13249819,16.6203325 L13.8675018,16.6203325 L13.8675018,17.8821971 C13.8675018,19.8530475 16.2437967,19.8768971 16.2437967,17.8821971 L16.2437967,16.6203325 L18,16.6203325 L18,10.5516743 C17.9978318,9.19007468 16.9007468,8.47024813 16.2828234,8.39219465 Z M4.50542038,5.2158516 C4.65285473,4.77571669 4.87183811,4.45699831 5.38785835,4.45049386 L12.6121417,4.45049386 C13.1238256,4.45483016 13.3449771,4.77354854 13.4924115,5.2158516 L14.66755,8.29896411 L3.33028186,8.29896411 L4.50542038,5.2158516 Z M3.82028427,13.5502289 C3.07660805,13.5502289 2.47386172,12.9366418 2.47386172,12.1777885 C2.47386172,11.4189352 3.07660805,10.80318 3.82028427,10.80318 C4.56396049,10.80318 5.16670682,11.416767 5.16670682,12.1777885 C5.16670682,12.9366418 4.56396049,13.5502289 3.82028427,13.5502289 Z M14.1753794,13.5502289 C13.4317032,13.5502289 12.8289569,12.9366418 12.8289569,12.1777885 C12.8289569,11.4189352 13.4317032,10.80318 14.1753794,10.80318 C14.9190556,10.80318 15.5218078,11.416767 15.5218078,12.1777885 C15.5239701,12.9366418 14.9212238,13.5502289 14.1753794,13.5502289 Z" id="形状备份-13"></path>
                </g>
            </g>
        </g>
    </g>
</svg>