<?xml version="1.0" encoding="UTF-8"?>
<svg width="14px" height="23px" viewBox="0 0 14 23" version="1.1" xmlns="http://www.w3.org/2000/svg" xmlns:xlink="http://www.w3.org/1999/xlink">
    <title>形状备份 11</title>
    <g id="页面-1" stroke="none" stroke-width="1" fill="none" fill-rule="evenodd">
        <g id="步行-骑行-驾车" transform="translate(-535.000000, -86.000000)" fill="#56E9FF" fill-rule="nonzero">
            <g id="搜索" transform="translate(515.000000, 73.000000)">
                <g id="编组" transform="translate(20.000000, 13.000000)">
                    <path d="M13.1886757,9.90691471 L10.5136914,8.91623797 L8.82977658,5.84508606 C8.73053217,5.74593984 8.63128775,5.6468427 8.63128775,5.54777012 C8.53258338,5.44882027 8.53258338,5.44882027 8.43333896,5.34972314 C7.73970814,4.65626415 6.74932597,4.55728976 5.85774635,4.95343281 L1.20138401,6.53864324 C0.805216415,6.63759309 0.508047759,7.03388342 0.408950628,7.43022285 L0.0126602928,11.0955893 C-0.0862895548,11.6902458 0.408950628,12.2846322 1.00331249,12.3836066 L1.10238507,12.3836066 C1.69677148,12.3836066 2.19218349,11.9874635 2.19218349,11.3930526 L2.4893767,8.51999673 L4.27251137,7.92551213 C3.97531817,8.61897112 3.67812497,9.31247921 3.48007799,9.80791577 C3.08378765,10.6994954 3.08378765,11.8882436 3.57902783,12.8790677 L0.508023211,20.0121955 C0.210830007,20.7052863 0.508023211,21.5971359 1.20135947,21.8943046 C1.49867541,21.7953547 1.69677148,21.8943046 1.89499029,21.8943046 C2.4893767,21.8943046 2.98461688,21.5971114 3.18281114,21.002725 L5.46138238,15.8512206 C6.84822672,18.3277407 8.43331442,21.2009192 8.43331442,21.2999182 C8.73050762,21.7953302 9.22589509,22.0924988 9.72133165,22.0924988 C9.91928044,22.0924988 10.2164736,21.9932544 10.4146924,21.8942555 C11.1083233,21.4981124 11.4055165,20.6065083 11.0090789,19.912902 C10.910129,19.7149532 8.53255883,15.2567851 6.94754477,12.5818008 L8.33409455,9.51064892 L8.82977658,10.4022285 C8.92872643,10.6994217 9.22591963,10.7985189 9.42416299,10.8976405 L12.4950449,12.0863888 C12.5942893,12.0863888 12.7922381,12.1853387 12.8914825,12.1853387 C13.3866245,12.1853387 13.7830621,11.8881455 13.9812809,11.3930035 C14.0801817,10.7983716 13.783013,10.104888 13.1886266,9.90676743 M8.43333896,4.35902185 C9.62208723,4.35902185 10.6129358,3.36834511 10.6129358,2.17959684 C10.6129358,0.990725837 9.62211178,0 8.43333896,0 C7.24473798,0 6.2539385,0.990652195 6.2539385,2.17959684 C6.2539385,3.36836966 7.24476253,4.35902185 8.43333896,4.35902185 Z" id="形状备份-11"></path>
                </g>
            </g>
        </g>
    </g>
</svg>