<svg width="22" height="22" xmlns="http://www.w3.org/2000/svg"><path d="M3.374 5.843a4.544 4.544 0 109.087 0 4.544 4.544 0 00-9.087 0zm12.463 12.203c0 3.97-15.837 3.97-15.837 0s3.545-6.358 7.917-6.358c4.373 0 7.92 2.389 7.92 6.358zM13.63 0c-1.107 0-2.12.396-2.907 1.053a5.284 5.284 0 012.986 4.757 5.26 5.26 0 01-1.062 3.17A4.545 4.545 0 1013.628 0zm-.518 10.543c-.479 0-1.949.143-2.443.378 3.09.628 6.45 3.031 6.45 6.872 0 .6-.244 1.13-.673 1.592 2.58-.422 4.583-1.365 4.583-2.828.002-4.112-3.545-6.014-7.917-6.014z" fill="#9FC8FE" fill-rule="evenodd"/></svg>