<?xml version="1.0" encoding="UTF-8"?>
<svg width="12px" height="12px" viewBox="0 0 12 12" version="1.1" xmlns="http://www.w3.org/2000/svg" xmlns:xlink="http://www.w3.org/1999/xlink">
    <title>路径</title>
    <g id="Page-1" stroke="none" stroke-width="1" fill="none" fill-rule="evenodd">
        <g id="编组" transform="translate(-764.000000, -2.000000)" fill="#FFFFFF" fill-rule="nonzero">
            <g id="编组-2" transform="translate(701.000000, 2.000000)">
                <path d="M69.7914524,5.7864433 L74.3724241,1.2090673 C74.649296,0.93219538 74.649296,0.48452585 74.3724241,0.20945181 C74.0955521,-0.06742011 73.6478826,-0.06742011 73.3728086,0.20945181 L68.790039,4.7850299 L64.2072694,0.20765394 C63.9303975,-0.06921798 63.482728,-0.06921798 63.2076539,0.20765394 C62.930782,0.48452585 62.930782,0.93219538 63.2076539,1.20726943 L67.7886256,5.7846454 L63.2076539,10.3638192 C62.930782,10.6406911 62.930782,11.0883607 63.2076539,11.3634347 C63.3460899,11.5018707 63.5276747,11.5701897 63.7074617,11.5701897 C63.8890465,11.5701897 64.0688335,11.5018707 64.2072694,11.3634347 L68.790039,6.7860588 L73.3728086,11.3652326 C73.5112445,11.5036685 73.6910315,11.5719876 73.8726163,11.5719876 C74.0542011,11.5719876 74.2339881,11.5036685 74.3724241,11.3652326 C74.649296,11.0883607 74.649296,10.6406911 74.3724241,10.3656171 L69.7914524,5.7864433 Z" id="路径"></path>
            </g>
        </g>
    </g>
</svg>