<?xml version="1.0" encoding="UTF-8"?>
<svg width="16px" height="16px" viewBox="0 0 16 16" version="1.1" xmlns="http://www.w3.org/2000/svg" xmlns:xlink="http://www.w3.org/1999/xlink">
    <title>画板</title>
    <g id="通用图标" stroke="none" stroke-width="1" fill="none" fill-rule="evenodd">
        <g transform="translate(-160.000000, -135.000000)" fill="#0091FF" fill-rule="nonzero" id="编组-3">
            <g transform="translate(66.000000, 30.000000)">
                <g id="编组备份-3" transform="translate(65.000000, 105.000000)">
                    <path d="M41.5011714,4.99481592 C41.7777093,4.99573328 42.0008687,5.23162617 42,5.52280646 L42,5.52280646 L42,13.4196978 C42,14.291404 41.3287767,15 40.5017924,15 L40.5017924,15 L33.5008343,15 C32.67385,15 32,14.291404 32,13.4196978 L32,13.4196978 L32,5.51451745 C32,5.37353868 32.053394,5.24361739 32.1461489,5.14501744 C32.2406618,5.04733485 32.3675503,4.99481592 32.5005685,4.99481592 L32.5005685,4.99481592 Z M38.500776,6.99222388 C38.2236412,6.99222388 38,7.19718971 38,7.45217766 L38,7.45217766 L38,12.5253117 C38,12.7802996 38.2236412,12.9844478 38.500776,12.9844478 C38.7761646,12.9844478 39.0006789,12.7802996 39.0006789,12.5253117 L39.0006633,12.5253117 L39.0006633,7.45217766 C39.0006633,7.19799305 38.7770377,6.99222388 38.500776,6.99222388 Z M35.500776,6.99222388 C35.2236412,6.99222388 35,7.19718971 35,7.45217766 L35,7.45217766 L35,12.5253117 C35,12.7802996 35.2236412,12.9844478 35.500776,12.9844478 C35.7761646,12.9844478 36.0006789,12.7802996 36.0006789,12.5253117 L36.0006633,12.5253117 L36.0006633,7.45217766 C36.0006633,7.19799305 35.7770377,6.99222388 35.500776,6.99222388 Z M39.3381713,1 C40.1609686,1 40.5046645,1.35500824 40.5055369,2.06226668 L40.5055369,2.06226668 L40.5055369,2.98983686 L43.5098399,2.98983686 C43.8366133,3.09141219 44,3.25633868 44,3.4846163 C44,3.82703275 43.7849884,3.99611194 43.5089675,3.99611194 L43.5089675,3.99611194 L30.4914811,3.99611194 C30.2154602,3.99611194 30,3.72136807 30,3.4846163 C30,3.24861042 30.2145879,2.98983686 30.4914811,2.98983686 L30.4914811,2.98983686 L33.4988547,2.98983686 L33.4988547,2.06226668 C33.4988547,1.35500824 33.9106731,1 34.7387202,1 L34.7387202,1 Z" id="删除"></path>
                </g>
            </g>
        </g>
    </g>
</svg>