<?xml version="1.0" encoding="UTF-8"?>
<svg width="17px" height="16px" viewBox="0 0 17 16" version="1.1" xmlns="http://www.w3.org/2000/svg" xmlns:xlink="http://www.w3.org/1999/xlink">
    <!-- Generator: Sketch 60 (88103) - https://sketch.com -->
    <title>up-circle-fill</title>
    <desc>Created with Sketch.</desc>
    <g id="业务配置" stroke="none" stroke-width="1" fill="none" fill-rule="evenodd">
        <g id="等级处置流程" transform="translate(-896.000000, -473.000000)" fill="#0091FF" fill-rule="nonzero">
            <g id="win-copy-4" transform="translate(189.000000, 83.000000)">
                <g id="窗体">
                    <g id="编组-9备份-4" transform="translate(240.000000, 376.000000)">
                        <g id="Group-5">
                            <g id="down-circle-fill" transform="translate(467.000000, 14.000000)">
                                <path d="M8,1 C4.134375,1 1,4.134375 1,8 C1,11.865625 4.134375,15 8,15 C11.865625,15 15,11.865625 15,8 C15,4.134375 11.865625,1 8,1 Z M10.8828125,6.5265625 L8.1015625,10.3703125 C8.0515625,10.4390625 7.95,10.4390625 7.9,10.3703125 L5.11875,6.5265625 C5.059375,6.44375 5.11875,6.328125 5.2203125,6.328125 L5.953125,6.328125 C6.1125,6.328125 6.2640625,6.4046875 6.3578125,6.534375 L8,8.80625 L9.64375,6.534375 C9.7375,6.4046875 9.8875,6.328125 10.0484375,6.328125 L10.78125,6.328125 C10.8828125,6.328125 10.9421875,6.44375 10.8828125,6.5265625 Z" id="形状"></path>
                            </g>
                        </g>
                    </g>
                </g>
            </g>
        </g>
    </g>
</svg>