<?xml version="1.0" encoding="UTF-8"?>
<svg width="17px" height="16px" viewBox="0 0 17 16" version="1.1" xmlns="http://www.w3.org/2000/svg" xmlns:xlink="http://www.w3.org/1999/xlink">
    <!-- Generator: Sketch 60 (88103) - https://sketch.com -->
    <title>up-circle-fill</title>
    <desc>Created with Sketch.</desc>
    <g id="业务配置" stroke="none" stroke-width="1" fill="none" fill-rule="evenodd">
        <g id="等级处置流程" transform="translate(-874.000000, -473.000000)" fill="#0091FF" fill-rule="nonzero">
            <g id="win-copy-4" transform="translate(189.000000, 83.000000)">
                <g id="窗体">
                    <g id="编组-9备份-4" transform="translate(240.000000, 376.000000)">
                        <g id="Group-5">
                            <g id="up-circle-fill" transform="translate(445.000000, 14.000000)">
                                <path d="M8,1 C4.134375,1 1,4.134375 1,8 C1,11.865625 4.134375,15 8,15 C11.865625,15 15,11.865625 15,8 C15,4.134375 11.865625,1 8,1 Z M10.78125,9.671875 L10.0484375,9.671875 C9.8890625,9.671875 9.7375,9.5953125 9.64375,9.465625 L8,7.19375 L6.35625,9.465625 C6.2625,9.5953125 6.1125,9.671875 5.9515625,9.671875 L5.21875,9.671875 C5.1171875,9.671875 5.0578125,9.55625 5.1171875,9.4734375 L7.8984375,5.6296875 C7.9484375,5.5609375 8.05,5.5609375 8.1,5.6296875 L10.88125,9.4734375 C10.9421875,9.55625 10.8828125,9.671875 10.78125,9.671875 Z" id="形状"></path>
                            </g>
                        </g>
                    </g>
                </g>
            </g>
        </g>
    </g>
</svg>