<?xml version="1.0" encoding="UTF-8"?>
<svg width="20px" height="24px" viewBox="0 0 20 24" version="1.1" xmlns="http://www.w3.org/2000/svg" xmlns:xlink="http://www.w3.org/1999/xlink">
    <title>无人机mini备份 2</title>
    <g id="页面-1" stroke="none" stroke-width="1" fill="none" fill-rule="evenodd">
        <g id="落点切图" transform="translate(-581.000000, -288.000000)" fill-rule="nonzero">
            <g id="无人机mini备份-2" transform="translate(581.000000, 288.000000)">
                <path d="M10,0.5 C12.6233526,0.5 14.9983526,1.56332372 16.7175144,3.28248558 C18.4366763,5.00164744 19.5,7.37664744 19.5,10 C19.5,13.0460551 18.0663431,15.7572032 15.8371563,17.4957464 L15.8371563,17.4957464 L10.0000901,23.2950852 L4.17742239,17.5070936 C1.93990984,15.7690125 0.5,13.0526904 0.5,10 C0.5,7.37664744 1.56332372,5.00164744 3.28248558,3.28248558 C5.00164744,1.56332372 7.37664744,0.5 10,0.5 Z" id="形状结合" stroke="#FFFFFF" fill="#999999"></path>
                <path d="M9.85734663,13.1996347 C9.64440102,13.1996347 9.47177449,13.3734713 9.47177449,13.5879096 C9.47177449,13.8023479 9.64440102,13.9761845 9.85734663,13.9761845 C10.0702922,13.9761845 10.2429188,13.8023479 10.2429188,13.5879096 C10.2429188,13.3734713 10.0702922,13.1996347 9.85734663,13.1996347 Z M9.85734663,13.8305814 C9.77124023,13.8305989 9.69166718,13.7843498 9.64860895,13.7092596 C9.60555072,13.6341695 9.60555072,13.5416496 9.64860895,13.4665595 C9.69166718,13.3914693 9.77124023,13.3452202 9.85734663,13.3452377 C9.9904186,13.3452649 10.0982805,13.4539048 10.0982805,13.5879096 C10.0982805,13.7219143 9.9904186,13.8305543 9.85734663,13.8305814 L9.85734663,13.8305814 Z M16.5442247,6.62870813 C16.0871352,6.72107998 15.4792372,6.75630654 15.1721787,6.83458777 C15.1325533,6.76652432 15.0600736,6.72470829 14.9817247,6.72470829 C14.9033759,6.72470829 14.8308962,6.76652432 14.7912708,6.83458777 C14.485767,6.75630654 13.877869,6.72107998 13.4207795,6.62870813 C12.7973342,6.50267535 12.6822844,6.77431122 12.6822844,6.95279243 C12.6822844,7.13283926 12.79267,7.37551109 13.4207795,7.27765954 C13.8957484,7.20250956 14.502869,7.16023769 14.8021538,7.07412833 C14.8151652,7.09259627 14.8308926,7.10896188 14.8487956,7.1226627 L14.8487956,7.61270321 L14.5635033,7.61270321 L14.5635033,7.97044844 L10.213379,7.92582814 L10.213379,7.91800001 L9.80915012,7.92191407 L9.40569862,7.91800001 L9.40569862,7.92582814 L5.03691753,7.97044844 L5.03691753,7.61348602 L4.74462897,7.61348602 L4.74462897,7.09917833 C4.7524026,7.09135021 4.7586215,7.08352208 4.76484041,7.07491115 C5.06412524,7.16023769 5.67124588,7.20250957 6.14621479,7.27765954 C6.77432424,7.37629389 6.88470981,7.13205644 6.88470981,6.95279243 C6.88470981,6.77431122 6.76966006,6.50267535 6.14621479,6.62870813 C5.68834787,6.72107998 5.07967251,6.75630654 4.77339141,6.83458777 C4.73407603,6.76610939 4.66148635,6.72393526 4.58293743,6.72393526 C4.50438852,6.72393526 4.43179883,6.76610939 4.39248345,6.83458777 C4.08775708,6.75630654 3.47830434,6.72107998 3.02199216,6.62870813 C2.39776951,6.50267535 2.28271976,6.77431122 2.28271976,6.95279243 C2.28271976,7.13283926 2.39310534,7.37551109 3.02121479,7.27765954 C3.49696105,7.20250956 4.10330434,7.16023769 4.40258917,7.07412833 C4.41560048,7.09259627 4.43132792,7.10896188 4.44923096,7.1226627 L4.44923096,7.61270321 L4.16393867,7.61270321 L4.16393867,7.97984218 L4.15538767,7.97984218 C3.78318383,7.98360409 3.47259758,8.26710897 3.43243992,8.63975296 L3.43166255,8.65619202 C3.42871762,8.68845859 3.42793849,8.72088851 3.42933047,8.75326074 L3.43010783,8.77283105 C3.43308315,8.81614001 3.43984651,8.85910025 3.45031927,8.90121227 L3.45653818,8.92156539 L3.46275708,8.94504976 L3.4666439,8.95522632 C3.47691238,8.98522181 3.4891171,9.01450925 3.50317997,9.0429013 L3.50862151,9.05386067 L3.51173096,9.06012317 C3.51859091,9.07338908 3.52584966,9.08644197 3.53349713,9.09926378 L3.53971603,9.10944034 L3.56303693,9.14544971 L3.57081057,9.15562627 L3.59724091,9.19007001 L3.60345981,9.19789814 C3.63523207,9.23529494 3.67064989,9.26938752 3.70918121,9.29966374 C3.7115133,9.29966374 3.71306803,9.30201218 3.71462275,9.3035778 L3.74260783,9.3231481 L3.7620419,9.33645591 L3.78769489,9.35211216 C3.84637508,9.38710472 3.90972385,9.4134654 3.97581678,9.43039339 L3.99913768,9.43665589 C4.01202105,9.43961871 4.02498187,9.44222904 4.03800583,9.44448401 C4.04422474,9.44448401 4.05122101,9.44683245 4.05743991,9.44761526 C4.076874,9.4499637 4.09630808,9.45231213 4.11651952,9.45309495 L5.11154439,9.50867462 L5.12242747,9.51806837 L5.12475957,9.52276524 L5.52587897,10.474665 L5.12242747,9.51806837 C5.26779439,9.6534949 5.38595359,9.82023392 5.466022,10.0104573 L5.52587897,10.1529292 C5.64092872,10.424565 5.90756429,10.5991322 6.20063021,10.5936525 L7.03551827,10.5779962 C7.3729641,10.5716952 7.66053938,10.3296635 7.72659414,9.99636669 L7.91238394,9.06168879 C7.94347847,8.90512633 8.07174339,8.78692167 8.22954813,8.76891699 L9.28054315,8.65384358 C9.63189868,8.61511824 9.98640154,8.61511824 10.3377571,8.65384358 L11.3887521,8.76891699 C11.5465916,8.78635073 11.6749699,8.90485576 11.7059163,9.06168879 L11.8917061,9.99636669 C11.9577608,10.3296635 12.2453361,10.5716952 12.582782,10.5779962 L13.4168927,10.5936525 C13.7100562,10.5992029 13.9771386,10.4247542 14.0916439,10.1529292 L14.1483914,10.0198511 C14.2284598,9.82806204 14.3473964,9.66054021 14.4927633,9.52433087 L14.4989822,9.50945743 L14.4927633,9.52433087 L14.5036464,9.51493712 L14.5036464,9.52276524 L14.5083106,9.51102306 L14.5098653,9.50945743 L15.5103317,9.45309495 C15.8080645,9.43648718 16.0657535,9.23899783 16.1609847,8.95444351 L16.150879,8.95444351 L16.1547658,8.94426695 L16.1609847,8.92156539 L16.1672036,8.90121227 C16.17178,8.88310237 16.1756696,8.8648235 16.178864,8.84641541 L16.178864,8.84484978 C16.1829151,8.82100359 16.185769,8.79696681 16.187415,8.77283105 L16.1889698,8.75326074 C16.190357,8.72088846 16.1895779,8.68845886 16.1866377,8.65619202 L16.1850829,8.64053577 C16.1469781,8.26672069 15.8352933,7.98187556 15.4621352,7.97984218 L15.4349275,7.97984218 L15.4349275,7.61270321 L15.1426389,7.61270321 L15.1426389,7.09917833 C15.1504125,7.09135021 15.1566315,7.08352208 15.1628504,7.07491115 C15.4621352,7.16023769 16.0692558,7.20250957 16.5442247,7.27765954 C17.1723342,7.37629389 17.2827198,7.13205644 17.2827198,6.95279243 C17.2827198,6.77431122 17.16767,6.50267535 16.5442247,6.62870813 L16.5442247,6.62870813 Z M9.85734663,13.4313471 C9.77148147,13.4313471 9.701874,13.5014425 9.701874,13.5879096 C9.701874,13.6743766 9.77148147,13.744472 9.85734663,13.744472 C9.9432118,13.744472 10.0128193,13.6743766 10.0128193,13.5879096 C10.0128193,13.5014425 9.9432118,13.4313471 9.85734663,13.4313471 L9.85734663,13.4313471 Z M9.85734663,13.6857611 C9.8036809,13.6857611 9.76017623,13.6419515 9.76017623,13.5879096 C9.76017623,13.5338677 9.8036809,13.490058 9.85734663,13.490058 C9.91101236,13.490058 9.95451703,13.5338677 9.95451703,13.5879096 C9.95451703,13.6419515 9.91101236,13.6857611 9.85734663,13.6857611 Z M14.12818,15.8181418 C14.0691004,14.274436 13.9027446,13.1213534 13.6843056,12.2626083 C13.6749408,12.2257577 13.6653532,12.1889648 13.6555431,12.1522318 L13.6345543,12.0755162 C13.6037576,11.9631348 13.5705825,11.8514282 13.5350519,11.7404725 L13.5241688,11.70916 L13.5008479,11.6379241 L13.4853006,11.5909554 L13.460425,11.5228507 L13.4448777,11.479796 C13.4268515,11.430499 13.4081932,11.3814386 13.3889076,11.3326273 L13.3857981,11.3240164 C13.3771178,11.3023052 13.3683076,11.280647 13.3593678,11.2590429 L13.3438205,11.2222508 C13.3353929,11.2018453 13.3268418,11.1814918 13.3181675,11.1611914 L13.3026203,11.1283133 C13.27408,11.063413 13.2440135,10.9992043 13.2124461,10.9357415 L13.2007857,10.9114743 L12.582782,10.8997321 C12.2450425,10.8937952 11.9570463,10.6516815 11.8909287,10.3181026 L11.6530556,9.12039972 L10.2561339,8.96618569 C9.95877131,8.93345185 9.65875156,8.93345185 9.36138892,8.96618569 L7.96446728,9.12039972 L7.72659414,10.3181026 C7.6604766,10.6516815 7.37248035,10.8937952 7.03474091,10.8997321 L6.46804315,10.9106915 L6.4563827,10.9349587 C6.42491178,10.9984687 6.39484631,11.0626751 6.36620857,11.1275305 L6.35066131,11.1619742 C6.34198175,11.1820107 6.33343057,11.2021033 6.32500832,11.2222508 L6.30946106,11.2598258 L6.28303071,11.3232336 L6.27836653,11.3365414 C6.25970981,11.3827273 6.24183046,11.4304788 6.22395111,11.4805788 L6.20840385,11.5228507 L6.18430558,11.5909554 L6.16798096,11.6379241 L6.14466007,11.7083772 L6.13377698,11.7412553 C6.11822971,11.7882241 6.10345981,11.8367584 6.08868991,11.8860756 L6.07236529,11.9416553 C6.05907534,11.9861766 6.04611892,12.0307981 6.03349713,12.0755162 L6.01328569,12.1522318 C6.00347983,12.1889659 5.99389218,12.2257587 5.98452325,12.2626083 C5.76686155,13.1213534 5.59972847,14.274436 5.53987151,15.8181418 C5.43725957,15.8478887 5.36263271,15.9277356 5.36263271,16.021673 C5.36263271,16.1422261 5.48156927,16.2392949 5.62771354,16.2392949 L5.75831056,16.2392949 C5.90445484,16.2392949 6.02261404,16.1422261 6.02261404,16.0224558 C6.02261404,15.9598309 5.99074215,15.905034 5.93943619,15.8643278 C5.95731554,15.3476716 6.14232797,11.9651397 7.966022,10.8175368 L8.46508917,14.1397922 C8.50317997,14.4302156 8.74882673,14.6470546 9.04033792,14.6470546 L10.7925145,14.6470546 C11.0886899,14.6470546 11.3374461,14.4223875 11.369318,14.1257016 L11.5395606,12.7275988 L11.7665506,10.8598087 C13.531165,12.0449865 13.7115133,15.3531513 13.7293926,15.8643278 C13.6781506,15.9007021 13.6470163,15.9593428 13.6454374,16.0224558 C13.6454374,16.1422261 13.764374,16.2392949 13.9097409,16.2392949 L14.0411153,16.2392949 C14.1872596,16.2392949 14.3054188,16.1422261 14.3054188,16.0224558 C14.3054188,15.9277356 14.2315693,15.8478887 14.12818,15.8189246 L14.12818,15.8181418 Z M9.85734663,14.0983032 C9.57742619,14.0983032 9.35050584,13.8697922 9.35050584,13.5879096 C9.35050584,13.3060269 9.57742619,13.0775159 9.85734663,13.0775159 C10.1372671,13.0775159 10.3641874,13.3060269 10.3641874,13.5879096 C10.3641874,13.8697922 10.1372671,14.0983032 9.85734663,14.0983032 Z" id="形状" fill="#FFFFFF"></path>
            </g>
        </g>
    </g>
</svg>