<?xml version="1.0" encoding="UTF-8"?>
<svg width="26px" height="29px" viewBox="0 0 26 29" version="1.1" xmlns="http://www.w3.org/2000/svg" xmlns:xlink="http://www.w3.org/1999/xlink">
    <title>队伍 集群终端备份 2</title>
    <g id="页面-1" stroke="none" stroke-width="1" fill="none" fill-rule="evenodd">
        <g id="落点切图" transform="translate(-748.000000, -245.000000)" fill-rule="nonzero">
            <g id="队伍-集群终端备份-2" transform="translate(748.000000, 245.000000)">
                <path d="M10,5.5 C12.6233526,5.5 14.9983526,6.56332372 16.7175144,8.28248558 C18.4366763,10.0016474 19.5,12.3766474 19.5,15 C19.5,18.0460551 18.0663431,20.7572032 15.8371563,22.4957464 L15.8371563,22.4957464 L10.0000901,28.2950852 L4.17742239,22.5070936 C1.93990985,20.7690125 0.5,18.0526904 0.5,15 C0.5,12.3766474 1.56332372,10.0016474 3.28248558,8.28248558 C5.00164744,6.56332372 7.37664744,5.5 10,5.5 Z" id="形状结合" stroke="#FFFFFF" fill="#0091FF"></path>
                <path d="M14.8018791,17.9839718 C15.5993931,18.3035853 16.0755494,18.70571 16.0755494,19.1428948 C16.0755494,20.1814696 13.3890737,21.0239693 10.0751584,21.0239693 C6.76203447,21.0239693 4.07554941,20.1814696 4.07554941,19.1428948 C4.07554941,18.70571 4.55111929,18.3035853 5.34883182,17.9839718 C5.15798018,18.1192766 5.05295234,18.2647419 5.05295234,18.4163761 C5.05295234,19.1221794 7.30167665,19.693675 10.0751553,19.693675 C12.8494283,19.693675 15.0977555,19.1221794 15.0977555,18.4163761 C15.0977586,18.2647388 14.9933141,18.1192766 14.8018791,17.9839718 L14.8018791,17.9839718 Z M7.12963497,9.43426344 C7.7319811,9.43426344 8.2202947,9.93083335 8.2202947,10.5431728 C8.2202947,11.1557205 7.7319811,11.6524924 7.12963497,11.6524924 C6.52727955,11.6524924 6.03897524,11.1557174 6.03897524,10.5431728 C6.03897524,9.93083019 6.52728264,9.43426344 7.12963497,9.43426344 L7.12963497,9.43426344 Z M13.0046212,9.43426344 C12.4026536,9.43426344 11.9143493,9.93083335 11.9143493,10.5431728 C11.9143493,11.1557205 12.4026536,11.6524924 13.0046212,11.6524924 C13.6073645,11.6524924 14.0956688,11.1557174 14.0956688,10.5431728 C14.0956688,9.93083019 13.6073645,9.43426344 13.0046212,9.43426344 L13.0046212,9.43426344 Z M11.9270868,15.8129607 L11.9270868,18.7363966 L12.6958025,18.7363966 L13.0028525,16.6871409 L13.3106938,18.7363966 L14.1475963,18.7363966 L14.1475963,15.4987147 C14.4793455,15.3225628 14.707423,14.9694703 14.707423,14.5637641 L14.707423,12.9074666 C14.707423,12.3282024 14.2420493,11.8543452 13.6720264,11.8543452 L12.3979527,11.8543452 C12.3158493,11.8543452 12.2353129,11.8641113 12.1584999,11.8828388 C12.3291764,12.1480684 12.4283303,12.4643055 12.4283303,12.8034479 L12.4283303,14.6062109 C12.4283334,15.0675095 12.2419717,15.5001188 11.9270868,15.8129607 L11.9270868,15.8129607 Z M10.0935743,9.02396927 C10.748847,9.02396927 11.2802541,9.56437442 11.2802541,10.2307222 C11.2802541,10.8972719 10.748847,11.4376771 10.0935743,11.4376771 C9.43792924,11.4376771 8.90670838,10.8972719 8.90670838,10.2307222 C8.90670838,9.56437442 9.43792614,9.02396927 10.0935743,9.02396927 L10.0935743,9.02396927 Z M11.2661513,15.6258437 C11.6298297,15.4357449 11.8810425,15.0491764 11.8810425,14.6062109 L11.8810425,12.8034479 C11.8810425,12.1733749 11.3739159,11.6576673 10.7543268,11.6576673 L9.36739353,11.6576673 C8.74739797,11.6576673 8.24047612,12.1733749 8.24047612,12.8034479 L8.24047612,14.6062109 C8.24047612,15.0471885 8.48874741,15.4319616 8.85027857,15.6234646 L8.85027857,19.1466813 L9.76086001,19.1466813 L10.0955323,16.9166983 L10.4298415,19.1466813 L11.2661544,19.1466813 L11.2661544,15.6258437 L11.2661513,15.6258437 Z M8.20735549,15.8129607 C7.89266609,15.5001157 7.70651226,15.0675095 7.70651226,14.6062078 L7.70651226,12.8034447 C7.70651226,12.4642992 7.80526907,12.1480652 7.97613167,11.8828356 C7.89932805,11.8641081 7.818984,11.8543421 7.73668821,11.8543421 L6.46261455,11.8543421 C5.8925947,11.8543421 5.42720861,12.3281992 5.42720861,12.9074635 L5.42720861,14.5637609 C5.42720861,14.9694703 5.65529536,15.3225597 5.98724014,15.4987115 L5.98724014,18.7363934 L6.82395023,18.7363934 L7.13179148,16.6871377 L7.43884148,18.7363934 L8.20735549,18.7363934 L8.20735549,15.8129607 Z" id="形状" fill="#FFFFFF"></path>
                <g id="编组-2" transform="translate(14.000000, 0.000000)">
                    <circle id="椭圆形" stroke="#FFFFFF" stroke-width="0.5" fill="#0BD295" cx="5.7" cy="5.7" r="5.45"></circle>
                    <path d="M4.98921103,1.63080965 C5.12220112,1.63080965 5.23294606,1.72344478 5.24388146,1.84376965 L5.24454237,1.85280965 L5.3223975,3.48544965 L5.51996535,3.48544965 L5.51996535,3.89924965 L7.21674011,3.89924965 C7.553143,3.89924965 7.82662732,4.14344965 7.83398544,4.44716965 L7.83411762,4.45968965 L7.83411762,9.07036965 C7.83411762,9.37568965 7.56517155,9.62400965 7.23048703,9.63064965 L7.21674011,9.63080965 L4.35632418,9.63080965 C4.02040596,9.63080965 3.8394049,9.38708965 3.83420575,9.08376965 L3.83411762,9.07040965 L3.83411762,4.45968965 C3.83411762,4.15436965 4.10310776,3.90604965 4.43757198,3.89940965 L4.45136295,3.89924965 L4.45775175,3.89924965 L4.45775175,3.48544965 L4.6550993,3.48544965 L4.7338797,1.85268965 C4.73986964,1.7286146 4.85240922,1.63080965 4.98921103,1.63080965 Z M4.89378048,6.69747632 L4.48874048,6.69747632 C4.4666793,6.69746584 4.44551842,6.70706301 4.42991543,6.72415546 C4.41431243,6.74124791 4.4055462,6.76443469 4.4055462,6.78861231 L4.4055462,7.13967366 C4.4055462,7.16385128 4.41431243,7.18703806 4.42991543,7.20413051 C4.44551842,7.22122296 4.4666793,7.23082013 4.48874048,7.23080965 L4.89378048,7.23080965 C4.91584166,7.23082013 4.93700255,7.22122296 4.95260554,7.20413051 C4.96820853,7.18703806 4.97697477,7.16385128 4.97697477,7.13967366 L4.97697477,6.78861231 C4.97697477,6.76443469 4.96820853,6.74124791 4.95260554,6.72415546 C4.93700255,6.70706301 4.91584166,6.69746584 4.89378048,6.69747632 L4.89378048,6.69747632 Z M6.03670453,6.69747632 L5.63160288,6.69747632 C5.60954031,6.69746584 5.58837808,6.70706301 5.57277411,6.72415546 C5.55717013,6.74124791 5.54840334,6.76443469 5.54840334,6.78861231 L5.54840334,7.13967366 C5.54840334,7.16385128 5.55717013,7.18703806 5.57277411,7.20413051 C5.58837808,7.22122296 5.60954031,7.23082013 5.63160288,7.23080965 L6.03666845,7.23080965 C6.08259836,7.23080965 6.11983191,7.19000667 6.11983191,7.13967366 L6.11983191,6.78861231 C6.11983191,6.7382793 6.08259836,6.69747632 6.03666845,6.69747632 L6.03670453,6.69747632 Z M7.17953085,6.69747632 L6.77445477,6.69747632 C6.75239359,6.69746584 6.7312327,6.70706301 6.71562971,6.72415546 C6.70002672,6.74124791 6.69126048,6.76443469 6.69126048,6.78861231 L6.69126048,7.13967366 C6.69126048,7.16385128 6.70002672,7.18703806 6.71562971,7.20413051 C6.7312327,7.22122296 6.75239359,7.23082013 6.77445477,7.23080965 L7.17953085,7.23080965 C7.22545786,7.23080965 7.26268905,7.19000667 7.26268905,7.13967366 L7.26268905,6.78861231 C7.26268905,6.7382793 7.22545786,6.69747632 7.17953085,6.69747632 Z M7.02543335,4.29747632 L4.6428019,4.29747632 C4.51176919,4.29747632 4.4055462,4.4026747 4.4055462,4.53244349 L4.4055462,5.92921939 C4.4055462,6.05897115 4.51178637,6.16414298 4.6428019,6.16414298 L7.02547735,6.16414298 C7.15647569,6.16411893 7.26268905,6.05895414 7.26268905,5.92921939 L7.26268905,4.53239992 C7.26268905,4.40264815 7.15644888,4.29747632 7.02543335,4.29747632 Z M6.93384808,4.56414298 C6.95766629,4.56414298 6.97697477,4.58339955 6.97697477,4.60715374 L6.97697477,5.85446557 C6.97697477,5.87821975 6.95766629,5.89747632 6.93384808,5.89747632 L4.73438717,5.89747632 C4.71056896,5.89747632 4.69126048,5.87821975 4.69126048,5.85446557 L4.69126048,4.60715374 C4.69126048,4.58339955 4.71056896,4.56414298 4.73438717,4.56414298 L6.93384808,4.56414298 Z" id="形状备份-75" fill="#FFFFFF"></path>
                </g>
            </g>
        </g>
    </g>
</svg>