<?xml version="1.0" encoding="UTF-8"?>
<svg width="20px" height="24px" viewBox="0 0 20 24" version="1.1" xmlns="http://www.w3.org/2000/svg" xmlns:xlink="http://www.w3.org/1999/xlink">
    <title>应急装备mini备份 2</title>
    <g id="页面-1" stroke="none" stroke-width="1" fill="none" fill-rule="evenodd">
        <g id="落点切图" transform="translate(-522.000000, -287.000000)" fill-rule="nonzero">
            <g id="应急装备mini备份-2" transform="translate(522.000000, 287.000000)">
                <path d="M10,0.5 C12.6233526,0.5 14.9983526,1.56332372 16.7175144,3.28248558 C18.4366763,5.00164744 19.5,7.37664744 19.5,10 C19.5,13.0460551 18.0663431,15.7572032 15.8371563,17.4957464 L15.8371563,17.4957464 L10.0000901,23.2950852 L4.17742239,17.5070936 C1.93990984,15.7690125 0.5,13.0526904 0.5,10 C0.5,7.37664744 1.56332372,5.00164744 3.28248558,3.28248558 C5.00164744,1.56332372 7.37664744,0.5 10,0.5 Z" id="形状结合" stroke="#FFFFFF" fill="#999999"></path>
                <path d="M14.9722108,10.3574795 L14.9722108,10.3809674 L15.9726536,10.3809674 L15.9726536,14.7737118 C15.9717965,15.3128959 15.5240315,15.7494934 14.9715251,15.7498388 L4.97446787,15.7498388 C4.42230434,15.7498388 3.97282505,15.3120324 3.97282505,14.7737118 L3.97282505,10.3809674 L8.0438526,10.3809674 C8.26773511,11.2203123 9.04378117,11.8451579 9.97273933,11.8451579 C10.9022118,11.8451579 11.6782578,11.220485 11.9016261,10.3809674 L14.8535839,10.3809674 C14.8957547,10.3809674 14.9331256,10.367151 14.9722108,10.3574795 Z M10.8336413,10.3809674 C10.6517473,10.6847677 10.3249006,10.8700641 9.97273933,10.8690352 C9.61720156,10.8681674 9.28909195,10.6819917 9.1121802,10.3809674 L10.8338127,10.3809674 L10.8336413,10.3809674 Z M11.9755107,4.52403236 C12.7109288,4.52403236 12.9728679,4.85977033 12.9728679,5.1740929 L12.9728679,6.47628646 L14.9716965,6.47628646 C15.5236886,6.47628646 15.972825,6.91409291 15.972825,7.45258621 L15.972825,9.42832814 L3.97282505,9.42832814 L3.97282505,7.45258621 C3.97385361,6.91322939 4.42196149,6.47663187 4.97429646,6.47628646 L6.97278219,6.47628646 L6.97278219,5.1740929 C6.97278219,4.85977031 7.23523559,4.52403236 7.97082507,4.52403236 L11.9755107,4.52403236 Z" id="形状备份-44" fill="#FFFFFF" transform="translate(9.972825, 10.136936) rotate(-360.000000) translate(-9.972825, -10.136936) "></path>
            </g>
        </g>
    </g>
</svg>