<?xml version="1.0" encoding="UTF-8"?>
<svg width="20px" height="24px" viewBox="0 0 20 24" version="1.1" xmlns="http://www.w3.org/2000/svg" xmlns:xlink="http://www.w3.org/1999/xlink">
    <title>应急专家mini备份</title>
    <g id="页面-1" stroke="none" stroke-width="1" fill="none" fill-rule="evenodd">
        <g id="落点切图" transform="translate(-492.000000, -249.000000)" fill-rule="nonzero">
            <g id="应急专家mini备份" transform="translate(492.000000, 249.000000)">
                <path d="M10,0.5 C12.6233526,0.5 14.9983526,1.56332372 16.7175144,3.28248558 C18.4366763,5.00164744 19.5,7.37664744 19.5,10 C19.5,13.0460551 18.0663431,15.7572032 15.8371563,17.4957464 L15.8371563,17.4957464 L10.0000901,23.2950852 L4.17742239,17.5070936 C1.93990984,15.7690125 0.5,13.0526904 0.5,10 C0.5,7.37664744 1.56332372,5.00164744 3.28248558,3.28248558 C5.00164744,1.56332372 7.37664744,0.5 10,0.5 Z" id="形状结合" stroke="#FFFFFF" fill="#0091FF"></path>
                <path d="M16.4504973,13.3102756 C16.2347051,12.6900719 15.520824,12.6011823 14.9239448,12.3512977 C14.2686549,12.0775647 13.5422715,11.7593688 12.8886619,11.4934407 C12.7021744,11.4429977 12.5153255,11.3927172 12.328838,11.3421297 C12.1061623,11.1899514 11.8883286,10.6850151 11.7692671,10.4338477 C11.6504766,10.417208 11.5320294,10.4003154 11.412986,10.3835673 C11.4314685,9.9948198 11.6738011,9.97415115 11.7692671,9.67729239 C11.8531883,9.41499579 11.7779031,9.07464976 11.9110388,8.83257014 C12.003596,8.66409543 12.2120891,8.66297528 12.3165886,8.51887293 C12.4111332,8.38777882 12.4735185,8.15957464 12.5031303,7.99886873 C12.5571867,7.70578598 12.6039622,7.30448193 12.4637623,7.01385627 C12.3828945,6.84666431 12.3318913,6.8306389 12.3094341,6.62781883 C12.2823336,6.38216193 12.3825873,5.58042104 12.3866705,5.40724891 C12.3968783,4.95748918 12.3858032,4.92110227 12.2763534,4.48292349 C12.2763534,4.48292349 12.1429106,4.08606392 11.9340561,3.9668579 L11.5177384,3.89543909 L11.2603922,3.65928543 C10.2236178,3.02616379 9.11204604,3.47014207 8.51664828,3.70962007 C7.65864678,3.98550306 7.11643824,4.81889731 7.49517662,6.59865872 C7.55954932,6.90256362 7.32717166,7.03840933 7.34232987,7.20417399 C7.37541054,7.56708568 7.38265539,8.43923364 7.72816857,8.65415858 C7.76038202,8.67365285 8.00547885,8.73491804 8.00399735,8.71802539 C8.03794523,9.07150611 8.07164017,9.42486035 8.10573259,9.77788941 C8.19200248,10.0126158 8.39906828,10.0385058 8.45910491,10.3698725 L8.19404406,10.4338839 C8.07525358,10.6850512 7.85716691,11.1899875 7.63416601,11.3421658 C7.44762431,11.3927534 7.2611368,11.4430338 7.07459509,11.4934769 C6.42105775,11.7594049 5.6943491,12.0776008 5.03931219,12.3513338 C4.44274007,12.6012184 3.72858798,12.690108 3.51250674,13.3103118 C3.51250674,13.7314714 3.47283163,14.7266556 3.48345503,15.278259 L9.187819,15.278259 L9.60648544,12.4416507 L9.25847902,11.713316 L10.0622615,11.3311991 L10.7389788,11.7053485 L10.3659496,12.4556888 L11.0258826,15.278259 L16.4797477,15.278259 C16.4907325,14.7266195 16.4504973,13.7314534 16.4504973,13.3102756" id="路径" fill="#FFFFFF"></path>
            </g>
        </g>
    </g>
</svg>