<?xml version="1.0" encoding="UTF-8"?>
<svg width="20px" height="24px" viewBox="0 0 20 24" version="1.1" xmlns="http://www.w3.org/2000/svg" xmlns:xlink="http://www.w3.org/1999/xlink">
    <title>应急装备库mini备份 2</title>
    <g id="页面-1" stroke="none" stroke-width="1" fill="none" fill-rule="evenodd">
        <g id="落点切图" transform="translate(-552.000000, -287.000000)" fill-rule="nonzero">
            <g id="应急装备库mini备份-2" transform="translate(552.000000, 287.000000)">
                <path d="M10,0.5 C12.6233526,0.5 14.9983526,1.56332372 16.7175144,3.28248558 C18.4366763,5.00164744 19.5,7.37664744 19.5,10 C19.5,13.0460551 18.0663431,15.7572032 15.8371563,17.4957464 L15.8371563,17.4957464 L10.0000901,23.2950852 L4.17742239,17.5070936 C1.93990984,15.7690125 0.5,13.0526904 0.5,10 C0.5,7.37664744 1.56332372,5.00164744 3.28248558,3.28248558 C5.00164744,1.56332372 7.37664744,0.5 10,0.5 Z" id="形状结合" stroke="#FFFFFF" fill="#999999"></path>
                <path d="M9.73891339,5.90085061 C9.96765772,5.76029888 10.2531502,5.76029888 10.4818946,5.90085061 L10.4818946,5.90085061 L14.8159514,8.50391616 C15.04693,8.642377 15.1866395,8.89853052 15.1809246,9.17308467 L15.1809246,9.17308467 L15.1809246,15.1019178 C15.1809403,15.5206299 14.8522506,15.861097 14.4444608,15.8647699 L14.4444608,15.8647699 L5.77634712,15.8647699 C5.37712423,15.8649144 5.05048213,15.5384401 5.03988331,15.1286845 L5.03988331,15.1286845 L5.03988331,9.17308467 C5.03416848,8.89853052 5.17387795,8.642377 5.40485653,8.50391616 L5.40485653,8.50391616 Z M8.15519036,12.6059192 L6.46067189,12.6059192 C6.36131705,12.6093802 6.28155611,12.6912743 6.27818525,12.7932864 L6.27818525,12.7932864 L6.27818525,14.5264328 C6.27812469,14.6310488 6.35884157,14.7168843 6.46067189,14.7204917 L6.46067189,14.7204917 L8.16170774,14.7204917 C8.26353806,14.7168843 8.34425493,14.6310488 8.34419437,14.5264328 L8.34419437,14.5264328 L8.33767697,14.5264328 L8.33767697,12.7932864 C8.33430614,12.6912743 8.2545452,12.6093802 8.15519036,12.6059192 L8.15519036,12.6059192 Z M10.8533852,12.6059192 L9.15234931,12.6059192 C9.05299447,12.6093802 8.97323353,12.6912743 8.96986266,12.7932864 L8.96986266,12.7932864 L8.96986266,14.5264328 C8.9698021,14.6310488 9.05051898,14.7168843 9.15234931,14.7204917 L9.15234931,14.7204917 L10.8533852,14.7204917 C10.9552155,14.7168843 11.0359324,14.6310488 11.0358718,14.5264328 L11.0358718,14.5264328 L11.0358718,12.7932864 C11.0325009,12.6912743 10.95274,12.6093802 10.8533852,12.6059192 L10.8533852,12.6059192 Z M13.4994409,12.6059191 L11.8049225,12.6059191 C11.7030315,12.605857 11.6194319,12.6887326 11.6159185,12.7932864 L11.6159185,12.7932864 L11.6159185,14.5264328 C11.6159185,14.6336086 11.7005384,14.7204917 11.8049225,14.7204917 L11.8049225,14.7204917 L13.4994409,14.7204917 C13.6038249,14.7204917 13.6884449,14.6336086 13.6884449,14.5264328 L13.6884449,14.5264328 L13.6884449,12.7932864 C13.6849315,12.6887326 13.6013318,12.605857 13.4994409,12.6059191 L13.4994409,12.6059191 Z M8.15519036,9.79541139 L6.46067189,9.79541139 C6.35884156,9.79901882 6.27812468,9.88485431 6.27818525,9.98947027 L6.27818525,9.98947027 L6.27818525,11.7159251 C6.27812469,11.820541 6.35884157,11.9063765 6.46067189,11.9099839 L6.46067189,11.9099839 L8.16170774,11.9099839 C8.26353806,11.9063765 8.34425493,11.820541 8.34419437,11.7159251 L8.34419437,11.7159251 L8.33767697,11.7426918 L8.33767697,9.98947027 C8.33773757,9.88485431 8.25702069,9.79901882 8.15519036,9.79541139 L8.15519036,9.79541139 Z M10.8533852,9.79541139 L9.15234931,9.79541139 C9.05051898,9.79901882 8.96980209,9.88485431 8.96986266,9.98947027 L8.96986266,9.98947027 L8.96986266,11.7159251 C8.9698021,11.820541 9.05051898,11.9063765 9.15234931,11.9099839 L9.15234931,11.9099839 L10.8533852,11.9099839 C10.9552155,11.9063765 11.0359324,11.820541 11.0358718,11.7159251 L11.0358718,11.7159251 L11.0358718,9.98947027 C11.0359324,9.88485431 10.9552155,9.79901882 10.8533852,9.79541139 L10.8533852,9.79541139 Z M9.86926096,3.85319494 C10.0206281,3.77339021 10.2001798,3.77339021 10.351547,3.85319494 L10.351547,3.85319494 L16.3801223,7.5336218 L16.3540528,7.5336218 C16.5793441,7.67037946 16.6621335,7.96349503 16.5430568,8.20279033 C16.4120541,8.43699164 16.1240316,8.52275208 15.8913189,8.39684919 L15.8913189,8.39684919 L10.2537863,4.94393963 C10.1560256,4.89040615 10.0387128,4.89040615 9.94095214,4.94393963 L9.94095214,4.94393963 L4.30341952,8.39684919 C4.07070686,8.52275208 3.78268432,8.43699164 3.65168164,8.20279033 C3.53260498,7.96349503 3.61539431,7.67037946 3.84068564,7.5336218 L3.84068564,7.5336218 Z" id="形状结合" fill="#FFFFFF"></path>
            </g>
        </g>
    </g>
</svg>