<?xml version="1.0" encoding="UTF-8"?>
<svg width="20px" height="24px" viewBox="0 0 20 24" version="1.1" xmlns="http://www.w3.org/2000/svg" xmlns:xlink="http://www.w3.org/1999/xlink">
    <title>应急队伍mini备份</title>
    <g id="页面-1" stroke="none" stroke-width="1" fill="none" fill-rule="evenodd">
        <g id="落点切图" transform="translate(-462.000000, -249.000000)" fill-rule="nonzero">
            <g id="应急队伍mini备份" transform="translate(462.000000, 249.000000)">
                <path d="M10,0.5 C12.6233526,0.5 14.9983526,1.56332372 16.7175144,3.28248558 C18.4366763,5.00164744 19.5,7.37664744 19.5,10 C19.5,13.0460551 18.0663431,15.7572032 15.8371563,17.4957464 L15.8371563,17.4957464 L10.0000901,23.2950852 L4.17742239,17.5070936 C1.93990985,15.7690125 0.5,13.0526904 0.5,10 C0.5,7.37664744 1.56332372,5.00164744 3.28248558,3.28248558 C5.00164744,1.56332372 7.37664744,0.5 10,0.5 Z" id="形状结合" stroke="#FFFFFF" fill="#0091FF"></path>
                <path d="M14.8018791,12.9839718 C15.5993931,13.3035853 16.0755494,13.70571 16.0755494,14.1428948 C16.0755494,15.1814696 13.3890737,16.0239693 10.0751584,16.0239693 C6.76203447,16.0239693 4.07554941,15.1814696 4.07554941,14.1428948 C4.07554941,13.70571 4.55111929,13.3035853 5.34883182,12.9839718 C5.15798018,13.1192766 5.05295234,13.2647419 5.05295234,13.4163761 C5.05295234,14.1221794 7.30167665,14.693675 10.0751553,14.693675 C12.8494283,14.693675 15.0977555,14.1221794 15.0977555,13.4163761 C15.0977586,13.2647388 14.9933141,13.1192766 14.8018791,12.9839718 L14.8018791,12.9839718 Z M7.12963497,4.43426344 C7.7319811,4.43426344 8.2202947,4.93083335 8.2202947,5.54317282 C8.2202947,6.15572054 7.7319811,6.65249241 7.12963497,6.65249241 C6.52727955,6.65249241 6.03897524,6.1557174 6.03897524,5.54317282 C6.03897524,4.93083019 6.52728264,4.43426344 7.12963497,4.43426344 L7.12963497,4.43426344 Z M13.0046212,4.43426344 C12.4026536,4.43426344 11.9143493,4.93083335 11.9143493,5.54317282 C11.9143493,6.15572054 12.4026536,6.65249241 13.0046212,6.65249241 C13.6073645,6.65249241 14.0956688,6.1557174 14.0956688,5.54317282 C14.0956688,4.93083019 13.6073645,4.43426344 13.0046212,4.43426344 L13.0046212,4.43426344 Z M11.9270868,10.8129607 L11.9270868,13.7363966 L12.6958025,13.7363966 L13.0028525,11.6871409 L13.3106938,13.7363966 L14.1475963,13.7363966 L14.1475963,10.4987147 C14.4793455,10.3225628 14.707423,9.96947027 14.707423,9.5637641 L14.707423,7.90746662 C14.707423,7.32820236 14.2420493,6.85434524 13.6720264,6.85434524 L12.3979527,6.85434524 C12.3158493,6.85434524 12.2353129,6.8641113 12.1584999,6.88283876 C12.3291764,7.14806837 12.4283303,7.4643055 12.4283303,7.80344789 L12.4283303,9.60621094 C12.4283334,10.0675095 12.2419717,10.5001188 11.9270868,10.8129607 L11.9270868,10.8129607 Z M10.0935743,4.02396927 C10.748847,4.02396927 11.2802541,4.56437442 11.2802541,5.23072221 C11.2802541,5.89727194 10.748847,6.43767709 10.0935743,6.43767709 C9.43792924,6.43767709 8.90670838,5.89727194 8.90670838,5.23072221 C8.90670838,4.56437442 9.43792614,4.02396927 10.0935743,4.02396927 L10.0935743,4.02396927 Z M11.2661513,10.6258437 C11.6298297,10.4357449 11.8810425,10.0491764 11.8810425,9.60621094 L11.8810425,7.80344789 C11.8810425,7.17337491 11.3739159,6.65766732 10.7543268,6.65766732 L9.36739353,6.65766732 C8.74739797,6.65766732 8.24047612,7.17337491 8.24047612,7.80344789 L8.24047612,9.60621094 C8.24047612,10.0471885 8.48874741,10.4319616 8.85027857,10.6234646 L8.85027857,14.1466813 L9.76086001,14.1466813 L10.0955323,11.9166983 L10.4298415,14.1466813 L11.2661544,14.1466813 L11.2661544,10.6258437 L11.2661513,10.6258437 Z M8.20735549,10.8129607 C7.89266609,10.5001157 7.70651226,10.0675095 7.70651226,9.60620778 L7.70651226,7.80344473 C7.70651226,7.46429918 7.80526907,7.14806522 7.97613167,6.8828356 C7.89932805,6.86410812 7.818984,6.85434208 7.73668821,6.85434208 L6.46261455,6.85434208 C5.8925947,6.85434208 5.42720861,7.32819921 5.42720861,7.90746346 L5.42720861,9.56376095 C5.42720861,9.96947027 5.65529536,10.3225597 5.98724014,10.4987115 L5.98724014,13.7363934 L6.82395023,13.7363934 L7.13179148,11.6871377 L7.43884148,13.7363934 L8.20735549,13.7363934 L8.20735549,10.8129607 Z" id="形状" fill="#FFFFFF"></path>
            </g>
        </g>
    </g>
</svg>