<?xml version="1.0" encoding="UTF-8"?>
<svg width="26px" height="29px" viewBox="0 0 26 29" version="1.1" xmlns="http://www.w3.org/2000/svg" xmlns:xlink="http://www.w3.org/1999/xlink">
    <title>队伍 Wecomm mini备份 2</title>
    <g id="页面-1" stroke="none" stroke-width="1" fill="none" fill-rule="evenodd">
        <g id="落点切图" transform="translate(-712.000000, -283.000000)" fill-rule="nonzero">
            <g id="队伍-Wecomm-mini备份-2" transform="translate(712.000000, 283.000000)">
                <path d="M10,5.5 C12.6233526,5.5 14.9983526,6.56332372 16.7175144,8.28248558 C18.4366763,10.0016474 19.5,12.3766474 19.5,15 C19.5,18.0460551 18.0663431,20.7572032 15.8371563,22.4957464 L15.8371563,22.4957464 L10.0000901,28.2950852 L4.17742239,22.5070936 C1.93990985,20.7690125 0.5,18.0526904 0.5,15 C0.5,12.3766474 1.56332372,10.0016474 3.28248558,8.28248558 C5.00164744,6.56332372 7.37664744,5.5 10,5.5 Z" id="形状结合" stroke="#FFFFFF" fill="#999999"></path>
                <path d="M14.8018791,17.9839718 C15.5993931,18.3035853 16.0755494,18.70571 16.0755494,19.1428948 C16.0755494,20.1814696 13.3890737,21.0239693 10.0751584,21.0239693 C6.76203447,21.0239693 4.07554941,20.1814696 4.07554941,19.1428948 C4.07554941,18.70571 4.55111929,18.3035853 5.34883182,17.9839718 C5.15798018,18.1192766 5.05295234,18.2647419 5.05295234,18.4163761 C5.05295234,19.1221794 7.30167665,19.693675 10.0751553,19.693675 C12.8494283,19.693675 15.0977555,19.1221794 15.0977555,18.4163761 C15.0977586,18.2647388 14.9933141,18.1192766 14.8018791,17.9839718 L14.8018791,17.9839718 Z M7.12963497,9.43426344 C7.7319811,9.43426344 8.2202947,9.93083335 8.2202947,10.5431728 C8.2202947,11.1557205 7.7319811,11.6524924 7.12963497,11.6524924 C6.52727955,11.6524924 6.03897524,11.1557174 6.03897524,10.5431728 C6.03897524,9.93083019 6.52728264,9.43426344 7.12963497,9.43426344 L7.12963497,9.43426344 Z M13.0046212,9.43426344 C12.4026536,9.43426344 11.9143493,9.93083335 11.9143493,10.5431728 C11.9143493,11.1557205 12.4026536,11.6524924 13.0046212,11.6524924 C13.6073645,11.6524924 14.0956688,11.1557174 14.0956688,10.5431728 C14.0956688,9.93083019 13.6073645,9.43426344 13.0046212,9.43426344 L13.0046212,9.43426344 Z M11.9270868,15.8129607 L11.9270868,18.7363966 L12.6958025,18.7363966 L13.0028525,16.6871409 L13.3106938,18.7363966 L14.1475963,18.7363966 L14.1475963,15.4987147 C14.4793455,15.3225628 14.707423,14.9694703 14.707423,14.5637641 L14.707423,12.9074666 C14.707423,12.3282024 14.2420493,11.8543452 13.6720264,11.8543452 L12.3979527,11.8543452 C12.3158493,11.8543452 12.2353129,11.8641113 12.1584999,11.8828388 C12.3291764,12.1480684 12.4283303,12.4643055 12.4283303,12.8034479 L12.4283303,14.6062109 C12.4283334,15.0675095 12.2419717,15.5001188 11.9270868,15.8129607 L11.9270868,15.8129607 Z M10.0935743,9.02396927 C10.748847,9.02396927 11.2802541,9.56437442 11.2802541,10.2307222 C11.2802541,10.8972719 10.748847,11.4376771 10.0935743,11.4376771 C9.43792924,11.4376771 8.90670838,10.8972719 8.90670838,10.2307222 C8.90670838,9.56437442 9.43792614,9.02396927 10.0935743,9.02396927 L10.0935743,9.02396927 Z M11.2661513,15.6258437 C11.6298297,15.4357449 11.8810425,15.0491764 11.8810425,14.6062109 L11.8810425,12.8034479 C11.8810425,12.1733749 11.3739159,11.6576673 10.7543268,11.6576673 L9.36739353,11.6576673 C8.74739797,11.6576673 8.24047612,12.1733749 8.24047612,12.8034479 L8.24047612,14.6062109 C8.24047612,15.0471885 8.48874741,15.4319616 8.85027857,15.6234646 L8.85027857,19.1466813 L9.76086001,19.1466813 L10.0955323,16.9166983 L10.4298415,19.1466813 L11.2661544,19.1466813 L11.2661544,15.6258437 L11.2661513,15.6258437 Z M8.20735549,15.8129607 C7.89266609,15.5001157 7.70651226,15.0675095 7.70651226,14.6062078 L7.70651226,12.8034447 C7.70651226,12.4642992 7.80526907,12.1480652 7.97613167,11.8828356 C7.89932805,11.8641081 7.818984,11.8543421 7.73668821,11.8543421 L6.46261455,11.8543421 C5.8925947,11.8543421 5.42720861,12.3281992 5.42720861,12.9074635 L5.42720861,14.5637609 C5.42720861,14.9694703 5.65529536,15.3225597 5.98724014,15.4987115 L5.98724014,18.7363934 L6.82395023,18.7363934 L7.13179148,16.6871377 L7.43884148,18.7363934 L8.20735549,18.7363934 L8.20735549,15.8129607 Z" id="形状" fill="#FFFFFF"></path>
                <g id="编组-2" transform="translate(14.000000, 0.000000)">
                    <circle id="椭圆形" stroke="#FFFFFF" stroke-width="0.5" fill="#999999" cx="5.7" cy="5.7" r="5.45"></circle>
                    <path d="M4.16473731,2.4 L7.23526269,2.4 C7.54568121,2.4 7.8,2.66353494 7.8,2.98520258 L7.8,8.41479742 C7.8,8.73646506 7.54568121,9 7.23526269,9 L4.16473731,9 C3.85431879,9 3.6,8.73646506 3.6,8.41479742 L3.6,2.98520258 C3.6,2.66353494 3.85431879,2.4 4.16473731,2.4 Z M4.07123776,3.34174985 L4.07123776,5.66318262 L7.31006233,5.66318262 L7.31006233,3.34174985 L4.07123776,3.34174985 Z M4.9015138,2.70616559 L4.9015138,2.95419847 L6.37506679,2.95419847 L6.37506679,2.70616559 L4.9015138,2.70616559 Z M5.36153161,5.91509102 C5.25307213,5.91509102 5.16331256,6.00810335 5.16331256,6.12049325 L5.16331256,6.43828538 C5.16331256,6.55067528 5.25307213,6.64368761 5.36153161,6.64368761 L5.96366874,6.64368761 C6.07212823,6.64368761 6.1618878,6.55067528 6.1618878,6.43828538 L6.1618878,6.12049325 C6.1618878,6.00810335 6.07212823,5.91509102 5.96366874,5.91509102 L5.36153161,5.91509102 Z M5.02119323,6.16699941 L4.12733749,6.16699941 L4.12733749,6.39177921 L5.02119323,6.39177921 L5.02119323,6.16699941 Z M7.19786287,6.16699941 L6.30400712,6.16699941 L6.30400712,6.39177921 L7.19786287,6.39177921 L7.19786287,6.16699941 Z M5.01745325,6.84133881 L4.12359751,6.84133881 L4.12359751,7.27927187 L5.01745325,7.27927187 L5.01745325,6.84133881 Z M6.10952805,6.84133881 L5.21193232,6.84133881 L5.21193232,7.27927187 L6.10578807,7.27927187 L6.10578807,6.84133881 L6.10952805,6.84133881 Z M7.1903829,6.84133881 L6.29652716,6.84133881 L6.29652716,7.27927187 L7.1903829,7.27927187 L7.1903829,6.84133881 L7.1903829,6.84133881 Z M5.01745325,7.41103934 L4.12359751,7.41103934 L4.12359751,7.8489724 L5.01745325,7.8489724 L5.01745325,7.41103934 L5.01745325,7.41103934 Z M6.10952805,7.41103934 L5.21193232,7.41103934 L5.21193232,7.8489724 L6.10578807,7.8489724 L6.10578807,7.41103934 L6.10952805,7.41103934 Z M7.1903829,7.41103934 L6.29652716,7.41103934 L6.29652716,7.8489724 L7.1903829,7.8489724 L7.1903829,7.41103934 L7.1903829,7.41103934 Z M5.01745325,8.01949501 L4.12359751,8.01949501 L4.12359751,8.45742807 L5.01745325,8.45742807 L5.01745325,8.01949501 L5.01745325,8.01949501 Z M6.10952805,8.01949501 L5.21193232,8.01949501 L5.21193232,8.45742807 L6.10578807,8.45742807 L6.10578807,8.01949501 L6.10952805,8.01949501 Z M7.1903829,8.01949501 L6.29652716,8.01949501 L6.29652716,8.45742807 L7.1903829,8.45742807 L7.1903829,8.01949501 L7.1903829,8.01949501 Z" id="形状备份-29" fill="#FFFFFF"></path>
                </g>
            </g>
        </g>
    </g>
</svg>