<?xml version="1.0" encoding="UTF-8"?>
<svg width="26px" height="29px" viewBox="0 0 26 29" version="1.1" xmlns="http://www.w3.org/2000/svg" xmlns:xlink="http://www.w3.org/1999/xlink">
    <title>人员 集群终端 mini备份 2</title>
    <g id="页面-1" stroke="none" stroke-width="1" fill="none" fill-rule="evenodd">
        <g id="落点切图" transform="translate(-676.000000, -283.000000)" fill-rule="nonzero">
            <g id="人员-集群终端-mini备份-2" transform="translate(676.000000, 283.000000)">
                <path d="M10,5.5 C12.6233526,5.5 14.9983526,6.56332372 16.7175144,8.28248558 C18.4366763,10.0016474 19.5,12.3766474 19.5,15 C19.5,18.0460551 18.0663431,20.7572032 15.8371563,22.4957464 L15.8371563,22.4957464 L10.0000901,28.2950852 L4.17742239,22.5070936 C1.93990985,20.7690125 0.5,18.0526904 0.5,15 C0.5,12.3766474 1.56332372,10.0016474 3.28248558,8.28248558 C5.00164744,6.56332372 7.37664744,5.5 10,5.5 Z" id="形状结合" stroke="#FFFFFF" fill="#999999"></path>
                <path d="M12.7841601,16.028864 C14.3198694,17.0054271 15.3878403,18.7191224 15.5333322,20.7065898 C14.9956389,20.7795957 14.0393522,20.8581564 12.6748975,20.8581564 L12.6748975,20.8581564 L7.04275939,20.8581564 C5.67893405,20.8581564 4.72324934,20.7795957 4.18619916,20.7065898 C4.332895,18.7203812 5.40087962,17.0054271 6.93474189,16.028864 C7.74494843,16.6666256 8.75095467,17.0637388 9.86006666,17.0637388 C10.969165,17.0637388 11.9758142,16.6678433 12.7841601,16.028864 Z M9.86006666,8.52837191 C11.9518575,8.52837191 13.6545116,10.2303967 13.6545116,12.3222012 C13.6545116,14.4127607 11.9518575,16.1154285 9.86006666,16.1154285 C7.76764648,16.1154285 6.06622367,14.412747 6.06622367,12.3222012 C6.06622367,10.2303967 7.76889152,8.52837191 9.86006666,8.52837191 Z" id="形状结合备份-3" fill="#FFFFFF"></path>
                <g id="编组-2" transform="translate(14.000000, 0.000000)">
                    <circle id="椭圆形" stroke="#FFFFFF" stroke-width="0.5" fill="#999999" cx="5.7" cy="5.7" r="5.45"></circle>
                    <path d="M4.98921103,1.63080965 C5.12220112,1.63080965 5.23294606,1.72344478 5.24388146,1.84376965 L5.24454237,1.85280965 L5.3223975,3.48544965 L5.51996535,3.48544965 L5.51996535,3.89924965 L7.21674011,3.89924965 C7.553143,3.89924965 7.82662732,4.14344965 7.83398544,4.44716965 L7.83411762,4.45968965 L7.83411762,9.07036965 C7.83411762,9.37568965 7.56517155,9.62400965 7.23048703,9.63064965 L7.21674011,9.63080965 L4.35632418,9.63080965 C4.02040596,9.63080965 3.8394049,9.38708965 3.83420575,9.08376965 L3.83411762,9.07040965 L3.83411762,4.45968965 C3.83411762,4.15436965 4.10310776,3.90604965 4.43757198,3.89940965 L4.45136295,3.89924965 L4.45775175,3.89924965 L4.45775175,3.48544965 L4.6550993,3.48544965 L4.7338797,1.85268965 C4.73986964,1.7286146 4.85240922,1.63080965 4.98921103,1.63080965 Z M4.89378048,6.69747632 L4.48874048,6.69747632 C4.4666793,6.69746584 4.44551842,6.70706301 4.42991543,6.72415546 C4.41431243,6.74124791 4.4055462,6.76443469 4.4055462,6.78861231 L4.4055462,7.13967366 C4.4055462,7.16385128 4.41431243,7.18703806 4.42991543,7.20413051 C4.44551842,7.22122296 4.4666793,7.23082013 4.48874048,7.23080965 L4.89378048,7.23080965 C4.91584166,7.23082013 4.93700255,7.22122296 4.95260554,7.20413051 C4.96820853,7.18703806 4.97697477,7.16385128 4.97697477,7.13967366 L4.97697477,6.78861231 C4.97697477,6.76443469 4.96820853,6.74124791 4.95260554,6.72415546 C4.93700255,6.70706301 4.91584166,6.69746584 4.89378048,6.69747632 L4.89378048,6.69747632 Z M6.03670453,6.69747632 L5.63160288,6.69747632 C5.60954031,6.69746584 5.58837808,6.70706301 5.57277411,6.72415546 C5.55717013,6.74124791 5.54840334,6.76443469 5.54840334,6.78861231 L5.54840334,7.13967366 C5.54840334,7.16385128 5.55717013,7.18703806 5.57277411,7.20413051 C5.58837808,7.22122296 5.60954031,7.23082013 5.63160288,7.23080965 L6.03666845,7.23080965 C6.08259836,7.23080965 6.11983191,7.19000667 6.11983191,7.13967366 L6.11983191,6.78861231 C6.11983191,6.7382793 6.08259836,6.69747632 6.03666845,6.69747632 L6.03670453,6.69747632 Z M7.17953085,6.69747632 L6.77445477,6.69747632 C6.75239359,6.69746584 6.7312327,6.70706301 6.71562971,6.72415546 C6.70002672,6.74124791 6.69126048,6.76443469 6.69126048,6.78861231 L6.69126048,7.13967366 C6.69126048,7.16385128 6.70002672,7.18703806 6.71562971,7.20413051 C6.7312327,7.22122296 6.75239359,7.23082013 6.77445477,7.23080965 L7.17953085,7.23080965 C7.22545786,7.23080965 7.26268905,7.19000667 7.26268905,7.13967366 L7.26268905,6.78861231 C7.26268905,6.7382793 7.22545786,6.69747632 7.17953085,6.69747632 Z M7.02543335,4.29747632 L4.6428019,4.29747632 C4.51176919,4.29747632 4.4055462,4.4026747 4.4055462,4.53244349 L4.4055462,5.92921939 C4.4055462,6.05897115 4.51178637,6.16414298 4.6428019,6.16414298 L7.02547735,6.16414298 C7.15647569,6.16411893 7.26268905,6.05895414 7.26268905,5.92921939 L7.26268905,4.53239992 C7.26268905,4.40264815 7.15644888,4.29747632 7.02543335,4.29747632 Z M6.93384808,4.56414298 C6.95766629,4.56414298 6.97697477,4.58339955 6.97697477,4.60715374 L6.97697477,5.85446557 C6.97697477,5.87821975 6.95766629,5.89747632 6.93384808,5.89747632 L4.73438717,5.89747632 C4.71056896,5.89747632 4.69126048,5.87821975 4.69126048,5.85446557 L4.69126048,4.60715374 C4.69126048,4.58339955 4.71056896,4.56414298 4.73438717,4.56414298 L6.93384808,4.56414298 Z" id="形状备份-36" fill="#FFFFFF"></path>
                </g>
            </g>
        </g>
    </g>
</svg>