<?xml version="1.0" encoding="UTF-8"?>
<svg width="20px" height="24px" viewBox="0 0 20 24" version="1.1" xmlns="http://www.w3.org/2000/svg" xmlns:xlink="http://www.w3.org/1999/xlink">
    <title>医疗机构mini备份 3</title>
    <g id="页面-1" stroke="none" stroke-width="1" fill="none" fill-rule="evenodd">
        <g id="落点切图" transform="translate(-642.000000, -440.000000)" fill-rule="nonzero">
            <g id="医疗机构mini备份-3" transform="translate(642.000000, 440.000000)">
                <path d="M10,0.5 C12.6233526,0.5 14.9983526,1.56332372 16.7175144,3.28248558 C18.4366763,5.00164744 19.5,7.37664744 19.5,10 C19.5,13.0460551 18.0663431,15.7572032 15.8371563,17.4957464 L15.8371563,17.4957464 L10.0000901,23.2950852 L4.17742239,17.5070936 C1.93990984,15.7690125 0.5,13.0526904 0.5,10 C0.5,7.37664744 1.56332372,5.00164744 3.28248558,3.28248558 C5.00164744,1.56332372 7.37664744,0.5 10,0.5 Z" id="形状结合" stroke="#FFFFFF" fill="#0091FF"></path>
                <path d="M12.0266793,5.01333967 C12.3028217,5.01333967 12.5266793,5.23719729 12.5266793,5.51333967 L12.5266793,7.01333967 L14.5266793,7.01333967 C14.8028217,7.01333967 15.0266793,7.23719729 15.0266793,7.51333967 L15.0266793,14.5133397 C15.0266793,14.789482 14.8028217,15.0133397 14.5266793,15.0133397 L5.52667934,15.0133397 C5.25053696,15.0133397 5.02667934,14.789482 5.02667934,14.5133397 L5.02667934,7.51333967 C5.02667934,7.23719729 5.25053696,7.01333967 5.52667934,7.01333967 L7.52667934,7.01333967 L7.52667934,5.51333967 C7.52667934,5.23719729 7.75053697,5.01333967 8.02667934,5.01333967 L12.0266793,5.01333967 Z M10.5266793,9.01333967 L9.52667933,9.01333967 L9.52667933,10.5133397 L8.02667933,10.5133397 L8.02667933,11.5133397 L9.52617934,11.5133397 L9.52667933,13.0133397 L10.5266793,13.0133397 L10.5261793,11.5133397 L12.0266793,11.5133397 L12.0266793,10.5133397 L10.5266793,10.5133397 L10.5266793,9.01333967 Z M11.5266793,6.01333967 L8.52667934,6.01333967 L8.52667934,7.01333967 L11.5266793,7.01333967 L11.5266793,6.01333967 Z" id="形状" fill="#FFFFFF"></path>
            </g>
        </g>
    </g>
</svg>