<?xml version="1.0" encoding="UTF-8"?>
<svg width="20px" height="24px" viewBox="0 0 20 24" version="1.1" xmlns="http://www.w3.org/2000/svg" xmlns:xlink="http://www.w3.org/1999/xlink">
    <title>监控mini备份 2</title>
    <g id="页面-1" stroke="none" stroke-width="1" fill="none" fill-rule="evenodd">
        <g id="落点切图" transform="translate(-192.000000, -287.000000)" fill-rule="nonzero">
            <g id="监控mini备份-2" transform="translate(192.000000, 287.000000)">
                <path d="M10,0.5 C12.6233526,0.5 14.9983526,1.56332372 16.7175144,3.28248558 C18.4366763,5.00164744 19.5,7.37664744 19.5,10 C19.5,13.0460551 18.0663431,15.7572032 15.8371563,17.4957464 L15.8371563,17.4957464 L10.0000901,23.2950852 L4.17742239,17.5070936 C1.93990984,15.7690125 0.5,13.0526904 0.5,10 C0.5,7.37664744 1.56332372,5.00164744 3.28248558,3.28248558 C5.00164744,1.56332372 7.37664744,0.5 10,0.5 Z" id="形状结合" stroke="#FFFFFF" fill="#999999"></path>
                <path d="M7.36318137,10.7393449 L7.36562081,10.7353464 L5.51448873,8.78843748 C5.23798904,8.49757961 5.22117687,8.05097887 5.47505102,7.74080937 L5.9096788,7.20979787 L13.2276069,14.5551904 L12.3738012,15.0682083 C12.1152878,15.2237216 11.790292,15.2249545 11.5305664,15.0714072 L7.36318137,10.7393449 L7.36318137,10.7393449 Z M7.14932337,11.0960183 L8.32716869,12.3203837 L7.56972105,13.581536 C7.4547918,13.7735574 7.26344056,13.9095532 7.0419878,13.9566029 C6.98425427,13.9697982 6.92408129,13.9765958 6.86228203,13.9765958 L5.62629661,13.9765958 L5.62629661,15.2001614 C5.62634109,15.4859017 5.47136562,15.7499552 5.2197584,15.8928379 C4.96815117,16.0357207 4.65814545,16.0357207 4.40653823,15.8928379 C4.154931,15.7499552 3.99995554,15.4859017 4.00000001,15.2001614 L4.00000001,12.001297 C3.99995554,11.7155568 4.154931,11.4515032 4.40653823,11.3086205 C4.65814545,11.1657377 4.96815117,11.1657377 5.2197584,11.3086205 C5.47136562,11.4515032 5.62634109,11.7155568 5.62629661,12.001297 L5.62629661,12.3967566 L6.36829444,12.3967566 L7.1489168,11.0960183 L7.14932337,11.0960183 Z M6.42033592,6.58561944 L8.29139015,4.29843134 C8.43547111,4.12229585 8.64861898,4.01435997 8.87809326,4.00133097 C9.10756753,3.98830197 9.33192911,4.0713971 9.49566279,4.23005562 L16.7574836,11.268757 C16.9357704,11.4414784 17.023258,11.6853178 16.9946718,11.9298316 C16.9660855,12.1743454 16.8246102,12.3922937 16.6111169,12.5207126 L13.9358591,14.1289417 L6.42033592,6.58561944 L6.42033592,6.58561944 Z" id="形状备份-46" fill="#FFFFFF"></path>
            </g>
        </g>
    </g>
</svg>