<?xml version="1.0" encoding="UTF-8"?>
<svg width="26px" height="29px" viewBox="0 0 26 29" version="1.1" xmlns="http://www.w3.org/2000/svg" xmlns:xlink="http://www.w3.org/1999/xlink">
    <title>视频链 3</title>
    <g id="页面-1" stroke="none" stroke-width="1" fill="none" fill-rule="evenodd">
        <g id="落点切图" transform="translate(-834.000000, -245.000000)" fill-rule="nonzero">
            <g id="视频链-3" transform="translate(834.000000, 245.000000)">
                <path d="M10,5.5 C12.6233526,5.5 14.9983526,6.56332372 16.7175144,8.28248558 C18.4366763,10.0016474 19.5,12.3766474 19.5,15 C19.5,18.0460551 18.0663431,20.7572032 15.8371563,22.4957464 L15.8371563,22.4957464 L10.0000901,28.2950852 L4.17742239,22.5070936 C1.93990985,20.7690125 0.5,18.0526904 0.5,15 C0.5,12.3766474 1.56332372,10.0016474 3.28248558,8.28248558 C5.00164744,6.56332372 7.37664744,5.5 10,5.5 Z" id="形状结合" stroke="#FFFFFF" fill="#0091FF"></path>
                <path d="M8.10447511,15.3649369 L8.1067269,15.3611605 L6.39798959,13.5224132 C6.14275912,13.2477141 6.12724018,12.8259245 6.36158556,12.5329866 L6.76278043,12.0314758 L13.517791,18.9687909 L12.7296626,19.4533078 C12.4910349,19.6001815 12.1910387,19.6013459 11.9512921,19.456329 L8.10447511,15.3649369 L8.10447511,15.3649369 Z M7.90706773,15.7017951 L8.99430956,16.8581402 L8.29512712,18.0492285 C8.18903858,18.230582 8.01240667,18.3590225 7.80798873,18.4034583 C7.75469625,18.4159205 7.69915196,18.4223405 7.64210649,18.4223405 L6.50119687,18.4223405 L6.50119687,19.5779303 C6.50123792,19.847796 6.35818365,20.0971799 6.12593083,20.2321247 C5.89367801,20.3670695 5.60751888,20.3670695 5.37526605,20.2321247 C5.14301323,20.0971799 4.99995896,19.847796 5.00000001,19.5779303 L5.00000001,16.5567805 C4.99995896,16.2869147 5.14301323,16.0375308 5.37526605,15.902586 C5.60751888,15.7676412 5.89367801,15.7676412 6.12593083,15.902586 C6.35818365,16.0375308 6.50123792,16.2869147 6.50119687,16.5567805 L6.50119687,16.9302701 L7.18611794,16.9302701 L7.90669243,15.7017951 L7.90706773,15.7017951 Z M7.23415623,11.4419739 L8.96128321,9.28185183 C9.09428102,9.11550163 9.29103291,9.01356219 9.50285532,9.00125703 C9.71467772,8.98895186 9.92178072,9.06743059 10.0729195,9.21727475 L16.7761387,15.8649372 C16.9407111,16.0280629 17.0214689,16.2583557 16.9950816,16.4892854 C16.9686943,16.7202151 16.8381017,16.9260551 16.641031,17.0473397 L14.1715622,18.5662227 L7.23415623,11.4419739 L7.23415623,11.4419739 Z" id="形状备份-3" fill="#FFFFFF"></path>
                <g id="编组-2" transform="translate(14.000000, 0.000000)">
                    <circle id="椭圆形" stroke="#FFFFFF" stroke-width="0.5" fill="#0BD295" cx="5.7" cy="5.7" r="5.45"></circle>
                    <path d="M9.1171384,3.79461179 L7.73155649,2.40902988 C7.49865065,2.18803666 7.13350514,2.18803666 6.9005993,2.40902988 L4.96039267,4.34923651 L5.51305759,4.90386124 L7.3160779,3.10084093 L8.42336754,4.20225116 L6.62230704,6.00331167 L7.17693177,6.55793639 L9.1171384,4.61772976 C9.346399,4.38818368 9.346399,4.01631865 9.1171384,3.78677257 L9.1171384,3.79461179 Z M4.26662181,8.36683611 L3.15737236,7.25954647 L4.96039267,5.45848597 L4.40576794,4.90386124 L2.46556131,6.84406787 C2.2363007,7.07361395 2.2363007,7.44547899 2.46556131,7.67502507 L3.86094224,9.06060697 C4.09048832,9.28986757 4.46235334,9.28986757 4.69189942,9.06060697 L6.63210606,7.12040034 L6.07748134,6.56577561 L4.26662181,8.36683611 Z M4.33815468,6.63397681 L6.6899203,4.28221119 L7.24415307,4.83663994 L4.89238745,7.18840556 L4.33815468,6.63397681 Z" id="形状" fill="#FFFFFF"></path>
                </g>
            </g>
        </g>
    </g>
</svg>