<?xml version="1.0" encoding="UTF-8"?>
<svg width="20px" height="24px" viewBox="0 0 20 24" version="1.1" xmlns="http://www.w3.org/2000/svg" xmlns:xlink="http://www.w3.org/1999/xlink">
    <title>风险隐患mini备份 2</title>
    <g id="页面-1" stroke="none" stroke-width="1" fill="none" fill-rule="evenodd">
        <g id="落点切图" transform="translate(-612.000000, -288.000000)" fill-rule="nonzero">
            <g id="风险隐患mini备份-2" transform="translate(612.000000, 288.000000)">
                <path d="M10,0.5 C12.6233526,0.5 14.9983526,1.56332372 16.7175144,3.28248558 C18.4366763,5.00164744 19.5,7.37664744 19.5,10 C19.5,13.0460551 18.0663431,15.7572032 15.8371563,17.4957464 L15.8371563,17.4957464 L10.0000901,23.2950852 L4.17742239,17.5070936 C1.93990984,15.7690125 0.5,13.0526904 0.5,10 C0.5,7.37664744 1.56332372,5.00164744 3.28248558,3.28248558 C5.00164744,1.56332372 7.37664744,0.5 10,0.5 Z" id="形状结合" stroke="#FFFFFF" fill="#999999"></path>
                <path d="M15.3345702,13.3034519 L11.2170431,5.48195683 C10.6617877,4.53082591 9.27364923,4.53082591 8.71839384,5.48195683 L4.60210058,13.3034519 C4.22205911,13.9542257 4.69711094,14.7686086 5.45719387,14.7686086 L14.4807108,14.7686086 C15.2395599,14.7686086 15.7146117,13.9542257 15.3345702,13.3034519 Z M9.98190832,13.2546133 C9.59446345,13.2619391 9.27981873,12.9542562 9.28722214,12.5769783 C9.29339164,12.2216778 9.59199565,11.9310884 9.9559964,11.9237626 C10.3434413,11.9164369 10.658086,12.2241198 10.6506826,12.6013976 C10.6445131,12.9579191 10.3459091,13.2485085 9.98190832,13.2546133 Z M10.3199972,11.4292722 L9.61543976,11.4292722 C9.49451748,11.4292722 9.39210371,11.3425838 9.3723613,11.2253713 L8.92568918,8.92629614 C8.89237386,8.72605805 8.98368252,8.52215707 9.16259815,8.42203802 C9.2341644,8.38174621 9.31806966,8.3585479 9.40567662,8.3585479 L10.5285264,8.3585479 C10.6173673,8.3585479 10.7000386,8.38174621 10.7716049,8.42203802 C10.9492866,8.52215707 11.0418292,8.72605805 11.0085138,8.92629614 L10.5618417,11.2253713 C10.5445671,11.3425838 10.4409194,11.4292722 10.3199972,11.4292722 Z" id="形状" fill="#FFFFFF"></path>
            </g>
        </g>
    </g>
</svg>