<?xml version="1.0" encoding="UTF-8"?>
<svg width="20px" height="24px" viewBox="0 0 20 24" version="1.1" xmlns="http://www.w3.org/2000/svg" xmlns:xlink="http://www.w3.org/1999/xlink">
    <title>避难场所mini备份 2</title>
    <g id="页面-1" stroke="none" stroke-width="1" fill="none" fill-rule="evenodd">
        <g id="落点切图" transform="translate(-402.000000, -287.000000)" fill-rule="nonzero">
            <g id="避难场所mini备份-2" transform="translate(402.000000, 287.000000)">
                <path d="M10,0.5 C12.6233526,0.5 14.9983526,1.56332372 16.7175144,3.28248558 C18.4366763,5.00164744 19.5,7.37664744 19.5,10 C19.5,13.0460551 18.0663431,15.7572032 15.8371563,17.4957464 L15.8371563,17.4957464 L10.0000901,23.2950852 L4.17742239,17.5070936 C1.93990984,15.7690125 0.5,13.0526904 0.5,10 C0.5,7.37664744 1.56332372,5.00164744 3.28248558,3.28248558 C5.00164744,1.56332372 7.37664744,0.5 10,0.5 Z" id="形状结合" stroke="#FFFFFF" fill="#999999"></path>
                <path d="M16.39495,14.3609873 L11.5794969,6.57456849 C11.5721749,6.55153777 11.5618979,6.5295312 11.5489175,6.50908727 L10.3273639,4.54465062 L11.1064755,3.29188377 C11.1615657,3.20313824 11.165161,3.09219665 11.11593,3.00014155 C11.0672236,2.90850317 10.9726248,2.84971178 10.8680443,2.84608528 C10.7635184,2.84285442 10.6652772,2.89536109 10.6107041,2.98362508 L9.98404665,3.99215282 L9.35738923,2.98362508 C9.30344829,2.8938615 9.20467402,2.83996523 9.09916265,2.8426225 C8.99367405,2.84605028 8.89821584,2.90545748 8.84950422,2.99809526 C8.80032657,3.09117642 8.80499903,3.20313112 8.86176555,3.29188377 L9.64072938,4.54450446 L9.57897955,4.6438956 C9.57203638,4.65354239 9.56435459,4.66362766 9.55859324,4.6742976 L8.69424327,6.06723518 L8.41843719,6.50908727 C8.41577811,6.51361833 8.4129713,6.51829556 8.41060767,6.52355745 L3.54581384,14.3599641 C3.33958712,14.6917552 3.57860921,15.1203064 3.96905135,15.1203064 L8.06551768,15.1203064 C8.2779568,15.1194234 8.466512,14.9854877 8.53528915,14.7866152 L9.51043428,11.986416 C9.66407023,11.5450024 10.2871822,11.5398867 10.4482045,11.9785232 L11.4814063,14.7942157 C11.5524491,14.9894393 11.7393985,15.1197836 11.9491096,15.1203064 L15.9706784,15.1203064 C16.3612683,15.1203064 16.5998472,14.6926321 16.39495,14.3609873 Z M11.4749063,8.97384136 C11.4749063,9.16867723 11.3168385,9.32682607 11.1218391,9.32682607 L10.3232276,9.32682607 L10.3232276,10.1259016 C10.3192389,10.3181065 10.162353,10.4717243 9.97016032,10.4717243 C9.77796765,10.4717243 9.62093398,10.3181065 9.61709308,10.1259016 L9.61709308,9.32682607 L8.81774294,9.32682607 C8.68950895,9.32916753 8.57011842,9.26237819 8.50603923,9.15245309 C8.44138785,9.04202168 8.44138785,8.90580721 8.50603923,8.7953758 C8.57011842,8.6854507 8.68950895,8.61866136 8.81774294,8.62100282 L9.61709308,8.62100282 L9.61709308,7.82236578 C9.61424816,7.69501389 9.68083195,7.57598485 9.7914108,7.51074532 C9.90156032,7.44607069 10.0386126,7.44607069 10.1487621,7.51074532 C10.259341,7.57598485 10.3259248,7.69501389 10.3230798,7.82236578 L10.3230798,8.62041816 L11.1225777,8.62041816 C11.2162365,8.62041816 11.3062022,8.65754368 11.3723838,8.72390188 C11.4385655,8.79026008 11.4757927,8.8801506 11.4757927,8.97384136 L11.4749063,8.97384136 L11.4749063,8.97384136 Z" id="形状备份-39" fill="#FFFFFF"></path>
            </g>
        </g>
    </g>
</svg>