<?xml version="1.0" encoding="UTF-8"?>
<svg width="20px" height="24px" viewBox="0 0 20 24" version="1.1" xmlns="http://www.w3.org/2000/svg" xmlns:xlink="http://www.w3.org/1999/xlink">
    <title>任务mini备份</title>
    <g id="页面-1" stroke="none" stroke-width="1" fill="none" fill-rule="evenodd">
        <g id="落点切图" transform="translate(-312.000000, -249.000000)" fill-rule="nonzero">
            <g id="任务mini备份" transform="translate(312.000000, 249.000000)">
                <path d="M10,0.5 C12.6233526,0.5 14.9983526,1.56332372 16.7175144,3.28248558 C18.4366763,5.00164744 19.5,7.37664744 19.5,10 C19.5,13.0460551 18.0663431,15.7572032 15.8371563,17.4957464 L15.8371563,17.4957464 L10.0000901,23.2950852 L4.17742239,17.5070936 C1.93990984,15.7690125 0.5,13.0526904 0.5,10 C0.5,7.37664744 1.56332372,5.00164744 3.28248558,3.28248558 C5.00164744,1.56332372 7.37664744,0.5 10,0.5 Z" id="形状结合" stroke="#FFFFFF" fill="#0091FF"></path>
                <path d="M5.10250204,4.5124022 L5.10250204,16.0510065 L5.12555636,16.0510065 L10.0933732,12.5755308 L15.0964677,16.0510065 L15.102502,16.0510065 L15.102502,4.5124022 L5.10250204,4.5124022 Z M11.9111049,11.617307 L10.1026568,10.6663555 L8.29420869,11.617307 L8.63940441,9.60338162 L7.17599732,8.17710898 L9.19812328,7.88312786 L10.102502,6.05085183 L11.0067261,7.88312786 L13.028852,8.17710898 L11.5657544,9.60338162 L11.9111049,11.617307 L11.9111049,11.617307 Z" id="形状" fill="#FFFFFF"></path>
            </g>
        </g>
    </g>
</svg>