<?xml version="1.0" encoding="UTF-8"?>
<svg width="20px" height="24px" viewBox="0 0 20 24" version="1.1" xmlns="http://www.w3.org/2000/svg" xmlns:xlink="http://www.w3.org/1999/xlink">
    <title>会场终端mini备份</title>
    <g id="页面-1" stroke="none" stroke-width="1" fill="none" fill-rule="evenodd">
        <g id="落点切图" transform="translate(-222.000000, -249.000000)" fill-rule="nonzero">
            <g id="会场终端mini备份" transform="translate(222.000000, 249.000000)">
                <path d="M10,0.5 C12.6233526,0.5 14.9983526,1.56332372 16.7175144,3.28248558 C18.4366763,5.00164744 19.5,7.37664744 19.5,10 C19.5,13.0460551 18.0663431,15.7572032 15.8371563,17.4957464 L15.8371563,17.4957464 L10.0000901,23.2950852 L4.17742239,17.5070936 C1.93990984,15.7690125 0.5,13.0526904 0.5,10 C0.5,7.37664744 1.56332372,5.00164744 3.28248558,3.28248558 C5.00164744,1.56332372 7.37664744,0.5 10,0.5 Z" id="形状结合" stroke="#FFFFFF" fill="#0091FF"></path>
                <path d="M10.1085312,7.47767318 C9.54404637,7.47767318 9.01212793,7.69478275 8.6131891,8.08965077 C8.21289333,8.4845188 7.99306989,9.00829563 7.99306989,9.56599583 C7.99306989,10.123696 8.21289333,10.6474729 8.6131891,11.0423409 C9.01212793,11.4372089 9.54404637,11.6543185 10.1085312,11.6543185 C10.6730161,11.6543185 11.2049346,11.4372089 11.6038734,11.0423409 C12.0041692,10.6474729 12.2239926,10.123696 12.2239926,9.56599583 C12.2239926,9.00829563 12.0041692,8.4845188 11.6038734,8.08965077 C11.2035776,7.69342581 10.6716592,7.47767318 10.1085312,7.47767318 Z M11.3704806,9.6935477 C11.3121324,10.2797435 10.8317775,10.7546707 10.23744,10.811662 C9.43549158,10.8903642 8.76516579,10.2295369 8.84522495,9.43708703 C8.90357314,8.85089119 9.38392806,8.37596401 9.9782655,8.31897275 C10.780214,8.24027053 11.4505398,8.90109778 11.3704806,9.6935477 L11.3704806,9.6935477 Z M15.608188,9.56599583 C15.608188,6.25507493 12.6093621,3.6375477 9.14782141,4.21560193 C7.00793523,4.57247578 4.9711761,6.64722908 4.66586577,8.76947511 C4.30085031,11.2988016 5.70527783,13.5540272 7.83295159,14.5120232 C6.89666658,14.7929087 6.03365605,15.2461249 5.28462804,15.8309638 L14.9310775,15.8309638 C14.1806926,15.2461249 13.319039,14.7929087 12.382754,14.5106662 C14.2851765,13.6557973 15.608188,11.7642302 15.608188,9.56599583 Z M10.2618649,12.4861195 C8.50463431,12.5743203 7.06221262,11.1481818 7.15041339,9.41401913 C7.22640173,7.92817553 8.44899999,6.7218605 9.95248374,6.64587215 C11.7097143,6.55767139 13.152136,7.98380986 13.0639352,9.71797253 C12.9879469,11.2038161 11.7667056,12.4101312 10.2618649,12.4861195 Z" id="形状备份-50" fill="#FFFFFF"></path>
            </g>
        </g>
    </g>
</svg>