<?xml version="1.0" encoding="UTF-8"?>
<svg width="20px" height="24px" viewBox="0 0 20 24" version="1.1" xmlns="http://www.w3.org/2000/svg" xmlns:xlink="http://www.w3.org/1999/xlink">
    <title>Wecomm mini备份 2</title>
    <g id="页面-1" stroke="none" stroke-width="1" fill="none" fill-rule="evenodd">
        <g id="落点切图" transform="translate(-252.000000, -287.000000)" fill-rule="nonzero">
            <g id="Wecomm-mini备份-2" transform="translate(252.000000, 287.000000)">
                <path d="M10,0.5 C12.6233526,0.5 14.9983526,1.56332372 16.7175144,3.28248558 C18.4366763,5.00164744 19.5,7.37664744 19.5,10 C19.5,13.0460551 18.0663431,15.7572032 15.8371563,17.4957464 L15.8371563,17.4957464 L10.0000901,23.2950852 L4.17742239,17.5070936 C1.93990984,15.7690125 0.5,13.0526904 0.5,10 C0.5,7.37664744 1.56332372,5.00164744 3.28248558,3.28248558 C5.00164744,1.56332372 7.37664744,0.5 10,0.5 Z" id="形状结合" stroke="#FFFFFF" fill="#999999"></path>
                <path d="M7.07569012,4 L12.9243099,4 C13.5155833,4 14,4.50197131 14,5.11467159 L14,15.456757 C14,16.0694573 13.5155833,16.5714286 12.9243099,16.5714286 L7.07569012,16.5714286 C6.48441674,16.5714286 6,16.0694573 6,15.456757 L6,5.11467159 C6,4.50197131 6.48441674,4 7.07569012,4 Z M6.89759573,5.79380924 L6.89759573,10.2155859 L13.0667854,10.2155859 L13.0667854,5.79380924 L6.89759573,5.79380924 Z M8.47907391,4.58317255 L8.47907391,5.05561614 L11.2858415,5.05561614 L11.2858415,4.58317255 L8.47907391,4.58317255 Z M9.35529831,10.6954115 C9.14870882,10.6954115 8.9777382,10.8725778 8.9777382,11.0866538 L8.9777382,11.6919721 C8.9777382,11.9060482 9.14870882,12.0832145 9.35529831,12.0832145 L10.5022262,12.0832145 C10.7088157,12.0832145 10.8797863,11.9060482 10.8797863,11.6919721 L10.8797863,11.0866538 C10.8797863,10.8725778 10.7088157,10.6954115 10.5022262,10.6954115 L9.35529831,10.6954115 Z M8.70703473,11.175237 L7.00445236,11.175237 L7.00445236,11.603389 L8.70703473,11.603389 L8.70703473,11.175237 Z M12.8530721,11.175237 L11.1504898,11.175237 L11.1504898,11.603389 L12.8530721,11.603389 L12.8530721,11.175237 Z M8.69991095,12.459693 L6.99732858,12.459693 L6.99732858,13.2938512 L8.69991095,13.2938512 L8.69991095,12.459693 Z M10.7800534,12.459693 L9.07034728,12.459693 L9.07034728,13.2938512 L10.7729297,13.2938512 L10.7729297,12.459693 L10.7800534,12.459693 Z M12.8388246,12.459693 L11.1362422,12.459693 L11.1362422,13.2938512 L12.8388246,13.2938512 L12.8388246,12.459693 L12.8388246,12.459693 Z M8.69991095,13.5448368 L6.99732858,13.5448368 L6.99732858,14.3789951 L8.69991095,14.3789951 L8.69991095,13.5448368 L8.69991095,13.5448368 Z M10.7800534,13.5448368 L9.07034728,13.5448368 L9.07034728,14.3789951 L10.7729297,14.3789951 L10.7729297,13.5448368 L10.7800534,13.5448368 Z M12.8388246,13.5448368 L11.1362422,13.5448368 L11.1362422,14.3789951 L12.8388246,14.3789951 L12.8388246,13.5448368 L12.8388246,13.5448368 Z M8.69991095,14.7038 L6.99732858,14.7038 L6.99732858,15.5379582 L8.69991095,15.5379582 L8.69991095,14.7038 L8.69991095,14.7038 Z M10.7800534,14.7038 L9.07034728,14.7038 L9.07034728,15.5379582 L10.7729297,15.5379582 L10.7729297,14.7038 L10.7800534,14.7038 Z M12.8388246,14.7038 L11.1362422,14.7038 L11.1362422,15.5379582 L12.8388246,15.5379582 L12.8388246,14.7038 L12.8388246,14.7038 Z" id="形状备份-43" fill="#FFFFFF"></path>
            </g>
        </g>
    </g>
</svg>