<?xml version="1.0" encoding="UTF-8"?>
<svg width="16px" height="17px" viewBox="0 0 16 17" version="1.1" xmlns="http://www.w3.org/2000/svg" xmlns:xlink="http://www.w3.org/1999/xlink">
    <title>合并形状</title>
    <g id="Page-1" stroke="none" stroke-width="1" fill="none" fill-rule="evenodd">
        <g id="编组-16" transform="translate(-90.000000, 0.000000)" fill="#A6ADB4" fill-rule="nonzero">
            <path d="M103.144196,4.57142857 C103.460239,4.57247834 103.715279,4.84242007 103.714289,5.17562939 L103.714289,5.17562939 L103.714289,14.2123599 C103.714289,15.2098883 102.947173,16.0207632 102.002048,16.0207632 L102.002048,16.0207632 L94.0009535,16.0207632 C93.0558286,16.0207632 92.2857143,15.2098883 92.2857143,14.2123599 L92.2857143,14.2123599 L92.2857143,5.16614394 C92.2857143,5.00481627 92.346736,4.85614211 92.4527416,4.74331022 C92.5607564,4.6315281 92.7057718,4.57142857 92.8577926,4.57142857 L92.8577926,4.57142857 L103.144196,4.57142857 Z M99.7151726,6.85714286 C99.3984471,6.85714286 99.1428571,7.09169351 99.1428571,7.38348647 L99.1428571,7.38348647 L99.1428571,13.1888778 C99.1428571,13.4806708 99.3984471,13.7142857 99.7151726,13.7142857 C100.029902,13.7142857 100.28649,13.4806708 100.28649,13.1888778 L100.286472,13.1888778 L100.286472,7.38348647 C100.286472,7.0926128 100.0309,6.85714286 99.7151726,6.85714286 Z M96.2866011,6.85714286 C95.9698756,6.85714286 95.7142857,7.09169351 95.7142857,7.38348647 L95.7142857,7.38348647 L95.7142857,13.1888778 C95.7142857,13.4806708 95.9698756,13.7142857 96.2866011,13.7142857 C96.601331,13.7142857 96.8579187,13.4806708 96.8579187,13.1888778 L96.8579009,13.1888778 L96.8579009,7.38348647 C96.8579009,7.0926128 96.6023288,6.85714286 96.2866011,6.85714286 Z M100.672196,2.50466314e-13 C101.612536,2.50466314e-13 102.005331,0.40625021 102.006328,1.2155945 L102.006328,1.2155945 L102.006328,2.27705037 L105.439817,2.27705037 C105.813272,2.39328711 106,2.58201912 106,2.8432464 C106,3.23508731 105.754272,3.42857143 105.43882,3.42857143 L105.43882,3.42857143 L90.5616927,3.42857143 C90.2462403,3.42857143 90,3.11417097 90,2.8432464 C90,2.57317537 90.2452433,2.27705037 90.5616927,2.27705037 L90.5616927,2.27705037 L93.9986911,2.27705037 L93.9986911,1.2155945 C93.9986911,0.40625021 94.4693407,2.50466314e-13 95.4156802,2.50466314e-13 L95.4156802,2.50466314e-13 L100.672196,2.50466314e-13 Z" id="合并形状"></path>
        </g>
    </g>
</svg>