<?xml version="1.0" encoding="UTF-8"?>
<svg width="16px" height="17px" viewBox="0 0 16 17" version="1.1" xmlns="http://www.w3.org/2000/svg" xmlns:xlink="http://www.w3.org/1999/xlink">
    <title>合并形状</title>
    <g id="Page-1" stroke="none" stroke-width="1" fill="none" fill-rule="evenodd">
        <g id="编组-16" transform="translate(-210.000000, 0.000000)" fill="#FFFFFF" fill-rule="nonzero">
            <path d="M223.144196,4.57142857 C223.460239,4.57247834 223.715279,4.84242007 223.714289,5.17562939 L223.714289,5.17562939 L223.714289,14.2123599 C223.714289,15.2098883 222.947173,16.0207632 222.002048,16.0207632 L222.002048,16.0207632 L214.000953,16.0207632 C213.055829,16.0207632 212.285714,15.2098883 212.285714,14.2123599 L212.285714,14.2123599 L212.285714,5.16614394 C212.285714,5.00481627 212.346736,4.85614211 212.452742,4.74331022 C212.560756,4.6315281 212.705772,4.57142857 212.857793,4.57142857 L212.857793,4.57142857 L223.144196,4.57142857 Z M219.715173,6.85714286 C219.398447,6.85714286 219.142857,7.09169351 219.142857,7.38348647 L219.142857,7.38348647 L219.142857,13.1888778 C219.142857,13.4806708 219.398447,13.7142857 219.715173,13.7142857 C220.029902,13.7142857 220.28649,13.4806708 220.28649,13.1888778 L220.286472,13.1888778 L220.286472,7.38348647 C220.286472,7.0926128 220.0309,6.85714286 219.715173,6.85714286 Z M216.286601,6.85714286 C215.969876,6.85714286 215.714286,7.09169351 215.714286,7.38348647 L215.714286,7.38348647 L215.714286,13.1888778 C215.714286,13.4806708 215.969876,13.7142857 216.286601,13.7142857 C216.601331,13.7142857 216.857919,13.4806708 216.857919,13.1888778 L216.857901,13.1888778 L216.857901,7.38348647 C216.857901,7.0926128 216.602329,6.85714286 216.286601,6.85714286 Z M220.672196,2.50466314e-13 C221.612536,2.50466314e-13 222.005331,0.40625021 222.006328,1.2155945 L222.006328,1.2155945 L222.006328,2.27705037 L225.439817,2.27705037 C225.813272,2.39328711 226,2.58201912 226,2.8432464 C226,3.23508731 225.754272,3.42857143 225.43882,3.42857143 L225.43882,3.42857143 L210.561693,3.42857143 C210.24624,3.42857143 210,3.11417097 210,2.8432464 C210,2.57317537 210.245243,2.27705037 210.561693,2.27705037 L210.561693,2.27705037 L213.998691,2.27705037 L213.998691,1.2155945 C213.998691,0.40625021 214.469341,2.50466314e-13 215.41568,2.50466314e-13 L215.41568,2.50466314e-13 L220.672196,2.50466314e-13 Z" id="合并形状"></path>
        </g>
    </g>
</svg>