<?xml version="1.0" encoding="UTF-8"?>
<svg width="16px" height="16px" viewBox="0 0 16 16" version="1.1" xmlns="http://www.w3.org/2000/svg" xmlns:xlink="http://www.w3.org/1999/xlink">
    <title>形状</title>
    <g id="Page-1" stroke="none" stroke-width="1" fill="none" fill-rule="evenodd">
        <g id="编组-16" transform="translate(-180.000000, 0.000000)" fill="#FFFFFF" fill-rule="nonzero">
            <path d="M188,0 C183.582143,0 180,3.58214286 180,8 C180,12.4178571 183.582143,16 188,16 C192.417857,16 196,12.4178571 196,8 C196,3.58214286 192.417857,0 188,0 Z M191.294643,6.31607143 L188.116071,10.7089286 C188.058929,10.7875 187.942857,10.7875 187.885714,10.7089286 L184.707143,6.31607143 C184.639286,6.22142857 184.707143,6.08928571 184.823214,6.08928571 L185.660714,6.08928571 C185.842857,6.08928571 186.016071,6.17678571 186.123214,6.325 L188,8.92142857 L189.878571,6.325 C189.985714,6.17678571 190.157143,6.08928571 190.341071,6.08928571 L191.178571,6.08928571 C191.294643,6.08928571 191.3625,6.22142857 191.294643,6.31607143 Z" id="形状"></path>
        </g>
    </g>
</svg>