<?xml version="1.0" encoding="UTF-8"?>
<svg width="24px" height="24px" viewBox="0 0 24 24" version="1.1" xmlns="http://www.w3.org/2000/svg" xmlns:xlink="http://www.w3.org/1999/xlink">
    <title>形状</title>
    <g id="页面-1" stroke="none" stroke-width="1" fill="none" fill-rule="evenodd">
        <g id="转交成功" transform="translate(-600.000000, -161.000000)" fill="#999999" fill-rule="nonzero">
            <g id="搜索" transform="translate(0.000000, 128.000000)">
                <path d="M612,33 C605.372885,33 600,38.3728853 600,45 C600,51.6271147 605.372885,57 612,57 C618.627115,57 624,51.6271147 624,45 C624,38.3728853 618.627115,33 612,33 Z M618.171031,49.3522596 C618.671611,49.8528389 618.671611,50.6704519 618.171031,51.1710313 C617.670452,51.6716107 616.852839,51.6716107 616.35226,51.1710313 L612,46.8187717 L607.64774,51.1710313 C607.147161,51.6716107 606.329548,51.6716107 605.828969,51.1710313 C605.328389,50.6704519 605.328389,49.8528389 605.828969,49.3522596 L610.181228,45 L605.828969,40.6477404 C605.328389,40.147161 605.328389,39.3295481 605.828969,38.8289687 C606.329548,38.3283893 607.147161,38.3283893 607.64774,38.8289687 L612,43.1812283 L616.35226,38.8289687 C616.852839,38.3283893 617.670452,38.3283893 618.171031,38.8289687 C618.671611,39.3295481 618.671611,40.147161 618.171031,40.6477404 L613.818772,45 L618.171031,49.3522596 L618.171031,49.3522596 Z" id="形状"></path>
            </g>
        </g>
    </g>
</svg>