<?xml version="1.0" encoding="UTF-8"?>
<svg width="26px" height="26px" viewBox="0 0 26 26" version="1.1" xmlns="http://www.w3.org/2000/svg" xmlns:xlink="http://www.w3.org/1999/xlink">
    <title>路径</title>
    <g id="页面-1" stroke="none" stroke-width="1" fill="none" fill-rule="evenodd">
        <g id="响应通告" transform="translate(-693.000000, -170.000000)" fill-rule="nonzero" stroke="#666666" stroke-width="1.4">
            <g id="搜索" transform="translate(0.000000, 128.000000)">
                <path d="M703.236623,64.9996 C702.477739,64.5950361 701.998767,63.80991 701.98625,62.95 L701.98625,53.1496 C701.983489,53.0069167 701.908466,52.875398 701.787054,52.8004 L694.734807,47.05 L694.634009,46.9504 C693.983623,46.3 693.833627,45.3004 694.184019,44.4004 C694.534411,43.5004 695.383993,43 696.334372,43 L715.641954,43 C716.591134,43 717.391517,43.5496 717.792308,44.4004 C718.191899,45.25 717.991504,46.2496 717.391517,46.9504 L717.291919,47.05 L710.039276,52.8004 C709.948615,52.894778 709.895312,53.0188693 709.889279,53.1496 L709.889279,64.6 C709.889279,66.0004 708.788903,67 707.489331,67" id="路径"></path>
            </g>
        </g>
    </g>
</svg>