<?xml version="1.0" encoding="UTF-8"?>
<svg width="14px" height="14px" viewBox="0 0 14 14" version="1.1" xmlns="http://www.w3.org/2000/svg" xmlns:xlink="http://www.w3.org/1999/xlink">
    <title>Shape</title>
    <g id="任务调度" stroke="none" stroke-width="1" fill="none" fill-rule="evenodd">
        <g id="任务调度格式" transform="translate(-91.000000, -1337.000000)" fill="#FFFFFF" fill-rule="nonzero">
            <g id="右侧预案响应" transform="translate(58.000000, 74.000000)">
                <g id="默认备份" transform="translate(20.000000, 1183.000000)">
                    <path d="M25.865146,83.173535 C25.1259101,82.4437162 24.1434013,82.0387844 23.0949733,82.0372149 L23.0839867,82.0372149 C22.5801763,82.0372149 22.0889218,82.1313851 21.6212099,82.3165864 C21.1362335,82.5096353 20.6999117,82.7937153 20.32637,83.1625485 L16.6709975,86.7755444 C16.2488012,87.1930322 16.0180843,87.7502058 16.0196538,88.3450474 C16.0212233,88.9383195 16.2550792,89.4954931 16.678845,89.9145504 C17.1026108,90.3336077 17.6644929,90.5643246 18.2640431,90.5658941 L18.2687516,90.5658941 C18.8667322,90.5658941 19.4270448,90.3367467 19.8476716,89.9223979 L23.0557357,86.7520019 C23.1624619,86.6468452 23.2205335,86.5071594 23.2205335,86.3596261 C23.2205335,86.2105233 23.1624619,86.0708376 23.0557357,85.9672504 C22.950579,85.8620937 22.8093237,85.8055916 22.6602209,85.8055916 C22.5111181,85.8055916 22.3698629,85.8636632 22.2647062,85.9672504 L19.0566421,89.1376464 C18.8478982,89.3448208 18.5669571,89.457825 18.2671821,89.457825 L18.2656126,89.457825 C17.9626985,89.4562555 17.6786184,89.3401123 17.468305,89.1313684 C17.2564221,88.921055 17.1387094,88.6416835 17.1387094,88.3434779 C17.1371399,88.0468418 17.2517136,87.7690398 17.462027,87.5618654 L21.1173995,83.9473 C21.6384745,83.4309335 22.3384728,83.1468535 23.0855562,83.1468535 L23.0934038,83.1468535 C23.8436262,83.148423 24.548333,83.4372115 25.0772555,83.9582865 C25.6046085,84.480931 25.8965361,85.1762209 25.8981056,85.9170263 C25.8996751,86.6578317 25.612456,87.351552 25.0898116,87.8679185 L21.2115697,91.7053533 C20.4362352,92.4681317 19.4003632,92.8887585 18.2954331,92.8887585 L18.2844466,92.8887585 C17.174808,92.8856195 16.132658,92.4587147 15.3510455,91.6865193 C14.569433,90.9143238 14.1378197,89.8847298 14.1362502,88.7876472 C14.1331112,87.6905646 14.560016,86.6641097 15.3353505,85.8981922 L20.342065,80.9479798 C20.4487912,80.8428231 20.5068628,80.7031373 20.5068628,80.5556041 C20.5068628,80.4065013 20.4487912,80.2668155 20.342065,80.1632283 C20.2353388,80.0580716 20.0940835,80 19.9449808,80 C19.795878,80 19.6546227,80.0580716 19.549466,80.1616588 L14.5427515,85.1134407 C14.0436495,85.6062647 13.6575518,86.1854113 13.3938753,86.8320465 C13.1411853,87.4567087 13.0140556,88.1159 13.0156107,88.7907862 C13.0171946,89.467242 13.1474633,90.1264333 13.4048618,90.749526 C13.6701078,91.3961612 14.057775,91.9753078 14.560016,92.4712707 C15.059118,92.9656642 15.6461121,93.3501924 16.3005948,93.6138689 C16.928396,93.8665589 17.5954348,93.9952581 18.2813076,93.9983972 L18.2954331,93.9983972 C18.9765974,93.9983972 19.6373582,93.8728369 20.2620204,93.6232859 C20.9149336,93.3643179 21.5003582,92.9829287 21.9994602,92.4885353 L25.8777021,88.65267 C26.2496743,88.2838368 26.5384628,87.853793 26.7330812,87.3719555 C26.9214215,86.9058131 27.0171612,86.4161282 27.0156107,85.9123178 C27.0108832,84.8764458 26.6028124,83.9033539 25.865146,83.173535 Z" id="Shape"></path>
                </g>
            </g>
        </g>
    </g>
</svg>