<?xml version="1.0" encoding="UTF-8"?>
<svg width="16px" height="16px" viewBox="0 0 16 16" version="1.1" xmlns="http://www.w3.org/2000/svg" xmlns:xlink="http://www.w3.org/1999/xlink">
    <title>下载</title>
    <g id="页面-1" stroke="none" stroke-width="1" fill="none" fill-rule="evenodd">
        <g id="情况汇总" transform="translate(-947.000000, -1023.000000)" fill="#56E9FF" fill-rule="nonzero">
            <g id="编组" transform="translate(33.000000, 9.000000)">
                <g id="通讯调度" transform="translate(20.000000, 954.000000)">
                    <g id="电话录音" transform="translate(68.000000, 59.000000)">
                        <g id="下载" transform="translate(826.000000, 1.000000)">
                            <path d="M15.5006969,8.93722987 C15.7768393,8.93722987 16.0006969,9.1610875 16.0006969,9.43722987 L16.0006969,15.4372299 C15.9999829,15.4469929 16,15.4494022 16,15.4518154 C16,15.7279578 15.7761424,15.9518154 15.5,15.9518154 L0.5,15.9518154 C0.223857625,15.9518154 0,15.7279578 0,15.4518154 C0.000713662993,15.4419988 0.000696944469,15.4396163 0.000696944469,15.4372299 L0.000696944469,9.43722987 C0.000696944469,9.1610875 0.22455457,8.93722987 0.500696944,8.93722987 C0.776839319,8.93722987 1.00069694,9.1610875 1.00069694,9.43722987 L1,14.9508154 L15,14.9508154 L15.0006969,9.43722987 C15.0006969,9.1610875 15.2245546,8.93722987 15.5006969,8.93722987 Z M8,0.451815385 C8.27614237,0.451815385 8.5,0.67567301 8.5,0.951815385 L8.499,11.7418154 L10.7944334,9.44702268 C10.9896955,9.25176054 11.306278,9.25176054 11.5015402,9.44702268 C11.6968023,9.64228483 11.6968023,9.95886732 11.5015402,10.1541295 L8.38475469,13.2711535 C8.2930397,13.381534 8.15472739,13.4518154 8,13.4518154 L7.98247005,13.4520563 C7.83386018,13.4713852 7.67822893,13.423969 7.56406773,13.3098078 L4.44274738,10.1884875 C4.24748524,9.99322532 4.24748524,9.67664283 4.44274738,9.48138069 C4.63800953,9.28611854 4.95459202,9.28611854 5.14985416,9.48138069 L7.499,11.8298154 L7.5,0.951815385 C7.5,0.67567301 7.72385763,0.451815385 8,0.451815385 Z" id="形状结合"></path>
                        </g>
                    </g>
                </g>
            </g>
        </g>
    </g>
</svg>