<?xml version="1.0" encoding="UTF-8"?>
<svg width="14px" height="17px" viewBox="0 0 14 17" version="1.1" xmlns="http://www.w3.org/2000/svg" xmlns:xlink="http://www.w3.org/1999/xlink">
    <title>形状备份 12</title>
    <g id="页面-1" stroke="none" stroke-width="1" fill="none" fill-rule="evenodd" opacity="0.747628348">
        <g id="切图" transform="translate(-428.000000, -326.000000)" fill="#FFFFFF" fill-rule="nonzero">
            <path d="M442,333.038491 C442,329.151143 438.865986,326 434.999924,326 C431.133971,326 428,329.151143 428,333.038491 C428,333.161868 428.01208,333.281125 428.018414,333.401905 C428.012668,333.461565 428,333.519101 428,333.580328 C428,337.912447 434.461554,342.819559 434.461554,342.819559 C434.461554,342.819559 434.999989,343.225551 435.538446,342.819559 C436.076882,342.413117 442,337.912447 442,333.580328 C442,333.519101 441.987332,333.461565 441.981586,333.401905 C441.987854,333.281125 442,333.161868 442,333.038491 L442,333.038491 Z M434.999924,335.746323 C433.512865,335.746323 432.307702,334.534251 432.307702,333.038491 C432.307702,331.543783 433.512843,330.331668 434.999924,330.331668 C436.48707,330.331668 437.692298,331.543783 437.692298,333.038491 C437.692298,334.534251 436.48707,335.746323 434.999924,335.746323 L434.999924,335.746323 Z" id="形状备份-12"></path>
        </g>
    </g>
</svg>