<?xml version="1.0" encoding="UTF-8"?>
<svg width="16px" height="16px" viewBox="0 0 16 16" version="1.1" xmlns="http://www.w3.org/2000/svg" xmlns:xlink="http://www.w3.org/1999/xlink">
    <title>文本 </title>
    <defs>
        <filter id="filter-1">
            <feColorMatrix in="SourceGraphic" type="matrix" values="0 0 0 0 0.337255 0 0 0 0 0.913725 0 0 0 0 1.000000 0 0 0 1.000000 0"></feColorMatrix>
        </filter>
    </defs>
    <g id="页面-1" stroke="none" stroke-width="1" fill="none" fill-rule="evenodd">
        <g id="情况汇总" transform="translate(-983.000000, -1168.000000)">
            <g id="编组" transform="translate(33.000000, 9.000000)">
                <g id="通讯调度" transform="translate(20.000000, 954.000000)">
                    <g id="电话呼入" transform="translate(0.000000, 145.000000)">
                        <g id="文本-" transform="translate(68.000000, 59.000000)" filter="url(#filter-1)">
                            <g transform="translate(862.000000, 1.000000)">
                                <g id="文本icon" fill="#0091FF" fill-rule="nonzero">
                                    <path d="M2,2 L2,14 L14,14 L14,2 L2,2 Z M1,1 L15,1 L15,15 L1,15 L1,1 Z" id="Rectangle-16-Copy"></path>
                                    <path d="M0.200000003,0 L2.8,0 C2.91045695,0 3,0.0895430514 3,0.200000003 L3,2.8 C3,2.91045695 2.91045695,3 2.8,3 L0.200000003,3 C0.0895430514,3 0,2.91045695 0,2.8 L0,0.200000003 C0,0.0895430514 0.0895430514,0 0.200000003,0 Z" id="Rectangle-16-Copy-2"></path>
                                    <path d="M13.2,0 L15.8,0 C15.9104569,0 16,0.0895430514 16,0.200000003 L16,2.8 C16,2.91045695 15.9104569,3 15.8,3 L13.2,3 C13.0895431,3 13,2.91045695 13,2.8 L13,0.200000003 C13,0.0895430514 13.0895431,0 13.2,0 Z" id="Rectangle-16-Copy-3"></path>
                                    <path d="M13.2,13 L15.8,13 C15.9104569,13 16,13.0895431 16,13.2 L16,15.8 C16,15.9104569 15.9104569,16 15.8,16 L13.2,16 C13.0895431,16 13,15.9104569 13,15.8 L13,13.2 C13,13.0895431 13.0895431,13 13.2,13 Z" id="Rectangle-16-Copy-4"></path>
                                    <path d="M0.200000003,13 L2.8,13 C2.91045695,13 3,13.0895431 3,13.2 L3,15.8 C3,15.9104569 2.91045695,16 2.8,16 L0.200000003,16 C0.0895430514,16 0,15.9104569 0,15.8 L0,13.2 C0,13.0895431 0.0895430514,13 0.200000003,13 Z" id="Rectangle-16-Copy-5"></path>
                                </g>
                                <path d="M9,7 L10.995,7 L11,5.005 L5.005,5 L5,6.995 L7,7 L7,10.995 L8.995,11 L9,7 Z M10,8 L10,10.995 C9.7750231,11.7750231 9.7750231,11.7750231 8.995,12 L7.005,12 C6.22497691,11.7750231 6.22497691,11.7750231 6,10.995 L6,8 L5.005,8 C4.22497691,7.77502309 4.22497691,7.77502309 4,6.995 L4,5.005 C4.22497691,4.22497691 4.22497691,4.22497691 5.005,4 L10.995,4 C11.7750231,4.22497691 11.7750231,4.22497691 12,5.005 L12,6.995 C11.7750231,7.77502309 11.7750231,7.77502309 10.995,8 L10,8 Z" id="Combined-Shape" fill="#0091FF" fill-rule="nonzero"></path>
                            </g>
                        </g>
                    </g>
                </g>
            </g>
        </g>
    </g>
</svg>