<?xml version="1.0" encoding="UTF-8"?>
<svg width="16px" height="16px" viewBox="0 0 16 16" version="1.1" xmlns="http://www.w3.org/2000/svg" xmlns:xlink="http://www.w3.org/1999/xlink">
    <title>形状</title>
    <g id="页面-1" stroke="none" stroke-width="1" fill="none" fill-rule="evenodd">
        <g id="弹窗补充" transform="translate(-410.000000, -98.000000)" fill="#56E9FF" fill-rule="nonzero">
            <g id="图标详情" transform="translate(156.000000, 35.000000)">
                <g id="内容" transform="translate(14.000000, 57.000000)">
                    <path d="M254.75887,14.3832148 C254.560067,17.8131737 251.813155,20.5600674 248.383215,20.7588698 L248.383215,21.5688436 C248.383215,21.7893131 248.204489,21.9680389 247.984019,21.9680389 C247.76355,21.9680389 247.584824,21.7893131 247.584824,21.5688436 L247.584824,20.7588698 C244.154865,20.5600674 241.407972,17.8131549 241.209169,14.3832148 L240.399195,14.3832148 C240.178726,14.3832148 240,14.204489 240,13.9840195 C240,13.76355 240.178726,13.5848241 240.399195,13.5848241 L241.209169,13.5848241 C241.407972,10.154884 244.154884,7.40797156 247.584824,7.20916916 L247.584824,6.39919536 C247.584824,6.17872585 247.76355,6 247.984019,6 C248.204489,6 248.383215,6.17872585 248.383215,6.39919536 L248.383215,7.20916916 C251.813155,7.40797156 254.560067,10.154884 254.75887,13.5848241 L255.560067,13.5848241 C255.780537,13.5848241 255.959263,13.76355 255.959263,13.9840195 C255.959263,14.204489 255.780537,14.3832148 255.560067,14.3832148 L254.758477,14.3832148 L254.75887,14.3832148 Z M253.95887,14.3832148 L251.567646,14.3832148 C251.347176,14.3832148 251.168451,14.204489 251.168451,13.9840195 C251.168451,13.76355 251.347176,13.5848241 251.567646,13.5848241 L253.95887,13.5848241 C253.76207,10.5956025 251.372043,8.20596931 248.383215,8.00916916 L248.383215,10.3912051 C248.383215,10.6116746 248.204489,10.7904004 247.984019,10.7904004 C247.76355,10.7904004 247.584824,10.6116746 247.584824,10.3912051 L247.584824,8.00916916 C244.595603,8.20596931 242.205969,10.5959955 242.009169,13.5848241 L244.391205,13.5848241 C244.611675,13.5848241 244.7904,13.76355 244.7904,13.9840195 C244.7904,14.204489 244.611675,14.3832148 244.391205,14.3832148 L242.009169,14.3832148 C242.205969,17.3724364 244.595996,19.7620696 247.584824,19.9588698 L247.584824,17.5768338 C247.584824,17.3563643 247.76355,17.1776385 247.984019,17.1776385 C248.204489,17.1776385 248.383215,17.3563643 248.383215,17.5768338 L248.383215,19.9588698 C251.372436,19.7620696 253.76207,17.3720434 253.95887,14.3832148 Z M247.984019,14.7824289 C247.54307,14.7824289 247.18561,14.4249688 247.18561,13.9840195 C247.18561,13.5430701 247.54307,13.18561 247.984019,13.18561 C248.424969,13.18561 248.782429,13.5430701 248.782429,13.9840195 C248.782429,14.4249688 248.424969,14.7824289 247.984019,14.7824289 Z" id="形状"></path>
                </g>
            </g>
        </g>
    </g>
</svg>