<?xml version="1.0" encoding="UTF-8"?>
<svg width="228px" height="36px" viewBox="0 0 228 36" version="1.1" xmlns="http://www.w3.org/2000/svg" xmlns:xlink="http://www.w3.org/1999/xlink">
    <title>矩形备份</title>
    <defs>
        <linearGradient x1="0.505354021%" y1="50%" x2="147.30992%" y2="50%" id="linearGradient-1">
            <stop stop-color="#00C1DE" offset="0%"></stop>
            <stop stop-color="#123C52" stop-opacity="0" offset="100%"></stop>
        </linearGradient>
        <polygon id="path-2" points="0 0 228 0 228 36 0 36"></polygon>
        <linearGradient x1="10.8437571%" y1="19.287459%" x2="125.077777%" y2="19.287459%" id="linearGradient-4">
            <stop stop-color="#FFFFFF" stop-opacity="0.1" offset="0%"></stop>
            <stop stop-color="#FFFFFF" stop-opacity="0" offset="100%"></stop>
        </linearGradient>
        <polygon id="path-5" points="0 0 228 0 228 36 0 36"></polygon>
        <linearGradient x1="-21.4761376%" y1="59.2604702%" x2="124.612461%" y2="67.9678616%" id="linearGradient-7">
            <stop stop-color="#FFFFFF" stop-opacity="0" offset="0%"></stop>
            <stop stop-color="#FFFFFF" stop-opacity="0.2" offset="100%"></stop>
        </linearGradient>
        <polygon id="path-8" points="0 0 228 0 228 36 0 36"></polygon>
        <linearGradient x1="107.763809%" y1="-6.68408122%" x2="42.4510577%" y2="62.438984%" id="linearGradient-10">
            <stop stop-color="#FFFFFF" stop-opacity="0.314113451" offset="0%"></stop>
            <stop stop-color="#FFFFFF" stop-opacity="0" offset="100%"></stop>
        </linearGradient>
        <polygon id="path-11" points="0 0 228 0 228 36 0 36"></polygon>
    </defs>
    <g id="Page-1" stroke="none" stroke-width="1" fill="none" fill-rule="evenodd">
        <g id="矩形备份">
            <g id="蒙版" opacity="0.947870164" fill="#141D1F" fill-rule="nonzero">
                <polygon id="path-1" points="0 0 228 0 228 140 0 140"></polygon>
            </g>
            <g id="蒙版备份" fill="url(#linearGradient-1)" fill-rule="nonzero">
                <polygon id="path-4" points="0 0 228 0 228 36 0 36"></polygon>
            </g>
            <g id="椭圆形-Clipped">
                <mask id="mask-3" fill="white">
                    <use xlink:href="#path-2"></use>
                </mask>
                <g id="path-4"></g>
                <circle id="椭圆形" fill="url(#linearGradient-4)" fill-rule="nonzero" opacity="0.5" mask="url(#mask-3)" cx="168" cy="73.2" r="60"></circle>
            </g>
            <g id="椭圆形-Clipped">
                <mask id="mask-6" fill="white">
                    <use xlink:href="#path-5"></use>
                </mask>
                <g id="path-4"></g>
                <circle id="椭圆形" fill="url(#linearGradient-7)" fill-rule="nonzero" mask="url(#mask-6)" cx="34.8" cy="-24" r="42"></circle>
            </g>
            <g id="合并形状-Clipped">
                <mask id="mask-9" fill="white">
                    <use xlink:href="#path-8"></use>
                </mask>
                <g id="path-4"></g>
                <path d="M21.3538462,23.5076923 C22.3734488,23.5076923 23.2,24.3342435 23.2,25.3538462 C23.2,26.3734488 22.3734488,27.2 21.3538462,27.2 C20.3342435,27.2 19.5076923,26.3734488 19.5076923,25.3538462 C19.5076923,24.3342435 20.3342435,23.5076923 21.3538462,23.5076923 Z M21.3538462,18.3384615 C22.3734488,18.3384615 23.2,19.1650128 23.2,20.1846154 C23.2,21.204218 22.3734488,22.0307692 21.3538462,22.0307692 C20.3342435,22.0307692 19.5076923,21.204218 19.5076923,20.1846154 C19.5076923,19.1650128 20.3342435,18.3384615 21.3538462,18.3384615 Z M16.1846154,18.3384615 C17.204218,18.3384615 18.0307692,19.1650128 18.0307692,20.1846154 C18.0307692,21.204218 17.204218,22.0307692 16.1846154,22.0307692 C15.1650128,22.0307692 14.3384615,21.204218 14.3384615,20.1846154 C14.3384615,19.1650128 15.1650128,18.3384615 16.1846154,18.3384615 Z M21.3538462,13.1692308 C22.3734488,13.1692308 23.2,13.995782 23.2,15.0153846 C23.2,16.0349872 22.3734488,16.8615385 21.3538462,16.8615385 C20.3342435,16.8615385 19.5076923,16.0349872 19.5076923,15.0153846 C19.5076923,13.995782 20.3342435,13.1692308 21.3538462,13.1692308 Z M16.1846154,13.1692308 C17.204218,13.1692308 18.0307692,13.995782 18.0307692,15.0153846 C18.0307692,16.0349872 17.204218,16.8615385 16.1846154,16.8615385 C15.1650128,16.8615385 14.3384615,16.0349872 14.3384615,15.0153846 C14.3384615,13.995782 15.1650128,13.1692308 16.1846154,13.1692308 Z M11.0153846,13.1692308 C12.0349872,13.1692308 12.8615385,13.995782 12.8615385,15.0153846 C12.8615385,16.0349872 12.0349872,16.8615385 11.0153846,16.8615385 C9.995782,16.8615385 9.16923077,16.0349872 9.16923077,15.0153846 C9.16923077,13.995782 9.995782,13.1692308 11.0153846,13.1692308 Z M16.1846154,8 C17.204218,8 18.0307692,8.82655123 18.0307692,9.84615385 C18.0307692,10.8657565 17.204218,11.6923077 16.1846154,11.6923077 C15.1650128,11.6923077 14.3384615,10.8657565 14.3384615,9.84615385 C14.3384615,8.82655123 15.1650128,8 16.1846154,8 Z M11.0153846,8 C12.0349872,8 12.8615385,8.82655123 12.8615385,9.84615385 C12.8615385,10.8657565 12.0349872,11.6923077 11.0153846,11.6923077 C9.995782,11.6923077 9.16923077,10.8657565 9.16923077,9.84615385 C9.16923077,8.82655123 9.995782,8 11.0153846,8 Z M21.3538462,8 C22.3734488,8 23.2,8.82655123 23.2,9.84615385 C23.2,10.8657565 22.3734488,11.6923077 21.3538462,11.6923077 C20.3342435,11.6923077 19.5076923,10.8657565 19.5076923,9.84615385 C19.5076923,8.82655123 20.3342435,8 21.3538462,8 Z M5.84615385,8 C6.86575646,8 7.69230769,8.82655123 7.69230769,9.84615385 C7.69230769,10.8657565 6.86575646,11.6923077 5.84615385,11.6923077 C4.82655123,11.6923077 4,10.8657565 4,9.84615385 C4,8.82655123 4.82655123,8 5.84615385,8 Z" id="合并形状" fill="url(#linearGradient-10)" fill-rule="nonzero" mask="url(#mask-9)" transform="translate(13.600000, 17.600000) rotate(-180.000000) translate(-13.600000, -17.600000) "></path>
            </g>
            <g id="路径-Clipped">
                <mask id="mask-12" fill="white">
                    <use xlink:href="#path-11"></use>
                </mask>
                <g id="path-4"></g>
            </g>
        </g>
    </g>
</svg>