<?xml version="1.0" encoding="UTF-8"?>
<svg width="20px" height="24px" viewBox="0 0 20 24" version="1.1" xmlns="http://www.w3.org/2000/svg" xmlns:xlink="http://www.w3.org/1999/xlink">
    <title>形状</title>
    <g id="新增任务" stroke="none" stroke-width="1" fill="none" fill-rule="evenodd">
        <g id="任务管理备份" transform="translate(-55.000000, -2376.000000)" fill="#CCCCCC" fill-rule="nonzero">
            <g id="工单备份-5" transform="translate(20.000000, 1978.000000)">
                <path d="M44.573486,398 C49.8606032,398 54.146972,402.325939 54.146972,407.661562 C54.146972,411.134823 51.1045181,415.853913 45.0202487,421.817557 C44.7720761,422.060814 44.3748958,422.060814 44.1267233,421.817557 L43.8395187,421.53482 C37.946719,415.704567 35,411.080573 35,407.661562 C35,402.325939 39.2863688,398 44.573486,398 Z M44.573486,403.728136 C42.8110559,403.728136 41.382324,405.156868 41.382324,406.919298 C41.382324,408.681728 42.8110559,410.11046 44.573486,410.11046 C46.3359161,410.11046 47.764648,408.681728 47.764648,406.919298 C47.764648,405.156868 46.3359161,403.728136 44.573486,403.728136 L44.573486,403.728136 Z" id="形状"></path>
            </g>
        </g>
    </g>
</svg>