<?xml version="1.0" encoding="UTF-8"?>
<svg width="15px" height="14px" viewBox="0 0 15 14" version="1.1" xmlns="http://www.w3.org/2000/svg" xmlns:xlink="http://www.w3.org/1999/xlink">
    <title>形状</title>
    <g id="页面-1" stroke="none" stroke-width="1" fill="none" fill-rule="evenodd">
        <g id="1.1.人员弹窗各弹窗" transform="translate(-2077.000000, -169.000000)" fill="#FFFFFF" fill-rule="nonzero">
            <g id="编组-16" transform="translate(2012.000000, 74.000000)">
                <g id="按钮" transform="translate(34.000000, 40.000000)">
                    <path d="M34.8588968,62.8625691 L34.8616959,62.8579041 L32.7377165,60.5865104 C32.4204622,60.2471762 32.401172,59.726142 32.6924659,59.3642776 L33.1911555,58.7447642 L41.5877083,67.3143888 L40.608056,67.9129097 C40.3114391,68.0943419 39.9385406,68.0957803 39.6405328,67.9166417 L34.8588968,62.8625691 L34.8588968,62.8625691 Z M34.6135173,63.2786881 L35.9649709,64.7071143 L35.0958794,66.1784587 C34.9640102,66.4024837 34.7444548,66.5611454 34.490361,66.6160367 C34.4241179,66.6314312 34.3550757,66.6393618 34.2841675,66.6393618 L32.8660043,66.6393618 L32.8660043,68.066855 C32.8660553,68.4002186 32.6882373,68.7082811 32.3995445,68.8749776 C32.1108516,69.0416741 31.7551527,69.0416741 31.4664599,68.8749776 C31.177767,68.7082811 30.999949,68.4002186 31,68.066855 L31,64.3348465 C30.999949,64.0014829 31.177767,63.6934204 31.4664599,63.5267239 C31.7551527,63.3600274 32.1108516,63.3600274 32.3995445,63.5267239 C32.6882373,63.6934204 32.8660553,64.0014829 32.8660043,64.3348465 L32.8660043,64.796216 L33.7173688,64.796216 L34.6130508,63.2786881 L34.6135173,63.2786881 Z M33.7770809,58.016556 L35.9239188,55.3481699 C36.0892365,55.1426785 36.3338013,55.0167533 36.5970989,55.0015528 C36.8603965,54.9863523 37.1178278,55.0832966 37.305695,55.2683982 L45.6378705,63.4802165 C45.8424358,63.6817248 45.9428186,63.9662041 45.9100189,64.2514702 C45.8772193,64.5367363 45.7148911,64.7910093 45.4699301,64.9408314 L42.4003531,66.8170987 L33.7770809,58.016556 L33.7770809,58.016556 Z" id="形状"></path>
                </g>
            </g>
        </g>
    </g>
</svg>