<?xml version="1.0" encoding="UTF-8"?>
<svg width="14px" height="14px" viewBox="0 0 14 14" version="1.1" xmlns="http://www.w3.org/2000/svg" xmlns:xlink="http://www.w3.org/1999/xlink">
    <title>形状结合</title>
    <g id="页面-1" stroke="none" stroke-width="1" fill="none" fill-rule="evenodd">
        <g id="1.1.人员弹窗各弹窗" transform="translate(-2110.000000, -232.000000)" fill="#56E9FF" fill-rule="nonzero">
            <g id="编组-16" transform="translate(2012.000000, 74.000000)">
                <g id="按钮备份" transform="translate(34.000000, 157.000000)">
                    <path d="M71,1 C74.8659932,1 78,4.13400675 78,8 C78,10.5008592 76.6658076,12.8117483 74.5,14.0621779 C72.3341925,15.3126075 69.6658075,15.3126075 67.5,14.0621779 C65.3341924,12.8117483 64,10.5008592 64,8 C64,4.13400675 67.1340068,1 71,1 Z M72.1941364,4.16463636 C71.9892081,3.97573787 71.6736101,3.97573787 71.4686818,4.16463636 C71.373928,4.25181482 71.3194845,4.3743247 71.3182586,4.50307607 C71.3170735,4.63182744 71.3692134,4.75533529 71.4623182,4.84427273 L71.4623182,4.84427273 L71.4683636,4.85 L71.5234091,4.90281818 C73.2991818,6.63818182 73.2991818,9.39363636 71.5224545,11.129 L71.5224545,11.129 L71.4683636,11.1811818 C71.3795962,11.2684287 71.3305439,11.3855543 71.3306636,11.50777 C71.3307833,11.6299857 71.3800649,11.7470149 71.4674091,11.8325 C71.5622273,11.9250909 71.6923636,11.9772786 71.8285455,11.9772786 C71.9601547,11.9778981 72.0870429,11.9282809 72.1833182,11.8385455 L72.1833182,11.8385455 L72.1887273,11.8334545 L72.2549091,11.7691818 C74.3978636,9.66504545 74.4000909,6.33527273 72.26,4.22827273 L72.26,4.22827273 Z M70.2411364,5.57418182 C70.0403622,5.41479698 69.7562287,5.41479698 69.5554545,5.57418182 L69.5554545,5.57418182 L69.5497273,5.57895455 C69.3691012,5.75837817 69.366831,6.04074115 69.5389091,6.21754545 L69.5389091,6.21754545 L69.544,6.22327273 L69.5455909,6.22454545 L69.5783636,6.25540909 C70.6006818,7.22968182 70.6006818,8.77286364 69.5783636,9.74681818 L69.5783636,9.74681818 L69.5468636,9.77609091 C69.4588444,9.86105407 69.4099888,9.97507478 69.4090173,10.0944788 C69.4080745,10.2138829 69.4550959,10.3286722 69.5395455,10.4130909 L69.5395455,10.4130909 L69.5475,10.4210455 L69.5564091,10.4280455 C69.7577118,10.5841827 70.0391973,10.5841827 70.2405,10.4280455 L70.2405,10.4280455 L70.2465455,10.4232727 L70.2484545,10.4216818 L70.2926818,10.3790455 C71.6602273,9.04268182 71.6599091,6.95859091 70.2923636,5.62222727 L70.2923636,5.62222727 L70.2503636,5.58213636 L70.2487727,5.58054545 Z M68.3791364,7.41168182 C68.143791,7.31459222 67.8732021,7.36758254 67.6918636,7.54627273 L67.6918636,7.54627273 L67.6864545,7.55168182 C67.4396882,7.80269327 67.4394052,8.19632359 67.6804091,8.44227273 L67.6804091,8.44227273 L67.6861364,8.448 C67.8732273,8.63254545 68.1436818,8.68568182 68.3791364,8.58831818 C68.6174368,8.49006416 68.7729296,8.25776142 68.7729296,8 C68.7729296,7.74223858 68.6174368,7.50993584 68.3791364,7.41168182 Z" id="形状结合"></path>
                </g>
            </g>
        </g>
    </g>
</svg>