<?xml version="1.0" encoding="UTF-8"?>
<svg width="15px" height="16px" viewBox="0 0 15 16" version="1.1" xmlns="http://www.w3.org/2000/svg" xmlns:xlink="http://www.w3.org/1999/xlink">
    <title>路径</title>
    <g id="页面-1" stroke="none" stroke-width="1" fill="none" fill-rule="evenodd">
        <g id="1.1.人员弹窗各弹窗" transform="translate(-2108.000000, -142.000000)" fill="#FFFFFF" fill-rule="nonzero">
            <g id="编组-16" transform="translate(2012.000000, 74.000000)">
                <g id="按钮" transform="translate(34.000000, 40.000000)">
                    <path d="M76.37,41.2592 C76.2356,40.6376 75.7196,40.222 75.0776,40.218 C74.902,40.2168 74.726,40.218 74.55,40.218 C75.2747901,39.9093015 75.7449878,39.1973913 75.7444,38.4096 C75.746,37.3252 74.8712,36.4436 73.7916,36.4424 C72.7144,36.4408 71.8344,37.3228 71.8324,38.4056 C71.8305735,39.1945982 72.3016423,39.9078994 73.028,40.216 C72.8392,40.2156 72.6508,40.216 72.462,40.2204 C71.8528,40.2344 71.3488,40.6388 71.218,41.232 C71.1768,41.4196 71.1868,41.5904 71.1784,41.7848 C71.1732,41.906 71.1772,42.1256 71.1772,42.1256 L71.0648,42.1256 C71.0648,41.854 71.0664,41.7356 71.0644,41.53 C71.0572,40.7592 70.4916,40.2064 69.726,40.2044 C69.5624,40.204 69.3988,40.206 69.2356,40.2064 C69.9484969,39.8930361 70.4087861,39.1879291 70.4088,38.4092 C70.4092,37.3256 69.532,36.4432 68.454,36.442 C67.3748,36.4412 66.5,37.3196 66.4976,38.406 C66.4946195,39.1911089 66.9608022,39.9021122 67.682,40.2124 C67.5148,40.2136 67.3476,40.2128 67.18,40.2144 C67.0264,40.2156 66.8656,40.2424 66.7204,40.292 C66.1832,40.4748 65.848,40.9604 65.8412,41.5376 C65.8388,41.7496 65.8408,41.9624 65.8408,42.1684 L65.854,42.3572 C64.2896,42.1208 63.0852,40.7692 63.0852,39.1372 L63.0852,38.594 C63.0852,36.816 64.514,35.368 66.282,35.3364 C69.7592,35.3384 72.7668,35.3336 76.2772,35.3336 L76.3964,35.3336 C76.398,35.3336 76.3996,35.292 76.3996,35.2748 C76.3996,34.6408 76.4008,34.0096 76.3984,33.3756 C76.3980064,33.2859126 76.3883552,33.1965054 76.3696,33.1088 C76.2352,32.4872 75.7192,32.0716 75.0772,32.0676 C74.9016,32.0664 74.7256,32.0676 74.5496,32.0676 C75.2743901,31.7589015 75.7445878,31.0469913 75.744,30.2592 C75.7456,29.1748 74.8708,28.2932 73.7912,28.292 C72.714,28.2904 71.834,29.1724 71.832,30.2552 C71.8301735,31.0441982 72.3012423,31.7574994 73.0276,32.0656 C72.8388,32.0652 72.6504,32.0656 72.4616,32.07 C71.8524,32.084 71.3484,32.4884 71.2176,33.0816 C71.1764,33.2692 71.1864,33.4404 71.178,33.6344 C71.1728,33.7556 71.1768,33.9752 71.1768,33.9752 L71.0644,33.9752 C71.0644,33.7036 71.066,33.5856 71.064,33.3796 C71.0568,32.6088 70.4912,32.056 69.7256,32.054 C69.562,32.0536 69.3984,32.056 69.2352,32.056 C69.9480969,31.7426361 70.4083861,31.0375291 70.4084,30.2588 C70.4088,29.1752 69.5316,28.2928 68.4536,28.2915995 C67.3744,28.2908 66.4996,29.1692 66.4972,30.2552 C66.4942195,31.0403089 66.9604022,31.7513122 67.6816,32.0616 C67.5144,32.0628 67.3472,32.0624 67.1796,32.0636 C67.026,32.0648 66.8652,32.0916 66.72,32.1412 C66.1828,32.324 65.8476,32.8096 65.8408,33.3868 C65.8384,33.5988 65.8404,33.8116 65.8404,34.0176 L65.8584,34.2752 C63.6916,34.516 62,36.3604 62,38.594 L62,39.1372 C62,41.3508 63.6616,43.18 65.8004,43.4472 L65.798,43.484 L65.798,43.4868 C69.5952,43.4892 72.6484,43.484 76.2776,43.484 L76.3968,43.484 C76.3984,43.484 76.4,43.4424 76.4,43.4252 C76.4,42.7912 76.4012,42.16 76.3988,41.5256 C76.3984045,41.4360449 76.3887532,41.3467705 76.37,41.2592 L76.37,41.2592 Z" id="路径"></path>
                </g>
            </g>
        </g>
    </g>
</svg>