<?xml version="1.0" encoding="UTF-8"?>
<svg width="68px" height="26px" viewBox="0 0 68 26" version="1.1" xmlns="http://www.w3.org/2000/svg" xmlns:xlink="http://www.w3.org/1999/xlink">
    <title>编组</title>
    <defs>
        <filter id="filter-1">
            <feColorMatrix in="SourceGraphic" type="matrix" values="0 0 0 0 0.043137 0 0 0 0 0.823529 0 0 0 0 0.584314 0 0 0 1.000000 0"></feColorMatrix>
        </filter>
        <rect id="path-2" x="0" y="0" width="68" height="26" rx="3"></rect>
    </defs>
    <g id="页面-1" stroke="none" stroke-width="1" fill="none" fill-rule="evenodd">
        <g id="1.1.人员弹窗各弹窗" transform="translate(-423.000000, -579.000000)">
            <g id="图标详情备份" transform="translate(410.000000, 84.000000)">
                <g id="编组" transform="translate(4.000000, 291.000000)" filter="url(#filter-1)">
                    <g transform="translate(9.000000, 204.000000)" id="编组-2">
                        <mask id="mask-3" fill="white">
                            <use xlink:href="#path-2"></use>
                        </mask>
                        <rect stroke="#0091FF" x="0.5" y="0.5" width="67" height="25" rx="3"></rect>
                        <polygon id="路径-2" fill="#0091FF" fill-rule="nonzero" opacity="0.153459821" mask="url(#mask-3)" points="-23.2928932 31.7071068 16.7071068 -8.29289322 16 -9 -24 31"></polygon>
                        <polygon id="路径-2复制" fill="#0091FF" fill-rule="nonzero" opacity="0.153459821" mask="url(#mask-3)" points="-17.2928932 31.7071068 22.7071068 -8.29289322 22 -9 -18 31"></polygon>
                        <polygon id="路径-2复制-2" fill="#0091FF" fill-rule="nonzero" opacity="0.153459821" mask="url(#mask-3)" points="-11.2928932 31.7071068 28.7071068 -8.29289322 28 -9 -12 31"></polygon>
                        <polygon id="路径-2复制-3" fill="#0091FF" fill-rule="nonzero" opacity="0.153459821" mask="url(#mask-3)" points="-5.29289322 31.7071068 34.7071068 -8.29289322 34 -9 -6 31"></polygon>
                        <polygon id="路径-2复制-4" fill="#0091FF" fill-rule="nonzero" opacity="0.153459821" mask="url(#mask-3)" points="0.707106781 31.7071068 40.7071068 -8.29289322 40 -9 0 31"></polygon>
                        <polygon id="路径-2复制-5" fill="#0091FF" fill-rule="nonzero" opacity="0.153459821" mask="url(#mask-3)" points="6.70710678 31.7071068 46.7071068 -8.29289322 46 -9 6 31"></polygon>
                        <polygon id="路径-2复制-6" fill="#0091FF" fill-rule="nonzero" opacity="0.153459821" mask="url(#mask-3)" points="12.7071068 31.7071068 52.7071068 -8.29289322 52 -9 12 31"></polygon>
                        <polygon id="路径-2复制-7" fill="#0091FF" fill-rule="nonzero" opacity="0.153459821" mask="url(#mask-3)" points="18.7071068 31.7071068 58.7071068 -8.29289322 58 -9 18 31"></polygon>
                        <polygon id="路径-2复制-8" fill="#0091FF" fill-rule="nonzero" opacity="0.153459821" mask="url(#mask-3)" points="24.7071068 31.7071068 64.7071068 -8.29289322 64 -9 24 31"></polygon>
                        <polygon id="路径-2复制-9" fill="#0091FF" fill-rule="nonzero" opacity="0.153459821" mask="url(#mask-3)" points="30.7071068 31.7071068 70.7071068 -8.29289322 70 -9 30 31"></polygon>
                        <polygon id="路径-2复制-10" fill="#0091FF" fill-rule="nonzero" opacity="0.153459821" mask="url(#mask-3)" points="36.7071068 31.7071068 76.7071068 -8.29289322 76 -9 36 31"></polygon>
                        <polygon id="路径-2复制-11" fill="#0091FF" fill-rule="nonzero" opacity="0.153459821" mask="url(#mask-3)" points="42.7071068 31.7071068 82.7071068 -8.29289322 82 -9 42 31"></polygon>
                        <polygon id="路径-2复制-12" fill="#0091FF" fill-rule="nonzero" opacity="0.153459821" mask="url(#mask-3)" points="48.7071068 31.7071068 88.7071068 -8.29289322 88 -9 48 31"></polygon>
                        <polygon id="路径-2复制-13" fill="#0091FF" fill-rule="nonzero" opacity="0.153459821" mask="url(#mask-3)" points="54.7071068 31.7071068 94.7071068 -8.29289322 94 -9 54 31"></polygon>
                        <polygon id="路径-2复制-14" fill="#0091FF" fill-rule="nonzero" opacity="0.153459821" mask="url(#mask-3)" points="60.7071068 31.7071068 100.707107 -8.29289322 100 -9 60 31"></polygon>
                        <polygon id="路径-2复制-15" fill="#0091FF" fill-rule="nonzero" opacity="0.153459821" mask="url(#mask-3)" points="66.7071068 31.7071068 106.707107 -8.29289322 106 -9 66 31"></polygon>
                    </g>
                </g>
            </g>
        </g>
    </g>
</svg>