<?xml version="1.0" encoding="UTF-8"?>
<svg width="14px" height="14px" viewBox="0 0 14 14" version="1.1" xmlns="http://www.w3.org/2000/svg" xmlns:xlink="http://www.w3.org/1999/xlink">
    <title>形状</title>
    <g id="页面-1" stroke="none" stroke-width="1" fill="none" fill-rule="evenodd">
        <g id="1.1.人员弹窗各弹窗" transform="translate(-2046.000000, -171.000000)" fill="#FFFFFF" fill-rule="nonzero">
            <g id="编组-16" transform="translate(2012.000000, 74.000000)">
                <g id="按钮" transform="translate(34.000000, 40.000000)">
                    <path d="M10.5841121,64.4415888 L3.37616822,64.4415888 C3.0198598,64.4357477 2.73364486,64.1647196 2.73364486,63.8317757 L2.73364486,63.8224299 C2.73364486,63.4836449 3.02219626,63.203271 3.37616822,63.203271 L10.5841121,63.203271 C10.7526307,63.2007731 10.9151419,63.2658111 11.0354078,63.3838824 C11.1556738,63.5019537 11.2236934,63.6632398 11.2242991,63.8317757 C11.2242991,64.1647196 10.9392523,64.4345794 10.5841121,64.442757 L10.5841121,64.4415888 Z M10.5841121,67.478972 L3.37616822,67.478972 C3.0198598,67.4719626 2.73364486,67.2021028 2.73364486,66.8691589 L2.73364486,66.8598131 C2.73364486,66.5186916 3.02219626,66.2406542 3.37616822,66.2406542 L10.5841121,66.2406542 C10.7526307,66.2381563 10.9151419,66.3031943 11.0354078,66.4212656 C11.1556738,66.5393369 11.2236934,66.7006229 11.2242991,66.8691589 C11.2242991,67.2009346 10.9392523,67.4719626 10.5841121,67.478972 L10.5841121,67.478972 Z M2.73364486,60.7850467 C2.73364486,60.4462617 3.02219626,60.1658878 3.37616822,60.1658878 L7.92056075,60.1658878 C8.08949736,60.1633916 8.25242507,60.2285163 8.37309494,60.3467728 C8.49376481,60.4650292 8.56216737,60.6266082 8.5630841,60.7955607 C8.5630841,61.1285047 8.27686915,61.3983645 7.92056075,61.4053738 L3.37616822,61.4053738 C3.0198598,61.3983645 2.73364486,61.1285047 2.73364486,60.7955607 L2.73364486,60.7850467 Z M12.7219626,57 L1.27803739,57 C0.575934575,57 0,57.5560748 0,58.2348131 L0,69.7675234 C0,70.4474299 0.574766355,71.0035047 1.27803739,71.0035047 L12.7219626,71.0035047 C13.4252336,71.0035047 14,70.4474299 14,69.7675234 L14,58.2348131 C14,57.5560748 13.4252336,57 12.7219626,57 Z" id="形状"></path>
                </g>
            </g>
        </g>
    </g>
</svg>