<?xml version="1.0" encoding="UTF-8"?>
<svg width="14px" height="14px" viewBox="0 0 14 14" version="1.1" xmlns="http://www.w3.org/2000/svg" xmlns:xlink="http://www.w3.org/1999/xlink">
    <title>形状</title>
    <g id="页面-1" stroke="none" stroke-width="1" fill="none" fill-rule="evenodd">
        <g id="1.1.人员弹窗各弹窗" transform="translate(-2047.000000, -288.000000)" fill="#56E9FF" fill-rule="nonzero">
            <g id="编组-16" transform="translate(2012.000000, 74.000000)">
                <g id="按钮备份" transform="translate(34.000000, 157.000000)">
                    <path d="M11.5841121,64.4415888 L4.37616822,64.4415888 C4.0198598,64.4357477 3.73364486,64.1647196 3.73364486,63.8317757 L3.73364486,63.8224299 C3.73364486,63.4836449 4.02219626,63.203271 4.37616822,63.203271 L11.5841121,63.203271 C11.7526307,63.2007731 11.9151419,63.2658111 12.0354078,63.3838824 C12.1556738,63.5019537 12.2236934,63.6632398 12.2242991,63.8317757 C12.2242991,64.1647196 11.9392523,64.4345794 11.5841121,64.442757 L11.5841121,64.4415888 Z M11.5841121,67.478972 L4.37616822,67.478972 C4.0198598,67.4719626 3.73364486,67.2021028 3.73364486,66.8691589 L3.73364486,66.8598131 C3.73364486,66.5186916 4.02219626,66.2406542 4.37616822,66.2406542 L11.5841121,66.2406542 C11.7526307,66.2381563 11.9151419,66.3031943 12.0354078,66.4212656 C12.1556738,66.5393369 12.2236934,66.7006229 12.2242991,66.8691589 C12.2242991,67.2009346 11.9392523,67.4719626 11.5841121,67.478972 L11.5841121,67.478972 Z M3.73364486,60.7850467 C3.73364486,60.4462617 4.02219626,60.1658878 4.37616822,60.1658878 L8.92056075,60.1658878 C9.08949736,60.1633916 9.25242507,60.2285163 9.37309494,60.3467728 C9.49376481,60.4650292 9.56216737,60.6266082 9.5630841,60.7955607 C9.5630841,61.1285047 9.27686915,61.3983645 8.92056075,61.4053738 L4.37616822,61.4053738 C4.0198598,61.3983645 3.73364486,61.1285047 3.73364486,60.7955607 L3.73364486,60.7850467 Z M13.7219626,57 L2.27803739,57 C1.57593457,57 1,57.5560748 1,58.2348131 L1,69.7675234 C1,70.4474299 1.57476635,71.0035047 2.27803739,71.0035047 L13.7219626,71.0035047 C14.4252336,71.0035047 15,70.4474299 15,69.7675234 L15,58.2348131 C15,57.5560748 14.4252336,57 13.7219626,57 Z" id="形状"></path>
                </g>
            </g>
        </g>
    </g>
</svg>