<?xml version="1.0" encoding="UTF-8"?>
<svg width="48px" height="48px" viewBox="0 0 48 48" version="1.1" xmlns="http://www.w3.org/2000/svg" xmlns:xlink="http://www.w3.org/1999/xlink">
    <title>形状</title>
    <defs>
        <path d="M171,114 C159.954305,114 151,105.045695 151,94 C151,82.954305 159.954305,74 171,74 C182.045695,74 191,82.954305 191,94 C191,105.045695 182.045695,114 171,114 Z M179.105703,93.1714453 C178.171484,92.6 167.211445,85.9142969 166.662891,85.5714453 C166.375069,85.3926561 166.011374,85.3900702 165.721039,85.5647486 C165.430705,85.739427 165.262615,86.0619588 165.285742,86.4 L165.285742,101.628555 C165.261548,101.960638 165.424449,102.278523 165.708144,102.452829 C165.991838,102.627134 166.349028,102.6288 166.634336,102.457148 C167.431484,101.971445 178.434336,95.2571484 179.105742,94.8285547 C179.390016,94.6489945 179.56239,94.3362346 179.56239,94 C179.56239,93.6637654 179.390016,93.3510055 179.105742,93.1714453 L179.105703,93.1714453 Z" id="path-1"></path>
        <filter x="-17.5%" y="-12.5%" width="135.0%" height="135.0%" filterUnits="objectBoundingBox" id="filter-2">
            <feOffset dx="0" dy="2" in="SourceAlpha" result="shadowOffsetOuter1"></feOffset>
            <feGaussianBlur stdDeviation="2" in="shadowOffsetOuter1" result="shadowBlurOuter1"></feGaussianBlur>
            <feColorMatrix values="0 0 0 0 0   0 0 0 0 0   0 0 0 0 0  0 0 0 0.328452797 0" type="matrix" in="shadowBlurOuter1"></feColorMatrix>
        </filter>
    </defs>
    <g id="页面-1" stroke="none" stroke-width="1" fill="none" fill-rule="evenodd">
        <g id="弹窗" transform="translate(-200.000000, -229.000000)" fill-rule="nonzero">
            <g id="图标详情" transform="translate(40.000000, 100.000000)">
                <g id="形状" transform="translate(13.000000, 57.000000)">
                    <use fill="black" fill-opacity="1" filter="url(#filter-2)" xlink:href="#path-1"></use>
                    <use fill="#FFFFFF" xlink:href="#path-1"></use>
                </g>
            </g>
        </g>
    </g>
</svg>