<?xml version="1.0" encoding="UTF-8"?>
<svg width="16px" height="15px" viewBox="0 0 16 15" version="1.1" xmlns="http://www.w3.org/2000/svg" xmlns:xlink="http://www.w3.org/1999/xlink">
    <title>形状</title>
    <g id="页面-1" stroke="none" stroke-width="1" fill="none" fill-rule="evenodd">
        <g id="1.1.人员弹窗各弹窗" transform="translate(-2077.000000, -116.000000)" fill="#FFFFFF" fill-rule="nonzero">
            <g id="编组-16" transform="translate(2012.000000, 74.000000)">
                <g id="按钮" transform="translate(34.000000, 40.000000)">
                    <path d="M45.0680985,2 L32.9319015,2 C31.6322444,2 31,2.64092925 31,3.92296644 L31,11.6147964 C31,12.8969051 31.5931625,13.5028268 32.8604211,13.5028268 L34.7209136,13.5028268 L34.4920333,15.4607472 C34.4919922,15.6972733 34.6228913,15.914386 34.8320835,16.0247635 C34.9254141,16.075256 35.0298512,16.10173 35.1359647,16.10173 C35.260841,16.10173 35.3858245,16.0657397 35.4926878,15.994009 L39.1860278,13.5028268 L45.1395611,13.5028268 C46.4276562,13.5028268 47,12.896923 47,11.6147964 L47,3.92296644 C47,2.64092925 46.3560864,2 45.0680985,2 Z M35.2829999,8.6817401 C34.7708784,8.6817401 34.3546658,8.26536662 34.3546658,7.75476406 C34.3546658,7.24421511 34.7708963,6.82609036 35.2829999,6.82609036 C35.7950679,6.82609036 36.211352,7.24253532 36.211352,7.75476406 C36.2112626,8.26706428 35.7933345,8.6817401 35.2829999,8.6817401 Z M38.9979628,8.6817401 C38.4831429,8.6817401 38.0648931,8.26536662 38.0648931,7.75476406 C38.0648931,7.24421511 38.4832323,6.82609036 38.9979628,6.82609036 C39.5127291,6.82609036 39.9309789,7.24253532 39.9309789,7.75476406 C39.9309789,8.26706428 39.5109063,8.6817401 38.9979807,8.6817401 L38.9979628,8.6817401 Z M42.7186977,8.6817401 C42.2038599,8.6817401 41.7870754,8.26536662 41.7870754,7.75476406 C41.7870754,7.24421511 42.2038599,6.82609036 42.7186798,6.82609036 C43.2332853,6.82609036 43.6516245,7.24253532 43.6516245,7.75476406 C43.6516245,8.26706428 43.2333747,8.6817401 42.7186798,8.6817401 L42.7186977,8.6817401 Z" id="形状"></path>
                </g>
            </g>
        </g>
    </g>
</svg>