<?xml version="1.0" encoding="UTF-8"?>
<svg width="14px" height="15px" viewBox="0 0 14 15" version="1.1" xmlns="http://www.w3.org/2000/svg" xmlns:xlink="http://www.w3.org/1999/xlink">
    <title>形状结合</title>
    <g id="页面-1" stroke="none" stroke-width="1" fill="none" fill-rule="evenodd">
        <g id="1.1.人员弹窗各弹窗" transform="translate(-2046.000000, -232.000000)" fill="#56E9FF" fill-rule="nonzero">
            <g id="编组-16" transform="translate(2012.000000, 74.000000)">
                <g id="按钮备份" transform="translate(34.000000, 157.000000)">
                    <path d="M3.11425365,1 C4.81279461,1 6.19079686,2.37800224 6.19079686,4.07654321 L6.19079686,4.07654321 L6.19079686,4.10482604 C6.19079686,5.54410774 5.20875421,6.75241302 3.87946128,7.0996633 C4.5016835,9.13602694 5.98653199,10.7890011 7.9003367,11.643771 C8.2365881,10.2971942 9.45432099,9.29786756 10.9046016,9.29786756 C12.6141414,9.29786756 14,10.6837262 14,12.393266 C14,12.6855219 13.959147,12.9667789 13.8837262,13.2338945 C13.8695847,13.2920314 13.847587,13.3470258 13.8193042,13.3973064 C13.4453423,14.4799102 12.4852974,15.2891134 11.3162738,15.4430976 C11.2675645,15.4588103 11.2141414,15.4682379 11.1607183,15.4698092 C11.1167228,15.4698092 11.071156,15.4729517 11.0255892,15.4729517 C4.9369248,15.4729517 0,10.5533109 0,4.46464646 C0,4.38922559 0.00157126824,4.31380471 0.00314253648,4.23838384 C0.00157126824,4.19438833 0,4.15039282 0,4.10639731 C0,2.81795735 0.787205387,1.71492705 1.90594837,1.24668911 C2.27676768,1.08799102 2.68529742,1 3.11425365,1 Z M10.8873176,2.84781145 C11.1387205,2.59640853 11.5472503,2.59640853 11.7970819,2.84781145 L11.7970819,2.84781145 L13.5128294,4.56289282 C13.6550861,4.68117632 13.7454545,4.85951093 13.7454545,5.05858586 C13.7454545,5.25493884 13.6578371,5.43033981 13.5198261,5.54835124 L11.7970819,7.27093154 C11.545679,7.52233446 11.1387205,7.52233446 10.8873176,7.27093154 C10.6359147,7.01952862 10.6359147,6.61099888 10.8873176,6.36116723 L10.8873176,6.36116723 L11.546,5.702 L8.72525253,5.70280584 C8.4009999,5.70280584 8.1338843,5.46386918 8.0879976,5.15362929 L8.08103255,5.05858586 C8.08103255,4.70347924 8.36857464,4.41593715 8.72368126,4.41436588 L8.72368126,4.41436588 L11.544,4.414 L10.8873176,3.75757576 C10.661055,3.53131313 10.6384287,3.17905051 10.8194388,2.92758788 Z" id="形状结合"></path>
                </g>
            </g>
        </g>
    </g>
</svg>