<?xml version="1.0" encoding="UTF-8"?>
<svg width="14px" height="14px" viewBox="0 0 14 14" version="1.1" xmlns="http://www.w3.org/2000/svg" xmlns:xlink="http://www.w3.org/1999/xlink">
    <title>形状</title>
    <g id="页面-1" stroke="none" stroke-width="1" fill="none" fill-rule="evenodd">
        <g id="1.1.人员弹窗各弹窗" transform="translate(-2046.000000, -143.000000)" fill="#FFFFFF" fill-rule="nonzero">
            <g id="编组-16" transform="translate(2012.000000, 74.000000)">
                <g id="按钮" transform="translate(34.000000, 40.000000)">
                    <path d="M10.8902393,29.1410785 L10.9091494,29.1601341 L10.9091494,29.1601341 C11.1125055,29.373818 11.1152692,29.7086718 10.9152588,29.9257013 L10.9091494,29.9322471 L9.72406939,31.159802 L11.9254933,31.159802 C13.092536,31.1817668 14.0207299,32.145308 13.9996379,33.3122052 L13.9996379,40.8469983 C14.0210208,42.0141865 13.0926815,42.9778731 11.9254933,42.9998379 L2.07450667,42.9998379 C0.907318505,42.9778731 -0.0210208366,42.014041 0.00036209714,40.8469983 L0.00036209714,33.3123507 C-0.0210208366,32.1451625 0.907318505,31.1814759 2.07450667,31.1595111 L4.27927624,31.1595111 L3.09463262,29.9319562 C2.88909462,29.7157994 2.88909462,29.3764363 3.09463262,29.1602795 C3.29057011,28.954887 3.61611437,28.947323 3.82136144,29.1432605 L3.83838051,29.1602795 L3.83838051,29.1602795 L5.76851757,31.1596566 L8.23322797,31.1596566 L10.1635105,29.1602795 C10.3588661,28.9543052 10.6842649,28.9457229 10.8902393,29.1410785 Z M6.10889897,34.7924078 C5.64429291,34.8023193 5.27496455,35.1857575 5.28252858,35.6503636 L5.28252858,38.5091309 C5.28310952,38.6621167 5.32207099,38.812511 5.39584358,38.9465356 C5.62232813,39.3458291 6.12955459,39.4859091 6.52899361,39.2595701 L6.54644907,39.2493877 L6.54644907,39.2493877 L8.78249299,37.8368049 C8.89619853,37.7652157 8.9907583,37.6670113 9.05799828,37.5506809 C9.30266559,37.147169 9.18876874,36.622487 8.79863929,36.3568732 L6.54659453,34.9271259 C6.41800021,34.8383235 6.26517136,34.7912914 6.10889897,34.7924078 Z" id="形状"></path>
                </g>
            </g>
        </g>
    </g>
</svg>