<?xml version="1.0" encoding="UTF-8"?>
<svg width="16px" height="10px" viewBox="0 0 16 10" version="1.1" xmlns="http://www.w3.org/2000/svg" xmlns:xlink="http://www.w3.org/1999/xlink">
    <title>形状结合</title>
    <g id="页面-1" stroke="none" stroke-width="1" fill="none" fill-rule="evenodd">
        <g id="1.1.人员弹窗各弹窗" transform="translate(-2107.000000, -288.000000)" fill="#56E9FF" fill-rule="nonzero">
            <g id="编组-16" transform="translate(2012.000000, 74.000000)">
                <g id="按钮备份" transform="translate(34.000000, 157.000000)">
                    <path d="M68.9840625,57 C72.4425487,57 75.5228914,58.7964063 76.927935,61.538125 C76.9815217,61.68 76.9815217,61.774375 76.927935,61.91625 C75.5228914,64.6575 72.4427274,66.454375 68.9840625,66.454375 C65.5253976,66.454375 62.4452336,64.6579688 61.04019,61.91625 C60.9866033,61.774375 60.9866033,61.68 61.04019,61.538125 C62.4452336,58.7964063 65.5255763,57 68.9840625,57 Z M68.9840625,59.0782813 C67.3185876,59.0782813 65.9558775,60.2703125 65.9558775,61.7271875 C65.9558775,63.1840625 67.3185876,64.3760938 68.9840625,64.3760938 C70.6495374,64.3760938 72.0122475,63.1840625 72.0122475,61.7271875 C72.0122475,60.2703125 70.6495374,59.0782813 68.9840625,59.0782813 Z M68.9840625,59.8365625 C70.1726157,59.8365625 71.1453931,60.6873438 71.1453931,61.7271875 C71.1453931,62.7671875 70.1726157,63.6178125 68.9840625,63.6178125 C67.7955093,63.6178125 66.8227319,62.7671875 66.8227319,61.7271875 C66.8227319,60.6871875 67.7955093,59.8365625 68.9840625,59.8365625 Z" id="形状结合"></path>
                </g>
            </g>
        </g>
    </g>
</svg>