<?xml version="1.0" encoding="UTF-8"?>
<svg width="150px" height="150px" viewBox="0 0 150 150" version="1.1" xmlns="http://www.w3.org/2000/svg" xmlns:xlink="http://www.w3.org/1999/xlink">
    <title>画板备份</title>
    <g id="画板备份" stroke="none" stroke-width="1" fill="none" fill-rule="evenodd">
        <g id="默认头像-(1)" transform="translate(-10.000000, 0.000000)">
            <rect id="矩形" fill="#FFFFFF" x="10" y="0" width="150" height="150"></rect>
            <g id="编组" transform="translate(0.000000, 11.000000)" fill-rule="nonzero">
                <path d="M63.7316298,57.8970994 L63.7316298,79.3404696 C63.7316298,79.3404696 64.4845304,93.3024862 55.1541632,95.418232 C55.1541632,95.418232 54.8493094,117.938536 85.175,117.938536 L85.175,57.8970994 L63.7316298,57.8970994 Z M106.61837,57.8970994 L106.61837,79.3404696 C106.61837,79.3404696 105.86547,93.3024862 115.195826,95.418232 C115.195826,95.418232 115.49116,117.938536 85.175,117.938536 L85.175,57.8970994 L106.61837,57.8970994 Z" id="形状" fill="#EDE7E6"></path>
                <path d="M62.5403315,72.1926796 C62.5403315,72.1926796 80.886326,99.4781768 113.051381,94.3508287 C102.634669,91.253453 108.286188,66.4744475 108.286188,66.4744475 L62.5403315,72.1926796 Z" id="路径" fill="#E3DCDB"></path>
                <path d="M84,153 C54.8905765,152.997131 -8.65682541,156.969115 2,116.938536 C14.9933704,105.846957 41.2460974,94.3815118 58.2986188,93.3508287 C62.5318566,105.064558 73.7208496,112.810784 86.175,112.649862 C104.206492,112.649862 111.907044,93.3508287 111.907044,93.3508287 C111.907044,93.3508287 151.475,106.119602 167,119.414492 C180.759193,137.880577 153.092526,149.075746 84,153 Z" id="路径" fill="#586ABA"></path>
                <path d="M109.239227,39.7893646 C109.239227,39.7893646 116.034392,39.3223757 118.69337,44.4116022 C121.352348,49.5008287 118.388398,62.3382597 108.762707,66.4744475 L109.239227,39.7893646 Z M61.4824586,66.4744475 C51.856768,62.3382597 48.9023481,49.4912983 51.561326,44.4116022 C52.9297986,41.5073917 55.8908681,39.6918181 59.0998619,39.7893646 L61.4824586,66.4744475 Z" id="形状" fill="#EFE7E6"></path>
                <path d="M84.1075967,17.4433702 C90.5406077,17.4433702 108.762707,19.5877072 108.762707,19.5877072 C108.762707,19.5877072 110.907044,44.1733425 110.907044,53.6084254 C110.907044,71.3635359 97.716989,85.7734807 84.1075967,85.7734807 C70.4982044,85.7734807 57.2986188,71.3635359 57.2986188,53.6084254 C57.2986188,42.4578729 59.4429558,19.5877072 59.4429558,19.5877072 C59.4429558,19.5877072 79.0469613,17.4433702 84.1075967,17.4433702 Z" id="路径" fill="#F7EDEB"></path>
                <path d="M59.4429558,42.8867403 C59.4429558,42.8867403 47.9493094,30.6020718 59.4429558,10.7216851 C65.2374309,0.714779006 77.3696133,-7.10542736e-15 83.030663,-7.10542736e-15 C103.206492,-7.10542736e-15 115.758011,6.60455801 117.340055,23.5877072 C118.817265,39.5415746 114.01395,45.3074586 113.051381,45.0310773 C113.051381,45.0310773 106.61837,34.7191989 106.61837,27.8763812 C106.61837,27.8763812 83.030663,36.7110497 68.0203039,19.2990331 C61.1584254,21.0335635 59.4429558,38.5980663 59.4429558,42.8867403 Z" id="路径" fill="#586ABA"></path>
            </g>
        </g>
    </g>
</svg>