<?xml version="1.0" encoding="UTF-8"?>
<svg width="18px" height="14px" viewBox="0 0 18 14" version="1.1" xmlns="http://www.w3.org/2000/svg" xmlns:xlink="http://www.w3.org/1999/xlink">
    <title>形状</title>
    <g id="页面-1" stroke="none" stroke-width="1" fill="none" fill-rule="evenodd">
        <g id="1.1.人员弹窗各弹窗" transform="translate(-1455.000000, -657.000000)" fill="#FFFFFF" fill-rule="nonzero">
            <g id="图标详情备份-3" transform="translate(1176.000000, 84.000000)">
                <g id="按钮" transform="translate(15.000000, 543.000000)">
                    <g id="编组备份" transform="translate(89.000000, 30.000000)">
                        <path d="M183.367262,5.57854406 C181.875011,4.07662835 179.458987,4.07662835 177.966736,5.57854406 C176.687664,6.86590038 176.545545,8.79693487 177.39826,10.2273308 L175.266473,12.3729246 C174.911176,12.7305236 174.911176,13.3742018 175.266473,13.7318008 C175.621771,14.0893997 176.261307,14.0893997 176.616605,13.7318008 L178.748391,11.5862069 C180.240642,12.4444444 182.15925,12.3014049 183.367262,11.0140485 C184.859512,9.51213282 184.859512,7.08045977 183.367262,5.57854406 Z M178.677332,10.2988506 C177.540379,9.15453384 177.540379,7.36653895 178.677332,6.22222222 C179.814284,5.07790549 181.590773,5.07790549 182.727726,6.22222222 C183.864679,7.36653895 183.864679,9.15453384 182.727726,10.2988506 C181.590773,11.4431673 179.743225,11.4431673 178.677332,10.2988506 Z M186.067525,0 C183.509381,0 181.377594,1.35887612 180.240642,3.43295019 C181.661833,3.2899106 183.154083,3.71902937 184.219976,4.79182631 C186.067525,6.651341 186.067525,9.72669221 184.219976,11.5862069 C183.793619,12.0153257 183.225143,12.3729246 182.727726,12.587484 C183.72256,13.1596424 184.859512,13.5172414 186.138584,13.5172414 C189.833681,13.5172414 192.818182,10.51341 192.818182,6.79438059 C192.818182,3.07535121 189.762621,0 186.067525,0 Z" id="形状"></path>
                    </g>
                </g>
            </g>
        </g>
    </g>
</svg>