<?xml version="1.0" encoding="UTF-8"?>
<svg width="18px" height="14px" viewBox="0 0 18 14" version="1.1" xmlns="http://www.w3.org/2000/svg" xmlns:xlink="http://www.w3.org/1999/xlink">
    <title>形状</title>
    <g id="页面-1" stroke="none" stroke-width="1" fill="none" fill-rule="evenodd">
        <g id="1.1.人员弹窗各弹窗" transform="translate(-2139.000000, -261.000000)" fill="#56E9FF" fill-rule="nonzero">
            <g id="编组-16" transform="translate(2012.000000, 74.000000)">
                <g id="按钮备份" transform="translate(34.000000, 157.000000)">
                    <path d="M101.367262,35.5785441 C99.8750113,34.0766284 97.4589867,34.0766284 95.9667362,35.5785441 C94.6876643,36.8659004 94.5455452,38.7969349 95.3982598,40.2273308 L93.2664733,42.3729246 C92.9111756,42.7305236 92.9111756,43.3742018 93.2664733,43.7318008 C93.6217711,44.0893997 94.261307,44.0893997 94.6166047,43.7318008 L96.7483912,41.5862069 C98.2406417,42.4444444 100.15925,42.3014049 101.367262,41.0140485 C102.859512,39.5121328 102.859512,37.0804598 101.367262,35.5785441 Z M96.6773316,40.2988506 C95.5403789,39.1545338 95.5403789,37.366539 96.6773316,36.2222222 C97.8142844,35.0779055 99.5907731,35.0779055 100.727726,36.2222222 C101.864679,37.366539 101.864679,39.1545338 100.727726,40.2988506 C99.5907731,41.4431673 97.7432249,41.4431673 96.6773316,40.2988506 Z M104.067525,30 C101.509381,30 99.3775945,31.3588761 98.2406417,33.4329502 C99.6618327,33.2899106 101.154083,33.7190294 102.219976,34.7918263 C104.067525,36.651341 104.067525,39.7266922 102.219976,41.5862069 C101.793619,42.0153257 101.225143,42.3729246 100.727726,42.587484 C101.72256,43.1596424 102.859512,43.5172414 104.138584,43.5172414 C107.833681,43.5172414 110.818182,40.51341 110.818182,36.7943806 C110.818182,33.0753512 107.762621,30 104.067525,30 Z" id="形状"></path>
                </g>
            </g>
        </g>
    </g>
</svg>