<?xml version="1.0" encoding="UTF-8"?>
<svg width="14px" height="16px" viewBox="0 0 14 16" version="1.1" xmlns="http://www.w3.org/2000/svg" xmlns:xlink="http://www.w3.org/1999/xlink">
    <title>形状</title>
    <g id="页面-1" stroke="none" stroke-width="1" fill="none" fill-rule="evenodd">
        <g id="1.1.人员弹窗各弹窗" transform="translate(-2077.000000, -140.000000)" fill="#FFFFFF" fill-rule="nonzero">
            <g id="编组-16" transform="translate(2012.000000, 74.000000)">
                <g id="按钮" transform="translate(34.000000, 40.000000)">
                    <path d="M43.3269979,37.6057374 L32.7047976,37.6057374 C32.442521,37.6057374 32.213029,37.4090299 32.213029,37.1139688 L32.213029,36.9172614 C32.213029,36.6549849 32.4097365,36.4254929 32.7047976,36.4254929 L34.7702254,36.4254929 C35.0980711,36.4254929 35.3931322,36.1632163 35.3931322,35.8025861 C35.3931322,35.4419558 35.1308557,35.2452484 34.80301,35.2452484 L32.7047976,35.2452484 C31.7540451,35.2452484 31,35.9992935 31,36.950046 L31,37.1467534 C31,38.0975059 31.7540451,38.851551 32.7047976,38.851551 L43.2942133,38.851551 C43.5564899,38.851551 43.7859818,39.0482584 43.7859818,39.3433195 L43.7859818,39.5072424 C43.7859818,39.7695189 43.5892744,39.9990109 43.2942133,39.9990109 L34.5407334,39.9990109 C34.2128877,39.9990109 33.9178266,40.2612874 33.9178266,40.6219177 C33.9178266,40.9497634 34.1801032,41.2448245 34.5407334,41.2448245 L43.2942133,41.2448245 C44.2449658,41.2448245 44.9990109,40.4907794 44.9990109,39.5400269 L44.9990109,39.3433195 C45.0317955,38.3597824 44.2449658,37.6057374 43.3269979,37.6057374 Z M38.0158977,26 C35.8193316,26 34.0489649,27.7703667 34.0489649,29.9669328 C34.0489649,32.1634989 36.7372995,36.0320781 38.0158977,36.0320781 C39.6551262,36.0320781 41.9828306,32.1634989 41.9828306,29.9669328 C41.9828306,27.7703667 40.1796793,26 38.0158977,26 Z M38.0158977,31.9667915 C36.9012224,31.9667915 35.9832545,31.0488236 35.9832545,29.9341483 C35.9832545,28.8194729 36.9012224,27.901505 38.0158977,27.901505 C39.1305731,27.901505 40.048541,28.8194729 40.048541,29.9341483 C40.048541,31.0488236 39.1305731,31.9667915 38.0158977,31.9667915 Z" id="形状"></path>
                </g>
            </g>
        </g>
    </g>
</svg>