<?xml version="1.0" encoding="UTF-8"?>
<svg width="14px" height="14px" viewBox="0 0 14 14" version="1.1" xmlns="http://www.w3.org/2000/svg" xmlns:xlink="http://www.w3.org/1999/xlink">
    <title>形状备份 12</title>
    <g id="页面-1" stroke="none" stroke-width="1" fill="none" fill-rule="evenodd">
        <g id="1.1.人员弹窗各弹窗" transform="translate(-2139.000000, -231.000000)" fill="#56E9FF" fill-rule="nonzero">
            <g id="编组-16" transform="translate(2012.000000, 74.000000)">
                <g id="按钮备份" transform="translate(34.000000, 157.000000)">
                    <path d="M99.5840029,4.00097146 C98.908305,4.00097146 98.2715898,4.26085524 97.7940533,4.73351887 C97.3148926,5.2061825 97.0517603,5.83315213 97.0517603,6.5007286 C97.0517603,7.16830506 97.3148926,7.79527469 97.7940533,8.26793832 C98.2715898,8.74060195 98.908305,9.00048573 99.5840029,9.00048573 C100.259701,9.00048573 100.896416,8.74060195 101.373952,8.26793832 C101.853113,7.79527469 102.116245,7.16830506 102.116245,6.5007286 C102.116245,5.83315213 101.853113,5.2061825 101.373952,4.73351887 C100.894792,4.25923097 100.258076,4.00097146 99.5840029,4.00097146 Z M101.094577,6.65341032 C101.024734,7.35509653 100.449741,7.92359231 99.7383089,7.9918118 C98.7783631,8.08601967 97.975972,7.29499841 98.0718041,6.3464226 C98.1416479,5.64473639 98.7166407,5.07624061 99.4280726,5.00802112 C100.388018,4.91381325 101.190409,5.70483451 101.094577,6.65341032 L101.094577,6.65341032 Z M106.167184,6.5007286 C106.167184,2.53750091 102.577539,-0.595722945 98.4340171,0.0962176263 C95.8725376,0.523401594 93.4345029,3.00691599 93.0690413,5.54727997 C92.6321117,8.57492604 94.3132349,11.2744688 96.860096,12.421206 C95.7393472,12.7574307 94.7063091,13.2999381 93.8097101,14 L105.356671,14 C104.458448,13.2999381 103.427034,12.7574307 102.306285,12.4195817 C104.583517,11.3962894 106.167184,9.1320519 106.167184,6.5007286 Z M99.7675458,9.99616547 C97.6641114,10.1017433 95.9375085,8.39463166 96.0430863,6.31880995 C96.1340457,4.54023031 97.5975162,3.09625104 99.3972114,3.00529172 C101.500646,2.89971393 103.227249,4.60682553 103.121671,6.68264724 C103.030712,8.46122688 101.568865,9.90520615 99.7675458,9.99616547 Z" id="形状备份-12"></path>
                </g>
            </g>
        </g>
    </g>
</svg>