<?xml version="1.0" encoding="UTF-8"?>
<svg width="16px" height="16px" viewBox="0 0 16 16" version="1.1" xmlns="http://www.w3.org/2000/svg" xmlns:xlink="http://www.w3.org/1999/xlink">
    <title>Shape</title>
    <g id="PC端" stroke="none" stroke-width="1" fill="none" fill-rule="evenodd">
        <g id="分组" transform="translate(-330.000000, -79.000000)" fill="#FFFFFF" fill-rule="nonzero">
            <g id="搜索" transform="translate(100.000000, 70.000000)">
                <g id="搜索-3" transform="translate(227.000000, 3.000000)">
                    <path d="M18.8298707,20.8673515 L15.6391034,17.2514515 C16.546388,16.0723537 17.085369,14.5984815 17.085369,13.0031264 C17.085369,9.14068781 13.925144,6 10.0426845,6 C6.160225,6 3,9.14247432 3,13.0031264 C3,16.865565 6.160225,20.0062528 10.0426845,20.0062528 C11.8249148,20.0062528 13.4562305,19.3434569 14.6976833,18.2536847 L17.7986204,21.7677535 C17.9351623,21.9213935 18.1238056,22 18.3142456,22 C18.4741432,22 18.6358375,21.9446181 18.7669896,21.8302814 C19.0508529,21.5819562 19.0795985,21.1514069 18.8298707,20.8673515 Z M10.0426845,18.6413577 C6.91659494,18.6413577 4.37260483,16.111657 4.37260483,13.0031264 C4.37260483,9.89280929 6.91659494,7.36310853 10.0444811,7.36310853 C13.1723672,7.36310853 15.7163573,9.89280929 15.7163573,13.0031264 C15.7145607,16.111657 13.1705706,18.6413577 10.0426845,18.6413577 Z" id="Shape"></path>
                </g>
            </g>
        </g>
    </g>
</svg>