<?xml version="1.0" encoding="UTF-8"?>
<svg width="40px" height="41px" viewBox="0 0 40 41" version="1.1" xmlns="http://www.w3.org/2000/svg" xmlns:xlink="http://www.w3.org/1999/xlink">
    <title>集群终端备份</title>
    <defs>
        <ellipse id="path-1" cx="20" cy="33" rx="20" ry="7"></ellipse>
        <filter x="-7.5%" y="-21.4%" width="115.0%" height="142.9%" filterUnits="objectBoundingBox" id="filter-2">
            <feGaussianBlur stdDeviation="3" in="SourceAlpha" result="shadowBlurInner1"></feGaussianBlur>
            <feOffset dx="0" dy="0" in="shadowBlurInner1" result="shadowOffsetInner1"></feOffset>
            <feComposite in="shadowOffsetInner1" in2="SourceAlpha" operator="arithmetic" k2="-1" k3="1" result="shadowInnerInner1"></feComposite>
            <feColorMatrix values="0 0 0 0 0.541176471   0 0 0 0 0.560784314   0 0 0 0 0.6  0 0 0 1 0" type="matrix" in="shadowInnerInner1"></feColorMatrix>
        </filter>
        <filter x="0.0%" y="0.0%" width="100.0%" height="100.0%" filterUnits="objectBoundingBox" id="filter-3">
            <feGaussianBlur stdDeviation="0" in="SourceGraphic"></feGaussianBlur>
        </filter>
    </defs>
    <g id="页面-1" stroke="none" stroke-width="1" fill="none" fill-rule="evenodd">
        <g id="落点切图" transform="translate(-482.000000, -152.000000)">
            <g id="集群终端备份" transform="translate(482.000000, 153.000000)">
                <g id="椭圆形备份-39" fill="black" fill-opacity="1">
                    <use filter="url(#filter-2)" xlink:href="#path-1"></use>
                </g>
                <ellipse id="椭圆形备份-40" fill="#8A8F99" opacity="0.703760901" filter="url(#filter-3)" cx="20" cy="33" rx="10" ry="3.5"></ellipse>
                <path d="M20,0 C27.7319865,0 34,6.2680135 34,14 C34,18.4749597 31.9004511,22.4595434 28.6326771,25.0224273 L20,33.6 L11.3885149,25.0390152 C8.108629,22.4767549 6,18.4846258 6,14 C6,6.2680135 12.2680135,0 20,0 Z" id="形状结合" stroke="#FFFFFF" fill="#999999" fill-rule="nonzero"></path>
                <path d="M17.8877335,3 C18.2202087,3 18.4970711,3.25474661 18.5244096,3.58564 L18.5260619,3.6105 L18.7206997,8.10026 L19.2146193,8.10026 L19.2146193,9.23821 L23.4565562,9.23821 C24.2975634,9.23821 24.9812742,9.90976 24.9996695,10.74499 L25,10.77942 L25,23.45879 C25,24.29842 24.3276348,24.9813 23.4909235,24.99956 L23.4565562,25 L16.3055164,25 C15.4657208,25 15.0132182,24.32977 15.0002203,23.49564 L15,23.4589 L15,10.77942 C15,9.93979 15.6724753,9.25691 16.5086359,9.23865 L16.5431133,9.23821 L16.5590853,9.23821 L16.5590853,8.10026 L17.0524542,8.10026 L17.2494052,3.61017 C17.26438,3.2689636 17.545729,3 17.8877335,3 Z M17.6491571,16.9333333 L16.6365571,16.9333333 C16.5814042,16.9333045 16.528502,16.9596967 16.4894945,17.006701 C16.450487,17.0537052 16.4285714,17.1174689 16.4285714,17.1839573 L16.4285714,18.149376 C16.4285714,18.2158645 16.450487,18.2796281 16.4894945,18.3266324 C16.528502,18.3736366 16.5814042,18.4000288 16.6365571,18.4 L17.6491571,18.4 C17.7043101,18.4000288 17.7572123,18.3736366 17.7962198,18.3266324 C17.8352273,18.2796281 17.8571429,18.2158645 17.8571429,18.149376 L17.8571429,17.1839573 C17.8571429,17.1174689 17.8352273,17.0537052 17.7962198,17.006701 C17.7572123,16.9596967 17.7043101,16.9333045 17.6491571,16.9333333 L17.6491571,16.9333333 Z M20.5064673,16.9333333 L19.4937131,16.9333333 C19.4385567,16.9333045 19.3856512,16.9596967 19.3466412,17.006701 C19.3076313,17.0537052 19.2857143,17.1174689 19.2857143,17.1839573 L19.2857143,18.149376 C19.2857143,18.2158645 19.3076313,18.2796281 19.3466412,18.3266324 C19.3856512,18.3736366 19.4385567,18.4000288 19.4937131,18.4 L20.5063771,18.4 C20.6212018,18.4 20.7142857,18.2877918 20.7142857,18.149376 L20.7142857,17.1839573 C20.7142857,17.0455415 20.6212018,16.9333333 20.5063771,16.9333333 L20.5064673,16.9333333 Z M23.3635331,16.9333333 L22.3508429,16.9333333 C22.2956899,16.9333045 22.2427877,16.9596967 22.2037802,17.006701 C22.1647727,17.0537052 22.1428571,17.1174689 22.1428571,17.1839573 L22.1428571,18.149376 C22.1428571,18.2158645 22.1647727,18.2796281 22.2037802,18.3266324 C22.2427877,18.3736366 22.2956899,18.4000288 22.3508429,18.4 L23.3635331,18.4 C23.4783506,18.4 23.5714286,18.2877918 23.5714286,18.149376 L23.5714286,17.1839573 C23.5714286,17.0455415 23.4783506,16.9333333 23.3635331,16.9333333 Z M22.9782893,10.3333333 L17.0217107,10.3333333 C16.6941289,10.3333333 16.4285714,10.6226289 16.4285714,10.979493 L16.4285714,14.8206268 C16.4285714,15.1774441 16.6941719,15.4666667 17.0217107,15.4666667 L22.9783993,15.4666667 C23.3058952,15.4666005 23.5714286,15.1773973 23.5714286,14.8206268 L23.5714286,10.9793732 C23.5714286,10.6225559 23.3058281,10.3333333 22.9782893,10.3333333 Z M22.7493261,11.0666667 C22.8088717,11.0666667 22.8571429,11.1196222 22.8571429,11.1849462 L22.8571429,14.6150538 C22.8571429,14.6803778 22.8088717,14.7333333 22.7493261,14.7333333 L17.2506739,14.7333333 C17.1911283,14.7333333 17.1428571,14.6803778 17.1428571,14.6150538 L17.1428571,11.1849462 C17.1428571,11.1196222 17.1911283,11.0666667 17.2506739,11.0666667 L22.7493261,11.0666667 Z" id="形状备份-19" fill="#FFFFFF" fill-rule="nonzero"></path>
            </g>
        </g>
    </g>
</svg>