<?xml version="1.0" encoding="UTF-8"?>
<svg width="46px" height="46px" viewBox="0 0 46 46" version="1.1" xmlns="http://www.w3.org/2000/svg" xmlns:xlink="http://www.w3.org/1999/xlink">
    <title>无属性备份</title>
    <defs>
        <ellipse id="path-1" cx="20" cy="33" rx="20" ry="7"></ellipse>
        <filter x="-7.5%" y="-21.4%" width="115.0%" height="142.9%" filterUnits="objectBoundingBox" id="filter-2">
            <feGaussianBlur stdDeviation="3" in="SourceAlpha" result="shadowBlurInner1"></feGaussianBlur>
            <feOffset dx="0" dy="0" in="shadowBlurInner1" result="shadowOffsetInner1"></feOffset>
            <feComposite in="shadowOffsetInner1" in2="SourceAlpha" operator="arithmetic" k2="-1" k3="1" result="shadowInnerInner1"></feComposite>
            <feColorMatrix values="0 0 0 0 0.137254902   0 0 0 0 0.498039216   0 0 0 0 0.82745098  0 0 0 1 0" type="matrix" in="shadowInnerInner1"></feColorMatrix>
        </filter>
        <filter x="0.0%" y="0.0%" width="100.0%" height="100.0%" filterUnits="objectBoundingBox" id="filter-3">
            <feGaussianBlur stdDeviation="0" in="SourceGraphic"></feGaussianBlur>
        </filter>
        <linearGradient x1="-15.5024662%" y1="-16.1001126%" x2="100%" y2="100%" id="linearGradient-4">
            <stop stop-color="#3BF3A8" offset="0%"></stop>
            <stop stop-color="#46D0ED" offset="100%"></stop>
        </linearGradient>
    </defs>
    <g id="页面-1" stroke="none" stroke-width="1" fill="none" fill-rule="evenodd">
        <g id="落点切图" transform="translate(-126.000000, -71.000000)">
            <g id="无属性备份" transform="translate(126.000000, 71.000000)">
                <g id="编组-3" transform="translate(3.000000, 3.000000)">
                    <g id="椭圆形" fill="black" fill-opacity="1">
                        <use filter="url(#filter-2)" xlink:href="#path-1"></use>
                    </g>
                    <ellipse id="椭圆形" fill="#237FD3" opacity="0.703760901" filter="url(#filter-3)" cx="20" cy="33" rx="10" ry="3.5"></ellipse>
                    <path d="M20,0.5 C23.7279221,0.5 27.1029221,2.01103897 29.5459415,4.45405845 C31.988961,6.89707794 33.5,10.2720779 33.5,14 C33.5,18.3257105 31.4654458,22.1761668 28.3012384,24.6468968 L28.3012384,24.6468968 L20.000092,32.895055 L11.7196612,24.6631831 C8.54351615,22.1931056 6.5,18.3352269 6.5,14 C6.5,10.2720779 8.01103897,6.89707794 10.4540585,4.45405845 C12.8970779,2.01103897 16.2720779,0.5 20,0.5 Z" id="形状结合" stroke="#FFFFFF" fill="#0091FF" fill-rule="nonzero"></path>
                    <circle id="椭圆形" fill="#FFFFFF" cx="20" cy="14" r="5"></circle>
                </g>
                <g id="扫描" fill="url(#linearGradient-4)" fill-rule="nonzero">
                    <path d="M45.724,45.724 C45.54,45.908 45.356,46 45.08,46 L37.72,46 C37.26,46 36.8,45.632 36.8,45.08 C36.8,44.5280001 37.26,44.16 37.72,44.16 L44.16,44.16 L44.16,37.72 C44.16,37.26 44.528,36.8 45.08,36.8 C45.6320001,36.8 46,37.26 46,37.72 L46,45.08 C46,45.356 45.908,45.54 45.724,45.724 L45.724,45.724 Z M45.724,0.275999986 C45.54,0.0919999641 45.356,0 45.08,0 L37.72,0 C37.26,0 36.8,0.367999997 36.8,0.919999968 C36.8,1.47199994 37.26,1.83999998 37.72,1.83999998 L44.16,1.83999998 L44.16,8.27999999 C44.16,8.74 44.528,9.20000001 45.08,9.20000001 C45.6320001,9.20000001 46,8.74 46,8.27999999 L46,0.919999968 C46,0.643999982 45.908,0.459999961 45.724,0.275999986 Z M0.275999986,45.724 C0.460000007,45.908 0.643999982,46 0.919999968,46 L8.27999999,46 C8.74,46 9.20000001,45.632 9.20000001,45.08 C9.20000001,44.5280001 8.74,44.16 8.27999999,44.16 L1.83999998,44.16 L1.83999998,37.72 C1.83999998,37.26 1.47199999,36.8 0.919999968,36.8 C0.36799995,36.8 0,37.26 0,37.72 L0,45.08 C0,45.356 0.0920000108,45.54 0.275999986,45.724 L0.275999986,45.724 Z M0.275999986,0.275999986 C0.460000007,0.0919999641 0.643999982,0 0.919999968,0 L8.27999999,0 C8.74,0 9.20000001,0.367999997 9.20000001,0.919999968 C9.20000001,1.47199994 8.74,1.83999998 8.27999999,1.83999998 L1.83999998,1.83999998 L1.83999998,8.27999999 C1.83999998,8.74 1.47199999,9.20000001 0.919999968,9.20000001 C0.36799995,9.20000001 0,8.74 0,8.27999999 L0,0.919999968 C0,0.643999982 0.0920000108,0.459999961 0.275999986,0.275999986 Z" id="形状"></path>
                </g>
            </g>
        </g>
    </g>
</svg>