<?xml version="1.0" encoding="UTF-8"?>
<svg width="46px" height="46px" viewBox="0 0 46 46" version="1.1" xmlns="http://www.w3.org/2000/svg" xmlns:xlink="http://www.w3.org/1999/xlink">
    <title>无人机备份 3</title>
    <defs>
        <ellipse id="path-1" cx="20" cy="33" rx="20" ry="7"></ellipse>
        <filter x="-7.5%" y="-21.4%" width="115.0%" height="142.9%" filterUnits="objectBoundingBox" id="filter-2">
            <feGaussianBlur stdDeviation="3" in="SourceAlpha" result="shadowBlurInner1"></feGaussianBlur>
            <feOffset dx="0" dy="0" in="shadowBlurInner1" result="shadowOffsetInner1"></feOffset>
            <feComposite in="shadowOffsetInner1" in2="SourceAlpha" operator="arithmetic" k2="-1" k3="1" result="shadowInnerInner1"></feComposite>
            <feColorMatrix values="0 0 0 0 0.541176471   0 0 0 0 0.560784314   0 0 0 0 0.6  0 0 0 1 0" type="matrix" in="shadowInnerInner1"></feColorMatrix>
        </filter>
        <filter x="0.0%" y="0.0%" width="100.0%" height="100.0%" filterUnits="objectBoundingBox" id="filter-3">
            <feGaussianBlur stdDeviation="0" in="SourceGraphic"></feGaussianBlur>
        </filter>
        <linearGradient x1="-15.5024662%" y1="-16.1001126%" x2="100%" y2="100%" id="linearGradient-4">
            <stop stop-color="#3BF3A8" offset="0%"></stop>
            <stop stop-color="#46D0ED" offset="100%"></stop>
        </linearGradient>
    </defs>
    <g id="页面-1" stroke="none" stroke-width="1" fill="none" fill-rule="evenodd">
        <g id="落点切图" transform="translate(-1180.000000, -202.000000)">
            <g id="无人机备份-3" transform="translate(1180.000000, 202.000000)">
                <g id="编组-18" transform="translate(3.000000, 3.000000)">
                    <g id="椭圆形备份-81" fill="black" fill-opacity="1">
                        <use filter="url(#filter-2)" xlink:href="#path-1"></use>
                    </g>
                    <ellipse id="椭圆形备份-82" fill="#8A8F99" opacity="0.703760901" filter="url(#filter-3)" cx="20" cy="33" rx="10" ry="3.5"></ellipse>
                    <path d="M20,-2.13162821e-14 C27.7319865,-2.13162821e-14 34,6.2680135 34,14 C34,18.4749597 31.9004511,22.4595434 28.6326771,25.0224273 L20,33.6 L11.3885149,25.0390152 C8.108629,22.4767549 6,18.4846258 6,14 C6,6.2680135 12.2680135,-2.13162821e-14 20,-2.13162821e-14 Z" id="形状结合" stroke="#FFFFFF" fill="#999999" fill-rule="nonzero"></path>
                    <path d="M20.1418362,18.4773001 C19.8437123,18.4773001 19.6020352,18.713911 19.6020352,19.0057853 C19.6020352,19.2976597 19.8437123,19.5342706 20.1418362,19.5342706 C20.43996,19.5342706 20.6816372,19.2976597 20.6816372,19.0057853 C20.6816372,18.713911 20.43996,18.4773001 20.1418362,18.4773001 Z M20.1418362,19.3360887 C20.0212872,19.3361125 19.9098849,19.2731623 19.8496034,19.1709563 C19.7893219,19.0687503 19.7893219,18.9428204 19.8496034,18.8406144 C19.9098849,18.7384084 20.0212872,18.6754582 20.1418362,18.675482 C20.3281369,18.6755189 20.4791435,18.82339 20.4791435,19.0057853 C20.4791435,19.1881807 20.3281369,19.3360517 20.1418362,19.3360887 L20.1418362,19.3360887 Z M29.5034655,9.53353895 C28.8635402,9.6592673 28.012483,9.70721457 27.5826011,9.81376402 C27.5271255,9.7211221 27.4256539,9.66420584 27.3159655,9.66420584 C27.2062772,9.66420584 27.1048056,9.7211221 27.04933,9.81376402 C26.6216247,9.70721457 25.7705675,9.6592673 25.1306422,9.53353895 C24.2578188,9.36199433 24.0967491,9.73172094 24.0967491,9.97465369 C24.0967491,10.2197174 24.2512889,10.5500207 25.1306422,10.4168339 C25.7955986,10.3145464 26.6455675,10.2570097 27.0645663,10.1398053 C27.0827821,10.1649422 27.1048005,10.1872177 27.1298648,10.205866 L27.1298648,10.8728656 L26.7304556,10.8728656 L26.7304556,11.3597966 L20.6402815,11.2990634 L20.6402815,11.2884084 L20.0743611,11.2937359 L19.509529,11.2884084 L19.509529,11.2990634 L13.3932354,11.3597966 L13.3932354,10.8739311 L12.9840315,10.8739311 L12.9840315,10.1739012 C12.9949145,10.1632462 13.003621,10.1525913 13.0123275,10.1408708 C13.4313262,10.2570097 14.2812951,10.3145465 14.9462516,10.4168339 C15.8256048,10.5510862 15.9801446,10.2186519 15.9801446,9.97465369 C15.9801446,9.73172094 15.819075,9.36199433 14.9462516,9.53353895 C14.3052379,9.6592673 13.4530924,9.70721457 13.0242989,9.81376402 C12.9692573,9.72055732 12.8676318,9.66315365 12.7576633,9.66315365 C12.6476948,9.66315365 12.5460693,9.72055732 12.4910277,9.81376402 C12.0644108,9.70721457 11.211177,9.6592673 10.5723399,9.53353895 C9.69842822,9.36199433 9.53735857,9.73172094 9.53735857,9.97465369 C9.53735857,10.2197174 9.69189837,10.5500207 10.5712516,10.4168339 C11.2372964,10.3145464 12.086177,10.2570097 12.5051757,10.1398053 C12.5233916,10.1649422 12.54541,10.1872177 12.5704742,10.205866 L12.5704742,10.8728656 L12.171065,10.8728656 L12.171065,11.3725825 L12.1590936,11.3725825 C11.6380083,11.3777029 11.2031875,11.7635845 11.1469668,12.2707944 L11.1458785,12.2931698 C11.1417556,12.3370882 11.1406648,12.3812289 11.1426136,12.4252911 L11.1437019,12.4519285 C11.1478673,12.5108768 11.157336,12.5693505 11.1719979,12.6266696 L11.1807043,12.6543724 L11.1894108,12.6863373 L11.1948524,12.7001887 C11.2092282,12.7410159 11.2263148,12.7808794 11.2460029,12.8195241 L11.253621,12.834441 L11.2579742,12.842965 C11.2675782,12.8610213 11.2777404,12.8787878 11.2884469,12.8962397 L11.2971533,12.9100911 L11.3298026,12.9591039 L11.3406857,12.9729553 L11.3776882,13.0198371 L11.3863946,13.030492 C11.4308758,13.0813932 11.4804607,13.127797 11.5344046,13.1690063 C11.5376695,13.1690063 11.5398461,13.1722028 11.5420227,13.1743338 L11.5812019,13.2009711 L11.6084096,13.2190845 L11.6443237,13.2403944 C11.726476,13.2880232 11.8151643,13.323903 11.9076944,13.3469439 L11.9403436,13.3554678 C11.9583804,13.3595006 11.9765255,13.3630535 11.9947591,13.3661228 C12.0034655,13.3661228 12.0132603,13.3693193 12.0219668,13.3703848 C12.0491745,13.3735812 12.0763822,13.3767777 12.1046782,13.3778432 L13.497713,13.4534933 L13.5129494,13.4662793 L13.5162143,13.4726722 L14.0777815,14.7683136 L13.5129494,13.4662793 C13.716463,13.6506098 13.8818859,13.8775602 13.9939817,14.1364753 L14.0777815,14.3303953 C14.2388511,14.7001219 14.6121409,14.9377272 15.0224332,14.9302688 L16.1912765,14.9089589 C16.6637006,14.9003825 17.066306,14.5709504 17.1587827,14.1172964 L17.4188884,12.845096 C17.4624207,12.631997 17.6419916,12.4711074 17.8629183,12.446601 L19.3343113,12.2899733 C19.8262091,12.2372638 20.3225131,12.2372638 20.8144108,12.2899733 L22.2858038,12.446601 C22.5067792,12.4703303 22.6865088,12.6316288 22.7298337,12.845096 L22.9899394,14.1172964 C23.0824161,14.5709504 23.4850215,14.9003825 23.9574456,14.9089589 L25.1252006,14.9302688 C25.5356295,14.9378235 25.909545,14.7003794 26.0698524,14.3303953 L26.1492989,14.1492613 C26.2613946,13.8882151 26.4279058,13.6601993 26.6314195,13.4748032 L26.640126,13.4545588 L26.6314195,13.4748032 L26.6466558,13.4620173 L26.6466558,13.4726722 L26.6531857,13.4566898 L26.6553623,13.4545588 L28.0560153,13.3778432 C28.4728411,13.3552382 28.8336059,13.0864333 28.9669295,12.6991232 L28.9527815,12.6991232 L28.958223,12.6852718 L28.9669295,12.6543724 L28.9756359,12.6266696 C28.9820428,12.60202 28.9874883,12.5771404 28.9919606,12.552085 L28.9919606,12.549954 C28.997632,12.5174967 29.0016275,12.4847799 29.003932,12.4519285 L29.0061086,12.4252911 C29.0080507,12.3812288 29.0069599,12.3370886 29.0028436,12.2931698 L29.000667,12.2718599 C28.9473202,11.763056 28.5109615,11.3753502 27.9885402,11.3725825 L27.9504494,11.3725825 L27.9504494,10.8728656 L27.5412454,10.8728656 L27.5412454,10.1739012 C27.5521285,10.1632462 27.5608349,10.1525913 27.5695414,10.1408708 C27.9885402,10.2570097 28.8385091,10.3145465 29.5034655,10.4168339 C30.3828188,10.5510862 30.5373586,10.2186519 30.5373586,9.97465369 C30.5373586,9.73172094 30.3762889,9.36199433 29.5034655,9.53353895 L29.5034655,9.53353895 Z M20.1418362,18.7926864 C20.021625,18.7926864 19.9241745,18.8880941 19.9241745,19.0057853 C19.9241745,19.1234766 20.021625,19.2188843 20.1418362,19.2188843 C20.2620474,19.2188843 20.3594979,19.1234766 20.3594979,19.0057853 C20.3594979,18.8880941 20.2620474,18.7926864 20.1418362,18.7926864 L20.1418362,18.7926864 Z M20.1418362,19.1389722 C20.0667042,19.1389722 20.0057976,19.0793424 20.0057976,19.0057853 C20.0057976,18.9322283 20.0667042,18.8725985 20.1418362,18.8725985 C20.2169682,18.8725985 20.2778747,18.9322283 20.2778747,19.0057853 C20.2778747,19.0793424 20.2169682,19.1389722 20.1418362,19.1389722 Z M26.1210029,22.0413793 C26.0382914,19.940224 25.8053934,18.3707506 25.4995787,17.2019031 C25.486468,17.1517452 25.4730453,17.1016661 25.4593113,17.0516684 L25.429927,16.9472499 C25.3868115,16.7942864 25.3403664,16.6422412 25.2906235,16.4912182 L25.2753872,16.4485985 L25.2427379,16.3516385 L25.2209718,16.2877088 L25.1861459,16.1950108 L25.1643797,16.1364086 C25.139143,16.0693098 25.1130214,16.0025332 25.0860215,15.9360956 L25.0816683,15.9243752 C25.0695159,15.8948239 25.0571815,15.8653447 25.0446658,15.8359391 L25.0228996,15.7858609 C25.011101,15.7580867 24.9991294,15.7303834 24.9869854,15.7027523 L24.9652193,15.6580015 C24.9252629,15.569665 24.8831698,15.4822699 24.8389755,15.3958899 L24.8226509,15.3628595 L23.9574456,15.3468771 C23.4846104,15.3387963 23.0814157,15.0092527 22.9888511,14.5552147 L22.6558287,12.9250081 L20.7001384,12.7151056 C20.2838307,12.6705512 19.8638031,12.6705512 19.4474954,12.7151056 L17.4918051,12.9250081 L17.1587827,14.5552147 C17.0662181,15.0092527 16.6630234,15.3387963 16.1901882,15.3468771 L15.3968113,15.361794 L15.3804867,15.3948244 C15.3364274,15.4812686 15.2943357,15.5686607 15.2542429,15.656936 L15.2324767,15.7038178 C15.2203253,15.7310896 15.2083537,15.7584379 15.1965625,15.7858609 L15.1747964,15.8370046 L15.1377939,15.9233097 L15.131264,15.9414231 C15.1051446,16.0042873 15.0801135,16.0692824 15.0550824,16.1374741 L15.0333163,16.1950108 L14.9995787,16.2877088 L14.9767242,16.3516385 L14.944075,16.447533 L14.9288387,16.4922837 C14.9070725,16.5562134 14.8863946,16.6222741 14.8657168,16.6894002 L14.8428623,16.7650503 C14.8242564,16.8256488 14.8061174,16.8863837 14.7884469,16.9472499 L14.7601509,17.0516684 C14.7464227,17.1016676 14.733,17.1517467 14.7198834,17.2019031 C14.4151571,18.3707506 14.1811708,19.940224 14.097371,22.0413793 C13.9537143,22.0818681 13.8492367,22.1905485 13.8492367,22.3184078 C13.8492367,22.482494 14.0157479,22.6146153 14.2203499,22.6146153 L14.4031857,22.6146153 C14.6077877,22.6146153 14.7732106,22.482494 14.7732106,22.3194733 C14.7732106,22.2342338 14.7285899,22.1596491 14.6567616,22.1042434 C14.6817926,21.4010171 14.9408101,16.7970152 17.4939817,15.2350002 L18.1926757,19.756959 C18.2460029,20.1522575 18.5899083,20.4473994 18.998024,20.4473994 L21.4510713,20.4473994 C21.8657168,20.4473994 22.2139755,20.1416025 22.2585961,19.7377801 L22.4969357,17.8348069 L22.8147218,15.2925369 C25.285182,16.9056956 25.5376695,21.4084755 25.5627006,22.1042434 C25.4909617,22.1537529 25.4473738,22.2335695 25.4451633,22.3194733 C25.4451633,22.482494 25.6116745,22.6146153 25.8151882,22.6146153 L25.9991123,22.6146153 C26.2037143,22.6146153 26.3691372,22.482494 26.3691372,22.3194733 C26.3691372,22.1905485 26.2657479,22.0818681 26.1210029,22.0424448 L26.1210029,22.0413793 Z M20.1418362,19.7004878 C19.7499476,19.7004878 19.4322591,19.3894589 19.4322591,19.0057853 C19.4322591,18.6221118 19.7499476,18.3110829 20.1418362,18.3110829 C20.5337248,18.3110829 20.8514133,18.6221118 20.8514133,19.0057853 C20.8514133,19.3894589 20.5337248,19.7004878 20.1418362,19.7004878 Z" id="形状" fill="#FFFFFF" fill-rule="nonzero" transform="translate(20.037359, 16.052115) rotate(-1.000000) translate(-20.037359, -16.052115) "></path>
                </g>
                <g id="扫描备份-5" fill="url(#linearGradient-4)" fill-rule="nonzero">
                    <path d="M45.724,45.724 C45.54,45.908 45.356,46 45.08,46 L37.72,46 C37.26,46 36.8,45.632 36.8,45.08 C36.8,44.5280001 37.26,44.16 37.72,44.16 L44.16,44.16 L44.16,37.72 C44.16,37.26 44.528,36.8 45.08,36.8 C45.6320001,36.8 46,37.26 46,37.72 L46,45.08 C46,45.356 45.908,45.54 45.724,45.724 L45.724,45.724 Z M45.724,0.275999986 C45.54,0.0919999641 45.356,0 45.08,0 L37.72,0 C37.26,0 36.8,0.367999997 36.8,0.919999968 C36.8,1.47199994 37.26,1.83999998 37.72,1.83999998 L44.16,1.83999998 L44.16,8.27999999 C44.16,8.74 44.528,9.20000001 45.08,9.20000001 C45.6320001,9.20000001 46,8.74 46,8.27999999 L46,0.919999968 C46,0.643999982 45.908,0.459999961 45.724,0.275999986 Z M0.275999986,45.724 C0.460000007,45.908 0.643999982,46 0.919999968,46 L8.27999999,46 C8.74,46 9.20000001,45.632 9.20000001,45.08 C9.20000001,44.5280001 8.74,44.16 8.27999999,44.16 L1.83999998,44.16 L1.83999998,37.72 C1.83999998,37.26 1.47199999,36.8 0.919999968,36.8 C0.36799995,36.8 0,37.26 0,37.72 L0,45.08 C0,45.356 0.0920000108,45.54 0.275999986,45.724 L0.275999986,45.724 Z M0.275999986,0.275999986 C0.460000007,0.0919999641 0.643999982,0 0.919999968,0 L8.27999999,0 C8.74,0 9.20000001,0.367999997 9.20000001,0.919999968 C9.20000001,1.47199994 8.74,1.83999998 8.27999999,1.83999998 L1.83999998,1.83999998 L1.83999998,8.27999999 C1.83999998,8.74 1.47199999,9.20000001 0.919999968,9.20000001 C0.36799995,9.20000001 0,8.74 0,8.27999999 L0,0.919999968 C0,0.643999982 0.0920000108,0.459999961 0.275999986,0.275999986 Z" id="形状"></path>
                </g>
            </g>
        </g>
    </g>
</svg>