<?xml version="1.0" encoding="UTF-8"?>
<svg width="40px" height="41px" viewBox="0 0 40 41" version="1.1" xmlns="http://www.w3.org/2000/svg" xmlns:xlink="http://www.w3.org/1999/xlink">
    <title>应急专家备份</title>
    <defs>
        <ellipse id="path-1" cx="20" cy="33" rx="20" ry="7"></ellipse>
        <filter x="-7.5%" y="-21.4%" width="115.0%" height="142.9%" filterUnits="objectBoundingBox" id="filter-2">
            <feGaussianBlur stdDeviation="3" in="SourceAlpha" result="shadowBlurInner1"></feGaussianBlur>
            <feOffset dx="0" dy="0" in="shadowBlurInner1" result="shadowOffsetInner1"></feOffset>
            <feComposite in="shadowOffsetInner1" in2="SourceAlpha" operator="arithmetic" k2="-1" k3="1" result="shadowInnerInner1"></feComposite>
            <feColorMatrix values="0 0 0 0 0.541176471   0 0 0 0 0.560784314   0 0 0 0 0.6  0 0 0 1 0" type="matrix" in="shadowInnerInner1"></feColorMatrix>
        </filter>
        <filter x="0.0%" y="0.0%" width="100.0%" height="100.0%" filterUnits="objectBoundingBox" id="filter-3">
            <feGaussianBlur stdDeviation="0" in="SourceGraphic"></feGaussianBlur>
        </filter>
    </defs>
    <g id="页面-1" stroke="none" stroke-width="1" fill="none" fill-rule="evenodd">
        <g id="落点切图" transform="translate(-979.000000, -152.000000)">
            <g id="应急专家备份" transform="translate(979.000000, 153.000000)">
                <g id="椭圆形备份-21" fill="black" fill-opacity="1">
                    <use filter="url(#filter-2)" xlink:href="#path-1"></use>
                </g>
                <ellipse id="椭圆形备份-22" fill="#8A8F99" opacity="0.703760901" filter="url(#filter-3)" cx="20" cy="33" rx="10" ry="3.5"></ellipse>
                <path d="M20,0 C27.7319865,0 34,6.2680135 34,14 C34,18.4749597 31.9004511,22.4595434 28.6326771,25.0224273 L20,33.6 L11.3885149,25.0390152 C8.108629,22.4767549 6,18.4846258 6,14 C6,6.2680135 12.2680135,0 20,0 Z" id="形状结合" stroke="#FFFFFF" fill="#999999" fill-rule="nonzero"></path>
                <path d="M29.460566,19.2010547 C29.1533957,18.318223 28.1372185,18.1916927 27.2875881,17.8359934 C26.3548129,17.446347 25.3208392,16.9934096 24.3904557,16.6148732 C24.1249993,16.5430698 23.8590285,16.4714979 23.593572,16.3994888 C23.2766033,16.1828699 22.966527,15.4641161 22.7970484,15.1065908 C22.6279555,15.082905 22.4593513,15.0588591 22.2898985,15.0350189 C22.3162075,14.4816546 22.6611569,14.4522337 22.7970484,14.0296688 C22.9165063,13.6563016 22.8093413,13.1718345 22.9988539,12.8272452 C23.1306049,12.5874292 23.4273853,12.5858347 23.5761355,12.3807116 C23.7107154,12.1941051 23.7995181,11.8692669 23.8416691,11.6405093 C23.918616,11.2233194 23.9851987,10.6520814 23.7856306,10.238389 C23.6705189,10.0003989 23.5979183,9.97758744 23.5659514,9.68888232 C23.5273751,9.33920093 23.6700817,8.19795935 23.6758939,7.95145672 C23.6904243,7.31124426 23.6746594,7.25944915 23.5188625,6.63572164 C23.5188625,6.63572164 23.3289128,6.07081015 23.031618,5.90112583 L22.4390087,5.7994644 L22.0726881,5.46331043 C20.596887,4.56209067 19.0146154,5.19407349 18.1670938,5.5349595 C16.9457678,5.92766635 16.1739587,7.11396505 16.7130755,9.64737424 C16.8047071,10.079969 16.4739281,10.2733392 16.4955051,10.5092976 C16.5425939,11.0258858 16.5529067,12.2673487 17.0447289,12.5732845 C17.0905833,12.6010337 17.4394674,12.6882419 17.4373586,12.664196 C17.4856819,13.1673597 17.5336451,13.6703433 17.5821741,14.1728641 C17.7049753,14.5069864 17.9997241,14.5438396 18.0851835,15.015525 L17.7078814,15.1066423 C17.5387886,15.4641675 17.2283522,16.1829213 16.9109206,16.3995402 C16.645387,16.4715493 16.3799305,16.5431212 16.1143969,16.6149246 C15.1841163,16.9934611 14.1496797,17.4463984 13.2172645,17.8360449 C12.3680713,18.1917442 11.3515084,18.3182745 11.0439266,19.2011062 C11.0439266,19.8006078 10.9874509,21.2172071 11.0025728,22.0023893 L19.1224747,22.0023893 L19.7184273,17.9646069 L19.223056,16.9278556 L20.3672037,16.3839297 L21.3304799,16.9165142 L20.7994898,17.9845894 L21.7388744,22.0023893 L29.5022027,22.0023893 C29.5178389,21.2171556 29.460566,19.8005821 29.460566,19.2010547" id="路径" fill="#FFFFFF" fill-rule="nonzero"></path>
            </g>
        </g>
    </g>
</svg>