<?xml version="1.0" encoding="UTF-8"?>
<svg width="46px" height="46px" viewBox="0 0 46 46" version="1.1" xmlns="http://www.w3.org/2000/svg" xmlns:xlink="http://www.w3.org/1999/xlink">
    <title>应急队伍备份 3</title>
    <defs>
        <ellipse id="path-1" cx="20" cy="33" rx="20" ry="7"></ellipse>
        <filter x="-7.5%" y="-21.4%" width="115.0%" height="142.9%" filterUnits="objectBoundingBox" id="filter-2">
            <feGaussianBlur stdDeviation="3" in="SourceAlpha" result="shadowBlurInner1"></feGaussianBlur>
            <feOffset dx="0" dy="0" in="shadowBlurInner1" result="shadowOffsetInner1"></feOffset>
            <feComposite in="shadowOffsetInner1" in2="SourceAlpha" operator="arithmetic" k2="-1" k3="1" result="shadowInnerInner1"></feComposite>
            <feColorMatrix values="0 0 0 0 0.541176471   0 0 0 0 0.560784314   0 0 0 0 0.6  0 0 0 1 0" type="matrix" in="shadowInnerInner1"></feColorMatrix>
        </filter>
        <filter x="0.0%" y="0.0%" width="100.0%" height="100.0%" filterUnits="objectBoundingBox" id="filter-3">
            <feGaussianBlur stdDeviation="0" in="SourceGraphic"></feGaussianBlur>
        </filter>
        <linearGradient x1="-15.5024662%" y1="-16.1001126%" x2="100%" y2="100%" id="linearGradient-4">
            <stop stop-color="#3BF3A8" offset="0%"></stop>
            <stop stop-color="#46D0ED" offset="100%"></stop>
        </linearGradient>
    </defs>
    <g id="页面-1" stroke="none" stroke-width="1" fill="none" fill-rule="evenodd">
        <g id="落点切图" transform="translate(-905.000000, -202.000000)">
            <g id="应急队伍备份-3" transform="translate(905.000000, 202.000000)">
                <g id="编组-14" transform="translate(3.000000, 3.000000)">
                    <g id="椭圆形备份-89" fill="black" fill-opacity="1">
                        <use filter="url(#filter-2)" xlink:href="#path-1"></use>
                    </g>
                    <ellipse id="椭圆形备份-90" fill="#8A8F99" opacity="0.703760901" filter="url(#filter-3)" cx="20" cy="33" rx="10" ry="3.5"></ellipse>
                    <path d="M20,-2.13162821e-14 C27.7319865,-2.13162821e-14 34,6.2680135 34,14 C34,18.4749597 31.9004511,22.4595434 28.6326771,25.0224273 L20,33.6 L11.3885149,25.0390152 C8.108629,22.4767549 6,18.4846258 6,14 C6,6.2680135 12.2680135,-2.13162821e-14 20,-2.13162821e-14 Z" id="形状结合" stroke="#FFFFFF" fill="#999999" fill-rule="nonzero"></path>
                    <path d="M27.0894946,19.4400039 C28.2857655,19.919424 29,20.5226111 29,21.1783883 C29,22.7362506 24.9702864,24 19.9994136,24 C15.0297276,24 11,22.7362506 11,21.1783883 C11,20.5226112 11.7133548,19.919424 12.9099236,19.4400039 C12.6236462,19.6429611 12.4661044,19.861159 12.4661044,20.0886103 C12.4661044,21.1473152 15.8391909,22.0045586 19.9994089,22.0045586 C24.1608184,22.0045586 27.5333091,21.1473152 27.5333091,20.0886103 C27.5333138,19.8611543 27.3766471,19.6429611 27.0894946,19.4400039 L27.0894946,19.4400039 Z M15.5811283,6.61544125 C16.4846475,6.61544125 17.2171179,7.36029612 17.2171179,8.27880533 C17.2171179,9.1976269 16.4846475,9.94278471 15.5811283,9.94278471 C14.6775952,9.94278471 13.9451387,9.19762219 13.9451387,8.27880533 C13.9451387,7.36029138 14.6775998,6.61544125 15.5811283,6.61544125 L15.5811283,6.61544125 Z M24.3936077,6.61544125 C23.4906564,6.61544125 22.7581999,7.36029612 22.7581999,8.27880533 C22.7581999,9.1976269 23.4906563,9.94278471 24.3936077,9.94278471 C25.2977226,9.94278471 26.0301791,9.19762219 26.0301791,8.27880533 C26.0301791,7.36029138 25.2977226,6.61544125 24.3936077,6.61544125 L24.3936077,6.61544125 Z M22.7773062,16.1834872 L22.7773062,20.568641 L23.9303797,20.568641 L24.3909547,17.4947574 L24.8527166,20.568641 L26.1080703,20.568641 L26.1080703,15.7121181 C26.6056942,15.4478903 26.9478104,14.9182515 26.9478104,14.3096922 L26.9478104,11.825246 C26.9478104,10.9563496 26.2497499,10.2455639 25.3947154,10.2455639 L23.4836049,10.2455639 C23.3604498,10.2455639 23.2396452,10.260213 23.1244258,10.2883042 C23.3804404,10.6861487 23.5291714,11.1605043 23.5291714,11.6692179 L23.5291714,14.3733625 C23.5291761,15.0653103 23.2496335,15.7142243 22.7773062,16.1834872 L22.7773062,16.1834872 Z M20.0270374,6 C21.0099465,6 21.807057,6.81060772 21.807057,7.81012941 C21.807057,8.80995401 21.0099464,9.62056173 20.0270374,9.62056173 C19.0435698,9.62056173 18.2467385,8.80995401 18.2467385,7.81012941 C18.2467385,6.81060772 19.0435651,6 20.0270374,6 L20.0270374,6 Z M21.7859028,15.9028117 C22.3314204,15.6176635 22.7082397,15.0378107 22.7082397,14.3733625 L22.7082397,11.6692179 C22.7082397,10.7241085 21.9475497,9.95054707 21.0181661,9.95054707 L18.9377662,9.95054707 C18.0077728,9.95054707 17.2473901,10.7241085 17.2473901,11.6692179 L17.2473901,14.3733625 C17.2473901,15.0348288 17.619797,15.6119884 18.1620937,15.8992429 L18.1620937,21.184068 L19.5279659,21.184068 L20.0299743,17.8390936 L20.5314381,21.184068 L21.7859075,21.184068 L21.7859075,15.9028117 L21.7859028,15.9028117 Z M17.1977091,16.1834872 C16.725675,15.7142196 16.4464443,15.0653103 16.4464443,14.3733578 L16.4464443,11.6692132 C16.4464443,11.1604949 16.5945795,10.6861439 16.8508734,10.2882995 C16.735668,10.2602083 16.6151519,10.2455592 16.4917082,10.2455592 L14.5805977,10.2455592 C13.7255679,10.2455592 13.0274888,10.9563449 13.0274888,11.8252413 L13.0274888,14.3096875 C13.0274888,14.9182515 13.3696189,15.4478856 13.8675361,15.7121134 L13.8675361,20.5686363 L15.1226012,20.5686363 L15.5843631,17.4947527 L16.0449381,20.5686363 L17.1977091,20.5686363 L17.1977091,16.1834872 Z" id="形状" fill="#FFFFFF" fill-rule="nonzero"></path>
                </g>
                <g id="扫描备份-9" fill="url(#linearGradient-4)" fill-rule="nonzero">
                    <path d="M45.724,45.724 C45.54,45.908 45.356,46 45.08,46 L37.72,46 C37.26,46 36.8,45.632 36.8,45.08 C36.8,44.5280001 37.26,44.16 37.72,44.16 L44.16,44.16 L44.16,37.72 C44.16,37.26 44.528,36.8 45.08,36.8 C45.6320001,36.8 46,37.26 46,37.72 L46,45.08 C46,45.356 45.908,45.54 45.724,45.724 L45.724,45.724 Z M45.724,0.275999986 C45.54,0.0919999641 45.356,0 45.08,0 L37.72,0 C37.26,0 36.8,0.367999997 36.8,0.919999968 C36.8,1.47199994 37.26,1.83999998 37.72,1.83999998 L44.16,1.83999998 L44.16,8.27999999 C44.16,8.74 44.528,9.20000001 45.08,9.20000001 C45.6320001,9.20000001 46,8.74 46,8.27999999 L46,0.919999968 C46,0.643999982 45.908,0.459999961 45.724,0.275999986 Z M0.275999986,45.724 C0.460000007,45.908 0.643999982,46 0.919999968,46 L8.27999999,46 C8.74,46 9.20000001,45.632 9.20000001,45.08 C9.20000001,44.5280001 8.74,44.16 8.27999999,44.16 L1.83999998,44.16 L1.83999998,37.72 C1.83999998,37.26 1.47199999,36.8 0.919999968,36.8 C0.36799995,36.8 0,37.26 0,37.72 L0,45.08 C0,45.356 0.0920000108,45.54 0.275999986,45.724 L0.275999986,45.724 Z M0.275999986,0.275999986 C0.460000007,0.0919999641 0.643999982,0 0.919999968,0 L8.27999999,0 C8.74,0 9.20000001,0.367999997 9.20000001,0.919999968 C9.20000001,1.47199994 8.74,1.83999998 8.27999999,1.83999998 L1.83999998,1.83999998 L1.83999998,8.27999999 C1.83999998,8.74 1.47199999,9.20000001 0.919999968,9.20000001 C0.36799995,9.20000001 0,8.74 0,8.27999999 L0,0.919999968 C0,0.643999982 0.0920000108,0.459999961 0.275999986,0.275999986 Z" id="形状"></path>
                </g>
            </g>
        </g>
    </g>
</svg>