<?xml version="1.0" encoding="UTF-8"?>
<svg width="46px" height="46px" viewBox="0 0 46 46" version="1.1" xmlns="http://www.w3.org/2000/svg" xmlns:xlink="http://www.w3.org/1999/xlink">
    <title>应急装备库备份 3</title>
    <defs>
        <ellipse id="path-1" cx="20" cy="33" rx="20" ry="7"></ellipse>
        <filter x="-7.5%" y="-21.4%" width="115.0%" height="142.9%" filterUnits="objectBoundingBox" id="filter-2">
            <feGaussianBlur stdDeviation="3" in="SourceAlpha" result="shadowBlurInner1"></feGaussianBlur>
            <feOffset dx="0" dy="0" in="shadowBlurInner1" result="shadowOffsetInner1"></feOffset>
            <feComposite in="shadowOffsetInner1" in2="SourceAlpha" operator="arithmetic" k2="-1" k3="1" result="shadowInnerInner1"></feComposite>
            <feColorMatrix values="0 0 0 0 0.541176471   0 0 0 0 0.560784314   0 0 0 0 0.6  0 0 0 1 0" type="matrix" in="shadowInnerInner1"></feColorMatrix>
        </filter>
        <filter x="0.0%" y="0.0%" width="100.0%" height="100.0%" filterUnits="objectBoundingBox" id="filter-3">
            <feGaussianBlur stdDeviation="0" in="SourceGraphic"></feGaussianBlur>
        </filter>
        <linearGradient x1="-15.5024662%" y1="-16.1001126%" x2="100%" y2="100%" id="linearGradient-4">
            <stop stop-color="#3BF3A8" offset="0%"></stop>
            <stop stop-color="#46D0ED" offset="100%"></stop>
        </linearGradient>
    </defs>
    <g id="页面-1" stroke="none" stroke-width="1" fill="none" fill-rule="evenodd">
        <g id="落点切图" transform="translate(-1118.000000, -202.000000)">
            <g id="应急装备库备份-3" transform="translate(1118.000000, 202.000000)">
                <g id="编组-17" transform="translate(3.000000, 3.000000)">
                    <g id="椭圆形备份-83" fill="black" fill-opacity="1">
                        <use filter="url(#filter-2)" xlink:href="#path-1"></use>
                    </g>
                    <ellipse id="椭圆形备份-84" fill="#8A8F99" opacity="0.703760901" filter="url(#filter-3)" cx="20" cy="33" rx="10" ry="3.5"></ellipse>
                    <path d="M20,-2.13162821e-14 C27.7319865,-2.13162821e-14 34,6.2680135 34,14 C34,18.4749597 31.9004511,22.4595434 28.6326771,25.0224273 L20,33.6 L11.3885149,25.0390152 C8.108629,22.4767549 6,18.4846258 6,14 C6,6.2680135 12.2680135,-2.13162821e-14 20,-2.13162821e-14 Z" id="形状结合" stroke="#FFFFFF" fill="#999999" fill-rule="nonzero"></path>
                    <path d="M19.4880794,8.08004523 C19.822398,7.88094413 20.2396563,7.88094413 20.5739749,8.08004523 L20.5739749,8.08004523 L26.9083657,11.7674647 C27.2459498,11.9636039 27.4501406,12.3264628 27.4417881,12.7153874 L27.4417881,12.7153874 L27.4417881,21.1139829 C27.4418111,21.7071171 26.9614183,22.1894119 26.3654179,22.1946149 L26.3654179,22.1946149 L13.6966364,22.1946149 C13.1131567,22.1948196 12.6357568,21.7323466 12.6202662,21.1518999 L12.6202662,21.1518999 L12.6202662,12.7153874 C12.6119137,12.3264628 12.8161045,11.9636039 13.1536886,11.7674647 L13.1536886,11.7674647 Z M17.1734072,17.5782311 L14.6968033,17.5782311 C14.5515924,17.5831338 14.4350187,17.6991424 14.4300921,17.8436495 L14.4300921,17.8436495 L14.4300921,20.2987694 C14.4300036,20.446965 14.5479744,20.5685568 14.6968033,20.573667 L14.6968033,20.573667 L17.1829326,20.573667 C17.3317616,20.5685568 17.4497324,20.446965 17.4496439,20.2987694 L17.4496439,20.2987694 L17.4401184,20.2987694 L17.4401184,17.8436495 C17.4351918,17.6991424 17.3186182,17.5831338 17.1734072,17.5782311 L17.1734072,17.5782311 Z M21.1169227,17.5782311 L18.6307934,17.5782311 C18.4855825,17.5831338 18.3690088,17.6991424 18.3640821,17.8436495 L18.3640821,17.8436495 L18.3640821,20.2987694 C18.3639936,20.446965 18.4819645,20.5685568 18.6307934,20.573667 L18.6307934,20.573667 L21.1169227,20.573667 C21.2657517,20.5685568 21.3837225,20.446965 21.383634,20.2987694 L21.383634,20.2987694 L21.383634,17.8436495 C21.3787073,17.6991424 21.2621336,17.5831338 21.1169227,17.5782311 L21.1169227,17.5782311 Z M24.984235,17.5782311 L22.5076311,17.5782311 C22.3587136,17.578143 22.2365295,17.695542 22.2313945,17.8436495 L22.2313945,17.8436495 L22.2313945,20.2987694 C22.2313945,20.4505911 22.3550698,20.573667 22.5076311,20.573667 L22.5076311,20.573667 L24.984235,20.573667 C25.1367963,20.573667 25.2604716,20.4505911 25.2604716,20.2987694 L25.2604716,20.2987694 L25.2604716,17.8436495 C25.2553365,17.695542 25.1331525,17.578143 24.984235,17.5782311 L24.984235,17.5782311 Z M17.1734072,13.5969556 L14.6968033,13.5969556 C14.5479744,13.6020658 14.4300036,13.7236576 14.4300921,13.8718532 L14.4300921,13.8718532 L14.4300921,16.3174939 C14.4300036,16.4656895 14.5479744,16.5872813 14.6968033,16.5923915 L14.6968033,16.5923915 L17.1829326,16.5923915 C17.3317616,16.5872813 17.4497324,16.4656895 17.4496439,16.3174939 L17.4496439,16.3174939 L17.4401184,16.3554108 L17.4401184,13.8718532 C17.440207,13.7236576 17.3222362,13.6020658 17.1734072,13.5969556 L17.1734072,13.5969556 Z M21.1169227,13.5969556 L18.6307934,13.5969556 C18.4819645,13.6020658 18.3639936,13.7236576 18.3640821,13.8718532 L18.3640821,13.8718532 L18.3640821,16.3174939 C18.3639936,16.4656895 18.4819645,16.5872813 18.6307934,16.5923915 L18.6307934,16.5923915 L21.1169227,16.5923915 C21.2657517,16.5872813 21.3837225,16.4656895 21.383634,16.3174939 L21.383634,16.3174939 L21.383634,13.8718532 C21.3837225,13.7236576 21.2657517,13.6020658 21.1169227,13.5969556 L21.1169227,13.5969556 Z M19.6785874,5.17940164 C19.8998163,5.0663528 20.162238,5.0663528 20.3834669,5.17940164 L20.3834669,5.17940164 L29.1944617,10.3929767 L29.1563601,10.3929767 C29.485632,10.5867033 29.6066318,11.0019214 29.4325967,11.3408995 C29.2411312,11.6726616 28.8201752,11.7941471 28.4800567,11.6157971 L28.4800567,11.6157971 L20.240586,6.72451572 C20.097705,6.6486819 19.9262478,6.6486819 19.7833668,6.72451572 L19.7833668,6.72451572 L11.543896,11.6157971 C11.2037775,11.7941471 10.7828215,11.6726616 10.591356,11.3408995 C10.4173209,11.0019214 10.5383207,10.5867033 10.8675926,10.3929767 L10.8675926,10.3929767 Z" id="形状结合" fill="#FFFFFF" fill-rule="nonzero"></path>
                </g>
                <g id="扫描备份-6" fill="url(#linearGradient-4)" fill-rule="nonzero">
                    <path d="M45.724,45.724 C45.54,45.908 45.356,46 45.08,46 L37.72,46 C37.26,46 36.8,45.632 36.8,45.08 C36.8,44.5280001 37.26,44.16 37.72,44.16 L44.16,44.16 L44.16,37.72 C44.16,37.26 44.528,36.8 45.08,36.8 C45.6320001,36.8 46,37.26 46,37.72 L46,45.08 C46,45.356 45.908,45.54 45.724,45.724 L45.724,45.724 Z M45.724,0.275999986 C45.54,0.0919999641 45.356,0 45.08,0 L37.72,0 C37.26,0 36.8,0.367999997 36.8,0.919999968 C36.8,1.47199994 37.26,1.83999998 37.72,1.83999998 L44.16,1.83999998 L44.16,8.27999999 C44.16,8.74 44.528,9.20000001 45.08,9.20000001 C45.6320001,9.20000001 46,8.74 46,8.27999999 L46,0.919999968 C46,0.643999982 45.908,0.459999961 45.724,0.275999986 Z M0.275999986,45.724 C0.460000007,45.908 0.643999982,46 0.919999968,46 L8.27999999,46 C8.74,46 9.20000001,45.632 9.20000001,45.08 C9.20000001,44.5280001 8.74,44.16 8.27999999,44.16 L1.83999998,44.16 L1.83999998,37.72 C1.83999998,37.26 1.47199999,36.8 0.919999968,36.8 C0.36799995,36.8 0,37.26 0,37.72 L0,45.08 C0,45.356 0.0920000108,45.54 0.275999986,45.724 L0.275999986,45.724 Z M0.275999986,0.275999986 C0.460000007,0.0919999641 0.643999982,0 0.919999968,0 L8.27999999,0 C8.74,0 9.20000001,0.367999997 9.20000001,0.919999968 C9.20000001,1.47199994 8.74,1.83999998 8.27999999,1.83999998 L1.83999998,1.83999998 L1.83999998,8.27999999 C1.83999998,8.74 1.47199999,9.20000001 0.919999968,9.20000001 C0.36799995,9.20000001 0,8.74 0,8.27999999 L0,0.919999968 C0,0.643999982 0.0920000108,0.459999961 0.275999986,0.275999986 Z" id="形状"></path>
                </g>
            </g>
        </g>
    </g>
</svg>