<?xml version="1.0" encoding="UTF-8"?>
<svg width="42px" height="48px" viewBox="0 0 42 48" version="1.1" xmlns="http://www.w3.org/2000/svg" xmlns:xlink="http://www.w3.org/1999/xlink">
    <title>队伍集群终端备份</title>
    <defs>
        <ellipse id="path-1" cx="20" cy="41" rx="20" ry="7"></ellipse>
        <filter x="-7.5%" y="-21.4%" width="115.0%" height="142.9%" filterUnits="objectBoundingBox" id="filter-2">
            <feGaussianBlur stdDeviation="3" in="SourceAlpha" result="shadowBlurInner1"></feGaussianBlur>
            <feOffset dx="0" dy="0" in="shadowBlurInner1" result="shadowOffsetInner1"></feOffset>
            <feComposite in="shadowOffsetInner1" in2="SourceAlpha" operator="arithmetic" k2="-1" k3="1" result="shadowInnerInner1"></feComposite>
            <feColorMatrix values="0 0 0 0 0.541176471   0 0 0 0 0.560784314   0 0 0 0 0.6  0 0 0 1 0" type="matrix" in="shadowInnerInner1"></feColorMatrix>
        </filter>
        <filter x="0.0%" y="0.0%" width="100.0%" height="100.0%" filterUnits="objectBoundingBox" id="filter-3">
            <feGaussianBlur stdDeviation="0" in="SourceGraphic"></feGaussianBlur>
        </filter>
    </defs>
    <g id="页面-1" stroke="none" stroke-width="1" fill="none" fill-rule="evenodd">
        <g id="落点切图" transform="translate(-1534.000000, -145.000000)">
            <g id="队伍集群终端备份" transform="translate(1534.000000, 145.000000)">
                <g id="椭圆形备份-5" fill="black" fill-opacity="1">
                    <use filter="url(#filter-2)" xlink:href="#path-1"></use>
                </g>
                <ellipse id="椭圆形备份-6" fill="#8A8F99" opacity="0.703760901" filter="url(#filter-3)" cx="20" cy="41" rx="10" ry="3.5"></ellipse>
                <path d="M20,8 C27.7319865,8 34,14.2680135 34,22 C34,26.4749597 31.9004511,30.4595434 28.6326771,33.0224273 L20,41.6 L11.3885149,33.0390152 C8.108629,30.4767549 6,26.4846258 6,22 C6,14.2680135 12.2680135,8 20,8 Z" id="形状结合" stroke="#FFFFFF" fill="#999999" fill-rule="nonzero"></path>
                <path d="M27.0894946,26.4400039 C28.2857655,26.919424 29,27.5226111 29,28.1783883 C29,29.7362506 24.9702864,31 19.9994136,31 C15.0297276,31 11,29.7362506 11,28.1783883 C11,27.5226112 11.7133548,26.919424 12.9099236,26.4400039 C12.6236462,26.6429611 12.4661044,26.861159 12.4661044,27.0886103 C12.4661044,28.1473152 15.8391909,29.0045586 19.9994089,29.0045586 C24.1608184,29.0045586 27.5333091,28.1473152 27.5333091,27.0886103 C27.5333138,26.8611543 27.3766471,26.6429611 27.0894946,26.4400039 L27.0894946,26.4400039 Z M15.5811283,13.6154412 C16.4846475,13.6154412 17.2171179,14.3602961 17.2171179,15.2788053 C17.2171179,16.1976269 16.4846475,16.9427847 15.5811283,16.9427847 C14.6775952,16.9427847 13.9451387,16.1976222 13.9451387,15.2788053 C13.9451387,14.3602914 14.6775998,13.6154412 15.5811283,13.6154412 L15.5811283,13.6154412 Z M24.3936077,13.6154412 C23.4906564,13.6154412 22.7581999,14.3602961 22.7581999,15.2788053 C22.7581999,16.1976269 23.4906563,16.9427847 24.3936077,16.9427847 C25.2977226,16.9427847 26.0301791,16.1976222 26.0301791,15.2788053 C26.0301791,14.3602914 25.2977226,13.6154412 24.3936077,13.6154412 L24.3936077,13.6154412 Z M22.7773062,23.1834872 L22.7773062,27.568641 L23.9303797,27.568641 L24.3909547,24.4947574 L24.8527166,27.568641 L26.1080703,27.568641 L26.1080703,22.7121181 C26.6056942,22.4478903 26.9478104,21.9182515 26.9478104,21.3096922 L26.9478104,18.825246 C26.9478104,17.9563496 26.2497499,17.2455639 25.3947154,17.2455639 L23.4836049,17.2455639 C23.3604498,17.2455639 23.2396452,17.260213 23.1244258,17.2883042 C23.3804404,17.6861487 23.5291714,18.1605043 23.5291714,18.6692179 L23.5291714,21.3733625 C23.5291761,22.0653103 23.2496335,22.7142243 22.7773062,23.1834872 L22.7773062,23.1834872 Z M20.0270374,13 C21.0099465,13 21.807057,13.8106077 21.807057,14.8101294 C21.807057,15.809954 21.0099464,16.6205617 20.0270374,16.6205617 C19.0435698,16.6205617 18.2467385,15.809954 18.2467385,14.8101294 C18.2467385,13.8106077 19.0435651,13 20.0270374,13 L20.0270374,13 Z M21.7859028,22.9028117 C22.3314204,22.6176635 22.7082397,22.0378107 22.7082397,21.3733625 L22.7082397,18.6692179 C22.7082397,17.7241085 21.9475497,16.9505471 21.0181661,16.9505471 L18.9377662,16.9505471 C18.0077728,16.9505471 17.2473901,17.7241085 17.2473901,18.6692179 L17.2473901,21.3733625 C17.2473901,22.0348288 17.619797,22.6119884 18.1620937,22.8992429 L18.1620937,28.184068 L19.5279659,28.184068 L20.0299743,24.8390936 L20.5314381,28.184068 L21.7859075,28.184068 L21.7859075,22.9028117 L21.7859028,22.9028117 Z M17.1977091,23.1834872 C16.725675,22.7142196 16.4464443,22.0653103 16.4464443,21.3733578 L16.4464443,18.6692132 C16.4464443,18.1604949 16.5945795,17.6861439 16.8508734,17.2882995 C16.735668,17.2602083 16.6151519,17.2455592 16.4917082,17.2455592 L14.5805977,17.2455592 C13.7255679,17.2455592 13.0274888,17.9563449 13.0274888,18.8252413 L13.0274888,21.3096875 C13.0274888,21.9182515 13.3696189,22.4478856 13.8675361,22.7121134 L13.8675361,27.5686363 L15.1226012,27.5686363 L15.5843631,24.4947527 L16.0449381,27.5686363 L17.1977091,27.5686363 L17.1977091,23.1834872 Z" id="形状" fill="#FFFFFF" fill-rule="nonzero"></path>
                <circle id="椭圆形" stroke="#FFFFFF" stroke-width="0.8" fill="#999999" fill-rule="nonzero" cx="33" cy="9" r="8.6"></circle>
                <path d="M31.5214135,1.5 C31.7541461,1.5 31.9479498,1.66211148 31.9670867,1.87268 L31.9682433,1.8885 L32.1044898,4.74562 L32.4502335,4.74562 L32.4502335,5.46977 L35.4195894,5.46977 C36.0082944,5.46977 36.486892,5.89712 36.4997687,6.42863 L36.5,6.45054 L36.5,14.51923 C36.5,15.05354 36.0293444,15.4881 35.4436465,15.49972 L35.4195894,15.5 L30.4138615,15.5 C29.8260046,15.5 29.5092527,15.07349 29.5001542,14.54268 L29.5,14.5193 L29.5,6.45054 C29.5,5.91623 29.9707327,5.48167 30.5560451,5.47005 L30.5801793,5.46977 L30.5913597,5.46977 L30.5913597,4.74562 L30.9367179,4.74562 L31.0745836,1.88829 C31.085066,1.67115866 31.2820103,1.5 31.5214135,1.5 Z M31.35441,10.3666667 L30.64559,10.3666667 C30.6069829,10.3666483 30.5699514,10.3834434 30.5426462,10.4133552 C30.5153409,10.4432669 30.5,10.4838438 30.5,10.5261547 L30.5,11.140512 C30.5,11.1828228 30.5153409,11.2233997 30.5426462,11.2533115 C30.5699514,11.2832233 30.6069829,11.3000183 30.64559,11.3 L31.35441,11.3 C31.3930171,11.3000183 31.4300486,11.2832233 31.4573538,11.2533115 C31.4846591,11.2233997 31.5,11.1828228 31.5,11.140512 L31.5,10.5261547 C31.5,10.4838438 31.4846591,10.4432669 31.4573538,10.4133552 C31.4300486,10.3834434 31.3930171,10.3666483 31.35441,10.3666667 L31.35441,10.3666667 Z M33.3545271,10.3666667 L32.6455992,10.3666667 C32.6069897,10.3666483 32.5699558,10.3834434 32.5426488,10.4133552 C32.5153419,10.4432669 32.5,10.4838438 32.5,10.5261547 L32.5,11.140512 C32.5,11.1828228 32.5153419,11.2233997 32.5426488,11.2533115 C32.5699558,11.2832233 32.6069897,11.3000183 32.6455992,11.3 L33.3544639,11.3 C33.4348413,11.3 33.5,11.2285948 33.5,11.140512 L33.5,10.5261547 C33.5,10.4380719 33.4348413,10.3666667 33.3544639,10.3666667 L33.3545271,10.3666667 Z M35.3544731,10.3666667 L34.64559,10.3666667 C34.6069829,10.3666483 34.5699514,10.3834434 34.5426462,10.4133552 C34.5153409,10.4432669 34.5,10.4838438 34.5,10.5261547 L34.5,11.140512 C34.5,11.1828228 34.5153409,11.2233997 34.5426462,11.2533115 C34.5699514,11.2832233 34.6069829,11.3000183 34.64559,11.3 L35.3544731,11.3 C35.4348454,11.3 35.5,11.2285948 35.5,11.140512 L35.5,10.5261547 C35.5,10.4380719 35.4348454,10.3666667 35.3544731,10.3666667 Z M35.0848025,6.16666667 L30.9151975,6.16666667 C30.6858902,6.16666667 30.5,6.35076384 30.5,6.57785921 L30.5,9.02221704 C30.5,9.24928263 30.6859203,9.43333333 30.9151975,9.43333333 L35.0848795,9.43333333 C35.3141266,9.43329124 35.5,9.24925286 35.5,9.02221704 L35.5,6.57778296 C35.5,6.35071737 35.3140797,6.16666667 35.0848025,6.16666667 Z M34.9245283,6.63333333 C34.9662102,6.63333333 35,6.66703233 35,6.70860215 L35,8.89139785 C35,8.93296767 34.9662102,8.96666667 34.9245283,8.96666667 L31.0754717,8.96666667 C31.0337898,8.96666667 31,8.93296767 31,8.89139785 L31,6.70860215 C31,6.66703233 31.0337898,6.63333333 31.0754717,6.63333333 L34.9245283,6.63333333 Z" id="形状备份-16" fill="#FFFFFF" fill-rule="nonzero"></path>
            </g>
        </g>
    </g>
</svg>