<?xml version="1.0" encoding="UTF-8"?>
<svg width="42px" height="48px" viewBox="0 0 42 48" version="1.1" xmlns="http://www.w3.org/2000/svg" xmlns:xlink="http://www.w3.org/1999/xlink">
    <title>队伍Wecomm备份</title>
    <defs>
        <ellipse id="path-1" cx="20" cy="41" rx="20" ry="7"></ellipse>
        <filter x="-7.5%" y="-21.4%" width="115.0%" height="142.9%" filterUnits="objectBoundingBox" id="filter-2">
            <feGaussianBlur stdDeviation="3" in="SourceAlpha" result="shadowBlurInner1"></feGaussianBlur>
            <feOffset dx="0" dy="0" in="shadowBlurInner1" result="shadowOffsetInner1"></feOffset>
            <feComposite in="shadowOffsetInner1" in2="SourceAlpha" operator="arithmetic" k2="-1" k3="1" result="shadowInnerInner1"></feComposite>
            <feColorMatrix values="0 0 0 0 0.541176471   0 0 0 0 0.560784314   0 0 0 0 0.6  0 0 0 1 0" type="matrix" in="shadowInnerInner1"></feColorMatrix>
        </filter>
        <filter x="0.0%" y="0.0%" width="100.0%" height="100.0%" filterUnits="objectBoundingBox" id="filter-3">
            <feGaussianBlur stdDeviation="0" in="SourceGraphic"></feGaussianBlur>
        </filter>
    </defs>
    <g id="页面-1" stroke="none" stroke-width="1" fill="none" fill-rule="evenodd">
        <g id="落点切图" transform="translate(-1461.000000, -145.000000)">
            <g id="队伍Wecomm备份" transform="translate(1461.000000, 145.000000)">
                <g id="椭圆形备份-7" fill="black" fill-opacity="1">
                    <use filter="url(#filter-2)" xlink:href="#path-1"></use>
                </g>
                <ellipse id="椭圆形备份-8" fill="#8A8F99" opacity="0.703760901" filter="url(#filter-3)" cx="20" cy="41" rx="10" ry="3.5"></ellipse>
                <path d="M20,8 C27.7319865,8 34,14.2680135 34,22 C34,26.4749597 31.9004511,30.4595434 28.6326771,33.0224273 L20,41.6 L11.3885149,33.0390152 C8.108629,30.4767549 6,26.4846258 6,22 C6,14.2680135 12.2680135,8 20,8 Z" id="形状结合" stroke="#FFFFFF" fill="#999999" fill-rule="nonzero"></path>
                <path d="M27.0894946,26.4400039 C28.2857655,26.919424 29,27.5226111 29,28.1783883 C29,29.7362506 24.9702864,31 19.9994136,31 C15.0297276,31 11,29.7362506 11,28.1783883 C11,27.5226112 11.7133548,26.919424 12.9099236,26.4400039 C12.6236462,26.6429611 12.4661044,26.861159 12.4661044,27.0886103 C12.4661044,28.1473152 15.8391909,29.0045586 19.9994089,29.0045586 C24.1608184,29.0045586 27.5333091,28.1473152 27.5333091,27.0886103 C27.5333138,26.8611543 27.3766471,26.6429611 27.0894946,26.4400039 L27.0894946,26.4400039 Z M15.5811283,13.6154412 C16.4846475,13.6154412 17.2171179,14.3602961 17.2171179,15.2788053 C17.2171179,16.1976269 16.4846475,16.9427847 15.5811283,16.9427847 C14.6775952,16.9427847 13.9451387,16.1976222 13.9451387,15.2788053 C13.9451387,14.3602914 14.6775998,13.6154412 15.5811283,13.6154412 L15.5811283,13.6154412 Z M24.3936077,13.6154412 C23.4906564,13.6154412 22.7581999,14.3602961 22.7581999,15.2788053 C22.7581999,16.1976269 23.4906563,16.9427847 24.3936077,16.9427847 C25.2977226,16.9427847 26.0301791,16.1976222 26.0301791,15.2788053 C26.0301791,14.3602914 25.2977226,13.6154412 24.3936077,13.6154412 L24.3936077,13.6154412 Z M22.7773062,23.1834872 L22.7773062,27.568641 L23.9303797,27.568641 L24.3909547,24.4947574 L24.8527166,27.568641 L26.1080703,27.568641 L26.1080703,22.7121181 C26.6056942,22.4478903 26.9478104,21.9182515 26.9478104,21.3096922 L26.9478104,18.825246 C26.9478104,17.9563496 26.2497499,17.2455639 25.3947154,17.2455639 L23.4836049,17.2455639 C23.3604498,17.2455639 23.2396452,17.260213 23.1244258,17.2883042 C23.3804404,17.6861487 23.5291714,18.1605043 23.5291714,18.6692179 L23.5291714,21.3733625 C23.5291761,22.0653103 23.2496335,22.7142243 22.7773062,23.1834872 L22.7773062,23.1834872 Z M20.0270374,13 C21.0099465,13 21.807057,13.8106077 21.807057,14.8101294 C21.807057,15.809954 21.0099464,16.6205617 20.0270374,16.6205617 C19.0435698,16.6205617 18.2467385,15.809954 18.2467385,14.8101294 C18.2467385,13.8106077 19.0435651,13 20.0270374,13 L20.0270374,13 Z M21.7859028,22.9028117 C22.3314204,22.6176635 22.7082397,22.0378107 22.7082397,21.3733625 L22.7082397,18.6692179 C22.7082397,17.7241085 21.9475497,16.9505471 21.0181661,16.9505471 L18.9377662,16.9505471 C18.0077728,16.9505471 17.2473901,17.7241085 17.2473901,18.6692179 L17.2473901,21.3733625 C17.2473901,22.0348288 17.619797,22.6119884 18.1620937,22.8992429 L18.1620937,28.184068 L19.5279659,28.184068 L20.0299743,24.8390936 L20.5314381,28.184068 L21.7859075,28.184068 L21.7859075,22.9028117 L21.7859028,22.9028117 Z M17.1977091,23.1834872 C16.725675,22.7142196 16.4464443,22.0653103 16.4464443,21.3733578 L16.4464443,18.6692132 C16.4464443,18.1604949 16.5945795,17.6861439 16.8508734,17.2882995 C16.735668,17.2602083 16.6151519,17.2455592 16.4917082,17.2455592 L14.5805977,17.2455592 C13.7255679,17.2455592 13.0274888,17.9563449 13.0274888,18.8252413 L13.0274888,21.3096875 C13.0274888,21.9182515 13.3696189,22.4478856 13.8675361,22.7121134 L13.8675361,27.5686363 L15.1226012,27.5686363 L15.5843631,24.4947527 L16.0449381,27.5686363 L17.1977091,27.5686363 L17.1977091,23.1834872 Z" id="形状" fill="#FFFFFF" fill-rule="nonzero"></path>
                <circle id="椭圆形" stroke="#FFFFFF" stroke-width="0.8" fill="#999999" fill-rule="nonzero" cx="33" cy="9" r="8.6"></circle>
                <path d="M30.4412289,3.5 L35.5587711,3.5 C36.0761354,3.5 36.5,3.9392249 36.5,4.47533764 L36.5,13.5246624 C36.5,14.0607751 36.0761354,14.5 35.5587711,14.5 L30.4412289,14.5 C29.9238646,14.5 29.5,14.0607751 29.5,13.5246624 L29.5,4.47533764 C29.5,3.9392249 29.9238646,3.5 30.4412289,3.5 Z M30.2853963,5.06958309 L30.2853963,8.9386377 L35.6834372,8.9386377 L35.6834372,5.06958309 L30.2853963,5.06958309 Z M31.6691897,4.01027598 L31.6691897,4.42366412 L34.1251113,4.42366412 L34.1251113,4.01027598 L31.6691897,4.01027598 Z M32.435886,9.35848503 C32.2551202,9.35848503 32.1055209,9.51350558 32.1055209,9.70082208 L32.1055209,10.2304756 C32.1055209,10.4177921 32.2551202,10.5728127 32.435886,10.5728127 L33.4394479,10.5728127 C33.6202137,10.5728127 33.769813,10.4177921 33.769813,10.2304756 L33.769813,9.70082208 C33.769813,9.51350558 33.6202137,9.35848503 33.4394479,9.35848503 L32.435886,9.35848503 Z M31.8686554,9.77833235 L30.3788958,9.77833235 L30.3788958,10.1529654 L31.8686554,10.1529654 L31.8686554,9.77833235 Z M35.4964381,9.77833235 L34.0066785,9.77833235 L34.0066785,10.1529654 L35.4964381,10.1529654 L35.4964381,9.77833235 Z M31.8624221,10.9022314 L30.3726625,10.9022314 L30.3726625,11.6321198 L31.8624221,11.6321198 L31.8624221,10.9022314 Z M33.6825467,10.9022314 L32.1865539,10.9022314 L32.1865539,11.6321198 L33.6763134,11.6321198 L33.6763134,10.9022314 L33.6825467,10.9022314 Z M35.4839715,10.9022314 L33.9942119,10.9022314 L33.9942119,11.6321198 L35.4839715,11.6321198 L35.4839715,10.9022314 L35.4839715,10.9022314 Z M31.8624221,11.8517322 L30.3726625,11.8517322 L30.3726625,12.5816207 L31.8624221,12.5816207 L31.8624221,11.8517322 L31.8624221,11.8517322 Z M33.6825467,11.8517322 L32.1865539,11.8517322 L32.1865539,12.5816207 L33.6763134,12.5816207 L33.6763134,11.8517322 L33.6825467,11.8517322 Z M35.4839715,11.8517322 L33.9942119,11.8517322 L33.9942119,12.5816207 L35.4839715,12.5816207 L35.4839715,11.8517322 L35.4839715,11.8517322 Z M31.8624221,12.865825 L30.3726625,12.865825 L30.3726625,13.5957134 L31.8624221,13.5957134 L31.8624221,12.865825 L31.8624221,12.865825 Z M33.6825467,12.865825 L32.1865539,12.865825 L32.1865539,13.5957134 L33.6763134,13.5957134 L33.6763134,12.865825 L33.6825467,12.865825 Z M35.4839715,12.865825 L33.9942119,12.865825 L33.9942119,13.5957134 L35.4839715,13.5957134 L35.4839715,12.865825 L35.4839715,12.865825 Z" id="形状备份-31" fill="#FFFFFF" fill-rule="nonzero"></path>
            </g>
        </g>
    </g>
</svg>