<?xml version="1.0" encoding="UTF-8"?>
<svg width="46px" height="46px" viewBox="0 0 46 46" version="1.1" xmlns="http://www.w3.org/2000/svg" xmlns:xlink="http://www.w3.org/1999/xlink">
    <title>应急专家备份 2</title>
    <defs>
        <ellipse id="path-1" cx="20" cy="33" rx="20" ry="7"></ellipse>
        <filter x="-10.0%" y="-28.6%" width="120.0%" height="157.1%" filterUnits="objectBoundingBox" id="filter-2">
            <feGaussianBlur stdDeviation="4" in="SourceAlpha" result="shadowBlurInner1"></feGaussianBlur>
            <feOffset dx="0" dy="0" in="shadowBlurInner1" result="shadowOffsetInner1"></feOffset>
            <feComposite in="shadowOffsetInner1" in2="SourceAlpha" operator="arithmetic" k2="-1" k3="1" result="shadowInnerInner1"></feComposite>
            <feColorMatrix values="0 0 0 0 0   0 0 0 0 0.568627451   0 0 0 0 1  0 0 0 1 0" type="matrix" in="shadowInnerInner1"></feColorMatrix>
        </filter>
        <filter x="0.0%" y="0.0%" width="100.0%" height="100.0%" filterUnits="objectBoundingBox" id="filter-3">
            <feGaussianBlur stdDeviation="0" in="SourceGraphic"></feGaussianBlur>
        </filter>
        <linearGradient x1="-15.5024662%" y1="-16.1001126%" x2="100%" y2="100%" id="linearGradient-4">
            <stop stop-color="#3BF3A8" offset="0%"></stop>
            <stop stop-color="#46D0ED" offset="100%"></stop>
        </linearGradient>
    </defs>
    <g id="页面-1" stroke="none" stroke-width="1" fill="none" fill-rule="evenodd">
        <g id="落点切图" transform="translate(-976.000000, -71.000000)">
            <g id="应急专家备份-2" transform="translate(976.000000, 71.000000)">
                <g id="编组-15" transform="translate(3.000000, 3.000000)">
                    <g id="椭圆形备份-55" fill="black" fill-opacity="1">
                        <use filter="url(#filter-2)" xlink:href="#path-1"></use>
                    </g>
                    <ellipse id="椭圆形备份-56" fill="#00519B" opacity="0.703760901" filter="url(#filter-3)" cx="20" cy="33" rx="10" ry="3.5"></ellipse>
                    <path d="M20,0.5 C23.7279221,0.5 27.1029221,2.01103897 29.5459415,4.45405845 C31.988961,6.89707794 33.5,10.2720779 33.5,14 C33.5,18.3257105 31.4654458,22.1761668 28.3012384,24.6468968 L28.3012384,24.6468968 L20.000092,32.895055 L11.7196612,24.6631831 C8.54351615,22.1931056 6.5,18.3352269 6.5,14 C6.5,10.2720779 8.01103897,6.89707794 10.4540585,4.45405845 C12.8970779,2.01103897 16.2720779,0.5 20,0.5 Z" id="形状结合" stroke="#FFFFFF" fill="#0091FF" fill-rule="nonzero"></path>
                    <path d="M29.460566,19.2010547 C29.1533957,18.318223 28.1372185,18.1916927 27.2875881,17.8359934 C26.3548129,17.446347 25.3208392,16.9934096 24.3904557,16.6148732 C24.1249993,16.5430698 23.8590285,16.4714979 23.593572,16.3994888 C23.2766033,16.1828699 22.966527,15.4641161 22.7970484,15.1065908 C22.6279555,15.082905 22.4593513,15.0588591 22.2898985,15.0350189 C22.3162075,14.4816546 22.6611569,14.4522337 22.7970484,14.0296688 C22.9165063,13.6563016 22.8093413,13.1718345 22.9988539,12.8272452 C23.1306049,12.5874292 23.4273853,12.5858347 23.5761355,12.3807116 C23.7107154,12.1941051 23.7995181,11.8692669 23.8416691,11.6405093 C23.918616,11.2233194 23.9851987,10.6520814 23.7856306,10.238389 C23.6705189,10.0003989 23.5979183,9.97758744 23.5659514,9.68888232 C23.5273751,9.33920093 23.6700817,8.19795935 23.6758939,7.95145672 C23.6904243,7.31124426 23.6746594,7.25944915 23.5188625,6.63572164 C23.5188625,6.63572164 23.3289128,6.07081015 23.031618,5.90112583 L22.4390087,5.7994644 L22.0726881,5.46331043 C20.596887,4.56209067 19.0146154,5.19407349 18.1670938,5.5349595 C16.9457678,5.92766635 16.1739587,7.11396505 16.7130755,9.64737424 C16.8047071,10.079969 16.4739281,10.2733392 16.4955051,10.5092976 C16.5425939,11.0258858 16.5529067,12.2673487 17.0447289,12.5732845 C17.0905833,12.6010337 17.4394674,12.6882419 17.4373586,12.664196 C17.4856819,13.1673597 17.5336451,13.6703433 17.5821741,14.1728641 C17.7049753,14.5069864 17.9997241,14.5438396 18.0851835,15.015525 L17.7078814,15.1066423 C17.5387886,15.4641675 17.2283522,16.1829213 16.9109206,16.3995402 C16.645387,16.4715493 16.3799305,16.5431212 16.1143969,16.6149246 C15.1841163,16.9934611 14.1496797,17.4463984 13.2172645,17.8360449 C12.3680713,18.1917442 11.3515084,18.3182745 11.0439266,19.2011062 C11.0439266,19.8006078 10.9874509,21.2172071 11.0025728,22.0023893 L19.1224747,22.0023893 L19.7184273,17.9646069 L19.223056,16.9278556 L20.3672037,16.3839297 L21.3304799,16.9165142 L20.7994898,17.9845894 L21.7388744,22.0023893 L29.5022027,22.0023893 C29.5178389,21.2171556 29.460566,19.8005821 29.460566,19.2010547" id="路径" fill="#FFFFFF" fill-rule="nonzero"></path>
                </g>
                <g id="扫描" fill="url(#linearGradient-4)" fill-rule="nonzero">
                    <path d="M45.724,45.724 C45.54,45.908 45.356,46 45.08,46 L37.72,46 C37.26,46 36.8,45.632 36.8,45.08 C36.8,44.5280001 37.26,44.16 37.72,44.16 L44.16,44.16 L44.16,37.72 C44.16,37.26 44.528,36.8 45.08,36.8 C45.6320001,36.8 46,37.26 46,37.72 L46,45.08 C46,45.356 45.908,45.54 45.724,45.724 L45.724,45.724 Z M45.724,0.275999986 C45.54,0.0919999641 45.356,0 45.08,0 L37.72,0 C37.26,0 36.8,0.367999997 36.8,0.919999968 C36.8,1.47199994 37.26,1.83999998 37.72,1.83999998 L44.16,1.83999998 L44.16,8.27999999 C44.16,8.74 44.528,9.20000001 45.08,9.20000001 C45.6320001,9.20000001 46,8.74 46,8.27999999 L46,0.919999968 C46,0.643999982 45.908,0.459999961 45.724,0.275999986 Z M0.275999986,45.724 C0.460000007,45.908 0.643999982,46 0.919999968,46 L8.27999999,46 C8.74,46 9.20000001,45.632 9.20000001,45.08 C9.20000001,44.5280001 8.74,44.16 8.27999999,44.16 L1.83999998,44.16 L1.83999998,37.72 C1.83999998,37.26 1.47199999,36.8 0.919999968,36.8 C0.36799995,36.8 0,37.26 0,37.72 L0,45.08 C0,45.356 0.0920000108,45.54 0.275999986,45.724 L0.275999986,45.724 Z M0.275999986,0.275999986 C0.460000007,0.0919999641 0.643999982,0 0.919999968,0 L8.27999999,0 C8.74,0 9.20000001,0.367999997 9.20000001,0.919999968 C9.20000001,1.47199994 8.74,1.83999998 8.27999999,1.83999998 L1.83999998,1.83999998 L1.83999998,8.27999999 C1.83999998,8.74 1.47199999,9.20000001 0.919999968,9.20000001 C0.36799995,9.20000001 0,8.74 0,8.27999999 L0,0.919999968 C0,0.643999982 0.0920000108,0.459999961 0.275999986,0.275999986 Z" id="形状"></path>
                </g>
            </g>
        </g>
    </g>
</svg>