<?xml version="1.0" encoding="UTF-8"?>
<svg width="46px" height="46px" viewBox="0 0 46 46" version="1.1" xmlns="http://www.w3.org/2000/svg" xmlns:xlink="http://www.w3.org/1999/xlink">
    <title>应急物资库备份 3</title>
    <defs>
        <ellipse id="path-1" cx="20" cy="33" rx="20" ry="7"></ellipse>
        <filter x="-7.5%" y="-21.4%" width="115.0%" height="142.9%" filterUnits="objectBoundingBox" id="filter-2">
            <feGaussianBlur stdDeviation="3" in="SourceAlpha" result="shadowBlurInner1"></feGaussianBlur>
            <feOffset dx="0" dy="0" in="shadowBlurInner1" result="shadowOffsetInner1"></feOffset>
            <feComposite in="shadowOffsetInner1" in2="SourceAlpha" operator="arithmetic" k2="-1" k3="1" result="shadowInnerInner1"></feComposite>
            <feColorMatrix values="0 0 0 0 0.541176471   0 0 0 0 0.560784314   0 0 0 0 0.6  0 0 0 1 0" type="matrix" in="shadowInnerInner1"></feColorMatrix>
        </filter>
        <filter x="0.0%" y="0.0%" width="100.0%" height="100.0%" filterUnits="objectBoundingBox" id="filter-3">
            <feGaussianBlur stdDeviation="0" in="SourceGraphic"></feGaussianBlur>
        </filter>
        <linearGradient x1="-15.5024662%" y1="-16.1001126%" x2="100%" y2="100%" id="linearGradient-4">
            <stop stop-color="#3BF3A8" offset="0%"></stop>
            <stop stop-color="#46D0ED" offset="100%"></stop>
        </linearGradient>
    </defs>
    <g id="页面-1" stroke="none" stroke-width="1" fill="none" fill-rule="evenodd">
        <g id="落点切图" transform="translate(-692.000000, -202.000000)">
            <g id="应急物资库备份-3" transform="translate(692.000000, 202.000000)">
                <g id="编组-11" transform="translate(3.000000, 3.000000)">
                    <g id="椭圆形备份-99" fill="black" fill-opacity="1">
                        <use filter="url(#filter-2)" xlink:href="#path-1"></use>
                    </g>
                    <ellipse id="椭圆形备份-100" fill="#8A8F99" opacity="0.703760901" filter="url(#filter-3)" cx="20" cy="33" rx="10" ry="3.5"></ellipse>
                    <path d="M20,-2.13162821e-14 C27.7319865,-2.13162821e-14 34,6.2680135 34,14 C34,18.4749597 31.9004511,22.4595434 28.6326771,25.0224273 L20,33.6 L11.3885149,25.0390152 C8.108629,22.4767549 6,18.4846258 6,14 C6,6.2680135 12.2680135,-2.13162821e-14 20,-2.13162821e-14 Z" id="形状结合" stroke="#FFFFFF" fill="#999999" fill-rule="nonzero"></path>
                    <path d="M16.8706343,12.7857045 L24.2359838,12.7857045 C24.4556629,12.7823756 24.6319703,12.6033302 24.6319703,12.3836258 L24.6319703,5.37771031 C24.6192284,5.16754727 24.446514,5.00280432 24.2359838,5.00000004 L16.8706343,5.00000004 C16.6532449,4.99990025 16.4751432,5.17260493 16.4685557,5.38989452 L16.4685557,12.39581 C16.4751432,12.6130996 16.6532449,12.7858043 16.8706343,12.7857045 L16.8706343,12.7857045 Z M18.3236003,7.60741908 C18.3252587,7.38436547 18.5056713,7.20395286 18.728725,7.2022944 L22.3839852,7.2022944 C22.6065389,7.20396779 22.7860639,7.38485908 22.7860639,7.60741908 L22.7860639,8.31714879 L18.728725,8.31714879 C18.506165,8.31714879 18.3252737,8.13762387 18.3236003,7.91507016 L18.3236003,7.60741908 Z M19.4079942,13.9005589 L12.4020786,13.9005589 C12.1800167,13.9005589 12,14.0805756 12,14.3026375 L12,21.6679869 C12.0031829,21.7746413 12.0486289,21.8756568 12.1263292,21.9487865 C12.2040295,22.0219162 12.3076114,22.0611622 12.4142628,22.0578814 L19.4201784,22.0578814 C19.6422403,22.0578814 19.822257,21.8778646 19.822257,21.6558027 L19.822257,14.3026375 C19.822257,14.1938546 19.7782768,14.0896936 19.7002163,14.013929 C19.6221558,13.9381644 19.5167271,13.8972624 19.4079942,13.9005589 Z M17.9550282,16.8399973 C17.9533548,17.062551 17.7724635,17.242076 17.5499035,17.242076 L14.2753995,17.242076 C14.0528395,17.242076 13.8719482,17.062551 13.8702748,16.8399973 L13.8702748,16.5353923 C13.8702748,16.3111501 14.0511635,16.128895 14.2753995,16.1272216 L17.5499035,16.1272216 C17.7729571,16.12888 17.9533697,16.3092926 17.9550282,16.5323463 L17.9550282,16.8399973 Z M28.3207371,13.9005589 L21.3148216,13.9005589 C21.0927597,13.9005589 20.912743,14.0805756 20.912743,14.3026375 L20.912743,21.6679869 C20.9159259,21.7746413 20.9613719,21.8756568 21.0390722,21.9487865 C21.1167725,22.0219162 21.2203544,22.0611622 21.3270058,22.0578814 L28.3329213,22.0578814 C28.5549832,22.0578814 28.735,21.8778646 28.735,21.6558027 L28.735,14.3026375 C28.735,14.1938546 28.6910197,14.0896936 28.6129592,14.013929 C28.5348987,13.9381644 28.4294701,13.8972624 28.3207371,13.9005589 L28.3207371,13.9005589 Z M26.8677712,16.8399973 C26.8669663,16.947444 26.8235099,17.0501699 26.7469623,17.1255749 C26.6704148,17.20098 26.5670471,17.2428869 26.4596004,17.242076 L23.1850964,17.242076 C22.9625364,17.2420875 22.7816451,17.062551 22.7799718,16.8399973 L22.7799718,16.5353923 C22.7816302,16.3123387 22.9620428,16.1319261 23.1850964,16.1302676 L26.4596004,16.1302676 C26.6826541,16.1319261 26.8630667,16.3123387 26.8647251,16.5353923 L26.8677712,16.8399973 Z" id="形状备份-23" fill="#FFFFFF" fill-rule="nonzero"></path>
                </g>
                <g id="扫描备份-14" fill="url(#linearGradient-4)" fill-rule="nonzero">
                    <path d="M45.724,45.724 C45.54,45.908 45.356,46 45.08,46 L37.72,46 C37.26,46 36.8,45.632 36.8,45.08 C36.8,44.5280001 37.26,44.16 37.72,44.16 L44.16,44.16 L44.16,37.72 C44.16,37.26 44.528,36.8 45.08,36.8 C45.6320001,36.8 46,37.26 46,37.72 L46,45.08 C46,45.356 45.908,45.54 45.724,45.724 L45.724,45.724 Z M45.724,0.275999986 C45.54,0.0919999641 45.356,0 45.08,0 L37.72,0 C37.26,0 36.8,0.367999997 36.8,0.919999968 C36.8,1.47199994 37.26,1.83999998 37.72,1.83999998 L44.16,1.83999998 L44.16,8.27999999 C44.16,8.74 44.528,9.20000001 45.08,9.20000001 C45.6320001,9.20000001 46,8.74 46,8.27999999 L46,0.919999968 C46,0.643999982 45.908,0.459999961 45.724,0.275999986 Z M0.275999986,45.724 C0.460000007,45.908 0.643999982,46 0.919999968,46 L8.27999999,46 C8.74,46 9.20000001,45.632 9.20000001,45.08 C9.20000001,44.5280001 8.74,44.16 8.27999999,44.16 L1.83999998,44.16 L1.83999998,37.72 C1.83999998,37.26 1.47199999,36.8 0.919999968,36.8 C0.36799995,36.8 0,37.26 0,37.72 L0,45.08 C0,45.356 0.0920000108,45.54 0.275999986,45.724 L0.275999986,45.724 Z M0.275999986,0.275999986 C0.460000007,0.0919999641 0.643999982,0 0.919999968,0 L8.27999999,0 C8.74,0 9.20000001,0.367999997 9.20000001,0.919999968 C9.20000001,1.47199994 8.74,1.83999998 8.27999999,1.83999998 L1.83999998,1.83999998 L1.83999998,8.27999999 C1.83999998,8.74 1.47199999,9.20000001 0.919999968,9.20000001 C0.36799995,9.20000001 0,8.74 0,8.27999999 L0,0.919999968 C0,0.643999982 0.0920000108,0.459999961 0.275999986,0.275999986 Z" id="形状"></path>
                </g>
            </g>
        </g>
    </g>
</svg>