<?xml version="1.0" encoding="UTF-8"?>
<svg width="42px" height="48px" viewBox="0 0 42 48" version="1.1" xmlns="http://www.w3.org/2000/svg" xmlns:xlink="http://www.w3.org/1999/xlink">
    <title>人员集群终端备份</title>
    <defs>
        <ellipse id="path-1" cx="20" cy="41" rx="20" ry="7"></ellipse>
        <filter x="-7.5%" y="-21.4%" width="115.0%" height="142.9%" filterUnits="objectBoundingBox" id="filter-2">
            <feGaussianBlur stdDeviation="3" in="SourceAlpha" result="shadowBlurInner1"></feGaussianBlur>
            <feOffset dx="0" dy="0" in="shadowBlurInner1" result="shadowOffsetInner1"></feOffset>
            <feComposite in="shadowOffsetInner1" in2="SourceAlpha" operator="arithmetic" k2="-1" k3="1" result="shadowInnerInner1"></feComposite>
            <feColorMatrix values="0 0 0 0 0.541176471   0 0 0 0 0.560784314   0 0 0 0 0.6  0 0 0 1 0" type="matrix" in="shadowInnerInner1"></feColorMatrix>
        </filter>
        <filter x="0.0%" y="0.0%" width="100.0%" height="100.0%" filterUnits="objectBoundingBox" id="filter-3">
            <feGaussianBlur stdDeviation="0" in="SourceGraphic"></feGaussianBlur>
        </filter>
    </defs>
    <g id="页面-1" stroke="none" stroke-width="1" fill="none" fill-rule="evenodd">
        <g id="落点切图" transform="translate(-1388.000000, -145.000000)">
            <g id="人员集群终端备份" transform="translate(1388.000000, 145.000000)">
                <g id="椭圆形备份-9" fill="black" fill-opacity="1">
                    <use filter="url(#filter-2)" xlink:href="#path-1"></use>
                </g>
                <ellipse id="椭圆形备份-10" fill="#8A8F99" opacity="0.703760901" filter="url(#filter-3)" cx="20" cy="41" rx="10" ry="3.5"></ellipse>
                <path d="M20,8 C27.7319865,8 34,14.2680135 34,22 C34,26.4749597 31.9004511,30.4595434 28.6326771,33.0224273 L20,41.6 L11.3885149,33.0390152 C8.108629,30.4767549 6,26.4846258 6,22 C6,14.2680135 12.2680135,8 20,8 Z" id="形状结合" stroke="#FFFFFF" fill="#999999" fill-rule="nonzero"></path>
                <path d="M24.1235359,23.8414919 C26.2889595,25.1879527 27.7948495,27.5507532 28,30.2910238 C27.2418269,30.3916825 25.8934169,30.5 23.9694705,30.5 L23.9694705,30.5 L16.0278865,30.5 C14.1048276,30.5 12.7572664,30.3916825 12,30.2910238 C12.2068482,27.5524887 13.7127575,25.1879527 15.8755766,23.8414919 C17.0180066,24.7208217 18.4365235,25.2683514 20.0004244,25.2683514 C21.5643061,25.2683514 22.9837297,24.7225006 24.1235359,23.8414919 Z M20.0004244,13.5 C22.9499495,13.5 25.3507732,15.8467094 25.3507732,18.7308374 C25.3507732,21.6132488 22.9499495,23.9608448 20.0004244,23.9608448 C17.0500119,23.9608448 14.6509244,21.6132299 14.6509244,18.7308374 C14.6509244,15.8467094 17.0517675,13.5 20.0004244,13.5 Z" id="形状结合备份-2" fill="#FFFFFF" fill-rule="nonzero"></path>
                <circle id="椭圆形" stroke="#FFFFFF" stroke-width="0.8" fill="#999999" fill-rule="nonzero" cx="33" cy="9" r="8.6"></circle>
                <path d="M31.5214135,1.5 C31.7541461,1.5 31.9479498,1.66211148 31.9670867,1.87268 L31.9682433,1.8885 L32.1044898,4.74562 L32.4502335,4.74562 L32.4502335,5.46977 L35.4195894,5.46977 C36.0082944,5.46977 36.486892,5.89712 36.4997687,6.42863 L36.5,6.45054 L36.5,14.51923 C36.5,15.05354 36.0293444,15.4881 35.4436465,15.49972 L35.4195894,15.5 L30.4138615,15.5 C29.8260046,15.5 29.5092527,15.07349 29.5001542,14.54268 L29.5,14.5193 L29.5,6.45054 C29.5,5.91623 29.9707327,5.48167 30.5560451,5.47005 L30.5801793,5.46977 L30.5913597,5.46977 L30.5913597,4.74562 L30.9367179,4.74562 L31.0745836,1.88829 C31.085066,1.67115866 31.2820103,1.5 31.5214135,1.5 Z M31.35441,10.3666667 L30.64559,10.3666667 C30.6069829,10.3666483 30.5699514,10.3834434 30.5426462,10.4133552 C30.5153409,10.4432669 30.5,10.4838438 30.5,10.5261547 L30.5,11.140512 C30.5,11.1828228 30.5153409,11.2233997 30.5426462,11.2533115 C30.5699514,11.2832233 30.6069829,11.3000183 30.64559,11.3 L31.35441,11.3 C31.3930171,11.3000183 31.4300486,11.2832233 31.4573538,11.2533115 C31.4846591,11.2233997 31.5,11.1828228 31.5,11.140512 L31.5,10.5261547 C31.5,10.4838438 31.4846591,10.4432669 31.4573538,10.4133552 C31.4300486,10.3834434 31.3930171,10.3666483 31.35441,10.3666667 L31.35441,10.3666667 Z M33.3545271,10.3666667 L32.6455992,10.3666667 C32.6069897,10.3666483 32.5699558,10.3834434 32.5426488,10.4133552 C32.5153419,10.4432669 32.5,10.4838438 32.5,10.5261547 L32.5,11.140512 C32.5,11.1828228 32.5153419,11.2233997 32.5426488,11.2533115 C32.5699558,11.2832233 32.6069897,11.3000183 32.6455992,11.3 L33.3544639,11.3 C33.4348413,11.3 33.5,11.2285948 33.5,11.140512 L33.5,10.5261547 C33.5,10.4380719 33.4348413,10.3666667 33.3544639,10.3666667 L33.3545271,10.3666667 Z M35.3544731,10.3666667 L34.64559,10.3666667 C34.6069829,10.3666483 34.5699514,10.3834434 34.5426462,10.4133552 C34.5153409,10.4432669 34.5,10.4838438 34.5,10.5261547 L34.5,11.140512 C34.5,11.1828228 34.5153409,11.2233997 34.5426462,11.2533115 C34.5699514,11.2832233 34.6069829,11.3000183 34.64559,11.3 L35.3544731,11.3 C35.4348454,11.3 35.5,11.2285948 35.5,11.140512 L35.5,10.5261547 C35.5,10.4380719 35.4348454,10.3666667 35.3544731,10.3666667 Z M35.0848025,6.16666667 L30.9151975,6.16666667 C30.6858902,6.16666667 30.5,6.35076384 30.5,6.57785921 L30.5,9.02221704 C30.5,9.24928263 30.6859203,9.43333333 30.9151975,9.43333333 L35.0848795,9.43333333 C35.3141266,9.43329124 35.5,9.24925286 35.5,9.02221704 L35.5,6.57778296 C35.5,6.35071737 35.3140797,6.16666667 35.0848025,6.16666667 Z M34.9245283,6.63333333 C34.9662102,6.63333333 35,6.66703233 35,6.70860215 L35,8.89139785 C35,8.93296767 34.9662102,8.96666667 34.9245283,8.96666667 L31.0754717,8.96666667 C31.0337898,8.96666667 31,8.93296767 31,8.89139785 L31,6.70860215 C31,6.66703233 31.0337898,6.63333333 31.0754717,6.63333333 L34.9245283,6.63333333 Z" id="形状备份-16" fill="#FFFFFF" fill-rule="nonzero"></path>
            </g>
        </g>
    </g>
</svg>