<?xml version="1.0" encoding="UTF-8"?>
<svg width="42px" height="48px" viewBox="0 0 42 48" version="1.1" xmlns="http://www.w3.org/2000/svg" xmlns:xlink="http://www.w3.org/1999/xlink">
    <title>人员Wecomm备份</title>
    <defs>
        <ellipse id="path-1" cx="20" cy="41" rx="20" ry="7"></ellipse>
        <filter x="-7.5%" y="-21.4%" width="115.0%" height="142.9%" filterUnits="objectBoundingBox" id="filter-2">
            <feGaussianBlur stdDeviation="3" in="SourceAlpha" result="shadowBlurInner1"></feGaussianBlur>
            <feOffset dx="0" dy="0" in="shadowBlurInner1" result="shadowOffsetInner1"></feOffset>
            <feComposite in="shadowOffsetInner1" in2="SourceAlpha" operator="arithmetic" k2="-1" k3="1" result="shadowInnerInner1"></feComposite>
            <feColorMatrix values="0 0 0 0 0.541176471   0 0 0 0 0.560784314   0 0 0 0 0.6  0 0 0 1 0" type="matrix" in="shadowInnerInner1"></feColorMatrix>
        </filter>
        <filter x="0.0%" y="0.0%" width="100.0%" height="100.0%" filterUnits="objectBoundingBox" id="filter-3">
            <feGaussianBlur stdDeviation="0" in="SourceGraphic"></feGaussianBlur>
        </filter>
    </defs>
    <g id="页面-1" stroke="none" stroke-width="1" fill="none" fill-rule="evenodd">
        <g id="落点切图" transform="translate(-1315.000000, -145.000000)">
            <g id="人员Wecomm备份" transform="translate(1315.000000, 145.000000)">
                <g id="椭圆形备份-11" fill="black" fill-opacity="1">
                    <use filter="url(#filter-2)" xlink:href="#path-1"></use>
                </g>
                <ellipse id="椭圆形备份-12" fill="#8A8F99" opacity="0.703760901" filter="url(#filter-3)" cx="20" cy="41" rx="10" ry="3.5"></ellipse>
                <path d="M20,8 C27.7319865,8 34,14.2680135 34,22 C34,26.4749597 31.9004511,30.4595434 28.6326771,33.0224273 L20,41.6 L11.3885149,33.0390152 C8.108629,30.4767549 6,26.4846258 6,22 C6,14.2680135 12.2680135,8 20,8 Z" id="形状结合" stroke="#FFFFFF" fill="#999999" fill-rule="nonzero"></path>
                <path d="M24.1235359,23.8414919 C26.2889595,25.1879527 27.7948495,27.5507532 28,30.2910238 C27.2418269,30.3916825 25.8934169,30.5 23.9694705,30.5 L23.9694705,30.5 L16.0278865,30.5 C14.1048276,30.5 12.7572664,30.3916825 12,30.2910238 C12.2068482,27.5524887 13.7127575,25.1879527 15.8755766,23.8414919 C17.0180066,24.7208217 18.4365235,25.2683514 20.0004244,25.2683514 C21.5643061,25.2683514 22.9837297,24.7225006 24.1235359,23.8414919 Z M20.0004244,13.5 C22.9499495,13.5 25.3507732,15.8467094 25.3507732,18.7308374 C25.3507732,21.6132488 22.9499495,23.9608448 20.0004244,23.9608448 C17.0500119,23.9608448 14.6509244,21.6132299 14.6509244,18.7308374 C14.6509244,15.8467094 17.0517675,13.5 20.0004244,13.5 Z" id="形状结合备份-2" fill="#FFFFFF" fill-rule="nonzero"></path>
                <circle id="椭圆形" stroke="#FFFFFF" stroke-width="0.8" fill="#999999" fill-rule="nonzero" cx="33" cy="9" r="8.6"></circle>
                <path d="M30.4412289,3.5 L35.5587711,3.5 C36.0761354,3.5 36.5,3.9392249 36.5,4.47533764 L36.5,13.5246624 C36.5,14.0607751 36.0761354,14.5 35.5587711,14.5 L30.4412289,14.5 C29.9238646,14.5 29.5,14.0607751 29.5,13.5246624 L29.5,4.47533764 C29.5,3.9392249 29.9238646,3.5 30.4412289,3.5 Z M30.2853963,5.06958309 L30.2853963,8.9386377 L35.6834372,8.9386377 L35.6834372,5.06958309 L30.2853963,5.06958309 Z M31.6691897,4.01027598 L31.6691897,4.42366412 L34.1251113,4.42366412 L34.1251113,4.01027598 L31.6691897,4.01027598 Z M32.435886,9.35848503 C32.2551202,9.35848503 32.1055209,9.51350558 32.1055209,9.70082208 L32.1055209,10.2304756 C32.1055209,10.4177921 32.2551202,10.5728127 32.435886,10.5728127 L33.4394479,10.5728127 C33.6202137,10.5728127 33.769813,10.4177921 33.769813,10.2304756 L33.769813,9.70082208 C33.769813,9.51350558 33.6202137,9.35848503 33.4394479,9.35848503 L32.435886,9.35848503 Z M31.8686554,9.77833235 L30.3788958,9.77833235 L30.3788958,10.1529654 L31.8686554,10.1529654 L31.8686554,9.77833235 Z M35.4964381,9.77833235 L34.0066785,9.77833235 L34.0066785,10.1529654 L35.4964381,10.1529654 L35.4964381,9.77833235 Z M31.8624221,10.9022314 L30.3726625,10.9022314 L30.3726625,11.6321198 L31.8624221,11.6321198 L31.8624221,10.9022314 Z M33.6825467,10.9022314 L32.1865539,10.9022314 L32.1865539,11.6321198 L33.6763134,11.6321198 L33.6763134,10.9022314 L33.6825467,10.9022314 Z M35.4839715,10.9022314 L33.9942119,10.9022314 L33.9942119,11.6321198 L35.4839715,11.6321198 L35.4839715,10.9022314 L35.4839715,10.9022314 Z M31.8624221,11.8517322 L30.3726625,11.8517322 L30.3726625,12.5816207 L31.8624221,12.5816207 L31.8624221,11.8517322 L31.8624221,11.8517322 Z M33.6825467,11.8517322 L32.1865539,11.8517322 L32.1865539,12.5816207 L33.6763134,12.5816207 L33.6763134,11.8517322 L33.6825467,11.8517322 Z M35.4839715,11.8517322 L33.9942119,11.8517322 L33.9942119,12.5816207 L35.4839715,12.5816207 L35.4839715,11.8517322 L35.4839715,11.8517322 Z M31.8624221,12.865825 L30.3726625,12.865825 L30.3726625,13.5957134 L31.8624221,13.5957134 L31.8624221,12.865825 L31.8624221,12.865825 Z M33.6825467,12.865825 L32.1865539,12.865825 L32.1865539,13.5957134 L33.6763134,13.5957134 L33.6763134,12.865825 L33.6825467,12.865825 Z M35.4839715,12.865825 L33.9942119,12.865825 L33.9942119,13.5957134 L35.4839715,13.5957134 L35.4839715,12.865825 L35.4839715,12.865825 Z" id="形状备份-33" fill="#FFFFFF" fill-rule="nonzero"></path>
            </g>
        </g>
    </g>
</svg>