<?xml version="1.0" encoding="UTF-8"?>
<svg width="48px" height="47px" viewBox="0 0 48 47" version="1.1" xmlns="http://www.w3.org/2000/svg" xmlns:xlink="http://www.w3.org/1999/xlink">
    <title>直播</title>
    <defs>
        <ellipse id="path-1" cx="24" cy="8" rx="24" ry="8"></ellipse>
        <filter x="-8.3%" y="-25.0%" width="116.7%" height="150.0%" filterUnits="objectBoundingBox" id="filter-2">
            <feGaussianBlur stdDeviation="4" in="SourceAlpha" result="shadowBlurInner1"></feGaussianBlur>
            <feOffset dx="0" dy="0" in="shadowBlurInner1" result="shadowOffsetInner1"></feOffset>
            <feComposite in="shadowOffsetInner1" in2="SourceAlpha" operator="arithmetic" k2="-1" k3="1" result="shadowInnerInner1"></feComposite>
            <feColorMatrix values="0 0 0 0 0   0 0 0 0 0.568627451   0 0 0 0 1  0 0 0 1 0" type="matrix" in="shadowInnerInner1"></feColorMatrix>
        </filter>
        <filter x="0.0%" y="0.0%" width="100.0%" height="100.0%" filterUnits="objectBoundingBox" id="filter-3">
            <feGaussianBlur stdDeviation="0" in="SourceGraphic"></feGaussianBlur>
        </filter>
        <filter id="filter-4">
            <feColorMatrix in="SourceGraphic" type="matrix" values="0 0 0 0 1.000000 0 0 0 0 1.000000 0 0 0 0 1.000000 0 0 0 1.000000 0"></feColorMatrix>
        </filter>
        <linearGradient x1="50%" y1="4.15682264%" x2="50%" y2="100%" id="linearGradient-5">
            <stop stop-color="#1B7E8D" offset="0%"></stop>
            <stop stop-color="#2A3934" offset="100%"></stop>
        </linearGradient>
        <linearGradient x1="50%" y1="4.15682264%" x2="50%" y2="100%" id="linearGradient-6">
            <stop stop-color="#1B7E8D" offset="0%"></stop>
            <stop stop-color="#2A3934" offset="100%"></stop>
        </linearGradient>
        <linearGradient x1="50%" y1="4.15682264%" x2="50%" y2="100%" id="linearGradient-7">
            <stop stop-color="#1B7E8D" offset="0%"></stop>
            <stop stop-color="#2A3934" offset="100%"></stop>
        </linearGradient>
    </defs>
    <g id="页面-1" stroke="none" stroke-width="1" fill="none" fill-rule="evenodd">
        <g id="监测预警" transform="translate(-1041.000000, -594.000000)">
            <g id="直播" transform="translate(1041.000000, 594.000000)">
                <g id="编组-7备份-29" transform="translate(0.000000, 30.400000)">
                    <g id="椭圆形" fill="black" fill-opacity="1">
                        <use filter="url(#filter-2)" xlink:href="#path-1"></use>
                    </g>
                    <ellipse id="椭圆形" fill="#00519B" opacity="0.703760901" filter="url(#filter-3)" cx="24" cy="8" rx="12" ry="4"></ellipse>
                </g>
                <g id="编组-8备份-29" transform="translate(8.000000, 0.000000)">
                    <path d="M16.128,0.5 C20.443553,0.5 24.350553,2.24922348 27.1786648,5.07733522 C30.0067765,7.90544697 31.756,11.812447 31.756,16.128 C31.756,20.3446763 30.0860255,24.171316 27.3774173,26.9764069 L27.3774173,26.9764069 L16.1279487,38.2292741 L4.88087975,26.9820736 C2.17000743,24.1714555 0.5,20.3447505 0.5,16.128 C0.5,11.812447 2.24922348,7.90544697 5.07733522,5.07733522 C7.90544697,2.24922348 11.812447,0.5 16.128,0.5 Z" id="形状结合" stroke="#FFFFFF" fill="#0091FF" fill-rule="nonzero"></path>
                    <g filter="url(#filter-4)" id="编组-20">
                        <g transform="translate(7.130000, 8.000000)">
                            <rect id="矩形" fill="url(#linearGradient-5)" x="0" y="0" width="4.86" height="16.2" rx="0.9"></rect>
                            <path d="M7.38,6.48 L10.44,6.48 C10.9370563,6.48 11.34,6.88294373 11.34,7.38 L11.34,15.3 C11.34,15.7970563 10.9370563,16.2 10.44,16.2 L7.38,16.2 C6.88294373,16.2 6.48,15.7970563 6.48,15.3 L6.48,7.38 C6.48,6.88294373 6.88294373,6.48 7.38,6.48 Z" id="矩形备份-4" fill="url(#linearGradient-6)"></path>
                            <path d="M13.86,3.24 L16.92,3.24 C17.4170563,3.24 17.82,3.64294373 17.82,4.14 L17.82,15.3 C17.82,15.7970563 17.4170563,16.2 16.92,16.2 L13.86,16.2 C13.3629437,16.2 12.96,15.7970563 12.96,15.3 L12.96,4.14 C12.96,3.64294373 13.3629437,3.24 13.86,3.24 Z" id="矩形备份-5" fill="url(#linearGradient-7)"></path>
                        </g>
                    </g>
                </g>
            </g>
        </g>
    </g>
</svg>