<?xml version="1.0" encoding="UTF-8"?>
<svg width="42px" height="49px" viewBox="0 0 42 49" version="1.1" xmlns="http://www.w3.org/2000/svg" xmlns:xlink="http://www.w3.org/1999/xlink">
    <title>视频链备份</title>
    <defs>
        <ellipse id="path-1" cx="20" cy="42" rx="20" ry="7"></ellipse>
        <filter x="-7.5%" y="-21.4%" width="115.0%" height="142.9%" filterUnits="objectBoundingBox" id="filter-2">
            <feGaussianBlur stdDeviation="3" in="SourceAlpha" result="shadowBlurInner1"></feGaussianBlur>
            <feOffset dx="0" dy="0" in="shadowBlurInner1" result="shadowOffsetInner1"></feOffset>
            <feComposite in="shadowOffsetInner1" in2="SourceAlpha" operator="arithmetic" k2="-1" k3="1" result="shadowInnerInner1"></feComposite>
            <feColorMatrix values="0 0 0 0 0.541176471   0 0 0 0 0.560784314   0 0 0 0 0.6  0 0 0 1 0" type="matrix" in="shadowInnerInner1"></feColorMatrix>
        </filter>
        <filter x="0.0%" y="0.0%" width="100.0%" height="100.0%" filterUnits="objectBoundingBox" id="filter-3">
            <feGaussianBlur stdDeviation="0" in="SourceGraphic"></feGaussianBlur>
        </filter>
    </defs>
    <g id="页面-1" stroke="none" stroke-width="1" fill="none" fill-rule="evenodd">
        <g id="落点切图" transform="translate(-1690.000000, -143.000000)">
            <g id="视频链备份" transform="translate(1690.000000, 143.000000)">
                <g id="椭圆形备份-41" fill="black" fill-opacity="1">
                    <use filter="url(#filter-2)" xlink:href="#path-1"></use>
                </g>
                <ellipse id="椭圆形备份-42" fill="#8A8F99" opacity="0.703760901" filter="url(#filter-3)" cx="20" cy="42" rx="10" ry="3.5"></ellipse>
                <path d="M20,9 C27.7319865,9 34,15.2680135 34,23 C34,27.4749597 31.9004511,31.4595434 28.6326771,34.0224273 L20,42.6 L11.3885149,34.0390152 C8.108629,31.4767549 6,27.4846258 6,23 C6,15.2680135 12.2680135,9 20,9 Z" id="形状结合" stroke="#FFFFFF" fill="#999999" fill-rule="nonzero"></path>
                <path d="M16.6567127,23.5474053 L16.6600904,23.5417407 L14.0969844,20.7836198 C13.7141387,20.3715711 13.6908603,19.7388867 14.0423783,19.2994799 L14.6441706,18.5472136 L24.7766865,28.9531864 L23.5944939,29.6799617 C23.2365523,29.9002723 22.7865581,29.9020189 22.4269381,29.6844935 L16.6567127,23.5474053 L16.6567127,23.5474053 Z M16.3606016,24.0526927 L17.9914643,25.7872102 L16.9426907,27.5738427 C16.7835579,27.845873 16.51861,28.0385338 16.2119831,28.1051874 C16.1320444,28.1238808 16.0487279,28.1335107 15.9631597,28.1335107 L14.2517953,28.1335107 L14.2517953,29.8668954 C14.2518569,30.271694 14.0372755,30.6457699 13.6888962,30.8481871 C13.340517,31.0506043 12.9112783,31.0506043 12.5628991,30.8481871 C12.2145198,30.6457699 11.9999384,30.271694 12,29.8668954 L12,25.3351707 C11.9999384,24.9303721 12.2145198,24.5562962 12.5628991,24.353879 C12.9112783,24.1514618 13.340517,24.1514618 13.6888962,24.353879 C14.0372755,24.5562962 14.2518569,24.9303721 14.2517953,25.3351707 L14.2517953,25.8954052 L15.2791769,25.8954052 L16.3600387,24.0526927 L16.3606016,24.0526927 Z M15.3512343,17.6629609 L17.9419248,14.4227777 C18.1414215,14.1732525 18.4365494,14.0203433 18.754283,14.0018855 C19.0720166,13.9834278 19.3826711,14.1011459 19.6093792,14.3259121 L29.6642081,24.2974058 C29.9110667,24.5420944 30.0322033,24.8875336 29.9926224,25.2339281 C29.9530415,25.5803226 29.7571525,25.8890827 29.4615465,26.0710095 L25.7573433,28.3493341 L15.3512343,17.6629609 L15.3512343,17.6629609 Z" id="形状备份-3" fill="#FFFFFF" fill-rule="nonzero"></path>
                <circle id="椭圆形" stroke="#FFFFFF" stroke-width="0.8" fill="#999999" fill-rule="nonzero" cx="33" cy="9" r="8.6"></circle>
                <path d="M38.1493043,6.02991432 L35.9714484,3.85205837 C35.6053672,3.5047015 35.031432,3.5047015 34.6653509,3.85205837 L31.6157365,6.90167277 L32.4844145,7.77343124 L35.3183996,4.93944614 L37.0588361,6.67064138 L34.2279314,9.50154607 L35.0996899,10.3733045 L38.1493043,7.32369013 C38.5096558,6.96288988 38.5096558,6.37839289 38.1493043,6.01759264 L38.1493043,6.02991432 Z M30.5252683,13.2165309 L28.7817514,11.4760944 L31.6157365,8.6451897 L30.743978,7.77343124 L27.6943636,10.8230456 C27.3340121,11.1838459 27.3340121,11.7683429 27.6943636,12.1291431 L29.8876216,14.3069991 C30.2484219,14.6673506 30.8329189,14.6673506 31.1937191,14.3069991 L34.2433335,11.2573847 L33.3715751,10.3856262 L30.5252683,13.2165309 Z M30.6377036,10.4928248 L34.3342059,6.79632246 L35.2053483,7.66777288 L31.5088459,11.3642752 L30.6377036,10.4928248 Z" id="形状" fill="#FFFFFF" fill-rule="nonzero"></path>
            </g>
        </g>
    </g>
</svg>