<?xml version="1.0" encoding="UTF-8"?>
<svg width="46px" height="46px" viewBox="0 0 46 46" version="1.1" xmlns="http://www.w3.org/2000/svg" xmlns:xlink="http://www.w3.org/1999/xlink">
    <title>避难场所备份 3</title>
    <defs>
        <ellipse id="path-1" cx="20" cy="33" rx="20" ry="7"></ellipse>
        <filter x="-7.5%" y="-21.4%" width="115.0%" height="142.9%" filterUnits="objectBoundingBox" id="filter-2">
            <feGaussianBlur stdDeviation="3" in="SourceAlpha" result="shadowBlurInner1"></feGaussianBlur>
            <feOffset dx="0" dy="0" in="shadowBlurInner1" result="shadowOffsetInner1"></feOffset>
            <feComposite in="shadowOffsetInner1" in2="SourceAlpha" operator="arithmetic" k2="-1" k3="1" result="shadowInnerInner1"></feComposite>
            <feColorMatrix values="0 0 0 0 0.541176471   0 0 0 0 0.560784314   0 0 0 0 0.6  0 0 0 1 0" type="matrix" in="shadowInnerInner1"></feColorMatrix>
        </filter>
        <filter x="0.0%" y="0.0%" width="100.0%" height="100.0%" filterUnits="objectBoundingBox" id="filter-3">
            <feGaussianBlur stdDeviation="0" in="SourceGraphic"></feGaussianBlur>
        </filter>
        <linearGradient x1="-15.5024662%" y1="-16.1001126%" x2="100%" y2="100%" id="linearGradient-4">
            <stop stop-color="#3BF3A8" offset="0%"></stop>
            <stop stop-color="#46D0ED" offset="100%"></stop>
        </linearGradient>
    </defs>
    <g id="页面-1" stroke="none" stroke-width="1" fill="none" fill-rule="evenodd">
        <g id="落点切图" transform="translate(-763.000000, -202.000000)">
            <g id="避难场所备份-3" transform="translate(763.000000, 202.000000)">
                <g id="编组-12" transform="translate(3.000000, 3.000000)">
                    <g id="椭圆形备份-97" fill="black" fill-opacity="1">
                        <use filter="url(#filter-2)" xlink:href="#path-1"></use>
                    </g>
                    <ellipse id="椭圆形备份-98" fill="#8A8F99" opacity="0.703760901" filter="url(#filter-3)" cx="20" cy="33" rx="10" ry="3.5"></ellipse>
                    <path d="M20,-2.13162821e-14 C27.7319865,-2.13162821e-14 34,6.2680135 34,14 C34,18.4749597 31.9004511,22.4595434 28.6326771,25.0224273 L20,33.6 L11.3885149,25.0390152 C8.108629,22.4767549 6,18.4846258 6,14 C6,6.2680135 12.2680135,-2.13162821e-14 20,-2.13162821e-14 Z" id="形状结合" stroke="#FFFFFF" fill="#999999" fill-rule="nonzero"></path>
                    <path d="M28.8960443,19.9486351 L22.228494,9.16743986 C22.2183557,9.13555117 22.204126,9.10508054 22.1861532,9.07677355 L20.4947713,6.35678435 L21.5735412,4.6221841 C21.6498199,4.49930567 21.654798,4.34569424 21.586632,4.21823333 C21.5191924,4.09134941 21.3882094,4.00994596 21.2434057,4.00492465 C21.0986776,4.00045115 20.9626513,4.07315269 20.8870885,4.19536437 L20.019409,5.59178739 L19.1517294,4.19536437 C19.077042,4.07107633 18.9402776,3.99645074 18.794185,4.00013003 C18.6481238,4.00487619 18.5159509,4.08713231 18.4485041,4.2154 C18.3804119,4.34428161 18.3868815,4.49929582 18.4654813,4.6221841 L19.5440466,6.35658197 L19.4585468,6.49420048 C19.4489332,6.50755757 19.4382969,6.5215218 19.4303196,6.53629555 L18.2335274,8.46497836 L17.851642,9.07677355 C17.8479602,9.08304734 17.8440739,9.0895235 17.8408011,9.09680919 L11.1049328,19.9472185 C10.8193881,20.4066214 11.1503417,21 11.6909539,21 L17.3629842,21 C17.6571307,20.9987775 17.9182071,20.813328 18.013437,20.5379661 L19.363638,16.6607672 C19.5763647,16.0495792 20.4391351,16.0424959 20.6620891,16.6498387 L22.0926761,20.5484899 C22.1910431,20.8187995 22.4498961,20.9992762 22.7402653,21 L28.3085914,21 C28.8494081,21 29.1797481,20.4078357 28.8960443,19.9486351 Z M22.0836762,12.48951 C22.0836762,12.7592827 21.8648131,12.9782581 21.5948138,12.9782581 L20.4890441,12.9782581 L20.4890441,14.0846703 C20.4835213,14.3508002 20.2662947,14.5635018 20.0001817,14.5635018 C19.7340688,14.5635018 19.5166376,14.3508002 19.5113194,14.0846703 L19.5113194,12.9782581 L18.4045269,12.9782581 C18.2269721,12.9815001 18.0616622,12.8890225 17.9729371,12.7368185 C17.8834198,12.5839135 17.8834198,12.3953089 17.9729371,12.2424038 C18.0616622,12.0901998 18.2269721,11.9977223 18.4045269,12.0009643 L19.5113194,12.0009643 L19.5113194,10.8951592 C19.5073803,10.7188258 19.5995732,10.5540164 19.7526824,10.4636847 C19.9051971,10.3741352 20.0949618,10.3741352 20.2474765,10.4636847 C20.4005857,10.5540164 20.4927786,10.7188258 20.4888395,10.8951592 L20.4888395,12.0001548 L21.5958366,12.0001548 C21.725518,12.0001548 21.8500859,12.0515594 21.941722,12.1434399 C22.0333581,12.2353205 22.0849034,12.3597843 22.0849034,12.48951 L22.0836762,12.48951 L22.0836762,12.48951 Z" id="形状备份-22" fill="#FFFFFF" fill-rule="nonzero"></path>
                </g>
                <g id="扫描备份-13" fill="url(#linearGradient-4)" fill-rule="nonzero">
                    <path d="M45.724,45.724 C45.54,45.908 45.356,46 45.08,46 L37.72,46 C37.26,46 36.8,45.632 36.8,45.08 C36.8,44.5280001 37.26,44.16 37.72,44.16 L44.16,44.16 L44.16,37.72 C44.16,37.26 44.528,36.8 45.08,36.8 C45.6320001,36.8 46,37.26 46,37.72 L46,45.08 C46,45.356 45.908,45.54 45.724,45.724 L45.724,45.724 Z M45.724,0.275999986 C45.54,0.0919999641 45.356,0 45.08,0 L37.72,0 C37.26,0 36.8,0.367999997 36.8,0.919999968 C36.8,1.47199994 37.26,1.83999998 37.72,1.83999998 L44.16,1.83999998 L44.16,8.27999999 C44.16,8.74 44.528,9.20000001 45.08,9.20000001 C45.6320001,9.20000001 46,8.74 46,8.27999999 L46,0.919999968 C46,0.643999982 45.908,0.459999961 45.724,0.275999986 Z M0.275999986,45.724 C0.460000007,45.908 0.643999982,46 0.919999968,46 L8.27999999,46 C8.74,46 9.20000001,45.632 9.20000001,45.08 C9.20000001,44.5280001 8.74,44.16 8.27999999,44.16 L1.83999998,44.16 L1.83999998,37.72 C1.83999998,37.26 1.47199999,36.8 0.919999968,36.8 C0.36799995,36.8 0,37.26 0,37.72 L0,45.08 C0,45.356 0.0920000108,45.54 0.275999986,45.724 L0.275999986,45.724 Z M0.275999986,0.275999986 C0.460000007,0.0919999641 0.643999982,0 0.919999968,0 L8.27999999,0 C8.74,0 9.20000001,0.367999997 9.20000001,0.919999968 C9.20000001,1.47199994 8.74,1.83999998 8.27999999,1.83999998 L1.83999998,1.83999998 L1.83999998,8.27999999 C1.83999998,8.74 1.47199999,9.20000001 0.919999968,9.20000001 C0.36799995,9.20000001 0,8.74 0,8.27999999 L0,0.919999968 C0,0.643999982 0.0920000108,0.459999961 0.275999986,0.275999986 Z" id="形状"></path>
                </g>
            </g>
        </g>
    </g>
</svg>