<?xml version="1.0" encoding="UTF-8"?>
<svg width="40px" height="40px" viewBox="0 0 40 40" version="1.1" xmlns="http://www.w3.org/2000/svg" xmlns:xlink="http://www.w3.org/1999/xlink">
    <title>任务</title>
    <defs>
        <ellipse id="path-1" cx="20" cy="33" rx="20" ry="7"></ellipse>
        <filter x="-10.0%" y="-28.6%" width="120.0%" height="157.1%" filterUnits="objectBoundingBox" id="filter-2">
            <feGaussianBlur stdDeviation="4" in="SourceAlpha" result="shadowBlurInner1"></feGaussianBlur>
            <feOffset dx="0" dy="0" in="shadowBlurInner1" result="shadowOffsetInner1"></feOffset>
            <feComposite in="shadowOffsetInner1" in2="SourceAlpha" operator="arithmetic" k2="-1" k3="1" result="shadowInnerInner1"></feComposite>
            <feColorMatrix values="0 0 0 0 0   0 0 0 0 0.568627451   0 0 0 0 1  0 0 0 1 0" type="matrix" in="shadowInnerInner1"></feColorMatrix>
        </filter>
        <filter x="0.0%" y="0.0%" width="100.0%" height="100.0%" filterUnits="objectBoundingBox" id="filter-3">
            <feGaussianBlur stdDeviation="0" in="SourceGraphic"></feGaussianBlur>
        </filter>
        <filter id="filter-4">
            <feColorMatrix in="SourceGraphic" type="matrix" values="0 0 0 0 1.000000 0 0 0 0 1.000000 0 0 0 0 1.000000 0 0 0 1.000000 0"></feColorMatrix>
        </filter>
    </defs>
    <g id="页面-1" stroke="none" stroke-width="1" fill="none" fill-rule="evenodd">
        <g id="落点切图" transform="translate(-553.000000, -81.000000)">
            <g id="任务" transform="translate(553.000000, 81.000000)">
                <g id="椭圆形" fill="black" fill-opacity="1">
                    <use filter="url(#filter-2)" xlink:href="#path-1"></use>
                </g>
                <ellipse id="椭圆形" fill="#00519B" opacity="0.703760901" filter="url(#filter-3)" cx="20" cy="33" rx="10" ry="3.5"></ellipse>
                <path d="M20,0.5 C23.7279221,0.5 27.1029221,2.01103897 29.5459415,4.45405845 C31.988961,6.89707794 33.5,10.2720779 33.5,14 C33.5,18.3257105 31.4654458,22.1761668 28.3012384,24.6468968 L28.3012384,24.6468968 L20.000092,32.895055 L11.7196612,24.6631831 C8.54351615,22.1931056 6.5,18.3352269 6.5,14 C6.5,10.2720779 8.01103897,6.89707794 10.4540585,4.45405845 C12.8970779,2.01103897 16.2720779,0.5 20,0.5 Z" id="形状结合" stroke="#FFFFFF" fill="#0091FF" fill-rule="nonzero"></path>
                <g filter="url(#filter-4)" id="编组">
                    <g transform="translate(12.000000, 7.000000)">
                        <path d="M1.06192686,2.48311688 L1.06192686,15.1372745 C1.05817136,15.3572201 1.15191079,15.567586 1.31804218,15.7117784 C1.48253815,15.8542684 1.70294543,15.9141422 1.91692703,15.8744658 L7.82864305,14.6653922 L14.0808058,15.8820017 C14.2937508,15.9191053 14.5120598,15.8580114 14.6748145,15.715768 C14.8392005,15.5718947 14.9320083,15.3630165 14.9286888,15.1445887 L14.9286888,2.48311688 L1.06192686,2.48311688 Z M9.85004564,9.21924156 C9.71759666,9.31786256 9.66231798,9.48966265 9.71240409,9.64701645 L10.43674,11.9915775 C10.4582176,12.0678751 10.4309906,12.1495558 10.3680301,12.1977074 C10.3054921,12.2451709 10.2198659,12.2481878 10.1541426,12.2052433 L8.19081101,10.7308606 C8.06185748,10.6350302 7.8853403,10.6350302 7.75638677,10.7308606 L5.79283352,12.2052433 C5.72723038,12.2537176 5.63767822,12.2537176 5.57207508,12.2052433 C5.50590426,12.1559944 5.47822951,12.0702116 5.50314348,11.9915775 L6.22747941,9.64701645 C6.27754245,9.48971005 6.22236944,9.31796182 6.0900595,9.21924156 L4.1267279,7.74485887 C4.03021612,7.69689662 3.9898971,7.5804742 4.03607508,7.4830961 C4.05755357,7.43642225 4.09690571,7.4003514 4.14526854,7.38300749 C4.19363136,7.36566358 4.24693824,7.36850499 4.29318331,7.39089177 L6.71288201,7.39089177 C6.87496089,7.39191009 7.01885063,7.28736099 7.06795733,7.13289697 L7.79273655,4.78102165 C7.81443061,4.70283977 7.88537195,4.64854793 7.96650625,4.64803463 C8.04769743,4.64852385 8.11871567,4.70280531 8.14049759,4.78102165 L8.86483352,7.13289697 C8.91394022,7.28736099 9.05782996,7.39191009 9.21990885,7.39089177 L11.6826067,7.39089177 C11.7712647,7.37847965 11.8559331,7.43100952 11.8858552,7.51678615 C11.9158732,7.60216736 11.8826225,7.69694563 11.8058413,7.74485887 L9.85004564,9.21924156 Z" id="形状" fill="#007AFF" fill-rule="nonzero"></path>
                        <path d="M0.697835498,0.00346320346 L15.2987013,0.00346320346 C15.594228,0.00346320346 15.7419913,0.151226551 15.7419913,0.446753247 L15.7419913,1.01471861 C15.7419913,1.31024531 15.594228,1.45800866 15.2987013,1.45800866 L0.697835498,1.45800866 C0.402308802,1.45800866 0.254545455,1.31024531 0.254545455,1.01471861 L0.254545455,0.446753247 C0.254545455,0.151226551 0.402308802,0.00346320346 0.697835498,0.00346320346 Z" id="路径" fill="#A1D1FF" fill-rule="nonzero"></path>
                    </g>
                </g>
            </g>
        </g>
    </g>
</svg>