<?xml version="1.0" encoding="UTF-8"?>
<svg width="40px" height="40px" viewBox="0 0 40 40" version="1.1" xmlns="http://www.w3.org/2000/svg" xmlns:xlink="http://www.w3.org/1999/xlink">
    <title>会场终端</title>
    <defs>
        <ellipse id="path-1" cx="20" cy="7" rx="20" ry="7"></ellipse>
        <filter x="-10.0%" y="-28.6%" width="120.0%" height="157.1%" filterUnits="objectBoundingBox" id="filter-2">
            <feGaussianBlur stdDeviation="4" in="SourceAlpha" result="shadowBlurInner1"></feGaussianBlur>
            <feOffset dx="0" dy="0" in="shadowBlurInner1" result="shadowOffsetInner1"></feOffset>
            <feComposite in="shadowOffsetInner1" in2="SourceAlpha" operator="arithmetic" k2="-1" k3="1" result="shadowInnerInner1"></feComposite>
            <feColorMatrix values="0 0 0 0 0   0 0 0 0 0.568627451   0 0 0 0 1  0 0 0 1 0" type="matrix" in="shadowInnerInner1"></feColorMatrix>
        </filter>
        <filter x="0.0%" y="0.0%" width="100.0%" height="100.0%" filterUnits="objectBoundingBox" id="filter-3">
            <feGaussianBlur stdDeviation="0" in="SourceGraphic"></feGaussianBlur>
        </filter>
    </defs>
    <g id="页面-1" stroke="none" stroke-width="1" fill="none" fill-rule="evenodd">
        <g id="落点切图" transform="translate(-340.000000, -81.000000)">
            <g id="会场终端" transform="translate(340.000000, 81.000000)">
                <g id="编组-2" transform="translate(0.000000, 26.000000)">
                    <g id="椭圆形" fill="black" fill-opacity="1">
                        <use filter="url(#filter-2)" xlink:href="#path-1"></use>
                    </g>
                    <ellipse id="椭圆形" fill="#00519B" opacity="0.703760901" filter="url(#filter-3)" cx="20" cy="7" rx="10" ry="3.5"></ellipse>
                </g>
                <path d="M20,0.5 C23.7279221,0.5 27.1029221,2.01103897 29.5459415,4.45405845 C31.988961,6.89707794 33.5,10.2720779 33.5,14 C33.5,18.3257105 31.4654458,22.1761668 28.3012384,24.6468968 L28.3012384,24.6468968 L20.000092,32.895055 L11.7196612,24.6631831 C8.54351615,22.1931056 6.5,18.3352269 6.5,14 C6.5,10.2720779 8.01103897,6.89707794 10.4540585,4.45405845 C12.8970779,2.01103897 16.2720779,0.5 20,0.5 Z" id="形状结合" stroke="#FFFFFF" fill="#0091FF" fill-rule="nonzero"></path>
                <path d="M20.0005305,10.1441062 C19.1281448,10.1441062 18.306089,10.4782425 17.6895472,11.0859528 C17.0709083,11.6936632 16.7311811,12.499767 16.7311811,13.3580796 C16.7311811,14.2163922 17.0709083,15.022496 17.6895472,15.6302064 C18.306089,16.2379168 19.1281448,16.5720531 20.0005305,16.5720531 C20.8729162,16.5720531 21.694972,16.2379168 22.3115138,15.6302064 C22.9301527,15.022496 23.2698799,14.2163922 23.2698799,13.3580796 C23.2698799,12.499767 22.9301527,11.6936632 22.3115138,11.0859528 C21.6928749,10.4761541 20.8708191,10.1441062 20.0005305,10.1441062 Z M21.9508159,13.5543847 C21.8606414,14.4565527 21.1182747,15.1874758 20.1997532,15.2751866 C18.9603783,15.396311 17.9244203,14.3792837 18.048148,13.1596862 C18.1383225,12.2575182 18.8806892,11.5265951 19.7992107,11.4388843 C21.0385856,11.3177599 22.0745437,12.3347872 21.9508159,13.5543847 L21.9508159,13.5543847 Z M28.5,13.3580796 C28.5,8.26250117 23.8654509,4.2340705 18.5157971,5.12370838 C15.2087003,5.67294491 12.0609817,8.86603485 11.5891384,12.1322171 C11.0250236,16.0249049 13.1955025,19.4957456 16.4837256,20.970122 C15.0367397,21.4024109 13.7029961,22.0999204 12.5454074,23 L27.4535566,23 C26.2938707,22.0999204 24.9622243,21.4024109 23.5152383,20.9680337 C26.455346,19.652372 28.5,16.7412096 28.5,13.3580796 Z M20.2375007,17.8522128 C17.5217807,17.9879556 15.2925835,15.7930979 15.4288938,13.1241842 C15.5463304,10.837439 17.4358004,8.9808942 19.7593662,8.8639465 C22.4750861,8.72820363 24.7042833,10.9230614 24.567973,13.591975 C24.4505365,15.8787203 22.5631635,17.735265 20.2375007,17.8522128 Z" id="形状备份-13" fill="#FFFFFF" fill-rule="nonzero"></path>
            </g>
        </g>
    </g>
</svg>