<?xml version="1.0" encoding="UTF-8"?>
<svg width="40px" height="40px" viewBox="0 0 40 40" version="1.1" xmlns="http://www.w3.org/2000/svg" xmlns:xlink="http://www.w3.org/1999/xlink">
    <title>Wecomm</title>
    <defs>
        <ellipse id="path-1" cx="20" cy="33" rx="20" ry="7"></ellipse>
        <filter x="-10.0%" y="-28.6%" width="120.0%" height="157.1%" filterUnits="objectBoundingBox" id="filter-2">
            <feGaussianBlur stdDeviation="4" in="SourceAlpha" result="shadowBlurInner1"></feGaussianBlur>
            <feOffset dx="0" dy="0" in="shadowBlurInner1" result="shadowOffsetInner1"></feOffset>
            <feComposite in="shadowOffsetInner1" in2="SourceAlpha" operator="arithmetic" k2="-1" k3="1" result="shadowInnerInner1"></feComposite>
            <feColorMatrix values="0 0 0 0 0   0 0 0 0 0.568627451   0 0 0 0 1  0 0 0 1 0" type="matrix" in="shadowInnerInner1"></feColorMatrix>
        </filter>
        <filter x="0.0%" y="0.0%" width="100.0%" height="100.0%" filterUnits="objectBoundingBox" id="filter-3">
            <feGaussianBlur stdDeviation="0" in="SourceGraphic"></feGaussianBlur>
        </filter>
    </defs>
    <g id="页面-1" stroke="none" stroke-width="1" fill="none" fill-rule="evenodd">
        <g id="落点切图" transform="translate(-411.000000, -81.000000)">
            <g id="Wecomm" transform="translate(411.000000, 81.000000)">
                <g id="椭圆形" fill="black" fill-opacity="1">
                    <use filter="url(#filter-2)" xlink:href="#path-1"></use>
                </g>
                <ellipse id="椭圆形" fill="#00519B" opacity="0.703760901" filter="url(#filter-3)" cx="20" cy="33" rx="10" ry="3.5"></ellipse>
                <path d="M20,0.5 C23.7279221,0.5 27.1029221,2.01103897 29.5459415,4.45405845 C31.988961,6.89707794 33.5,10.2720779 33.5,14 C33.5,18.3257105 31.4654458,22.1761668 28.3012384,24.6468968 L28.3012384,24.6468968 L20.000092,32.895055 L11.7196612,24.6631831 C8.54351615,22.1931056 6.5,18.3352269 6.5,14 C6.5,10.2720779 8.01103897,6.89707794 10.4540585,4.45405845 C12.8970779,2.01103897 16.2720779,0.5 20,0.5 Z" id="形状结合" stroke="#FFFFFF" fill="#0091FF" fill-rule="nonzero"></path>
                <path d="M15.6135352,5.5 L24.3864648,5.5 C25.2733749,5.5 26,6.25295697 26,7.17200738 L26,22.6851355 C26,23.6041859 25.2733749,24.3571429 24.3864648,24.3571429 L15.6135352,24.3571429 C14.7266251,24.3571429 14,23.6041859 14,22.6851355 L14,7.17200738 C14,6.25295697 14.7266251,5.5 15.6135352,5.5 Z M15.3463936,8.19071387 L15.3463936,14.8233789 L24.6001781,14.8233789 L24.6001781,8.19071387 L15.3463936,8.19071387 Z M17.7186109,6.37475883 L17.7186109,7.08342421 L21.9287622,7.08342421 L21.9287622,6.37475883 L17.7186109,6.37475883 Z M19.0329475,15.5431172 C18.7230632,15.5431172 18.4666073,15.8088667 18.4666073,16.1299807 L18.4666073,17.0379582 C18.4666073,17.3590722 18.7230632,17.6248217 19.0329475,17.6248217 L20.7533393,17.6248217 C21.0632235,17.6248217 21.3196794,17.3590722 21.3196794,17.0379582 L21.3196794,16.1299807 C21.3196794,15.8088667 21.0632235,15.5431172 20.7533393,15.5431172 L19.0329475,15.5431172 Z M18.0605521,16.2628555 L15.5066785,16.2628555 L15.5066785,16.9050835 L18.0605521,16.9050835 L18.0605521,16.2628555 Z M24.2796082,16.2628555 L21.7257346,16.2628555 L21.7257346,16.9050835 L24.2796082,16.9050835 L24.2796082,16.2628555 Z M18.0498664,18.1895395 L15.4959929,18.1895395 L15.4959929,19.4407768 L18.0498664,19.4407768 L18.0498664,18.1895395 Z M21.1700801,18.1895395 L18.6055209,18.1895395 L18.6055209,19.4407768 L21.1593945,19.4407768 L21.1593945,18.1895395 L21.1700801,18.1895395 Z M24.2582369,18.1895395 L21.7043633,18.1895395 L21.7043633,19.4407768 L24.2582369,19.4407768 L24.2582369,18.1895395 L24.2582369,18.1895395 Z M18.0498664,19.8172553 L15.4959929,19.8172553 L15.4959929,21.0684926 L18.0498664,21.0684926 L18.0498664,19.8172553 L18.0498664,19.8172553 Z M21.1700801,19.8172553 L18.6055209,19.8172553 L18.6055209,21.0684926 L21.1593945,21.0684926 L21.1593945,19.8172553 L21.1700801,19.8172553 Z M24.2582369,19.8172553 L21.7043633,19.8172553 L21.7043633,21.0684926 L24.2582369,21.0684926 L24.2582369,19.8172553 L24.2582369,19.8172553 Z M18.0498664,21.5557 L15.4959929,21.5557 L15.4959929,22.8069373 L18.0498664,22.8069373 L18.0498664,21.5557 L18.0498664,21.5557 Z M21.1700801,21.5557 L18.6055209,21.5557 L18.6055209,22.8069373 L21.1593945,22.8069373 L21.1593945,21.5557 L21.1700801,21.5557 Z M24.2582369,21.5557 L21.7043633,21.5557 L21.7043633,22.8069373 L24.2582369,22.8069373 L24.2582369,21.5557 L24.2582369,21.5557 Z" id="形状备份-32" fill="#FFFFFF" fill-rule="nonzero"></path>
            </g>
        </g>
    </g>
</svg>