<?xml version="1.0" encoding="UTF-8"?>
<svg width="12px" height="16px" viewBox="0 0 12 16" version="1.1" xmlns="http://www.w3.org/2000/svg" xmlns:xlink="http://www.w3.org/1999/xlink">
    <title>起点</title>
    <g id="页面-1" stroke="none" stroke-width="1" fill="none" fill-rule="evenodd">
        <g id="设备轨迹" transform="translate(-609.000000, -1055.000000)">
            <g id="任务全景" transform="translate(517.000000, 960.000000)">
                <g id="播放条" transform="translate(50.000000, 44.000000)">
                    <g id="起点" transform="translate(48.000000, 59.000000) scale(-1, 1) translate(-48.000000, -59.000000) translate(42.000000, 51.000000)">
                        <rect id="矩形" fill="#FFFFFF" x="11" y="1" width="1" height="14" rx="0.5"></rect>
                        <path d="M4.94478424,4.10383919 L11.3098096,11.6876525 C11.3960619,11.795468 11.430448,11.9280372 11.416317,12.0552158 C11.4021861,12.1823943 11.3395382,12.304182 11.2317227,12.3904344 C11.1430662,12.4613596 11.0329109,12.5 10.9193752,12.5 L10.9193752,12.5 L-0.919375153,12.5 C-1.05744634,12.5 -1.18244634,12.4440356 -1.27292854,12.3535534 C-1.36341075,12.2630712 -1.41937515,12.1380712 -1.41937515,12 C-1.41937515,11.8864643 -1.38073478,11.776309 -1.30980956,11.6876525 L-1.30980956,11.6876525 L4.6095656,4.28843354 C4.69581798,4.18061805 4.81760572,4.11797014 4.94478424,4.10383919 L4.94478424,4.10383919 Z" id="三角形" stroke="#FFFFFF" transform="translate(5.000000, 8.000000) rotate(-270.000000) translate(-5.000000, -8.000000) "></path>
                    </g>
                </g>
            </g>
        </g>
    </g>
</svg>