<?xml version="1.0" encoding="UTF-8"?>
<svg width="12px" height="12px" viewBox="0 0 12 12" version="1.1" xmlns="http://www.w3.org/2000/svg" xmlns:xlink="http://www.w3.org/1999/xlink">
    <title>路径</title>
    <g id="页面-1" stroke="none" stroke-width="1" fill="none" fill-rule="evenodd" opacity="0.449999988">
        <g id="设备轨迹" transform="translate(-1381.000000, -971.000000)" fill="#FFFFFF">
            <g id="任务全景" transform="translate(517.000000, 960.000000)">
                <g id="title" transform="translate(10.000000, 6.000000)">
                    <path d="M861.037727,11.0004661 L865.784816,6.253787 C866.071728,5.96667443 866.071728,5.50244698 865.784816,5.21719879 C865.497904,4.93008623 865.034001,4.93008623 864.748952,5.21719879 L860,9.96201352 L855.251048,5.21533442 C854.964136,4.92822186 854.500233,4.92822186 854.215184,5.21533442 C853.928272,5.50244698 853.928272,5.96667443 854.215184,6.25192263 L858.962273,10.9986017 L854.215184,15.7471452 C853.928272,16.0342577 853.928272,16.4984852 854.215184,16.7837334 C854.35864,16.9272897 854.54681,16.9981356 854.733116,16.9981356 C854.921286,16.9981356 855.107592,16.9272897 855.251048,16.7837334 L860,12.0370543 L864.748952,16.7855978 C864.892408,16.929154 865.078714,17 865.266884,17 C865.455054,17 865.64136,16.929154 865.784816,16.7855978 C866.071728,16.4984852 866.071728,16.0342577 865.784816,15.7490096 L861.037727,11.0004661 Z" id="路径"></path>
                </g>
            </g>
        </g>
    </g>
</svg>