<?xml version="1.0" encoding="UTF-8"?>
<svg width="30px" height="30px" viewBox="0 0 30 30" version="1.1" xmlns="http://www.w3.org/2000/svg" xmlns:xlink="http://www.w3.org/1999/xlink">
    <title>map-contactor</title>
    <g id="页面-1" stroke="none" stroke-width="1" fill="none" fill-rule="evenodd">
        <g id="map-contactor" fill-rule="nonzero">
            <circle id="椭圆形" stroke="#FFFFFF" fill="#32C5FF" cx="15" cy="15" r="14.5"></circle>
            <path d="M9.74799644,4 L19.2520036,4 C20.2128228,4 21,4.83852026 21,5.86200822 L21,23.1379918 C21,24.1614797 20.2128228,25 19.2520036,25 L9.74799644,25 C8.7871772,25 8,24.1614797 8,23.1379918 L8,5.86200822 C8,4.83852026 8.7871772,4 9.74799644,4 Z M9,7 L9,14 L19,14 L19,7 L9,7 Z M12,5 L12,6 L17,6 L17,5 L12,5 Z M13.5955056,15 C13.2696629,15 13,15.2553191 13,15.5638298 L13,16.4361702 C13,16.7446809 13.2696629,17 13.5955056,17 L15.4044944,17 C15.7303371,17 16,16.7446809 16,16.4361702 L16,15.5638298 C16,15.2553191 15.7303371,15 15.4044944,15 L13.5955056,15 Z M13,16 L10,16 L10,17 L13,17 L13,16 Z M19,16 L16,16 L16,17 L19,17 L19,16 Z M13,18 L10,18 L10,19 L13,19 L13,18 Z M16,18 L13,18 L13,19 L15.9875,19 L15.9875,18 L16,18 Z M19,18 L16,18 L16,19 L19,19 L19,18 L19,18 Z M13,20 L10,20 L10,21 L13,21 L13,20 L13,20 Z M16,20 L13,20 L13,21 L15.9875,21 L15.9875,20 L16,20 Z M19,20 L16,20 L16,21 L19,21 L19,20 L19,20 Z M13,22 L10,22 L10,23 L13,23 L13,22 L13,22 Z M16,22 L13,22 L13,23 L15.9875,23 L15.9875,22 L16,22 Z M19,22 L16,22 L16,23 L19,23 L19,22 L19,22 Z" id="形状备份-43" fill="#FFFFFF"></path>
        </g>
    </g>
</svg>