<?xml version="1.0" encoding="UTF-8"?>
<svg width="30px" height="30px" viewBox="0 0 30 30" version="1.1" xmlns="http://www.w3.org/2000/svg" xmlns:xlink="http://www.w3.org/1999/xlink">
    <title>编组 14</title>
    <g id="页面-1" stroke="none" stroke-width="1" fill="none" fill-rule="evenodd">
        <g id="人员轨迹" transform="translate(-1236.000000, -594.000000)">
            <g id="编组-14" transform="translate(1236.000000, 594.000000)">
                <circle id="椭圆形" stroke="#FFFFFF" fill="#32C5FF" cx="15" cy="15" r="14.5"></circle>
                <path d="M19.4442869,16.4665118 C21.79203,17.9594501 23.4247097,20.5792926 23.647133,23.617669 C22.8251248,23.729278 21.3631844,23.849379 19.2772498,23.849379 L19.2772498,23.849379 L10.6670177,23.849379 C8.58204523,23.849379 7.12102509,23.729278 6.3,23.617669 C6.5242639,20.5812169 8.15696453,17.9594501 10.501884,16.4665118 C11.7405018,17.4415013 13.2784518,18.0485951 14.9740267,18.0485951 C16.6695806,18.0485951 18.2085137,17.4433628 19.4442869,16.4665118 Z M14.9740267,5 C18.1718894,5 20.7748524,7.60200093 20.7748524,10.7998846 C20.7748524,13.9958648 18.1718894,16.5988488 14.9740267,16.5988488 C11.7752018,16.5988488 9.17412118,13.9958439 9.17412118,10.7998846 C9.17412118,7.60200093 11.7771052,5 14.9740267,5 Z" id="形状结合备份-10" fill="#FFFFFF" fill-rule="nonzero"></path>
            </g>
        </g>
    </g>
</svg>