<?xml version="1.0" encoding="UTF-8"?>
<svg width="25px" height="25px" viewBox="0 0 25 25" version="1.1" xmlns="http://www.w3.org/2000/svg" xmlns:xlink="http://www.w3.org/1999/xlink">
    <title>切图</title>
    <g id="页面-1" stroke="none" stroke-width="1" fill="none" fill-rule="evenodd">
        <g id="切图" transform="translate(-218.000000, -320.000000)" fill="#9FC8FE">
            <g id="编组-15" transform="translate(218.000000, 320.000000)">
                <path d="M13.0067413,21.4190187 L13.0067413,12.6049528 C13.0056645,12.3745294 13.1449099,12.1666151 13.3584222,12.079962 L21.2477337,8.96373211 C21.4192335,8.89826881 21.612026,8.92202666 21.7625022,9.02716713 C21.9129785,9.1323076 22.0015885,9.30517069 21.9991479,9.48872291 L21.9991479,17.5899573 C22.0003953,17.8071828 21.8767199,18.005813 21.6812123,18.1004988 L13.7967173,21.9295602 C13.6236149,22.0111223 13.4206738,21.9975584 13.2599651,21.8936858 C13.0992565,21.7898131 13.0035457,21.6103458 13.0067413,21.4190187 L13.0067413,21.4190187 Z M5.21383995,7.1334889 L12.7660014,4.04134118 C12.8985709,3.98621961 13.0476448,3.98621961 13.1802143,4.04134118 L20.6649457,7.08050818 C20.8803377,7.16700805 21.0214847,7.37579534 21.0214847,7.60790721 C21.0214847,7.84001907 20.8803377,8.04880636 20.6649457,8.13530624 L12.313257,11.227454 C12.1804809,11.2815306 12.0318202,11.2815306 11.8990441,11.227454 L5.19457424,8.17383767 C4.98994072,8.0792979 4.86052068,7.87275398 4.86459633,7.64737602 C4.86886801,7.42199805 5.00584646,7.22038743 5.21383995,7.1334889 Z M11.2825411,21.8476809 L4.28426908,17.8837595 C4.11164798,17.784143 4.0038204,17.6013843 4.00009974,17.4021165 L4.00009974,9.52243792 C3.99654204,9.33468452 4.08835655,9.15791555 4.24400364,9.05285376 C4.39965073,8.94779198 4.59792957,8.92874793 4.77072845,9.00226354 L11.7690005,12.0703291 C11.9752215,12.1607826 12.107794,12.365323 12.1061505,12.5905035 L12.1061505,21.3419558 C12.1141821,21.5422551 12.0133622,21.7312628 11.8425357,21.8361563 C11.6717093,21.9410497 11.4575385,21.9454573 11.2825411,21.8476809 Z M5.75324491,13.2503543 C5.75394506,13.4467163 5.85592571,13.6288246 6.02300011,13.7319973 L9.17776141,15.6585691 C9.34985916,15.7614491 9.56411996,15.7632899 9.7379599,15.6633819 C9.91179985,15.5634738 10.0180739,15.3774177 10.0158553,15.1769261 C10.0160891,14.9803199 9.91387074,14.7977872 9.74610009,14.6952832 L6.59133879,12.7687114 C6.41924104,12.6658313 6.20498025,12.6639906 6.03114031,12.7638986 C5.85730036,12.8638066 5.75102632,13.0498628 5.75324491,13.2503543 Z" id="形状"></path>
            </g>
        </g>
    </g>
</svg>