<?xml version="1.0" encoding="UTF-8"?>
<svg width="20px" height="24px" viewBox="0 0 20 24" version="1.1" xmlns="http://www.w3.org/2000/svg" xmlns:xlink="http://www.w3.org/1999/xlink">
    <title>应急物资mini备份 2</title>
    <g id="页面-1" stroke="none" stroke-width="1" fill="none" fill-rule="evenodd">
        <g id="落点切图整合" transform="translate(-342.000000, -368.000000)" fill-rule="nonzero">
            <g id="应急物资mini备份-2" transform="translate(342.000000, 368.000000)">
                <path d="M10,0.5 C12.6233526,0.5 14.9983526,1.56332372 16.7175144,3.28248558 C18.4366763,5.00164744 19.5,7.37664744 19.5,10 C19.5,13.0460551 18.0663431,15.7572032 15.8371563,17.4957464 L15.8371563,17.4957464 L10.0000901,23.2950852 L4.17742239,17.5070936 C1.93990984,15.7690125 0.5,13.0526904 0.5,10 C0.5,7.37664744 1.56332372,5.00164744 3.28248558,3.28248558 C5.00164744,1.56332372 7.37664744,0.5 10,0.5 Z" id="形状结合" stroke="#FFFFFF" fill="#999999"></path>
                <path d="M10.1487551,16.5401939 L10.1487551,10.1682476 C10.1479774,10.0016678 10.248548,9.85136049 10.4027582,9.7887164 L16.1008485,7.5359026 C16.224715,7.48857727 16.3639602,7.50575251 16.4726424,7.58176164 C16.5813245,7.65777076 16.6453235,7.78273855 16.6435607,7.91543382 L16.6435607,13.7720533 C16.6444617,13.929092 16.5551366,14.0726876 16.4139304,14.1411387 L10.7193188,16.9092794 C10.5942948,16.9682429 10.4477197,16.9584372 10.3316472,16.8833446 C10.2155746,16.808252 10.1464471,16.6785099 10.1487551,16.5401939 L10.1487551,16.5401939 Z M4.52029751,6.2127662 L9.97487965,3.97736209 C10.0706285,3.93751309 10.1782979,3.93751309 10.2740468,3.97736209 L15.6799273,6.17446489 C15.8354951,6.23699818 15.9374391,6.38793662 15.9374391,6.55573709 C15.9374391,6.72353755 15.8354951,6.87447599 15.6799273,6.93700929 L9.64788302,9.1724134 C9.55198489,9.21150695 9.44461401,9.21150695 9.34871589,9.1724134 L4.50638276,6.96486479 C4.35858529,6.89651922 4.26511109,6.74720257 4.26805475,6.58427025 C4.27113999,6.42133792 4.37007329,6.2755877 4.52029751,6.2127662 Z M8.90344387,16.8500864 L3.84891082,13.9844515 C3.72423446,13.9124358 3.64635551,13.7803143 3.64366825,13.6362578 L3.64366825,7.93980739 C3.64109868,7.80407496 3.70741212,7.6762835 3.81982892,7.60033126 C3.93224573,7.52437901 4.0754535,7.51061152 4.20025825,7.5637581 L9.25479132,9.78175252 C9.40373537,9.84714403 9.49948642,9.99501224 9.49829945,10.1578018 L9.49829945,16.4844829 C9.50410026,16.6292852 9.43128266,16.7659243 9.30790249,16.8417549 C9.18452232,16.9175854 9.02983653,16.9207718 8.90344387,16.8500864 Z M4.90988513,10.6348273 C4.91039082,10.7767831 4.9840468,10.9084345 5.10471703,10.9830211 L7.38325739,12.3757962 C7.50755576,12.4501712 7.66230657,12.451502 7.78786324,12.3792755 C7.91341991,12.3070491 7.99017681,12.1725437 7.98857442,12.0276024 C7.9887433,11.8854701 7.91491563,11.7535118 7.79374253,11.6794087 L5.51520216,10.2866335 C5.3909038,10.2122585 5.23615299,10.2109278 5.11059632,10.2831542 C4.98503965,10.3553806 4.90828275,10.4898861 4.90988513,10.6348273 Z" id="形状备份-41" fill="#FFFFFF"></path>
            </g>
        </g>
    </g>
</svg>