<?xml version="1.0" encoding="UTF-8"?>
<svg width="20px" height="24px" viewBox="0 0 20 24" version="1.1" xmlns="http://www.w3.org/2000/svg" xmlns:xlink="http://www.w3.org/1999/xlink">
    <title>应急物资库mini备份</title>
    <g id="页面-1" stroke="none" stroke-width="1" fill="none" fill-rule="evenodd">
        <g id="落点切图整合" transform="translate(-853.000000, -227.000000)" fill-rule="nonzero">
            <g id="应急物资库mini备份" transform="translate(853.000000, 227.000000)">
                <path d="M10,0.5 C12.6233526,0.5 14.9983526,1.56332372 16.7175144,3.28248558 C18.4366763,5.00164744 19.5,7.37664744 19.5,10 C19.5,13.0460551 18.0663431,15.7572032 15.8371563,17.4957464 L15.8371563,17.4957464 L10.0000901,23.2950852 L4.17742239,17.5070936 C1.93990984,15.7690125 0.5,13.0526904 0.5,10 C0.5,7.37664744 1.56332372,5.00164744 3.28248558,3.28248558 C5.00164744,1.56332372 7.37664744,0.5 10,0.5 Z" id="形状结合" stroke="#FFFFFF" fill="#0091FF"></path>
                <path d="M7.43897778,9.20181329 L12.7203757,9.20181329 C12.8778988,9.19942627 13.0043218,9.07103996 13.0043218,8.91349873 L13.0043218,3.88983657 C12.9951851,3.73913705 12.8713385,3.62100645 12.7203757,3.61899562 L7.43897778,3.61899562 C7.28309653,3.61892407 7.15538691,3.74276369 7.15066326,3.89857337 L7.15066326,8.92223554 C7.15538691,9.07804522 7.28309653,9.20188484 7.43897778,9.20181329 L7.43897778,9.20181329 Z M8.48084163,5.48867166 C8.48203084,5.32872882 8.61139752,5.19936215 8.77134035,5.19817293 L11.3923815,5.19817293 C11.5519659,5.19937285 11.680696,5.32908277 11.680696,5.48867166 L11.680696,5.99759048 L8.77134035,5.99759048 C8.61175147,5.99759048 8.48204155,5.86886033 8.48084163,5.70927595 L8.48084163,5.48867166 Z M9.25841716,10.0012308 L4.234755,10.0012308 C4.07552329,10.0012308 3.94644048,10.1303136 3.94644048,10.2895453 L3.94644048,15.5709432 C3.94872283,15.6474208 3.98131032,15.719855 4.0370261,15.7722934 C4.09274187,15.8247317 4.16701634,15.8528735 4.2434918,15.8505209 L9.26715397,15.8505209 C9.42638568,15.8505209 9.55546852,15.7214381 9.55546852,15.5622064 L9.55546852,10.2895453 C9.55546852,10.2115415 9.52393204,10.1368518 9.46795797,10.082524 C9.41198389,10.0281962 9.33638522,9.99886704 9.25841716,10.0012308 Z M8.21655332,12.1089847 C8.2153534,12.2685691 8.08564348,12.3972992 7.92605459,12.3972992 L5.57803858,12.3972992 C5.41844969,12.3972992 5.28873977,12.2685691 5.28753985,12.1089847 L5.28753985,11.8905646 C5.28753985,11.7297695 5.4172479,11.5990817 5.57803858,11.5978817 L7.92605459,11.5978817 C8.08599743,11.5990709 8.2153641,11.7284376 8.21655332,11.8883804 L8.21655332,12.1089847 Z M15.6493891,10.0012308 L10.625727,10.0012308 C10.4664952,10.0012308 10.3374124,10.1303136 10.3374124,10.2895453 L10.3374124,15.5709432 C10.3396948,15.6474208 10.3722823,15.719855 10.4279981,15.7722934 C10.4837138,15.8247317 10.5579883,15.8528735 10.6344638,15.8505209 L15.6581259,15.8505209 C15.8173576,15.8505209 15.9464405,15.7214381 15.9464405,15.5622064 L15.9464405,10.2895453 C15.9464405,10.2115415 15.914904,10.1368518 15.8589299,10.082524 C15.8029558,10.0281962 15.7273572,9.99886704 15.6493891,10.0012308 L15.6493891,10.0012308 Z M14.6075253,12.1089847 C14.6069482,12.1860304 14.5757873,12.2596911 14.5208981,12.313761 C14.4660089,12.3678309 14.391888,12.3978807 14.3148423,12.3972992 L11.9668263,12.3972992 C11.8072374,12.3973075 11.6775275,12.2685691 11.6763276,12.1089847 L11.6763276,11.8905646 C11.6775168,11.7306218 11.8068835,11.6012551 11.9668263,11.6000659 L14.3148423,11.6000659 C14.4747852,11.6012551 14.6041519,11.7306218 14.6053411,11.8905646 L14.6075253,12.1089847 Z" id="形状备份-7" fill="#FFFFFF"></path>
            </g>
        </g>
    </g>
</svg>