<?xml version="1.0" encoding="UTF-8"?>
<svg width="20px" height="24px" viewBox="0 0 20 24" version="1.1" xmlns="http://www.w3.org/2000/svg" xmlns:xlink="http://www.w3.org/1999/xlink">
    <title>联系人mini备份</title>
    <g id="页面-1" stroke="none" stroke-width="1" fill="none" fill-rule="evenodd">
        <g id="落点切图整合" transform="translate(-741.000000, -227.000000)" fill-rule="nonzero">
            <g id="联系人mini备份" transform="translate(741.000000, 227.000000)">
                <path d="M10,0.5 C12.6233526,0.5 14.9983526,1.56332372 16.7175144,3.28248558 C18.4366763,5.00164744 19.5,7.37664744 19.5,10 C19.5,13.0460551 18.0663431,15.7572032 15.8371563,17.4957464 L15.8371563,17.4957464 L10.0000901,23.2950852 L4.17742239,17.5070936 C1.93990984,15.7690125 0.5,13.0526904 0.5,10 C0.5,7.37664744 1.56332372,5.00164744 3.28248558,3.28248558 C5.00164744,1.56332372 7.37664744,0.5 10,0.5 Z" id="形状结合" stroke="#FFFFFF" fill="#0091FF"></path>
                <path d="M12.7841601,11.028864 C14.3198694,12.0054271 15.3878403,13.7191224 15.5333322,15.7065898 C14.9956389,15.7795957 14.0393522,15.8581564 12.6748975,15.8581564 L12.6748975,15.8581564 L7.04275939,15.8581564 C5.67893405,15.8581564 4.72324934,15.7795957 4.18619916,15.7065898 C4.332895,13.7203812 5.40087962,12.0054271 6.93474189,11.028864 C7.74494843,11.6666256 8.75095467,12.0637388 9.86006666,12.0637388 C10.969165,12.0637388 11.9758142,11.6678433 12.7841601,11.028864 Z M9.86006666,3.52837191 C11.9518575,3.52837191 13.6545116,5.23039671 13.6545116,7.32220121 C13.6545116,9.41276067 11.9518575,11.1154285 9.86006666,11.1154285 C7.76764648,11.1154285 6.06622367,9.41274698 6.06622367,7.32220121 C6.06622367,5.23039671 7.76889152,3.52837191 9.86006666,3.52837191 Z" id="形状结合备份-2" fill="#FFFFFF"></path>
            </g>
        </g>
    </g>
</svg>