<?xml version="1.0" encoding="UTF-8"?>
<svg width="26px" height="29px" viewBox="0 0 26 29" version="1.1" xmlns="http://www.w3.org/2000/svg" xmlns:xlink="http://www.w3.org/1999/xlink">
    <title>人员 Wecomm mini备份 2</title>
    <g id="页面-1" stroke="none" stroke-width="1" fill="none" fill-rule="evenodd">
        <g id="落点切图整合" transform="translate(-641.000000, -364.000000)" fill-rule="nonzero">
            <g id="人员-Wecomm-mini备份-2" transform="translate(641.000000, 364.000000)">
                <path d="M10,5.5 C12.6233526,5.5 14.9983526,6.56332372 16.7175144,8.28248558 C18.4366763,10.0016474 19.5,12.3766474 19.5,15 C19.5,18.0460551 18.0663431,20.7572032 15.8371563,22.4957464 L15.8371563,22.4957464 L10.0000901,28.2950852 L4.17742239,22.5070936 C1.93990985,20.7690125 0.5,18.0526904 0.5,15 C0.5,12.3766474 1.56332372,10.0016474 3.28248558,8.28248558 C5.00164744,6.56332372 7.37664744,5.5 10,5.5 Z" id="形状结合" stroke="#FFFFFF" fill="#999999"></path>
                <path d="M12.7841601,16.028864 C14.3198694,17.0054271 15.3878403,18.7191224 15.5333322,20.7065898 C14.9956389,20.7795957 14.0393522,20.8581564 12.6748975,20.8581564 L12.6748975,20.8581564 L7.04275939,20.8581564 C5.67893405,20.8581564 4.72324934,20.7795957 4.18619916,20.7065898 C4.332895,18.7203812 5.40087962,17.0054271 6.93474189,16.028864 C7.74494843,16.6666256 8.75095467,17.0637388 9.86006666,17.0637388 C10.969165,17.0637388 11.9758142,16.6678433 12.7841601,16.028864 Z M9.86006666,8.52837191 C11.9518575,8.52837191 13.6545116,10.2303967 13.6545116,12.3222012 C13.6545116,14.4127607 11.9518575,16.1154285 9.86006666,16.1154285 C7.76764648,16.1154285 6.06622367,14.412747 6.06622367,12.3222012 C6.06622367,10.2303967 7.76889152,8.52837191 9.86006666,8.52837191 Z" id="形状结合备份-5" fill="#FFFFFF"></path>
                <g id="编组-2" transform="translate(14.000000, 0.000000)">
                    <circle id="椭圆形" stroke="#FFFFFF" stroke-width="0.5" fill="#999999" cx="5.7" cy="5.7" r="5.45"></circle>
                    <path d="M4.16473731,2.4 L7.23526269,2.4 C7.54568121,2.4 7.8,2.66353494 7.8,2.98520258 L7.8,8.41479742 C7.8,8.73646506 7.54568121,9 7.23526269,9 L4.16473731,9 C3.85431879,9 3.6,8.73646506 3.6,8.41479742 L3.6,2.98520258 C3.6,2.66353494 3.85431879,2.4 4.16473731,2.4 Z M4.07123776,3.34174985 L4.07123776,5.66318262 L7.31006233,5.66318262 L7.31006233,3.34174985 L4.07123776,3.34174985 Z M4.9015138,2.70616559 L4.9015138,2.95419847 L6.37506679,2.95419847 L6.37506679,2.70616559 L4.9015138,2.70616559 Z M5.36153161,5.91509102 C5.25307213,5.91509102 5.16331256,6.00810335 5.16331256,6.12049325 L5.16331256,6.43828538 C5.16331256,6.55067528 5.25307213,6.64368761 5.36153161,6.64368761 L5.96366874,6.64368761 C6.07212823,6.64368761 6.1618878,6.55067528 6.1618878,6.43828538 L6.1618878,6.12049325 C6.1618878,6.00810335 6.07212823,5.91509102 5.96366874,5.91509102 L5.36153161,5.91509102 Z M5.02119323,6.16699941 L4.12733749,6.16699941 L4.12733749,6.39177921 L5.02119323,6.39177921 L5.02119323,6.16699941 Z M7.19786287,6.16699941 L6.30400712,6.16699941 L6.30400712,6.39177921 L7.19786287,6.39177921 L7.19786287,6.16699941 Z M5.01745325,6.84133881 L4.12359751,6.84133881 L4.12359751,7.27927187 L5.01745325,7.27927187 L5.01745325,6.84133881 Z M6.10952805,6.84133881 L5.21193232,6.84133881 L5.21193232,7.27927187 L6.10578807,7.27927187 L6.10578807,6.84133881 L6.10952805,6.84133881 Z M7.1903829,6.84133881 L6.29652716,6.84133881 L6.29652716,7.27927187 L7.1903829,7.27927187 L7.1903829,6.84133881 L7.1903829,6.84133881 Z M5.01745325,7.41103934 L4.12359751,7.41103934 L4.12359751,7.8489724 L5.01745325,7.8489724 L5.01745325,7.41103934 L5.01745325,7.41103934 Z M6.10952805,7.41103934 L5.21193232,7.41103934 L5.21193232,7.8489724 L6.10578807,7.8489724 L6.10578807,7.41103934 L6.10952805,7.41103934 Z M7.1903829,7.41103934 L6.29652716,7.41103934 L6.29652716,7.8489724 L7.1903829,7.8489724 L7.1903829,7.41103934 L7.1903829,7.41103934 Z M5.01745325,8.01949501 L4.12359751,8.01949501 L4.12359751,8.45742807 L5.01745325,8.45742807 L5.01745325,8.01949501 L5.01745325,8.01949501 Z M6.10952805,8.01949501 L5.21193232,8.01949501 L5.21193232,8.45742807 L6.10578807,8.45742807 L6.10578807,8.01949501 L6.10952805,8.01949501 Z M7.1903829,8.01949501 L6.29652716,8.01949501 L6.29652716,8.45742807 L7.1903829,8.45742807 L7.1903829,8.01949501 L7.1903829,8.01949501 Z" id="形状备份-37" fill="#FFFFFF"></path>
                </g>
            </g>
        </g>
    </g>
</svg>