<?xml version="1.0" encoding="UTF-8"?>
<svg width="20px" height="24px" viewBox="0 0 20 24" version="1.1" xmlns="http://www.w3.org/2000/svg" xmlns:xlink="http://www.w3.org/1999/xlink">
    <title>集群终端mini备份 2</title>
    <g id="页面-1" stroke="none" stroke-width="1" fill="none" fill-rule="evenodd">
        <g id="落点切图整合" transform="translate(-282.000000, -368.000000)" fill-rule="nonzero">
            <g id="集群终端mini备份-2" transform="translate(282.000000, 368.000000)">
                <path d="M10,0.5 C12.6233526,0.5 14.9983526,1.56332372 16.7175144,3.28248558 C18.4366763,5.00164744 19.5,7.37664744 19.5,10 C19.5,13.0460551 18.0663431,15.7572032 15.8371563,17.4957464 L15.8371563,17.4957464 L10.0000901,23.2950852 L4.17742239,17.5070936 C1.93990984,15.7690125 0.5,13.0526904 0.5,10 C0.5,7.37664744 1.56332372,5.00164744 3.28248558,3.28248558 C5.00164744,1.56332372 7.37664744,0.5 10,0.5 Z" id="形状结合" stroke="#FFFFFF" fill="#999999"></path>
                <path d="M8.45093964,2.5416133 C8.68367228,2.5416133 8.87747594,2.71530417 8.89661289,2.9409133 L8.89776948,2.9578633 L9.03401595,6.0190633 L9.3797597,6.0190633 L9.3797597,6.7949383 L12.3491155,6.7949383 C12.9378206,6.7949383 13.4164181,7.2528133 13.4292949,7.8222883 L13.4295262,7.8457633 L13.4295262,16.4907883 C13.4295262,17.0632633 12.9588706,17.5288633 12.3731726,17.5413133 L12.3491155,17.5416133 L7.34338765,17.5416133 C6.75553076,17.5416133 6.43877891,17.0846383 6.42968039,16.5159133 L6.42952617,16.4908633 L6.42952617,7.8457633 C6.42952617,7.2732883 6.9002589,6.8076883 7.48557129,6.7952383 L7.5097055,6.7949383 L7.52088589,6.7949383 L7.52088589,6.0190633 L7.8662441,6.0190633 L8.0041098,2.9576383 C8.0145922,2.72499757 8.21153646,2.5416133 8.45093964,2.5416133 Z M8.28393618,12.0416133 L7.57511617,12.0416133 C7.53650911,12.0415936 7.49947756,12.0595883 7.47217233,12.0916367 C7.44486709,12.123685 7.42952617,12.1671603 7.42952617,12.2124933 L7.42952617,12.8707333 C7.42952617,12.9160663 7.44486709,12.9595416 7.47217233,12.9915899 C7.49947756,13.0236383 7.53650911,13.041633 7.57511617,13.0416133 L8.28393618,13.0416133 C8.32254324,13.041633 8.35957479,13.0236383 8.38688002,12.9915899 C8.41418526,12.9595416 8.42952617,12.9160663 8.42952617,12.8707333 L8.42952617,12.2124933 C8.42952617,12.1671603 8.41418526,12.123685 8.38688002,12.0916367 C8.35957479,12.0595883 8.32254324,12.0415936 8.28393618,12.0416133 L8.28393618,12.0416133 Z M10.2840533,12.0416133 L9.57512537,12.0416133 C9.53651587,12.0415936 9.49948198,12.0595883 9.47217502,12.0916367 C9.44486806,12.123685 9.42952617,12.1671603 9.42952617,12.2124933 L9.42952617,12.8707333 C9.42952617,12.9160663 9.44486806,12.9595416 9.47217502,12.9915899 C9.49948198,13.0236383 9.53651587,13.041633 9.57512537,13.0416133 L10.2839901,13.0416133 C10.3643675,13.0416133 10.4295262,12.9651077 10.4295262,12.8707333 L10.4295262,12.2124933 C10.4295262,12.1181189 10.3643675,12.0416133 10.2839901,12.0416133 L10.2840533,12.0416133 Z M12.2839993,12.0416133 L11.5751162,12.0416133 C11.5365091,12.0415936 11.4994776,12.0595883 11.4721723,12.0916367 C11.4448671,12.123685 11.4295262,12.1671603 11.4295262,12.2124933 L11.4295262,12.8707333 C11.4295262,12.9160663 11.4448671,12.9595416 11.4721723,12.9915899 C11.4994776,13.0236383 11.5365091,13.041633 11.5751162,13.0416133 L12.2839993,13.0416133 C12.3643716,13.0416133 12.4295262,12.9651077 12.4295262,12.8707333 L12.4295262,12.2124933 C12.4295262,12.1181189 12.3643716,12.0416133 12.2839993,12.0416133 Z M12.0143287,7.5416133 L7.84472365,7.5416133 C7.61541642,7.5416133 7.42952617,7.73886027 7.42952617,7.98217674 L7.42952617,10.6011316 C7.42952617,10.8444161 7.61544648,11.0416133 7.84472365,11.0416133 L12.0144057,11.0416133 C12.2436528,11.0415682 12.4295262,10.8443842 12.4295262,10.6011316 L12.4295262,7.98209505 C12.4295262,7.73881048 12.2436059,7.5416133 12.0143287,7.5416133 Z M11.8540545,8.0416133 C11.8957363,8.0416133 11.9295262,8.07771937 11.9295262,8.12225846 L11.9295262,10.4609681 C11.9295262,10.5055072 11.8957363,10.5416133 11.8540545,10.5416133 L8.00499787,10.5416133 C7.96331601,10.5416133 7.92952617,10.5055072 7.92952617,10.4609681 L7.92952617,8.12225846 C7.92952617,8.07771937 7.96331601,8.0416133 8.00499787,8.0416133 L11.8540545,8.0416133 Z" id="形状备份-42" fill="#FFFFFF"></path>
            </g>
        </g>
    </g>
</svg>