<?xml version="1.0" encoding="UTF-8"?>
<svg width="50px" height="55px" viewBox="0 0 50 55" version="1.1" xmlns="http://www.w3.org/2000/svg" xmlns:xlink="http://www.w3.org/1999/xlink">
    <title>人员 集群终端备份</title>
    <defs>
        <ellipse id="path-1" cx="24" cy="8" rx="24" ry="8"></ellipse>
        <filter x="-8.3%" y="-25.0%" width="116.7%" height="150.0%" filterUnits="objectBoundingBox" id="filter-2">
            <feGaussianBlur stdDeviation="4" in="SourceAlpha" result="shadowBlurInner1"></feGaussianBlur>
            <feOffset dx="0" dy="0" in="shadowBlurInner1" result="shadowOffsetInner1"></feOffset>
            <feComposite in="shadowOffsetInner1" in2="SourceAlpha" operator="arithmetic" k2="-1" k3="1" result="shadowInnerInner1"></feComposite>
            <feColorMatrix values="0 0 0 0 0   0 0 0 0 0.568627451   0 0 0 0 1  0 0 0 1 0" type="matrix" in="shadowInnerInner1"></feColorMatrix>
        </filter>
        <filter x="0.0%" y="0.0%" width="100.0%" height="100.0%" filterUnits="objectBoundingBox" id="filter-3">
            <feGaussianBlur stdDeviation="0" in="SourceGraphic"></feGaussianBlur>
        </filter>
    </defs>
    <g id="页面-1" stroke="none" stroke-width="1" fill="none" fill-rule="evenodd">
        <g id="落点切图整合" transform="translate(-1142.000000, -140.000000)">
            <g id="人员-集群终端备份" transform="translate(1142.000000, 140.000000)">
                <g id="编组-7备份-5" transform="translate(0.000000, 38.400000)">
                    <g id="椭圆形" fill="black" fill-opacity="1">
                        <use filter="url(#filter-2)" xlink:href="#path-1"></use>
                    </g>
                    <ellipse id="椭圆形" fill="#00519B" opacity="0.703760901" filter="url(#filter-3)" cx="24" cy="8" rx="12" ry="4"></ellipse>
                </g>
                <g id="编组-8备份-5" transform="translate(8.000000, 0.000000)" fill-rule="nonzero">
                    <path d="M16.128,8.5 C20.443553,8.5 24.350553,10.2492235 27.1786648,13.0773352 C30.0067765,15.905447 31.756,19.812447 31.756,24.128 C31.756,28.3446763 30.0860255,32.171316 27.3774173,34.9764069 L27.3774173,34.9764069 L16.1279487,46.2292741 L4.88087975,34.9820736 C2.17000743,32.1714555 0.5,28.3447505 0.5,24.128 C0.5,19.812447 2.24922348,15.905447 5.07733522,13.0773352 C7.90544697,10.2492235 11.812447,8.5 16.128,8.5 Z" id="形状结合" stroke="#FFFFFF" fill="#0091FF"></path>
                    <path d="M20.6027892,26.194325 C22.9505323,27.6872633 24.5832121,30.3071058 24.8056353,33.3454822 C23.9836272,33.4570913 22.5216867,33.5771923 20.4357521,33.5771923 L20.4357521,33.5771923 L11.82552,33.5771923 C9.74054756,33.5771923 8.27952742,33.4570913 7.45850233,33.3454822 C7.68276623,30.3090301 9.31546685,27.6872633 11.6603863,26.194325 C12.8990041,27.1693145 14.4369541,27.7764084 16.132529,27.7764084 C17.8280829,27.7764084 19.367016,27.1711761 20.6027892,26.194325 Z M16.132529,14.7278133 C19.3303917,14.7278133 21.9333548,17.3298142 21.9333548,20.5276978 C21.9333548,23.7236781 19.3303917,26.3266621 16.132529,26.3266621 C12.9337041,26.3266621 10.3326235,23.7236572 10.3326235,20.5276978 C10.3326235,17.3298142 12.9356075,14.7278133 16.132529,14.7278133 Z" id="形状结合备份-2" fill="#FFFFFF"></path>
                    <circle id="椭圆形" stroke="#FFFFFF" stroke-width="0.8" fill="#0BD295" cx="32.5" cy="9.5" r="9.1"></circle>
                    <path d="M31.0097884,1.62209728 C31.2425211,1.62209728 31.4363247,1.79578815 31.4554617,2.02139728 L31.4566183,2.03834728 L31.5928647,5.09954728 L31.9386085,5.09954728 L31.9386085,5.87542228 L34.9079643,5.87542228 C35.4966694,5.87542228 35.9752669,6.33329728 35.9881436,6.90277228 L35.988375,6.92624728 L35.988375,15.5712723 C35.988375,16.1437473 35.5177193,16.6093473 34.9320214,16.6217973 L34.9079643,16.6220973 L29.9022364,16.6220973 C29.3143795,16.6220973 28.9976277,16.1651223 28.9885292,15.5963973 L28.988375,15.5713473 L28.988375,6.92624728 C28.988375,6.35377228 29.4591077,5.88817228 30.0444201,5.87572228 L30.0685543,5.87542228 L30.0797347,5.87542228 L30.0797347,5.09954728 L30.4250929,5.09954728 L30.5629586,2.03812228 C30.573441,1.80548155 30.7703852,1.62209728 31.0097884,1.62209728 Z M30.842785,11.1220973 L30.133965,11.1220973 C30.0953579,11.1220776 30.0583263,11.1400723 30.0310211,11.1721207 C30.0037159,11.204169 29.988375,11.2476442 29.988375,11.2929773 L29.988375,11.9512173 C29.988375,11.9965503 30.0037159,12.0400256 30.0310211,12.0720739 C30.0583263,12.1041222 30.0953579,12.1221169 30.133965,12.1220973 L30.842785,12.1220973 C30.881392,12.1221169 30.9184236,12.1041222 30.9457288,12.0720739 C30.973034,12.0400256 30.988375,11.9965503 30.988375,11.9512173 L30.988375,11.2929773 C30.988375,11.2476442 30.973034,11.204169 30.9457288,11.1721207 C30.9184236,11.1400723 30.881392,11.1220776 30.842785,11.1220973 L30.842785,11.1220973 Z M32.842902,11.1220973 L32.1339741,11.1220973 C32.0953646,11.1220776 32.0583308,11.1400723 32.0310238,11.1721207 C32.0037168,11.204169 31.988375,11.2476442 31.988375,11.2929773 L31.988375,11.9512173 C31.988375,11.9965503 32.0037168,12.0400256 32.0310238,12.0720739 C32.0583308,12.1041222 32.0953646,12.1221169 32.1339741,12.1220973 L32.8428389,12.1220973 C32.9232162,12.1220973 32.988375,12.0455917 32.988375,11.9512173 L32.988375,11.2929773 C32.988375,11.1986029 32.9232162,11.1220973 32.8428389,11.1220973 L32.842902,11.1220973 Z M34.8428481,11.1220973 L34.133965,11.1220973 C34.0953579,11.1220776 34.0583263,11.1400723 34.0310211,11.1721207 C34.0037159,11.204169 33.988375,11.2476442 33.988375,11.2929773 L33.988375,11.9512173 C33.988375,11.9965503 34.0037159,12.0400256 34.0310211,12.0720739 C34.0583263,12.1041222 34.0953579,12.1221169 34.133965,12.1220973 L34.8428481,12.1220973 C34.9232204,12.1220973 34.988375,12.0455917 34.988375,11.9512173 L34.988375,11.2929773 C34.988375,11.1986029 34.9232204,11.1220973 34.8428481,11.1220973 Z M34.5731775,6.62209728 L30.4035724,6.62209728 C30.1742652,6.62209728 29.988375,6.81934425 29.988375,7.06266072 L29.988375,9.68161553 C29.988375,9.9249001 30.1742953,10.1220973 30.4035724,10.1220973 L34.5732545,10.1220973 C34.8025016,10.1220522 34.988375,9.9248682 34.988375,9.68161553 L34.988375,7.06257903 C34.988375,6.81929446 34.8024547,6.62209728 34.5731775,6.62209728 Z M34.4129033,7.12209728 C34.4545851,7.12209728 34.488375,7.15820335 34.488375,7.20274244 L34.488375,9.54145212 C34.488375,9.58599121 34.4545851,9.62209728 34.4129033,9.62209728 L30.5638467,9.62209728 C30.5221648,9.62209728 30.488375,9.58599121 30.488375,9.54145212 L30.488375,7.20274244 C30.488375,7.15820335 30.5221648,7.12209728 30.5638467,7.12209728 L34.4129033,7.12209728 Z" id="形状备份-16" fill="#FFFFFF"></path>
                </g>
            </g>
        </g>
    </g>
</svg>