<?xml version="1.0" encoding="UTF-8"?>
<svg width="48px" height="48px" viewBox="0 0 48 48" version="1.1" xmlns="http://www.w3.org/2000/svg" xmlns:xlink="http://www.w3.org/1999/xlink">
    <title>应急专家备份 2</title>
    <defs>
        <ellipse id="path-1" cx="24" cy="8" rx="24" ry="8"></ellipse>
        <filter x="-6.2%" y="-18.8%" width="112.5%" height="137.5%" filterUnits="objectBoundingBox" id="filter-2">
            <feGaussianBlur stdDeviation="3" in="SourceAlpha" result="shadowBlurInner1"></feGaussianBlur>
            <feOffset dx="0" dy="0" in="shadowBlurInner1" result="shadowOffsetInner1"></feOffset>
            <feComposite in="shadowOffsetInner1" in2="SourceAlpha" operator="arithmetic" k2="-1" k3="1" result="shadowInnerInner1"></feComposite>
            <feColorMatrix values="0 0 0 0 1   0 0 0 0 1   0 0 0 0 1  0 0 0 1 0" type="matrix" in="shadowInnerInner1"></feColorMatrix>
        </filter>
    </defs>
    <g id="页面-1" stroke="none" stroke-width="1" fill="none" fill-rule="evenodd">
        <g id="落点切图整合" transform="translate(-964.000000, -214.000000)">
            <g id="应急专家备份-2" transform="translate(964.000000, 215.000000)">
                <g id="编组-7备份-48" transform="translate(0.000000, 30.400000)">
                    <g id="椭圆形备份-33" opacity="0.646650042" fill="black" fill-opacity="1">
                        <use filter="url(#filter-2)" xlink:href="#path-1"></use>
                    </g>
                    <ellipse id="椭圆形备份-34" fill="#999999" opacity="0.294852121" cx="24" cy="8" rx="12" ry="4"></ellipse>
                </g>
                <g id="编组-8备份-48" transform="translate(8.000000, 0.000000)" fill-rule="nonzero">
                    <path d="M16.128,-2.87769808e-13 C25.0352484,-2.87769808e-13 32.256,7.22075156 32.256,16.128 C32.256,20.479606 30.532567,24.4286826 27.7310241,27.3299069 L27.74016,27.3291834 L16.128,38.9364363 L4.52099812,27.3291834 C1.72343298,24.4286826 -6.03961325e-14,20.479606 -6.03961325e-14,16.128 C-6.03961325e-14,7.22075156 7.22075156,-2.87769808e-13 16.128,-2.87769808e-13 Z" id="形状结合" stroke="#FFFFFF" stroke-width="0.8" fill="#999999"></path>
                    <path d="M26.4557736,21.7358968 C26.1154045,20.7576491 24.9893995,20.6174435 24.0479415,20.2233004 C23.0143525,19.7915412 21.8686275,19.2896506 20.8376887,18.8702021 C20.5435419,18.7906383 20.2488251,18.7113309 19.9546783,18.6315391 C19.6034518,18.3915083 19.2598625,17.5950719 19.0720667,17.1989055 C18.8846985,17.1726597 18.6978716,17.146015 18.5101044,17.1195982 C18.5392569,16.5064266 18.9214882,16.4738259 19.0720667,16.0055904 C19.2044357,15.5918698 19.0856883,15.0550419 19.2956833,14.6732095 C19.4416739,14.4074743 19.7705301,14.4057075 19.9353572,14.1784148 C20.0844824,13.9716399 20.1828829,13.6116934 20.2295895,13.3582119 C20.3148528,12.8959323 20.3886317,12.2629552 20.1674944,11.8045512 C20.0399415,11.5408392 19.9594942,11.5155623 19.9240724,11.1956541 C19.8813268,10.8081793 20.039457,9.54359301 20.0458974,9.27044851 C20.0619982,8.56104224 20.0445295,8.50364915 19.8718942,7.81250953 C19.8718942,7.81250953 19.6614148,7.18654271 19.3319886,6.998519 L18.6753304,6.88587006 L18.269418,6.51338477 C16.6341132,5.51476167 14.8808305,6.21504885 13.9417093,6.59277762 C12.5883831,7.02792801 11.7331573,8.34244121 12.3305415,11.1496598 C12.4320766,11.6290092 12.0655472,11.8432787 12.0894562,12.1047394 C12.1416344,12.6771602 12.1530617,14.0527997 12.6980398,14.3918009 C12.7488501,14.4225492 13.1354415,14.5191828 13.1331047,14.492538 C13.1866507,15.0500834 13.2397978,15.6074292 13.2935718,16.1642621 C13.4296453,16.5344962 13.7562503,16.5753325 13.8509461,17.0979974 L13.4328655,17.1989625 C13.2454972,17.5951289 12.901509,18.3915652 12.5497695,18.6315961 C12.2555372,18.7113879 11.9613904,18.7906953 11.667158,18.8702592 C10.6363332,19.2897076 9.49009529,19.7915982 8.45690522,20.2233574 C7.5159317,20.6175005 6.38949922,20.7577061 6.04867417,21.7359538 C6.04867417,22.4002492 5.9860946,23.9699537 6.00285088,24.839998 L15.0003472,24.839998 L15.66071,20.3658143 L15.1117993,19.2170116 L16.3796058,18.6142984 L17.4469924,19.2044444 L16.8586132,20.3879565 L17.899526,24.839998 L26.5019104,24.839998 C26.5192366,23.9698967 26.4557736,22.4002207 26.4557736,21.7358968" id="路径" fill="#FFFFFF"></path>
                </g>
            </g>
        </g>
    </g>
</svg>