<?xml version="1.0" encoding="UTF-8"?>
<svg width="48px" height="48px" viewBox="0 0 48 48" version="1.1" xmlns="http://www.w3.org/2000/svg" xmlns:xlink="http://www.w3.org/1999/xlink">
    <title>避难场所备份 2</title>
    <defs>
        <ellipse id="path-1" cx="24" cy="8" rx="24" ry="8"></ellipse>
        <filter x="-6.2%" y="-18.8%" width="112.5%" height="137.5%" filterUnits="objectBoundingBox" id="filter-2">
            <feGaussianBlur stdDeviation="3" in="SourceAlpha" result="shadowBlurInner1"></feGaussianBlur>
            <feOffset dx="0" dy="0" in="shadowBlurInner1" result="shadowOffsetInner1"></feOffset>
            <feComposite in="shadowOffsetInner1" in2="SourceAlpha" operator="arithmetic" k2="-1" k3="1" result="shadowInnerInner1"></feComposite>
            <feColorMatrix values="0 0 0 0 1   0 0 0 0 1   0 0 0 0 1  0 0 0 1 0" type="matrix" in="shadowInnerInner1"></feColorMatrix>
        </filter>
    </defs>
    <g id="页面-1" stroke="none" stroke-width="1" fill="none" fill-rule="evenodd">
        <g id="落点切图整合" transform="translate(-754.000000, -214.000000)">
            <g id="避难场所备份-2" transform="translate(754.000000, 215.000000)">
                <g id="编组-7备份-43" transform="translate(0.000000, 30.400000)">
                    <g id="椭圆形备份-23" opacity="0.646650042" fill="black" fill-opacity="1">
                        <use filter="url(#filter-2)" xlink:href="#path-1"></use>
                    </g>
                    <ellipse id="椭圆形备份-24" fill="#999999" opacity="0.294852121" cx="24" cy="8" rx="12" ry="4"></ellipse>
                </g>
                <g id="编组-8备份-43" transform="translate(8.000000, 0.000000)" fill-rule="nonzero">
                    <path d="M16.128,-1.17239551e-13 C25.0352484,-1.17239551e-13 32.256,7.22075156 32.256,16.128 C32.256,20.479606 30.532567,24.4286826 27.7310241,27.3299069 L27.74016,27.3291834 L16.128,38.9364363 L4.52099812,27.3291834 C1.72343298,24.4286826 -1.17239551e-13,20.479606 -1.17239551e-13,16.128 C-1.17239551e-13,7.22075156 7.22075156,-1.17239551e-13 16.128,-1.17239551e-13 Z" id="形状结合" stroke="#FFFFFF" stroke-width="0.8" fill="#999999"></path>
                    <path d="M25.8844937,23.7207057 L18.4761044,11.7415998 C18.4648397,11.706168 18.4490289,11.6723117 18.4290591,11.6408595 L16.5497459,8.61864928 L17.7483791,6.69131567 C17.8331333,6.55478407 17.8386645,6.38410471 17.7629245,6.24248147 C17.6879916,6.10149935 17.5424549,6.01105106 17.3815619,6.00547183 C17.2207529,6.00050127 17.0696125,6.08128077 16.9856538,6.21707152 L16.0215655,7.76865266 L15.0574772,6.21707152 C14.9744911,6.0789737 14.8225307,5.99605638 14.6602055,6.00014448 C14.4979153,6.00541799 14.3510566,6.09681368 14.2761156,6.23933334 C14.2004577,6.38253512 14.2076461,6.55477313 14.2949792,6.69131567 L15.4933851,8.61842442 L15.3983853,8.77133386 C15.3877036,8.78617507 15.3758854,8.80169088 15.3670218,8.81810616 L14.0372526,10.9610871 L13.6129356,11.6408595 C13.6088447,11.6478304 13.6045265,11.6550261 13.6008901,11.6631213 L6.11659196,23.7191316 C5.79932008,24.2295793 6.16704637,24.8888889 6.76772658,24.8888889 L13.0699825,24.8888889 C13.3968119,24.8875306 13.6868968,24.6814755 13.7927078,24.3755179 L15.2929311,20.0675192 C15.5292941,19.3884213 16.4879279,19.380551 16.7356545,20.0553763 L18.3251957,24.387211 C18.4344923,24.687555 18.7221068,24.8880847 19.0447392,24.8888889 L25.2317682,24.8888889 C25.8326757,24.8888889 26.1997201,24.2309285 25.8844937,23.7207057 Z M18.3151957,15.4327889 C18.3151957,15.7325364 18.0720146,15.9758423 17.7720154,15.9758423 L16.5433823,15.9758423 L16.5433823,17.2051893 C16.5372459,17.5008891 16.2958829,17.7372242 16.0002019,17.7372242 C15.7045209,17.7372242 15.4629306,17.5008891 15.4570216,17.2051893 L15.4570216,15.9758423 L14.2272521,15.9758423 C14.029969,15.9794445 13.8462913,15.8766917 13.7477079,15.7075762 C13.6482443,15.5376817 13.6482443,15.328121 13.7477079,15.1582265 C13.8462913,14.9891109 14.029969,14.8863581 14.2272521,14.8899604 L15.4570216,14.8899604 L15.4570216,13.661288 C15.4526448,13.465362 15.5550814,13.2822404 15.7252027,13.1818719 C15.8946635,13.0823725 16.1055131,13.0823725 16.2749739,13.1818719 C16.4450952,13.2822404 16.5475318,13.465362 16.543155,13.661288 L16.543155,14.8890609 L17.7731517,14.8890609 C17.9172423,14.8890609 18.055651,14.9461771 18.1574689,15.0482666 C18.2592868,15.1503561 18.3165594,15.2886492 18.3165594,15.4327889 L18.3151957,15.4327889 L18.3151957,15.4327889 Z" id="形状备份-23" fill="#FFFFFF"></path>
                </g>
            </g>
        </g>
    </g>
</svg>