<?xml version="1.0" encoding="UTF-8"?>
<svg width="50px" height="55px" viewBox="0 0 50 55" version="1.1" xmlns="http://www.w3.org/2000/svg" xmlns:xlink="http://www.w3.org/1999/xlink">
    <title>人员 Wecomm备份</title>
    <defs>
        <ellipse id="path-1" cx="24" cy="8" rx="24" ry="8"></ellipse>
        <filter x="-8.3%" y="-25.0%" width="116.7%" height="150.0%" filterUnits="objectBoundingBox" id="filter-2">
            <feGaussianBlur stdDeviation="4" in="SourceAlpha" result="shadowBlurInner1"></feGaussianBlur>
            <feOffset dx="0" dy="0" in="shadowBlurInner1" result="shadowOffsetInner1"></feOffset>
            <feComposite in="shadowOffsetInner1" in2="SourceAlpha" operator="arithmetic" k2="-1" k3="1" result="shadowInnerInner1"></feComposite>
            <feColorMatrix values="0 0 0 0 0   0 0 0 0 0.568627451   0 0 0 0 1  0 0 0 1 0" type="matrix" in="shadowInnerInner1"></feColorMatrix>
        </filter>
        <filter x="0.0%" y="0.0%" width="100.0%" height="100.0%" filterUnits="objectBoundingBox" id="filter-3">
            <feGaussianBlur stdDeviation="0" in="SourceGraphic"></feGaussianBlur>
        </filter>
    </defs>
    <g id="页面-1" stroke="none" stroke-width="1" fill="none" fill-rule="evenodd">
        <g id="落点切图整合" transform="translate(-1072.000000, -140.000000)">
            <g id="人员-Wecomm备份" transform="translate(1072.000000, 140.000000)">
                <g id="编组-7备份-15" transform="translate(0.000000, 38.400000)">
                    <g id="椭圆形" fill="black" fill-opacity="1">
                        <use filter="url(#filter-2)" xlink:href="#path-1"></use>
                    </g>
                    <ellipse id="椭圆形" fill="#00519B" opacity="0.703760901" filter="url(#filter-3)" cx="24" cy="8" rx="12" ry="4"></ellipse>
                </g>
                <g id="编组-8备份-15" transform="translate(8.000000, 0.000000)" fill-rule="nonzero">
                    <path d="M16.128,8.5 C20.443553,8.5 24.350553,10.2492235 27.1786648,13.0773352 C30.0067765,15.905447 31.756,19.812447 31.756,24.128 C31.756,28.3446763 30.0860255,32.171316 27.3774173,34.9764069 L27.3774173,34.9764069 L16.1279487,46.2292741 L4.88087975,34.9820736 C2.17000743,32.1714555 0.5,28.3447505 0.5,24.128 C0.5,19.812447 2.24922348,15.905447 5.07733522,13.0773352 C7.90544697,10.2492235 11.812447,8.5 16.128,8.5 Z" id="形状结合" stroke="#FFFFFF" fill="#0091FF"></path>
                    <path d="M20.6027892,26.194325 C22.9505323,27.6872633 24.5832121,30.3071058 24.8056353,33.3454822 C23.9836272,33.4570913 22.5216867,33.5771923 20.4357521,33.5771923 L20.4357521,33.5771923 L11.82552,33.5771923 C9.74054756,33.5771923 8.27952742,33.4570913 7.45850233,33.3454822 C7.68276623,30.3090301 9.31546685,27.6872633 11.6603863,26.194325 C12.8990041,27.1693145 14.4369541,27.7764084 16.132529,27.7764084 C17.8280829,27.7764084 19.367016,27.1711761 20.6027892,26.194325 Z M16.132529,14.7278133 C19.3303917,14.7278133 21.9333548,17.3298142 21.9333548,20.5276978 C21.9333548,23.7236781 19.3303917,26.3266621 16.132529,26.3266621 C12.9337041,26.3266621 10.3326235,23.7236572 10.3326235,20.5276978 C10.3326235,17.3298142 12.9356075,14.7278133 16.132529,14.7278133 Z" id="形状结合备份-2" fill="#FFFFFF"></path>
                    <circle id="椭圆形" stroke="#FFFFFF" stroke-width="0.8" fill="#0BD295" cx="32.5" cy="9.5" r="9.1"></circle>
                    <path d="M29.9412289,4 L35.0587711,4 C35.5761354,4 36,4.4392249 36,4.97533764 L36,14.0246624 C36,14.5607751 35.5761354,15 35.0587711,15 L29.9412289,15 C29.4238646,15 29,14.5607751 29,14.0246624 L29,4.97533764 C29,4.4392249 29.4238646,4 29.9412289,4 Z M29.7853963,5.56958309 L29.7853963,9.4386377 L35.1834372,9.4386377 L35.1834372,5.56958309 L29.7853963,5.56958309 Z M31.1691897,4.51027598 L31.1691897,4.92366412 L33.6251113,4.92366412 L33.6251113,4.51027598 L31.1691897,4.51027598 Z M31.935886,9.85848503 C31.7551202,9.85848503 31.6055209,10.0135056 31.6055209,10.2008221 L31.6055209,10.7304756 C31.6055209,10.9177921 31.7551202,11.0728127 31.935886,11.0728127 L32.9394479,11.0728127 C33.1202137,11.0728127 33.269813,10.9177921 33.269813,10.7304756 L33.269813,10.2008221 C33.269813,10.0135056 33.1202137,9.85848503 32.9394479,9.85848503 L31.935886,9.85848503 Z M31.3686554,10.2783324 L29.8788958,10.2783324 L29.8788958,10.6529654 L31.3686554,10.6529654 L31.3686554,10.2783324 Z M34.9964381,10.2783324 L33.5066785,10.2783324 L33.5066785,10.6529654 L34.9964381,10.6529654 L34.9964381,10.2783324 Z M31.3624221,11.4022314 L29.8726625,11.4022314 L29.8726625,12.1321198 L31.3624221,12.1321198 L31.3624221,11.4022314 Z M33.1825467,11.4022314 L31.6865539,11.4022314 L31.6865539,12.1321198 L33.1763134,12.1321198 L33.1763134,11.4022314 L33.1825467,11.4022314 Z M34.9839715,11.4022314 L33.4942119,11.4022314 L33.4942119,12.1321198 L34.9839715,12.1321198 L34.9839715,11.4022314 L34.9839715,11.4022314 Z M31.3624221,12.3517322 L29.8726625,12.3517322 L29.8726625,13.0816207 L31.3624221,13.0816207 L31.3624221,12.3517322 L31.3624221,12.3517322 Z M33.1825467,12.3517322 L31.6865539,12.3517322 L31.6865539,13.0816207 L33.1763134,13.0816207 L33.1763134,12.3517322 L33.1825467,12.3517322 Z M34.9839715,12.3517322 L33.4942119,12.3517322 L33.4942119,13.0816207 L34.9839715,13.0816207 L34.9839715,12.3517322 L34.9839715,12.3517322 Z M31.3624221,13.365825 L29.8726625,13.365825 L29.8726625,14.0957134 L31.3624221,14.0957134 L31.3624221,13.365825 L31.3624221,13.365825 Z M33.1825467,13.365825 L31.6865539,13.365825 L31.6865539,14.0957134 L33.1763134,14.0957134 L33.1763134,13.365825 L33.1825467,13.365825 Z M34.9839715,13.365825 L33.4942119,13.365825 L33.4942119,14.0957134 L34.9839715,14.0957134 L34.9839715,13.365825 L34.9839715,13.365825 Z" id="形状备份-30" fill="#FFFFFF"></path>
                </g>
            </g>
        </g>
    </g>
</svg>