<?xml version="1.0" encoding="UTF-8"?>
<svg width="48px" height="47px" viewBox="0 0 48 47" version="1.1" xmlns="http://www.w3.org/2000/svg" xmlns:xlink="http://www.w3.org/1999/xlink">
    <title>会场终端备份</title>
    <defs>
        <ellipse id="path-1" cx="24" cy="8" rx="24" ry="8"></ellipse>
        <filter x="-8.3%" y="-25.0%" width="116.7%" height="150.0%" filterUnits="objectBoundingBox" id="filter-2">
            <feGaussianBlur stdDeviation="4" in="SourceAlpha" result="shadowBlurInner1"></feGaussianBlur>
            <feOffset dx="0" dy="0" in="shadowBlurInner1" result="shadowOffsetInner1"></feOffset>
            <feComposite in="shadowOffsetInner1" in2="SourceAlpha" operator="arithmetic" k2="-1" k3="1" result="shadowInnerInner1"></feComposite>
            <feColorMatrix values="0 0 0 0 0   0 0 0 0 0.568627451   0 0 0 0 1  0 0 0 1 0" type="matrix" in="shadowInnerInner1"></feColorMatrix>
        </filter>
        <filter x="0.0%" y="0.0%" width="100.0%" height="100.0%" filterUnits="objectBoundingBox" id="filter-3">
            <feGaussianBlur stdDeviation="0" in="SourceGraphic"></feGaussianBlur>
        </filter>
    </defs>
    <g id="页面-1" stroke="none" stroke-width="1" fill="none" fill-rule="evenodd">
        <g id="落点切图整合" transform="translate(-166.000000, -148.000000)">
            <g id="会场终端备份" transform="translate(166.000000, 148.000000)">
                <g id="编组-7备份-23" transform="translate(0.000000, 30.400000)">
                    <g id="椭圆形" fill="black" fill-opacity="1">
                        <use filter="url(#filter-2)" xlink:href="#path-1"></use>
                    </g>
                    <ellipse id="椭圆形" fill="#00519B" opacity="0.703760901" filter="url(#filter-3)" cx="24" cy="8" rx="12" ry="4"></ellipse>
                </g>
                <g id="编组-8备份-23" transform="translate(8.000000, 0.000000)" fill-rule="nonzero">
                    <path d="M16.128,0.5 C20.443553,0.5 24.350553,2.24922348 27.1786648,5.07733522 C30.0067765,7.90544697 31.756,11.812447 31.756,16.128 C31.756,20.3446763 30.0860255,24.171316 27.3774173,26.9764069 L27.3774173,26.9764069 L16.1279487,38.2292741 L4.88087975,26.9820736 C2.17000743,24.1714555 0.5,20.3447505 0.5,16.128 C0.5,11.812447 2.24922348,7.90544697 5.07733522,5.07733522 C7.90544697,2.24922348 11.812447,0.5 16.128,0.5 Z" id="形状结合" stroke="#FFFFFF" fill="#0091FF"></path>
                    <path d="M16.1938431,11.8777199 C15.2701405,11.8777199 14.3997285,12.2329901 13.7469196,12.8791378 C13.0918901,13.5252855 12.732179,14.3823748 12.732179,15.2949751 C12.732179,16.2075755 13.0918901,17.0646648 13.7469196,17.7108125 C14.3997285,18.3569602 15.2701405,18.7122304 16.1938431,18.7122304 C17.1175456,18.7122304 17.9879576,18.3569602 18.6407666,17.7108125 C19.295796,17.0646648 19.6555071,16.2075755 19.6555071,15.2949751 C19.6555071,14.3823748 19.295796,13.5252855 18.6407666,12.8791378 C17.9857371,12.2307697 17.1153251,11.8777199 16.1938431,11.8777199 Z M18.2588511,15.5036964 C18.1633722,16.4629259 17.3773369,17.2400795 16.4047847,17.3333379 C15.0925054,17.4621234 13.9956087,16.3807697 14.1266146,15.0840335 C14.2220934,14.1248039 15.0081288,13.3476504 15.9806809,13.2543919 C17.2929602,13.1256065 18.389857,14.2069602 18.2588511,15.5036964 L18.2588511,15.5036964 Z M25.1932813,15.2949751 C25.1932813,9.87710457 20.2861117,5.59387821 14.6217724,6.53978512 C11.1201405,7.12376051 7.78726192,10.5188114 7.2876632,13.9915776 C6.69036518,18.1304754 8.98851929,21.8208447 12.4701673,23.3884744 C10.9380645,23.8481052 9.52586547,24.5897318 8.30018328,25.5467409 L24.0852824,25.5467409 C22.8573798,24.5897318 21.4474012,23.8481052 19.9152984,23.386254 C23.0283536,21.9873776 25.1932813,18.8920859 25.1932813,15.2949751 Z M16.4447526,20.0733594 C13.5692844,20.2176879 11.208958,17.8840067 11.3532866,15.046286 C11.4776311,12.6149056 13.4782465,10.6409355 15.9384926,10.5165909 C18.8139608,10.3722624 21.1742872,12.7059436 21.0299587,15.5436643 C20.9056141,17.9750447 18.9072192,19.9490148 16.4447526,20.0733594 Z" id="形状备份-13" fill="#FFFFFF"></path>
                </g>
            </g>
        </g>
    </g>
</svg>