<?xml version="1.0" encoding="UTF-8"?>
<svg width="50px" height="55px" viewBox="0 0 50 55" version="1.1" xmlns="http://www.w3.org/2000/svg" xmlns:xlink="http://www.w3.org/1999/xlink">
    <title>队伍 Wecomm备份</title>
    <defs>
        <ellipse id="path-1" cx="24" cy="8" rx="24" ry="8"></ellipse>
        <filter x="-8.3%" y="-25.0%" width="116.7%" height="150.0%" filterUnits="objectBoundingBox" id="filter-2">
            <feGaussianBlur stdDeviation="4" in="SourceAlpha" result="shadowBlurInner1"></feGaussianBlur>
            <feOffset dx="0" dy="0" in="shadowBlurInner1" result="shadowOffsetInner1"></feOffset>
            <feComposite in="shadowOffsetInner1" in2="SourceAlpha" operator="arithmetic" k2="-1" k3="1" result="shadowInnerInner1"></feComposite>
            <feColorMatrix values="0 0 0 0 0   0 0 0 0 0.568627451   0 0 0 0 1  0 0 0 1 0" type="matrix" in="shadowInnerInner1"></feColorMatrix>
        </filter>
        <filter x="0.0%" y="0.0%" width="100.0%" height="100.0%" filterUnits="objectBoundingBox" id="filter-3">
            <feGaussianBlur stdDeviation="0" in="SourceGraphic"></feGaussianBlur>
        </filter>
    </defs>
    <g id="页面-1" stroke="none" stroke-width="1" fill="none" fill-rule="evenodd">
        <g id="落点切图整合" transform="translate(-1212.000000, -140.000000)">
            <g id="队伍-Wecomm备份" transform="translate(1212.000000, 140.000000)">
                <g id="编组-7备份-17" transform="translate(0.000000, 38.400000)">
                    <g id="椭圆形" fill="black" fill-opacity="1">
                        <use filter="url(#filter-2)" xlink:href="#path-1"></use>
                    </g>
                    <ellipse id="椭圆形" fill="#00519B" opacity="0.703760901" filter="url(#filter-3)" cx="24" cy="8" rx="12" ry="4"></ellipse>
                </g>
                <g id="编组-8备份-17" transform="translate(8.000000, 0.000000)" fill-rule="nonzero">
                    <path d="M16.128,8.5 C20.443553,8.5 24.350553,10.2492235 27.1786648,13.0773352 C30.0067765,15.905447 31.756,19.812447 31.756,24.128 C31.756,28.3446763 30.0860255,32.171316 27.3774173,34.9764069 L27.3774173,34.9764069 L16.1279487,46.2292741 L4.88087975,34.9820736 C2.17000743,32.1714555 0.5,28.3447505 0.5,24.128 C0.5,19.812447 2.24922348,15.905447 5.07733522,13.0773352 C7.90544697,10.2492235 11.812447,8.5 16.128,8.5 Z" id="形状结合" stroke="#FFFFFF" fill="#0091FF"></path>
                    <path d="M23.9833554,29.1866707 C25.2460858,29.6927253 26,30.3294229 26,31.0216321 C26,32.6660423 21.7464134,34 16.499381,34 C11.2536014,34 7,32.6660423 7,31.0216321 C7,30.3294229 7.75298565,29.6927254 9.01603048,29.1866707 C8.71384872,29.4009033 8.54755464,29.6312234 8.54755464,29.8713108 C8.54755464,30.9888327 12.1080348,31.8937007 16.499376,31.8937007 C20.891975,31.8937007 24.4518263,30.9888327 24.4518263,29.8713108 C24.4518312,29.6312184 24.2864608,29.4009033 23.9833554,29.1866707 L23.9833554,29.1866707 Z M11.8356355,15.6496324 C12.7893502,15.6496324 13.5625134,16.4358681 13.5625134,17.4054056 C13.5625134,18.3752728 12.7893502,19.1618283 11.8356355,19.1618283 C10.8819061,19.1618283 10.1087576,18.3752679 10.1087576,17.4054056 C10.1087576,16.4358631 10.8819109,15.6496324 11.8356355,15.6496324 L11.8356355,15.6496324 Z M21.137697,15.6496324 C20.1845817,15.6496324 19.4114332,16.4358681 19.4114332,17.4054056 C19.4114332,18.3752728 20.1845817,19.1618283 21.137697,19.1618283 C22.0920406,19.1618283 22.865189,18.3752679 22.865189,17.4054056 C22.865189,16.4358631 22.0920405,15.6496324 21.137697,15.6496324 L21.137697,15.6496324 Z M19.4316009,25.7492365 L19.4316009,30.3780099 L20.6487341,30.3780099 L21.1348966,27.133355 L21.6223119,30.3780099 L22.9474075,30.3780099 L22.9474075,25.2516802 C23.4726772,24.9727731 23.8337998,24.4137099 23.8337998,23.7713418 L23.8337998,21.1488708 C23.8337998,20.2317024 23.0969582,19.4814286 22.1944219,19.4814286 L20.1771386,19.4814286 C20.0471415,19.4814286 19.9196255,19.4968915 19.798005,19.5265434 C20.0682427,19.9464902 20.2252365,20.447199 20.2252365,20.9841745 L20.2252365,23.8385493 C20.2252414,24.5689386 19.9301687,25.2539034 19.4316009,25.7492365 L19.4316009,25.7492365 Z M16.5285394,15 C17.5660546,15 18.407449,15.8556415 18.407449,16.9106922 C18.407449,17.9660626 17.5660546,18.821704 16.5285394,18.821704 C15.4904347,18.821704 14.649335,17.9660626 14.649335,16.9106922 C14.649335,15.8556415 15.4904298,15 16.5285394,15 L16.5285394,15 Z M18.3851196,25.4529679 C18.9609437,25.1519781 19.3586974,24.5399113 19.3586974,23.8385493 L19.3586974,20.9841745 C19.3586974,19.9865589 18.5557469,19.1700219 17.5747309,19.1700219 L15.3787532,19.1700219 C14.3970936,19.1700219 13.5944673,19.9865589 13.5944673,20.9841745 L13.5944673,23.8385493 C13.5944673,24.5367638 13.9875635,25.1459878 14.5599878,25.4492009 L14.5599878,31.0276274 L16.0017418,31.0276274 L16.5316395,27.496821 L17.0609624,31.0276274 L18.3851245,31.0276274 L18.3851245,25.4529679 L18.3851196,25.4529679 Z M13.5420263,25.7492365 C13.0437681,25.2538985 12.7490245,24.5689386 12.7490245,23.8385443 L12.7490245,20.9841695 C12.7490245,20.447189 12.9053895,19.9464852 13.1759219,19.5265384 C13.0543162,19.4968865 12.9271048,19.4814236 12.7968031,19.4814236 L10.7795198,19.4814236 C9.87698838,19.4814236 9.14012707,20.2316974 9.14012707,21.1488658 L9.14012707,23.7713368 C9.14012707,24.4137099 9.50126442,24.9727681 10.0268437,25.2516752 L10.0268437,30.3780049 L11.3516346,30.3780049 L11.8390499,27.13335 L12.3252125,30.3780049 L13.5420263,30.3780049 L13.5420263,25.7492365 Z" id="形状" fill="#FFFFFF"></path>
                    <circle id="椭圆形" stroke="#FFFFFF" stroke-width="0.8" fill="#0BD295" cx="32.5" cy="9.5" r="9.1"></circle>
                    <path d="M29.9412289,4 L35.0587711,4 C35.5761354,4 36,4.4392249 36,4.97533764 L36,14.0246624 C36,14.5607751 35.5761354,15 35.0587711,15 L29.9412289,15 C29.4238646,15 29,14.5607751 29,14.0246624 L29,4.97533764 C29,4.4392249 29.4238646,4 29.9412289,4 Z M29.7853963,5.56958309 L29.7853963,9.4386377 L35.1834372,9.4386377 L35.1834372,5.56958309 L29.7853963,5.56958309 Z M31.1691897,4.51027598 L31.1691897,4.92366412 L33.6251113,4.92366412 L33.6251113,4.51027598 L31.1691897,4.51027598 Z M31.935886,9.85848503 C31.7551202,9.85848503 31.6055209,10.0135056 31.6055209,10.2008221 L31.6055209,10.7304756 C31.6055209,10.9177921 31.7551202,11.0728127 31.935886,11.0728127 L32.9394479,11.0728127 C33.1202137,11.0728127 33.269813,10.9177921 33.269813,10.7304756 L33.269813,10.2008221 C33.269813,10.0135056 33.1202137,9.85848503 32.9394479,9.85848503 L31.935886,9.85848503 Z M31.3686554,10.2783324 L29.8788958,10.2783324 L29.8788958,10.6529654 L31.3686554,10.6529654 L31.3686554,10.2783324 Z M34.9964381,10.2783324 L33.5066785,10.2783324 L33.5066785,10.6529654 L34.9964381,10.6529654 L34.9964381,10.2783324 Z M31.3624221,11.4022314 L29.8726625,11.4022314 L29.8726625,12.1321198 L31.3624221,12.1321198 L31.3624221,11.4022314 Z M33.1825467,11.4022314 L31.6865539,11.4022314 L31.6865539,12.1321198 L33.1763134,12.1321198 L33.1763134,11.4022314 L33.1825467,11.4022314 Z M34.9839715,11.4022314 L33.4942119,11.4022314 L33.4942119,12.1321198 L34.9839715,12.1321198 L34.9839715,11.4022314 L34.9839715,11.4022314 Z M31.3624221,12.3517322 L29.8726625,12.3517322 L29.8726625,13.0816207 L31.3624221,13.0816207 L31.3624221,12.3517322 L31.3624221,12.3517322 Z M33.1825467,12.3517322 L31.6865539,12.3517322 L31.6865539,13.0816207 L33.1763134,13.0816207 L33.1763134,12.3517322 L33.1825467,12.3517322 Z M34.9839715,12.3517322 L33.4942119,12.3517322 L33.4942119,13.0816207 L34.9839715,13.0816207 L34.9839715,12.3517322 L34.9839715,12.3517322 Z M31.3624221,13.365825 L29.8726625,13.365825 L29.8726625,14.0957134 L31.3624221,14.0957134 L31.3624221,13.365825 L31.3624221,13.365825 Z M33.1825467,13.365825 L31.6865539,13.365825 L31.6865539,14.0957134 L33.1763134,14.0957134 L33.1763134,13.365825 L33.1825467,13.365825 Z M34.9839715,13.365825 L33.4942119,13.365825 L33.4942119,14.0957134 L34.9839715,14.0957134 L34.9839715,13.365825 L34.9839715,13.365825 Z" id="形状备份-31" fill="#FFFFFF"></path>
                </g>
            </g>
        </g>
    </g>
</svg>