<?xml version="1.0" encoding="UTF-8"?>
<svg width="48px" height="48px" viewBox="0 0 48 48" version="1.1" xmlns="http://www.w3.org/2000/svg" xmlns:xlink="http://www.w3.org/1999/xlink">
    <title>集群终端备份 2</title>
    <defs>
        <ellipse id="path-1" cx="24" cy="8" rx="24" ry="8"></ellipse>
        <filter x="-6.2%" y="-18.8%" width="112.5%" height="137.5%" filterUnits="objectBoundingBox" id="filter-2">
            <feGaussianBlur stdDeviation="3" in="SourceAlpha" result="shadowBlurInner1"></feGaussianBlur>
            <feOffset dx="0" dy="0" in="shadowBlurInner1" result="shadowOffsetInner1"></feOffset>
            <feComposite in="shadowOffsetInner1" in2="SourceAlpha" operator="arithmetic" k2="-1" k3="1" result="shadowInnerInner1"></feComposite>
            <feColorMatrix values="0 0 0 0 1   0 0 0 0 1   0 0 0 0 1  0 0 0 1 0" type="matrix" in="shadowInnerInner1"></feColorMatrix>
        </filter>
    </defs>
    <g id="页面-1" stroke="none" stroke-width="1" fill="none" fill-rule="evenodd">
        <g id="落点切图整合" transform="translate(-474.000000, -214.000000)">
            <g id="集群终端备份-2" transform="translate(474.000000, 215.000000)">
                <g id="编组-7备份-47" transform="translate(0.000000, 30.400000)">
                    <g id="椭圆形备份-31" opacity="0.646650042" fill="black" fill-opacity="1">
                        <use filter="url(#filter-2)" xlink:href="#path-1"></use>
                    </g>
                    <ellipse id="椭圆形备份-32" fill="#999999" opacity="0.294852121" cx="24" cy="8" rx="12" ry="4"></ellipse>
                </g>
                <g id="编组-8备份-47" transform="translate(8.000000, 0.000000)" fill-rule="nonzero">
                    <path d="M16.128,-3.44613227e-13 C25.0352484,-3.44613227e-13 32.256,7.22075156 32.256,16.128 C32.256,20.479606 30.532567,24.4286826 27.7310241,27.3299069 L27.74016,27.3291834 L16.128,38.9364363 L4.52099812,27.3291834 C1.72343298,24.4286826 -6.03961325e-14,20.479606 -6.03961325e-14,16.128 C-6.03961325e-14,7.22075156 7.22075156,-3.44613227e-13 16.128,-3.44613227e-13 Z" id="形状结合" stroke="#FFFFFF" stroke-width="0.8" fill="#999999"></path>
                    <path d="M13.653231,4.26325025 C14.0189538,4.26325025 14.3235024,4.53619305 14.3535747,4.89072168 L14.3553922,4.91735739 L14.5694938,9.72781453 L15.1128054,9.72781453 L15.1128054,10.9470467 L19.778936,10.9470467 C20.7040439,10.9470467 21.4561258,11.6665645 21.4763607,12.5614538 L21.4767242,12.5983431 L21.4767242,26.1833824 C21.4767242,27.082986 20.7371225,27.8146431 19.81674,27.8342074 L19.778936,27.8346788 L11.9127922,27.8346788 C10.9890171,27.8346788 10.4912642,27.1165752 10.4769665,26.2228645 L10.4767242,26.1835002 L10.4767242,12.5983431 C10.4767242,11.6987395 11.216447,10.9670824 12.1362236,10.9475181 L12.1741488,10.9470467 L12.191718,10.9470467 L12.191718,9.72781453 L12.7344237,9.72781453 L12.9510699,4.91700382 C12.9675422,4.55142554 13.277026,4.26325025 13.653231,4.26325025 Z M13.390797,19.1918217 L12.276937,19.1918217 C12.2162688,19.1917908 12.1580763,19.2200682 12.1151681,19.2704299 C12.0722599,19.3207915 12.0481527,19.3891097 12.0481527,19.4603474 L12.0481527,20.4947246 C12.0481527,20.5659622 12.0722599,20.6342804 12.1151681,20.6846421 C12.1580763,20.7350038 12.2162688,20.7632811 12.276937,20.7632502 L13.390797,20.7632502 C13.4514653,20.7632811 13.5096577,20.7350038 13.5525659,20.6846421 C13.5954741,20.6342804 13.6195813,20.5659622 13.6195813,20.4947246 L13.6195813,19.4603474 C13.6195813,19.3891097 13.5954741,19.3207915 13.5525659,19.2704299 C13.5096577,19.2200682 13.4514653,19.1917908 13.390797,19.1918217 L13.390797,19.1918217 Z M16.5338381,19.1918217 L15.4198086,19.1918217 C15.3591365,19.1917908 15.3009404,19.2200682 15.2580295,19.2704299 C15.2151185,19.3207915 15.1910099,19.3891097 15.1910099,19.4603474 L15.1910099,20.4947246 C15.1910099,20.5659622 15.2151185,20.6342804 15.2580295,20.6846421 C15.3009404,20.7350038 15.3591365,20.7632811 15.4198086,20.7632502 L16.5337389,20.7632502 C16.6600462,20.7632502 16.7624384,20.6430272 16.7624384,20.4947246 L16.7624384,19.4603474 C16.7624384,19.3120447 16.6600462,19.1918217 16.5337389,19.1918217 L16.5338381,19.1918217 Z M19.6766105,19.1918217 L18.5626513,19.1918217 C18.5019831,19.1917908 18.4437906,19.2200682 18.4008824,19.2704299 C18.3579742,19.3207915 18.333867,19.3891097 18.333867,19.4603474 L18.333867,20.4947246 C18.333867,20.5659622 18.3579742,20.6342804 18.4008824,20.6846421 C18.4437906,20.7350038 18.5019831,20.7632811 18.5626513,20.7632502 L19.6766105,20.7632502 C19.8029098,20.7632502 19.9052956,20.6430272 19.9052956,20.4947246 L19.9052956,19.4603474 C19.9052956,19.3120447 19.8029098,19.1918217 19.6766105,19.1918217 Z M19.2528424,12.1203931 L12.7006059,12.1203931 C12.340266,12.1203931 12.0481527,12.4303526 12.0481527,12.8127071 L12.0481527,16.9282075 C12.0481527,17.3105118 12.3403132,17.6203931 12.7006059,17.6203931 L19.2529634,17.6203931 C19.6132088,17.6203222 19.9052956,17.3104617 19.9052956,16.9282075 L19.9052956,12.8125787 C19.9052956,12.4302744 19.6131351,12.1203931 19.2528424,12.1203931 Z M19.0009829,12.9061074 C19.066483,12.9061074 19.1195813,12.9628455 19.1195813,13.0328355 L19.1195813,16.7079507 C19.1195813,16.7779407 19.066483,16.8346788 19.0009829,16.8346788 L12.9524654,16.8346788 C12.8869653,16.8346788 12.833867,16.7779407 12.833867,16.7079507 L12.833867,13.0328355 C12.833867,12.9628455 12.8869653,12.9061074 12.9524654,12.9061074 L19.0009829,12.9061074 Z" id="形状备份-26" fill="#FFFFFF"></path>
                </g>
            </g>
        </g>
    </g>
</svg>