<?xml version="1.0" encoding="UTF-8"?>
<svg width="48px" height="48px" viewBox="0 0 48 48" version="1.1" xmlns="http://www.w3.org/2000/svg" xmlns:xlink="http://www.w3.org/1999/xlink">
    <title>Wecomm备份 2</title>
    <defs>
        <ellipse id="path-1" cx="24" cy="8" rx="24" ry="8"></ellipse>
        <filter x="-6.2%" y="-18.8%" width="112.5%" height="137.5%" filterUnits="objectBoundingBox" id="filter-2">
            <feGaussianBlur stdDeviation="3" in="SourceAlpha" result="shadowBlurInner1"></feGaussianBlur>
            <feOffset dx="0" dy="0" in="shadowBlurInner1" result="shadowOffsetInner1"></feOffset>
            <feComposite in="shadowOffsetInner1" in2="SourceAlpha" operator="arithmetic" k2="-1" k3="1" result="shadowInnerInner1"></feComposite>
            <feColorMatrix values="0 0 0 0 1   0 0 0 0 1   0 0 0 0 1  0 0 0 1 0" type="matrix" in="shadowInnerInner1"></feColorMatrix>
        </filter>
    </defs>
    <g id="页面-1" stroke="none" stroke-width="1" fill="none" fill-rule="evenodd">
        <g id="落点切图整合" transform="translate(-404.000000, -214.000000)">
            <g id="Wecomm备份-2" transform="translate(404.000000, 215.000000)">
                <g id="编组-7备份-46" transform="translate(0.000000, 30.400000)">
                    <g id="椭圆形备份-29" opacity="0.646650042" fill="black" fill-opacity="1">
                        <use filter="url(#filter-2)" xlink:href="#path-1"></use>
                    </g>
                    <ellipse id="椭圆形备份-30" fill="#999999" opacity="0.294852121" cx="24" cy="8" rx="12" ry="4"></ellipse>
                </g>
                <g id="编组-8备份-46" transform="translate(8.000000, 0.000000)" fill-rule="nonzero">
                    <path d="M16.128,-3.44613227e-13 C25.0352484,-3.44613227e-13 32.256,7.22075156 32.256,16.128 C32.256,20.479606 30.532567,24.4286826 27.7310241,27.3299069 L27.74016,27.3291834 L16.128,38.9364363 L4.52099812,27.3291834 C1.72343298,24.4286826 -6.03961325e-14,20.479606 -6.03961325e-14,16.128 C-6.03961325e-14,7.22075156 7.22075156,-3.44613227e-13 16.128,-3.44613227e-13 Z" id="形状结合" stroke="#FFFFFF" stroke-width="0.8" fill="#999999"></path>
                    <path d="M11.6135352,7 L20.3864648,7 C21.2733749,7 22,7.75295697 22,8.67200738 L22,24.1851355 C22,25.1041859 21.2733749,25.8571429 20.3864648,25.8571429 L11.6135352,25.8571429 C10.7266251,25.8571429 10,25.1041859 10,24.1851355 L10,8.67200738 C10,7.75295697 10.7266251,7 11.6135352,7 Z M11.3463936,9.69071387 L11.3463936,16.3233789 L20.6001781,16.3233789 L20.6001781,9.69071387 L11.3463936,9.69071387 Z M13.7186109,7.87475883 L13.7186109,8.58342421 L17.9287622,8.58342421 L17.9287622,7.87475883 L13.7186109,7.87475883 Z M15.0329475,17.0431172 C14.7230632,17.0431172 14.4666073,17.3088667 14.4666073,17.6299807 L14.4666073,18.5379582 C14.4666073,18.8590722 14.7230632,19.1248217 15.0329475,19.1248217 L16.7533393,19.1248217 C17.0632235,19.1248217 17.3196794,18.8590722 17.3196794,18.5379582 L17.3196794,17.6299807 C17.3196794,17.3088667 17.0632235,17.0431172 16.7533393,17.0431172 L15.0329475,17.0431172 Z M14.0605521,17.7628555 L11.5066785,17.7628555 L11.5066785,18.4050835 L14.0605521,18.4050835 L14.0605521,17.7628555 Z M20.2796082,17.7628555 L17.7257346,17.7628555 L17.7257346,18.4050835 L20.2796082,18.4050835 L20.2796082,17.7628555 Z M14.0498664,19.6895395 L11.4959929,19.6895395 L11.4959929,20.9407768 L14.0498664,20.9407768 L14.0498664,19.6895395 Z M17.1700801,19.6895395 L14.6055209,19.6895395 L14.6055209,20.9407768 L17.1593945,20.9407768 L17.1593945,19.6895395 L17.1700801,19.6895395 Z M20.2582369,19.6895395 L17.7043633,19.6895395 L17.7043633,20.9407768 L20.2582369,20.9407768 L20.2582369,19.6895395 L20.2582369,19.6895395 Z M14.0498664,21.3172553 L11.4959929,21.3172553 L11.4959929,22.5684926 L14.0498664,22.5684926 L14.0498664,21.3172553 L14.0498664,21.3172553 Z M17.1700801,21.3172553 L14.6055209,21.3172553 L14.6055209,22.5684926 L17.1593945,22.5684926 L17.1593945,21.3172553 L17.1700801,21.3172553 Z M20.2582369,21.3172553 L17.7043633,21.3172553 L17.7043633,22.5684926 L20.2582369,22.5684926 L20.2582369,21.3172553 L20.2582369,21.3172553 Z M14.0498664,23.0557 L11.4959929,23.0557 L11.4959929,24.3069373 L14.0498664,24.3069373 L14.0498664,23.0557 L14.0498664,23.0557 Z M17.1700801,23.0557 L14.6055209,23.0557 L14.6055209,24.3069373 L17.1593945,24.3069373 L17.1593945,23.0557 L17.1700801,23.0557 Z M20.2582369,23.0557 L17.7043633,23.0557 L17.7043633,24.3069373 L20.2582369,24.3069373 L20.2582369,23.0557 L20.2582369,23.0557 Z" id="形状备份-35" fill="#FFFFFF"></path>
                </g>
            </g>
        </g>
    </g>
</svg>