<?xml version="1.0" encoding="UTF-8"?>
<svg width="48px" height="47px" viewBox="0 0 48 47" version="1.1" xmlns="http://www.w3.org/2000/svg" xmlns:xlink="http://www.w3.org/1999/xlink">
    <title>应急物资库备份</title>
    <defs>
        <ellipse id="path-1" cx="24" cy="8" rx="24" ry="8"></ellipse>
        <filter x="-8.3%" y="-25.0%" width="116.7%" height="150.0%" filterUnits="objectBoundingBox" id="filter-2">
            <feGaussianBlur stdDeviation="4" in="SourceAlpha" result="shadowBlurInner1"></feGaussianBlur>
            <feOffset dx="0" dy="0" in="shadowBlurInner1" result="shadowOffsetInner1"></feOffset>
            <feComposite in="shadowOffsetInner1" in2="SourceAlpha" operator="arithmetic" k2="-1" k3="1" result="shadowInnerInner1"></feComposite>
            <feColorMatrix values="0 0 0 0 0   0 0 0 0 0.568627451   0 0 0 0 1  0 0 0 1 0" type="matrix" in="shadowInnerInner1"></feColorMatrix>
        </filter>
        <filter x="0.0%" y="0.0%" width="100.0%" height="100.0%" filterUnits="objectBoundingBox" id="filter-3">
            <feGaussianBlur stdDeviation="0" in="SourceGraphic"></feGaussianBlur>
        </filter>
    </defs>
    <g id="页面-1" stroke="none" stroke-width="1" fill="none" fill-rule="evenodd">
        <g id="落点切图整合" transform="translate(-516.000000, -148.000000)">
            <g id="应急物资库备份" transform="translate(516.000000, 148.000000)">
                <g id="编组-7备份-27" transform="translate(0.000000, 30.400000)">
                    <g id="椭圆形" fill="black" fill-opacity="1">
                        <use filter="url(#filter-2)" xlink:href="#path-1"></use>
                    </g>
                    <ellipse id="椭圆形" fill="#00519B" opacity="0.703760901" filter="url(#filter-3)" cx="24" cy="8" rx="12" ry="4"></ellipse>
                </g>
                <g id="编组-8备份-27" transform="translate(8.000000, 0.000000)" fill-rule="nonzero">
                    <path d="M16.128,0.5 C20.443553,0.5 24.350553,2.24922348 27.1786648,5.07733522 C30.0067765,7.90544697 31.756,11.812447 31.756,16.128 C31.756,20.3446763 30.0860255,24.171316 27.3774173,26.9764069 L27.3774173,26.9764069 L16.1279487,38.2292741 L4.88087975,26.9820736 C2.17000743,24.1714555 0.5,20.3447505 0.5,16.128 C0.5,11.812447 2.24922348,7.90544697 5.07733522,5.07733522 C7.90544697,2.24922348 11.812447,0.5 16.128,0.5 Z" id="形状结合" stroke="#FFFFFF" fill="#0091FF"></path>
                    <path d="M12.1597355,14.7900995 L20.4053179,14.7900995 C20.6512509,14.7863728 20.8486288,14.5859297 20.8486288,14.3399684 L20.8486288,6.49677585 C20.8343642,6.26149623 20.6410087,6.07706484 20.4053179,6.07392542 L12.1597355,6.07392542 C11.9163659,6.07381371 11.7169792,6.26715832 11.7096044,6.51041619 L11.7096044,14.3536087 C11.7169792,14.5968666 11.9163659,14.7902112 12.1597355,14.7900995 L12.1597355,14.7900995 Z M13.7863454,8.99295714 C13.7882021,8.74324638 13.9901758,8.54127266 14.2398866,8.539416 L18.331987,8.539416 C18.5811381,8.54128937 18.7821181,8.74379898 18.7821181,8.99295714 L18.7821181,9.78750664 L14.2398866,9.78750664 C13.9907284,9.78750664 13.7882188,9.5865267 13.7863454,9.33737559 L13.7863454,8.99295714 Z M15.0003352,16.0381901 L7.15714267,16.0381901 C6.90854215,16.0381901 6.70701162,16.2397206 6.70701162,16.4883212 L6.70701162,24.7339036 C6.71057495,24.8533042 6.76145217,24.9663921 6.84843842,25.0482615 C6.93542467,25.1301309 7.05138569,25.1740673 7.170783,25.1703943 L15.0139756,25.1703943 C15.2625761,25.1703943 15.4641067,24.9688638 15.4641067,24.7202632 L15.4641067,16.4883212 C15.4641067,16.3665376 15.4148703,16.2499283 15.3274808,16.1651091 C15.2400913,16.0802898 15.1220628,16.0344997 15.0003352,16.0381901 Z M13.3737253,19.3289209 C13.3718519,19.578072 13.1693423,19.7790519 12.9201842,19.7790519 L9.25434416,19.7790519 C9.005186,19.7790519 8.80267639,19.578072 8.80080302,19.3289209 L8.80080302,18.9879125 C8.80080302,18.7368711 9.0033097,18.5328347 9.25434416,18.5309613 L12.9201842,18.5309613 C13.1698949,18.532818 13.3718686,18.7347917 13.3737253,18.9845024 L13.3737253,19.3289209 Z M24.9782402,16.0381901 L17.1350476,16.0381901 C16.8864471,16.0381901 16.6849166,16.2397206 16.6849166,16.4883212 L16.6849166,24.7339036 C16.6884799,24.8533042 16.7393571,24.9663921 16.8263434,25.0482615 C16.9133296,25.1301309 17.0292907,25.1740673 17.148688,25.1703943 L24.9918805,25.1703943 C25.240481,25.1703943 25.4420116,24.9688638 25.4420116,24.7202632 L25.4420116,16.4883212 C25.4420116,16.3665376 25.3927753,16.2499283 25.3053858,16.1651091 C25.2179962,16.0802898 25.0999678,16.0344997 24.9782402,16.0381901 L24.9782402,16.0381901 Z M23.3516302,19.3289209 C23.3507292,19.4492085 23.3020793,19.5642112 23.2163836,19.6486279 C23.1306878,19.7330446 23.0149666,19.7799598 22.894679,19.7790519 L19.228839,19.7790519 C18.9796809,19.7790649 18.7771713,19.578072 18.7752979,19.3289209 L18.7752979,18.9879125 C18.7771546,18.7382018 18.9791283,18.536228 19.228839,18.5343714 L22.894679,18.5343714 C23.1443898,18.536228 23.3463635,18.7382018 23.3482202,18.9879125 L23.3516302,19.3289209 Z" id="形状备份-11" fill="#FFFFFF"></path>
                </g>
            </g>
        </g>
    </g>
</svg>