<?xml version="1.0" encoding="UTF-8"?>
<svg width="48px" height="48px" viewBox="0 0 48 48" version="1.1" xmlns="http://www.w3.org/2000/svg" xmlns:xlink="http://www.w3.org/1999/xlink">
    <title>会场终端备份 2</title>
    <defs>
        <ellipse id="path-1" cx="24" cy="8" rx="24" ry="8"></ellipse>
        <filter x="-6.2%" y="-18.8%" width="112.5%" height="137.5%" filterUnits="objectBoundingBox" id="filter-2">
            <feGaussianBlur stdDeviation="3" in="SourceAlpha" result="shadowBlurInner1"></feGaussianBlur>
            <feOffset dx="0" dy="0" in="shadowBlurInner1" result="shadowOffsetInner1"></feOffset>
            <feComposite in="shadowOffsetInner1" in2="SourceAlpha" operator="arithmetic" k2="-1" k3="1" result="shadowInnerInner1"></feComposite>
            <feColorMatrix values="0 0 0 0 1   0 0 0 0 1   0 0 0 0 1  0 0 0 1 0" type="matrix" in="shadowInnerInner1"></feColorMatrix>
        </filter>
    </defs>
    <g id="页面-1" stroke="none" stroke-width="1" fill="none" fill-rule="evenodd">
        <g id="落点切图整合" transform="translate(-334.000000, -214.000000)">
            <g id="会场终端备份-2" transform="translate(334.000000, 215.000000)">
                <g id="编组-7备份-41" transform="translate(0.000000, 30.400000)">
                    <g id="椭圆形备份-19" opacity="0.646650042" fill="black" fill-opacity="1">
                        <use filter="url(#filter-2)" xlink:href="#path-1"></use>
                    </g>
                    <ellipse id="椭圆形备份-20" fill="#999999" opacity="0.294852121" cx="24" cy="8" rx="12" ry="4"></ellipse>
                </g>
                <g id="编组-8备份-41" transform="translate(8.000000, 0.000000)" fill-rule="nonzero">
                    <path d="M16.128,-1.17239551e-13 C25.0352484,-1.17239551e-13 32.256,7.22075156 32.256,16.128 C32.256,20.479606 30.532567,24.4286826 27.7310241,27.3299069 L27.74016,27.3291834 L16.128,38.9364363 L4.52099812,27.3291834 C1.72343298,24.4286826 -1.17239551e-13,20.479606 -1.17239551e-13,16.128 C-1.17239551e-13,7.22075156 7.22075156,-1.17239551e-13 16.128,-1.17239551e-13 Z" id="形状结合" stroke="#FFFFFF" stroke-width="0.8" fill="#999999"></path>
                    <path d="M16.1938431,11.8777199 C15.2701405,11.8777199 14.3997285,12.2329901 13.7469196,12.8791378 C13.0918901,13.5252855 12.732179,14.3823748 12.732179,15.2949751 C12.732179,16.2075755 13.0918901,17.0646648 13.7469196,17.7108125 C14.3997285,18.3569602 15.2701405,18.7122304 16.1938431,18.7122304 C17.1175456,18.7122304 17.9879576,18.3569602 18.6407666,17.7108125 C19.295796,17.0646648 19.6555071,16.2075755 19.6555071,15.2949751 C19.6555071,14.3823748 19.295796,13.5252855 18.6407666,12.8791378 C17.9857371,12.2307697 17.1153251,11.8777199 16.1938431,11.8777199 Z M18.2588511,15.5036964 C18.1633722,16.4629259 17.3773369,17.2400795 16.4047847,17.3333379 C15.0925054,17.4621234 13.9956087,16.3807697 14.1266146,15.0840335 C14.2220934,14.1248039 15.0081288,13.3476504 15.9806809,13.2543919 C17.2929602,13.1256065 18.389857,14.2069602 18.2588511,15.5036964 L18.2588511,15.5036964 Z M25.1932813,15.2949751 C25.1932813,9.87710457 20.2861117,5.59387821 14.6217724,6.53978512 C11.1201405,7.12376051 7.78726192,10.5188114 7.2876632,13.9915776 C6.69036518,18.1304754 8.98851929,21.8208447 12.4701673,23.3884744 C10.9380645,23.8481052 9.52586547,24.5897318 8.30018328,25.5467409 L24.0852824,25.5467409 C22.8573798,24.5897318 21.4474012,23.8481052 19.9152984,23.386254 C23.0283536,21.9873776 25.1932813,18.8920859 25.1932813,15.2949751 Z M16.4447526,20.0733594 C13.5692844,20.2176879 11.208958,17.8840067 11.3532866,15.046286 C11.4776311,12.6149056 13.4782465,10.6409355 15.9384926,10.5165909 C18.8139608,10.3722624 21.1742872,12.7059436 21.0299587,15.5436643 C20.9056141,17.9750447 18.9072192,19.9490148 16.4447526,20.0733594 Z" id="形状备份-15" fill="#FFFFFF"></path>
                </g>
            </g>
        </g>
    </g>
</svg>