<?xml version="1.0" encoding="UTF-8"?>
<svg width="50px" height="55px" viewBox="0 0 50 55" version="1.1" xmlns="http://www.w3.org/2000/svg" xmlns:xlink="http://www.w3.org/1999/xlink">
    <title>队伍 集群终端备份 3</title>
    <defs>
        <ellipse id="path-1" cx="24" cy="8" rx="24" ry="8"></ellipse>
        <filter x="-6.2%" y="-18.8%" width="112.5%" height="137.5%" filterUnits="objectBoundingBox" id="filter-2">
            <feGaussianBlur stdDeviation="3" in="SourceAlpha" result="shadowBlurInner1"></feGaussianBlur>
            <feOffset dx="0" dy="0" in="shadowBlurInner1" result="shadowOffsetInner1"></feOffset>
            <feComposite in="shadowOffsetInner1" in2="SourceAlpha" operator="arithmetic" k2="-1" k3="1" result="shadowInnerInner1"></feComposite>
            <feColorMatrix values="0 0 0 0 1   0 0 0 0 1   0 0 0 0 1  0 0 0 1 0" type="matrix" in="shadowInnerInner1"></feColorMatrix>
        </filter>
    </defs>
    <g id="页面-1" stroke="none" stroke-width="1" fill="none" fill-rule="evenodd">
        <g id="落点切图整合" transform="translate(-1517.000000, -207.000000)">
            <g id="队伍-集群终端备份-3" transform="translate(1517.000000, 207.000000)">
                <g id="编组-7备份-34" transform="translate(0.000000, 38.400000)">
                    <g id="椭圆形备份-5" opacity="0.646650042" fill="black" fill-opacity="1">
                        <use filter="url(#filter-2)" xlink:href="#path-1"></use>
                    </g>
                    <ellipse id="椭圆形备份-6" fill="#999999" opacity="0.294852121" cx="24" cy="8" rx="12" ry="4"></ellipse>
                </g>
                <g id="编组-8备份-34" transform="translate(8.000000, 0.000000)" fill-rule="nonzero">
                    <path d="M16.128,8 C25.0352484,8 32.256,15.2207516 32.256,24.128 C32.256,28.479606 30.532567,32.4286826 27.7310241,35.3299069 L27.74016,35.3291834 L16.128,46.9364363 L4.52099812,35.3291834 C1.72343298,32.4286826 -1.17239551e-13,28.479606 -1.17239551e-13,24.128 C-1.17239551e-13,15.2207516 7.22075156,8 16.128,8 Z" id="形状结合" stroke="#FFFFFF" stroke-width="0.8" fill="#999999"></path>
                    <path d="M23.9833554,29.1866707 C25.2460858,29.6927253 26,30.3294229 26,31.0216321 C26,32.6660423 21.7464134,34 16.499381,34 C11.2536014,34 7,32.6660423 7,31.0216321 C7,30.3294229 7.75298565,29.6927254 9.01603048,29.1866707 C8.71384872,29.4009033 8.54755464,29.6312234 8.54755464,29.8713108 C8.54755464,30.9888327 12.1080348,31.8937007 16.499376,31.8937007 C20.891975,31.8937007 24.4518263,30.9888327 24.4518263,29.8713108 C24.4518312,29.6312184 24.2864608,29.4009033 23.9833554,29.1866707 L23.9833554,29.1866707 Z M11.8356355,15.6496324 C12.7893502,15.6496324 13.5625134,16.4358681 13.5625134,17.4054056 C13.5625134,18.3752728 12.7893502,19.1618283 11.8356355,19.1618283 C10.8819061,19.1618283 10.1087576,18.3752679 10.1087576,17.4054056 C10.1087576,16.4358631 10.8819109,15.6496324 11.8356355,15.6496324 L11.8356355,15.6496324 Z M21.137697,15.6496324 C20.1845817,15.6496324 19.4114332,16.4358681 19.4114332,17.4054056 C19.4114332,18.3752728 20.1845817,19.1618283 21.137697,19.1618283 C22.0920406,19.1618283 22.865189,18.3752679 22.865189,17.4054056 C22.865189,16.4358631 22.0920405,15.6496324 21.137697,15.6496324 L21.137697,15.6496324 Z M19.4316009,25.7492365 L19.4316009,30.3780099 L20.6487341,30.3780099 L21.1348966,27.133355 L21.6223119,30.3780099 L22.9474075,30.3780099 L22.9474075,25.2516802 C23.4726772,24.9727731 23.8337998,24.4137099 23.8337998,23.7713418 L23.8337998,21.1488708 C23.8337998,20.2317024 23.0969582,19.4814286 22.1944219,19.4814286 L20.1771386,19.4814286 C20.0471415,19.4814286 19.9196255,19.4968915 19.798005,19.5265434 C20.0682427,19.9464902 20.2252365,20.447199 20.2252365,20.9841745 L20.2252365,23.8385493 C20.2252414,24.5689386 19.9301687,25.2539034 19.4316009,25.7492365 L19.4316009,25.7492365 Z M16.5285394,15 C17.5660546,15 18.407449,15.8556415 18.407449,16.9106922 C18.407449,17.9660626 17.5660546,18.821704 16.5285394,18.821704 C15.4904347,18.821704 14.649335,17.9660626 14.649335,16.9106922 C14.649335,15.8556415 15.4904298,15 16.5285394,15 L16.5285394,15 Z M18.3851196,25.4529679 C18.9609437,25.1519781 19.3586974,24.5399113 19.3586974,23.8385493 L19.3586974,20.9841745 C19.3586974,19.9865589 18.5557469,19.1700219 17.5747309,19.1700219 L15.3787532,19.1700219 C14.3970936,19.1700219 13.5944673,19.9865589 13.5944673,20.9841745 L13.5944673,23.8385493 C13.5944673,24.5367638 13.9875635,25.1459878 14.5599878,25.4492009 L14.5599878,31.0276274 L16.0017418,31.0276274 L16.5316395,27.496821 L17.0609624,31.0276274 L18.3851245,31.0276274 L18.3851245,25.4529679 L18.3851196,25.4529679 Z M13.5420263,25.7492365 C13.0437681,25.2538985 12.7490245,24.5689386 12.7490245,23.8385443 L12.7490245,20.9841695 C12.7490245,20.447189 12.9053895,19.9464852 13.1759219,19.5265384 C13.0543162,19.4968865 12.9271048,19.4814236 12.7968031,19.4814236 L10.7795198,19.4814236 C9.87698838,19.4814236 9.14012707,20.2316974 9.14012707,21.1488658 L9.14012707,23.7713368 C9.14012707,24.4137099 9.50126442,24.9727681 10.0268437,25.2516752 L10.0268437,30.3780049 L11.3516346,30.3780049 L11.8390499,27.13335 L12.3252125,30.3780049 L13.5420263,30.3780049 L13.5420263,25.7492365 Z" id="形状" fill="#FFFFFF"></path>
                    <circle id="椭圆形" stroke="#FFFFFF" stroke-width="0.8" fill="#999999" cx="32.5" cy="9.5" r="9.1"></circle>
                    <path d="M31.0097884,1.62209728 C31.2425211,1.62209728 31.4363247,1.79578815 31.4554617,2.02139728 L31.4566183,2.03834728 L31.5928647,5.09954728 L31.9386085,5.09954728 L31.9386085,5.87542228 L34.9079643,5.87542228 C35.4966694,5.87542228 35.9752669,6.33329728 35.9881436,6.90277228 L35.988375,6.92624728 L35.988375,15.5712723 C35.988375,16.1437473 35.5177193,16.6093473 34.9320214,16.6217973 L34.9079643,16.6220973 L29.9022364,16.6220973 C29.3143795,16.6220973 28.9976277,16.1651223 28.9885292,15.5963973 L28.988375,15.5713473 L28.988375,6.92624728 C28.988375,6.35377228 29.4591077,5.88817228 30.0444201,5.87572228 L30.0685543,5.87542228 L30.0797347,5.87542228 L30.0797347,5.09954728 L30.4250929,5.09954728 L30.5629586,2.03812228 C30.573441,1.80548155 30.7703852,1.62209728 31.0097884,1.62209728 Z M30.842785,11.1220973 L30.133965,11.1220973 C30.0953579,11.1220776 30.0583263,11.1400723 30.0310211,11.1721207 C30.0037159,11.204169 29.988375,11.2476442 29.988375,11.2929773 L29.988375,11.9512173 C29.988375,11.9965503 30.0037159,12.0400256 30.0310211,12.0720739 C30.0583263,12.1041222 30.0953579,12.1221169 30.133965,12.1220973 L30.842785,12.1220973 C30.881392,12.1221169 30.9184236,12.1041222 30.9457288,12.0720739 C30.973034,12.0400256 30.988375,11.9965503 30.988375,11.9512173 L30.988375,11.2929773 C30.988375,11.2476442 30.973034,11.204169 30.9457288,11.1721207 C30.9184236,11.1400723 30.881392,11.1220776 30.842785,11.1220973 L30.842785,11.1220973 Z M32.842902,11.1220973 L32.1339741,11.1220973 C32.0953646,11.1220776 32.0583308,11.1400723 32.0310238,11.1721207 C32.0037168,11.204169 31.988375,11.2476442 31.988375,11.2929773 L31.988375,11.9512173 C31.988375,11.9965503 32.0037168,12.0400256 32.0310238,12.0720739 C32.0583308,12.1041222 32.0953646,12.1221169 32.1339741,12.1220973 L32.8428389,12.1220973 C32.9232162,12.1220973 32.988375,12.0455917 32.988375,11.9512173 L32.988375,11.2929773 C32.988375,11.1986029 32.9232162,11.1220973 32.8428389,11.1220973 L32.842902,11.1220973 Z M34.8428481,11.1220973 L34.133965,11.1220973 C34.0953579,11.1220776 34.0583263,11.1400723 34.0310211,11.1721207 C34.0037159,11.204169 33.988375,11.2476442 33.988375,11.2929773 L33.988375,11.9512173 C33.988375,11.9965503 34.0037159,12.0400256 34.0310211,12.0720739 C34.0583263,12.1041222 34.0953579,12.1221169 34.133965,12.1220973 L34.8428481,12.1220973 C34.9232204,12.1220973 34.988375,12.0455917 34.988375,11.9512173 L34.988375,11.2929773 C34.988375,11.1986029 34.9232204,11.1220973 34.8428481,11.1220973 Z M34.5731775,6.62209728 L30.4035724,6.62209728 C30.1742652,6.62209728 29.988375,6.81934425 29.988375,7.06266072 L29.988375,9.68161553 C29.988375,9.9249001 30.1742953,10.1220973 30.4035724,10.1220973 L34.5732545,10.1220973 C34.8025016,10.1220522 34.988375,9.9248682 34.988375,9.68161553 L34.988375,7.06257903 C34.988375,6.81929446 34.8024547,6.62209728 34.5731775,6.62209728 Z M34.4129033,7.12209728 C34.4545851,7.12209728 34.488375,7.15820335 34.488375,7.20274244 L34.488375,9.54145212 C34.488375,9.58599121 34.4545851,9.62209728 34.4129033,9.62209728 L30.5638467,9.62209728 C30.5221648,9.62209728 30.488375,9.58599121 30.488375,9.54145212 L30.488375,7.20274244 C30.488375,7.15820335 30.5221648,7.12209728 30.5638467,7.12209728 L34.4129033,7.12209728 Z" id="形状备份-21" fill="#FFFFFF"></path>
                </g>
            </g>
        </g>
    </g>
</svg>