<?xml version="1.0" encoding="UTF-8"?>
<svg width="48px" height="47px" viewBox="0 0 48 47" version="1.1" xmlns="http://www.w3.org/2000/svg" xmlns:xlink="http://www.w3.org/1999/xlink">
    <title>应急装备库备份</title>
    <defs>
        <ellipse id="path-1" cx="24" cy="8" rx="24" ry="8"></ellipse>
        <filter x="-8.3%" y="-25.0%" width="116.7%" height="150.0%" filterUnits="objectBoundingBox" id="filter-2">
            <feGaussianBlur stdDeviation="4" in="SourceAlpha" result="shadowBlurInner1"></feGaussianBlur>
            <feOffset dx="0" dy="0" in="shadowBlurInner1" result="shadowOffsetInner1"></feOffset>
            <feComposite in="shadowOffsetInner1" in2="SourceAlpha" operator="arithmetic" k2="-1" k3="1" result="shadowInnerInner1"></feComposite>
            <feColorMatrix values="0 0 0 0 0   0 0 0 0 0.568627451   0 0 0 0 1  0 0 0 1 0" type="matrix" in="shadowInnerInner1"></feColorMatrix>
        </filter>
        <filter x="0.0%" y="0.0%" width="100.0%" height="100.0%" filterUnits="objectBoundingBox" id="filter-3">
            <feGaussianBlur stdDeviation="0" in="SourceGraphic"></feGaussianBlur>
        </filter>
    </defs>
    <g id="页面-1" stroke="none" stroke-width="1" fill="none" fill-rule="evenodd">
        <g id="落点切图整合" transform="translate(-936.000000, -148.000000)">
            <g id="应急装备库备份" transform="translate(936.000000, 148.000000)">
                <g id="编组-7备份-21" transform="translate(0.000000, 30.400000)">
                    <g id="椭圆形" fill="black" fill-opacity="1">
                        <use filter="url(#filter-2)" xlink:href="#path-1"></use>
                    </g>
                    <ellipse id="椭圆形" fill="#00519B" opacity="0.703760901" filter="url(#filter-3)" cx="24" cy="8" rx="12" ry="4"></ellipse>
                </g>
                <g id="编组-8备份-21" transform="translate(8.000000, 0.000000)" fill-rule="nonzero">
                    <path d="M16.128,0.5 C20.443553,0.5 24.350553,2.24922348 27.1786648,5.07733522 C30.0067765,7.90544697 31.756,11.812447 31.756,16.128 C31.756,20.3446763 30.0860255,24.171316 27.3774173,26.9764069 L27.3774173,26.9764069 L16.1279487,38.2292741 L4.88087975,26.9820736 C2.17000743,24.1714555 0.5,20.3447505 0.5,16.128 C0.5,11.812447 2.24922348,7.90544697 5.07733522,5.07733522 C7.90544697,2.24922348 11.812447,0.5 16.128,0.5 Z" id="形状结合" stroke="#FFFFFF" fill="#0091FF"></path>
                    <path d="M15.4485295,10.1425581 C15.8004438,9.93297803 16.2396631,9.93297803 16.5915775,10.1425581 L16.5915775,10.1425581 L23.2593572,14.0240523 C23.6147089,14.2305146 23.8296465,14.6124714 23.8208545,15.0218657 L23.8208545,15.0218657 L23.8208545,23.8624926 C23.8208786,24.4868443 23.315202,24.9945231 22.6878333,24.9999999 L22.6878333,24.9999999 L9.35227369,24.9999999 C8.73808462,25.0002153 8.23555831,24.5134016 8.21925245,23.9024051 L8.21925245,23.9024051 L8.21925245,15.0218657 C8.2104604,14.6124714 8.42539804,14.2305146 8.78074971,14.0240523 L8.78074971,14.0240523 Z M13.0120325,20.1406485 L10.405081,20.1406485 C10.2522274,20.1458093 10.1295183,20.2679236 10.1243323,20.4200363 L10.1243323,20.4200363 L10.1243323,23.004373 C10.1242392,23.1603684 10.248419,23.2883598 10.405081,23.2937389 L10.405081,23.2937389 L13.0220593,23.2937389 C13.1787213,23.2883598 13.3029011,23.1603684 13.3028079,23.004373 L13.3028079,23.004373 L13.2927811,23.004373 L13.2927811,20.4200363 C13.2875953,20.2679236 13.1648861,20.1458093 13.0120325,20.1406485 L13.0120325,20.1406485 Z M17.1631014,20.1406485 L14.5461232,20.1406485 C14.3932696,20.1458093 14.2705605,20.2679236 14.2653745,20.4200363 L14.2653745,20.4200363 L14.2653745,23.004373 C14.2652814,23.1603684 14.3894612,23.2883598 14.5461232,23.2937389 L14.5461232,23.2937389 L17.1631014,23.2937389 C17.3197635,23.2883598 17.4439433,23.1603684 17.4438501,23.004373 L17.4438501,23.004373 L17.4438501,20.4200363 C17.4386642,20.2679236 17.315955,20.1458093 17.1631014,20.1406485 L17.1631014,20.1406485 Z M21.2339565,20.1406485 L18.627005,20.1406485 C18.4702497,20.1405558 18.3416349,20.2641336 18.3362296,20.4200363 L18.3362296,20.4200363 L18.3362296,23.004373 C18.3362296,23.1641854 18.4664142,23.2937389 18.627005,23.2937389 L18.627005,23.2937389 L21.2339565,23.2937389 C21.3945473,23.2937389 21.5247318,23.1641854 21.5247318,23.004373 L21.5247318,23.004373 L21.5247318,20.4200363 C21.5193265,20.2641336 21.3907117,20.1405558 21.2339565,20.1406485 L21.2339565,20.1406485 Z M13.0120325,15.9498322 L10.405081,15.9498322 C10.248419,15.9552113 10.1242392,16.0832027 10.1243323,16.2391981 L10.1243323,16.2391981 L10.1243323,18.8135567 C10.1242392,18.9695521 10.248419,19.0975435 10.405081,19.1029226 L10.405081,19.1029226 L13.0220593,19.1029226 C13.1787213,19.0975435 13.3029011,18.9695521 13.3028079,18.8135567 L13.3028079,18.8135567 L13.2927811,18.8534692 L13.2927811,16.2391981 C13.2928744,16.0832027 13.1686946,15.9552113 13.0120325,15.9498322 L13.0120325,15.9498322 Z M17.1631014,15.9498322 L14.5461232,15.9498322 C14.3894612,15.9552113 14.2652813,16.0832027 14.2653745,16.2391981 L14.2653745,16.2391981 L14.2653745,18.8135567 C14.2652814,18.9695521 14.3894612,19.0975435 14.5461232,19.1029226 L14.5461232,19.1029226 L17.1631014,19.1029226 C17.3197635,19.0975435 17.4439433,18.9695521 17.4438501,18.8135567 L17.4438501,18.8135567 L17.4438501,16.2391981 C17.4439433,16.0832027 17.3197635,15.9552113 17.1631014,15.9498322 L17.1631014,15.9498322 Z M15.6490642,7.08924908 C15.8819368,6.97025031 16.1581701,6.97025031 16.3910427,7.08924908 L16.3910427,7.08924908 L25.665774,12.5772229 L25.6256671,12.5772229 C25.9722691,12.7811455 26.0996373,13.2182173 25.9164424,13.5750363 C25.7148999,13.9242595 25.2717883,14.052139 24.9137688,13.8644022 L24.9137688,13.8644022 L16.2406417,8.71568496 C16.0902406,8.63585988 15.9097594,8.63585988 15.7593583,8.71568496 L15.7593583,8.71568496 L7.08623123,13.8644022 C6.72821174,14.052139 6.28510014,13.9242595 6.08355757,13.5750363 C5.9003627,13.2182173 6.0277309,12.7811455 6.37433294,12.5772229 L6.37433294,12.5772229 Z" id="形状结合" fill="#FFFFFF"></path>
                </g>
            </g>
        </g>
    </g>
</svg>