<?xml version="1.0" encoding="UTF-8"?>
<svg width="48px" height="47px" viewBox="0 0 48 47" version="1.1" xmlns="http://www.w3.org/2000/svg" xmlns:xlink="http://www.w3.org/1999/xlink">
    <title>监控备份</title>
    <defs>
        <ellipse id="path-1" cx="24" cy="8" rx="24" ry="8"></ellipse>
        <filter x="-8.3%" y="-25.0%" width="116.7%" height="150.0%" filterUnits="objectBoundingBox" id="filter-2">
            <feGaussianBlur stdDeviation="4" in="SourceAlpha" result="shadowBlurInner1"></feGaussianBlur>
            <feOffset dx="0" dy="0" in="shadowBlurInner1" result="shadowOffsetInner1"></feOffset>
            <feComposite in="shadowOffsetInner1" in2="SourceAlpha" operator="arithmetic" k2="-1" k3="1" result="shadowInnerInner1"></feComposite>
            <feColorMatrix values="0 0 0 0 0   0 0 0 0 0.568627451   0 0 0 0 1  0 0 0 1 0" type="matrix" in="shadowInnerInner1"></feColorMatrix>
        </filter>
        <filter x="0.0%" y="0.0%" width="100.0%" height="100.0%" filterUnits="objectBoundingBox" id="filter-3">
            <feGaussianBlur stdDeviation="0" in="SourceGraphic"></feGaussianBlur>
        </filter>
    </defs>
    <g id="页面-1" stroke="none" stroke-width="1" fill="none" fill-rule="evenodd">
        <g id="落点切图整合" transform="translate(-96.000000, -148.000000)">
            <g id="监控备份" transform="translate(96.000000, 148.000000)">
                <g id="编组-7备份-24" transform="translate(0.000000, 30.400000)">
                    <g id="椭圆形" fill="black" fill-opacity="1">
                        <use filter="url(#filter-2)" xlink:href="#path-1"></use>
                    </g>
                    <ellipse id="椭圆形" fill="#00519B" opacity="0.703760901" filter="url(#filter-3)" cx="24" cy="8" rx="12" ry="4"></ellipse>
                </g>
                <g id="编组-8备份-24" transform="translate(8.000000, 0.000000)" fill-rule="nonzero">
                    <path d="M16.128,0.5 C20.443553,0.5 24.350553,2.24922348 27.1786648,5.07733522 C30.0067765,7.90544697 31.756,11.812447 31.756,16.128 C31.756,20.3446763 30.0860255,24.171316 27.3774173,26.9764069 L27.3774173,26.9764069 L16.1279487,38.2292741 L4.88087975,26.9820736 C2.17000743,24.1714555 0.5,20.3447505 0.5,16.128 C0.5,11.812447 2.24922348,7.90544697 5.07733522,5.07733522 C7.90544697,2.24922348 11.812447,0.5 16.128,0.5 Z" id="形状结合" stroke="#FFFFFF" fill="#0091FF"></path>
                    <path d="M12.893722,16.9710433 L12.8972716,16.9651273 L10.2037131,14.0846229 C9.80138195,13.6542908 9.77691877,12.9935329 10.1463278,12.5346287 L10.7787491,11.7489828 L21.4269722,22.6166899 L20.1846105,23.3757137 C19.808451,23.6057999 19.3355537,23.607624 18.9576304,23.3804466 L12.893722,16.9710433 L12.893722,16.9710433 Z M12.58254,17.4987512 L14.2964076,19.3102329 L13.1942552,21.1761419 C13.0270232,21.4602428 12.7485904,21.6614522 12.4263574,21.7310635 C12.3423501,21.7505863 12.2547931,21.7606435 12.1648698,21.7606435 L10.3664033,21.7606435 L10.3664033,23.570942 C10.366468,23.9937024 10.1409652,24.3843768 9.77485478,24.5957756 C9.40874434,24.8071745 8.95765899,24.8071745 8.59154855,24.5957756 C8.22543811,24.3843768 7.99993531,23.9937024 8.00000001,23.570942 L8.00000001,18.8381354 C7.99993531,18.4153751 8.22543811,18.0247007 8.59154855,17.8133018 C8.95765899,17.6019029 9.40874434,17.6019029 9.77485478,17.8133018 C10.1409652,18.0247007 10.366468,18.4153751 10.3664033,18.8381354 L10.3664033,19.4232287 L11.4460748,19.4232287 L12.5819484,17.4987512 L12.58254,17.4987512 Z M11.5217997,10.825494 L14.2443467,7.44153725 C14.453997,7.18094002 14.7641458,7.02124596 15.0980508,7.0019692 C15.4319559,6.98269244 15.7584216,7.10563394 15.9966683,7.34037351 L26.5632506,17.7543228 C26.8226733,18.0098687 26.9499754,18.3706357 26.9083799,18.7324005 C26.8667845,19.0941652 26.6609255,19.4166256 26.3502743,19.6066249 L22.4575409,21.9860434 L11.5217997,10.825494 L11.5217997,10.825494 Z" id="形状备份-3" fill="#FFFFFF"></path>
                </g>
            </g>
        </g>
    </g>
</svg>