<?xml version="1.0" encoding="UTF-8"?>
<svg width="48px" height="48px" viewBox="0 0 48 48" version="1.1" xmlns="http://www.w3.org/2000/svg" xmlns:xlink="http://www.w3.org/1999/xlink">
    <title>应急物资备份 2</title>
    <defs>
        <ellipse id="path-1" cx="24" cy="8" rx="24" ry="8"></ellipse>
        <filter x="-6.2%" y="-18.8%" width="112.5%" height="137.5%" filterUnits="objectBoundingBox" id="filter-2">
            <feGaussianBlur stdDeviation="3" in="SourceAlpha" result="shadowBlurInner1"></feGaussianBlur>
            <feOffset dx="0" dy="0" in="shadowBlurInner1" result="shadowOffsetInner1"></feOffset>
            <feComposite in="shadowOffsetInner1" in2="SourceAlpha" operator="arithmetic" k2="-1" k3="1" result="shadowInnerInner1"></feComposite>
            <feColorMatrix values="0 0 0 0 1   0 0 0 0 1   0 0 0 0 1  0 0 0 1 0" type="matrix" in="shadowInnerInner1"></feColorMatrix>
        </filter>
    </defs>
    <g id="页面-1" stroke="none" stroke-width="1" fill="none" fill-rule="evenodd">
        <g id="落点切图整合" transform="translate(-614.000000, -214.000000)">
            <g id="应急物资备份-2" transform="translate(614.000000, 215.000000)">
                <g id="编组-7备份-45" transform="translate(0.000000, 30.400000)">
                    <g id="椭圆形备份-27" opacity="0.646650042" fill="black" fill-opacity="1">
                        <use filter="url(#filter-2)" xlink:href="#path-1"></use>
                    </g>
                    <ellipse id="椭圆形备份-28" fill="#999999" opacity="0.294852121" cx="24" cy="8" rx="12" ry="4"></ellipse>
                </g>
                <g id="编组-8备份-45" transform="translate(8.000000, 0.000000)" fill-rule="nonzero">
                    <path d="M16.128,-2.80664381e-13 C25.0352484,-2.80664381e-13 32.256,7.22075156 32.256,16.128 C32.256,20.479606 30.532567,24.4286826 27.7310241,27.3299069 L27.74016,27.3291834 L16.128,38.9364363 L4.52099812,27.3291834 C1.72343298,24.4286826 -7.46069873e-14,20.479606 -7.46069873e-14,16.128 C-7.46069873e-14,7.22075156 7.22075156,-2.80664381e-13 16.128,-2.80664381e-13 Z" id="形状结合" stroke="#FFFFFF" stroke-width="0.8" fill="#999999"></path>
                    <path d="M16.5071394,26.3867836 L16.5071394,17.0830255 C16.5060028,16.8398002 16.6529844,16.6203346 16.878359,16.5288672 L25.2059851,13.2395057 C25.3870131,13.1704054 25.5905168,13.1954832 25.7493532,13.3064651 C25.9081896,13.417447 26.0017226,13.599914 25.9991464,13.793664 L25.9991464,22.344987 C26.0004631,22.5742811 25.8699165,22.7839468 25.663547,22.8838932 L17.3410049,26.9256898 C17.1582852,27.0117832 16.9440692,26.9974658 16.7744319,26.8878222 C16.6047945,26.7781786 16.5037663,26.5887405 16.5071394,26.3867836 L16.5071394,26.3867836 Z M8.28127978,11.3075778 L16.2530245,8.04363645 C16.3929592,7.98545243 16.5503155,7.98545243 16.6902502,8.04363645 L24.5908186,11.2516536 C24.8181773,11.3429592 24.9671662,11.5633463 24.9671662,11.8083539 C24.9671662,12.0533614 24.8181773,12.2737485 24.5908186,12.3650542 L15.7751265,15.6289955 C15.6349736,15.6860765 15.4780536,15.6860765 15.3379007,15.6289955 L8.26094371,12.4057263 C8.04494115,12.3059341 7.90833079,12.087915 7.91263287,11.8500155 C7.91714188,11.612116 8.06173059,11.3993043 8.28127978,11.3075778 Z M14.687146,26.8392614 L7.30006378,22.6551123 C7.1178522,22.5499613 7.00403392,22.3570489 7.00010655,22.1467102 L7.00010655,13.8292521 C6.99635119,13.6310675 7.09326673,13.4444776 7.25756127,13.3335788 C7.42185581,13.22268 7.63115063,13.2025779 7.81354987,13.2801779 L15.2006321,16.5186992 C15.4183104,16.6141781 15.5582483,16.8300823 15.5565136,17.0677734 L15.5565136,26.3054392 C15.5649913,26.5168668 15.4585701,26.7163753 15.2782529,26.8270965 C15.0979356,26.9378176 14.871866,26.9424701 14.687146,26.8392614 Z M8.85065302,17.7642843 C8.85139207,17.9715557 8.95903856,18.1637816 9.13539529,18.2726864 L12.4654289,20.3062947 C12.6470881,20.4148905 12.8732528,20.4168336 13.0567509,20.3113749 C13.2402491,20.2059162 13.3524275,20.009523 13.3500857,19.7978926 C13.3503325,19.5903634 13.242435,19.3976894 13.0653434,19.2894905 L9.73530975,17.2558822 C9.55365059,17.1472863 9.32748589,17.1453433 9.14398774,17.250802 C8.96048959,17.3562607 8.84831117,17.5526538 8.85065302,17.7642843 Z" id="形状备份-25" fill="#FFFFFF"></path>
                </g>
            </g>
        </g>
    </g>
</svg>