<?xml version="1.0" encoding="UTF-8"?>
<svg width="20px" height="24px" viewBox="0 0 20 24" version="1.1" xmlns="http://www.w3.org/2000/svg" xmlns:xlink="http://www.w3.org/1999/xlink">
    <title>防护目标mini备份</title>
    <g id="页面-1" stroke="none" stroke-width="1" fill="none" fill-rule="evenodd">
        <g id="落点切图整合" transform="translate(-913.000000, -227.000000)" fill-rule="nonzero">
            <g id="防护目标mini备份" transform="translate(913.000000, 227.000000)">
                <path d="M10,0.5 C12.6233526,0.5 14.9983526,1.56332372 16.7175144,3.28248558 C18.4366763,5.00164744 19.5,7.37664744 19.5,10 C19.5,13.0460551 18.0663431,15.7572032 15.8371563,17.4957464 L15.8371563,17.4957464 L10.0000901,23.2950852 L4.17742239,17.5070936 C1.93990984,15.7690125 0.5,13.0526904 0.5,10 C0.5,7.37664744 1.56332372,5.00164744 3.28248558,3.28248558 C5.00164744,1.56332372 7.37664744,0.5 10,0.5 Z" id="形状结合" stroke="#FFFFFF" fill="#0091FF"></path>
                <path d="M10.2826649,17.4486678 C8.35702706,17.4486678 4.78191449,14.4235738 4.78191449,11.5639499 L4.78191449,5.87779604 L5.32673644,5.8604969 C5.3432462,5.8604969 6.56196635,5.82740288 7.82871488,5.31519775 C9.12698204,4.76989861 9.96147514,4.15841142 9.96147514,4.15841142 L10.2819145,3.9102063 L10.6023538,4.15841142 C10.6023538,4.15841142 11.4526063,4.78644561 12.7351141,5.31519775 C13.5315911,5.63988954 14.3780078,5.82436368 15.2370925,5.8604969 L15.7819145,5.8770439 L15.7819145,11.5631977 C15.7819145,14.4235738 12.2060515,17.4486678 10.2819145,17.4486678 L10.2826649,17.4486678 Z M9.97723445,13.7128046 L13.5530975,9.46473621 L12.7193548,8.72012082 L9.86541839,12.092702 L8.35777751,10.7869926 L7.63585092,11.6632319 L9.97723445,13.7128046 Z" id="形状备份-5" fill="#FFFFFF"></path>
            </g>
        </g>
    </g>
</svg>