<?xml version="1.0" encoding="UTF-8"?>
<svg width="25px" height="25px" viewBox="0 0 25 25" version="1.1" xmlns="http://www.w3.org/2000/svg" xmlns:xlink="http://www.w3.org/1999/xlink">
    <title>切图</title>
    <g id="页面-1" stroke="none" stroke-width="1" fill="none" fill-rule="evenodd">
        <g id="切图" transform="translate(-92.000000, -320.000000)" fill="#9FC8FE">
            <g id="编组-10" transform="translate(92.000000, 320.000000)">
                <path d="M16.3571429,12.7142857 C18.9213221,12.7142857 21,14.7929637 21,17.3571429 L21,21.2 C21,21.6418278 20.6418278,22 20.2,22 L4.8,22 C4.3581722,22 4,21.6418278 4,21.2 L4,17.3571429 C4,14.7929637 6.07867795,12.7142857 8.64285714,12.7142857 L16.3571429,12.7142857 Z M14.6885293,14.1428571 L10.3114707,14.1428571 C10.2498239,14.1428571 10.1890112,14.1571059 10.1337808,14.184491 C9.93586068,14.2826264 9.85496915,14.5226269 9.95310457,14.720547 L9.95310457,14.720547 L12.1416338,19.1343876 C12.1804867,19.2127463 12.2439514,19.276211 12.3223101,19.3150639 C12.5202303,19.4131993 12.7602307,19.3323077 12.8583662,19.1343876 L12.8583662,19.1343876 L15.0468954,14.720547 C15.0742805,14.6653167 15.0885293,14.604504 15.0885293,14.5428571 C15.0885293,14.3219432 14.9094432,14.1428571 14.6885293,14.1428571 L14.6885293,14.1428571 Z M12.5,2 C15.2384119,2 17.4583333,4.23857625 17.4583333,7 C17.4583333,9.76142375 15.2384119,12 12.5,12 C9.76158812,12 7.54166667,9.76142375 7.54166667,7 C7.54166667,4.23857625 9.76158812,2 12.5,2 Z" id="Combined-Shape"></path>
            </g>
        </g>
    </g>
</svg>