<?xml version="1.0" encoding="UTF-8"?>
<svg width="50px" height="56px" viewBox="0 0 50 56" version="1.1" xmlns="http://www.w3.org/2000/svg" xmlns:xlink="http://www.w3.org/1999/xlink">
    <title>white-normal copy 14</title>
    <g id="页面-1" stroke="none" stroke-width="1" fill="none" fill-rule="evenodd">
        <g id="6.1现场指挥部已成立" transform="translate(-1081.000000, -511.000000)" fill-rule="nonzero">
            <g id="white-normal-copy-14" transform="translate(1081.000000, 511.000000)">
                <path d="M25.15625,55.71875 L31.03625,49.8335187 L31.23225,49.8335187 C42.01225,47.0870774 49.65625,37.0821841 49.65625,25.7040703 C49.65625,11.7756895 38.68025,0.59375 25.15625,0.59375 C11.63225,0.59375 0.65625,11.5795151 0.65625,25.3117215 C0.65625,36.8860098 8.30025001,46.890903 19.08025,49.6373443 L19.27625,49.6373443 L25.15625,55.71875 Z" id="Shape" fill="#00C1DE"></path>
                <path d="M25.15625,8.25 C34.4297753,8.25 42,15.9232639 42,25.09375 C42,34.2642361 34.4297753,41.9375 25.15625,41.9375 C15.8827247,41.9375 8.3125,34.2642361 8.3125,25.09375 C8.3125,15.9232639 15.8827247,8.25 25.15625,8.25 Z" id="Shape" fill="#FFFFFF"></path>
                <path d="M25.6059481,33.6411338 L29.39647,33.6411338 C29.7668793,33.6411338 30.0632068,33.9431041 30.0632068,34.3205669 C30.0632068,34.6980297 29.7668793,35 29.39647,35 L20.0621554,35 C19.6917461,35 19.3954187,34.6980297 19.3954187,34.3205669 C19.3954187,33.9431041 19.6917461,33.6411338 20.0621554,33.6411338 L24.0872699,33.6411338 L16,19.3730388 C18.4323545,15.6487388 21.358588,14.4156936 24.7663537,15.6864851 C27.4579946,16.6930527 29.8409612,16.5294854 31.9152533,15.2083655 C32.5449492,14.8057385 33.3598496,15.007052 33.7549529,15.6361567 C33.8660757,15.812306 33.9278106,16.0136196 33.9525045,16.2275152 C34.3105669,19.9518151 32.643725,22.5688907 28.9643258,24.06616 C25.7170709,25.3872799 23.9761471,27.4884897 23.7662485,30.3572072 L25.5442132,33.4901487 C25.5689072,33.527895 25.5936011,33.5908054 25.6059481,33.6411338" id="路径" fill="#1482A0"></path>
            </g>
        </g>
    </g>
</svg>