<?xml version="1.0" encoding="UTF-8"?>
<svg width="152px" height="42px" viewBox="0 0 152 42" version="1.1" xmlns="http://www.w3.org/2000/svg" xmlns:xlink="http://www.w3.org/1999/xlink">
    <title>按钮</title>
    <defs>
        <polygon id="path-1" points="22 5 130 5 144 21 130 37 22 37 8 21"></polygon>
        <filter x="-2.2%" y="-9.4%" width="104.4%" height="118.8%" filterUnits="objectBoundingBox" id="filter-2">
            <feGaussianBlur stdDeviation="3" in="SourceAlpha" result="shadowBlurInner1"></feGaussianBlur>
            <feOffset dx="0" dy="0" in="shadowBlurInner1" result="shadowOffsetInner1"></feOffset>
            <feComposite in="shadowOffsetInner1" in2="SourceAlpha" operator="arithmetic" k2="-1" k3="1" result="shadowInnerInner1"></feComposite>
            <feColorMatrix values="0 0 0 0 0   0 0 0 0 0.756862745   0 0 0 0 0.870588235  0 0 0 1 0" type="matrix" in="shadowInnerInner1"></feColorMatrix>
        </filter>
        <linearGradient x1="0%" y1="50%" x2="19.9595732%" y2="50%" id="linearGradient-3">
            <stop stop-color="#00C1DE" offset="0%"></stop>
            <stop stop-color="#00C1DE" stop-opacity="0" offset="100%"></stop>
        </linearGradient>
        <linearGradient x1="0%" y1="50%" x2="34.5746209%" y2="50%" id="linearGradient-4">
            <stop stop-color="#00C1DE" offset="0%"></stop>
            <stop stop-color="#00C1DE" stop-opacity="0" offset="100%"></stop>
        </linearGradient>
        <linearGradient x1="100%" y1="50%" x2="80.4271025%" y2="50%" id="linearGradient-5">
            <stop stop-color="#00C1DE" offset="0%"></stop>
            <stop stop-color="#00C1DE" stop-opacity="0" offset="100%"></stop>
        </linearGradient>
        <linearGradient x1="0%" y1="50%" x2="34.7268497%" y2="50%" id="linearGradient-6">
            <stop stop-color="#00C1DE" offset="0%"></stop>
            <stop stop-color="#00C1DE" stop-opacity="0" offset="100%"></stop>
        </linearGradient>
        <linearGradient x1="50%" y1="0%" x2="50%" y2="100%" id="linearGradient-7">
            <stop stop-color="#00E2F1" offset="0%"></stop>
            <stop stop-color="#01B5D0" offset="100%"></stop>
        </linearGradient>
    </defs>
    <g id="页面-1" stroke="none" stroke-width="1" fill="none" fill-rule="evenodd">
        <g id="雪碧图" transform="translate(-272.000000, -241.000000)">
            <g id="按钮" transform="translate(272.000000, 241.000000)">
                <g id="bj">
                    <use fill-opacity="0.1" fill="#00C1DE" fill-rule="evenodd" xlink:href="#path-1"></use>
                    <use fill="black" fill-opacity="1" filter="url(#filter-2)" xlink:href="#path-1"></use>
                </g>
                <path d="M129.773116,5.5 L143.335616,21 L129.773116,36.5 L22.2268841,36.5 L8.66438411,21 L22.2268841,5.5 L129.773116,5.5 Z" id="左小" stroke="url(#linearGradient-3)"></path>
                <path d="M121.732408,0.5 L135.399075,21 L121.732408,41.5 L19.2218953,41.5 L0.674276298,21 L19.2218953,0.5 L121.732408,0.5 Z" id="左大" stroke="url(#linearGradient-4)"></path>
                <path d="M129.773116,5.5 L143.335616,21 L129.773116,36.5 L22.2268841,36.5 L8.66438411,21 L22.2268841,5.5 L129.773116,5.5 Z" id="右小" stroke="url(#linearGradient-5)"></path>
                <path d="M137.732408,0.5 L151.399075,21 L137.732408,41.5 L35.2218953,41.5 L16.6742763,21 L35.2218953,0.5 L137.732408,0.5 Z" id="右大" stroke="url(#linearGradient-6)" transform="translate(84.000000, 21.000000) scale(-1, 1) translate(-84.000000, -21.000000) "></path>
                <polygon id="三角形" fill="url(#linearGradient-7)" transform="translate(12.000000, 21.000000) rotate(-90.000000) translate(-12.000000, -21.000000) " points="12 17 21 25 3 25"></polygon>
                <polygon id="三角形" fill="url(#linearGradient-7)" transform="translate(140.000000, 21.000000) scale(-1, 1) rotate(-90.000000) translate(-140.000000, -21.000000) " points="140 17 149 25 131 25"></polygon>
            </g>
        </g>
    </g>
</svg>