<?xml version="1.0" encoding="UTF-8"?>
<svg width="16px" height="16px" viewBox="0 0 16 16" version="1.1" xmlns="http://www.w3.org/2000/svg" xmlns:xlink="http://www.w3.org/1999/xlink">
    <title>形状结合</title>
    <g id="页面-1" stroke="none" stroke-width="1" fill="none" fill-rule="evenodd">
        <g id="情报信息" transform="translate(-1758.000000, -490.000000)" fill="#56E9FF">
            <g id="右侧预案响应" transform="translate(1486.000000, 72.000000)">
                <g id="任务记录备份" transform="translate(44.000000, 81.000000)">
                    <g id="选项" transform="translate(0.000000, 334.000000)">
                        <g id="编组-7备份" transform="translate(228.000000, 1.000000)">
                            <path d="M14,2 C15.1045695,2 16,2.8954305 16,4 L16,16 C16,17.1045695 15.1045695,18 14,18 L2,18 C0.8954305,18 1.3527075e-16,17.1045695 0,16 L0,4 C-1.3527075e-16,2.8954305 0.8954305,2 2,2 L14,2 Z M13.6949468,6.17310505 C13.3813996,5.91515957 12.9181184,5.96015625 12.6601562,6.27365359 L12.6601562,6.27365359 L6.59812168,13.6401928 L3.25611702,10.4395279 C2.96288231,10.1587101 2.49750665,10.1687666 2.21668883,10.4619847 C1.93585439,10.7551529 1.9459109,11.2205286 2.23912899,11.5013464 L2.23912899,11.5013464 L6.15360705,15.250266 C6.29044051,15.381325 6.47259522,15.4545047 6.66206782,15.4545047 C6.88184977,15.4545047 7.0901264,15.3561935 7.22978723,15.1864694 L7.22978723,15.1864694 L13.7954787,7.20786237 C14.0534574,6.8943484 14.0084608,6.43106715 13.6949468,6.17310505 Z" id="形状结合"></path>
                        </g>
                    </g>
                </g>
            </g>
        </g>
    </g>
</svg>