<?xml version="1.0" encoding="UTF-8"?>
<svg width="14px" height="14px" viewBox="0 0 14 14" version="1.1" xmlns="http://www.w3.org/2000/svg" xmlns:xlink="http://www.w3.org/1999/xlink">
    <title>编组</title>
    <g id="页面-1" stroke="none" stroke-width="1" fill="none" fill-rule="evenodd">
        <g id="情报信息" transform="translate(-1804.000000, -164.000000)" fill-rule="nonzero">
            <g id="右侧预案响应" transform="translate(1486.000000, 72.000000)">
                <g id="1" transform="translate(44.000000, 81.000000)">
                    <g id="编组" transform="translate(274.000000, 11.000000)">
                        <path d="M6.98461538,0.6 C8.75958564,0.6 10.3656775,1.31158296 11.5270058,2.46781769 C12.6847879,3.62052188 13.4,5.21497009 13.4,6.98461538 C13.4,8.75728745 12.6825879,10.3611917 11.5218898,11.5218898 C10.3611917,12.6825879 8.75728745,13.4 6.98461538,13.4 C5.22542797,13.4 3.62847971,12.6811903 2.47180616,11.5194213 C1.31627998,10.3588047 0.6,8.75596834 0.6,6.98461538 C0.6,5.21267367 1.30939758,3.61605364 2.46272561,2.46272561 C3.61605364,1.30939758 5.21267367,0.6 6.98461538,0.6 Z" id="路径" stroke="#FFFFFF" stroke-width="1.2"></path>
                        <path d="M7.53846154,7.29230769 L7.53846154,3.84615385 C7.53846154,3.53846154 7.29230769,3.29230769 6.98461538,3.29230769 C6.67692308,3.29230769 6.43076923,3.53846154 6.43076923,3.84615385 L6.43076923,7.50769231 C6.43076923,7.66153846 6.49230769,7.78461538 6.58461538,7.90769231 L9.16923077,10.4923077 C9.29230769,10.6153846 9.41538462,10.6461538 9.56923077,10.6461538 C9.72307692,10.6461538 9.84615385,10.5846154 9.96923077,10.4923077 C10.1846154,10.2769231 10.1846154,9.93846154 9.96923077,9.69230769 L7.53846154,7.29230769 Z" id="路径" fill="#FFFFFF"></path>
                    </g>
                </g>
            </g>
        </g>
    </g>
</svg>