<?xml version="1.0" encoding="UTF-8"?>
<svg width="12px" height="10px" viewBox="0 0 12 10" version="1.1" xmlns="http://www.w3.org/2000/svg" xmlns:xlink="http://www.w3.org/1999/xlink">
    <title>编组 12</title>
    <defs>
        <linearGradient x1="50%" y1="4.15682264%" x2="50%" y2="100%" id="linearGradient-1">
            <stop stop-color="#1B7E8D" offset="0%"></stop>
            <stop stop-color="#2A3934" offset="100%"></stop>
        </linearGradient>
        <linearGradient x1="50%" y1="4.15682264%" x2="50%" y2="100%" id="linearGradient-2">
            <stop stop-color="#FFFFFF" offset="0%"></stop>
            <stop stop-color="#FFFFFF" offset="100%"></stop>
        </linearGradient>
        <linearGradient x1="50%" y1="4.15682264%" x2="50%" y2="100%" id="linearGradient-3">
            <stop stop-color="#1B7E8D" offset="0%"></stop>
            <stop stop-color="#2A3934" offset="100%"></stop>
        </linearGradient>
        <linearGradient x1="50%" y1="4.15682264%" x2="50%" y2="100%" id="linearGradient-4">
            <stop stop-color="#FFFFFF" offset="0%"></stop>
            <stop stop-color="#FFFFFF" offset="100%"></stop>
        </linearGradient>
        <linearGradient x1="50%" y1="4.15682264%" x2="50%" y2="100%" id="linearGradient-5">
            <stop stop-color="#1B7E8D" offset="0%"></stop>
            <stop stop-color="#2A3934" offset="100%"></stop>
        </linearGradient>
        <linearGradient x1="50%" y1="4.15682264%" x2="50%" y2="100%" id="linearGradient-6">
            <stop stop-color="#FFFFFF" offset="0%"></stop>
            <stop stop-color="#FFFFFF" offset="100%"></stop>
        </linearGradient>
    </defs>
    <g id="页面-1" stroke="none" stroke-width="1" fill="none" fill-rule="evenodd">
        <g id="情报信息" transform="translate(-1430.000000, -197.000000)">
            <g id="右侧预案响应" transform="translate(1080.000000, 72.000000)">
                <g id="1" transform="translate(20.000000, 84.000000)">
                    <g id="编组-7" transform="translate(10.000000, 36.000000)">
                        <g id="2" transform="translate(175.000000, 0.000000)">
                            <g id="编组-8" transform="translate(132.000000, 1.000000)">
                                <g id="编组-12" transform="translate(13.500000, 4.000000)">
                                    <rect id="矩形" fill="url(#linearGradient-2)" x="0" y="0" width="3" height="10" rx="1"></rect>
                                    <path d="M5,4 L6,4 C6.55228475,4 7,4.44771525 7,5 L7,9 C7,9.55228475 6.55228475,10 6,10 L5,10 C4.44771525,10 4,9.55228475 4,9 L4,5 C4,4.44771525 4.44771525,4 5,4 Z" id="矩形备份-4" fill="url(#linearGradient-4)"></path>
                                    <path d="M9,2 L10,2 C10.5522847,2 11,2.44771525 11,3 L11,9 C11,9.55228475 10.5522847,10 10,10 L9,10 C8.44771525,10 8,9.55228475 8,9 L8,3 C8,2.44771525 8.44771525,2 9,2 Z" id="矩形备份-5" fill="url(#linearGradient-6)"></path>
                                </g>
                            </g>
                        </g>
                    </g>
                </g>
            </g>
        </g>
    </g>
</svg>