<?xml version="1.0" encoding="UTF-8"?>
<svg width="30px" height="30px" viewBox="0 0 30 30" version="1.1" xmlns="http://www.w3.org/2000/svg" xmlns:xlink="http://www.w3.org/1999/xlink">
    <title>编组 4</title>
    <defs>
        <path d="M11,22 C4.92486775,22 0,17.0751322 0,11 C0,4.92486775 4.92486775,0 11,0 C17.0751322,0 22,4.92486775 22,11 C22,17.0751322 17.0751322,22 11,22 Z" id="path-1"></path>
        <filter x="-31.8%" y="-22.7%" width="163.6%" height="163.6%" filterUnits="objectBoundingBox" id="filter-2">
            <feOffset dx="0" dy="2" in="SourceAlpha" result="shadowOffsetOuter1"></feOffset>
            <feGaussianBlur stdDeviation="2" in="shadowOffsetOuter1" result="shadowBlurOuter1"></feGaussianBlur>
            <feColorMatrix values="0 0 0 0 0   0 0 0 0 0   0 0 0 0 0  0 0 0 0.328452797 0" type="matrix" in="shadowBlurOuter1"></feColorMatrix>
        </filter>
        <linearGradient x1="50%" y1="4.15682264%" x2="50%" y2="100%" id="linearGradient-3">
            <stop stop-color="#1B7E8D" offset="0%"></stop>
            <stop stop-color="#2A3934" offset="100%"></stop>
        </linearGradient>
        <path d="M6.52146465,1.04697364 L7.47328756,1.04697364 C7.64634628,1.04697364 7.77612058,0.960444287 7.86266967,0.830630524 C7.94919902,0.657571812 7.94919902,0.4845131 7.86266967,0.311454388 C7.77614031,0.181660354 7.64634628,0.0951309975 7.47328756,0.0518663194 L5.48309265,0.0518663194 C5.35329861,0.0951309975 5.22350458,0.0951309975 5.09371054,0.224925032 C4.96391651,0.354738794 4.83412247,0.4845131 4.70432844,0.657571812 C4.66106376,0.70083649 4.66106376,0.744101168 4.61779908,0.787385574 C4.48800505,0.4845131 4.35821102,0.224925032 4.09862295,0.0951309975 L3.88229956,0.0951309975 C3.62271149,0.26818971 3.44965278,0.527777778 3.36312342,0.787365846 L3.27659407,0.70083649 C3.10353535,0.527777778 2.93047664,0.354719066 2.71413352,0.181660354 C2.6276239,0.138395676 2.54109454,0.0951309975 2.45456518,0.0951309975 L0.464370265,0.0951309975 C0.291311553,0.0951309975 0.161537247,0.181660354 0.0749881629,0.354719066 C-0.0115411932,0.527777778 -0.0115411932,0.657571812 0.0749881629,0.830630524 C0.161517519,1.00370896 0.291311553,1.09023832 0.507634943,1.09023832 C2.49782986,1.04697364 4.48800505,1.04697364 6.52144492,1.04697364 L6.52146465,1.04697364 Z M19.7172309,0.138395676 C19.6307015,0.0951309975 19.5009075,0.0518663194 19.4143782,0.00860164141 L17.5107126,0.00860164141 C17.4241832,0.0518663194 17.3376539,0.0518663194 17.2943892,0.0951309975 C17.2078598,0.138395676 17.1213305,0.22494476 17.0348011,0.311454388 L16.645419,0.70083649 C16.4723603,0.4845131 16.3425663,0.181660354 16.0829782,0.0518663194 L15.9099195,0.0518663194 C15.6503314,0.181680082 15.4772727,0.441248422 15.347459,0.744101168 C15.17442,0.571042456 15.0446259,0.397983744 14.8715672,0.224925032 C14.7417535,0.138395676 14.6552438,0.0518663194 14.4821851,0.0518663194 L12.4919902,0.0518663194 C12.2756668,0.0518663194 12.1458728,0.181680082 12.0593434,0.354719066 C11.9295494,0.657571812 12.1458728,1.04697364 12.4919902,1.04697364 L19.4576626,1.04697364 C19.673986,1.04697364 19.8470447,0.873914931 19.933574,0.70083649 C20.0201034,0.4845131 19.8903093,0.26818971 19.7172506,0.138395676 L19.7172309,0.138395676 Z M16.7752131,2.30162958 L16.7752131,1.43633602 L15.2176847,1.43633602 L15.2176847,2.30162958 L11.7565104,2.30162958 C11.713226,2.30162958 11.6699613,2.30162958 11.6266967,2.25838463 L11.3671086,1.86900253 C11.1940499,1.65267914 10.9344618,1.43635574 10.6748737,1.34982639 C10.4152857,1.22001263 10.1124329,1.17676768 9.80958018,1.22001263 C9.59325679,1.26329703 9.3769334,1.30656171 9.20387468,1.39309107 C8.85775726,1.56614978 8.55490451,1.86900253 8.3818458,2.21511995 C8.33858112,2.30164931 8.29531645,2.30164931 8.20878709,2.30164931 L4.96389678,2.30164931 C4.87736742,2.30164931 4.79083807,2.34491398 4.74757339,2.30164931 C4.70430871,2.25838463 4.74757339,2.12859059 4.74757339,2.08532592 L4.74757339,1.43635574 L3.19004498,1.43635574 L3.19004498,2.30164931 L3.1467803,2.30164931 C2.93045691,2.30164931 2.7573982,2.43144334 2.67086884,2.60448232 C2.58433949,2.77756076 2.62760417,3.0371291 2.80066288,3.16694287 C2.88719223,3.25347222 3.01698627,3.2967369 3.1467803,3.34000158 C3.79575047,3.51306029 4.44472064,3.72938368 5.05042614,3.90244239 C5.39654356,3.98897175 5.74266098,4.11876578 6.08877841,4.20529514 C6.26183712,4.24855982 6.47816051,4.3351089 6.65123895,4.37835385 C6.52142519,4.50816761 6.34836648,4.59467724 6.21859217,4.72447128 C6.00224905,4.89752999 5.78594539,5.0705887 5.52633759,5.24364741 C5.3100142,5.41670612 5.05042614,5.63302951 4.83410275,5.80610795 C4.61777936,5.93588226 4.53126973,6.15220565 4.53126973,6.36852904 L4.53126973,8.14240057 C4.61777936,8.57504735 5.13695549,8.79137074 5.48307292,8.57504735 C5.69939631,8.44523359 5.78592566,8.22892992 5.78592566,8.01258681 L5.78592566,6.80117582 C5.78592566,6.71464646 5.78592566,6.67138179 5.87245502,6.62811711 L7.04062105,5.97914694 C7.25694444,5.8493529 7.43000316,5.76282355 7.64632655,5.63302951 C8.25203204,6.23873501 9.03079624,6.54158775 9.8960898,6.54158775 C10.7613834,6.54158775 11.4968829,6.23875473 12.1458531,5.63302951 C12.3189118,5.71955887 12.4487058,5.80608823 12.6217645,5.89261758 C13.0544113,6.15220565 13.5303425,6.41179372 13.9629893,6.62811711 C14.0062539,6.67138179 14.0495186,6.71464646 14.0495186,6.75793087 L14.0495186,8.18566525 C14.0927833,8.48849826 14.4389007,8.6615767 14.6984888,8.6615767 C15.0446062,8.6615767 15.3041943,8.35872396 15.3041943,8.01260653 L15.3041943,6.28201941 C15.3041943,6.10894097 15.2176649,5.93588226 15.0446062,5.80608823 L14.395636,5.28691209 C14.0927833,5.02732402 13.7899306,4.81100063 13.4870778,4.55143229 C13.4005485,4.46488321 13.3140191,4.37835385 13.1842251,4.29182449 C13.2274897,4.29182449 13.2707544,4.29182449 13.3140191,4.24855982 C13.8764599,4.0755011 14.395636,3.94570707 14.9580769,3.77264836 C15.607047,3.59958965 16.2127525,3.38326626 16.8617227,3.21018782 C17.1645754,3.12367819 17.3808988,2.73429609 17.2078401,2.43144334 C17.1213108,2.38817866 16.9915167,2.30162958 16.7751933,2.30162958 L16.7752131,2.30162958 Z M9.98263889,5.67629419 C9.67978614,5.67629419 9.46346275,5.4599708 9.42017835,5.11385338 C9.42017835,4.81102036 9.63652146,4.55141256 9.98263889,4.55141256 C10.2854916,4.55141256 10.5450994,4.81100063 10.5450994,5.11387311 C10.501815,5.41670612 10.2854916,5.67629419 9.98263889,5.67629419 Z" id="path-4"></path>
    </defs>
    <g id="页面-1" stroke="none" stroke-width="1" fill="none" fill-rule="evenodd">
        <g id="情报信息" transform="translate(-1669.000000, -197.000000)" fill-rule="nonzero">
            <g id="右侧预案响应" transform="translate(1486.000000, 72.000000)">
                <g id="任务记录备份" transform="translate(44.000000, 81.000000)">
                    <g id="编组-7" transform="translate(10.000000, 36.000000)">
                        <g id="编组-4" transform="translate(133.000000, 10.000000)">
                            <g id="形状">
                                <use fill="black" fill-opacity="1" filter="url(#filter-2)" xlink:href="#path-1"></use>
                                <use fill="#FFFFFF" xlink:href="#path-1"></use>
                            </g>
                            <g id="形状" transform="translate(1.000000, 8.000000)">
                                <use fill="#213045" xlink:href="#path-4"></use>
                                <use fill="url(#linearGradient-3)" xlink:href="#path-4"></use>
                            </g>
                        </g>
                    </g>
                </g>
            </g>
        </g>
    </g>
</svg>