<?xml version="1.0" encoding="UTF-8"?>
<svg width="20px" height="9px" viewBox="0 0 20 9" version="1.1" xmlns="http://www.w3.org/2000/svg" xmlns:xlink="http://www.w3.org/1999/xlink">
    <title>无人机</title>
    <defs>
        <linearGradient x1="50%" y1="4.15682264%" x2="50%" y2="100%" id="linearGradient-1">
            <stop stop-color="#1B7E8D" offset="0%"></stop>
            <stop stop-color="#2A3934" offset="100%"></stop>
        </linearGradient>
        <path d="M6.5113735,1.038372 L7.46319642,1.038372 C7.63625513,1.038372 7.76602943,0.951842645 7.85257852,0.822028883 C7.93910788,0.64897017 7.93910788,0.475911458 7.85257852,0.302852746 C7.76604916,0.173058712 7.63625513,0.0865293561 7.46319642,0.043264678 L5.4730015,0.043264678 C5.34320747,0.0865293561 5.21341343,0.0865293561 5.0836194,0.21632339 C4.95382536,0.346137153 4.82403133,0.475911458 4.69423729,0.64897017 C4.65097262,0.692234848 4.65097262,0.735499527 4.60770794,0.778783933 C4.4779139,0.475911458 4.34811987,0.21632339 4.0885318,0.0865293561 L3.87220841,0.0865293561 C3.61262034,0.259588068 3.43956163,0.519176136 3.35303228,0.778764205 L3.26650292,0.692234848 C3.09344421,0.519176136 2.9203855,0.346117424 2.70404238,0.173058712 C2.61753275,0.129794034 2.53100339,0.0865293561 2.44447404,0.0865293561 L0.454279119,0.0865293561 C0.281220407,0.0865293561 0.151446102,0.173058712 0.064897017,0.346117424 C-0.021632339,0.519176136 -0.021632339,0.64897017 0.064897017,0.822028883 C0.151426373,0.995107323 0.281220407,1.08163668 0.497543797,1.08163668 C2.48773872,1.038372 4.4779139,1.038372 6.51135377,1.038372 L6.5113735,1.038372 Z M19.7071398,0.129794034 C19.6206104,0.0865293561 19.4908164,0.043264678 19.404287,0 L17.5006214,0 C17.4140921,0.043264678 17.3275627,0.043264678 17.2842981,0.0865293561 C17.1977687,0.129794034 17.1112393,0.216343119 17.02471,0.302852746 L16.6353279,0.692234848 C16.4622692,0.475911458 16.3324751,0.173058712 16.0728871,0.043264678 L15.8998284,0.043264678 C15.6402403,0.173078441 15.4671816,0.43264678 15.3373678,0.735499527 C15.1643288,0.562440814 15.0345348,0.389382102 14.8614761,0.21632339 C14.7316623,0.129794034 14.6451527,0.043264678 14.472094,0.043264678 L12.4818991,0.043264678 C12.2655757,0.043264678 12.1357816,0.173078441 12.0492523,0.346117424 C11.9194583,0.64897017 12.1357816,1.038372 12.4818991,1.038372 L19.4475714,1.038372 C19.6638948,1.038372 19.8369535,0.865313289 19.9234829,0.692234848 C20.0100122,0.475911458 19.8802182,0.259588068 19.7071595,0.129794034 L19.7071398,0.129794034 Z M16.7651219,2.29302794 L16.7651219,1.42773437 L15.2075935,1.42773437 L15.2075935,2.29302794 L11.7464193,2.29302794 C11.7031349,2.29302794 11.6598702,2.29302794 11.6166055,2.24978299 L11.3570174,1.86040088 C11.1839587,1.64407749 10.9243707,1.4277541 10.6647826,1.34122475 C10.4051945,1.21141098 10.1023418,1.16816604 9.79948903,1.21141098 C9.58316564,1.25469539 9.36684225,1.29796007 9.19378354,1.38448943 C8.84766611,1.55754814 8.54481337,1.86040088 8.37175466,2.20651831 C8.32848998,2.29304766 8.2852253,2.29304766 8.19869594,2.29304766 L4.95380563,2.29304766 C4.86727628,2.29304766 4.78074692,2.33631234 4.73748224,2.29304766 C4.69421757,2.24978299 4.73748224,2.11998895 4.73748224,2.07672427 L4.73748224,1.4277541 L3.17995384,1.4277541 L3.17995384,2.29304766 L3.13668916,2.29304766 C2.92036577,2.29304766 2.74730705,2.4228417 2.6607777,2.59588068 C2.57424834,2.76895912 2.61751302,3.02852746 2.79057173,3.15834122 C2.87710109,3.24487058 3.00689512,3.28813526 3.13668916,3.33139994 C3.78565933,3.50445865 4.4346295,3.72078204 5.04033499,3.89384075 C5.38645241,3.98037011 5.73256984,4.11016414 6.07868726,4.1966935 C6.25174598,4.23995818 6.46806937,4.32650726 6.64114781,4.36975221 C6.51133404,4.49956597 6.33827533,4.5860756 6.20850103,4.71586963 C5.99215791,4.88892835 5.77585425,5.06198706 5.51624645,5.23504577 C5.29992306,5.40810448 5.04033499,5.62442787 4.8240116,5.79750631 C4.60768821,5.92728062 4.52117858,6.14360401 4.52117858,6.3599274 L4.52117858,8.13379893 C4.60768821,8.56644571 5.12686435,8.7827691 5.47298177,8.56644571 C5.68930516,8.43663194 5.77583452,8.22032828 5.77583452,8.00398516 L5.77583452,6.79257418 C5.77583452,6.70604482 5.77583452,6.66278015 5.86236387,6.61951547 L7.03052991,5.9705453 C7.2468533,5.84075126 7.41991201,5.75422191 7.6362354,5.62442787 C8.24194089,6.23013336 9.0207051,6.53298611 9.88599866,6.53298611 C10.7512922,6.53298611 11.4867917,6.23015309 12.1357619,5.62442787 C12.3088206,5.71095723 12.4386147,5.79748658 12.6116734,5.88401594 C13.0443202,6.14360401 13.5202513,6.40319208 13.9528981,6.61951547 C13.9961628,6.66278015 14.0394275,6.70604482 14.0394275,6.74932923 L14.0394275,8.1770636 C14.0826922,8.47989662 14.4288096,8.65297506 14.6883976,8.65297506 C15.0345151,8.65297506 15.2941031,8.35012232 15.2941031,8.00400489 L15.2941031,6.27341777 C15.2941031,6.10033933 15.2075738,5.92728062 15.0345151,5.79748658 L14.3855449,5.27831045 C14.0826922,5.01872238 13.7798394,4.80239899 13.4769867,4.54283065 C13.3904573,4.45628157 13.303928,4.36975221 13.1741339,4.28322285 C13.2173986,4.28322285 13.2606633,4.28322285 13.303928,4.23995818 C13.8663688,4.06689946 14.3855449,3.93710543 14.9479857,3.76404672 C15.5969559,3.59098801 16.2026614,3.37466461 16.8516315,3.20158617 C17.1544843,3.11507655 17.3708077,2.72569444 17.197749,2.4228417 C17.1112196,2.37957702 16.9814256,2.29302794 16.7651022,2.29302794 L16.7651219,2.29302794 Z M9.97254774,5.66769255 C9.669695,5.66769255 9.45337161,5.45136916 9.4100872,5.10525174 C9.4100872,4.80241872 9.62643032,4.54281092 9.97254774,4.54281092 C10.2754005,4.54281092 10.5350083,4.80239899 10.5350083,5.10527146 C10.4917239,5.40810448 10.2754005,5.66769255 9.97254774,5.66769255 Z" id="path-2"></path>
        <linearGradient x1="50%" y1="4.15682264%" x2="50%" y2="100%" id="linearGradient-3">
            <stop stop-color="#FFFFFF" offset="0%"></stop>
            <stop stop-color="#FFFFFF" offset="100%"></stop>
        </linearGradient>
    </defs>
    <g id="页面-1" stroke="none" stroke-width="1" fill="none" fill-rule="evenodd">
        <g id="情报信息" transform="translate(-1856.000000, -195.000000)" fill-rule="nonzero">
            <g id="右侧预案响应" transform="translate(1486.000000, 72.000000)">
                <g id="1" transform="translate(44.000000, 81.000000)">
                    <g id="编组-7" transform="translate(9.000000, 35.000000)">
                        <g id="2" transform="translate(176.000000, 1.000000)">
                            <g id="编组-8" transform="translate(132.000000, 1.000000)">
                                <g id="形状" transform="translate(9.000000, 5.000000)">
                                    <use fill="#FFFFFF" xlink:href="#path-2"></use>
                                    <use fill="url(#linearGradient-3)" xlink:href="#path-2"></use>
                                </g>
                            </g>
                        </g>
                    </g>
                </g>
            </g>
        </g>
    </g>
</svg>