<?xml version="1.0" encoding="UTF-8"?>
<svg width="20px" height="20px" viewBox="0 0 20 20" version="1.1" xmlns="http://www.w3.org/2000/svg" xmlns:xlink="http://www.w3.org/1999/xlink">
    <title>形状</title>
    <g id="页面-1" stroke="none" stroke-width="1" fill="none" fill-rule="evenodd">
        <g id="现场签到" transform="translate(-694.000000, -270.000000)" fill="#9FC8FE" fill-rule="nonzero">
            <g id="弹窗" transform="translate(664.000000, 132.000000)">
                <g id="椭圆形-+-椭圆形备份-蒙版" transform="translate(20.000000, 122.000000)">
                    <path d="M28.1317801,17.6664928 L25.0013711,17.6664928 L25.0000714,16.8333288 C24.9998114,16.3734639 24.6270322,16.0009447 24.1674273,16.0006847 C23.7073024,16.0004248 23.3337434,16.3732039 23.3334834,16.8333288 L23.3334834,17.665193 L16.6679115,17.6664928 L16.6666117,16.8333288 C16.6666117,16.3329105 16.2254637,15.9354354 15.7110077,16.0087434 C15.2968953,16.0677538 15.0000238,16.4420927 15.0000238,16.8606244 L15.0000238,17.665453 L11.8680551,17.6667528 C10.9467654,17.6667528 10,18.6135182 10,19.5348078 L10,34.1319449 C10,35.0532346 10.9467654,36 11.8680551,36 L28.1317801,36 C29.0530697,36 29.9998352,35.0532346 29.9998352,34.1319449 L29.9998352,19.5342879 C29.9998352,18.6129983 29.0530697,17.6664928 28.1317801,17.6664928 Z M19.7057756,32.0954374 C19.3821284,32.4209043 18.8562343,32.422464 18.5307674,32.0988168 L15.6000058,29.1680553 C15.3041741,28.8722236 15.2493231,28.397801 15.5004421,28.0632356 C15.8123912,27.6475635 16.4053544,27.6166285 16.7591566,27.9704308 L19.1148921,30.3261662 C19.1164518,30.3264262 19.1167118,30.3264262 19.1169717,30.3261662 L23.2409385,26.2021994 C23.5664054,25.8767325 24.0941192,25.8769925 24.4193262,26.2024594 L24.4206259,26.2037592 C24.7453129,26.5289661 24.745053,27.05616 24.4198461,27.3813669 L19.7057756,32.0954374 Z M28.328828,22.6662566 L11.6710072,22.6662566 L11.6665879,19.3375 L14.9953445,19.3330807 L14.9997638,20.1662447 C14.9997638,20.6435268 15.4008783,21.0272242 15.8846594,20.9981089 C16.3299667,20.9713333 16.6663518,20.5798372 16.6663518,20.13375 L16.6663518,19.3375 L23.3285442,19.3330807 C23.3311438,19.3330807 23.3329635,19.3351604 23.3329635,19.3375 L23.3329635,20.1662447 C23.3332235,20.6261097 23.7060026,20.9986289 24.1656076,20.9988888 C24.6257325,20.9991488 24.9992915,20.6263696 24.9995514,20.1662447 L24.9995514,19.3375 C24.9995514,19.3349004 25.0016311,19.3330807 25.0039707,19.3330807 L28.328308,19.3330807 C28.3306477,19.3330807 28.3327273,19.3351604 28.3327273,19.3375 L28.3327273,22.6618374 C28.3332472,22.664177 28.3311676,22.6662566 28.328828,22.6662566 Z" id="形状"></path>
                </g>
            </g>
        </g>
    </g>
</svg>