<?xml version="1.0" encoding="UTF-8"?>
<svg width="6px" height="20px" viewBox="0 0 6 20" version="1.1" xmlns="http://www.w3.org/2000/svg" xmlns:xlink="http://www.w3.org/1999/xlink">
    <title>Slice</title>
    <g id="Page-1" stroke="none" stroke-width="1" fill="none" fill-rule="evenodd">
        <g id="triple-dot" transform="translate(0.000000, -1.000000)">
            <g id="形状结合" transform="translate(3.100000, 10.843750) rotate(-90.000000) translate(-3.100000, -10.843750) translate(-6.900000, 7.843750)">
                <g id="path-1-link" fill="#000000" fill-rule="nonzero">
                    <path d="M7.4,2.75 C7.4,4.07893516 8.4969028,5.15625 9.85,5.15625 C11.2030972,5.15625 12.3,4.07893516 12.3,2.75 C12.3,1.89032965 11.8330328,1.09596149 11.075,0.666126313 C10.3169672,0.236291138 9.3830328,0.236291138 8.625,0.666126313 C7.8669672,1.09596149 7.4,1.89032965 7.4,2.75 L7.4,2.75 Z M0.05,2.75 C0.05,3.60967035 0.5169672,4.40403851 1.275,4.83387369 C2.0330328,5.26370886 2.9669672,5.26370886 3.725,4.83387369 C4.4830328,4.40403851 4.95,3.60967035 4.95,2.75 C4.95,1.89032965 4.4830328,1.09596149 3.725,0.666126313 C2.9669672,0.236291138 2.0330328,0.236291138 1.275,0.666126313 C0.5169672,1.09596149 0.05,1.89032965 0.05,2.75 L0.05,2.75 Z M14.75,2.75 C14.75,4.07893516 15.8469028,5.15625 17.2,5.15625 C18.5530972,5.15625 19.65,4.07893516 19.65,2.75 C19.65,1.42106484 18.5530972,0.34375 17.2,0.34375 C15.8469028,0.34375 14.75,1.42106484 14.75,2.75 L14.75,2.75 Z" id="path-1"></path>
                </g>
                <g id="path-1-link" fill="#56E9FF">
                    <path d="M7.4,2.75 C7.4,4.07893516 8.4969028,5.15625 9.85,5.15625 C11.2030972,5.15625 12.3,4.07893516 12.3,2.75 C12.3,1.89032965 11.8330328,1.09596149 11.075,0.666126313 C10.3169672,0.236291138 9.3830328,0.236291138 8.625,0.666126313 C7.8669672,1.09596149 7.4,1.89032965 7.4,2.75 L7.4,2.75 Z M0.05,2.75 C0.05,3.60967035 0.5169672,4.40403851 1.275,4.83387369 C2.0330328,5.26370886 2.9669672,5.26370886 3.725,4.83387369 C4.4830328,4.40403851 4.95,3.60967035 4.95,2.75 C4.95,1.89032965 4.4830328,1.09596149 3.725,0.666126313 C2.9669672,0.236291138 2.0330328,0.236291138 1.275,0.666126313 C0.5169672,1.09596149 0.05,1.89032965 0.05,2.75 L0.05,2.75 Z M14.75,2.75 C14.75,4.07893516 15.8469028,5.15625 17.2,5.15625 C18.5530972,5.15625 19.65,4.07893516 19.65,2.75 C19.65,1.42106484 18.5530972,0.34375 17.2,0.34375 C15.8469028,0.34375 14.75,1.42106484 14.75,2.75 L14.75,2.75 Z" id="path-1"></path>
                </g>
            </g>
        </g>
    </g>
</svg>