<?xml version="1.0" encoding="UTF-8"?>
<svg width="14px" height="14px" viewBox="0 0 14 14" version="1.1" xmlns="http://www.w3.org/2000/svg" xmlns:xlink="http://www.w3.org/1999/xlink">
    <title>delete</title>
    <g id="Page-1" stroke="none" stroke-width="1" fill="none" fill-rule="evenodd">
        <g id="delete" fill-rule="nonzero">
            <circle id="Oval-3-Copy-3" fill="#F66E6E" opacity="0.589076451" cx="7" cy="7" r="7"></circle>
            <path d="M7.69181804,6.99968927 L10.856544,10.164142 C11.0478187,10.3555504 11.0478187,10.6650353 10.856544,10.8552008 C10.6652694,11.0466092 10.3560006,11.0466092 10.165968,10.8552008 L7,7.69199099 L3.83403198,10.8564437 C3.64275734,11.0478521 3.33348859,11.0478521 3.14345599,10.8564437 C2.95218134,10.6650353 2.95218134,10.3555504 3.14345599,10.1653849 L6.30818196,7.00093218 L3.14345599,3.83523654 C2.95218134,3.64382817 2.95218134,3.3343432 3.14345599,3.14417774 C3.23909331,3.04847355 3.36453967,3.00124291 3.48874398,3.00124291 C3.61419034,3.00124291 3.73839466,3.04847355 3.83403198,3.14417774 L7,6.30863047 L10.165968,3.14293482 C10.2616053,3.04723064 10.3858097,3 10.511256,3 C10.6367024,3 10.7609067,3.04723064 10.856544,3.14293482 C11.0478187,3.3343432 11.0478187,3.64382817 10.856544,3.83399363 L7.69181804,6.99968927 L7.69181804,6.99968927 Z" id="Shape" fill="#FFFFFF" transform="translate(7.000000, 7.000000) scale(-1, 1) rotate(-180.000000) translate(-7.000000, -7.000000) "></path>
        </g>
    </g>
</svg>