<svg width="21" height="22" xmlns="http://www.w3.org/2000/svg"><path d="M11.835 16.405l4.537-8.033V2.326A2.332 2.332 0 0014.036 0H2.36C1.057 0 0 1.044 0 2.336v16.348c0 1.29 1.059 2.336 2.361 2.336h9.24l-.13-.745c-.075-.344-.336-1.29-.25-2.174.07-.74.468-1.43.614-1.696zM4.068 5.252h8.4c.29 0 .524.261.524.585 0 .324-.236.585-.525.585H4.068c-.291 0-.525-.261-.525-.585-.002-.324.234-.585.525-.585zm6.038 10.508H4.068c-.291 0-.525-.261-.525-.585 0-.323.236-.584.525-.584h6.038c.291 0 .524.26.524.584 0 .324-.235.585-.524.585zm-6.038-4.67c-.291 0-.525-.261-.525-.585 0-.324.236-.585.525-.585h8.4c.29 0 .524.261.524.585 0 .324-.236.585-.525.585H4.068zm16.099-.422l-1.631-.936a1.222 1.222 0 00-1.024-.113 1.194 1.194 0 00-.798.6L12.62 17.19c-.266.487-.417 1.238-.304 1.762l.188 1.087c.075.374.266.675.57.825.19.113.379.151.607.151.153 0 .304-.038.417-.075l1.061-.374c.532-.188 1.102-.675 1.403-1.162l4.096-7.01c.343-.561.153-1.387-.492-1.726z" fill="#9FC8FE" fill-rule="evenodd"/></svg>