<?xml version="1.0" encoding="UTF-8"?>
<svg width="16px" height="16px" viewBox="0 0 16 16" version="1.1" xmlns="http://www.w3.org/2000/svg" xmlns:xlink="http://www.w3.org/1999/xlink">
    <title>形状结合</title>
    <g id="Page-1" stroke="none" stroke-width="1" fill="none" fill-rule="evenodd">
        <g id="形状结合" fill="#FFFFFF" fill-rule="nonzero">
            <path d="M14,0 C15.1045695,0 16,0.8954305 16,2 L16,14 C16,15.1045695 15.1045695,16 14,16 L2,16 C0.8954305,16 0,15.1045695 0,14 L0,2 C0,0.8954305 0.8954305,0 2,0 L14,0 Z M13.6949468,4.17310505 C13.3813996,3.91515957 12.9181184,3.96015625 12.6601562,4.27365359 L12.6601562,4.27365359 L6.59812168,11.6401928 L3.25611702,8.43952793 C2.96288231,8.15871011 2.49750665,8.16876662 2.21668883,8.46198471 C1.93585439,8.75515293 1.9459109,9.22052859 2.23912899,9.50134641 L2.23912899,9.50134641 L6.15360705,13.250266 C6.29044051,13.381325 6.47259522,13.4545047 6.66206782,13.4545047 C6.88184977,13.4545047 7.0901264,13.3561935 7.22978723,13.1864694 L7.22978723,13.1864694 L13.7954787,5.20786237 C14.0534574,4.8943484 14.0084608,4.43106715 13.6949468,4.17310505 Z"></path>
        </g>
    </g>
</svg>