<?xml version="1.0" encoding="UTF-8"?>
<svg width="40px" height="40px" viewBox="0 0 40 40" version="1.1" xmlns="http://www.w3.org/2000/svg" xmlns:xlink="http://www.w3.org/1999/xlink">
    <title>应急装备库</title>
    <defs>
        <ellipse id="path-1" cx="20" cy="33" rx="20" ry="7"></ellipse>
        <filter x="-10.0%" y="-28.6%" width="120.0%" height="157.1%" filterUnits="objectBoundingBox" id="filter-2">
            <feGaussianBlur stdDeviation="4" in="SourceAlpha" result="shadowBlurInner1"></feGaussianBlur>
            <feOffset dx="0" dy="0" in="shadowBlurInner1" result="shadowOffsetInner1"></feOffset>
            <feComposite in="shadowOffsetInner1" in2="SourceAlpha" operator="arithmetic" k2="-1" k3="1" result="shadowInnerInner1"></feComposite>
            <feColorMatrix values="0 0 0 0 0   0 0 0 0 0.568627451   0 0 0 0 1  0 0 0 1 0" type="matrix" in="shadowInnerInner1"></feColorMatrix>
        </filter>
        <filter x="0.0%" y="0.0%" width="100.0%" height="100.0%" filterUnits="objectBoundingBox" id="filter-3">
            <feGaussianBlur stdDeviation="0" in="SourceGraphic"></feGaussianBlur>
        </filter>
    </defs>
    <g id="页面-1" stroke="none" stroke-width="1" fill="none" fill-rule="evenodd">
        <g id="落点切图" transform="translate(-1121.000000, -81.000000)">
            <g id="应急装备库" transform="translate(1121.000000, 81.000000)">
                <g id="椭圆形" fill="black" fill-opacity="1">
                    <use filter="url(#filter-2)" xlink:href="#path-1"></use>
                </g>
                <ellipse id="椭圆形" fill="#00519B" opacity="0.703760901" filter="url(#filter-3)" cx="20" cy="33" rx="10" ry="3.5"></ellipse>
                <path d="M20,0.5 C23.7279221,0.5 27.1029221,2.01103897 29.5459415,4.45405845 C31.988961,6.89707794 33.5,10.2720779 33.5,14 C33.5,18.3257105 31.4654458,22.1761668 28.3012384,24.6468968 L28.3012384,24.6468968 L20.000092,32.895055 L11.7196612,24.6631831 C8.54351615,22.1931056 6.5,18.3352269 6.5,14 C6.5,10.2720779 8.01103897,6.89707794 10.4540585,4.45405845 C12.8970779,2.01103897 16.2720779,0.5 20,0.5 Z" id="形状结合" stroke="#FFFFFF" fill="#0091FF" fill-rule="nonzero"></path>
                <path d="M19.4880794,8.08004523 C19.822398,7.88094413 20.2396563,7.88094413 20.5739749,8.08004523 L20.5739749,8.08004523 L26.9083657,11.7674647 C27.2459498,11.9636039 27.4501406,12.3264628 27.4417881,12.7153874 L27.4417881,12.7153874 L27.4417881,21.1139829 C27.4418111,21.7071171 26.9614183,22.1894119 26.3654179,22.1946149 L26.3654179,22.1946149 L13.6966364,22.1946149 C13.1131567,22.1948196 12.6357568,21.7323466 12.6202662,21.1518999 L12.6202662,21.1518999 L12.6202662,12.7153874 C12.6119137,12.3264628 12.8161045,11.9636039 13.1536886,11.7674647 L13.1536886,11.7674647 Z M17.1734072,17.5782311 L14.6968033,17.5782311 C14.5515924,17.5831338 14.4350187,17.6991424 14.4300921,17.8436495 L14.4300921,17.8436495 L14.4300921,20.2987694 C14.4300036,20.446965 14.5479744,20.5685568 14.6968033,20.573667 L14.6968033,20.573667 L17.1829326,20.573667 C17.3317616,20.5685568 17.4497324,20.446965 17.4496439,20.2987694 L17.4496439,20.2987694 L17.4401184,20.2987694 L17.4401184,17.8436495 C17.4351918,17.6991424 17.3186182,17.5831338 17.1734072,17.5782311 L17.1734072,17.5782311 Z M21.1169227,17.5782311 L18.6307934,17.5782311 C18.4855825,17.5831338 18.3690088,17.6991424 18.3640821,17.8436495 L18.3640821,17.8436495 L18.3640821,20.2987694 C18.3639936,20.446965 18.4819645,20.5685568 18.6307934,20.573667 L18.6307934,20.573667 L21.1169227,20.573667 C21.2657517,20.5685568 21.3837225,20.446965 21.383634,20.2987694 L21.383634,20.2987694 L21.383634,17.8436495 C21.3787073,17.6991424 21.2621336,17.5831338 21.1169227,17.5782311 L21.1169227,17.5782311 Z M24.984235,17.5782311 L22.5076311,17.5782311 C22.3587136,17.578143 22.2365295,17.695542 22.2313945,17.8436495 L22.2313945,17.8436495 L22.2313945,20.2987694 C22.2313945,20.4505911 22.3550698,20.573667 22.5076311,20.573667 L22.5076311,20.573667 L24.984235,20.573667 C25.1367963,20.573667 25.2604716,20.4505911 25.2604716,20.2987694 L25.2604716,20.2987694 L25.2604716,17.8436495 C25.2553365,17.695542 25.1331525,17.578143 24.984235,17.5782311 L24.984235,17.5782311 Z M17.1734072,13.5969556 L14.6968033,13.5969556 C14.5479744,13.6020658 14.4300036,13.7236576 14.4300921,13.8718532 L14.4300921,13.8718532 L14.4300921,16.3174939 C14.4300036,16.4656895 14.5479744,16.5872813 14.6968033,16.5923915 L14.6968033,16.5923915 L17.1829326,16.5923915 C17.3317616,16.5872813 17.4497324,16.4656895 17.4496439,16.3174939 L17.4496439,16.3174939 L17.4401184,16.3554108 L17.4401184,13.8718532 C17.440207,13.7236576 17.3222362,13.6020658 17.1734072,13.5969556 L17.1734072,13.5969556 Z M21.1169227,13.5969556 L18.6307934,13.5969556 C18.4819645,13.6020658 18.3639936,13.7236576 18.3640821,13.8718532 L18.3640821,13.8718532 L18.3640821,16.3174939 C18.3639936,16.4656895 18.4819645,16.5872813 18.6307934,16.5923915 L18.6307934,16.5923915 L21.1169227,16.5923915 C21.2657517,16.5872813 21.3837225,16.4656895 21.383634,16.3174939 L21.383634,16.3174939 L21.383634,13.8718532 C21.3837225,13.7236576 21.2657517,13.6020658 21.1169227,13.5969556 L21.1169227,13.5969556 Z M19.6785874,5.17940164 C19.8998163,5.0663528 20.162238,5.0663528 20.3834669,5.17940164 L20.3834669,5.17940164 L29.1944617,10.3929767 L29.1563601,10.3929767 C29.485632,10.5867033 29.6066318,11.0019214 29.4325967,11.3408995 C29.2411312,11.6726616 28.8201752,11.7941471 28.4800567,11.6157971 L28.4800567,11.6157971 L20.240586,6.72451572 C20.097705,6.6486819 19.9262478,6.6486819 19.7833668,6.72451572 L19.7833668,6.72451572 L11.543896,11.6157971 C11.2037775,11.7941471 10.7828215,11.6726616 10.591356,11.3408995 C10.4173209,11.0019214 10.5383207,10.5867033 10.8675926,10.3929767 L10.8675926,10.3929767 Z" id="形状结合" fill="#FFFFFF" fill-rule="nonzero"></path>
            </g>
        </g>
    </g>
</svg>