<?xml version="1.0" encoding="UTF-8"?>
<svg width="14px" height="14px" viewBox="0 0 14 14" version="1.1" xmlns="http://www.w3.org/2000/svg" xmlns:xlink="http://www.w3.org/1999/xlink">
    <title>路径</title>
    <g id="页面-1" stroke="none" stroke-width="1" fill="none" fill-rule="evenodd" opacity="0.449999988">
        <g id="语音转文字" transform="translate(-1374.000000, -389.000000)" fill="#FFFFFF">
            <g id="编组-4" transform="translate(930.000000, 376.000000)">
                <path d="M452.210682,20.0005438 L457.748952,14.4627515 C458.083683,14.1277868 458.083683,13.5861881 457.748952,13.2533986 C457.414221,12.9184339 456.873001,12.9184339 456.540444,13.2533986 L451,18.7890158 L445.459556,13.2512235 C445.124825,12.9162588 444.583605,12.9162588 444.251048,13.2512235 C443.916317,13.5861881 443.916317,14.1277868 444.251048,14.4605764 L449.789318,19.9983687 L444.251048,25.5383361 C443.916317,25.8733007 443.916317,26.4148994 444.251048,26.747689 C444.418413,26.9151713 444.637944,26.9978249 444.855302,26.9978249 C445.074833,26.9978249 445.292191,26.9151713 445.459556,26.747689 L451,21.2098967 L456.540444,26.7498641 C456.707809,26.9173464 456.925167,27 457.144698,27 C457.364229,27 457.581587,26.9173464 457.748952,26.7498641 C458.083683,26.4148994 458.083683,25.8733007 457.748952,25.5405111 L452.210682,20.0005438 Z" id="路径"></path>
            </g>
        </g>
    </g>
</svg>