<?xml version="1.0" encoding="UTF-8"?>
<svg width="9px" height="9px" viewBox="0 0 9 9" version="1.1" xmlns="http://www.w3.org/2000/svg" xmlns:xlink="http://www.w3.org/1999/xlink">
    <title>形状结合</title>
    <g id="事件信息、组织动态、辅助工具" stroke="none" stroke-width="1" fill="none" fill-rule="evenodd">
        <g id="线标绘结果展示" transform="translate(-1380.000000, -289.000000)" fill="#56E9FF">
            <g id="编组-34" transform="translate(1041.000000, 267.000000)">
                <path d="M342.073503,27.9352542 L342.077931,27.9396577 C342.390106,28.2500484 342.391552,28.7547374 342.081162,29.0669121 L342.077931,29.0701422 L340.36803,30.7702725 C340.055985,31.0805338 339.55195,31.0805338 339.239905,30.7702725 L339.235477,30.765869 C338.923302,30.4554783 338.921856,29.9507893 339.232247,29.6386146 C339.23332,29.6375348 339.234397,29.6364581 339.235477,29.6353845 L340.945378,27.9352542 C341.257423,27.6249929 341.761458,27.6249929 342.073503,27.9352542 Z M347.72561,22.2297275 L347.730039,22.234131 C348.042213,22.5445217 348.043659,23.0492107 347.733269,23.3613854 L347.730039,23.3646155 L344.619,26.456 L347.764523,29.5839529 C348.076698,29.8943437 348.078144,30.3990326 347.767753,30.7112073 L347.760095,30.718841 C347.44805,31.0291022 346.944015,31.0291022 346.63197,30.718841 L339.237159,23.3662881 C338.924984,23.0558974 338.923538,22.5512084 339.233929,22.2390337 L339.241588,22.2314001 C339.553632,21.9211388 340.057668,21.9211388 340.369712,22.2314001 L343.482,25.326 L346.597485,22.2297275 C346.90953,21.9194662 347.413565,21.9194662 347.72561,22.2297275 Z" id="形状结合"></path>
            </g>
        </g>
    </g>
</svg>