<?xml version="1.0" encoding="UTF-8"?>
<svg width="18px" height="14px" viewBox="0 0 18 14" version="1.1" xmlns="http://www.w3.org/2000/svg" xmlns:xlink="http://www.w3.org/1999/xlink">
    <title>形状</title>
    <g id="PC端" stroke="none" stroke-width="1" fill="none" fill-rule="evenodd">
        <g id="点标绘-已保存详情" transform="translate(-843.000000, -574.000000)" fill="#0091FF" fill-rule="nonzero">
            <g id="矩形" transform="translate(637.000000, 220.000000)">
                <path d="M212.056186,362.52415 C212.207439,362.466733 212.39122,362.414235 212.609585,362.276527 C212.927818,362.075864 213.173018,361.662088 212.581415,361.15506 C210.624038,358.324687 211.336475,356.44409 211.633796,355.735676 C211.385434,355.638757 211.102944,355.581427 210.779597,355.581427 L210.6779,355.581427 C208.804717,355.581427 208.306868,357.29104 208.268874,358.249934 C208.243744,360.510942 209.621222,361.409896 209.621222,361.409896 C209.621222,361.409896 209.707032,361.528788 209.707032,361.873631 C209.707032,361.952246 209.655964,362.187755 209.567835,362.258892 C208.798971,362.883683 206.232664,363.53459 206.053329,364.880526 C205.958522,365.26942 206.015231,365.673356 206.033893,366.047684 C206.453823,366.371259 207.799194,366.645582 207.799194,366.645582 C207.799194,366.645582 207.91089,366.305059 208.024272,365.742307 C208.191851,364.91047 209.313392,363.564322 212.056186,362.52415 L212.056186,362.52415 Z M223.945618,364.868693 C223.76138,363.524433 221.126749,362.874407 220.338344,362.250428 C220.247824,362.179308 220.195825,361.944169 220.195825,361.865766 C220.195825,361.521205 220.283199,361.402508 220.283199,361.402508 C220.283199,361.402508 221.695805,360.504752 221.66941,358.246619 C221.630908,357.288871 221.035386,355.581427 219.200776,355.581427 L219.20067,355.581427 L219.096444,355.581427 C218.700976,355.581427 218.368473,355.656868 218.084612,355.780204 C218.477163,357.098947 218.948811,359.518754 216.964231,361.140388 C216.185632,362.305183 218.779212,362.988379 218.376082,362.806585 C220.722969,363.864973 221.354604,364.676936 221.526593,365.516444 C221.670201,366.217116 221.751671,366.645599 221.751671,366.645599 C221.751671,366.645599 223.510013,366.376285 223.964773,366.034387 C223.984385,365.660465 224.042482,365.257093 223.945618,364.868693 L223.945618,364.868693 Z M216.292371,362.288553 C216.181449,362.200099 216.117641,361.907436 216.117641,361.810023 C216.117641,361.381858 216.224433,361.23468 216.224433,361.23468 C216.222483,361.23595 217.959508,360.293368 217.925346,357.312342 C217.878039,356.121854 217.147625,354 214.896635,354 L214.896319,354 L214.768614,354 C212.413485,354 211.787123,356.121837 211.739587,357.312342 C211.707797,360.118663 213.440113,361.23468 213.440113,361.23468 C213.440113,361.23468 213.650184,361.475109 213.650184,361.90331 C213.650184,362.000829 213.483502,362.199993 213.372755,362.288571 C212.405999,363.064172 208.924936,363.845874 208.699278,365.516462 C208.524547,366.225193 207.49103,367.349199 210.927405,367.8017 C211.874057,367.926323 213.159961,368 214.896477,368 C222.866095,368 221.218358,366.45065 220.99437,365.542279 C220.768572,363.871762 217.259444,363.064119 216.292371,362.288553 L216.292371,362.288553 Z" id="形状"></path>
            </g>
        </g>
    </g>
</svg>