<?xml version="1.0" encoding="UTF-8"?>
<svg width="18px" height="14px" viewBox="0 0 18 14" version="1.1" xmlns="http://www.w3.org/2000/svg" xmlns:xlink="http://www.w3.org/1999/xlink">
    <title>形状</title>
    <g id="PC端" stroke="none" stroke-width="1" fill="none" fill-rule="evenodd">
        <g id="绘制线方式：完成绘制" transform="translate(-840.000000, -665.000000)" fill="#9FC8FE">
            <g id="矩形" transform="translate(617.000000, 311.000000)">
                <path d="M229.056186,362.52415 C229.207439,362.466733 229.39122,362.414235 229.609585,362.276527 C229.927818,362.075864 230.173018,361.662088 229.581415,361.15506 C227.624038,358.324687 228.336475,356.44409 228.633796,355.735676 C228.385434,355.638757 228.102944,355.581427 227.779597,355.581427 L227.6779,355.581427 C225.804717,355.581427 225.306868,357.29104 225.268874,358.249934 C225.243744,360.510942 226.621222,361.409896 226.621222,361.409896 C226.621222,361.409896 226.707032,361.528788 226.707032,361.873631 C226.707032,361.952246 226.655964,362.187755 226.567835,362.258892 C225.798971,362.883683 223.232664,363.53459 223.053329,364.880526 C222.958522,365.26942 223.015231,365.673356 223.033893,366.047684 C223.453823,366.371259 224.799194,366.645582 224.799194,366.645582 C224.799194,366.645582 224.91089,366.305059 225.024272,365.742307 C225.191851,364.91047 226.313392,363.564322 229.056186,362.52415 L229.056186,362.52415 Z M240.945618,364.868693 C240.76138,363.524433 238.126749,362.874407 237.338344,362.250428 C237.247824,362.179308 237.195825,361.944169 237.195825,361.865766 C237.195825,361.521205 237.283199,361.402508 237.283199,361.402508 C237.283199,361.402508 238.695805,360.504752 238.66941,358.246619 C238.630908,357.288871 238.035386,355.581427 236.200776,355.581427 L236.20067,355.581427 L236.096444,355.581427 C235.700976,355.581427 235.368473,355.656868 235.084612,355.780204 C235.477163,357.098947 235.948811,359.518754 233.964231,361.140388 C233.185632,362.305183 235.779212,362.988379 235.376082,362.806585 C237.722969,363.864973 238.354604,364.676936 238.526593,365.516444 C238.670201,366.217116 238.751671,366.645599 238.751671,366.645599 C238.751671,366.645599 240.510013,366.376285 240.964773,366.034387 C240.984385,365.660465 241.042482,365.257093 240.945618,364.868693 L240.945618,364.868693 Z M233.292371,362.288553 C233.181449,362.200099 233.117641,361.907436 233.117641,361.810023 C233.117641,361.381858 233.224433,361.23468 233.224433,361.23468 C233.222483,361.23595 234.959508,360.293368 234.925346,357.312342 C234.878039,356.121854 234.147625,354 231.896635,354 L231.896319,354 L231.768614,354 C229.413485,354 228.787123,356.121837 228.739587,357.312342 C228.707797,360.118663 230.440113,361.23468 230.440113,361.23468 C230.440113,361.23468 230.650184,361.475109 230.650184,361.90331 C230.650184,362.000829 230.483502,362.199993 230.372755,362.288571 C229.405999,363.064172 225.924936,363.845874 225.699278,365.516462 C225.524547,366.225193 224.49103,367.349199 227.927405,367.8017 C228.874057,367.926323 230.159961,368 231.896477,368 C239.866095,368 238.218358,366.45065 237.99437,365.542279 C237.768572,363.871762 234.259444,363.064119 233.292371,362.288553 L233.292371,362.288553 Z" id="形状"></path>
            </g>
        </g>
    </g>
</svg>