<?xml version="1.0" encoding="UTF-8"?>
<svg width="14px" height="15px" viewBox="0 0 14 15" version="1.1" xmlns="http://www.w3.org/2000/svg" xmlns:xlink="http://www.w3.org/1999/xlink">
    <title>形状结合</title>
    <g id="事件信息、组织动态、辅助工具" stroke="none" stroke-width="1" fill="none" fill-rule="evenodd">
        <g id="1.人口热力图分析入口" transform="translate(-1371.000000, -443.000000)" fill="#FFFFFF" fill-rule="nonzero">
            <g id="图标详情" transform="translate(1269.000000, 291.000000)">
                <g id="按钮" transform="translate(11.000000, 126.000000)">
                    <path d="M102.501171,30 C102.777709,30.0009186 103.000869,30.2371176 103,30.5286757 L103,30.5286757 L103,38.4358149 C103,39.3086522 102.328777,40.0181678 101.501792,40.0181678 L101.501792,40.0181678 L94.5008343,40.0181678 C93.67385,40.0181678 93,39.3086522 93,38.4358149 L93,38.4358149 L93,30.5203759 C93,30.3792142 93.053394,30.2491243 93.1461489,30.1503964 C93.2406618,30.0525871 93.3675503,30 93.5005685,30 L93.5005685,30 Z M99.500776,32 C99.2236412,32 99,32.2052318 99,32.4605507 L99,32.4605507 L99,37.5402681 C99,37.7955869 99.2236412,38 99.500776,38 C99.7761646,38 100.000679,37.7955869 100.000679,37.5402681 L100.000663,37.5402681 L100.000663,32.4605507 C100.000663,32.2060362 99.7770377,32 99.500776,32 Z M96.500776,32 C96.2236412,32 96,32.2052318 96,32.4605507 L96,32.4605507 L96,37.5402681 C96,37.7955869 96.2236412,38 96.500776,38 C96.7761646,38 97.0006789,37.7955869 97.0006789,37.5402681 L97.0006633,37.5402681 L97.0006633,32.4605507 C97.0006633,32.2060362 96.7770377,32 96.500776,32 Z M100.338171,26 C101.160969,26 101.504665,26.3554689 101.505537,27.0636452 L101.505537,27.0636452 L101.505537,27.9924191 L104.50984,27.9924191 C104.836613,28.0941262 105,28.2592667 105,28.4878406 C105,28.8307014 104.784988,29 104.508968,29 L104.508968,29 L91.4914811,29 C91.2154602,29 91,28.7248996 91,28.4878406 C91,28.2515284 91.2145879,27.9924191 91.4914811,27.9924191 L91.4914811,27.9924191 L94.4988547,27.9924191 L94.4988547,27.0636452 C94.4988547,26.3554689 94.9106731,26 95.7387202,26 L95.7387202,26 Z" id="形状结合"></path>
                </g>
            </g>
        </g>
    </g>
</svg>