<?xml version="1.0" encoding="UTF-8"?>
<svg width="14px" height="15px" viewBox="0 0 14 15" version="1.1" xmlns="http://www.w3.org/2000/svg" xmlns:xlink="http://www.w3.org/1999/xlink">
    <title>形状结合</title>
    <g id="事件信息、组织动态、辅助工具" stroke="none" stroke-width="1" fill="none" fill-rule="evenodd">
        <g id="1.人口热力图分析入口" transform="translate(-1248.000000, -602.000000)" fill="#56E9FF" fill-rule="nonzero">
            <g id="图标详情备份" transform="translate(1235.000000, 513.000000)">
                <g id="按钮" transform="translate(13.000000, 63.000000)">
                    <path d="M11.5011714,30 C11.7777093,30.0009186 12.0008687,30.2371176 12,30.5286757 L12,30.5286757 L12,38.4358149 C12,39.3086522 11.3287767,40.0181678 10.5017924,40.0181678 L10.5017924,40.0181678 L3.50083429,40.0181678 C2.67385,40.0181678 2,39.3086522 2,38.4358149 L2,38.4358149 L2,30.5203759 C2,30.3792142 2.05339397,30.2491243 2.14614889,30.1503964 C2.24066183,30.0525871 2.3675503,30 2.50056851,30 L2.50056851,30 Z M8.50077599,32 C8.22364117,32 8,32.2052318 8,32.4605507 L8,32.4605507 L8,37.5402681 C8,37.7955869 8.22364117,38 8.50077599,38 C8.77616458,38 9.00067886,37.7955869 9.00067886,37.5402681 L9.00066327,37.5402681 L9.00066327,32.4605507 C9.00066327,32.2060362 8.77703769,32 8.50077599,32 Z M5.50077599,32 C5.22364117,32 5,32.2052318 5,32.4605507 L5,32.4605507 L5,37.5402681 C5,37.7955869 5.22364117,38 5.50077599,38 C5.77616458,38 6.00067886,37.7955869 6.00067886,37.5402681 L6.00066327,37.5402681 L6.00066327,32.4605507 C6.00066327,32.2060362 5.77703769,32 5.50077599,32 Z M9.33817128,26 C10.1609686,26 10.5046645,26.3554689 10.5055369,27.0636452 L10.5055369,27.0636452 L10.5055369,27.9924191 L13.5098399,27.9924191 C13.8366133,28.0941262 14,28.2592667 14,28.4878406 C14,28.8307014 13.7849884,29 13.5089675,29 L13.5089675,29 L0.491481104,29 C0.215460232,29 0,28.7248996 0,28.4878406 C0,28.2515284 0.214587882,27.9924191 0.491481104,27.9924191 L0.491481104,27.9924191 L3.49885468,27.9924191 L3.49885468,27.0636452 C3.49885468,26.3554689 3.91067312,26 4.73872016,26 L4.73872016,26 Z" id="形状结合"></path>
                </g>
            </g>
        </g>
    </g>
</svg>