<?xml version="1.0" encoding="UTF-8"?>
<svg width="13px" height="13px" viewBox="0 0 13 13" version="1.1" xmlns="http://www.w3.org/2000/svg" xmlns:xlink="http://www.w3.org/1999/xlink">
    <title>拨号</title>
    <g id="PC端" stroke="none" stroke-width="1" fill="none" fill-rule="evenodd">
        <g id="绘制线方式：完成绘制" transform="translate(-819.000000, -666.000000)" fill="#9FC8FE">
            <g id="矩形" transform="translate(617.000000, 311.000000)">
                <path d="M204.891807,355 C206.469024,355 207.748597,356.237759 207.748597,357.763435 L207.748597,357.763435 L207.748597,357.788839 C207.748597,359.081642 206.8367,360.166974 205.602357,360.478884 C206.180135,362.308001 207.558923,363.792748 209.336027,364.560525 C209.64826,363.350993 210.779012,362.453371 212.125701,362.453371 C213.713131,362.453371 215,363.698187 215,365.233742 C215,365.496254 214.962065,365.748887 214.892031,365.988818 C214.8789,366.041038 214.858474,366.090435 214.832211,366.135599 C214.484961,367.108023 213.59349,367.834871 212.507969,367.973184 C212.462738,367.987298 212.413131,367.995766 212.363524,367.997177 C212.322671,367.997177 212.280359,368 212.238047,368 C206.584287,368 202,363.581044 202,358.11204 C202,358.044295 202.001459,357.97655 202.002918,357.908805 C202.001459,357.869287 202,357.829769 202,357.790251 C202,356.632939 202.730976,355.642167 203.769809,355.221583 C204.114141,355.079036 204.49349,355 204.891807,355 Z M212.109652,356.659755 C212.343098,356.433938 212.722447,356.433938 212.954433,356.659755 L212.954433,356.659755 L214.558596,358.209327 C214.684351,358.315507 214.763636,358.471719 214.763636,358.645533 C214.763636,358.817163 214.68659,358.970972 214.564352,359.076798 L212.954433,360.632722 C212.720988,360.858539 212.343098,360.858539 212.109652,360.632722 C211.876207,360.406905 211.876207,360.039952 212.109652,359.815547 L212.109652,359.815547 L212.72,359.224 L210.10202,359.224188 C209.803939,359.224188 209.557859,359.01384 209.511623,358.739244 L209.503816,358.645533 C209.503816,358.326566 209.770819,358.068288 210.100561,358.066877 L210.100561,358.066877 L212.719,358.066 L212.109652,357.47693 C211.902145,357.276204 211.879089,356.965078 212.040483,356.739819 Z" id="拨号"></path>
            </g>
        </g>
    </g>
</svg>