<?xml version="1.0" encoding="UTF-8"?>
<svg width="13px" height="13px" viewBox="0 0 13 13" version="1.1" xmlns="http://www.w3.org/2000/svg" xmlns:xlink="http://www.w3.org/1999/xlink">
    <title>拨号</title>
    <g id="PC端" stroke="none" stroke-width="1" fill="none" fill-rule="evenodd">
        <g id="点标绘-已保存详情" transform="translate(-822.000000, -575.000000)" fill="#0091FF" fill-rule="nonzero">
            <g id="矩形" transform="translate(637.000000, 220.000000)">
                <path d="M187.891807,355 C189.469024,355 190.748597,356.237759 190.748597,357.763435 L190.748597,357.763435 L190.748597,357.788839 C190.748597,359.081642 189.8367,360.166974 188.602357,360.478884 C189.180135,362.308001 190.558923,363.792748 192.336027,364.560525 C192.64826,363.350993 193.779012,362.453371 195.125701,362.453371 C196.713131,362.453371 198,363.698187 198,365.233742 C198,365.496254 197.962065,365.748887 197.892031,365.988818 C197.8789,366.041038 197.858474,366.090435 197.832211,366.135599 C197.484961,367.108023 196.59349,367.834871 195.507969,367.973184 C195.462738,367.987298 195.413131,367.995766 195.363524,367.997177 C195.322671,367.997177 195.280359,368 195.238047,368 C189.584287,368 185,363.581044 185,358.11204 C185,358.044295 185.001459,357.97655 185.002918,357.908805 C185.001459,357.869287 185,357.829769 185,357.790251 C185,356.632939 185.730976,355.642167 186.769809,355.221583 C187.114141,355.079036 187.49349,355 187.891807,355 Z M195.109652,356.659755 C195.343098,356.433938 195.722447,356.433938 195.954433,356.659755 L195.954433,356.659755 L197.558596,358.209327 C197.684351,358.315507 197.763636,358.471719 197.763636,358.645533 C197.763636,358.817163 197.68659,358.970972 197.564352,359.076798 L195.954433,360.632722 C195.720988,360.858539 195.343098,360.858539 195.109652,360.632722 C194.876207,360.406905 194.876207,360.039952 195.109652,359.815547 L195.109652,359.815547 L195.72,359.224 L193.10202,359.224188 C192.803939,359.224188 192.557859,359.01384 192.511623,358.739244 L192.503816,358.645533 C192.503816,358.326566 192.770819,358.068288 193.100561,358.066877 L193.100561,358.066877 L195.719,358.066 L195.109652,357.47693 C194.902145,357.276204 194.879089,356.965078 195.040483,356.739819 Z" id="拨号"></path>
            </g>
        </g>
    </g>
</svg>