<?xml version="1.0" encoding="UTF-8"?>
<svg width="16px" height="15px" viewBox="0 0 16 15" version="1.1" xmlns="http://www.w3.org/2000/svg" xmlns:xlink="http://www.w3.org/1999/xlink">
    <title>形状</title>
    <g id="事件信息、组织动态、辅助工具" stroke="none" stroke-width="1" fill="none" fill-rule="evenodd">
        <g id="1.人口热力图分析入口" transform="translate(-1454.000000, -418.000000)" fill="#FFFFFF" fill-rule="nonzero">
            <g id="图标详情" transform="translate(1269.000000, 291.000000)">
                <g id="按钮" transform="translate(13.000000, 126.000000)">
                    <path d="M176.340896,6.03524914 C176.340801,7.63968728 177.231335,9.12228838 178.677022,9.92453384 C180.122708,10.7267793 181.903895,10.7267793 183.349581,9.92453384 C184.795267,9.12228838 185.685802,7.63968728 185.685707,6.03524914 C185.68556,3.55519686 183.593696,1.5447922 181.013301,1.5447922 C178.432907,1.5447922 176.341043,3.55519686 176.340896,6.03524914 Z M174.775873,7.20771353 C173.146384,7.60343859 172.003561,9.01081355 172.000007,10.6261567 C171.996129,12.544169 173.656982,14.1503954 175.651949,14.162288 C177.233475,14.171637 178.643793,13.2072362 179.153016,11.768127 C179.276693,11.4211407 179.091572,11.0424343 178.734727,10.9124272 C177.226591,10.3659308 176.075902,9.16653804 175.631229,7.67757054 C175.525817,7.32426599 175.146817,7.1159191 174.776521,7.20771353 L174.775873,7.20771353 Z M173.141567,2.42948551 C173.141567,3.21896855 173.807464,3.85897101 174.628889,3.85897101 C175.450314,3.85897101 176.116211,3.21896855 176.116211,2.42948551 C176.116211,1.64000246 175.450314,1 174.628889,1 C173.807464,1 173.141567,1.64000246 173.141567,2.42948551 Z M185.451957,10.457506 C184.407802,10.4484486 183.461639,11.0472066 183.057693,11.9726627 C182.653747,12.8981188 182.872246,13.966465 183.610605,14.6761121 C184.348964,15.3857592 185.460535,15.5957617 186.423435,15.2075234 C187.386335,14.819285 188.009318,13.9099151 187.999895,12.9063634 C187.986201,11.5594875 186.853331,10.4709469 185.451957,10.4581283 L185.451957,10.457506 Z" id="形状"></path>
                </g>
            </g>
        </g>
    </g>
</svg>