<?xml version="1.0" encoding="UTF-8"?>
<svg width="14px" height="14px" viewBox="0 0 14 14" version="1.1" xmlns="http://www.w3.org/2000/svg" xmlns:xlink="http://www.w3.org/1999/xlink">
    <title>形状</title>
    <g id="事件信息、组织动态、辅助工具" stroke="none" stroke-width="1" fill="none" fill-rule="evenodd">
        <g id="1.人口热力图分析入口" transform="translate(-1282.000000, -419.000000)" fill="#FFFFFF" fill-rule="nonzero">
            <g id="图标详情" transform="translate(1269.000000, 291.000000)">
                <g id="按钮" transform="translate(13.000000, 126.000000)">
                    <path d="M10.5841121,9.44158878 L3.37616822,9.44158878 C3.0198598,9.43574765 2.73364486,9.16471962 2.73364486,8.83177569 L2.73364486,8.82242991 C2.73364486,8.48364486 3.02219626,8.20327103 3.37616822,8.20327103 L10.5841121,8.20327103 C10.7526307,8.20077309 10.9151419,8.26581112 11.0354078,8.38388242 C11.1556738,8.50195373 11.2236934,8.66323975 11.2242991,8.83177569 C11.2242991,9.16471962 10.9392523,9.43457943 10.5841121,9.44275701 L10.5841121,9.44158878 Z M10.5841121,12.478972 L3.37616822,12.478972 C3.0198598,12.4719626 2.73364486,12.2021028 2.73364486,11.8691589 L2.73364486,11.8598131 C2.73364486,11.5186916 3.02219626,11.2406542 3.37616822,11.2406542 L10.5841121,11.2406542 C10.7526307,11.2381563 10.9151419,11.3031943 11.0354078,11.4212656 C11.1556738,11.5393369 11.2236934,11.7006229 11.2242991,11.8691589 C11.2242991,12.2009346 10.9392523,12.4719626 10.5841121,12.478972 L10.5841121,12.478972 Z M2.73364486,5.78504673 C2.73364486,5.44626168 3.02219626,5.16588784 3.37616822,5.16588784 L7.92056075,5.16588784 C8.08949736,5.16339156 8.25242507,5.22851628 8.37309494,5.34677276 C8.49376481,5.46502923 8.56216737,5.62660818 8.5630841,5.79556075 C8.5630841,6.12850467 8.27686915,6.39836448 7.92056075,6.40537383 L3.37616822,6.40537383 C3.0198598,6.39836448 2.73364486,6.12850467 2.73364486,5.79556075 L2.73364486,5.78504673 Z M12.7219626,2 L1.27803739,2 C0.575934575,2 0,2.55607477 0,3.23481308 L0,14.7675234 C0,15.4474299 0.574766355,16.0035047 1.27803739,16.0035047 L12.7219626,16.0035047 C13.4252336,16.0035047 14,15.4474299 14,14.7675234 L14,3.23481308 C14,2.55607477 13.4252336,2 12.7219626,2 Z" id="形状"></path>
                </g>
            </g>
        </g>
    </g>
</svg>