<?xml version="1.0" encoding="UTF-8"?>
<svg width="13px" height="16px" viewBox="0 0 13 16" version="1.1" xmlns="http://www.w3.org/2000/svg" xmlns:xlink="http://www.w3.org/1999/xlink">
    <title>形状</title>
    <g id="事件信息、组织动态、辅助工具" stroke="none" stroke-width="1" fill="none" fill-rule="evenodd">
        <g id="1.人口热力图分析入口" transform="translate(-1371.000000, -417.000000)" fill="#FFFFFF" fill-rule="nonzero">
            <g id="图标详情" transform="translate(1269.000000, 291.000000)">
                <g id="按钮" transform="translate(13.000000, 126.000000)">
                    <path d="M95.3157895,0 C91.8279194,0 89,2.93125 89,6.5453125 C89,10.1609375 95.3157895,16 95.3157895,16 C95.3157895,16 101.631579,10.1609375 101.631579,6.5453125 C101.631579,2.93125 98.8036595,0 95.3157895,0 Z M95.3157895,9.2 C93.7892681,9.2 92.5526316,7.946875 92.5526316,6.4 C92.5526316,4.853125 93.7892681,3.6 95.3157895,3.6 C96.8423109,3.6 98.0789474,4.853125 98.0789474,6.4 C98.0789474,7.946875 96.8423109,9.2 95.3157895,9.2 Z" id="形状"></path>
                </g>
            </g>
        </g>
    </g>
</svg>