<?xml version="1.0" encoding="UTF-8"?>
<svg width="16px" height="12px" viewBox="0 0 16 12" version="1.1" xmlns="http://www.w3.org/2000/svg" xmlns:xlink="http://www.w3.org/1999/xlink">
    <title>形状</title>
    <g id="事件信息、组织动态、辅助工具" stroke="none" stroke-width="1" fill="none" fill-rule="evenodd">
        <g id="1.人口热力图分析入口" transform="translate(-1551.000000, -538.000000)" fill="#56E9FF" fill-rule="nonzero">
            <g id="图标详情备份" transform="translate(1269.000000, 472.000000)">
                <g id="按钮" transform="translate(13.000000, 63.000000)">
                    <path d="M285,4.00147494 C284.985267,4.00881488 284.970918,4.01684802 284.957004,4.02554527 L283.336003,5.06844082 C278.962499,7.91063631 276.772003,9.32955045 276.764515,9.32475533 L270.142507,4.97744073 L269.000018,4.23259756 L269.000018,3.96294886 C269.000018,3.43112415 269.44774,3 270.000018,3 L283.999981,3 C284.552267,3 285,3.43113447 285,3.96296578 L285,4.00147494 L285,4.00147494 Z M285,5.15607242 L285,13.5926067 C285,14.1244314 284.552277,14.5555556 284,14.5555556 L270.000019,14.5555556 C269.734802,14.5555556 269.480446,14.4541093 269.292906,14.2735214 C269.105366,14.0929334 269,13.8480011 269,13.5926067 L269,5.39584479 L269.580007,5.77430089 L276.201506,10.1201645 C276.549809,10.3493982 277.008066,10.3509207 277.358005,10.124007 L283.896499,5.86626582 C283.943503,5.8354585 284.312995,5.59759889 285,5.15607242 Z" id="形状"></path>
                </g>
            </g>
        </g>
    </g>
</svg>