<?xml version="1.0" encoding="UTF-8"?>
<svg width="16px" height="15px" viewBox="0 0 16 15" version="1.1" xmlns="http://www.w3.org/2000/svg" xmlns:xlink="http://www.w3.org/1999/xlink">
    <title>形状</title>
    <g id="PC端" stroke="none" stroke-width="1" fill="none" fill-rule="evenodd">
        <g id="分组" transform="translate(-1008.000000, -271.000000)" fill="#999999" fill-rule="nonzero">
            <g id="编组" transform="translate(964.000000, 70.000000)">
                <path d="M58.6385557,211.321895 L58.6385557,204.991063 C59.5757682,204.649928 60.1333745,203.685762 59.9616431,202.703292 C59.7899118,201.720821 58.9382984,201.00298 57.9409362,201 C57.0160024,201 56.2426115,201.615316 55.9839436,202.45664 L48.0240265,202.45664 C47.7628289,201.592568 46.9671077,201.001082 46.0644211,201 C45.0884352,201 44.2464558,201.68499 44.0481823,202.640624 C43.8499088,203.596258 44.3498266,204.559796 45.245306,204.947952 L45.245306,211.365006 C44.3470119,211.751094 43.8444815,212.716024 44.0431135,213.673385 C44.2417455,214.630747 45.0866754,215.316108 46.0644211,215.312958 C46.9853773,215.311751 47.7926136,214.696842 48.0383969,213.809287 L55.9695731,213.809287 C56.2400393,214.804667 57.2076467,215.444341 58.2294226,215.303247 C59.2511985,215.162152 60.0092391,214.284188 59.9999149,213.252759 C59.9999149,212.360486 59.4315427,211.609304 58.6385557,211.321895 Z M46.2251087,211.210851 L46.2251087,205.10472 C47.1519843,205.034706 47.9159042,204.350126 48.0867338,203.436443 L55.923849,203.436443 C56.0852371,204.304779 56.785009,204.971905 57.6600594,205.091656 L57.6600594,211.221302 C56.8020938,211.339051 56.1101941,211.98235 55.930381,212.829485 L48.0802018,212.829485 C47.8904218,211.93754 47.1345432,211.278009 46.2251087,211.210851 Z" id="形状"></path>
            </g>
        </g>
    </g>
</svg>