<?xml version="1.0" encoding="UTF-8"?>
<svg width="17px" height="15px" viewBox="0 0 17 15" version="1.1" xmlns="http://www.w3.org/2000/svg" xmlns:xlink="http://www.w3.org/1999/xlink">
    <title>形状结合</title>
    <g id="PC端" stroke="none" stroke-width="1" fill="none" fill-rule="evenodd">
        <g id="分组" transform="translate(-1008.000000, -237.000000)" fill="#999999" fill-rule="nonzero">
            <g id="编组" transform="translate(964.000000, 70.000000)">
                <path d="M54.8867857,166.464286 C56.96,166.464286 58.115,167.563571 58.1921428,169.591786 L58.1964295,169.8125 L58.1964295,178.25 L58.1910587,178.326057 C58.9683226,178.554837 59.5357143,179.273658 59.5357143,180.125 C59.5357143,181.160534 58.6962482,182 57.6607143,182 C56.6251804,182 55.7857143,181.160534 55.7857143,180.125 C55.7857143,179.273658 56.3531059,178.554837 57.1303699,178.326057 L57.125,178.25 L57.125,169.8125 C57.125,168.232143 56.4392857,167.535714 54.8867857,167.535714 C53.3975,167.535714 52.6796429,168.180714 52.5810714,169.612143 L52.5714286,169.8125 L52.5714286,179.1875 C52.5714286,181.358214 51.3960714,182.535714 49.2275,182.535714 C47.1339286,182.535714 45.9639286,181.438571 45.8792857,179.408214 L45.8749991,179.1875 L45.8749991,170.75 L45.8803699,170.673943 C45.1031059,170.445163 44.5357143,169.726342 44.5357143,168.875 C44.5357143,167.839466 45.3751804,167 46.4107143,167 C47.4462482,167 48.2857143,167.839466 48.2857143,168.875 C48.2857143,169.726342 47.7183226,170.445163 46.9410587,170.673943 L46.9464286,170.75 L46.9464286,179.186429 C46.9507143,180.765714 47.6503571,181.464286 49.2275,181.464286 C50.7382143,181.464286 51.44,180.823571 51.4967857,179.380357 L51.5,179.1875 L51.5,169.7975 C51.56,167.634286 52.7460714,166.464286 54.8867857,166.464286 Z" id="形状结合" transform="translate(52.035714, 174.500000) rotate(-90.000000) translate(-52.035714, -174.500000) "></path>
            </g>
        </g>
    </g>
</svg>