<?xml version="1.0" encoding="UTF-8"?>
<svg width="14px" height="15px" viewBox="0 0 14 15" version="1.1" xmlns="http://www.w3.org/2000/svg" xmlns:xlink="http://www.w3.org/1999/xlink">
    <title>形状结合</title>
    <g id="PC端" stroke="none" stroke-width="1" fill="none" fill-rule="evenodd">
        <g id="切图" transform="translate(-46.000000, -26.000000)" fill="#9FC8FE" fill-rule="nonzero">
            <path d="M57.5011714,30 C57.7777093,30.0009186 58.0008687,30.2371176 58,30.5286757 L58,30.5286757 L58,38.4358149 C58,39.3086522 57.3287767,40.0181678 56.5017924,40.0181678 L56.5017924,40.0181678 L49.5008343,40.0181678 C48.67385,40.0181678 48,39.3086522 48,38.4358149 L48,38.4358149 L48,30.5203759 C48,30.3792142 48.053394,30.2491243 48.1461489,30.1503964 C48.2406618,30.0525871 48.3675503,30 48.5005685,30 L48.5005685,30 Z M54.500776,32 C54.2236412,32 54,32.2052318 54,32.4605507 L54,32.4605507 L54,37.5402681 C54,37.7955869 54.2236412,38 54.500776,38 C54.7761646,38 55.0006789,37.7955869 55.0006789,37.5402681 L55.0006633,37.5402681 L55.0006633,32.4605507 C55.0006633,32.2060362 54.7770377,32 54.500776,32 Z M51.500776,32 C51.2236412,32 51,32.2052318 51,32.4605507 L51,32.4605507 L51,37.5402681 C51,37.7955869 51.2236412,38 51.500776,38 C51.7761646,38 52.0006789,37.7955869 52.0006789,37.5402681 L52.0006633,37.5402681 L52.0006633,32.4605507 C52.0006633,32.2060362 51.7770377,32 51.500776,32 Z M55.3381713,26 C56.1609686,26 56.5046645,26.3554689 56.5055369,27.0636452 L56.5055369,27.0636452 L56.5055369,27.9924191 L59.5098399,27.9924191 C59.8366133,28.0941262 60,28.2592667 60,28.4878406 C60,28.8307014 59.7849884,29 59.5089675,29 L59.5089675,29 L46.4914811,29 C46.2154602,29 46,28.7248996 46,28.4878406 C46,28.2515284 46.2145879,27.9924191 46.4914811,27.9924191 L46.4914811,27.9924191 L49.4988547,27.9924191 L49.4988547,27.0636452 C49.4988547,26.3554689 49.9106731,26 50.7387202,26 L50.7387202,26 Z" id="形状结合"></path>
        </g>
    </g>
</svg>