<?xml version="1.0" encoding="UTF-8"?>
<svg width="14px" height="15px" viewBox="0 0 14 15" version="1.1" xmlns="http://www.w3.org/2000/svg" xmlns:xlink="http://www.w3.org/1999/xlink">
    <title>形状结合</title>
    <g id="PC端" stroke="none" stroke-width="1" fill="none" fill-rule="evenodd">
        <g id="切图" transform="translate(-46.000000, -56.000000)" fill="#0091FF" fill-rule="nonzero">
            <path d="M57.5011714,60 C57.7777093,60.0009186 58.0008687,60.2371176 58,60.5286757 L58,60.5286757 L58,68.4358149 C58,69.3086522 57.3287767,70.0181678 56.5017924,70.0181678 L56.5017924,70.0181678 L49.5008343,70.0181678 C48.67385,70.0181678 48,69.3086522 48,68.4358149 L48,68.4358149 L48,60.5203759 C48,60.3792142 48.053394,60.2491243 48.1461489,60.1503964 C48.2406618,60.0525871 48.3675503,60 48.5005685,60 L48.5005685,60 Z M54.500776,62 C54.2236412,62 54,62.2052318 54,62.4605507 L54,62.4605507 L54,67.5402681 C54,67.7955869 54.2236412,68 54.500776,68 C54.7761646,68 55.0006789,67.7955869 55.0006789,67.5402681 L55.0006633,67.5402681 L55.0006633,62.4605507 C55.0006633,62.2060362 54.7770377,62 54.500776,62 Z M51.500776,62 C51.2236412,62 51,62.2052318 51,62.4605507 L51,62.4605507 L51,67.5402681 C51,67.7955869 51.2236412,68 51.500776,68 C51.7761646,68 52.0006789,67.7955869 52.0006789,67.5402681 L52.0006633,67.5402681 L52.0006633,62.4605507 C52.0006633,62.2060362 51.7770377,62 51.500776,62 Z M55.3381713,56 C56.1609686,56 56.5046645,56.3554689 56.5055369,57.0636452 L56.5055369,57.0636452 L56.5055369,57.9924191 L59.5098399,57.9924191 C59.8366133,58.0941262 60,58.2592667 60,58.4878406 C60,58.8307014 59.7849884,59 59.5089675,59 L59.5089675,59 L46.4914811,59 C46.2154602,59 46,58.7248996 46,58.4878406 C46,58.2515284 46.2145879,57.9924191 46.4914811,57.9924191 L46.4914811,57.9924191 L49.4988547,57.9924191 L49.4988547,57.0636452 C49.4988547,56.3554689 49.9106731,56 50.7387202,56 L50.7387202,56 Z" id="形状结合"></path>
        </g>
    </g>
</svg>