<?xml version="1.0" encoding="UTF-8"?>
<svg width="13px" height="14px" viewBox="0 0 13 14" version="1.1" xmlns="http://www.w3.org/2000/svg" xmlns:xlink="http://www.w3.org/1999/xlink">
    <title>形状</title>
    <g id="PC端" stroke="none" stroke-width="1" fill="none" fill-rule="evenodd">
        <g id="切图" transform="translate(-102.000000, -55.000000)" fill="#0091FF" fill-rule="nonzero">
            <path d="M110.809889,66.3283333 C111.651769,65.1755973 111.460262,63.5683347 110.371098,62.6456843 C109.281934,61.7230339 107.665057,61.7983825 106.66642,62.8183272 C105.667784,63.8382719 105.626583,65.4563789 106.57202,66.5258236 C107.517457,67.5952684 109.128404,67.7528039 110.263111,66.8867778 L111.289,67.7166667 C111.396954,67.8041967 111.543404,67.8274852 111.673184,67.7777596 C111.802964,67.7280339 111.896358,67.6128486 111.918184,67.4755929 C111.94001,67.3383372 111.886954,67.1998634 111.779,67.1123333 L110.809889,66.3283333 Z M104.333333,55 L112.111096,55 C113.39976,55 114.444429,56.0446689 114.444429,57.3333333 L114.444429,66.6666667 C114.444429,67.9553311 113.39976,69 112.111096,69 L104.333333,69 C103.044669,69 102,67.9553311 102,66.6666667 L102,57.3333333 C102,56.0446689 103.044669,55 104.333333,55 Z M108.611096,66.6666667 C107.537209,66.6666667 106.666651,65.7961092 106.666651,64.7222222 C106.666651,63.6483352 107.537209,62.7777778 108.611096,62.7777778 C109.684983,62.7777778 110.55554,63.6483352 110.55554,64.7222222 C110.55554,65.7961092 109.684983,66.6666667 108.611096,66.6666667 Z M104.722222,57.3333333 C104.507445,57.3333333 104.333333,57.5074448 104.333333,57.7222222 C104.333333,57.9369996 104.507445,58.1111111 104.722222,58.1111111 L111.722222,58.1111111 C111.937,58.1111111 112.111111,57.9369996 112.111111,57.7222222 C112.111111,57.5074448 111.937,57.3333333 111.722222,57.3333333 L104.722222,57.3333333 Z M104.722222,60.4444444 C104.507445,60.4444444 104.333333,60.6185559 104.333333,60.8333333 C104.333333,61.0481107 104.507445,61.2222222 104.722222,61.2222222 L111.722222,61.2222222 C111.937,61.2222222 112.111111,61.0481107 112.111111,60.8333333 C112.111111,60.6185559 111.937,60.4444444 111.722222,60.4444444 L104.722222,60.4444444 Z" id="形状"></path>
        </g>
    </g>
</svg>