<?xml version="1.0" encoding="UTF-8"?>
<svg width="13px" height="14px" viewBox="0 0 13 14" version="1.1" xmlns="http://www.w3.org/2000/svg" xmlns:xlink="http://www.w3.org/1999/xlink">
    <title>形状</title>
    <g id="PC端" stroke="none" stroke-width="1" fill="none" fill-rule="evenodd">
        <g id="切图" transform="translate(-102.000000, -25.000000)" fill="#9FC8FE" fill-rule="nonzero">
            <path d="M110.809889,36.3283333 C111.651769,35.1755973 111.460262,33.5683347 110.371098,32.6456843 C109.281934,31.7230339 107.665057,31.7983825 106.66642,32.8183272 C105.667784,33.8382719 105.626583,35.4563789 106.57202,36.5258236 C107.517457,37.5952684 109.128404,37.7528039 110.263111,36.8867778 L111.289,37.7166667 C111.396954,37.8041967 111.543404,37.8274852 111.673184,37.7777596 C111.802964,37.7280339 111.896358,37.6128486 111.918184,37.4755929 C111.94001,37.3383372 111.886954,37.1998634 111.779,37.1123333 L110.809889,36.3283333 Z M104.333333,25 L112.111096,25 C113.39976,25 114.444429,26.0446689 114.444429,27.3333333 L114.444429,36.6666667 C114.444429,37.9553311 113.39976,39 112.111096,39 L104.333333,39 C103.044669,39 102,37.9553311 102,36.6666667 L102,27.3333333 C102,26.0446689 103.044669,25 104.333333,25 Z M108.611096,36.6666667 C107.537209,36.6666667 106.666651,35.7961092 106.666651,34.7222222 C106.666651,33.6483352 107.537209,32.7777778 108.611096,32.7777778 C109.684983,32.7777778 110.55554,33.6483352 110.55554,34.7222222 C110.55554,35.7961092 109.684983,36.6666667 108.611096,36.6666667 Z M104.722222,27.3333333 C104.507445,27.3333333 104.333333,27.5074448 104.333333,27.7222222 C104.333333,27.9369996 104.507445,28.1111111 104.722222,28.1111111 L111.722222,28.1111111 C111.937,28.1111111 112.111111,27.9369996 112.111111,27.7222222 C112.111111,27.5074448 111.937,27.3333333 111.722222,27.3333333 L104.722222,27.3333333 Z M104.722222,30.4444444 C104.507445,30.4444444 104.333333,30.6185559 104.333333,30.8333333 C104.333333,31.0481107 104.507445,31.2222222 104.722222,31.2222222 L111.722222,31.2222222 C111.937,31.2222222 112.111111,31.0481107 112.111111,30.8333333 C112.111111,30.6185559 111.937,30.4444444 111.722222,30.4444444 L104.722222,30.4444444 Z" id="形状"></path>
        </g>
    </g>
</svg>