<?xml version="1.0" encoding="UTF-8"?>
<svg width="17px" height="12px" viewBox="0 0 17 12" version="1.1" xmlns="http://www.w3.org/2000/svg" xmlns:xlink="http://www.w3.org/1999/xlink">
    <title>查看备份</title>
    <g id="PC端" stroke="none" stroke-width="1" fill="none" fill-rule="evenodd">
        <g id="分组" transform="translate(-1332.000000, -237.000000)" fill="#0091FF" fill-rule="nonzero">
            <g id="编组" transform="translate(964.000000, 70.000000)">
                <path d="M376.5,167 C370.01875,167 368,173 368,173 C368,173 370.23125,179 376.5,179 C382.76875,179 385,173 385,173 C385,173 382.98125,167 376.5,167 Z M376.5,170.176471 C378.058333,170.176471 379.333333,171.447059 379.333333,173 C379.333333,174.552941 378.058333,175.823529 376.5,175.823529 C374.941667,175.823529 373.666667,174.552941 373.666667,173 C373.666667,171.447059 374.941667,170.176471 376.5,170.176471 Z M376.5,170.882353 C375.326395,170.882353 374.375,171.830456 374.375,173 C374.375,174.169544 375.326395,175.117647 376.5,175.117647 C377.673605,175.117647 378.625,174.169544 378.625,173 C378.625,171.830456 377.673605,170.882353 376.5,170.882353 Z" id="查看备份"></path>
            </g>
        </g>
    </g>
</svg>