<?xml version="1.0" encoding="UTF-8"?>
<svg width="17px" height="12px" viewBox="0 0 17 12" version="1.1" xmlns="http://www.w3.org/2000/svg" xmlns:xlink="http://www.w3.org/1999/xlink">
    <title>查看</title>
    <g id="PC端" stroke="none" stroke-width="1" fill="none" fill-rule="evenodd">
        <g id="分组" transform="translate(-1332.000000, -170.000000)" fill="#9FC8FE" fill-rule="nonzero">
            <g id="编组" transform="translate(964.000000, 70.000000)">
                <g id="下拉-copy-2" transform="translate(24.000000, 88.000000)">
                    <path d="M352.5,12 C346.01875,12 344,18 344,18 C344,18 346.23125,24 352.5,24 C358.76875,24 361,18 361,18 C361,18 358.98125,12 352.5,12 Z M352.5,15.1764706 C354.058333,15.1764706 355.333333,16.4470588 355.333333,18 C355.333333,19.5529412 354.058333,20.8235294 352.5,20.8235294 C350.941667,20.8235294 349.666667,19.5529412 349.666667,18 C349.666667,16.4470588 350.941667,15.1764706 352.5,15.1764706 Z M352.5,15.8823529 C351.326395,15.8823529 350.375,16.8304558 350.375,18 C350.375,19.1695442 351.326395,20.1176471 352.5,20.1176471 C353.673605,20.1176471 354.625,19.1695442 354.625,18 C354.625,16.8304558 353.673605,15.8823529 352.5,15.8823529 Z" id="查看"></path>
                </g>
            </g>
        </g>
    </g>
</svg>