<?xml version="1.0" encoding="UTF-8"?>
<svg width="17px" height="12px" viewBox="0 0 17 12" version="1.1" xmlns="http://www.w3.org/2000/svg" xmlns:xlink="http://www.w3.org/1999/xlink">
    <title>查看</title>
    <g id="PC端" stroke="none" stroke-width="1" fill="none" fill-rule="evenodd">
        <g id="切图" transform="translate(-71.000000, -57.000000)" fill="#0091FF" fill-rule="nonzero">
            <path d="M79.5,57 C73.01875,57 71,63 71,63 C71,63 73.23125,69 79.5,69 C85.76875,69 88,63 88,63 C88,63 85.98125,57 79.5,57 Z M79.5,60.1764706 C81.0583333,60.1764706 82.3333333,61.4470588 82.3333333,63 C82.3333333,64.5529412 81.0583333,65.8235294 79.5,65.8235294 C77.9416667,65.8235294 76.6666667,64.5529412 76.6666667,63 C76.6666667,61.4470588 77.9416667,60.1764706 79.5,60.1764706 Z M79.5,60.8823529 C78.3263949,60.8823529 77.375,61.8304558 77.375,63 C77.375,64.1695442 78.3263949,65.1176471 79.5,65.1176471 C80.6736051,65.1176471 81.625,64.1695442 81.625,63 C81.625,61.8304558 80.6736051,60.8823529 79.5,60.8823529 Z" id="查看"></path>
        </g>
    </g>
</svg>