<?xml version="1.0" encoding="UTF-8"?>
<svg width="16px" height="16px" viewBox="0 0 16 16" version="1.1" xmlns="http://www.w3.org/2000/svg" xmlns:xlink="http://www.w3.org/1999/xlink">
    <title>形状</title>
    <g id="页面-1" stroke="none" stroke-width="1" fill="none" fill-rule="evenodd">
        <g id="通讯录-暂无单位" transform="translate(-1348.000000, -644.000000)" fill="#FFFFFF" fill-rule="nonzero">
            <g id="弹窗" transform="translate(554.000000, 142.000000)">
                <g id="编组-6备份-2" transform="translate(471.000000, 68.000000)">
                    <g id="编组-7" transform="translate(323.000000, 432.000000)">
                        <path d="M4,8.375 C4,8.84838693 4.38375593,9.23214286 4.85714286,9.23214286 C5.33052979,9.23214286 5.71428571,8.84838693 5.71428571,8.375 C5.71428571,7.90161307 5.33052979,7.51785714 4.85714286,7.51785714 C4.38375593,7.51785714 4,7.90161307 4,8.375 L4,8.375 Z M10.2857143,8.375 C10.2857143,8.84838693 10.6694702,9.23214286 11.1428571,9.23214286 C11.6162441,9.23214286 12,8.84838693 12,8.375 C12,7.90161307 11.6162441,7.51785714 11.1428571,7.51785714 C10.6694702,7.51785714 10.2857143,7.90161307 10.2857143,8.375 L10.2857143,8.375 Z M8,2 C3.58214286,2 0,5.58214286 0,10 C0,14.4178571 3.58214286,18 8,18 C12.4178571,18 16,14.4178571 16,10 C16,5.58214286 12.4178571,2 8,2 Z M12.6964286,14.6964286 C12.0857143,15.3071429 11.375,15.7857143 10.5839286,16.1214286 C9.76785714,16.4678571 8.89821429,16.6428571 8,16.6428571 C7.10178571,16.6428571 6.23214286,16.4678571 5.41428571,16.1214286 C4.62321429,15.7875 3.9125,15.3071429 3.30178571,14.6964286 C2.69107143,14.0857143 2.2125,13.375 1.87678571,12.5839286 C1.53214286,11.7678571 1.35714286,10.8982143 1.35714286,10 C1.35714286,9.10178571 1.53214286,8.23214286 1.87857143,7.41428571 C2.2125,6.62321429 2.69285714,5.9125 3.30357143,5.30178571 C3.91428571,4.69107143 4.625,4.2125 5.41607143,3.87678571 C6.23214286,3.53214286 7.10178571,3.35714286 8,3.35714286 C8.89821429,3.35714286 9.76785714,3.53214286 10.5857143,3.87857143 C11.3767857,4.2125 12.0875,4.69285714 12.6982143,5.30357143 C13.3089286,5.91428571 13.7875,6.625 14.1232143,7.41607143 C14.4678571,8.23214286 14.6428571,9.10178571 14.6428571,10 C14.6428571,10.8982143 14.4678571,11.7678571 14.1214286,12.5857143 C13.7875,13.3767857 13.3071429,14.0875 12.6964286,14.6964286 Z M10.7142857,10.375 L9.85535714,10.375 C9.78035714,10.375 9.71607143,10.4321429 9.71071429,10.5071429 C9.64285714,11.3910714 8.90178571,12.0892857 8,12.0892857 C7.09821429,12.0892857 6.35535714,11.3910714 6.28928571,10.5071429 C6.28392857,10.4321429 6.21964286,10.375 6.14464286,10.375 L5.28571429,10.375 C5.20357143,10.375 5.13928571,10.4428571 5.14285714,10.525 C5.22142857,12.0303571 6.47321429,13.2321429 8,13.2321429 C9.52678571,13.2321429 10.7785714,12.0303571 10.8571429,10.525 C10.8607143,10.4428571 10.7964286,10.375 10.7142857,10.375 Z" id="形状"></path>
                    </g>
                </g>
            </g>
        </g>
    </g>
</svg>