<?xml version="1.0" encoding="UTF-8"?>
<svg width="14px" height="14px" viewBox="0 0 14 14" version="1.1" xmlns="http://www.w3.org/2000/svg" xmlns:xlink="http://www.w3.org/1999/xlink">
    <title>形状</title>
    <g id="页面-1" stroke="none" stroke-width="1" fill="none" fill-rule="evenodd">
        <g id="点击联系人详情" transform="translate(-654.000000, -341.000000)" fill="#FFFFFF" fill-rule="nonzero">
            <g id="弹窗" transform="translate(554.000000, 142.000000)">
                <g id="编组-3" transform="translate(100.000000, 195.000000)">
                    <path d="M7,4 C3.13400391,4 0,7.13403125 0,11 C0,14.8659961 3.13400391,18 7,18 C10.8659961,18 14,14.8659961 14,11 C14,7.13403125 10.8659961,4 7,4 Z M7,16.9005352 C3.74122656,16.9005352 1.09946484,14.2587598 1.09946484,11 C1.09946484,7.74122656 3.74122656,5.09946484 7,5.09946484 C10.2587734,5.09946484 12.9005352,7.74122656 12.9005352,11 C12.9005352,14.2587598 10.2587734,16.9005352 7,16.9005352 Z M7.53060547,10.8525215 L7.53060547,6.47597656 L6.43583008,6.47597656 L6.43583008,11.9519863 L11.2282324,11.9519863 L11.2282324,10.8571973 L7.53060547,10.8571973 L7.53060547,10.8525215 Z" id="形状"></path>
                </g>
            </g>
        </g>
    </g>
</svg>