<?xml version="1.0" encoding="UTF-8"?>
<svg width="30px" height="24px" viewBox="0 0 30 24" version="1.1" xmlns="http://www.w3.org/2000/svg" xmlns:xlink="http://www.w3.org/1999/xlink">
    <title>形状备份 2</title>
    <g id="页面-1" stroke="none" stroke-width="1" fill="none" fill-rule="evenodd">
        <g id="切图整合" transform="translate(-43.000000, -89.000000)" fill="#56E9FF" fill-rule="nonzero">
            <path d="M71.5489505,89 L63.9887654,89 C62.3663656,89 60.7803128,89.465903 59.4156465,90.3448406 L57.8031595,91.3790792 L56.1906725,90.3448406 C54.8293105,89.465903 53.2399534,89 51.6175536,89 L44.0573685,89 C43.4725116,89 43,89.4725116 43,90.0573685 L43,108.82566 C43,109.410517 43.4725116,109.883029 44.0573685,109.883029 L51.6175536,109.883029 C53.2399534,109.883029 54.8260062,110.348932 56.1906725,111.227869 L57.6577713,112.172892 C57.7007269,112.199327 57.7502911,112.215848 57.7998552,112.215848 C57.8494194,112.215848 57.8989835,112.202631 57.9419391,112.172892 L59.409038,111.227869 C60.7770085,110.348932 62.3663656,109.883029 63.9887654,109.883029 L71.5489505,109.883029 C72.1338074,109.883029 72.606319,109.410517 72.606319,108.82566 L72.606319,90.0573685 C72.606319,89.4725116 72.1338074,89 71.5489505,89 Z M51.6175536,107.503949 L45.3790792,107.503949 L45.3790792,91.3790792 L51.6175536,91.3790792 C52.7872675,91.3790792 53.9239387,91.7128111 54.9053089,92.343928 L56.5177959,93.3781666 L56.745791,93.526859 L56.745791,108.792617 C55.1729553,107.946722 53.4150801,107.503949 51.6175536,107.503949 Z M70.2272398,107.503949 L63.9887654,107.503949 C62.1912389,107.503949 60.4333637,107.946722 58.860528,108.792617 L58.860528,93.526859 L59.0885231,93.3781666 L60.7010101,92.343928 C61.6823803,91.7128111 62.8190515,91.3790792 63.9887654,91.3790792 L70.2272398,91.3790792 L70.2272398,107.503949 Z M53.999937,95.6085533 L47.860591,95.6085533 C47.7317242,95.6085533 47.6259873,95.7208988 47.6259873,95.8563741 L47.6259873,97.3432986 C47.6259873,97.4787739 47.7317242,97.5911194 47.860591,97.5911194 L53.9966328,97.5911194 C54.1254996,97.5911194 54.2312364,97.4787739 54.2312364,97.3432986 L54.2312364,95.8563741 C54.2345407,95.7208988 54.1288038,95.6085533 53.999937,95.6085533 Z M61.3717783,95.8563741 L61.3717783,97.3432986 C61.3717783,97.4787739 61.4775152,97.5911194 61.606382,97.5911194 L67.7424237,97.5911194 C67.8712905,97.5911194 67.9770274,97.4787739 67.9770274,97.3432986 L67.9770274,95.8563741 C67.9770274,95.7208988 67.8712905,95.6085533 67.7424237,95.6085533 L61.606382,95.6085533 C61.4775152,95.6085533 61.3717783,95.7208988 61.3717783,95.8563741 L61.3717783,95.8563741 Z M53.999937,100.234541 L47.860591,100.234541 C47.7317242,100.234541 47.6259873,100.346886 47.6259873,100.482361 L47.6259873,101.969286 C47.6259873,102.104761 47.7317242,102.217107 47.860591,102.217107 L53.9966328,102.217107 C54.1254996,102.217107 54.2312364,102.104761 54.2312364,101.969286 L54.2312364,100.482361 C54.2345407,100.346886 54.1288038,100.234541 53.999937,100.234541 Z M67.745728,100.234541 L61.606382,100.234541 C61.4775152,100.234541 61.3717783,100.346886 61.3717783,100.482361 L61.3717783,101.969286 C61.3717783,102.104761 61.4775152,102.217107 61.606382,102.217107 L67.7424237,102.217107 C67.8712905,102.217107 67.9770274,102.104761 67.9770274,101.969286 L67.9770274,100.482361 C67.9803317,100.346886 67.8745948,100.234541 67.745728,100.234541 Z" id="形状备份-2"></path>
        </g>
    </g>
</svg>