<?xml version="1.0" encoding="UTF-8"?>
<svg width="30px" height="24px" viewBox="0 0 30 24" version="1.1" xmlns="http://www.w3.org/2000/svg" xmlns:xlink="http://www.w3.org/1999/xlink">
    <title>形状</title>
    <g id="页面-1" stroke="none" stroke-width="1" fill="none" fill-rule="evenodd">
        <g id="切图整合" transform="translate(-43.000000, -29.000000)" fill="#FFFFFF" fill-rule="nonzero">
            <path d="M71.5489505,29 L63.9887654,29 C62.3663656,29 60.7803128,29.465903 59.4156465,30.3448406 L57.8031595,31.3790792 L56.1906725,30.3448406 C54.8293105,29.465903 53.2399534,29 51.6175536,29 L44.0573685,29 C43.4725116,29 43,29.4725116 43,30.0573685 L43,48.82566 C43,49.410517 43.4725116,49.8830286 44.0573685,49.8830286 L51.6175536,49.8830286 C53.2399534,49.8830286 54.8260062,50.3489316 56.1906725,51.2278692 L57.6577713,52.1728923 C57.7007269,52.1993265 57.7502911,52.2158479 57.7998552,52.2158479 C57.8494194,52.2158479 57.8989835,52.2026308 57.9419391,52.1728923 L59.409038,51.2278692 C60.7770085,50.3489316 62.3663656,49.8830286 63.9887654,49.8830286 L71.5489505,49.8830286 C72.1338074,49.8830286 72.606319,49.410517 72.606319,48.82566 L72.606319,30.0573685 C72.606319,29.4725116 72.1338074,29 71.5489505,29 Z M51.6175536,47.5039494 L45.3790792,47.5039494 L45.3790792,31.3790792 L51.6175536,31.3790792 C52.7872675,31.3790792 53.9239387,31.7128111 54.9053089,32.343928 L56.5177959,33.3781666 L56.745791,33.526859 L56.745791,48.7926173 C55.1729553,47.9467224 53.4150801,47.5039494 51.6175536,47.5039494 Z M70.2272398,47.5039494 L63.9887654,47.5039494 C62.1912389,47.5039494 60.4333637,47.9467224 58.860528,48.7926173 L58.860528,33.526859 L59.0885231,33.3781666 L60.7010101,32.343928 C61.6823803,31.7128111 62.8190515,31.3790792 63.9887654,31.3790792 L70.2272398,31.3790792 L70.2272398,47.5039494 Z M53.999937,35.6085533 L47.860591,35.6085533 C47.7317242,35.6085533 47.6259873,35.7208988 47.6259873,35.8563741 L47.6259873,37.3432986 C47.6259873,37.4787739 47.7317242,37.5911194 47.860591,37.5911194 L53.9966328,37.5911194 C54.1254996,37.5911194 54.2312364,37.4787739 54.2312364,37.3432986 L54.2312364,35.8563741 C54.2345407,35.7208988 54.1288038,35.6085533 53.999937,35.6085533 Z M61.3717783,35.8563741 L61.3717783,37.3432986 C61.3717783,37.4787739 61.4775152,37.5911194 61.606382,37.5911194 L67.7424237,37.5911194 C67.8712905,37.5911194 67.9770274,37.4787739 67.9770274,37.3432986 L67.9770274,35.8563741 C67.9770274,35.7208988 67.8712905,35.6085533 67.7424237,35.6085533 L61.606382,35.6085533 C61.4775152,35.6085533 61.3717783,35.7208988 61.3717783,35.8563741 L61.3717783,35.8563741 Z M53.999937,40.2345407 L47.860591,40.2345407 C47.7317242,40.2345407 47.6259873,40.3468861 47.6259873,40.4823614 L47.6259873,41.9692859 C47.6259873,42.1047613 47.7317242,42.2171067 47.860591,42.2171067 L53.9966328,42.2171067 C54.1254996,42.2171067 54.2312364,42.1047613 54.2312364,41.9692859 L54.2312364,40.4823614 C54.2345407,40.3468861 54.1288038,40.2345407 53.999937,40.2345407 Z M67.745728,40.2345407 L61.606382,40.2345407 C61.4775152,40.2345407 61.3717783,40.3468861 61.3717783,40.4823614 L61.3717783,41.9692859 C61.3717783,42.1047613 61.4775152,42.2171067 61.606382,42.2171067 L67.7424237,42.2171067 C67.8712905,42.2171067 67.9770274,42.1047613 67.9770274,41.9692859 L67.9770274,40.4823614 C67.9803317,40.3468861 67.8745948,40.2345407 67.745728,40.2345407 Z" id="形状"></path>
        </g>
    </g>
</svg>