<?xml version="1.0" encoding="UTF-8"?>
<svg width="26px" height="24px" viewBox="0 0 26 24" version="1.1" xmlns="http://www.w3.org/2000/svg" xmlns:xlink="http://www.w3.org/1999/xlink">
    <title>形状结合备份</title>
    <g id="页面-1" stroke="none" stroke-width="1" fill="none" fill-rule="evenodd">
        <g id="切图整合" transform="translate(-107.000000, -90.000000)" fill="#56E9FF" fill-rule="nonzero">
            <path d="M128.364055,90 C130.764065,90 132.725356,92.0387091 132.725356,94.5677409 L132.725356,94.5677409 L132.725356,109.432259 C132.725356,111.961289 130.764065,114 128.364055,114 L128.364055,114 L124.880192,114 C124.389869,114 124.002771,113.612902 124.002771,113.148386 C124.002771,112.68387 124.389869,112.296773 124.880192,112.296773 L124.880182,112.296777 L128.364046,112.296777 C129.809205,112.296777 130.970496,111.006455 130.970496,109.432259 L130.970496,109.432259 L130.970496,94.5677409 C130.970496,92.9935453 129.809207,91.7032226 128.364046,91.7032226 L128.364046,91.7032226 L112.673718,91.7032226 C111.228559,91.7032226 110.067268,92.9935453 110.067268,94.5677409 L110.067268,94.5677409 L110.067268,95.9870954 C110.067268,96.4516113 109.680171,96.8387091 109.189848,96.8387091 C108.699525,96.8387091 108.312427,96.4516113 108.312427,95.9870954 L108.312427,95.9870954 L108.312427,94.5677409 C108.312427,92.0387114 110.273718,90 112.673728,90 L112.673728,90 Z M114.815709,95.1612673 C117.706034,95.1612673 120.054423,97.4580447 120.054423,100.296749 C120.054423,102.025786 119.202809,103.548367 117.88668,104.477399 C119.735726,105.3848 121.24402,107.019158 122.04985,108.770073 L123.951172,102.078959 C124.002785,101.769282 124.467301,101.614444 124.751172,101.614444 C125.13827,101.666056 125.318915,102.027348 125.318915,102.259605 L122.680432,111.546865 C122.67011,111.630459 122.647231,111.710613 122.613599,111.785357 L122.583419,111.885409 C122.531806,112.066055 122.247935,112.349925 121.964065,112.349925 L121.783419,112.349925 L121.783419,112.324118 C121.720614,112.315744 121.663244,112.299219 121.611199,112.276525 C121.219444,112.188426 120.931834,111.845548 120.931834,111.44515 C120.931834,109.070978 118.196338,105.432254 114.841497,105.432254 C111.486656,105.432254 108.75116,109.070954 108.75116,111.44515 C108.75116,111.909665 108.364062,112.296763 107.873739,112.296763 C107.383417,112.296763 106.996319,111.909665 106.996319,111.44515 C106.996319,108.8387 109.009214,105.819352 111.796314,104.451609 L111.796314,104.451609 C110.480223,103.522568 109.602802,101.999976 109.576995,100.296749 C109.576995,97.4580423 111.925377,95.1612673 114.815709,95.1612673 Z M114.841483,96.8645088 C112.931815,96.8645088 111.357619,98.4128951 111.357619,100.296768 C111.357619,102.180638 112.905999,103.729027 114.841483,103.729027 C116.776957,103.729027 118.325346,102.180641 118.325346,100.296768 C118.325346,98.4128975 116.75116,96.8645088 114.841483,96.8645088 Z M128.493096,98.0531502 C128.880194,98.0531502 129.215678,98.4144411 129.215678,98.8531502 C129.215678,99.2918593 128.906001,99.6531502 128.493096,99.6531502 L124.647933,99.6531502 C124.260835,99.6531502 123.925351,99.2918593 123.925351,98.8531502 C123.925351,98.4144411 124.235028,98.0531502 124.647933,98.0531502 L128.493096,98.0531502 Z M128.493096,94.2595907 C128.880194,94.2595907 129.215678,94.6208816 129.215678,95.0595907 C129.215678,95.4982998 128.906001,95.8595907 128.493096,95.8595907 L120.828583,95.8595907 C120.441485,95.8595907 120.106001,95.4982998 120.106001,95.0595907 C120.106001,94.6208816 120.415678,94.2595907 120.828583,94.2595907 L128.493096,94.2595907 Z" id="形状结合备份"></path>
        </g>
    </g>
</svg>