<?xml version="1.0" encoding="UTF-8"?>
<svg width="26px" height="24px" viewBox="0 0 26 24" version="1.1" xmlns="http://www.w3.org/2000/svg" xmlns:xlink="http://www.w3.org/1999/xlink">
    <title>形状结合</title>
    <g id="页面-1" stroke="none" stroke-width="1" fill="none" fill-rule="evenodd">
        <g id="切图整合" transform="translate(-107.000000, -30.000000)" fill="#FFFFFF" fill-rule="nonzero">
            <path d="M128.364055,30 C130.764065,30 132.725356,32.0387091 132.725356,34.5677409 L132.725356,34.5677409 L132.725356,49.4322591 C132.725356,51.9612886 130.764065,54 128.364055,54 L128.364055,54 L124.880192,54 C124.389869,54 124.002771,53.6129022 124.002771,53.1483863 C124.002771,52.6838704 124.389869,52.2967727 124.880192,52.2967727 L124.880182,52.2967774 L128.364046,52.2967774 C129.809205,52.2967774 130.970496,51.0064547 130.970496,49.4322591 L130.970496,49.4322591 L130.970496,34.5677409 C130.970496,32.9935453 129.809207,31.7032226 128.364046,31.7032226 L128.364046,31.7032226 L112.673718,31.7032226 C111.228559,31.7032226 110.067268,32.9935453 110.067268,34.5677409 L110.067268,34.5677409 L110.067268,35.9870954 C110.067268,36.4516113 109.680171,36.8387091 109.189848,36.8387091 C108.699525,36.8387091 108.312427,36.4516113 108.312427,35.9870954 L108.312427,35.9870954 L108.312427,34.5677409 C108.312427,32.0387114 110.273718,30 112.673728,30 L112.673728,30 Z M114.815709,35.1612673 C117.706034,35.1612673 120.054423,37.4580447 120.054423,40.296749 C120.054423,42.0257856 119.202809,43.5483674 117.88668,44.4773992 C119.735726,45.3847998 121.24402,47.0191584 122.04985,48.7700726 L123.951172,42.0789594 C124.002785,41.7692821 124.467301,41.6144435 124.751172,41.6144435 C125.13827,41.6660565 125.318915,42.0273481 125.318915,42.2596049 L122.680432,51.5468648 C122.67011,51.6304595 122.647231,51.7106127 122.613599,51.7853571 L122.583419,51.8854093 C122.531806,52.0660546 122.247935,52.3499252 121.964065,52.3499252 L121.783419,52.3499252 L121.783419,52.3241184 C121.720614,52.3157445 121.663244,52.2992187 121.611199,52.2765251 C121.219444,52.1884259 120.931834,51.8455482 120.931834,51.4451495 C120.931834,49.0709777 118.196338,45.4322544 114.841497,45.4322544 C111.486656,45.4322544 108.75116,49.070954 108.75116,51.4451495 C108.75116,51.9096654 108.364062,52.2967632 107.873739,52.2967632 C107.383417,52.2967632 106.996319,51.9096654 106.996319,51.4451495 C106.996319,48.8386996 109.009214,45.8193522 111.796314,44.4516089 L111.796314,44.4516089 C110.480223,43.5225677 109.602802,41.9999764 109.576995,40.296749 C109.576995,37.4580423 111.925377,35.1612673 114.815709,35.1612673 Z M114.841483,36.8645088 C112.931815,36.8645088 111.357619,38.4128951 111.357619,40.2967679 C111.357619,42.1806384 112.905999,43.7290271 114.841483,43.7290271 C116.776957,43.7290271 118.325346,42.1806407 118.325346,40.2967679 C118.325346,38.4128975 116.75116,36.8645088 114.841483,36.8645088 Z M128.493096,38.0531502 C128.880194,38.0531502 129.215678,38.4144411 129.215678,38.8531502 C129.215678,39.2918593 128.906001,39.6531502 128.493096,39.6531502 L124.647933,39.6531502 C124.260835,39.6531502 123.925351,39.2918593 123.925351,38.8531502 C123.925351,38.4144411 124.235028,38.0531502 124.647933,38.0531502 L128.493096,38.0531502 Z M128.493096,34.2595907 C128.880194,34.2595907 129.215678,34.6208816 129.215678,35.0595907 C129.215678,35.4982998 128.906001,35.8595907 128.493096,35.8595907 L120.828583,35.8595907 C120.441485,35.8595907 120.106001,35.4982998 120.106001,35.0595907 C120.106001,34.6208816 120.415678,34.2595907 120.828583,34.2595907 L128.493096,34.2595907 Z" id="形状结合"></path>
        </g>
    </g>
</svg>