<?xml version="1.0" encoding="UTF-8"?>
<svg width="28px" height="24px" viewBox="0 0 28 24" version="1.1" xmlns="http://www.w3.org/2000/svg" xmlns:xlink="http://www.w3.org/1999/xlink">
    <title>形状</title>
    <g id="页面-1" stroke="none" stroke-width="1" fill="none" fill-rule="evenodd">
        <g id="切图整合" transform="translate(-167.000000, -29.000000)" fill="#FFFFFF" fill-rule="nonzero">
            <path d="M186.402034,29 C190.315098,29.7714429 193.981319,31.2988647 194.110526,33.0692933 L194.115356,33.2014003 L194.115356,47.4082215 C194.115356,50.0223925 187.538912,52.1428567 180.615356,52.1428567 C173.809434,52.1428567 167.306292,50.0937489 167.120177,47.5403211 L167.115356,47.4072497 L167.115356,33.2014003 C167.115356,31.3750425 170.818213,29.7907218 174.829634,29 L174.829634,35.5185789 C176.579812,35.8348653 178.580697,36.043151 180.615356,36.043151 C182.649991,36.043151 184.651855,35.8348653 186.402034,35.5185789 L186.402034,29 L186.402034,29 Z M181.668348,44.2251062 L178.963526,48.7341144 L174.998391,45.7602573 L172.290677,49.1449001 C174.476712,49.7658994 177.517098,50.2490065 180.615348,50.2490065 C182.441706,50.2490065 184.243962,50.0812208 185.862019,49.8179708 L181.668348,44.2251062 L181.668348,44.2251062 Z M192.186777,35.7259079 C189.96699,37.0546943 185.081919,37.9370157 180.615348,37.9370157 C176.148776,37.9370157 171.263713,37.0546943 169.043919,35.7259079 L169.043919,47.4053438 C169.067062,47.727416 169.549204,48.0996295 170.364027,48.4660573 L174.660892,43.0959427 L178.409063,45.9077998 L181.490927,40.7739503 L187.962249,49.401422 C190.409606,48.8209227 192.090356,48.0533506 192.181955,47.4680284 L192.186777,47.4072784 L192.186777,35.7259079 L192.186777,35.7259079 Z M187.365355,38.6428797 L187.365355,38.6428797 C188.963035,38.6428797 190.258212,39.9380547 190.258212,41.5357367 C190.258212,43.1334165 188.963037,44.4285938 187.365355,44.4285938 C187.365355,44.4285938 187.365355,44.4285938 187.365355,44.4285938 L187.365355,44.4285938 C185.767675,44.4285938 184.472498,43.1334165 184.472498,41.5357367 C184.472498,39.938057 185.767675,38.6428797 187.365355,38.6428797 L187.365355,38.6428797 Z M187.365355,40.5714503 L187.365355,40.5714503 C186.832796,40.5713687 186.401003,41.0030284 186.400922,41.5355876 C186.40084,42.0681468 186.8325,42.4999396 187.365059,42.500021 C187.365158,42.500021 187.365256,42.500021 187.365354,42.500021 L187.365354,42.500021 C187.897914,42.4999394 188.329573,42.0681468 188.329492,41.5355876 C188.32941,41.0031437 187.897798,40.5715317 187.365354,40.5714503 L187.365355,40.5714503 Z M172.901076,35.1029786 L172.901076,31.3972286 L172.434355,31.5264428 C170.521211,32.0722278 169.043926,32.7096214 169.043926,33.2014071 C169.043926,33.7635864 170.583891,34.5137992 172.901076,35.103942 L172.901076,35.1029786 Z M188.329634,31.3972219 L188.330613,35.1020068 L188.832042,34.9689353 C190.866686,34.4038632 192.186784,33.7221139 192.186784,33.2013996 C192.186784,32.6710418 190.463607,31.9700076 188.329634,31.3972219 L188.329634,31.3972219 Z" id="形状"></path>
        </g>
    </g>
</svg>