<?xml version="1.0" encoding="UTF-8"?>
<svg width="28px" height="24px" viewBox="0 0 28 24" version="1.1" xmlns="http://www.w3.org/2000/svg" xmlns:xlink="http://www.w3.org/1999/xlink">
    <title>形状备份</title>
    <g id="页面-1" stroke="none" stroke-width="1" fill="none" fill-rule="evenodd">
        <g id="切图整合" transform="translate(-167.000000, -89.000000)" fill="#56E9FF" fill-rule="nonzero">
            <path d="M186.402034,89 C190.315098,89.7714429 193.981319,91.2988647 194.110526,93.0692933 L194.115356,93.2014003 L194.115356,107.408222 C194.115356,110.022392 187.538912,112.142857 180.615356,112.142857 C173.809434,112.142857 167.306292,110.093749 167.120177,107.540321 L167.115356,107.40725 L167.115356,93.2014003 C167.115356,91.3750425 170.818213,89.7907218 174.829634,89 L174.829634,95.5185789 C176.579812,95.8348653 178.580697,96.043151 180.615356,96.043151 C182.649991,96.043151 184.651855,95.8348653 186.402034,95.5185789 L186.402034,89 L186.402034,89 Z M181.668348,104.225106 L178.963526,108.734114 L174.998391,105.760257 L172.290677,109.1449 C174.476712,109.765899 177.517098,110.249006 180.615348,110.249006 C182.441706,110.249006 184.243962,110.081221 185.862019,109.817971 L181.668348,104.225106 L181.668348,104.225106 Z M192.186777,95.7259079 C189.96699,97.0546943 185.081919,97.9370157 180.615348,97.9370157 C176.148776,97.9370157 171.263713,97.0546943 169.043919,95.7259079 L169.043919,107.405344 C169.067062,107.727416 169.549204,108.099629 170.364027,108.466057 L174.660892,103.095943 L178.409063,105.9078 L181.490927,100.77395 L187.962249,109.401422 C190.409606,108.820923 192.090356,108.053351 192.181955,107.468028 L192.186777,107.407278 L192.186777,95.7259079 L192.186777,95.7259079 Z M187.365355,98.6428797 L187.365355,98.6428797 C188.963035,98.6428797 190.258212,99.9380547 190.258212,101.535737 C190.258212,103.133417 188.963037,104.428594 187.365355,104.428594 C187.365355,104.428594 187.365355,104.428594 187.365355,104.428594 L187.365355,104.428594 C185.767675,104.428594 184.472498,103.133417 184.472498,101.535737 C184.472498,99.938057 185.767675,98.6428797 187.365355,98.6428797 L187.365355,98.6428797 Z M187.365355,100.57145 L187.365355,100.57145 C186.832796,100.571369 186.401003,101.003028 186.400922,101.535588 C186.40084,102.068147 186.8325,102.49994 187.365059,102.500021 C187.365158,102.500021 187.365256,102.500021 187.365354,102.500021 L187.365354,102.500021 C187.897914,102.499939 188.329573,102.068147 188.329492,101.535588 C188.32941,101.003144 187.897798,100.571532 187.365354,100.57145 L187.365355,100.57145 Z M172.901076,95.1029786 L172.901076,91.3972286 L172.434355,91.5264428 C170.521211,92.0722278 169.043926,92.7096214 169.043926,93.2014071 C169.043926,93.7635864 170.583891,94.5137992 172.901076,95.103942 L172.901076,95.1029786 Z M188.329634,91.3972219 L188.330613,95.1020068 L188.832042,94.9689353 C190.866686,94.4038632 192.186784,93.7221139 192.186784,93.2013996 C192.186784,92.6710418 190.463607,91.9700076 188.329634,91.3972219 L188.329634,91.3972219 Z" id="形状备份"></path>
        </g>
    </g>
</svg>