<?xml version="1.0" encoding="UTF-8"?>
<svg width="19px" height="17px" viewBox="0 0 19 17" version="1.1" xmlns="http://www.w3.org/2000/svg" xmlns:xlink="http://www.w3.org/1999/xlink">
    <title>路径</title>
    <g id="Page-1" stroke="none" stroke-width="1" fill="none" fill-rule="evenodd">
        <path d="M18.460566,14.2010547 C18.1533957,13.318223 17.1372185,13.1916927 16.2875881,12.8359934 C15.3548129,12.446347 14.3208392,11.9934096 13.3904557,11.6148732 C13.1249993,11.5430698 12.8590285,11.4714979 12.593572,11.3994888 C12.2766033,11.1828699 11.966527,10.4641161 11.7970484,10.1065908 C11.6279555,10.082905 11.4593513,10.0588591 11.2898985,10.0350189 C11.3162075,9.4816546 11.6611569,9.4522337 11.7970484,9.0296688 C11.9165063,8.6563016 11.8093413,8.1718345 11.9988539,7.8272452 C12.1306049,7.5874292 12.4273853,7.5858347 12.5761355,7.3807116 C12.7107154,7.1941051 12.7995181,6.8692669 12.8416691,6.6405093 C12.918616,6.2233194 12.9851987,5.6520814 12.7856306,5.238389 C12.6705189,5.0003989 12.5979183,4.97758744 12.5659514,4.68888232 C12.5273751,4.33920093 12.6700817,3.19795935 12.6758939,2.95145672 C12.6904243,2.31124426 12.6746594,2.25944915 12.5188625,1.63572164 C12.5188625,1.63572164 12.3289128,1.07081015 12.031618,0.90112583 L11.4390087,0.7994644 L11.0726881,0.46331043 C9.596887,-0.43790933 8.0146154,0.19407349 7.1670938,0.5349595 C5.9457678,0.92766635 5.1739587,2.11396505 5.7130755,4.64737424 C5.8047071,5.079969 5.4739281,5.2733392 5.4955051,5.5092976 C5.5425939,6.0258858 5.5529067,7.2673487 6.0447289,7.5732845 C6.0905833,7.6010337 6.4394674,7.6882419 6.4373586,7.664196 C6.4856819,8.1673597 6.5336451,8.6703433 6.5821741,9.1728641 C6.7049753,9.5069864 6.9997241,9.5438396 7.0851835,10.015525 L6.7078814,10.1066423 C6.5387886,10.4641675 6.2283522,11.1829213 5.9109206,11.3995402 C5.645387,11.4715493 5.3799305,11.5431212 5.1143969,11.6149246 C4.1841163,11.9934611 3.1496797,12.4463984 2.2172645,12.8360449 C1.3680713,13.1917442 0.3515084,13.3182745 0.0439266,14.2011062 C0.0439266,14.8006078 -0.0125491,16.2172071 0.0025728,17.0023893 L8.1224747,17.0023893 L8.7184273,12.9646069 L8.223056,11.9278556 L9.3672037,11.3839297 L10.3304799,11.9165142 L9.7994898,12.9845894 L10.7388744,17.0023893 L18.5022027,17.0023893 C18.5178389,16.2171556 18.460566,14.8005821 18.460566,14.2010547" id="路径" fill="#56E9FF" fill-rule="nonzero"></path>
    </g>
</svg>