<?xml version="1.0" encoding="UTF-8"?>
<svg width="15px" height="14px" viewBox="0 0 15 14" version="1.1" xmlns="http://www.w3.org/2000/svg" xmlns:xlink="http://www.w3.org/1999/xlink">
    <title>形状</title>
    <g id="页面-1" stroke="none" stroke-width="1" fill="none" fill-rule="evenodd">
        <g id="点击联系人详情" transform="translate(-654.000000, -370.000000)" fill="#FFFFFF" fill-rule="nonzero">
            <g id="弹窗" transform="translate(554.000000, 142.000000)">
                <g id="编组-3" transform="translate(100.000000, 195.000000)">
                    <path d="M14.10248,39.1248474 C14.2355539,38.9935964 14.2829501,38.8021887 14.2246163,38.6253644 C14.1662826,38.4485401 14.0149793,38.320935 13.8308633,38.293591 L9.89333309,37.7211908 C9.70192537,37.6938469 9.53603868,37.5735334 9.44853801,37.3985321 L7.68758699,33.8292339 C7.60555511,33.6615242 7.43784549,33.5576172 7.25008364,33.5576172 C7.06232178,33.5576172 6.89643509,33.6615242 6.81258028,33.8292339 L5.05162926,37.3985321 C4.96595152,37.5717105 4.80006483,37.6938469 4.60683418,37.7211908 L0.667481022,38.293591 C0.483365025,38.320935 0.33206178,38.4467172 0.273727999,38.6253644 C0.215394218,38.8040116 0.262790415,38.9954193 0.397687284,39.1248474 L3.24875084,41.9029937 C3.38729357,42.0378906 3.45109614,42.2329442 3.41828339,42.4243519 L2.74562197,46.3491216 C2.71463215,46.5332376 2.78937231,46.7155307 2.94067556,46.8249065 C3.0919788,46.9342824 3.28885531,46.9488658 3.454742,46.8613651 L6.97846697,45.0092676 C7.14982245,44.9181211 7.35581361,44.9181211 7.5271691,45.0092676 L11.0508941,46.8613651 C11.1219884,46.8996467 11.2003744,46.917876 11.2787604,46.917876 C11.3790216,46.917876 11.4792828,46.8868862 11.5649605,46.8249065 C11.7162638,46.7155307 11.7910039,46.5332376 11.7600141,46.3472987 L11.0818839,42.4261748 C11.0490711,42.2347671 11.1128737,42.0397135 11.2514164,41.9048167 L14.10248,39.1248474 Z M10.6079219,41.2430929 C10.2506275,41.5912726 10.0883867,42.0907556 10.1722415,42.581124 L10.6954226,45.6363557 L7.95373487,44.1944176 C7.73316026,44.07775 7.49253341,44.0212392 7.25008364,44.0212392 C7.00763386,44.0212392 6.76700701,44.079573 6.5464324,44.1944176 L3.80292176,45.6363557 L4.32610286,42.581124 C4.40995767,42.0907556 4.24771684,41.5894497 3.89042243,41.2430929 L1.67373875,39.0792742 L4.73990812,38.6344791 C5.2320994,38.5633848 5.65866517,38.2534866 5.87923978,37.8068686 L7.25008364,35.0287222 L8.62092749,37.8086915 C8.8415021,38.2553095 9.26624495,38.5652077 9.76025915,38.636302 L12.8264285,39.0810971 L10.6079219,41.2430929 L10.6079219,41.2430929 Z" id="形状"></path>
                </g>
            </g>
        </g>
    </g>
</svg>