<?xml version="1.0" encoding="UTF-8"?>
<svg width="13px" height="16px" viewBox="0 0 13 16" version="1.1" xmlns="http://www.w3.org/2000/svg" xmlns:xlink="http://www.w3.org/1999/xlink">
    <title>形状</title>
    <g id="Page-1" stroke="none" stroke-width="1" fill="none" fill-rule="evenodd" opacity="0.600000024">
        <g id="编组" transform="translate(-400.000000, -50.000000)" fill="#FFFFFF" fill-rule="nonzero">
            <path d="M412.86386,56.55946 C412.86386,52.93668 409.98418,50 406.43186,50 C402.87964,50 400,52.93668 400,56.55946 C400,56.67444 400.0111,56.78558 400.01692,56.89814 C400.01164,56.95374 400,57.00736 400,57.06442 C400,61.1017 405.93718,65.67484 405.93718,65.67484 C405.93718,65.67484 406.43192,66.0532 406.92668,65.67484 C407.42142,65.29606 412.86386,61.1017 412.86386,57.06442 C412.86386,57.00736 412.85222,56.95374 412.84694,56.89814 C412.8527,56.78558 412.86386,56.67444 412.86386,56.55946 L412.86386,56.55946 Z M406.43186,59.083 C405.06548,59.083 403.95812,57.95342 403.95812,56.55946 C403.95812,55.16648 405.06546,54.03686 406.43186,54.03686 C407.79832,54.03686 408.90574,55.16648 408.90574,56.55946 C408.90574,57.95342 407.79832,59.083 406.43186,59.083 L406.43186,59.083 Z" id="形状"></path>
        </g>
    </g>
</svg>