<?xml version="1.0" encoding="UTF-8"?>
<svg width="14px" height="14px" viewBox="0 0 14 14" version="1.1" xmlns="http://www.w3.org/2000/svg" xmlns:xlink="http://www.w3.org/1999/xlink">
    <title>形状</title>
    <g id="任务调度" stroke="none" stroke-width="1" fill="none" fill-rule="evenodd">
        <g id="发布任务" transform="translate(-1235.000000, -258.000000)" fill="#56E9FF" fill-rule="nonzero">
            <g id="弹窗" transform="translate(544.000000, 122.000000)">
                <g id="编组-7备份-2" transform="translate(575.000000, 119.000000)">
                    <g id="编组-12" transform="translate(12.000000, 13.000000)">
                        <g id="编组-16" transform="translate(1.000000, 0.000000)">
                            <path d="M109.962937,4 C110.924406,4 111.826516,4.18335938 112.669219,4.55015625 C113.511406,4.91784375 114.245891,5.41365625 114.871188,6.039375 C115.496469,6.6643125 115.993156,7.40123438 116.359969,8.24942188 C116.726766,9.09675 116.910562,10.0009375 116.910562,10.9629375 C116.910562,11.9240781 116.726766,12.8265313 116.359969,13.6687969 C115.993156,14.5118594 115.496469,15.2454688 114.871187,15.8712031 C114.245891,16.4969219 113.511437,16.9927344 112.669219,17.3595469 C111.8265,17.7272031 110.924406,17.9105781 109.962922,17.9105781 C109.001359,17.9105781 108.097172,17.7272188 107.248969,17.3595469 C106.401641,16.9927344 105.664641,16.4969219 105.039359,15.8712031 C104.413656,15.2454688 103.917391,14.511875 103.550578,13.6687969 C103.183344,12.8265313 103,11.9240625 103,10.9629375 C103,10.0009375 103.183344,9.09675 103.550578,8.24942188 C103.917391,7.40123438 104.413641,6.66429688 105.039359,6.039375 C105.664641,5.41365625 106.401641,4.91784375 107.248969,4.55015625 C108.097172,4.18335938 109.001359,4 109.962922,4 M110.800516,10.0009219 C110.800516,9.7530625 110.720266,9.54421875 110.560203,9.37354688 C110.399719,9.20289063 110.201063,9.11707813 109.962922,9.11707813 C109.725234,9.11707813 109.523531,9.20289063 109.357984,9.37354688 C109.192813,9.54421875 109.110016,9.7530625 109.110016,10.0009219 L109.110016,15.1961719 C109.110016,15.4441406 109.192813,15.6436563 109.357984,15.7938906 C109.523531,15.9433438 109.725234,16.0180313 109.962922,16.0180313 C110.201047,16.0180313 110.402328,15.9408438 110.567859,15.78625 C110.733391,15.630875 110.815719,15.4288281 110.815719,15.1809531 L110.800516,10.0009219 L110.800516,10.0009219 Z M109.962922,8.077875 C110.263063,8.077875 110.518563,7.97257813 110.730875,7.76035938 C110.942312,7.54814063 111.048375,7.29254688 111.048375,6.99285938 C111.048375,6.69317188 110.942312,6.4366875 110.730875,6.22534375 C110.518563,6.01303125 110.263047,5.90695313 109.962922,5.90695313 C109.663234,5.90695313 109.404672,6.01304688 109.187328,6.22534375 C108.970391,6.43670313 108.862172,6.69315625 108.862172,6.99284375 C108.862172,7.29253125 108.970406,7.54814063 109.187328,7.76035938 C109.404672,7.97259375 109.663234,8.077875 109.962922,8.077875" id="形状"></path>
                        </g>
                    </g>
                </g>
            </g>
        </g>
    </g>
</svg>