<?xml version="1.0" encoding="UTF-8"?>
<svg width="32px" height="32px" viewBox="0 0 32 32" version="1.1" xmlns="http://www.w3.org/2000/svg" xmlns:xlink="http://www.w3.org/1999/xlink">
    <title>预览</title>
    <defs>
        <filter id="filter-1">
            <feColorMatrix in="SourceGraphic" type="matrix" values="0 0 0 0 0.337255 0 0 0 0 0.913725 0 0 0 0 1.000000 0 0 0 1.000000 0"></feColorMatrix>
        </filter>
        <filter id="filter-2">
            <feColorMatrix in="SourceGraphic" type="matrix" values="0 0 0 0 0.337255 0 0 0 0 0.913725 0 0 0 0 1.000000 0 0 0 1.000000 0"></feColorMatrix>
        </filter>
    </defs>
    <g id="飞巡" stroke="none" stroke-width="1" fill="none" fill-rule="evenodd">
        <g id="雪碧图" transform="translate(-259.000000, -254.000000)">
            <g id="编组-4" transform="translate(0.000000, 15.000000)">
                <g id="编组" transform="translate(34.000000, 18.000000)" filter="url(#filter-1)">
                    <g transform="translate(183.000000, 221.000000)" filter="url(#filter-2)">
                        <g transform="translate(42.000000, 0.000000)">
                            <path d="M29.5302395,16.7789296 C29.1326347,23.6388473 23.6388099,29.1326347 16.7789296,29.5302395 L16.7789296,31.1501871 C16.7789296,31.5911261 16.4214779,31.9485778 15.9805389,31.9485778 C15.5395999,31.9485778 15.1821482,31.5911261 15.1821482,31.1501871 L15.1821482,29.5302395 C8.32223054,29.1326347 2.82844311,23.6388099 2.43083832,16.7789296 L0.810890719,16.7789296 C0.3699517,16.7789296 0.0125,16.4214779 0.0125,15.9805389 C0.0125,15.5395999 0.3699517,15.1821482 0.810890719,15.1821482 L2.43083832,15.1821482 C2.82844311,8.32226796 8.32226796,2.82844311 15.1821482,2.43083832 L15.1821482,0.810890719 C15.1821482,0.3699517 15.5395999,0.0125 15.9805389,0.0125 C16.4214779,0.0125 16.7789296,0.3699517 16.7789296,0.810890719 L16.7789296,2.43083832 C23.6388099,2.82844311 29.1326347,8.32226796 29.5302395,15.1821482 L31.1326347,15.1821482 C31.5735737,15.1821482 31.9310254,15.5395999 31.9310254,15.9805389 C31.9310254,16.4214779 31.5735737,16.7789296 31.1326347,16.7789296 L29.5294536,16.7789296 L29.5302395,16.7789296 Z M27.9302395,16.7789296 L23.1477919,16.7789296 C22.7068529,16.7789296 22.3494012,16.4214779 22.3494012,15.9805389 C22.3494012,15.5395999 22.7068529,15.1821482 23.1477919,15.1821482 L27.9302395,15.1821482 C27.5366392,9.20370509 22.7565868,4.42443862 16.7789296,4.03083832 L16.7789296,8.79491018 C16.7789296,9.2358492 16.4214779,9.5933009 15.9805389,9.5933009 C15.5395999,9.5933009 15.1821482,9.2358492 15.1821482,8.79491018 L15.1821482,4.03083832 C9.20370509,4.42443862 4.42443862,9.20449102 4.03083832,15.1821482 L8.79491018,15.1821482 C9.2358492,15.1821482 9.5933009,15.5395999 9.5933009,15.9805389 C9.5933009,16.4214779 9.2358492,16.7789296 8.79491018,16.7789296 L4.03083832,16.7789296 C4.42443862,22.7573728 9.20449102,27.5366392 15.1821482,27.9302395 L15.1821482,23.1661677 C15.1821482,22.7252286 15.5395999,22.3677769 15.9805389,22.3677769 C16.4214779,22.3677769 16.7789296,22.7252286 16.7789296,23.1661677 L16.7789296,27.9302395 C22.7573728,27.5366392 27.5366392,22.7565868 27.9302395,16.7789296 Z M15.9805389,17.5773578 C15.0986402,17.5773578 14.3837201,16.8624376 14.3837201,15.9805389 C14.3837201,15.0986402 15.0986402,14.3837201 15.9805389,14.3837201 C16.8624376,14.3837201 17.5773577,15.0986402 17.5773577,15.9805389 C17.5773577,16.8624376 16.8624376,17.5773578 15.9805389,17.5773578 Z" id="形状" fill="#000000" fill-rule="nonzero"></path>
                        </g>
                    </g>
                </g>
            </g>
        </g>
    </g>
</svg>