<?xml version="1.0" encoding="UTF-8"?>
<svg width="8px" height="13px" viewBox="0 0 8 13" version="1.1" xmlns="http://www.w3.org/2000/svg" xmlns:xlink="http://www.w3.org/1999/xlink">
    <title>路径</title>
    <defs>
        <filter id="filter-1">
            <feColorMatrix in="SourceGraphic" type="matrix" values="0 0 0 0 0.678431 0 0 0 0 0.713725 0 0 0 0 0.760784 0 0 0 1.000000 0"></feColorMatrix>
        </filter>
    </defs>
    <g id="PC端" stroke="none" stroke-width="1" fill="none" fill-rule="evenodd">
        <g id="模板标绘-点" transform="translate(-993.000000, -124.000000)">
            <g id="左翻" transform="translate(988.000000, 70.000000)" filter="url(#filter-1)">
                <g transform="translate(5.000000, 54.500000)">
                    <path d="M0.217410714,5.5233631 L5.99717262,0.201934524 C6.27328887,-0.0416891912 6.68712309,-0.0432162548 6.96502976,0.198363095 C7.09071734,0.312674781 7.16216992,0.474829773 7.16171841,0.644724805 C7.1612626,0.814619837 7.08894506,0.97639093 6.96264881,1.09002976 L1.66145833,5.97098214 L6.96264881,10.8519345 C7.23050595,11.0983631 7.22455357,11.5043155 6.96502976,11.7424107 C6.68742104,11.9843296 6.27358774,11.9833115 5.99717262,11.7400298 L0.217410714,6.41860119 C0.0911144608,6.30496236 0.0187969203,6.14319127 0.0183411148,5.97329623 C0.0178896037,5.8034012 0.089342188,5.64124621 0.215029762,5.52693452 L0.217410714,5.5233631 Z" id="路径" fill="#7D8292" fill-rule="nonzero"></path>
                </g>
            </g>
        </g>
    </g>
</svg>