<?xml version="1.0" encoding="UTF-8"?>
<svg width="8px" height="13px" viewBox="0 0 8 13" version="1.1" xmlns="http://www.w3.org/2000/svg" xmlns:xlink="http://www.w3.org/1999/xlink">
    <title>路径</title>
    <defs>
        <filter id="filter-1">
            <feColorMatrix in="SourceGraphic" type="matrix" values="0 0 0 0 0.678431 0 0 0 0 0.713725 0 0 0 0 0.760784 0 0 0 1.000000 0"></feColorMatrix>
        </filter>
    </defs>
    <g id="PC端" stroke="none" stroke-width="1" fill="none" fill-rule="evenodd">
        <g id="模板标绘-点" transform="translate(-1352.000000, -124.000000)">
            <g id="左翻" transform="translate(988.000000, 70.000000)" filter="url(#filter-1)">
                <g transform="translate(368.500000, 60.500000) rotate(-180.000000) translate(-368.500000, -60.500000) translate(364.000000, 54.500000)">
                    <path d="M1.16979167,5.5233631 L6.94955357,0.201934524 C7.22566982,-0.0416891912 7.63950404,-0.0432162548 7.91741071,0.198363095 C8.04309829,0.312674781 8.11455087,0.474829773 8.11409936,0.644724805 C8.11364356,0.814619837 8.04132602,0.97639093 7.91502976,1.09002976 L2.61383929,5.97098214 L7.91502976,10.8519345 C8.1828869,11.0983631 8.17693452,11.5043155 7.91741071,11.7424107 C7.63980199,11.9843296 7.22596869,11.9833115 6.94955357,11.7400298 L1.16979167,6.41860119 C1.04349541,6.30496236 0.971177873,6.14319127 0.970722067,5.97329623 C0.970270556,5.8034012 1.04172314,5.64124621 1.16741071,5.52693452 L1.16979167,5.5233631 L1.16979167,5.5233631 Z" id="路径" fill="#7D8292" fill-rule="nonzero"></path>
                </g>
            </g>
        </g>
    </g>
</svg>