<?xml version="1.0" encoding="UTF-8"?>
<svg width="182px" height="212px" viewBox="0 0 182 212" version="1.1" xmlns="http://www.w3.org/2000/svg" xmlns:xlink="http://www.w3.org/1999/xlink">
    <title>小雨太阳</title>
    <g id="首页" stroke="none" stroke-width="1" fill="none" fill-rule="evenodd">
        <g id="天气图标" transform="translate(-1184.000000, -1018.000000)" fill="#FFFFFF">
            <path d="M1254.07592,1217.35925 C1257.52592,1217.35925 1260.32592,1220.15926 1260.32592,1223.60926 C1260.32592,1227.06759 1257.52592,1229.85926 1254.07592,1229.85926 C1250.62591,1229.85926 1247.82591,1227.06759 1247.82591,1223.60926 C1247.82591,1220.15926 1250.62591,1217.35925 1254.07592,1217.35925 Z M1295.74262,1217.88009 C1298.90095,1217.88009 1301.47179,1220.44259 1301.47179,1223.60926 C1301.47179,1226.77593 1298.90095,1229.33843 1295.74262,1229.33843 C1292.57595,1229.33843 1290.01344,1226.77593 1290.01344,1223.60926 C1290.01344,1220.44259 1292.57595,1217.88009 1295.74262,1217.88009 Z M1316.57597,1192.23007 C1320.02597,1192.23007 1322.82597,1195.03007 1322.82597,1198.48007 C1322.82597,1201.93841 1320.02597,1204.73008 1316.57597,1204.73008 C1313.12596,1204.73008 1310.32596,1201.93841 1310.32596,1198.48007 C1310.32596,1195.03007 1313.12596,1192.23007 1316.57597,1192.23007 Z M1233.24257,1192.93007 C1236.3009,1192.93007 1238.79257,1195.4134 1238.79257,1198.48007 C1238.79257,1201.55507 1236.3009,1204.03841 1233.24257,1204.03841 C1230.1759,1204.03841 1227.68423,1201.55507 1227.68423,1198.48007 C1227.68423,1195.4134 1230.1759,1192.93007 1233.24257,1192.93007 Z M1274.90927,1192.93007 C1277.9676,1192.93007 1280.45927,1195.4134 1280.45927,1198.48007 C1280.45927,1201.55507 1277.9676,1204.03841 1274.90927,1204.03841 C1271.8426,1204.03841 1269.35093,1201.55507 1269.35093,1198.48007 C1269.35093,1195.4134 1271.8426,1192.93007 1274.90927,1192.93007 Z M1267.15926,1074.54247 C1284.41344,1074.54247 1300.03845,1084.10498 1307.94263,1099.50916 L1307.94263,1099.50916 L1309.61763,1102.75916 L1313.0593,1101.52999 C1316.71347,1100.20916 1320.4843,1099.55083 1324.26347,1099.55083 C1342.65099,1099.55083 1357.60933,1114.50917 1357.60933,1132.90085 C1357.60933,1151.2842 1342.65099,1166.24255 1324.26347,1166.24255 L1324.26347,1166.24255 L1213.39672,1166.24255 C1201.90087,1166.24255 1192.55087,1156.89254 1192.55087,1145.40086 C1192.55087,1133.90919 1201.90087,1124.55918 1213.39672,1124.55918 C1214.32588,1124.55918 1215.32172,1124.64251 1216.54255,1124.82585 L1216.54255,1124.82585 L1221.31339,1125.23418 L1221.31339,1120.39251 C1221.31339,1095.10916 1241.88007,1074.54247 1267.15926,1074.54247 Z M1347.7826,1084.18277 L1347.98432,1084.18831 L1361.72183,1084.98415 C1364.02184,1085.11331 1365.776,1087.08415 1365.6385,1089.37998 C1365.5135,1091.60082 1363.676,1093.30915 1361.48433,1093.30915 C1361.40517,1093.30915 1361.32183,1093.30082 1361.24267,1093.30082 L1361.24267,1093.30082 L1347.50516,1092.50499 C1345.20515,1092.37165 1343.45099,1090.39665 1343.58432,1088.10082 C1343.71765,1085.80498 1345.75932,1084.07165 1347.98432,1084.18831 Z M1352.98433,1053.32996 C1355.0385,1052.29662 1357.54683,1053.13412 1358.57183,1055.18412 C1359.60517,1057.24246 1358.776,1059.75079 1356.71766,1060.7758 L1356.71766,1060.7758 L1344.42182,1066.94247 C1343.82182,1067.24663 1343.18432,1067.39247 1342.55932,1067.39247 C1341.03015,1067.39247 1339.55932,1066.54663 1338.83015,1065.0883 C1337.79682,1063.0383 1338.62598,1060.52996 1340.68432,1059.49663 L1340.68432,1059.49663 Z M1241.86757,1048.40495 C1243.13841,1046.47578 1245.72174,1045.94662 1247.63841,1047.20912 L1247.63841,1047.20912 L1259.13425,1054.75912 C1261.05925,1056.02162 1261.59259,1058.60913 1260.33009,1060.52996 C1259.53009,1061.7508 1258.19675,1062.40913 1256.84258,1062.40913 C1256.05925,1062.40913 1255.26342,1062.1883 1254.55925,1061.7258 L1254.55925,1061.7258 L1243.06757,1054.17162 C1241.14257,1052.90496 1240.60924,1050.32579 1241.86757,1048.40495 Z M1329.57181,1030.2716 C1330.84264,1028.35077 1333.41765,1027.8216 1335.34681,1029.0841 C1337.26765,1030.3466 1337.80098,1032.93411 1336.53848,1034.85494 L1336.53848,1034.85494 L1328.98431,1046.34662 C1328.18014,1047.56745 1326.85097,1048.22578 1325.49681,1048.22578 C1324.70931,1048.22578 1323.91764,1048.00495 1323.2093,1047.54245 C1321.28847,1046.27162 1320.75514,1043.69245 1322.01764,1041.76328 L1322.01764,1041.76328 Z M1267.95926,1025.16327 C1270.03426,1024.13827 1272.52593,1024.96743 1273.5551,1027.0216 L1273.5551,1027.0216 L1279.73427,1039.31744 C1280.7676,1041.37578 1279.93427,1043.87578 1277.8801,1044.90912 C1277.2801,1045.20912 1276.63843,1045.35495 1276.01343,1045.35495 C1274.48843,1045.35495 1273.0176,1044.51745 1272.28426,1043.05911 L1272.28426,1043.05911 L1266.10926,1030.76327 C1265.07592,1028.70494 1265.90509,1026.1966 1267.95926,1025.16327 Z M1301.96959,1018.09271 L1302.17595,1018.10076 C1304.47179,1018.22993 1306.22596,1020.20076 1306.09262,1022.4966 L1306.09262,1022.4966 L1305.29679,1036.23411 C1305.16762,1038.45494 1303.33012,1040.16328 1301.14262,1040.16328 L1301.14262,1040.16328 L1300.89679,1040.15495 C1298.59678,1040.02578 1296.84262,1038.04661 1296.98012,1035.75077 L1296.98012,1035.75077 L1297.77595,1022.01326 C1297.90512,1019.71326 1299.89679,1017.95493 1302.17595,1018.10076 Z M1269.12625,1066.17541 C1275.95419,1055.92236 1287.99491,1049.8515 1300.28845,1050.59245 C1309.60513,1051.12995 1318.1593,1055.27162 1324.36347,1062.2383 C1330.57598,1069.2133 1333.69681,1078.18831 1333.15098,1087.50498 C1333.06366,1089.03696 1332.87617,1090.55759 1332.59164,1092.05428 C1351.59723,1095.92068 1365.94267,1112.76105 1365.94267,1132.90085 C1365.94267,1155.87587 1347.24682,1174.57589 1324.26347,1174.57589 L1213.39672,1174.57589 C1197.3092,1174.57589 1184.21753,1161.48838 1184.21753,1145.40086 C1184.21753,1129.39252 1197.16754,1116.36334 1213.13838,1116.22584 C1215.27588,1088.28832 1238.6884,1066.20913 1267.15926,1066.20913 C1267.80214,1066.20913 1268.44311,1066.22037 1269.08195,1066.2427 Z M1299.80929,1058.90913 C1291.80838,1058.46518 1284.04366,1061.69373 1278.70075,1067.44153 C1293.22096,1070.58642 1305.8819,1079.59726 1313.65096,1092.61749 C1317.13235,1091.68884 1320.68865,1091.21801 1324.25747,1091.21749 C1324.55723,1089.84605 1324.75003,1088.4429 1324.83431,1087.01748 C1325.24264,1079.92164 1322.86764,1073.09247 1318.14263,1067.77997 C1313.41346,1062.4758 1306.90096,1059.31746 1299.80929,1058.90913 Z" id="小雨太阳"></path>
        </g>
    </g>
</svg>