<?xml version="1.0" encoding="UTF-8"?>
<svg width="183px" height="157px" viewBox="0 0 183 157" version="1.1" xmlns="http://www.w3.org/2000/svg" xmlns:xlink="http://www.w3.org/1999/xlink">
    <title>晴转多云</title>
    <g id="首页" stroke="none" stroke-width="1" fill="none" fill-rule="evenodd">
        <g id="天气图标" transform="translate(-434.000000, -143.000000)" fill="#FFFFFF">
            <path d="M517.800326,199.454273 C535.054507,199.454273 550.679519,209.020947 558.583692,224.420959 L558.583692,224.420959 L560.258694,227.675129 L563.700363,226.441794 C567.354533,225.129293 571.125369,224.462626 574.904539,224.462626 C593.292053,224.462626 608.250399,239.420971 608.250399,257.808486 C608.250399,276.196001 593.292053,291.154346 574.904539,291.154346 L574.904539,291.154346 L464.037783,291.154346 C452.541941,291.154346 443.191933,281.804339 443.191933,270.312663 C443.191933,258.820987 452.541941,249.470979 464.037783,249.470979 C465.112784,249.470979 466.158618,249.583479 467.196119,249.737646 L467.196119,249.737646 L471.954456,250.13348 L471.954456,245.304309 C471.954456,220.025122 492.521139,199.454273 517.800326,199.454273 Z M598.417627,209.092799 L598.625391,209.100114 L612.362902,209.895948 C614.662904,210.029281 616.417072,212.000116 616.279572,214.300118 C616.154572,216.51262 614.31707,218.225121 612.125402,218.225121 C612.046235,218.225121 611.962902,218.220954 611.883735,218.216788 L611.883735,218.216788 L598.146224,217.420954 C595.846222,217.283454 594.092054,215.312619 594.225387,213.016783 C594.362887,210.720948 596.329556,208.962614 598.625391,209.100114 Z M603.625395,178.241756 C605.68373,177.212588 608.183732,178.041755 609.212899,180.095924 C610.246234,182.150092 609.417066,184.654261 607.358731,185.687595 L607.358731,185.687595 L595.062888,191.858433 C594.462888,192.1626 593.825387,192.304267 593.200387,192.304267 C591.671219,192.304267 590.204551,191.4626 589.471217,190.008432 C588.437883,187.950097 589.26705,185.445928 591.325385,184.412594 L591.325385,184.412594 Z M492.508639,173.312585 C493.779474,171.39175 496.366976,170.858416 498.279477,172.116751 L498.279477,172.116751 L509.77532,179.670923 C511.700321,180.937591 512.233655,183.520927 510.971154,185.441761 C510.171153,186.658429 508.837819,187.32093 507.483651,187.32093 C506.700317,187.32093 505.904483,187.100096 505.200316,186.633429 L505.200316,186.633429 L493.70864,179.083423 C491.783639,177.816755 491.250305,175.23342 492.508639,173.312585 Z M580.212876,155.187571 C581.479544,153.266736 584.062879,152.737569 585.987881,153.995903 C587.908716,155.258404 588.442049,157.841739 587.179548,159.766741 L587.179548,159.766741 L579.625376,171.258417 C578.821208,172.475084 577.492041,173.137585 576.137873,173.137585 C575.350372,173.137585 574.558705,172.916751 573.850371,172.450084 C571.929536,171.187583 571.396202,168.604248 572.658703,166.679246 L572.658703,166.679246 Z M518.600327,150.079233 C520.671162,149.050066 523.166997,149.875066 524.196165,151.933401 L524.196165,151.933401 L530.375336,164.225078 C531.40867,166.279246 530.575336,168.787581 528.521168,169.820916 C527.921168,170.120916 527.2795,170.262583 526.6545,170.262583 C525.129499,170.262583 523.658664,169.420915 522.92533,167.966747 L522.92533,167.966747 L516.750325,155.670904 C515.716991,153.616736 516.546159,151.112567 518.600327,150.079233 Z M552.618388,142.999406 L552.821188,143.004227 C555.117023,143.137561 556.871191,145.108396 556.737857,147.408398 L556.737857,147.408398 L555.942023,161.150075 C555.812857,163.362577 553.975355,165.070912 551.787853,165.070912 C551.70452,165.070912 551.625353,165.070912 551.54202,165.066745 C549.242018,164.933412 547.48785,162.962577 547.62535,160.662575 L547.62535,160.662575 L548.421184,146.925064 C548.550351,144.625062 550.583686,142.895894 552.821188,143.004227 Z M519.767903,191.086956 C526.597262,180.835347 538.624337,174.797931 550.929519,175.500087 C560.246194,176.041754 568.800367,180.179257 575.004539,187.154263 C581.217044,194.125102 584.337879,203.100109 583.792046,212.42095 C583.704738,213.952811 583.517263,215.471442 583.232773,216.966494 C602.238301,220.833317 616.583739,237.675988 616.583739,257.808486 C616.583739,280.791838 597.88789,299.487686 574.904539,299.487686 L464.037783,299.487686 C447.95027,299.487686 434.858593,286.400176 434.858593,270.312663 C434.858593,254.31265 447.808604,241.275139 463.77945,241.137639 C465.916951,213.200117 489.32947,191.120933 517.800326,191.120933 C518.443207,191.120933 519.084179,191.132167 519.723017,191.154497 Z M550.450352,183.820927 C542.424999,183.363932 534.679819,186.60108 529.34366,192.353317 C543.863771,195.499457 556.523498,204.509956 564.29203,217.529287 C567.77374,216.600553 571.33038,216.129726 574.899537,216.129286 C575.198578,214.75869 575.391161,213.357184 575.475372,211.937616 C575.883706,204.83761 573.508704,198.004271 568.7837,192.691767 C564.05453,187.38343 557.546191,184.233427 550.450352,183.820927 Z" id="晴转多云"></path>
        </g>
    </g>
</svg>