<?xml version="1.0" encoding="UTF-8"?>
<svg width="183px" height="176px" viewBox="0 0 183 176" version="1.1" xmlns="http://www.w3.org/2000/svg" xmlns:xlink="http://www.w3.org/1999/xlink">
    <title>大雨</title>
    <g id="首页" stroke="none" stroke-width="1" fill="none" fill-rule="evenodd">
        <g id="天气图标" transform="translate(-933.000000, -774.000000)" fill="#FFFFFF">
            <path d="M983.159032,929.484023 C984.7882,927.854855 987.421535,927.854855 989.050703,929.484023 C990.679871,931.113191 990.679871,933.746527 989.050703,935.375695 L989.050703,935.375695 L976.250693,948.175705 C975.434026,948.992372 974.371525,949.396539 973.304857,949.396539 C972.23819,949.396539 971.171522,948.992372 970.359022,948.175705 C968.729854,946.550704 968.729854,943.913202 970.359022,942.284034 L970.359022,942.284034 Z M1033.75074,929.484023 C1035.37991,927.854855 1038.01324,927.854855 1039.64241,929.484023 C1041.27158,931.113191 1041.27158,933.746527 1039.64241,935.375695 L1039.64241,935.375695 L1026.8424,948.175705 C1026.02573,948.992372 1024.96323,949.396539 1023.89656,949.396539 C1022.8299,949.396539 1021.76323,948.992372 1020.95073,948.175705 C1019.32156,946.550704 1019.32156,943.913202 1020.95073,942.284034 L1020.95073,942.284034 Z M969.517354,900.188167 C971.146522,898.558999 973.779858,898.558999 975.409026,900.188167 C977.038194,901.817335 977.038194,904.45067 975.409026,906.079838 L975.409026,906.079838 L962.609015,918.879848 C961.792348,919.696515 960.729847,920.100682 959.66318,920.100682 C958.596512,920.100682 957.529845,919.696515 956.717344,918.879848 C955.088176,917.254847 955.088176,914.617345 956.717344,912.988177 L956.717344,912.988177 Z M1020.11323,900.188167 C1021.7424,898.558999 1024.37573,898.558999 1026.0049,900.188167 C1027.63407,901.817335 1027.63407,904.45067 1026.0049,906.079838 L1026.0049,906.079838 L1013.20489,918.879848 C1012.38822,919.696515 1011.32572,920.100682 1010.25905,920.100682 C1009.19239,920.100682 1008.12572,919.696515 1007.31322,918.879848 C1005.68405,917.254847 1005.68405,914.617345 1007.31322,912.988177 L1007.31322,912.988177 Z M1070.70494,900.188167 C1072.3341,898.558999 1074.96744,898.558999 1076.59661,900.188167 C1078.22577,901.817335 1078.22577,904.45067 1076.59661,906.079838 L1076.59661,906.079838 L1063.7966,918.879848 C1062.97993,919.696515 1061.91743,920.100682 1060.85076,920.100682 C1059.78409,920.100682 1058.71743,919.696515 1057.90492,918.879848 C1056.27576,917.254847 1056.27576,914.617345 1057.90492,912.988177 L1057.90492,912.988177 Z M1016.91739,782.746406 C1034.17157,782.746406 1049.79659,792.308914 1057.70076,807.713093 L1057.70076,807.713093 L1059.37576,810.963095 L1062.81743,809.733928 C1066.4716,808.413093 1070.24243,807.754759 1074.0216,807.754759 C1092.40495,807.754759 1107.3633,822.713105 1107.3633,841.104786 C1107.3633,859.488134 1092.40495,874.446479 1074.0216,874.446479 L1074.0216,874.446479 L963.150683,874.446479 C951.659007,874.446479 942.308999,865.096472 942.308999,853.604796 C942.308999,842.11312 951.659007,832.763113 963.150683,832.763113 C964.07985,832.763113 965.075684,832.846446 966.296518,833.029779 L966.296518,833.029779 L971.067356,833.438113 L971.067356,828.596443 C971.067356,803.313089 991.638205,782.746406 1016.91739,782.746406 Z M1074.0216,882.779819 L963.150683,882.779819 C947.06317,882.779819 933.975659,869.692309 933.975659,853.604796 C933.975659,837.588116 946.942336,824.542273 962.929849,824.429773 C965.179851,796.346417 988.538203,774.413066 1016.91739,774.413066 C1036.13407,774.413066 1053.63825,784.446407 1063.4091,800.82142 C1066.89243,799.892253 1070.45077,799.421419 1074.0216,799.421419 C1097.00079,799.421419 1115.69664,818.113101 1115.69664,841.104786 C1115.69664,864.079804 1097.00079,882.779819 1074.0216,882.779819" id="大雨"></path>
        </g>
    </g>
</svg>