<?xml version="1.0" encoding="UTF-8"?>
<svg width="183px" height="147px" viewBox="0 0 183 147" version="1.1" xmlns="http://www.w3.org/2000/svg" xmlns:xlink="http://www.w3.org/1999/xlink">
    <title>中雨</title>
    <g id="首页" stroke="none" stroke-width="1" fill="none" fill-rule="evenodd">
        <g id="天气图标" transform="translate(-184.000000, -482.000000)" fill="#FFFFFF">
            <path d="M214.033417,540.775379 C202.541741,540.775379 193.191733,550.125387 193.191733,561.612896 C193.191733,573.108738 202.541741,582.454579 214.033417,582.454579 L324.904339,582.454579 C343.287687,582.454579 358.246032,567.5004 358.246032,549.112886 C358.246032,530.725371 343.287687,515.767026 324.904339,515.767026 C321.125169,515.767026 317.354333,516.433693 313.700163,517.746194 L310.258494,518.979528 L308.583492,515.725359 C300.679319,500.325347 285.054307,490.758672 267.800126,490.758672 C242.520939,490.758672 221.95009,511.329522 221.95009,536.608709 L221.95009,541.43788 L217.191752,541.042046 C216.154252,540.887879 215.112584,540.775379 214.033417,540.775379 M220.400088,608.200433 C222.029256,606.571265 224.662592,606.571265 226.29176,608.200433 C227.920928,609.829601 227.920928,612.462936 226.29176,614.092104 L226.29176,614.092104 L213.491749,626.892115 C212.675082,627.708782 211.612581,628.112949 210.545914,628.112949 C209.479246,628.112949 208.412579,627.708782 207.600078,626.892115 C205.97091,625.267113 205.97091,622.629611 207.600078,621.000443 L207.600078,621.000443 Z M270.995962,608.200433 C272.62513,606.571265 275.258466,606.571265 276.887634,608.200433 C278.516801,609.829601 278.516801,612.462936 276.887634,614.092104 L276.887634,614.092104 L264.087623,626.892115 C263.270956,627.708782 262.208455,628.112949 261.141788,628.112949 C260.07512,628.112949 259.008453,627.708782 258.195952,626.892115 C256.566784,625.267113 256.566784,622.629611 258.195952,621.000443 L258.195952,621.000443 Z M321.587669,608.200433 C323.216837,606.571265 325.850173,606.571265 327.479341,608.200433 C329.108509,609.829601 329.108509,612.462936 327.479341,614.092104 L327.479341,614.092104 L314.67933,626.892115 C313.862663,627.708782 312.800162,628.112949 311.733495,628.112949 C310.666827,628.112949 309.60016,627.708782 308.787659,626.892115 C307.158491,625.267113 307.158491,622.629611 308.787659,621.000443 L308.787659,621.000443 Z M267.800126,482.425332 C287.012642,482.425332 304.520989,492.458674 314.29183,508.833687 C317.775166,507.904519 321.333502,507.433686 324.904339,507.433686 C347.883524,507.433686 366.579372,526.129534 366.579372,549.112886 C366.579372,572.092071 347.883524,590.787919 324.904339,590.787919 L214.033417,590.787919 C197.945904,590.787919 184.858393,577.700409 184.858393,561.612896 C184.858393,545.60455 197.82507,532.562872 213.812583,532.442039 C216.062585,504.36285 239.420937,482.425332 267.800126,482.425332 Z" id="中雨"></path>
        </g>
    </g>
</svg>