<?xml version="1.0" encoding="UTF-8"?>
<svg width="183px" height="212px" viewBox="0 0 183 212" version="1.1" xmlns="http://www.w3.org/2000/svg" xmlns:xlink="http://www.w3.org/1999/xlink">
    <title>晚间小雨</title>
    <g id="首页" stroke="none" stroke-width="1" fill="none" fill-rule="evenodd">
        <g id="天气图标" transform="translate(-1433.000000, -1018.000000)" fill="#FFFFFF">
            <path d="M1545.67198,1217.35925 C1549.12198,1217.35925 1551.92199,1220.15926 1551.92199,1223.60926 C1551.92199,1227.06759 1549.12198,1229.85926 1545.67198,1229.85926 C1542.22615,1229.85926 1539.42198,1227.06759 1539.42198,1223.60926 C1539.42198,1220.15926 1542.22615,1217.35925 1545.67198,1217.35925 Z M1504.00528,1217.35925 C1507.45528,1217.35925 1510.25529,1220.15926 1510.25529,1223.60926 C1510.25529,1227.06759 1507.45528,1229.85926 1504.00528,1229.85926 C1500.55945,1229.85926 1497.75528,1227.06759 1497.75528,1223.60926 C1497.75528,1220.15926 1500.55945,1217.35925 1504.00528,1217.35925 Z M1483.17193,1192.23007 C1486.62193,1192.23007 1489.42194,1195.03007 1489.42194,1198.48007 C1489.42194,1201.93841 1486.62193,1204.73008 1483.17193,1204.73008 C1479.7261,1204.73008 1476.92193,1201.93841 1476.92193,1198.48007 C1476.92193,1195.03007 1479.7261,1192.23007 1483.17193,1192.23007 Z M1524.83863,1192.23007 C1528.28863,1192.23007 1531.08864,1195.03007 1531.08864,1198.48007 C1531.08864,1201.93841 1528.28863,1204.73008 1524.83863,1204.73008 C1521.3928,1204.73008 1518.58863,1201.93841 1518.58863,1198.48007 C1518.58863,1195.03007 1521.3928,1192.23007 1524.83863,1192.23007 Z M1566.50533,1192.23007 C1569.95533,1192.23007 1572.75534,1195.03007 1572.75534,1198.48007 C1572.75534,1201.93841 1569.95533,1204.73008 1566.50533,1204.73008 C1563.0595,1204.73008 1560.25533,1201.93841 1560.25533,1198.48007 C1560.25533,1195.03007 1563.0595,1192.23007 1566.50533,1192.23007 Z M1516.91779,1074.59247 C1534.17197,1074.59247 1549.79699,1084.15498 1557.70116,1099.55916 L1557.70116,1099.55916 L1559.37616,1102.80916 L1562.81783,1101.57999 C1566.472,1100.25916 1570.24283,1099.60083 1574.022,1099.60083 C1592.40952,1099.60083 1607.36786,1114.55917 1607.36786,1132.95085 C1607.36786,1151.3342 1592.40952,1166.29255 1574.022,1166.29255 L1574.022,1166.29255 L1463.15525,1166.29255 C1451.65941,1166.29255 1442.3094,1156.94254 1442.3094,1145.45086 C1442.3094,1133.95919 1451.65941,1124.60918 1463.15525,1124.60918 C1464.08442,1124.60918 1465.08025,1124.69251 1466.30109,1124.87585 L1466.30109,1124.87585 L1471.07192,1125.28418 L1471.07192,1120.44251 C1471.07192,1095.15916 1491.63861,1074.59247 1516.91779,1074.59247 Z M1557.33032,1019.22993 C1558.45116,1020.35493 1558.83033,1022.0216 1558.31366,1023.52577 C1556.80116,1027.90494 1556.03449,1032.40494 1556.03449,1036.90494 C1556.03449,1059.51329 1574.43034,1077.90498 1597.04286,1077.90498 C1601.48036,1077.90498 1605.90536,1077.16331 1610.19703,1075.70914 C1611.70953,1075.20497 1613.37204,1075.58831 1614.4887,1076.71747 C1615.6137,1077.84248 1615.99704,1079.50914 1615.4762,1081.01331 C1612.69089,1089.07119 1607.95626,1096.15441 1601.65215,1101.76498 C1610.26515,1109.40578 1615.7012,1120.55318 1615.7012,1132.95085 C1615.7012,1155.92587 1597.00536,1174.62589 1574.022,1174.62589 L1463.15525,1174.62589 C1447.06774,1174.62589 1433.97606,1161.53838 1433.97606,1145.45086 C1433.97606,1129.44252 1446.92607,1116.41334 1462.89692,1116.27584 C1465.03442,1088.33832 1488.44694,1066.25913 1516.91779,1066.25913 C1517.79814,1066.25913 1518.67491,1066.2802 1519.54753,1066.32198 C1519.53267,1065.85678 1519.52613,1065.39101 1519.52613,1064.9258 C1519.52613,1043.78411 1532.99281,1025.01743 1553.03449,1018.22159 C1554.55116,1017.71743 1556.21366,1018.10076 1557.33032,1019.22993 Z M1548.27615,1029.4841 C1535.80531,1036.71744 1527.85947,1050.12162 1527.85947,1064.9258 C1527.85947,1065.74272 1527.8844,1066.56214 1527.93278,1067.3796 C1542.67365,1070.41984 1555.54681,1079.49037 1563.4095,1092.66749 C1566.89283,1091.73832 1570.45117,1091.26749 1574.022,1091.26749 C1581.53305,1091.26749 1588.58618,1093.26377 1594.67851,1096.75402 C1598.45714,1093.67105 1601.67761,1089.90662 1604.15953,1085.70915 C1601.79703,1086.05915 1599.42202,1086.23832 1597.04286,1086.23832 C1569.8345,1086.23832 1547.70115,1064.10496 1547.70115,1036.90494 C1547.70115,1034.42577 1547.89282,1031.95077 1548.27615,1029.4841 Z" id="晚间小雨"></path>
        </g>
    </g>
</svg>