<?xml version="1.0" encoding="UTF-8"?>
<svg width="183px" height="216px" viewBox="0 0 183 216" version="1.1" xmlns="http://www.w3.org/2000/svg" xmlns:xlink="http://www.w3.org/1999/xlink">
    <title>晚间闪电雨</title>
    <g id="首页" stroke="none" stroke-width="1" fill="none" fill-rule="evenodd">
        <g id="天气图标" transform="translate(-1433.000000, -434.000000)" fill="#FFFFFF">
            <path d="M1473.68442,608.6171 C1475.31359,606.987932 1477.94693,606.987932 1479.5761,608.6171 C1481.20526,610.246268 1481.20526,612.879603 1479.5761,614.508771 L1479.5761,614.508771 L1466.77609,627.308782 C1465.95942,628.125449 1464.89692,628.529616 1463.83025,628.529616 C1462.76358,628.529616 1461.69691,628.125449 1460.88441,627.308782 C1459.25525,625.68378 1459.25525,623.046278 1460.88441,621.41711 L1460.88441,621.41711 Z M1579.03034,608.6171 C1580.65951,606.987932 1583.29285,606.987932 1584.92201,608.6171 C1586.55118,610.246268 1586.55118,612.879603 1584.92201,614.508771 L1584.92201,614.508771 L1572.122,627.308782 C1571.30534,628.125449 1570.24283,628.529616 1569.17617,628.529616 C1568.1095,628.529616 1567.04283,628.125449 1566.23033,627.308782 C1564.60116,625.68378 1564.60116,623.046278 1566.23033,621.41711 L1566.23033,621.41711 Z M1516.91779,491.258673 C1534.17197,491.258673 1549.79699,500.825347 1557.70116,516.225359 L1557.70116,516.225359 L1559.37616,519.479529 L1562.81783,518.246194 C1566.472,516.933693 1570.24283,516.267026 1574.022,516.267026 C1592.40952,516.267026 1607.36786,531.225371 1607.36786,549.612886 C1607.36786,568.000401 1592.40952,582.954579 1574.022,582.954579 L1574.022,582.954579 L1463.15525,582.954579 C1451.65941,582.954579 1442.3094,573.608739 1442.3094,562.112896 C1442.3094,550.625387 1451.65941,541.275379 1463.15525,541.275379 C1464.23025,541.275379 1465.27608,541.38788 1466.31359,541.542046 L1466.31359,541.542046 L1471.07192,541.93788 L1471.07192,537.108709 C1471.07192,511.829523 1491.63861,491.258673 1516.91779,491.258673 Z M1557.33032,435.891962 C1558.45116,437.021129 1558.83033,438.687797 1558.31366,440.187799 C1556.80116,444.571135 1556.03449,449.071139 1556.03449,453.562809 C1556.03449,476.175327 1574.43034,494.567009 1597.04286,494.567009 C1601.47619,494.567009 1605.90536,493.829508 1610.19703,492.37534 C1611.70953,491.858673 1613.37204,492.254507 1614.4887,493.383674 C1615.6137,494.508675 1615.99704,496.175343 1615.4762,497.679511 C1612.69074,505.734389 1607.95576,512.820138 1601.65115,518.431749 C1610.26472,526.072302 1615.7012,537.219222 1615.7012,549.612886 C1615.7012,572.592071 1597.00536,591.287919 1574.022,591.287919 L1538.29006,591.287383 L1535.93864,602.746262 L1552.85532,602.746262 L1516.02196,649.829633 L1522.9553,616.004606 L1505.15112,616.004606 L1510.21606,591.287383 L1463.15525,591.287919 C1447.06774,591.287919 1433.97606,578.200409 1433.97606,562.112896 C1433.97606,546.112883 1446.92607,533.07954 1462.89692,532.942039 C1465.03442,505.004517 1488.44694,482.925333 1516.91779,482.925333 C1517.79814,482.925333 1518.67491,482.946399 1519.54753,482.988176 C1519.53275,482.520166 1519.52613,482.051537 1519.52613,481.583665 C1519.52613,460.450315 1532.99281,441.679466 1553.03449,434.883628 C1554.55116,434.375294 1556.21366,434.766961 1557.33032,435.891962 Z M1548.27615,446.15447 C1535.80531,453.383642 1527.85947,466.78782 1527.85947,481.583665 C1527.85947,482.404122 1527.8845,483.227083 1527.93308,484.046946 C1542.67365,487.086036 1555.54681,496.156565 1563.4095,509.333687 C1566.89283,508.40452 1570.45117,507.933686 1574.022,507.933686 C1581.53181,507.933686 1588.58387,509.929759 1594.67552,513.41926 C1598.45652,510.335187 1601.68046,506.57042 1604.15953,502.375348 C1601.79703,502.725349 1599.42202,502.900349 1597.04286,502.900349 C1569.8345,502.900349 1547.70115,480.766998 1547.70115,453.562809 C1547.70115,451.087807 1547.89282,448.612805 1548.27615,446.15447 Z" id="晚间闪电雨"></path>
        </g>
    </g>
</svg>