<?xml version="1.0" encoding="UTF-8"?>
<svg width="183px" height="177px" viewBox="0 0 183 177" version="1.1" xmlns="http://www.w3.org/2000/svg" xmlns:xlink="http://www.w3.org/1999/xlink">
    <title>晚间多雾</title>
    <g id="首页" stroke="none" stroke-width="1" fill="none" fill-rule="evenodd">
        <g id="天气图标" transform="translate(-684.000000, -1018.000000)" fill="#FFFFFF">
            <path d="M822.78807,1133.53002 C819.417234,1133.53002 816.129732,1134.08419 812.967229,1135.17585 C805.963057,1123.43835 793.175547,1116.05084 779.371369,1116.05084 C759.246353,1116.05084 742.621339,1131.31752 740.475504,1151.0592 C731.342164,1151.60503 723.800491,1157.87171 721.183822,1166.29255 L714.033817,1166.29255 C702.542141,1166.29255 693.187967,1156.94254 693.187967,1145.45086 C693.187967,1133.96335 702.542141,1124.60918 714.033817,1124.60918 C714.962984,1124.60918 715.958818,1124.69251 717.179652,1124.88001 L721.954656,1125.28418 L721.954656,1120.44251 C721.954656,1095.15916 742.517173,1074.59247 767.800526,1074.59247 C785.05054,1074.59247 800.675553,1084.15498 808.583892,1099.56333 L810.254727,1102.80916 L813.696396,1101.57999 C817.350566,1100.26333 821.125569,1099.60083 824.904739,1099.60083 C843.292253,1099.60083 858.250599,1114.55917 858.250599,1132.95085 C858.250599,1140.43003 855.754763,1147.5842 851.258926,1153.38004 C846.954756,1141.80503 835.838081,1133.53002 822.78807,1133.53002 M822.78807,1185.9884 L741.783839,1185.9884 C734.438,1185.9884 728.458828,1180.00506 728.458828,1172.66755 C728.458828,1165.32588 734.438,1159.35087 741.783839,1159.35087 C742.463006,1159.35087 743.13384,1159.42587 743.78384,1159.52171 L748.571344,1160.03421 L748.571344,1155.1842 C748.571344,1138.20086 762.388022,1124.38418 779.371369,1124.38418 C791.288045,1124.38418 802.246387,1131.38835 807.288058,1142.23836 L809.096393,1146.12586 L812.933896,1144.21336 C816.054732,1142.65086 819.371401,1141.86336 822.78807,1141.86336 C834.954747,1141.86336 844.850588,1151.7592 844.850588,1163.92588 C844.850588,1176.09255 834.954747,1185.9884 822.78807,1185.9884 M808.213059,1019.22993 C809.333893,1020.35493 809.71306,1022.0216 809.196393,1023.52577 C807.683891,1027.90494 806.917224,1032.40494 806.917224,1036.90494 C806.917224,1059.51329 825.313072,1077.90498 847.92559,1077.90498 C852.363094,1077.90498 856.788097,1077.16331 861.079768,1075.70914 C862.596435,1075.20497 864.25477,1075.58831 865.371438,1076.71747 C866.496439,1077.84248 866.879772,1079.50914 866.358938,1081.01331 C863.573332,1089.07204 858.83799,1096.1559 852.532887,1101.76676 C861.146278,1109.40705 866.583939,1120.55498 866.583939,1132.95085 C866.583939,1144.6217 861.683935,1155.61754 853.163095,1163.50088 C853.163095,1163.64254 853.183928,1163.78004 853.183928,1163.92588 C853.183928,1180.68006 839.546417,1194.32174 822.78807,1194.32174 L822.78807,1194.32174 L741.783839,1194.32174 C730.512996,1194.32174 721.333822,1185.63839 720.325488,1174.62589 L720.325488,1174.62589 L714.033817,1174.62589 C697.946304,1174.62589 684.854627,1161.54254 684.854627,1145.45086 C684.854627,1129.44668 697.808804,1116.41751 713.77965,1116.27584 C715.917151,1088.33832 739.32967,1066.25913 767.800526,1066.25913 C768.681217,1066.25913 769.558335,1066.28023 770.431296,1066.32208 C770.415407,1065.85678 770.408862,1065.39101 770.408862,1064.9258 C770.408862,1043.78411 783.875539,1025.01743 803.917222,1018.22159 C805.429723,1017.71743 807.092224,1018.10076 808.213059,1019.22993 Z M799.158885,1029.4841 C786.688041,1036.71744 778.742202,1050.12162 778.742202,1064.9258 C778.742202,1065.74306 778.767155,1066.56281 778.815574,1067.3806 C793.553694,1070.42218 806.425829,1079.49447 814.288063,1092.66749 C817.775566,1091.74249 821.329736,1091.26749 824.904739,1091.26749 C832.414008,1091.26749 839.46631,1093.264 845.558398,1096.75435 C849.33873,1093.67239 852.5599,1089.90737 855.042263,1085.70915 C852.679761,1086.05915 850.304759,1086.23832 847.92559,1086.23832 C820.717235,1086.23832 798.583884,1064.10496 798.583884,1036.90494 C798.583884,1034.42577 798.775551,1031.95077 799.158885,1029.4841 Z" id="晚间多雾"></path>
        </g>
    </g>
</svg>