<?xml version="1.0" encoding="UTF-8"?>
<svg width="183px" height="224px" viewBox="0 0 183 224" version="1.1" xmlns="http://www.w3.org/2000/svg" xmlns:xlink="http://www.w3.org/1999/xlink">
    <title>晚间大雨</title>
    <g id="首页" stroke="none" stroke-width="1" fill="none" fill-rule="evenodd">
        <g id="天气图标" transform="translate(-1433.000000, -726.000000)" fill="#FFFFFF">
            <path d="M1463.15525,832.942279 C1451.65941,832.942279 1442.3094,842.292287 1442.3094,853.783963 C1442.3094,865.275639 1451.65941,874.625646 1463.15525,874.625646 L1574.022,874.625646 C1592.40952,874.625646 1607.36786,859.667301 1607.36786,841.283953 C1607.36786,822.892271 1592.40952,807.933926 1574.022,807.933926 C1570.24283,807.933926 1566.472,808.59226 1562.81783,809.913094 L1559.37616,811.142262 L1557.70116,807.892259 C1549.79699,792.48808 1534.17197,782.925573 1516.91779,782.925573 C1491.63861,782.925573 1471.07192,803.492256 1471.07192,828.775609 L1471.07192,833.61728 L1466.30109,833.208946 C1465.08025,833.025613 1464.08442,832.942279 1463.15525,832.942279 M1483.15943,929.484023 C1484.7886,927.854855 1487.42194,927.854855 1489.0511,929.484023 C1490.68027,931.113191 1490.68027,933.746527 1489.0511,935.375695 L1489.0511,935.375695 L1476.25109,948.175705 C1475.43443,948.992372 1474.37192,949.396539 1473.30526,949.396539 C1472.23859,949.396539 1471.17192,948.992372 1470.35942,948.175705 C1468.73025,946.550704 1468.73025,943.913202 1470.35942,942.284034 L1470.35942,942.284034 Z M1533.75114,929.484023 C1535.38031,927.854855 1538.01364,927.854855 1539.64281,929.484023 C1541.27198,931.113191 1541.27198,933.746527 1539.64281,935.375695 L1539.64281,935.375695 L1526.8428,948.175705 C1526.02613,948.992372 1524.96363,949.396539 1523.89696,949.396539 C1522.8303,949.396539 1521.76363,948.992372 1520.95113,948.175705 C1519.32196,946.550704 1519.32196,943.913202 1520.95113,942.284034 L1520.95113,942.284034 Z M1469.51775,900.188167 C1471.14692,898.558999 1473.78026,898.558999 1475.40943,900.188167 C1477.03859,901.817335 1477.03859,904.45067 1475.40943,906.079838 L1475.40943,906.079838 L1462.60942,918.879848 C1461.79275,919.696515 1460.73025,920.100682 1459.66358,920.100682 C1458.59691,920.100682 1457.53024,919.696515 1456.71774,918.879848 C1455.08858,917.254847 1455.08858,914.617345 1456.71774,912.988177 L1456.71774,912.988177 Z M1520.11363,900.188167 C1521.7428,898.558999 1524.37613,898.558999 1526.0053,900.188167 C1527.63447,901.817335 1527.63447,904.45067 1526.0053,906.079838 L1526.0053,906.079838 L1513.20529,918.879848 C1512.38862,919.696515 1511.32612,920.100682 1510.25945,920.100682 C1509.19279,920.100682 1508.12612,919.696515 1507.31362,918.879848 C1505.68445,917.254847 1505.68445,914.617345 1507.31362,912.988177 L1507.31362,912.988177 Z M1570.70534,900.188167 C1572.3345,898.558999 1574.96784,898.558999 1576.59701,900.188167 C1578.22617,901.817335 1578.22617,904.45067 1576.59701,906.079838 L1576.59701,906.079838 L1563.797,918.879848 C1562.98033,919.696515 1561.91783,920.100682 1560.85116,920.100682 C1559.78449,920.100682 1558.71783,919.696515 1557.90532,918.879848 C1556.27616,917.254847 1556.27616,914.617345 1557.90532,912.988177 L1557.90532,912.988177 Z M1557.33032,727.558862 C1558.45116,728.683863 1558.83033,730.350531 1558.31366,731.854699 C1556.80116,736.238035 1556.03449,740.738039 1556.03449,745.238043 C1556.03449,767.846394 1574.43034,786.238075 1597.04286,786.238075 C1601.48036,786.238075 1605.90536,785.496408 1610.19703,784.04224 C1611.70953,783.52974 1613.37204,783.921407 1614.4887,785.050574 C1615.6137,786.175575 1615.99704,787.842243 1615.4762,789.346411 C1612.69089,797.40429 1607.95626,804.487507 1601.65215,810.098085 C1610.26515,817.738883 1615.7012,828.886277 1615.7012,841.283953 C1615.7012,864.258971 1597.00536,882.958986 1574.022,882.958986 L1463.15525,882.958986 C1447.06774,882.958986 1433.97606,869.871476 1433.97606,853.783963 C1433.97606,837.775617 1446.92607,824.74644 1462.89692,824.608939 C1465.03025,796.671417 1488.44277,774.592233 1516.91779,774.592233 C1517.79819,774.592233 1518.675,774.613292 1519.54763,774.655056 C1519.53268,774.190542 1519.52613,773.724439 1519.52613,773.258898 C1519.52613,752.117215 1532.99281,733.346366 1553.03449,726.550528 C1554.55116,726.033861 1556.21366,726.429694 1557.33032,727.558862 Z M1548.27615,737.817203 C1535.80531,745.050542 1527.85947,758.45472 1527.85947,773.258898 C1527.85947,774.075825 1527.8844,774.895244 1527.93278,775.712703 C1542.67519,778.752116 1555.54646,787.82287 1563.4095,801.000587 C1566.89283,800.07142 1570.45117,799.600586 1574.022,799.600586 C1581.53264,799.600586 1588.58541,801.59665 1594.67751,805.086551 C1598.45766,802.004819 1601.6809,798.240094 1604.15953,794.042248 C1601.79703,794.392249 1599.42202,794.571415 1597.04286,794.571415 C1569.8345,794.571415 1547.70115,772.438064 1547.70115,745.238043 C1547.70115,742.758874 1547.89282,740.279705 1548.27615,737.817203 Z" id="晚间大雨"></path>
        </g>
    </g>
</svg>