<?xml version="1.0" encoding="UTF-8"?>
<svg width="183px" height="224px" viewBox="0 0 183 224" version="1.1" xmlns="http://www.w3.org/2000/svg" xmlns:xlink="http://www.w3.org/1999/xlink">
    <title>晚间雷阵雨</title>
    <g id="首页" stroke="none" stroke-width="1" fill="none" fill-rule="evenodd">
        <g id="天气图标" transform="translate(-684.000000, -726.000000)" fill="#FFFFFF">
            <path d="M738.833836,929.58819 C740.463004,927.959022 743.09634,927.959022 744.725508,929.58819 C746.354676,931.217358 746.354676,933.850693 744.725508,935.479861 L744.725508,935.479861 L731.925498,948.279872 C731.10883,949.096539 730.046329,949.500706 728.979662,949.500706 C727.912994,949.500706 726.846327,949.096539 726.033826,948.279872 C724.404658,946.65487 724.404658,944.017368 726.033826,942.3882 L726.033826,942.3882 Z M806.09639,929.58819 C807.725558,927.959022 810.358894,927.959022 811.988062,929.58819 C813.61723,931.217358 813.61723,933.850693 811.988062,935.479861 L811.988062,935.479861 L799.188051,948.279872 C798.371384,949.096539 797.308883,949.500706 796.242216,949.500706 C795.175548,949.500706 794.108881,949.096539 793.29638,948.279872 C791.667212,946.65487 791.667212,944.017368 793.29638,942.3882 L793.29638,942.3882 Z M726.04216,900.284 C727.671327,898.654832 730.304663,898.654832 731.933831,900.284 C733.562999,901.913168 733.562999,904.546503 731.933831,906.175671 L731.933831,906.175671 L719.133821,918.975682 C718.317153,919.792349 717.254652,920.196516 716.187985,920.196516 C715.121317,920.196516 714.05465,919.792349 713.242149,918.975682 C711.612981,917.35068 711.612981,914.713178 713.242149,913.08401 L713.242149,913.08401 Z M835.554747,900.284 C837.183915,898.654832 839.817251,898.654832 841.446418,900.284 C843.075586,901.913168 843.075586,904.546503 841.446418,906.175671 L841.446418,906.175671 L828.646408,918.975682 C827.829741,919.792349 826.76724,920.196516 825.700573,920.196516 C824.633905,920.196516 823.567238,919.792349 822.754737,918.975682 C821.125569,917.35068 821.125569,914.713178 822.754737,913.08401 L822.754737,913.08401 Z M767.800526,782.925573 C785.054707,782.925573 800.679719,792.48808 808.583892,807.892259 L808.583892,807.892259 L810.258894,811.142262 L813.700563,809.913094 C817.354733,808.59226 821.125569,807.933926 824.904739,807.933926 C843.292253,807.933926 858.250599,822.892271 858.250599,841.283953 C858.250599,859.667301 843.292253,874.625646 824.904739,874.625646 L824.904739,874.625646 L714.037983,874.625646 C702.542141,874.625646 693.192133,865.275639 693.192133,853.783963 C693.192133,842.292287 702.542141,832.942279 714.037983,832.942279 C714.967151,832.942279 715.962985,833.025613 717.183819,833.208946 L717.183819,833.208946 L721.954656,833.61728 L721.954656,828.775609 C721.954656,803.492256 742.521339,782.925573 767.800526,782.925573 Z M808.213059,727.558862 C809.333893,728.683863 809.71306,730.350531 809.196393,731.854699 C807.683891,736.238035 806.917224,740.738039 806.917224,745.238043 C806.917224,767.846394 825.313072,786.238075 847.92559,786.238075 C852.363094,786.238075 856.788097,785.496408 861.079768,784.04224 C862.596435,783.52974 864.25477,783.921407 865.371438,785.050574 C866.496439,786.175575 866.879772,787.842243 866.358938,789.346411 C863.573626,797.40429 858.83899,804.487507 852.534885,810.098085 C861.14788,817.738883 866.583939,828.886277 866.583939,841.283953 C866.583939,864.258971 847.88809,882.958986 824.904739,882.958986 L789.172793,882.958876 L786.821375,894.417329 L803.738055,894.417329 L766.904692,941.5007 L773.838031,907.671506 L756.03385,907.671506 L761.098793,882.958876 L714.037983,882.958986 C697.95047,882.958986 684.858793,869.871476 684.858793,853.783963 C684.858793,837.775617 697.808804,824.74644 713.77965,824.608939 C715.912985,796.671417 739.325503,774.592233 767.800526,774.592233 C768.680926,774.592233 769.557732,774.613292 770.430364,774.655056 C770.415417,774.190542 770.408862,773.724439 770.408862,773.258898 C770.408862,752.117215 783.875539,733.346366 803.917222,726.550528 C805.429723,726.033861 807.092224,726.429694 808.213059,727.558862 Z M799.158885,737.817203 C786.688041,745.050542 778.742202,758.45472 778.742202,773.258898 C778.742202,774.075825 778.767134,774.895244 778.815515,775.712703 C793.557922,778.752116 806.42919,787.82287 814.29223,801.000587 C817.775566,800.07142 821.333902,799.600586 824.904739,799.600586 C832.41537,799.600586 839.468143,801.59665 845.560249,805.086551 C849.340398,802.004819 852.563635,798.240094 855.042263,794.042248 C852.679761,794.392249 850.304759,794.571415 847.92559,794.571415 C820.717235,794.571415 798.583884,772.438064 798.583884,745.238043 C798.583884,742.758874 798.775551,740.279705 799.158885,737.817203 Z" id="晚间雷阵雨"></path>
        </g>
    </g>
</svg>