<?xml version="1.0" encoding="UTF-8"?>
<svg width="183px" height="195px" viewBox="0 0 183 195" version="1.1" xmlns="http://www.w3.org/2000/svg" xmlns:xlink="http://www.w3.org/1999/xlink">
    <title>晚间中雨</title>
    <g id="首页" stroke="none" stroke-width="1" fill="none" fill-rule="evenodd">
        <g id="天气图标" transform="translate(-684.000000, -434.000000)" fill="#FFFFFF">
            <path d="M714.037983,540.858712 C702.542141,540.858712 693.192133,550.20872 693.192133,561.696229 C693.192133,573.192072 702.542141,582.537912 714.037983,582.537912 L824.904739,582.537912 C843.292253,582.537912 858.250599,567.583734 858.250599,549.196219 C858.250599,530.808704 843.292253,515.850359 824.904739,515.850359 C821.125569,515.850359 817.354733,516.517026 813.700563,517.829527 L810.258894,519.062862 L808.583892,515.808692 C800.679719,500.40868 785.054707,490.842006 767.800526,490.842006 C742.521339,490.842006 721.954656,511.412856 721.954656,536.692042 L721.954656,541.521213 L717.196319,541.125379 C716.158818,540.971213 715.112984,540.858712 714.037983,540.858712 M720.400488,608.200433 C722.029656,606.571265 724.662992,606.571265 726.29216,608.200433 C727.921328,609.829601 727.921328,612.462936 726.29216,614.092104 L726.29216,614.092104 L713.492149,626.892115 C712.675482,627.708782 711.612981,628.112949 710.546314,628.112949 C709.479646,628.112949 708.412979,627.708782 707.600478,626.892115 C705.97131,625.267113 705.97131,622.629611 707.600478,621.000443 L707.600478,621.000443 Z M770.996362,608.200433 C772.62553,606.571265 775.258866,606.571265 776.888034,608.200433 C778.517201,609.829601 778.517201,612.462936 776.888034,614.092104 L776.888034,614.092104 L764.088023,626.892115 C763.271356,627.708782 762.208855,628.112949 761.142188,628.112949 C760.07552,628.112949 759.008853,627.708782 758.196352,626.892115 C756.567184,625.267113 756.567184,622.629611 758.196352,621.000443 L758.196352,621.000443 Z M821.588069,608.200433 C823.217237,606.571265 825.850573,606.571265 827.479741,608.200433 C829.108909,609.829601 829.108909,612.462936 827.479741,614.092104 L827.479741,614.092104 L814.67973,626.892115 C813.863063,627.708782 812.800562,628.112949 811.733895,628.112949 C810.667227,628.112949 809.60056,627.708782 808.788059,626.892115 C807.158891,625.267113 807.158891,622.629611 808.788059,621.000443 L808.788059,621.000443 Z M808.213059,435.479461 C809.333893,436.608629 809.71306,438.275297 809.196393,439.775298 C807.683891,444.158635 806.917224,448.658639 806.917224,453.150309 C806.917224,475.762827 825.313072,494.154508 847.92559,494.154508 C852.358927,494.154508 856.788097,493.417008 861.079768,491.96284 C862.596435,491.446173 864.25477,491.846173 865.371438,492.971174 C866.496439,494.096175 866.879772,495.762843 866.358938,497.267011 C863.573773,505.321038 858.83949,512.406141 852.535883,518.01747 C861.148303,525.657368 866.583939,536.803519 866.583939,549.196219 C866.583939,572.175404 847.88809,590.871252 824.904739,590.871252 L714.037983,590.871252 C697.95047,590.871252 684.858793,577.783742 684.858793,561.696229 C684.858793,545.696216 697.808804,532.662873 713.77965,532.525372 C715.917151,504.58785 739.32967,482.508666 767.800526,482.508666 C768.680876,482.508666 769.557648,482.529732 770.430261,482.571509 C770.415445,482.104997 770.408862,481.637705 770.408862,481.171165 C770.408862,460.037814 783.875539,441.266966 803.917222,434.471127 C805.429723,433.962794 807.092224,434.354461 808.213059,435.479461 Z M799.158885,445.74197 C786.688041,452.971142 778.742202,466.375319 778.742202,481.171165 C778.742202,481.990663 778.767178,482.811826 778.815641,483.630189 C793.556387,486.669369 806.429545,495.739898 814.29223,508.91702 C817.775566,507.987853 821.333902,507.517019 824.904739,507.517019 C832.41578,507.517019 839.468914,509.513746 845.561248,513.004309 C849.340969,509.920688 852.563855,506.156806 855.042263,501.962848 C852.679761,502.312848 850.304759,502.487848 847.92559,502.487848 C820.717235,502.487848 798.583884,480.354497 798.583884,453.150309 C798.583884,450.675307 798.775551,448.200305 799.158885,445.74197 Z" id="晚间中雨"></path>
        </g>
    </g>
</svg>