<?xml version="1.0" encoding="UTF-8"?>
<svg width="100px" height="72px" viewBox="0 0 100 72" version="1.1" xmlns="http://www.w3.org/2000/svg" xmlns:xlink="http://www.w3.org/1999/xlink">
    <title>暂无数据</title>
    <g id="页面-1" stroke="none" stroke-width="1" fill="none" fill-rule="evenodd">
        <g id="提示图标/组件" transform="translate(-344.000000, -129.000000)">
            <g id="编组-5" transform="translate(66.000000, 41.000000)">
                <g id="分组" transform="translate(278.000000, 83.000000)">
                    <path d="M99,64.4 L99.6,75 C99.6,75.4418278 99.4209139,75.8418278 99.1313708,76.1313708 C98.8418278,76.4209139 98.4418278,76.6 98,76.6 L98,76.6 L2,76.6 C1.5581722,76.6 1.1581722,76.4209139 0.86862915,76.1313708 C0.5790861,75.8418278 0.4,75.4418278 0.4,75 L0.4,75 L0.4,65 L99,64.4 Z" id="矩形" stroke="#D0DAED" stroke-width="0.8" fill="#FFFFFF"></path>
                    <path d="M67.6,64.4 L67.6,70 C67.6,70.4418278 67.4209139,70.8418278 67.1313708,71.1313708 C66.8418278,71.4209139 66.4418278,71.6 66,71.6 L66,71.6 L36,71.6 C35.5581722,71.6 35.1581722,71.4209139 34.8686292,71.1313708 C34.5790861,70.8418278 34.4,70.4418278 34.4,70 L34.4,70 L34.4,64.4 L67.6,64.4 Z" id="矩形" stroke="#D0DAED" stroke-width="0.8" fill="#FFFFFF"></path>
                    <rect id="矩形" stroke="#979797" fill="#D8D8D8" fill-rule="nonzero" x="26.5" y="27.5" width="15" height="1" rx="0.5"></rect>
                    <rect id="矩形-copy-4" stroke="#979797" fill="#D8D8D8" fill-rule="nonzero" x="26.5" y="33.5" width="15" height="1" rx="0.5"></rect>
                    <rect id="矩形-copy-11" stroke="#979797" fill="#D8D8D8" fill-rule="nonzero" x="26.5" y="52.5" width="49" height="1" rx="0.5"></rect>
                    <path d="M93,5.5 C93.4142136,5.5 93.7892136,5.66789322 94.0606602,5.93933983 C94.3321068,6.21078644 94.5,6.58578644 94.5,7 L94.5,7 L94.5,64.5 L7.5,64.5 L7.5,7 C7.5,6.58578644 7.66789322,6.21078644 7.93933983,5.93933983 C8.21078644,5.66789322 8.58578644,5.5 9,5.5 L9,5.5 Z" id="矩形" stroke="#D0DAED" fill="#F5F8FE"></path>
                    <rect id="矩形" stroke="#D0DAED" fill="#FFFFFF" x="14.5" y="12.5" width="73" height="47" rx="2"></rect>
                    <path d="M39,45.5 C39.4142136,45.5 39.7892136,45.6678932 40.0606602,45.9393398 C40.3321068,46.2107864 40.5,46.5857864 40.5,47 L40.5,47 L40.5,52.5 L29.5,52.5 L29.5,47 C29.5,46.5857864 29.6678932,46.2107864 29.9393398,45.9393398 C30.2107864,45.6678932 30.5857864,45.5 31,45.5 L31,45.5 Z" id="矩形" stroke="#D0DAED" fill="#F5F8FE"></path>
                    <path d="M55,37.5 C55.4142136,37.5 55.7892136,37.6678932 56.0606602,37.9393398 C56.3321068,38.2107864 56.5,38.5857864 56.5,39 L56.5,39 L56.5,52.5 L45.5,52.5 L45.5,39 C45.5,38.5857864 45.6678932,38.2107864 45.9393398,37.9393398 C46.2107864,37.6678932 46.5857864,37.5 47,37.5 L47,37.5 Z" id="矩形-copy" stroke="#D0DAED" fill="#F5F8FE"></path>
                    <path d="M71,27.5 C71.4142136,27.5 71.7892136,27.6678932 72.0606602,27.9393398 C72.3321068,28.2107864 72.5,28.5857864 72.5,29 L72.5,29 L72.5,52.5 L61.5,52.5 L61.5,29 C61.5,28.5857864 61.6678932,28.2107864 61.9393398,27.9393398 C62.2107864,27.6678932 62.5857864,27.5 63,27.5 L63,27.5 Z" id="矩形-copy-2" stroke="#D0DAED" fill="#F5F8FE"></path>
                </g>
            </g>
        </g>
    </g>
</svg>