<?xml version="1.0" encoding="UTF-8"?>
<svg width="140px" height="140px" viewBox="0 0 140 140" version="1.1" xmlns="http://www.w3.org/2000/svg" xmlns:xlink="http://www.w3.org/1999/xlink">
    <title>晴</title>
    <g id="首页" stroke="none" stroke-width="1" fill="none" fill-rule="evenodd">
        <g id="天气图标" transform="translate(-706.000000, -1319.000000)" fill="#FFFFFF">
            <path d="M803.254721,1388.86772 C803.254721,1404.05524 790.900545,1416.39691 775.717199,1416.39691 C760.533854,1416.39691 748.179677,1404.05524 748.179677,1388.86772 C748.179677,1373.68021 760.533854,1361.3302 775.717199,1361.3302 C790.900545,1361.3302 803.254721,1373.68021 803.254721,1388.86772 M775.729699,1435.74276 C778.029701,1435.74276 779.892203,1437.6136 779.892203,1439.91776 L779.892203,1439.91776 L779.883869,1454.08444 C779.883869,1456.38028 778.017201,1458.24278 775.717199,1458.24278 L775.717199,1458.24278 C773.413031,1458.24278 771.550529,1456.38028 771.550529,1454.07611 L771.550529,1454.07611 L771.558863,1439.90943 C771.558863,1437.60526 773.425531,1435.74276 775.725533,1435.74276 L775.725533,1435.74276 Z M746.588009,1430.98859 C747.73801,1428.98859 750.288012,1428.32192 752.27968,1429.46776 C754.275515,1430.61359 754.958849,1433.16359 753.804682,1435.15526 L753.804682,1435.15526 L746.717176,1447.43027 C745.942175,1448.77194 744.546341,1449.51361 743.104673,1449.51361 C742.396339,1449.51361 741.679672,1449.33444 741.025505,1448.95944 C739.02967,1447.8011 738.346336,1445.25527 739.500504,1443.2636 L739.500504,1443.2636 Z M799.163051,1429.45942 C801.146386,1428.30526 803.700555,1428.98442 804.854723,1430.98026 L804.854723,1430.98026 L811.938062,1443.25943 C813.092229,1445.25527 812.404729,1447.8011 810.41306,1448.95944 C809.758893,1449.33027 809.042226,1449.50944 808.333892,1449.50944 C806.892224,1449.50944 805.492223,1448.76361 804.721389,1447.4261 L804.721389,1447.4261 L797.63805,1435.14693 C796.483883,1433.15109 797.167216,1430.60942 799.163051,1429.45942 Z M729.425496,1410.78441 C731.412997,1409.63024 733.962999,1410.31357 735.117167,1412.30524 C736.271334,1414.30108 735.588,1416.84691 733.592166,1418.00108 L733.592166,1418.00108 L721.321322,1425.09275 C720.662989,1425.46359 719.950488,1425.64275 719.242154,1425.64275 C717.800486,1425.64275 716.400485,1424.90525 715.625484,1423.55942 C714.475484,1421.56775 715.158817,1419.02191 717.154652,1417.87191 L717.154652,1417.87191 Z M816.321398,1412.29691 C817.471399,1410.29691 820.017235,1409.62191 822.01307,1410.77608 L822.01307,1410.77608 L834.288079,1417.87191 C836.283914,1419.01775 836.967248,1421.57608 835.813081,1423.55942 C835.042247,1424.90109 833.642246,1425.64275 832.200578,1425.64275 C831.492244,1425.64275 830.775577,1425.46359 830.121409,1425.08859 L830.121409,1425.08859 L817.8464,1417.99275 C815.850565,1416.83858 815.167231,1414.29274 816.321398,1412.29691 Z M775.717199,1352.99686 C795.496382,1352.99686 811.588061,1369.09271 811.588061,1388.86772 C811.588061,1408.64274 795.496382,1424.73025 775.717199,1424.73025 C755.938017,1424.73025 739.846337,1408.64274 739.846337,1388.86772 C739.846337,1369.09271 755.938017,1352.99686 775.717199,1352.99686 Z M724.667158,1384.69272 C726.971327,1384.69272 728.833828,1386.55522 728.833828,1388.85939 C728.833828,1391.16356 726.971327,1393.02606 724.667158,1393.02606 L724.667158,1393.02606 L710.504647,1393.02606 C708.200479,1393.02606 706.337977,1391.16356 706.337977,1388.85939 C706.337977,1386.55522 708.200479,1384.69272 710.504647,1384.69272 L710.504647,1384.69272 Z M840.938085,1384.69272 C843.242253,1384.69272 845.104755,1386.55522 845.104755,1388.85939 C845.104755,1391.16356 843.242253,1393.02606 840.938085,1393.02606 L840.938085,1393.02606 L826.76724,1393.02606 C824.463072,1393.02606 822.60057,1391.16356 822.60057,1388.85939 C822.60057,1386.55522 824.463072,1384.69272 826.76724,1384.69272 L826.76724,1384.69272 Z M830.117243,1352.64686 C832.100578,1351.48853 834.654746,1352.17186 835.813081,1354.1677 C836.963082,1356.15936 836.279748,1358.70937 834.283913,1359.86353 L834.283913,1359.86353 L822.008903,1366.95104 C821.354736,1367.32604 820.638069,1367.50521 819.929735,1367.50521 C818.488067,1367.50521 817.088066,1366.76354 816.317232,1365.42187 C815.163064,1363.42604 815.850565,1360.8802 817.842233,1359.73437 L817.842233,1359.73437 Z M715.625484,1354.1677 C716.779652,1352.17603 719.329654,1351.48853 721.321322,1352.64686 L721.321322,1352.64686 L733.592166,1359.72603 C735.588,1360.87187 736.271334,1363.42187 735.117167,1365.41354 C734.346333,1366.75104 732.946332,1367.49687 731.504664,1367.49687 C730.79633,1367.49687 730.079663,1367.31771 729.425496,1366.94271 L729.425496,1366.94271 L717.154652,1359.86353 C715.158817,1358.70937 714.475484,1356.16353 715.625484,1354.1677 Z M804.721389,1330.29684 C805.87139,1328.29684 808.417225,1327.62184 810.41306,1328.77601 C812.408895,1329.92184 813.092229,1332.47185 811.938062,1334.46351 L811.938062,1334.46351 L804.854723,1346.73019 C804.079722,1348.07186 802.683887,1348.81353 801.24222,1348.81353 C800.533886,1348.81353 799.817219,1348.63436 799.163051,1348.25936 C797.167216,1347.10102 796.483883,1344.55519 797.63805,1342.56352 L797.63805,1342.56352 Z M741.025505,1328.76768 C743.013006,1327.61351 745.563008,1328.29684 746.717176,1330.29268 L746.717176,1330.29268 L753.804682,1342.56352 C754.958849,1344.55936 754.275515,1347.10519 752.27968,1348.25936 C751.625513,1348.63436 750.908846,1348.81353 750.200512,1348.81353 C748.758844,1348.81353 747.36301,1348.07186 746.588009,1346.73019 L746.588009,1346.73019 L739.500504,1334.45935 C738.346336,1332.46351 739.033837,1329.91768 741.025505,1328.76768 Z M775.717199,1319.46767 C778.021368,1319.46767 779.883869,1321.33017 779.883869,1323.63434 L779.883869,1323.63434 L779.883869,1337.80935 C779.883869,1340.11352 778.021368,1341.97602 775.717199,1341.97602 C773.413031,1341.97602 771.550529,1340.11352 771.550529,1337.80935 L771.550529,1337.80935 L771.550529,1323.63434 C771.550529,1321.33017 773.413031,1319.46767 775.717199,1319.46767 Z" id="晴"></path>
        </g>
    </g>
</svg>