<?xml version="1.0" encoding="UTF-8"?>
<svg width="183px" height="176px" viewBox="0 0 183 176" version="1.1" xmlns="http://www.w3.org/2000/svg" xmlns:xlink="http://www.w3.org/1999/xlink">
    <title>雷阵雨</title>
    <g id="首页" stroke="none" stroke-width="1" fill="none" fill-rule="evenodd">
        <g id="天气图标" transform="translate(-184.000000, -774.000000)" fill="#FFFFFF">
            <path d="M238.425103,929.58819 C240.054271,927.959022 242.687606,927.959022 244.316774,929.58819 C245.945942,931.217358 245.945942,933.850693 244.316774,935.479861 L244.316774,935.479861 L231.516764,948.279872 C230.700097,949.096539 229.637596,949.500706 228.570928,949.500706 C227.504261,949.500706 226.437593,949.096539 225.625092,948.279872 C223.995925,946.65487 223.995925,944.017368 225.625092,942.3882 L225.625092,942.3882 Z M305.687657,929.58819 C307.316825,927.959022 309.95016,927.959022 311.579328,929.58819 C313.208496,931.217358 313.208496,933.850693 311.579328,935.479861 L311.579328,935.479861 L298.779318,948.279872 C297.96265,949.096539 296.90015,949.500706 295.833482,949.500706 C294.766814,949.500706 293.700147,949.096539 292.887646,948.279872 C291.258478,946.65487 291.258478,944.017368 292.887646,942.3882 L292.887646,942.3882 Z M225.633426,900.284 C227.262594,898.654832 229.895929,898.654832 231.525097,900.284 C233.154265,901.913168 233.154265,904.546503 231.525097,906.175671 L231.525097,906.175671 L218.725087,918.975682 C217.90842,919.792349 216.845919,920.196516 215.779251,920.196516 C214.712584,920.196516 213.645916,919.792349 212.833416,918.975682 C211.204248,917.35068 211.204248,914.713178 212.833416,913.08401 L212.833416,913.08401 Z M335.146013,900.284 C336.775181,898.654832 339.408517,898.654832 341.037685,900.284 C342.666853,901.913168 342.666853,904.546503 341.037685,906.175671 L341.037685,906.175671 L328.237675,918.975682 C327.421007,919.792349 326.358506,920.196516 325.291839,920.196516 C324.225171,920.196516 323.158504,919.792349 322.346003,918.975682 C320.716835,917.35068 320.716835,914.713178 322.346003,913.08401 L322.346003,913.08401 Z M267.800126,782.892239 C285.054307,782.892239 300.679319,792.454747 308.583492,807.858926 L308.583492,807.858926 L310.258494,811.108929 L313.700163,809.879761 C317.354333,808.558927 321.125169,807.900593 324.904339,807.900593 C343.291853,807.900593 358.250199,822.858938 358.250199,841.242286 C358.250199,859.625634 343.291853,874.592313 324.904339,874.592313 L324.904339,874.592313 L214.037583,874.592313 C202.541741,874.592313 193.191733,865.242305 193.191733,853.750629 C193.191733,842.258954 202.541741,832.908946 214.037583,832.908946 C215.116751,832.908946 216.166752,833.021446 217.208419,833.16728 L217.208419,833.16728 L221.954256,833.550613 L221.954256,828.742276 C221.954256,803.458922 242.520939,782.892239 267.800126,782.892239 Z M267.800126,774.558899 C287.016808,774.558899 304.520989,784.592241 314.29183,800.967254 C317.775166,800.038086 321.333502,799.567253 324.904339,799.567253 C347.88769,799.567253 366.583539,818.258934 366.583539,841.242286 C366.583539,864.225638 347.88769,882.925653 324.904339,882.925653 L288.770393,882.924899 L286.412641,894.417329 L303.329321,894.417329 L266.495959,941.5007 L273.429297,907.671506 L255.625117,907.671506 L260.696393,882.924899 L214.037583,882.925653 C197.95007,882.925653 184.858393,869.838142 184.858393,853.750629 C184.858393,837.742283 197.808404,824.713106 213.77925,824.575606 C215.912585,796.638084 239.325103,774.558899 267.800126,774.558899 Z" id="雷阵雨"></path>
        </g>
    </g>
</svg>