<?xml version="1.0" encoding="UTF-8"?>
<svg width="121px" height="101px" viewBox="0 0 121 101" version="1.1" xmlns="http://www.w3.org/2000/svg" xmlns:xlink="http://www.w3.org/1999/xlink">
    <title>编组 7</title>
    <defs>
        <linearGradient x1="50%" y1="94.7978538%" x2="50%" y2="2.18403251%" id="linearGradient-1">
            <stop stop-color="#00ECFF" offset="0%"></stop>
            <stop stop-color="#0F6C7C" offset="100%"></stop>
        </linearGradient>
        <path d="M9.23705556e-14,0.28 L64.8,0.28 L64.8,39.96 C64.8,42.3458701 62.8658701,44.28 60.48,44.28 L4.32,44.28 C1.93412988,44.28 9.35509189e-14,42.3458701 9.23705556e-14,39.96 L9.23705556e-14,0.28 L9.23705556e-14,0.28 Z" id="path-2"></path>
        <linearGradient x1="50%" y1="100%" x2="50%" y2="3.061617e-15%" id="linearGradient-4">
            <stop stop-color="#00F1F3" offset="0%"></stop>
            <stop stop-color="#0076CC" offset="100%"></stop>
        </linearGradient>
        <linearGradient x1="50%" y1="1.8447435%" x2="50%" y2="100%" id="linearGradient-5">
            <stop stop-color="#00ECFF" offset="0%"></stop>
            <stop stop-color="#FFFFFF" offset="100%"></stop>
        </linearGradient>
        <linearGradient x1="50%" y1="1.8447435%" x2="50%" y2="100%" id="linearGradient-6">
            <stop stop-color="#CCD3DF" offset="0%"></stop>
            <stop stop-color="#FFFFFF" offset="100%"></stop>
        </linearGradient>
    </defs>
    <g id="事件信息、组织动态、辅助工具" stroke="none" stroke-width="1" fill="none" fill-rule="evenodd">
        <g id="模板面标绘" transform="translate(-149.000000, -653.000000)">
            <g id="左侧数据看板" transform="translate(10.000000, 132.000000)">
                <g id="协作标绘" transform="translate(20.000000, 466.000000)">
                    <g id="暂无数据复制" transform="translate(119.000000, 55.000000)">
                        <g id="编组-7" transform="translate(0.200000, 0.400000)">
                            <g id="03" transform="translate(10.080000, 16.880000)">
                                <ellipse id="Oval-4-Copy-2" cx="48.6" cy="71.68" rx="46.44" ry="10.8"></ellipse>
                                <path d="M77.76,0.92 C80.1458701,0.92 82.08,2.85412988 82.08,5.24 L82.08,11 L17.28,11 L17.28,5.24 C17.28,2.85412988 19.2141299,0.92 21.6,0.92 L77.76,0.92 Z M23.76,3.8 C22.5670649,3.8 21.6,4.76706494 21.6,5.96 C21.6,7.15293506 22.5670649,8.12 23.76,8.12 C24.9529351,8.12 25.92,7.15293506 25.92,5.96 C25.92,4.76706494 24.9529351,3.8 23.76,3.8 Z M30.96,3.8 C29.7670649,3.8 28.8,4.76706494 28.8,5.96 C28.8,7.15293506 29.7670649,8.12 30.96,8.12 C32.1529351,8.12 33.12,7.15293506 33.12,5.96 C33.12,4.76706494 32.1529351,3.8 30.96,3.8 Z M38.16,3.8 C36.9670649,3.8 36,4.76706494 36,5.96 C36,7.15293506 36.9670649,8.12 38.16,8.12 C39.3529351,8.12 40.32,7.15293506 40.32,5.96 C40.32,4.76706494 39.3529351,3.8 38.16,3.8 Z" id="形状结合" fill="#00ECFF" opacity="0.502092634"></path>
                                <path d="M11.52,9.04 L87.12,9.04 C89.9035151,9.04 92.16,11.2964849 92.16,14.08 L92.16,65.2 L92.16,65.2 L6.48,65.2 L6.48,14.08 C6.48,11.2964849 8.73648486,9.04 11.52,9.04 Z" id="Rectangle-18" fill="url(#linearGradient-1)"></path>
                                <path d="M13.68,13.36 L84.96,13.36 C86.5505801,13.36 87.84,14.6494199 87.84,16.24 L87.84,69.52 L87.84,69.52 L10.8,69.52 L10.8,16.24 C10.8,14.6494199 12.0894199,13.36 13.68,13.36 Z" id="Rectangle-18-Copy" fill="#343539"></path>
                                <path d="M1.44,63.04 L97.2,63.04 C97.99529,63.04 98.64,63.68471 98.64,64.48 L98.64,67 C98.64,69.1870476 96.8670476,70.96 94.68,70.96 L3.96,70.96 C1.77295239,70.96 2.67836085e-16,69.1870476 0,67 L0,64.48 C-9.73949402e-17,63.68471 0.64470996,63.04 1.44,63.04 Z" id="Rectangle-17" fill="#0AC6D5"></path>
                                <path d="M36,63.04 L62.64,63.04 C62.64,64.6305801 61.3505801,65.92 59.76,65.92 L38.88,65.92 C37.2894199,65.92 36,64.6305801 36,63.04 L36,63.04 L36,63.04 Z" id="Rectangle-17-Copy" fill-opacity="0.750273164" fill="#FFFFFF"></path>
                                <g id="路径" transform="translate(17.280000, 13.000000)">
                                    <mask id="mask-3" fill="white">
                                        <use xlink:href="#path-2"></use>
                                    </mask>
                                    <use id="Mask" fill="#2F3D42" xlink:href="#path-2"></use>
                                    <path d="M23.44,9.72 L23.44,34.72 L17.44,34.72 L17.44,9.72 L23.44,9.72 Z M35.44,18.72 L35.44,34.72 L29.44,34.72 L29.44,18.72 L35.44,18.72 Z M47.44,13.72 L47.44,34.72 L41.44,34.72 L41.44,13.72 L47.44,13.72 Z" id="形状结合" fill="url(#linearGradient-4)" mask="url(#mask-3)"></path>
                                </g>
                            </g>
                            <g id="Group-2-Copy">
                                <circle id="Oval-14" fill="url(#linearGradient-5)" cx="19.44" cy="3.6" r="3.6"></circle>
                                <circle id="Oval-14-Copy-2" fill="url(#linearGradient-6)" cx="2.16" cy="23.76" r="2.16"></circle>
                                <circle id="Oval-14-Copy" fill="url(#linearGradient-6)" cx="116.64" cy="20.16" r="2.88"></circle>
                            </g>
                        </g>
                    </g>
                </g>
            </g>
        </g>
    </g>
</svg>