<?xml version="1.0" encoding="UTF-8"?>
<svg width="14px" height="17px" viewBox="0 0 14 17" version="1.1" xmlns="http://www.w3.org/2000/svg" xmlns:xlink="http://www.w3.org/1999/xlink">
    <title>形状备份 13</title>
    <g id="页面-1" stroke="none" stroke-width="1" fill="none" fill-rule="evenodd">
        <g id="切图" transform="translate(-451.000000, -326.000000)" fill="#56E9FF" fill-rule="nonzero">
            <path d="M465,333.038491 C465,329.151143 461.865986,326 457.999924,326 C454.133971,326 451,329.151143 451,333.038491 C451,333.161868 451.01208,333.281125 451.018414,333.401905 C451.012668,333.461565 451,333.519101 451,333.580328 C451,337.912447 457.461554,342.819559 457.461554,342.819559 C457.461554,342.819559 457.999989,343.225551 458.538446,342.819559 C459.076882,342.413117 465,337.912447 465,333.580328 C465,333.519101 464.987332,333.461565 464.981586,333.401905 C464.987854,333.281125 465,333.161868 465,333.038491 L465,333.038491 Z M457.999924,335.746323 C456.512865,335.746323 455.307702,334.534251 455.307702,333.038491 C455.307702,331.543783 456.512843,330.331668 457.999924,330.331668 C459.48707,330.331668 460.692298,331.543783 460.692298,333.038491 C460.692298,334.534251 459.48707,335.746323 457.999924,335.746323 L457.999924,335.746323 Z" id="形状备份-13"></path>
        </g>
    </g>
</svg>