<?xml version="1.0" encoding="UTF-8"?>
<svg width="21px" height="19px" viewBox="0 0 21 19" version="1.1" xmlns="http://www.w3.org/2000/svg" xmlns:xlink="http://www.w3.org/1999/xlink">
    <title>形状</title>
    <g id="Page-1" stroke="none" stroke-width="1" fill="none" fill-rule="evenodd">
        <g id="雪碧图" transform="translate(-432.000000, -410.000000)" fill="#F7B500" fill-rule="nonzero">
            <g id="编组">
                <path d="M451.213104,423.547487 L451.213104,415.23827 C452.443196,414.790531 453.175054,413.525063 452.949657,412.23557 C452.724259,410.946077 451.606517,410.003911 450.297479,410 C449.083503,410 448.068428,410.807602 447.728926,411.91184 L437.281535,411.91184 C436.938713,410.777746 435.894329,410.00142 434.709553,410 C433.428571,410 432.323473,410.89905 432.063239,412.153319 C431.803005,413.407588 432.459147,414.672232 433.634464,415.181687 L433.634464,423.604071 C432.455453,424.110811 431.795882,425.377281 432.056586,426.633818 C432.317291,427.890356 433.426261,428.789891 434.709553,428.785757 C435.918308,428.784174 436.977805,427.977104 437.300396,426.81219 L447.710065,426.81219 C448.065052,428.118626 449.335036,428.958198 450.676117,428.773011 C452.017198,428.587825 453.012126,427.435497 453,426.081747 C453,424.910637 452.2539,423.924711 451.213104,423.547487 Z M434.920455,423.401741 L434.920455,415.387445 C436.136979,415.295551 437.139624,414.397041 437.363838,413.197831 L447.650052,413.197831 C447.861874,414.337522 448.780324,415.213125 449.928828,415.370299 L449.928828,423.415459 C448.802748,423.570004 447.89463,424.414334 447.658625,425.526199 L437.355265,425.526199 C437.106179,424.355521 436.114088,423.489887 434.920455,423.401741 Z" id="形状"></path>
            </g>
        </g>
    </g>
</svg>