<?xml version="1.0" encoding="UTF-8"?>
<svg width="28px" height="28px" viewBox="0 0 28 28" version="1.1" xmlns="http://www.w3.org/2000/svg" xmlns:xlink="http://www.w3.org/1999/xlink">
    <title>编组</title>
    <g id="飞巡" stroke="none" stroke-width="1" fill="none" fill-rule="evenodd">
        <g id="雪碧图" transform="translate(-554.000000, -160.000000)" fill="#F7B500" fill-rule="nonzero">
            <g id="编组-4" transform="translate(0.000000, 15.000000)">
                <g id="编组" transform="translate(34.000000, 18.000000)">
                    <path d="M542.713104,145.147487 L542.713104,136.83827 C543.943196,136.390531 544.675054,135.125063 544.449657,133.83557 C544.224259,132.546077 543.106517,131.603911 541.797479,131.6 C540.583503,131.6 539.568428,132.407602 539.228926,133.51184 L528.781535,133.51184 C528.438713,132.377746 527.394329,131.60142 526.209553,131.6 C524.928571,131.6 523.823473,132.49905 523.563239,133.753319 C523.303005,135.007588 523.959147,136.272232 525.134464,136.781687 L525.134464,145.204071 C523.955453,145.710811 523.295882,146.977281 523.556586,148.233818 C523.817291,149.490356 524.926261,150.389891 526.209553,150.385757 C527.418308,150.384174 528.477805,149.577104 528.800396,148.41219 L539.210065,148.41219 C539.565052,149.718626 540.835036,150.558198 542.176117,150.373011 C543.517198,150.187825 544.512126,149.035497 544.499888,147.681747 C544.499888,146.510637 543.7539,145.524711 542.713104,145.147487 Z M526.420455,145.001741 L526.420455,136.987445 C527.636979,136.895551 528.639624,135.997041 528.863838,134.797831 L539.150052,134.797831 C539.361874,135.937522 540.280324,136.813125 541.428828,136.970299 L541.428828,145.015459 C540.302748,145.170004 539.39463,146.014334 539.158625,147.126199 L528.855265,147.126199 C528.606179,145.955521 527.614088,145.089887 526.420455,145.001741 Z" id="形状"></path>
                </g>
            </g>
        </g>
    </g>
</svg>