<?xml version="1.0" encoding="UTF-8"?>
<svg width="14px" height="14px" viewBox="0 0 14 14" version="1.1" xmlns="http://www.w3.org/2000/svg" xmlns:xlink="http://www.w3.org/1999/xlink">
    <title>编组</title>
    <g id="飞巡" stroke="none" stroke-width="1" fill="none" fill-rule="evenodd">
        <g id="雪碧图" transform="translate(-386.000000, -44.000000)" fill="#FFFFFF" fill-rule="nonzero">
            <g id="编组-4" transform="translate(0.000000, 15.000000)">
                <g id="编组" transform="translate(34.000000, 18.000000)">
                    <path d="M352,18.0667969 L354.235641,18.2779687 L354.235641,20.953125 L357.787703,20.07575 L357.787703,19.1048594 L357.356187,19.1048594 L357.356187,17.8795781 L355.316469,17.5528125 L354.155297,16.4538906 L354.525281,14.1428594 L361.434453,15.2495156 C361.482844,15.0754531 361.543437,14.9154687 361.613234,14.7745312 L353.88375,13.5367969 L355.140297,11.3230156 L355.985969,11 L363.212734,12.1573906 L363.896078,12.2668594 L364.672922,12.391125 L365.871422,12.5832656 L365.828203,13.685 L364.491578,15.1536563 L363.888328,15.0690781 L364.180547,13.245 L365.310234,13.425875 L365.325969,13.0305313 L363.686062,12.7679062 L363.592109,12.8038438 L362.439406,14.1815781 C362.800703,14.3279219 362.986047,15.0394844 362.856859,15.8471094 C362.71825,16.7129844 362.269797,17.3613281 361.855672,17.2948437 C361.658813,17.263375 361.504953,17.0759219 361.412844,16.7947188 L361.302906,17.4806562 L362.44575,18.6946719 L359.452297,18.2152188 L359.452297,19.1048125 L359.045187,19.1048125 L359.045187,20.851625 L354.235625,22.0397813 L354.235625,24.6129844 L352,24.9827344 L352,18.0667969 L352,18.0667969 Z M362.215547,15.0477344 C362.036297,15.0190781 361.842266,15.2997969 361.782125,15.6749687 C361.721984,16.0498594 361.818766,16.3773438 361.998016,16.406 C362.177484,16.4346719 362.371516,16.1539531 362.431656,15.7787969 C362.491547,15.403875 362.395016,15.0764062 362.215547,15.0477344 Z M362.159391,18.3905 L362.557094,18.7536719 L363.900531,17.9202031 L364.298953,15.4332344 L363.777203,15.3498281 L363.416859,17.6004844 L362.159391,18.3905 L362.159391,18.3905 Z" id="形状"></path>
                </g>
            </g>
        </g>
    </g>
</svg>