<?xml version="1.0" encoding="UTF-8"?>
<svg width="28px" height="28px" viewBox="0 0 28 28" version="1.1" xmlns="http://www.w3.org/2000/svg" xmlns:xlink="http://www.w3.org/1999/xlink">
    <title>编组</title>
    <g id="飞巡" stroke="none" stroke-width="1" fill="none" fill-rule="evenodd">
        <g id="雪碧图" transform="translate(-513.000000, -160.000000)" fill="#F7B500" fill-rule="nonzero">
            <g id="编组-4" transform="translate(0.000000, 15.000000)">
                <g id="编组" transform="translate(34.000000, 18.000000)">
                    <path d="M496.801429,130.3 C499.565714,130.3 501.105714,131.765714 501.208571,134.47 L501.214287,134.764286 L501.214287,146.014286 C501.214351,146.048983 501.211929,146.083146 501.207183,146.116598 C502.243252,146.420448 503,147.378993 503,148.514286 C503,149.894998 501.880712,151.014286 500.5,151.014286 C499.119288,151.014286 498,149.894998 498,148.514286 C498,147.378262 498.757724,146.419213 499.795343,146.114969 L499.785713,146.014286 L499.785713,134.764286 C499.785713,132.657143 498.871429,131.728571 496.801429,131.728571 C494.815714,131.728571 493.858571,132.588571 493.727143,134.497143 L493.714286,134.764286 L493.714286,147.264286 C493.714286,150.158571 492.147143,151.728571 489.255714,151.728571 C486.464286,151.728571 484.904286,150.265714 484.791429,147.558571 L484.785713,147.264286 L484.785713,136.014286 C484.785649,135.979249 484.788119,135.944757 484.792957,135.910993 C483.756748,135.608123 483,134.649578 483,133.514286 C483,132.133574 484.119288,131.014286 485.5,131.014286 C486.880712,131.014286 488,132.133574 488,133.514286 C488,134.65031 487.242276,135.609358 486.204657,135.913602 L486.214286,136.014286 L486.214286,147.262857 C486.22,149.368571 487.152857,150.3 489.255714,150.3 C491.27,150.3 492.205714,149.445714 492.281429,147.521429 L492.285713,147.264286 L492.285713,134.744286 C492.365714,131.86 493.947143,130.3 496.801429,130.3 Z" id="形状结合"></path>
                </g>
            </g>
        </g>
    </g>
</svg>