<?xml version="1.0" encoding="UTF-8"?>
<svg width="93px" height="93px" viewBox="0 0 93 93" version="1.1" xmlns="http://www.w3.org/2000/svg" xmlns:xlink="http://www.w3.org/1999/xlink">
    <title>形状结合</title>
    <defs>
        <radialGradient cx="49.9999865%" cy="26.2629459%" fx="49.9999865%" fy="26.2629459%" r="90.0261601%" id="radialGradient-1">
            <stop stop-color="#FA4D4D" offset="0%"></stop>
            <stop stop-color="#DA796D" stop-opacity="0.0635380245" offset="100%"></stop>
        </radialGradient>
    </defs>
    <g id="Page-1" stroke="none" stroke-width="1" fill="none" fill-rule="evenodd">
        <g id="形状结合" transform="translate(3.000000, 3.000000)">
            <g id="path-20-link" transform="translate(3.000000, 3.000000)" fill="#000000" fill-opacity="0.2" fill-rule="nonzero">
                <path d="M40.5,0 L41.1697416,0.005425875 C63.2283684,0.363072844 81,18.3561431 81,40.5 C81,62.8675322 62.8675322,81 40.5,81 C18.1324678,81 0,62.8675322 0,40.5 C0,18.1324678 18.1324678,0 40.5,0 L40.5,0 Z" id="path-20"></path>
            </g>
            <g id="path-20-link" stroke="url(#radialGradient-1)" stroke-width="4.928">
                <path d="M43.1901627,2.46400116 L43.8842933,2.46962462 C54.98319,2.6522124 65.0022098,7.27401417 72.2435136,14.6360932 C79.4748439,21.9880325 83.936,32.0730451 83.936,43.2 C83.936,54.4489357 79.3764678,64.6329357 72.0047018,72.0047018 C64.6329357,79.3764678 54.4489357,83.936 43.2,83.936 C31.9510643,83.936 21.7670643,79.3764678 14.3952982,72.0047018 C7.02353216,64.6329357 2.464,54.4489357 2.464,43.2 C2.464,31.9510643 7.02353216,21.7670643 14.3952982,14.3952982 C21.7649153,7.02568112 31.945127,2.46665856 43.1901627,2.46400116 L43.1901627,2.46400116 Z" id="path-20"></path>
            </g>
        </g>
    </g>
</svg>