<?xml version="1.0" encoding="UTF-8"?>
<svg width="46px" height="28px" viewBox="0 0 46 28" version="1.1" xmlns="http://www.w3.org/2000/svg" xmlns:xlink="http://www.w3.org/1999/xlink">
    <title>形状</title>
    <defs>
        <linearGradient x1="50%" y1="0%" x2="50%" y2="100%" id="linearGradient-1">
            <stop stop-color="#FFFFFF" stop-opacity="0.3" offset="0%"></stop>
            <stop stop-color="#FFFFFF" stop-opacity="0" offset="100%"></stop>
        </linearGradient>
    </defs>
    <g id="页面-1" stroke="none" stroke-width="1" fill="none" fill-rule="evenodd">
        <g id="短信-发送" transform="translate(-997.000000, -215.000000)" fill="url(#linearGradient-1)" fill-rule="nonzero">
            <g id="弹窗" transform="translate(554.000000, 142.000000)">
                <g id="搜索" transform="translate(99.000000, 63.000000)">
                    <path d="M368.078386,29.5957337 L389.998458,13.999229 C389.998458,11.7969674 388.274737,10 386.165253,10 L347.833205,10 C345.723721,10 344,11.8018504 344,13.999229 L365.920072,29.5957337 C366.569519,30.0547417 367.428939,30.0547417 368.078386,29.5957337 Z M368.078386,34.4348497 C368.073503,34.4397327 368.06862,34.4397327 368.063737,34.4397327 C367.995374,34.4885634 367.917245,34.5276279 367.843999,34.5666924 C367.804934,34.5862246 367.76587,34.615523 367.721922,34.6301722 C367.668209,34.6545875 367.614495,34.6643536 367.560781,34.6838859 C367.497301,34.7034181 367.428939,34.7327165 367.365459,34.7424827 C367.316628,34.7522488 367.272681,34.7522488 367.22385,34.7571318 C367.150604,34.766898 367.077358,34.7766641 367.004112,34.7766641 C366.930866,34.7766641 366.85762,34.7620149 366.784374,34.7571318 C366.735544,34.7522488 366.686713,34.7522488 366.642765,34.7424827 C366.574402,34.7278335 366.510923,34.7034181 366.447443,34.6838859 C366.393729,34.6643536 366.340015,34.6545875 366.286302,34.6301722 C366.242354,34.6106399 366.20329,34.5862246 366.164225,34.5666924 C366.090979,34.5276279 366.01285,34.4885634 365.944487,34.4397327 C365.939604,34.4348497 365.934721,34.4348497 365.929838,34.4348497 L344,18.8383449 L344,44.000771 C344,46.2030326 345.723721,48 347.833205,48 L386.170136,48 C388.27962,48 390.003341,46.1981496 390.003341,44.000771 L390.003341,18.8383449 L368.078386,34.4348497 Z" id="形状"></path>
                </g>
            </g>
        </g>
    </g>
</svg>