<?xml version="1.0" encoding="UTF-8"?>
<svg width="255px" height="148px" viewBox="0 0 255 148" version="1.1" xmlns="http://www.w3.org/2000/svg" xmlns:xlink="http://www.w3.org/1999/xlink">
    <title>编组 3</title>
    <defs>
        <rect id="path-1" x="0" y="0.6" width="255" height="147"></rect>
        <linearGradient x1="50%" y1="-2.493665e-15%" x2="50%" y2="99.8997044%" id="linearGradient-3">
            <stop stop-color="#BDD1FF" stop-opacity="0.578753278" offset="0%"></stop>
            <stop stop-color="#E6F3FF" offset="100%"></stop>
        </linearGradient>
        <linearGradient x1="50%" y1="99.8997044%" x2="50%" y2="0%" id="linearGradient-4">
            <stop stop-color="#E3EBFF" offset="0%"></stop>
            <stop stop-color="#B5DBFF" offset="100%"></stop>
        </linearGradient>
        <linearGradient x1="50%" y1="-2.493665e-15%" x2="50%" y2="99.8997044%" id="linearGradient-5">
            <stop stop-color="#BDD1FF" stop-opacity="0.578753278" offset="0%"></stop>
            <stop stop-color="#E6F3FF" offset="100%"></stop>
        </linearGradient>
        <linearGradient x1="50%" y1="99.8997044%" x2="50%" y2="0%" id="linearGradient-6">
            <stop stop-color="#E3EBFF" offset="0%"></stop>
            <stop stop-color="#B5DBFF" offset="100%"></stop>
        </linearGradient>
        <linearGradient x1="50%" y1="-2.493665e-15%" x2="50%" y2="99.8997044%" id="linearGradient-7">
            <stop stop-color="#BDD1FF" offset="0%"></stop>
            <stop stop-color="#FFFFFF" offset="100%"></stop>
        </linearGradient>
        <linearGradient x1="0.0501478041%" y1="49.9498522%" x2="99.9498522%" y2="49.9498522%" id="linearGradient-8">
            <stop stop-color="#FFFFFF" offset="0%"></stop>
            <stop stop-color="#E6F3FF" offset="100%"></stop>
        </linearGradient>
        <linearGradient x1="0.0501478041%" y1="49.9498522%" x2="99.9498522%" y2="49.9498522%" id="linearGradient-9">
            <stop stop-color="#E3ECFF" offset="0%"></stop>
            <stop stop-color="#FFFFFF" offset="100%"></stop>
        </linearGradient>
        <linearGradient x1="50%" y1="-2.493665e-15%" x2="50%" y2="99.8997044%" id="linearGradient-10">
            <stop stop-color="#BDD1FF" stop-opacity="0.578753278" offset="0%"></stop>
            <stop stop-color="#E6F3FF" offset="100%"></stop>
        </linearGradient>
        <linearGradient x1="50%" y1="99.8997044%" x2="50%" y2="0%" id="linearGradient-11">
            <stop stop-color="#E3EBFF" offset="0%"></stop>
            <stop stop-color="#B5DBFF" offset="100%"></stop>
        </linearGradient>
        <linearGradient x1="50%" y1="-2.493665e-15%" x2="50%" y2="99.8997044%" id="linearGradient-12">
            <stop stop-color="#BDD1FF" stop-opacity="0.578753278" offset="0%"></stop>
            <stop stop-color="#E6F3FF" offset="100%"></stop>
        </linearGradient>
        <linearGradient x1="50%" y1="99.8997044%" x2="50%" y2="0%" id="linearGradient-13">
            <stop stop-color="#E3EBFF" offset="0%"></stop>
            <stop stop-color="#B5DBFF" offset="100%"></stop>
        </linearGradient>
        <linearGradient x1="50%" y1="-2.493665e-15%" x2="50%" y2="99.8997044%" id="linearGradient-14">
            <stop stop-color="#BDD1FF" stop-opacity="0.578753278" offset="0%"></stop>
            <stop stop-color="#E6F3FF" offset="100%"></stop>
        </linearGradient>
        <linearGradient x1="50%" y1="99.8997044%" x2="50%" y2="0%" id="linearGradient-15">
            <stop stop-color="#E3EBFF" offset="0%"></stop>
            <stop stop-color="#B5DBFF" offset="100%"></stop>
        </linearGradient>
        <linearGradient x1="0.0501478041%" y1="49.9498522%" x2="99.9498522%" y2="49.9498522%" id="linearGradient-16">
            <stop stop-color="#BDD1FF" offset="0%"></stop>
            <stop stop-color="#E6F3FF" offset="100%"></stop>
        </linearGradient>
        <linearGradient x1="93.670823%" y1="90.56501%" x2="33.533615%" y2="43.205341%" id="linearGradient-17">
            <stop stop-color="#CAE2F9" offset="0%"></stop>
            <stop stop-color="#CAE2F9" offset="100%"></stop>
        </linearGradient>
        <linearGradient x1="66.466385%" y1="66.5972527%" x2="33.533615%" y2="38.7195524%" id="linearGradient-18">
            <stop stop-color="#E0E9FF" offset="0%"></stop>
            <stop stop-color="#CAE2F9" offset="100%"></stop>
        </linearGradient>
        <linearGradient x1="50%" y1="99.8997044%" x2="50%" y2="0%" id="linearGradient-19">
            <stop stop-color="#EBF1FF" offset="0%"></stop>
            <stop stop-color="#CAE2F9" offset="100%"></stop>
        </linearGradient>
    </defs>
    <g id="页面-1" stroke="none" stroke-width="1" fill="none" fill-rule="evenodd" opacity="0.400000006">
        <g id="预案管理" transform="translate(-1198.000000, -225.000000)">
            <g id="弹窗" transform="translate(600.000000, 71.000000)">
                <g id="编组-4" transform="translate(20.000000, 154.000000)">
                    <g id="编组-3" transform="translate(578.000000, 0.000000)">
                        <g id="小底纹">
                            <mask id="mask-2" fill="white">
                                <use xlink:href="#path-1"></use>
                            </mask>
                            <use id="矩形" fill="#FFFFFF" opacity="0" xlink:href="#path-1"></use>
                            <polygon id="多边形" stroke="url(#linearGradient-4)" stroke-width="1.12" fill-opacity="0.2" fill="url(#linearGradient-3)" opacity="0.504022507" mask="url(#mask-2)" points="136.8 48.4 252.8 115.2 252.8 115.2 136.8 182 20.8 115.2 20.8 115.2"></polygon>
                            <polygon id="矩形" fill="#393E42" mask="url(#mask-2)" transform="translate(136.965685, 89.600000) rotate(45.000000) translate(-136.965685, -89.600000) " points="126.943789 79.5781032 153.365685 73.2 145.827927 98.4622417 120.565685 106"></polygon>
                            <polygon id="多边形" stroke="url(#linearGradient-6)" stroke-width="1.12" fill-opacity="0.2" fill="url(#linearGradient-5)" opacity="0.300269717" mask="url(#mask-2)" points="136.8 66.8 177.6 90.4 177.6 90.4 136.8 114 96 90.4 96 90.4"></polygon>
                            <polygon id="多边形" fill="url(#linearGradient-7)" opacity="0.142996652" mask="url(#mask-2)" points="136.8 18.8 177.6 42.4 177.6 42.4 136.8 66 96 42.4 96 42.4"></polygon>
                            <polygon id="多边形" fill="url(#linearGradient-8)" opacity="0.142996652" mask="url(#mask-2)" points="96 43.6 136.8 67.2 96 90.4"></polygon>
                            <polygon id="多边形" fill="url(#linearGradient-9)" opacity="0.142996652" mask="url(#mask-2)" transform="translate(156.400000, 67.000000) scale(-1, 1) translate(-156.400000, -67.000000) " points="136 43.6 176.8 67.2 136 90.4"></polygon>
                            <line x1="136.8" y1="20.4887794" x2="136.8" y2="66.8887794" id="直线-2" stroke="url(#linearGradient-11)" stroke-width="1.12" fill-opacity="0.2" fill="url(#linearGradient-10)" opacity="0.300269717" mask="url(#mask-2)"></line>
                            <polyline id="路径" stroke="url(#linearGradient-13)" stroke-width="1.12" fill-opacity="0.2" fill="url(#linearGradient-12)" opacity="0.300269717" mask="url(#mask-2)" transform="translate(136.800000, 78.200000) scale(1, -1) translate(-136.800000, -78.200000) " points="177.676399 66.4 136.8 90 95.9236009 66.4"></polyline>
                            <polygon id="多边形" stroke="url(#linearGradient-15)" stroke-width="1.12" fill-opacity="0.2" fill="url(#linearGradient-14)" opacity="0.300269717" mask="url(#mask-2)" points="136.8 19.6 177.676399 43.2 177.676399 90.4 136.8 114 95.9236009 90.4 95.9236009 43.2"></polygon>
                            <polygon id="多边形" fill="url(#linearGradient-16)" mask="url(#mask-2)" points="136.8 40.4 159.663071 53.6 159.663071 53.6 136.8 66.8 113.936929 53.6 113.936929 53.6"></polygon>
                            <polygon id="多边形" fill="#755F8D" mask="url(#mask-2)" points="136.8 45.2 152 54 152 54 136.8 62.8 121.6 54 121.6 54"></polygon>
                            <polyline id="路径" stroke="url(#linearGradient-13)" stroke-width="1.12" fill-opacity="0.2" fill="url(#linearGradient-12)" opacity="0.300269717" mask="url(#mask-2)" points="177.676399 43.2 136.8 66.8 95.9236009 43.2"></polyline>
                            <line x1="136.8" y1="66.8887794" x2="136.8" y2="113.288779" id="直线-2" stroke="url(#linearGradient-11)" stroke-width="1.12" fill-opacity="0.2" fill="url(#linearGradient-10)" opacity="0.300269717" mask="url(#mask-2)"></line>
                        </g>
                        <g id="编组-4" transform="translate(208.800000, 78.000000)">
                            <polygon id="多边形" fill="#4F5B6A" opacity="0.700846354" points="14.4 0 26.8707658 7.2 26.8707658 21.6 14.4 28.8 1.92923419 21.6 1.92923419 7.2"></polygon>
                            <polygon id="多边形" fill="url(#linearGradient-17)" points="14.4 14.6666667 14.4 24.8 5.6 19.7333333 5.6 9.46553807"></polygon>
                            <polygon id="多边形" fill="url(#linearGradient-18)" transform="translate(18.800000, 17.132769) scale(-1, 1) translate(-18.800000, -17.132769) " points="23.2 14.6666667 23.2 24.8 14.4 19.7333333 14.4 9.46553807"></polygon>
                            <polygon id="多边形" fill="url(#linearGradient-19)" points="14.4 4.26553807 23.2 9.46553807 14.4 14.6655381 5.6 9.46553807"></polygon>
                        </g>
                        <path d="M162.895465,105.96982 L184.495028,121.2 L212.287452,105.248115" id="路径" stroke="#DEEFFF" stroke-width="0.636464088" stroke-linecap="square" stroke-dasharray="0.8,1.6"></path>
                        <g id="编组-4" transform="translate(187.200000, 10.000000)">
                            <polygon id="多边形" fill="#4F5B6A" opacity="0.700846354" points="14.4 0 26.8707658 7.2 26.8707658 21.6 14.4 28.8 1.92923419 21.6 1.92923419 7.2"></polygon>
                            <polygon id="多边形" fill="url(#linearGradient-17)" points="14.4 14.6666667 14.4 24.8 5.6 19.7333333 5.6 9.46553807"></polygon>
                            <polygon id="多边形" fill="url(#linearGradient-18)" transform="translate(18.800000, 17.132769) scale(-1, 1) translate(-18.800000, -17.132769) " points="23.2 14.6666667 23.2 24.8 14.4 19.7333333 14.4 9.46553807"></polygon>
                            <polygon id="多边形" fill="url(#linearGradient-19)" points="14.4 4.26553807 23.2 9.46553807 14.4 14.6655381 5.6 9.46553807"></polygon>
                            <line x1="14.8" y1="30.8" x2="14.8" y2="58.8" id="直线-4" stroke="#DEEFFF" stroke-width="0.8" opacity="0.400000006" stroke-linecap="square" stroke-dasharray="0.8,1.6"></line>
                        </g>
                        <g id="编组-4备份" transform="translate(37.200000, 47.000000)">
                            <polygon id="多边形" fill="#4F5B6A" opacity="0.700846354" points="14.4 0 26.8707658 7.2 26.8707658 21.6 14.4 28.8 1.92923419 21.6 1.92923419 7.2"></polygon>
                            <polygon id="多边形" fill="url(#linearGradient-17)" points="14.4 14.6666667 14.4 24.8 5.6 19.7333333 5.6 9.46553807"></polygon>
                            <polygon id="多边形" fill="url(#linearGradient-18)" transform="translate(18.800000, 17.132769) scale(-1, 1) translate(-18.800000, -17.132769) " points="23.2 14.6666667 23.2 24.8 14.4 19.7333333 14.4 9.46553807"></polygon>
                            <polygon id="多边形" fill="url(#linearGradient-19)" points="14.4 4.26553807 23.2 9.46553807 14.4 14.6655381 5.6 9.46553807"></polygon>
                            <line x1="14.8" y1="30.8" x2="14.8" y2="58.8" id="直线-4" stroke="#DEEFFF" stroke-width="0.8" opacity="0.400000006" stroke-linecap="square" stroke-dasharray="0.8,1.6"></line>
                        </g>
                    </g>
                </g>
            </g>
        </g>
    </g>
</svg>