<?xml version="1.0" encoding="UTF-8"?>
<svg width="20px" height="20px" viewBox="0 0 20 20" version="1.1" xmlns="http://www.w3.org/2000/svg" xmlns:xlink="http://www.w3.org/1999/xlink">
    <title>形状结合</title>
    <g id="页面-1" stroke="none" stroke-width="1" fill="none" fill-rule="evenodd">
        <g id="切图" transform="translate(-299.000000, -61.000000)" fill="#FFFFFF" fill-rule="nonzero">
            <path d="M309,61 C314.522321,61 319,65.4776786 319,71 C319,76.5223214 314.522321,81 309,81 C303.477679,81 299,76.5223214 299,71 C299,65.4776786 303.477679,61 309,61 Z M309,62.6964286 C304.415179,62.6964286 300.696429,66.4151786 300.696429,71 C300.696429,75.5848214 304.415179,79.3035714 309,79.3035714 C313.584821,79.3035714 317.303571,75.5848214 317.303571,71 C317.303571,66.4151786 313.584821,62.6964286 309,62.6964286 Z M312.691964,67.2901786 C312.790179,67.2901786 312.870536,67.3705357 312.870536,67.46875 C312.870536,67.5111607 312.857143,67.5535714 312.830357,67.5848214 L312.830357,67.5848214 L309.926339,71.0446429 L312.825893,74.5022321 C312.852679,74.5357143 312.868304,74.5758929 312.868304,74.6183036 C312.868304,74.71875 312.787946,74.796875 312.689732,74.796875 L312.689732,74.796875 L311.216518,74.7901786 L309,72.1473214 L306.783482,74.7924107 L305.308036,74.7991071 C305.209821,74.7991071 305.129464,74.71875 305.129464,74.6205357 C305.129464,74.578125 305.145089,74.5379464 305.171875,74.5044643 L305.171875,74.5044643 L308.075893,71.046875 L305.171875,67.5870536 C305.145089,67.5535714 305.129464,67.5133929 305.129464,67.4709821 C305.129464,67.3705357 305.209821,67.2924107 305.308036,67.2924107 L305.308036,67.2924107 L306.783482,67.2991071 L309,69.9419643 L311.21875,67.296875 Z" id="形状结合"></path>
        </g>
    </g>
</svg>