<?xml version="1.0" encoding="UTF-8"?>
<svg width="20px" height="20px" viewBox="0 0 20 20" version="1.1" xmlns="http://www.w3.org/2000/svg" xmlns:xlink="http://www.w3.org/1999/xlink">
    <title>形状结合</title>
    <g id="页面-1" stroke="none" stroke-width="1" fill="none" fill-rule="evenodd">
        <g id="切图" transform="translate(-267.000000, -61.000000)" fill="#FFFFFF" fill-rule="nonzero">
            <path d="M277,61 C282.522321,61 287,65.4776786 287,71 C287,76.5223214 282.522321,81 277,81 C271.477679,81 267,76.5223214 267,71 C267,65.4776786 271.477679,61 277,61 Z M277,62.6964286 C272.415179,62.6964286 268.696429,66.4151786 268.696429,71 C268.696429,75.5848214 272.415179,79.3035714 277,79.3035714 C281.584821,79.3035714 285.303571,75.5848214 285.303571,71 C285.303571,66.4151786 281.584821,62.6964286 277,62.6964286 Z M281.174107,67.4508929 C281.319196,67.4508929 281.404018,67.6160714 281.316964,67.734375 L281.316964,67.734375 L276.616071,74.2522321 C276.332589,74.6473214 275.745536,74.6473214 275.462054,74.2522321 L275.462054,74.2522321 L272.680804,70.3950893 C272.595982,70.2767857 272.680804,70.1116071 272.825893,70.1116071 L272.825893,70.1116071 L273.872768,70.1116071 C274.102679,70.1116071 274.316964,70.2232143 274.450893,70.4084821 L274.450893,70.4084821 L276.040179,72.6138393 L279.549107,67.7477679 C279.683036,67.5602679 279.899554,67.4508929 280.127232,67.4508929 L280.127232,67.4508929 Z" id="形状结合"></path>
        </g>
    </g>
</svg>