<?xml version="1.0" encoding="UTF-8"?>
<svg width="20px" height="20px" viewBox="0 0 20 20" version="1.1" xmlns="http://www.w3.org/2000/svg" xmlns:xlink="http://www.w3.org/1999/xlink">
    <title>形状</title>
    <g id="页面-1" stroke="none" stroke-width="1" fill="none" fill-rule="evenodd">
        <g id="切图" transform="translate(-235.000000, -61.000000)" fill="#FFFFFF" fill-rule="nonzero">
            <path d="M249.481671,62.0393495 C249.35899,61.9768497 249.213162,62.0671272 249.213162,62.2060158 L249.213162,63.6921236 C249.213162,63.8194382 249.280289,63.9374934 249.386767,64.0069377 C249.905268,64.3333259 250.386733,64.7175843 250.826533,65.1597129 C251.583451,65.9189705 252.178338,66.800913 252.592675,67.7823923 C253.020901,68.7985937 253.238487,69.877295 253.238487,70.9930333 C253.238487,72.1064567 253.020901,73.1874728 252.592675,74.2036743 C252.178338,75.1851535 251.583451,76.067096 250.826533,76.8263536 C250.069614,77.5856112 249.1877,78.1805172 248.206252,78.5948682 C247.192398,79.0254228 246.111417,79.2430149 245.000344,79.2430149 C243.889271,79.2430149 242.80829,79.0254228 241.794436,78.5948682 C240.812988,78.1805172 239.931074,77.5856112 239.174156,76.8263536 C238.417237,76.067096 237.82235,75.1851535 237.408013,74.2036743 C236.979787,73.1874728 236.762202,72.1087715 236.762202,70.9930333 C236.762202,69.8796098 236.979787,68.7985937 237.408013,67.7823923 C237.82235,66.800913 238.417237,65.9189705 239.174156,65.1597129 C239.613955,64.7198991 240.09542,64.3356407 240.613921,64.0069377 C240.722714,63.9398083 240.787526,63.8194382 240.787526,63.6921236 L240.787526,62.203701 C240.787526,62.0648124 240.641698,61.9768497 240.519017,62.0370347 C237.280702,63.6666607 235.046983,67.0023014 235.000688,70.8680335 C234.935876,76.395799 239.456553,80.9883813 244.981826,80.9999777 C250.514043,81.0115294 255,76.5254283 255,70.9907185 C255,67.0740605 252.754707,63.6828644 249.481671,62.0393495 Z M244.259629,72.1110863 L245.741059,72.1110863 C245.842908,72.1110863 245.926238,72.0277532 245.926238,71.9259016 L245.926238,61.1851848 C245.926238,61.0833331 245.842908,61 245.741059,61 L244.259629,61 C244.157781,61 244.07445,61.0833331 244.07445,61.1851848 L244.07445,71.9259016 C244.07445,72.0277532 244.157781,72.1110863 244.259629,72.1110863 Z" id="形状"></path>
        </g>
    </g>
</svg>