<?xml version="1.0" encoding="UTF-8"?>
<svg width="24px" height="24px" viewBox="0 0 24 24" version="1.1" xmlns="http://www.w3.org/2000/svg" xmlns:xlink="http://www.w3.org/1999/xlink">
    <title>形状结合</title>
    <g id="任务调度" stroke="none" stroke-width="1" fill="none" fill-rule="evenodd">
        <g id="发布任务" transform="translate(-656.000000, -786.000000)" fill="#56E9FF">
            <g id="弹窗" transform="translate(544.000000, 122.000000)">
                <g id="编组-7" transform="translate(20.000000, 119.000000)">
                    <g id="编组-14备份" transform="translate(12.000000, 535.000000)">
                        <g id="Group-5复制-4" transform="translate(80.000000, 10.000000)">
                            <path d="M12,0 C18.627417,-1.21743675e-15 24,5.372583 24,12 C24,18.627417 18.627417,24 12,24 C5.372583,24 8.11624501e-16,18.627417 0,12 C-8.11624501e-16,5.372583 5.372583,1.21743675e-15 12,0 Z M12.6,9 L11.472,9 L11.472,11.46 L9,11.46 L9,12.588 L11.472,12.588 L11.472,15.06 L12.6,15.06 L12.6,12.588 L15.06,12.588 L15.06,11.46 L12.6,11.46 L12.6,9 Z" id="形状结合"></path>
                        </g>
                    </g>
                </g>
            </g>
        </g>
    </g>
</svg>