<?xml version="1.0" encoding="UTF-8"?>
<svg width="16px" height="16px" viewBox="0 0 16 16" version="1.1" xmlns="http://www.w3.org/2000/svg" xmlns:xlink="http://www.w3.org/1999/xlink">
    <title>路径备份 2</title>
    <g id="任务调度" stroke="none" stroke-width="1" fill="none" fill-rule="evenodd" opacity="0.399488">
        <g id="切图" transform="translate(-265.000000, -212.000000)" fill="#FFFFFF" fill-rule="nonzero">
            <g transform="translate(20.000000, 20.000000)" id="路径备份-2">
                <path d="M260.919133,192.060736 C260.848275,191.996737 260.746559,191.98188 260.660843,192.023022 L245.138306,200.270937 C245.054876,200.310937 245.001161,200.39665 245,200.490363 C244.998875,200.584077 245.051448,200.670933 245.133735,200.712075 L249.526949,202.912053 C249.60695,202.952052 249.702952,202.942909 249.774953,202.888053 L254.045879,198.740667 L251.284691,203.358905 C251.246977,203.406905 251.228691,203.47319 251.232119,203.539475 L251.492695,207.785145 C251.498409,207.878858 251.548696,207.96 251.620697,207.988572 C251.640126,207.996571 251.659555,208 251.678984,208 C251.732699,208 251.784128,207.971429 251.819557,207.918858 L253.711016,205.158887 L256.593349,206.564586 C256.656207,206.595443 256.728208,206.596586 256.792209,206.568015 C256.85621,206.539444 256.904211,206.484587 256.924783,206.417159 L260.988849,192.316733 C261.017421,192.225306 260.989992,192.124735 260.919133,192.060736 Z"></path>
            </g>
        </g>
    </g>
</svg>