<?xml version="1.0" encoding="UTF-8"?>
<svg width="16px" height="16px" viewBox="0 0 16 16" version="1.1" xmlns="http://www.w3.org/2000/svg" xmlns:xlink="http://www.w3.org/1999/xlink">
    <title>路径</title>
    <g id="任务调度" stroke="none" stroke-width="1" fill="none" fill-rule="evenodd">
        <g id="切图" transform="translate(-265.000000, -62.000000)" fill="#FFFFFF" fill-rule="nonzero">
            <g transform="translate(20.000000, 20.000000)" id="路径">
                <path d="M260.919133,42.0607361 C260.848275,41.9967368 260.746559,41.9818798 260.660843,42.0230222 L245.138306,50.270937 C245.054876,50.3109366 245.001161,50.39665 245,50.4903633 C244.998875,50.5840766 245.051448,50.6709329 245.133735,50.7120753 L249.526949,52.9120526 C249.60695,52.9520522 249.702952,52.9429094 249.774953,52.8880528 L254.045879,48.7406671 L251.284691,53.3589051 C251.246977,53.4069046 251.228691,53.4731896 251.232119,53.5394747 L251.492695,57.7851451 C251.498409,57.8788584 251.548696,57.9600004 251.620697,57.9885715 C251.640126,57.9965715 251.659555,58 251.678984,58 C251.732699,58 251.784128,57.9714289 251.819557,57.918858 L253.711016,55.1588865 L256.593349,56.5645863 C256.656207,56.5954431 256.728208,56.5965859 256.792209,56.5680148 C256.85621,56.5394437 256.904211,56.4845871 256.924783,56.4171592 L260.988849,42.3167335 C261.017421,42.2253059 260.989992,42.1247355 260.919133,42.0607361 Z"></path>
            </g>
        </g>
    </g>
</svg>