<?xml version="1.0" encoding="UTF-8"?>
<svg width="16px" height="15px" viewBox="0 0 16 15" version="1.1" xmlns="http://www.w3.org/2000/svg" xmlns:xlink="http://www.w3.org/1999/xlink">
    <title>形状结合</title>
    <g id="任务调度" stroke="none" stroke-width="1" fill="none" fill-rule="evenodd">
        <g id="切图" transform="translate(-304.000000, -62.000000)" fill="#FFFFFF" fill-rule="nonzero">
            <g transform="translate(20.000000, 20.000000)" id="形状结合">
                <path d="M291.187779,42.4563343 C291.479383,41.85716 292.348164,41.845373 292.657868,42.4366892 L292.657868,42.4366892 L294.54626,46.0474509 C294.668935,46.2831916 294.902219,46.4442811 295.169691,46.4776777 L295.169691,46.4776777 L299.286344,47.0061298 C299.960052,47.092568 300.23959,47.8960509 299.758945,48.3655678 L299.758945,48.3655678 L296.824799,51.2376754 C296.635758,51.4243034 296.551294,51.6895117 296.599559,51.9488265 L296.599559,51.9488265 L297.357731,55.9348088 C297.480406,56.5870247 296.784577,57.0958318 296.179246,56.7952624 L296.179246,56.7952624 L292.478883,54.9584494 C292.239566,54.8386146 291.953995,54.8425436 291.716689,54.9682719 L291.716689,54.9682719 L288.070625,56.9013457 C287.473338,57.2176311 286.763432,56.7284692 286.870018,56.0723242 L286.870018,56.0723242 L287.515571,52.0666968 C287.557803,51.807382 287.465294,51.5421738 287.270221,51.3614392 L287.270221,51.3614392 L284.257643,48.5718409 C283.76292,48.1160756 284.020337,47.3047347 284.692033,47.2006159 L284.692033,47.2006159 L288.790587,46.5621515 C289.058059,46.5208968 289.285309,46.3539139 289.401951,46.1162086 L289.401951,46.1162086 Z M294.2446,42.9396027 C294.2265,42.7176136 294.475873,42.5702756 294.668935,42.6901105 L294.668935,42.6901105 L295.845409,43.4287647 C295.92183,43.4759128 296.01635,43.4857353 296.100815,43.4503742 L296.100815,43.4503742 L297.387897,42.9199577 C297.599059,42.8335194 297.820277,43.0201475 297.761956,43.2362431 L297.761956,43.2362431 L297.410019,44.556391 C297.387897,44.6408648 297.408008,44.7331965 297.46834,44.7999897 L297.46834,44.7999897 L298.381364,45.8333198 C298.530183,46.0022673 298.417563,46.2655111 298.188302,46.2792626 C298.188302,46.2792626 296.034449,46.1967534 295.260189,45.2970097 C294.403474,44.3010053 294.2446,42.9415672 294.2446,42.9396027 Z"></path>
            </g>
        </g>
    </g>
</svg>