<?xml version="1.0" encoding="UTF-8"?>
<svg width="16px" height="15px" viewBox="0 0 16 15" version="1.1" xmlns="http://www.w3.org/2000/svg" xmlns:xlink="http://www.w3.org/1999/xlink">
    <title>形状结合备份 6</title>
    <g id="任务调度" stroke="none" stroke-width="1" fill="none" fill-rule="evenodd" opacity="0.399488">
        <g id="切图" transform="translate(-304.000000, -212.000000)" fill="#FFFFFF" fill-rule="nonzero">
            <g transform="translate(20.000000, 20.000000)" id="形状结合备份-6">
                <path d="M291.187779,192.456334 C291.479383,191.85716 292.348164,191.845373 292.657868,192.436689 L292.657868,192.436689 L294.54626,196.047451 C294.668935,196.283192 294.902219,196.444281 295.169691,196.477678 L295.169691,196.477678 L299.286344,197.00613 C299.960052,197.092568 300.23959,197.896051 299.758945,198.365568 L299.758945,198.365568 L296.824799,201.237675 C296.635758,201.424303 296.551294,201.689512 296.599559,201.948826 L296.599559,201.948826 L297.357731,205.934809 C297.480406,206.587025 296.784577,207.095832 296.179246,206.795262 L296.179246,206.795262 L292.478883,204.958449 C292.239566,204.838615 291.953995,204.842544 291.716689,204.968272 L291.716689,204.968272 L288.070625,206.901346 C287.473338,207.217631 286.763432,206.728469 286.870018,206.072324 L286.870018,206.072324 L287.515571,202.066697 C287.557803,201.807382 287.465294,201.542174 287.270221,201.361439 L287.270221,201.361439 L284.257643,198.571841 C283.76292,198.116076 284.020337,197.304735 284.692033,197.200616 L284.692033,197.200616 L288.790587,196.562151 C289.058059,196.520897 289.285309,196.353914 289.401951,196.116209 L289.401951,196.116209 Z M294.2446,192.939603 C294.2265,192.717614 294.475873,192.570276 294.668935,192.69011 L294.668935,192.69011 L295.845409,193.428765 C295.92183,193.475913 296.01635,193.485735 296.100815,193.450374 L296.100815,193.450374 L297.387897,192.919958 C297.599059,192.833519 297.820277,193.020147 297.761956,193.236243 L297.761956,193.236243 L297.410019,194.556391 C297.387897,194.640865 297.408008,194.733197 297.46834,194.79999 L297.46834,194.79999 L298.381364,195.83332 C298.530183,196.002267 298.417563,196.265511 298.188302,196.279263 C298.188302,196.279263 296.034449,196.196753 295.260189,195.29701 C294.403474,194.301005 294.2446,192.941567 294.2446,192.939603 Z"></path>
            </g>
        </g>
    </g>
</svg>