<?xml version="1.0" encoding="UTF-8"?>
<svg width="16px" height="16px" viewBox="0 0 16 16" version="1.1" xmlns="http://www.w3.org/2000/svg" xmlns:xlink="http://www.w3.org/1999/xlink">
    <title>形状</title>
    <g id="任务调度" stroke="none" stroke-width="1" fill="none" fill-rule="evenodd">
        <g id="切图" transform="translate(-187.000000, -61.000000)" fill="#FFFFFF" fill-rule="nonzero">
            <g transform="translate(20.000000, 20.000000)" id="形状">
                <path d="M179.445988,41.1612345 C179.453302,41.168383 179.460451,41.1755315 179.467599,41.1830125 C179.700006,41.4272255 179.703165,41.80992 179.474581,42.0579566 L179.467599,42.0654376 L178.113222,43.4683738 L180.629135,43.4683738 C181.962898,43.4934767 183.023691,44.5946793 182.999586,45.9282916 L182.999586,54.5395834 C183.024024,55.8735282 181.963065,56.9748971 180.629135,57 L169.370865,57 C168.036935,56.9748971 166.975976,55.8733619 167.000414,54.5395834 L167.000414,45.9284579 C166.975976,44.5945131 168.036935,43.4931442 169.370865,43.4680413 L171.890601,43.4680413 L170.536723,42.0651051 C170.301822,41.818066 170.301822,41.4302179 170.536723,41.1831787 C170.760652,40.9484417 171.132702,40.939797 171.36727,41.1637282 C171.373754,41.1700454 171.380403,41.176529 171.386721,41.1831787 L173.592592,43.4682075 L176.409403,43.4682075 L178.615441,41.1831787 C178.838704,40.9477767 179.210589,40.9379683 179.445988,41.1612345 Z M173.981599,47.6199713 C173.45062,47.6312989 173.028531,48.069519 173.037176,48.6005035 L173.037176,51.867704 C173.037839,52.0425469 173.082367,52.2144281 173.166678,52.3676008 C173.425518,52.8239416 174.005205,52.9840349 174.461707,52.7253587 L174.481656,52.7137216 L174.481656,52.7137216 L177.037135,51.0993226 C177.167084,51.0175053 177.275152,50.9052704 177.351998,50.7723199 C177.631618,50.311158 177.50145,49.7115146 177.055588,49.4079524 L174.481822,47.7739365 C174.334857,47.672447 174.160196,47.6186954 173.981599,47.6199713 Z"></path>
            </g>
        </g>
    </g>
</svg>