<?xml version="1.0" encoding="UTF-8"?>
<svg width="16px" height="16px" viewBox="0 0 16 16" version="1.1" xmlns="http://www.w3.org/2000/svg" xmlns:xlink="http://www.w3.org/1999/xlink">
    <title>形状备份 6</title>
    <g id="任务调度" stroke="none" stroke-width="1" fill="none" fill-rule="evenodd">
        <g id="切图" transform="translate(-187.000000, -136.000000)" fill="#56E9FF" fill-rule="nonzero">
            <g transform="translate(20.000000, 20.000000)" id="形状备份-6">
                <path d="M179.445988,116.161234 C179.453302,116.168383 179.460451,116.175532 179.467599,116.183012 C179.700006,116.427225 179.703165,116.80992 179.474581,117.057957 L179.467599,117.065438 L178.113222,118.468374 L180.629135,118.468374 C181.962898,118.493477 183.023691,119.594679 182.999586,120.928292 L182.999586,129.539583 C183.024024,130.873528 181.963065,131.974897 180.629135,132 L169.370865,132 C168.036935,131.974897 166.975976,130.873362 167.000414,129.539583 L167.000414,120.928458 C166.975976,119.594513 168.036935,118.493144 169.370865,118.468041 L171.890601,118.468041 L170.536723,117.065105 C170.301822,116.818066 170.301822,116.430218 170.536723,116.183179 C170.760652,115.948442 171.132702,115.939797 171.36727,116.163728 C171.373754,116.170045 171.380403,116.176529 171.386721,116.183179 L173.592592,118.468208 L176.409403,118.468208 L178.615441,116.183179 C178.838704,115.947777 179.210589,115.937968 179.445988,116.161234 Z M173.981599,122.619971 C173.45062,122.631299 173.028531,123.069519 173.037176,123.600504 L173.037176,126.867704 C173.037839,127.042547 173.082367,127.214428 173.166678,127.367601 C173.425518,127.823942 174.005205,127.984035 174.461707,127.725359 L174.481656,127.713722 L174.481656,127.713722 L177.037135,126.099323 C177.167084,126.017505 177.275152,125.90527 177.351998,125.77232 C177.631618,125.311158 177.50145,124.711515 177.055588,124.407952 L174.481822,122.773937 C174.334857,122.672447 174.160196,122.618695 173.981599,122.619971 Z"></path>
            </g>
        </g>
    </g>
</svg>