<?xml version="1.0" encoding="UTF-8"?>
<svg width="17px" height="19px" viewBox="0 0 17 19" version="1.1" xmlns="http://www.w3.org/2000/svg" xmlns:xlink="http://www.w3.org/1999/xlink">
    <title>形状备份 7</title>
    <g id="任务调度" stroke="none" stroke-width="1" fill="none" fill-rule="evenodd">
        <g id="切图" transform="translate(-227.000000, -134.000000)" fill="#56E9FF" fill-rule="nonzero">
            <g transform="translate(20.000000, 20.000000)" id="形状备份-7">
                <path d="M221.968497,128.464516 L209.070111,128.464516 C208.751633,128.464516 208.472964,128.219355 208.472964,127.851613 L208.472964,127.606452 C208.472964,127.27957 208.711823,126.993548 209.070111,126.993548 L211.578131,126.993548 C211.976229,126.993548 212.334518,126.666667 212.334518,126.217204 C212.334518,125.767742 212.016039,125.522581 211.617941,125.522581 L209.070111,125.522581 C207.915626,125.522581 207,126.462366 207,127.647312 L207,127.892473 C207,129.077419 207.915626,130.017204 209.070111,130.017204 L221.928688,130.017204 C222.247166,130.017204 222.525835,130.262366 222.525835,130.630108 L222.525835,130.834409 C222.525835,131.16129 222.286976,131.447312 221.928688,131.447312 L211.299462,131.447312 C210.901364,131.447312 210.543075,131.774194 210.543075,132.223656 C210.543075,132.632258 210.861554,133 211.299462,133 L221.928688,133 C223.083173,133 223.998799,132.060215 223.998799,130.875269 L223.998799,130.630108 C224.038609,129.404301 223.083173,128.464516 221.968497,128.464516 Z M215.519304,114 C212.852046,114 210.702315,116.206452 210.702315,118.944086 C210.702315,121.68172 213.966721,126.503226 215.519304,126.503226 C217.509796,126.503226 220.336294,121.68172 220.336294,118.944086 C220.336294,116.206452 218.146753,114 215.519304,114 Z M215.519304,121.436559 C214.16577,121.436559 213.051095,120.292473 213.051095,118.903226 C213.051095,117.513978 214.16577,116.369892 215.519304,116.369892 C216.872839,116.369892 217.987514,117.513978 217.987514,118.903226 C217.987514,120.292473 216.872839,121.436559 215.519304,121.436559 Z"></path>
            </g>
        </g>
    </g>
</svg>