<?xml version="1.0" encoding="UTF-8"?>
<svg width="17px" height="19px" viewBox="0 0 17 19" version="1.1" xmlns="http://www.w3.org/2000/svg" xmlns:xlink="http://www.w3.org/1999/xlink">
    <title>形状</title>
    <g id="任务调度" stroke="none" stroke-width="1" fill="none" fill-rule="evenodd">
        <g id="切图" transform="translate(-227.000000, -59.000000)" fill="#FFFFFF" fill-rule="nonzero">
            <g transform="translate(20.000000, 20.000000)" id="形状">
                <path d="M221.968497,53.4645161 L209.070111,53.4645161 C208.751633,53.4645161 208.472964,53.2193548 208.472964,52.8516129 L208.472964,52.6064516 C208.472964,52.2795699 208.711823,51.9935484 209.070111,51.9935484 L211.578131,51.9935484 C211.976229,51.9935484 212.334518,51.6666667 212.334518,51.2172043 C212.334518,50.7677419 212.016039,50.5225806 211.617941,50.5225806 L209.070111,50.5225806 C207.915626,50.5225806 207,51.4623656 207,52.6473118 L207,52.8924731 C207,54.0774194 207.915626,55.0172043 209.070111,55.0172043 L221.928688,55.0172043 C222.247166,55.0172043 222.525835,55.2623656 222.525835,55.6301075 L222.525835,55.8344086 C222.525835,56.1612903 222.286976,56.4473118 221.928688,56.4473118 L211.299462,56.4473118 C210.901364,56.4473118 210.543075,56.7741935 210.543075,57.2236559 C210.543075,57.6322581 210.861554,58 211.299462,58 L221.928688,58 C223.083173,58 223.998799,57.0602151 223.998799,55.8752688 L223.998799,55.6301075 C224.038609,54.4043011 223.083173,53.4645161 221.968497,53.4645161 Z M215.519304,39 C212.852046,39 210.702315,41.2064516 210.702315,43.944086 C210.702315,46.6817204 213.966721,51.5032258 215.519304,51.5032258 C217.509796,51.5032258 220.336294,46.6817204 220.336294,43.944086 C220.336294,41.2064516 218.146753,39 215.519304,39 Z M215.519304,46.4365591 C214.16577,46.4365591 213.051095,45.2924731 213.051095,43.9032258 C213.051095,42.5139785 214.16577,41.3698925 215.519304,41.3698925 C216.872839,41.3698925 217.987514,42.5139785 217.987514,43.9032258 C217.987514,45.2924731 216.872839,46.4365591 215.519304,46.4365591 Z"></path>
            </g>
        </g>
    </g>
</svg>