<?xml version="1.0" encoding="UTF-8"?>
<svg width="17px" height="18px" viewBox="0 0 17 18" version="1.1" xmlns="http://www.w3.org/2000/svg" xmlns:xlink="http://www.w3.org/1999/xlink">
    <title>形状</title>
    <defs>
        <filter id="filter-1">
            <feColorMatrix in="SourceGraphic" type="matrix" values="0 0 0 0 1.000000 0 0 0 0 1.000000 0 0 0 0 1.000000 0 0 0 1.000000 0"></feColorMatrix>
        </filter>
    </defs>
    <g id="任务调度" stroke="none" stroke-width="1" fill="none" fill-rule="evenodd">
        <g id="切图" transform="translate(-157.000000, -27.000000)">
            <g transform="translate(20.000000, 20.000000)" id="编组" filter="url(#filter-1)">
                <g transform="translate(137.000000, 7.000000)">
                    <path d="M4.20221696,13.0539422 C3.16657777,12.2045959 2.56612848,10.9357943 2.56597227,9.59641467 C2.56597227,8.49961592 2.96365508,7.4908595 3.6232266,6.7104163 L2.80025447,5.95981796 C2.53314293,6.12993369 2.22797919,6.29930329 1.91460812,6.29930329 C1.13864164,6.35899303 0.465639949,5.90982782 0.206735751,5.12043115 C-0.0514223298,4.39147035 0.261948747,3.55208354 0.880483559,3.10291831 C1.55423137,2.65300699 2.38541084,2.70299713 2.95768611,3.21259819 C3.31731673,3.49239378 3.52996139,3.94230512 3.47474839,4.45116006 C3.52996139,4.84138167 3.42848885,5.180867 3.27105719,5.4606626 L4.10596728,6.22096051 C5.07195575,5.37589912 6.35542253,4.9884118 7.62766126,5.15773723 L7.62766126,3.4923938 C6.8524409,3.3230242 6.28016563,2.59331726 6.28016565,1.75393045 C6.28016565,0.795164185 6.95391346,0.0154671059 7.83135247,0.00651364855 C8.74497018,-0.0519971055 9.54428514,0.615465319 9.64965082,1.52487112 C9.75112336,2.42394767 9.18780154,3.3230242 8.30140907,3.4923938 L8.30140907,5.30099258 C9.95972966,5.79104577 11.1896708,7.18927325 11.4642186,8.89655261 C11.4999058,8.83869459 11.5528965,8.79353502 11.6156813,8.76747357 L13.221335,8.14819264 C13.1198624,7.19912596 13.6369247,6.36048526 14.5785302,6.18066995 C15.4089635,5.95086449 16.2393969,6.46046554 16.5535141,7.29985237 C16.8116722,8.13849307 16.4430881,9.09800545 15.6671216,9.4867348 C14.8919012,9.88665598 13.9599954,9.60686038 13.4884465,8.81746371 L11.8827928,9.43674466 C11.7552871,9.4751337 11.6170489,9.44804461 11.5134626,9.36437085 C11.5755579,10.5899751 11.1324826,11.7874491 10.2875918,12.6774609 C9.44270092,13.5674728 8.26987703,14.0721944 7.04270193,14.0738905 C6.25750297,14.0751008 5.48598322,13.868384 4.80657546,13.4747548 L3.1606312,15.1706892 C3.31731673,15.4609305 3.41878928,15.7899701 3.41878928,16.1302016 C3.41860199,16.9312837 2.89354744,17.6376216 2.12650664,17.8686649 C1.35128628,18.0380345 0.567112483,17.6985492 0.206735751,16.9688423 C-0.162594438,16.2898716 -0.00516279151,15.3907951 0.567112483,14.8312039 C1.13938776,14.2716127 1.96982111,14.2119229 2.64356892,14.6618343 L4.20296308,13.0546883 L4.20221696,13.0539422 Z M12.8617043,14.611098 L10.8956739,13.0427504 C10.7942014,12.9830606 10.7389884,12.8129449 10.7389884,12.7025189 C10.7389884,12.5928391 10.8397148,12.4831592 10.9419335,12.4234694 C11.098619,12.3734793 11.2000915,12.4234694 11.3015641,12.4831592 L13.276548,14.1111965 C13.5451517,13.8314009 13.8488232,13.7217211 14.1629404,13.6620313 C14.9471142,13.5516053 15.6671216,14.0015167 15.9812388,14.7304775 C16.2451111,15.4746008 16.016603,16.3043206 15.4089635,16.8084261 C14.7814753,17.2583375 13.9599954,17.2583375 13.3325071,16.7487364 C12.7042727,16.2391354 12.5475872,15.3400588 12.8617043,14.611098 L12.8617043,14.611098 Z" id="形状" fill="#000000" fill-rule="nonzero"></path>
                </g>
            </g>
        </g>
    </g>
</svg>