<?xml version="1.0" encoding="UTF-8"?>
<svg width="18px" height="13px" viewBox="0 0 18 13" version="1.1" xmlns="http://www.w3.org/2000/svg" xmlns:xlink="http://www.w3.org/1999/xlink">
    <title>形状备份 11</title>
    <g id="任务调度" stroke="none" stroke-width="1" fill="none" fill-rule="evenodd" opacity="0.399488">
        <g id="切图" transform="translate(-341.000000, -183.000000)" fill="#FFFFFF" fill-rule="nonzero">
            <g transform="translate(20.000000, 20.000000)" id="形状备份-11">
                <path d="M335.314103,165.424253 C335.314103,164.085171 334.219229,163 332.868495,163 L323.44569,163 C322.094956,163 321,164.085171 321,165.424253 L321,173.575582 C321,174.914665 322.094956,176 323.445607,176 L332.868495,176 C334.219229,176 335.314103,174.9145 335.314103,173.575665 C335.314088,173.490052 335.354625,173.409466 335.423441,173.358306 C335.492256,173.307146 335.581258,173.291428 335.663499,173.315911 L337.727459,173.929462 C338.251306,174.085215 338.802619,173.787861 338.958759,173.265228 C338.986102,173.173722 339,173.078744 339,172.983259 L339,165.978152 C339,165.432892 338.556821,164.99081 338.01021,164.99081 C337.914461,164.990809 337.819219,165.004666 337.727459,165.031949 L335.626464,165.656525 C335.552932,165.67841 335.473358,165.66435 335.411835,165.618602 C335.350313,165.572854 335.314078,165.500798 335.314103,165.424253 L335.314103,165.424253 Z M326.1964,171.655203 L326.1964,167.426911 C326.1964,166.88157 326.639579,166.43957 327.186191,166.43957 C327.373679,166.43957 327.557317,166.492651 327.715729,166.59269 L331.06221,168.706671 C331.524112,168.99843 331.661363,169.608443 331.36888,170.06912 C331.290599,170.192413 331.185891,170.296862 331.062293,170.374949 L327.715811,172.489342 C327.253991,172.781184 326.642548,172.644272 326.349983,172.183595 C326.249651,172.02556 326.1964,171.842345 326.1964,171.655285 L326.1964,171.655203 Z"></path>
            </g>
        </g>
    </g>
</svg>