<?xml version="1.0" encoding="UTF-8"?>
<svg width="16px" height="16px" viewBox="0 0 16 16" version="1.1" xmlns="http://www.w3.org/2000/svg" xmlns:xlink="http://www.w3.org/1999/xlink">
    <title>形状结合备份 2</title>
    <g id="任务调度" stroke="none" stroke-width="1" fill="none" fill-rule="evenodd">
        <g id="切图" transform="translate(-303.000000, -105.000000)" fill="#56E9FF" fill-rule="nonzero">
            <g transform="translate(20.000000, 20.000000)" id="形状结合备份-2">
                <path d="M291,85 C295.418278,85 299,88.581722 299,93 C299,95.8581247 297.475209,98.4991408 295,99.9282032 C292.524791,101.357266 289.475209,101.357266 287,99.9282032 C284.524791,98.4991408 283,95.8581247 283,93 C283,88.581722 286.581722,85 291,85 Z M292.364727,88.6167272 C292.130524,88.4008433 291.76984,88.4008433 291.535636,88.6167272 C291.427346,88.7163598 291.365125,88.8563711 291.363724,89.0035155 C291.36237,89.1506599 291.421958,89.2918117 291.528364,89.3934545 L291.528364,89.3934545 L291.535273,89.4 L291.598182,89.4603636 C293.627636,91.4436363 293.627636,94.5927272 291.597091,96.5759999 L291.597091,96.5759999 L291.535273,96.6356363 C291.433824,96.735347 291.377764,96.8692048 291.377901,97.0088799 C291.378038,97.148555 291.43436,97.2823027 291.534182,97.3799999 C291.642545,97.4858181 291.791273,97.5454611 291.946909,97.5454611 C292.09732,97.5461692 292.242335,97.4894637 292.352364,97.386909 L292.352364,97.386909 L292.358545,97.3810908 L292.434182,97.3076363 C294.883273,94.902909 294.885818,91.0974545 292.44,88.6894545 L292.44,88.6894545 L292.365091,88.6167272 Z M290.132727,90.2276363 C289.903271,90.0454822 289.578547,90.0454822 289.349091,90.2276363 L289.349091,90.2276363 L289.342545,90.2330909 L289.338909,90.2356363 C289.136116,90.4381464 289.133521,90.760847 289.330182,90.962909 L289.330182,90.962909 L289.336,90.9694545 L289.337818,90.970909 L289.375273,91.0061818 C290.543636,92.1196363 290.543636,93.8832727 289.375273,94.9963636 L289.375273,94.9963636 L289.339273,95.0298181 C289.238679,95.1269189 289.182844,95.2572282 289.181734,95.39369 C289.180657,95.5301518 289.234395,95.6613396 289.330909,95.7578181 L289.330909,95.7578181 L289.34,95.766909 L289.350182,95.774909 C289.580242,95.9533516 289.90194,95.9533516 290.132,95.774909 L290.132,95.774909 L290.138909,95.7694545 L290.141091,95.7676363 L290.191636,95.718909 C291.754545,94.1916363 291.754182,91.8098181 290.191273,90.2825454 L290.191273,90.2825454 L290.143273,90.2367272 L290.141455,90.2349091 Z M288.004727,92.3276363 C287.735761,92.2166768 287.426517,92.2772371 287.219273,92.4814545 L287.219273,92.4814545 L287.213091,92.4876363 C286.931072,92.7745065 286.930749,93.2243698 287.206182,93.5054545 L287.206182,93.5054545 L287.212727,93.5119999 C287.426545,93.722909 287.735636,93.7836363 288.004727,93.6723636 C288.277071,93.5600733 288.454777,93.2945844 288.454777,92.9999999 C288.454777,92.7054155 288.277071,92.4399266 288.004727,92.3276363 Z"></path>
            </g>
        </g>
    </g>
</svg>