<?xml version="1.0" encoding="UTF-8"?>
<svg width="16px" height="16px" viewBox="0 0 16 16" version="1.1" xmlns="http://www.w3.org/2000/svg" xmlns:xlink="http://www.w3.org/1999/xlink">
    <title>形状结合备份 5</title>
    <g id="任务调度" stroke="none" stroke-width="1" fill="none" fill-rule="evenodd" opacity="0.399488">
        <g id="切图" transform="translate(-303.000000, -180.000000)" fill="#FFFFFF" fill-rule="nonzero">
            <g transform="translate(20.000000, 20.000000)" id="形状结合备份-5">
                <path d="M291,160 C295.418278,160 299,163.581722 299,168 C299,170.858125 297.475209,173.499141 295,174.928203 C292.524791,176.357266 289.475209,176.357266 287,174.928203 C284.524791,173.499141 283,170.858125 283,168 C283,163.581722 286.581722,160 291,160 Z M292.364727,163.616727 C292.130524,163.400843 291.76984,163.400843 291.535636,163.616727 C291.427346,163.71636 291.365125,163.856371 291.363724,164.003515 C291.36237,164.15066 291.421958,164.291812 291.528364,164.393455 L291.528364,164.393455 L291.535273,164.4 L291.598182,164.460364 C293.627636,166.443636 293.627636,169.592727 291.597091,171.576 L291.597091,171.576 L291.535273,171.635636 C291.433824,171.735347 291.377764,171.869205 291.377901,172.00888 C291.378038,172.148555 291.43436,172.282303 291.534182,172.38 C291.642545,172.485818 291.791273,172.545461 291.946909,172.545461 C292.09732,172.546169 292.242335,172.489464 292.352364,172.386909 L292.352364,172.386909 L292.358545,172.381091 L292.434182,172.307636 C294.883273,169.902909 294.885818,166.097455 292.44,163.689455 L292.44,163.689455 L292.365091,163.616727 Z M290.132727,165.227636 C289.903271,165.045482 289.578547,165.045482 289.349091,165.227636 L289.349091,165.227636 L289.342545,165.233091 L289.338909,165.235636 C289.136116,165.438146 289.133521,165.760847 289.330182,165.962909 L289.330182,165.962909 L289.336,165.969455 L289.337818,165.970909 L289.375273,166.006182 C290.543636,167.119636 290.543636,168.883273 289.375273,169.996364 L289.375273,169.996364 L289.339273,170.029818 C289.238679,170.126919 289.182844,170.257228 289.181734,170.39369 C289.180657,170.530152 289.234395,170.66134 289.330909,170.757818 L289.330909,170.757818 L289.34,170.766909 L289.350182,170.774909 C289.580242,170.953352 289.90194,170.953352 290.132,170.774909 L290.132,170.774909 L290.138909,170.769454 L290.141091,170.767636 L290.191636,170.718909 C291.754545,169.191636 291.754182,166.809818 290.191273,165.282545 L290.191273,165.282545 L290.143273,165.236727 L290.141455,165.234909 Z M288.004727,167.327636 C287.735761,167.216677 287.426517,167.277237 287.219273,167.481454 L287.219273,167.481454 L287.213091,167.487636 C286.931072,167.774507 286.930749,168.22437 287.206182,168.505454 L287.206182,168.505454 L287.212727,168.512 C287.426545,168.722909 287.735636,168.783636 288.004727,168.672364 C288.277071,168.560073 288.454777,168.294584 288.454777,168 C288.454777,167.705415 288.277071,167.439927 288.004727,167.327636 Z"></path>
            </g>
        </g>
    </g>
</svg>