<?xml version="1.0" encoding="UTF-8"?>
<svg width="9px" height="9px" viewBox="0 0 9 9" version="1.1" xmlns="http://www.w3.org/2000/svg" xmlns:xlink="http://www.w3.org/1999/xlink">
    <title>形状结合</title>
    <g id="页面-1" stroke="none" stroke-width="1" fill="none" fill-rule="evenodd">
        <g id="弹窗" transform="translate(-384.000000, -882.000000)" fill="#56E9FF">
            <g id="编组-34" transform="translate(40.000000, 860.000000)">
                <path d="M347.062742,27.9443146 C347.375161,28.256734 347.375161,28.763266 347.062742,29.0756854 L345.365685,30.7727417 C345.053266,31.0851611 344.546734,31.0851611 344.234315,30.7727417 C343.921895,30.4603223 343.921895,29.9537903 344.234315,29.6413708 L345.931371,27.9443146 C346.24379,27.6318951 346.750322,27.6318951 347.062742,27.9443146 Z M352.686955,22.2343146 C352.999375,22.546734 352.999375,23.053266 352.686955,23.3656854 L349.592,26.46 L352.72127,29.589899 C353.033689,29.9023184 353.033689,30.4088504 352.72127,30.7212698 C352.40885,31.0336893 351.902318,31.0336893 351.589899,30.7212698 L344.235988,23.3673593 C343.923569,23.0549399 343.923569,22.5484079 344.235988,22.2359885 C344.548408,21.923569 345.05494,21.923569 345.367359,22.2359885 L348.461,25.329 L351.555584,22.2343146 C351.868004,21.9218951 352.374536,21.9218951 352.686955,22.2343146 Z" id="形状结合"></path>
            </g>
        </g>
    </g>
</svg>