<?xml version="1.0" encoding="UTF-8"?>
<svg width="15px" height="26px" viewBox="0 0 15 26" version="1.1" xmlns="http://www.w3.org/2000/svg" xmlns:xlink="http://www.w3.org/1999/xlink">
    <title>形状结合</title>
    <defs>
        <path d="M129,214 C129,214.966498 129.783502,215.75 130.75,215.75 C131.716498,215.75 132.5,214.966498 132.5,214 C132.5,213.374785 132.166452,212.797063 131.625,212.484456 C131.083548,212.171848 130.416452,212.171848 129.875,212.484456 C129.333548,212.797063 129,213.374785 129,214 L129,214 Z M123.75,214 C123.75,214.625215 124.083548,215.202937 124.625,215.515544 C125.166452,215.828152 125.833548,215.828152 126.375,215.515544 C126.916452,215.202937 127.25,214.625215 127.25,214 C127.25,213.374785 126.916452,212.797063 126.375,212.484456 C125.833548,212.171848 125.166452,212.171848 124.625,212.484456 C124.083548,212.797063 123.75,213.374785 123.75,214 L123.75,214 Z M134.25,214 C134.25,214.966498 135.033502,215.75 136,215.75 C136.966498,215.75 137.75,214.966498 137.75,214 C137.75,213.033502 136.966498,212.25 136,212.25 C135.033502,212.25 134.25,213.033502 134.25,214 L134.25,214 Z" id="path-1"></path>
        <filter x="-64.3%" y="-257.1%" width="228.6%" height="614.3%" filterUnits="objectBoundingBox" id="filter-2">
            <feOffset dx="0" dy="0" in="SourceAlpha" result="shadowOffsetOuter1"></feOffset>
            <feGaussianBlur stdDeviation="3" in="shadowOffsetOuter1" result="shadowBlurOuter1"></feGaussianBlur>
            <feColorMatrix values="0 0 0 0 0.140585543   0 0 0 0 0.553507333   0 0 0 0 1  0 0 0 0.399748689 0" type="matrix" in="shadowBlurOuter1"></feColorMatrix>
        </filter>
    </defs>
    <g id="页面-1" stroke="none" stroke-width="1" fill="none" fill-rule="evenodd">
        <g id="弹窗" transform="translate(-176.000000, -1118.000000)">
            <g id="图标详情" transform="translate(40.000000, 860.000000)">
                <g id="内容" transform="translate(13.000000, 57.000000)">
                    <g id="形状结合" transform="translate(130.750000, 214.000000) scale(-1, -1) rotate(-270.000000) translate(-130.750000, -214.000000) ">
                        <use fill="black" fill-opacity="1" filter="url(#filter-2)" xlink:href="#path-1"></use>
                        <use fill="#56E9FF" fill-rule="evenodd" xlink:href="#path-1"></use>
                    </g>
                </g>
            </g>
        </g>
    </g>
</svg>