<?xml version="1.0" encoding="UTF-8"?>
<svg width="13px" height="16px" viewBox="0 0 13 16" version="1.1" xmlns="http://www.w3.org/2000/svg" xmlns:xlink="http://www.w3.org/1999/xlink">
    <title>形状</title>
    <g id="页面-1" stroke="none" stroke-width="1" fill="none" fill-rule="evenodd" opacity="0.600000024">
        <g id="雪碧图" transform="translate(-211.000000, -193.000000)" fill="#FFFFFF" fill-rule="nonzero">
            <path d="M223.86386,199.55946 C223.86386,195.93668 220.98418,193 217.43186,193 C213.87964,193 211,195.93668 211,199.55946 C211,199.67444 211.0111,199.78558 211.01692,199.89814 C211.01164,199.95374 211,200.00736 211,200.06442 C211,204.1017 216.93718,208.67484 216.93718,208.67484 C216.93718,208.67484 217.43192,209.0532 217.92668,208.67484 C218.42142,208.29606 223.86386,204.1017 223.86386,200.06442 C223.86386,200.00736 223.85222,199.95374 223.84694,199.89814 C223.8527,199.78558 223.86386,199.67444 223.86386,199.55946 L223.86386,199.55946 Z M217.43186,202.083 C216.06548,202.083 214.95812,200.95342 214.95812,199.55946 C214.95812,198.16648 216.06546,197.03686 217.43186,197.03686 C218.79832,197.03686 219.90574,198.16648 219.90574,199.55946 C219.90574,200.95342 218.79832,202.083 217.43186,202.083 L217.43186,202.083 Z" id="形状"></path>
        </g>
    </g>
</svg>