<?xml version="1.0" encoding="UTF-8"?>
<svg width="17px" height="16px" viewBox="0 0 17 16" version="1.1" xmlns="http://www.w3.org/2000/svg" xmlns:xlink="http://www.w3.org/1999/xlink">
    <title>切图</title>
    <defs>
        <filter id="filter-1">
            <feColorMatrix in="SourceGraphic" type="matrix" values="0 0 0 0 0.649412 0 0 0 0 0.677647 0 0 0 0 0.705882 0 0 0 1.000000 0"></feColorMatrix>
        </filter>
    </defs>
    <g id="任务调度" stroke="none" stroke-width="1" fill="none" fill-rule="evenodd">
        <g id="切图" transform="translate(-386.000000, -215.000000)">
            <g transform="translate(20.000000, 20.000000)" id="钉" filter="url(#filter-1)">
                <g transform="translate(366.000000, 195.000000)">
                    <path d="M11.8321409,0.326011464 L15.7737333,4.09623028 C16.2878541,4.43897745 16.2878541,5.12447178 15.9451069,5.63859253 C15.4309862,6.15271328 14.7454918,6.15271328 14.4027447,5.80996611 L14.2313711,5.63859253 L13.8886239,5.29584536 L9.9470315,10.9511736 L11.1466466,12.1507887 C11.4893937,12.6649094 11.4893937,13.3504037 10.975273,13.6931509 C10.6325258,14.0358981 10.1184051,14.0358981 9.60428434,13.6931509 L2.40659387,6.32408686 C2.0638467,5.80996611 2.0638467,5.29584536 2.40659387,4.78172461 C2.74934103,4.43897745 3.43483536,4.43897745 3.77758253,4.78172461 L4.97719761,5.98133969 L10.6325258,2.03974729 L10.4611523,1.86837371 C9.9470315,1.35425296 9.9470315,0.840132212 10.2897787,0.326011464 C10.6325258,-0.0167357014 11.3180202,-0.188109284 11.8321409,0.326011464 Z M6.0054391,11.4652943 L4.63445044,10.0943057 C3.43483536,11.4652943 1.54972595,13.5217773 1.20697879,14.0358981 C0.692858039,14.5500188 0.350110874,15.2355132 0.00736370863,15.9210075 C0.864231622,15.7496339 1.54972595,15.4068867 2.0638467,14.892766 C2.57796745,14.5500188 4.63445044,12.6649094 6.0054391,11.4652943 L6.0054391,11.4652943 Z" id="形状" fill="#000000" fill-rule="nonzero"></path>
                </g>
            </g>
        </g>
    </g>
</svg>