<?xml version="1.0" encoding="UTF-8"?>
<svg width="29px" height="29px" viewBox="0 0 29 29" version="1.1" xmlns="http://www.w3.org/2000/svg" xmlns:xlink="http://www.w3.org/1999/xlink">
    <title>形状结合备份 3</title>
    <defs>
        <linearGradient x1="50%" y1="15.4528847%" x2="50%" y2="104.727046%" id="linearGradient-1">
            <stop stop-color="#32ACBE" offset="0%"></stop>
            <stop stop-color="#61EAFF" offset="100%"></stop>
        </linearGradient>
    </defs>
    <g id="页面-1" stroke="none" stroke-width="1" fill="none" fill-rule="evenodd">
        <g id="筛地点" transform="translate(-1702.000000, -1010.000000)" fill="url(#linearGradient-1)" fill-rule="nonzero">
            <g id="编组-16" transform="translate(1635.000000, 922.000000)">
                <path d="M87.7453508,88.5659067 L87.7690906,88.5892441 L94.3604265,95.18058 C95.1382052,95.9584258 95.1459843,97.2146879 94.3837638,98.0020564 L90.5036894,101.882804 C90.880904,102.495513 91.0984904,103.216999 91.0984904,103.989303 C91.0984904,104.682699 90.9230949,105.335131 90.6142503,105.904652 L93.1772389,108.468 L93.1773954,104.659917 C93.1773954,104.10438 93.6277801,103.653996 94.1833172,103.653996 C94.7318798,103.653996 95.1778385,104.093047 95.1890377,104.63886 L95.1892389,104.659917 L95.1892389,115.054442 C95.1892389,115.609979 94.7388542,116.060364 94.1833172,116.060364 C93.6347545,116.060364 93.1887958,115.621313 93.1775966,115.075499 L93.1769526,111.278083 C93.1216973,111.243146 93.069103,111.202304 93.0200692,111.155556 L89.2430326,107.379409 C88.6172892,107.780452 87.8732015,108.01299 87.0748034,108.01299 C86.3024994,108.01299 85.5810139,107.795403 84.968305,107.418189 L79.9448299,112.441326 C79.1670512,113.219171 77.910789,113.226951 77.1233535,112.464663 L77.0996808,112.441326 L70.5083449,105.84999 C69.7304991,105.072211 69.72272,103.815949 70.4850075,103.028513 L84.9238744,88.5893111 C85.7017201,87.8113983 86.9579823,87.8036862 87.7453508,88.5659067 Z M68.1951942,106.255108 L76.9954673,115.055448 L76.2842135,115.766769 C75.8913675,116.159615 75.2544179,116.159615 74.8615719,115.766769 L67.4838734,108.389003 C67.0910274,107.996157 67.0910274,107.359208 67.4838734,106.966362 L68.1951942,106.255108 Z M86.346516,90.0118857 L71.9309865,104.427415 L78.5222553,111.018751 L83.5713872,105.969652 C83.240189,105.384992 83.0511163,104.709227 83.0511163,103.989303 C83.0511163,101.767087 84.8525881,99.9656157 87.0748034,99.9656157 C87.7947277,99.9656157 88.470493,100.154688 89.0551521,100.485887 L92.9377848,96.6031545 L86.346516,90.0118857 Z M87.0748034,101.977459 C85.9636622,101.977459 85.0629598,102.878162 85.0629598,103.989303 C85.0629598,105.100444 85.9636622,106.001146 87.0748034,106.001146 C88.1859445,106.001146 89.0866469,105.100444 89.0866469,103.989303 C89.0866469,102.878162 88.1859445,101.977459 87.0748034,101.977459 Z" id="形状结合备份-3" transform="translate(81.189239, 102.030702) scale(-1, 1) translate(-81.189239, -102.030702) "></path>
            </g>
        </g>
    </g>
</svg>