<?xml version="1.0" encoding="UTF-8"?>
<svg width="29px" height="29px" viewBox="0 0 29 29" version="1.1" xmlns="http://www.w3.org/2000/svg" xmlns:xlink="http://www.w3.org/1999/xlink">
    <title>形状结合1</title>
    <g id="页面-1" stroke="none" stroke-width="1" fill="none" fill-rule="evenodd">
        <g id="筛地点" transform="translate(-1702.000000, -960.000000)" fill="#FFFFFF" fill-rule="nonzero">
            <g id="编组-16" transform="translate(1635.000000, 922.000000)">
                <path d="M87.7453508,38.5659067 L87.7690906,38.5892441 L94.3604265,45.18058 C95.1382052,45.9584258 95.1459843,47.2146879 94.3837638,48.0020564 L90.5036894,51.8828044 C90.880904,52.4955133 91.0984904,53.2169988 91.0984904,53.9893028 C91.0984904,54.6826992 90.9230949,55.3351311 90.6142503,55.9046521 L93.1772389,58.468 L93.1773954,54.6599173 C93.1773954,54.1043802 93.6277801,53.6539955 94.1833172,53.6539955 C94.7318798,53.6539955 95.1778385,54.0930468 95.1890377,54.63886 L95.1892389,54.6599173 L95.1892389,65.0544422 C95.1892389,65.6099792 94.7388542,66.0603639 94.1833172,66.0603639 C93.6347545,66.0603639 93.1887958,65.6213126 93.1775966,65.0754995 L93.1769526,61.2780828 C93.1216973,61.2431458 93.069103,61.2023038 93.0200692,61.1555565 L89.2430326,57.3794089 C88.6172892,57.7804516 87.8732015,58.0129898 87.0748034,58.0129898 C86.3024994,58.0129898 85.5810139,57.7954034 84.968305,57.4181888 L79.9448299,62.4413257 C79.1670512,63.2191715 77.910789,63.2269506 77.1233535,62.4646631 L77.0996808,62.4413257 L70.5083449,55.8499898 C69.7304991,55.0722111 69.72272,53.8159489 70.4850075,53.0285134 L84.9238744,38.5893111 C85.7017201,37.8113983 86.9579823,37.8036862 87.7453508,38.5659067 Z M68.1951942,56.255108 L76.9954673,65.0554481 L76.2842135,65.7667689 C75.8913675,66.1596149 75.2544179,66.1596149 74.8615719,65.7667689 L67.4838734,58.3890034 C67.0910274,57.9961574 67.0910274,57.3592077 67.4838734,56.9663618 L68.1951942,56.255108 Z M86.346516,40.0118857 L71.9309865,54.4274152 L78.5222553,61.0187511 L83.5713872,55.9696515 C83.240189,55.3849924 83.0511163,54.7092271 83.0511163,53.9893028 C83.0511163,51.7670875 84.8525881,49.9656157 87.0748034,49.9656157 C87.7947277,49.9656157 88.470493,50.1546884 89.0551521,50.4858866 L92.9377848,46.6031545 L86.346516,40.0118857 Z M87.0748034,51.9774592 C85.9636622,51.9774592 85.0629598,52.8781616 85.0629598,53.9893028 C85.0629598,55.1004439 85.9636622,56.0011463 87.0748034,56.0011463 C88.1859445,56.0011463 89.0866469,55.1004439 89.0866469,53.9893028 C89.0866469,52.8781616 88.1859445,51.9774592 87.0748034,51.9774592 Z" id="形状结合1" transform="translate(81.189239, 52.030702) scale(-1, 1) translate(-81.189239, -52.030702) "></path>
            </g>
        </g>
    </g>
</svg>