<?xml version="1.0" encoding="UTF-8"?>
<svg width="29px" height="25px" viewBox="0 0 29 25" version="1.1" xmlns="http://www.w3.org/2000/svg" xmlns:xlink="http://www.w3.org/1999/xlink">
    <title>形状结合备份 2</title>
    <defs>
        <linearGradient x1="50%" y1="15.4528847%" x2="50%" y2="104.727046%" id="linearGradient-1">
            <stop stop-color="#32ACBE" offset="0%"></stop>
            <stop stop-color="#61EAFF" offset="100%"></stop>
        </linearGradient>
    </defs>
    <g id="页面-1" stroke="none" stroke-width="1" fill="none" fill-rule="evenodd">
        <g id="筛地点" transform="translate(-1750.000000, -1014.000000)" fill="url(#linearGradient-1)" fill-rule="nonzero">
            <g id="编组-16" transform="translate(1635.000000, 922.000000)">
                <path d="M142.174187,92 C142.734785,92 143.189239,92.4544542 143.189239,93.0150519 L143.189239,93.0150519 L143.189239,109.895484 C143.189239,110.456082 142.734785,110.910536 142.174187,110.910536 L142.174187,110.910536 L130.204239,110.91 L130.204239,114.074 L137.99526,114.074412 L137.99526,116.104516 L120.383218,116.104516 L120.383218,114.074412 L128.173239,114.074 L128.173239,110.91 L116.204291,110.910536 C115.681066,110.910536 115.250305,110.514656 115.195195,110.006086 L115.189239,109.895484 L115.189239,93.0150519 C115.189239,92.4544542 115.643693,92 116.204291,92 L116.204291,92 Z M141.15866,94.0286199 L117.21866,94.0286199 L117.21866,108.87883 L141.15866,108.87883 L141.15866,94.0286199 Z M125.010312,101.738711 L125.010312,106.365805 L122.980208,106.365805 L122.980208,101.738711 L125.010312,101.738711 Z M130.204291,99.1417214 L130.204291,106.365805 L128.174187,106.365805 L128.174187,99.1417214 L130.204291,99.1417214 Z M135.39827,96.5447318 L135.39827,106.365805 L133.368166,106.365805 L133.368166,96.5447318 L135.39827,96.5447318 Z" id="形状结合备份-2"></path>
            </g>
        </g>
    </g>
</svg>