<?xml version="1.0" encoding="UTF-8"?>
<svg width="29px" height="25px" viewBox="0 0 29 25" version="1.1" xmlns="http://www.w3.org/2000/svg" xmlns:xlink="http://www.w3.org/1999/xlink">
    <title>形状结合22</title>
    <g id="页面-1" stroke="none" stroke-width="1" fill="none" fill-rule="evenodd">
        <g id="筛地点" transform="translate(-1750.000000, -964.000000)" fill="#FFFFFF" fill-rule="nonzero">
            <g id="编组-16" transform="translate(1635.000000, 922.000000)">
                <path d="M142.174187,42 C142.734785,42 143.189239,42.4544542 143.189239,43.0150519 L143.189239,43.0150519 L143.189239,59.8954844 C143.189239,60.4560821 142.734785,60.9105364 142.174187,60.9105364 L142.174187,60.9105364 L130.204239,60.91 L130.204239,64.074 L137.99526,64.0744117 L137.99526,66.1045156 L120.383218,66.1045156 L120.383218,64.0744117 L128.173239,64.074 L128.173239,60.91 L116.204291,60.9105364 C115.681066,60.9105364 115.250305,60.5146562 115.195195,60.0060855 L115.189239,59.8954844 L115.189239,43.0150519 C115.189239,42.4544542 115.643693,42 116.204291,42 L116.204291,42 Z M141.15866,44.0286199 L117.21866,44.0286199 L117.21866,58.8788298 L141.15866,58.8788298 L141.15866,44.0286199 Z M125.010312,51.738711 L125.010312,56.3658045 L122.980208,56.3658045 L122.980208,51.738711 L125.010312,51.738711 Z M130.204291,49.1417214 L130.204291,56.3658045 L128.174187,56.3658045 L128.174187,49.1417214 L130.204291,49.1417214 Z M135.39827,46.5447318 L135.39827,56.3658045 L133.368166,56.3658045 L133.368166,46.5447318 L135.39827,46.5447318 Z" id="形状结合22"></path>
            </g>
        </g>
    </g>
</svg>