<?xml version="1.0" encoding="UTF-8"?>
<svg width="33px" height="39px" viewBox="0 0 33 39" version="1.1" xmlns="http://www.w3.org/2000/svg" xmlns:xlink="http://www.w3.org/1999/xlink">
    <title>编组 10</title>
    <g id="页面-1" stroke="none" stroke-width="1" fill="none" fill-rule="evenodd">
        <g id="筛监控" transform="translate(-1391.000000, -485.000000)" fill-rule="nonzero">
            <g id="分组-16备份-4" transform="translate(1383.000000, 485.000000)">
                <g id="编组-10" transform="translate(8.000000, 0.000000)">
                    <path d="M16.128,0.5 C20.443553,0.5 24.350553,2.24922348 27.1786648,5.07733522 C30.0067765,7.90544697 31.756,11.812447 31.756,16.128 C31.756,20.3446763 30.0860255,24.171316 27.3774173,26.9764069 L27.3774173,26.9764069 L16.1279487,38.2292741 L4.88087975,26.9820736 C2.17000743,24.1714555 0.5,20.3447505 0.5,16.128 C0.5,11.812447 2.24922348,7.90544697 5.07733522,5.07733522 C7.90544697,2.24922348 11.812447,0.5 16.128,0.5 Z" id="形状结合" stroke="#FFFFFF" fill="#0091FF"></path>
                    <path d="M12.2466666,20.1889443 L10.1233333,20.1889443 L10.1233333,17.5347777 L8,17.1429721 L8,25.6944442 L10.1233333,25.0068887 L10.1233333,22.0569721 L13.561111,22.0569721 L15.381111,19.5999721 L12.9544444,18.3209166 L12.2466666,20.1889443 Z M23.2677776,20.6793332 L28.222222,17.6308332 L12.8533333,8 L11.0333333,8 L8.60666666,11.6374722 L8.60666666,12.9165277 L22.1555554,20.7804443 L23.2677776,20.6793332 Z M21.4477776,21.3668887 L9.81999998,14.0944722 L8.60666666,15.3735277 L22.1555554,23.2374443 L23.3688887,23.2374443 L23.9755554,22.6459443 L24.582222,20.8764999 L22.7622221,22.1555554 C21.9508054,21.5640554 21.4477776,21.3668887 21.4477776,21.3668887 L21.4477776,21.3668887 Z" id="形状备份-14" fill="#FFFFFF"></path>
                </g>
            </g>
        </g>
    </g>
</svg>