<?xml version="1.0" encoding="UTF-8"?>
<svg width="33px" height="39px" viewBox="0 0 33 39" version="1.1" xmlns="http://www.w3.org/2000/svg" xmlns:xlink="http://www.w3.org/1999/xlink">
    <title>编组 8</title>
    <g id="页面-1" stroke="none" stroke-width="1" fill="none" fill-rule="evenodd">
        <g id="筛监控" transform="translate(-1164.000000, -403.000000)" fill-rule="nonzero">
            <g id="分组-16备份-6" transform="translate(1156.000000, 403.000000)">
                <g id="编组-8" transform="translate(8.000000, 0.000000)">
                    <path d="M16.128,0.4 C20.4711673,0.4 24.4031673,2.16041636 27.2493755,5.00662455 C30.0955836,7.85283273 31.856,11.7848327 31.856,16.128 C31.856,20.3716622 30.1753338,24.2227893 27.4481386,27.0471069 L27.4481386,27.0471069 L16.1279592,38.3707063 L4.80890342,27.0514956 C2.08069254,24.2229009 0.4,20.3717216 0.4,16.128 C0.4,11.7848327 2.16041636,7.85283273 5.00662455,5.00662455 C7.85283273,2.16041636 11.7848327,0.4 16.128,0.4 Z" id="形状结合" stroke="#FFFFFF" stroke-width="0.8" fill="#F94E36"></path>
                    <path d="M12.2466666,20.1889443 L10.1233333,20.1889443 L10.1233333,17.5347777 L8,17.1429721 L8,25.6944442 L10.1233333,25.0068887 L10.1233333,22.0569721 L13.561111,22.0569721 L15.381111,19.5999721 L12.9544444,18.3209166 L12.2466666,20.1889443 Z M23.2677776,20.6793332 L28.222222,17.6308332 L12.8533333,8 L11.0333333,8 L8.60666666,11.6374722 L8.60666666,12.9165277 L22.1555554,20.7804443 L23.2677776,20.6793332 Z M21.4477776,21.3668887 L9.81999998,14.0944722 L8.60666666,15.3735277 L22.1555554,23.2374443 L23.3688887,23.2374443 L23.9755554,22.6459443 L24.582222,20.8764999 L22.7622221,22.1555554 C21.9508054,21.5640554 21.4477776,21.3668887 21.4477776,21.3668887 L21.4477776,21.3668887 Z" id="形状备份-14" fill="#FFFFFF"></path>
                </g>
            </g>
        </g>
    </g>
</svg>