<?xml version="1.0" encoding="UTF-8"?>
<svg width="33px" height="39px" viewBox="0 0 33 39" version="1.1" xmlns="http://www.w3.org/2000/svg" xmlns:xlink="http://www.w3.org/1999/xlink">
    <title>编组 8</title>
    <g id="页面-1" stroke="none" stroke-width="1" fill="none" fill-rule="evenodd">
        <g id="筛设备" transform="translate(-1815.000000, -924.000000)" fill-rule="nonzero">
            <g id="编组-16" transform="translate(1585.000000, 803.000000)">
                <g id="分组-16备份-8" transform="translate(222.000000, 121.000000)">
                    <g id="编组-8" transform="translate(8.000000, 0.000000)">
                        <g id="编组-15" transform="translate(0.000000, -0.000000)">
                            <path d="M16.128,0.4 C20.4711673,0.4 24.4031673,2.16041636 27.2493755,5.00662455 C30.0955836,7.85283273 31.856,11.7848327 31.856,16.128 C31.856,20.3716622 30.1753338,24.2227893 27.4481386,27.0471069 L27.4481386,27.0471069 L16.1279592,38.3707063 L4.80890342,27.0514956 C2.08069254,24.2229009 0.4,20.3717216 0.4,16.128 C0.4,11.7848327 2.16041636,7.85283273 5.00662455,5.00662455 C7.85283273,2.16041636 11.7848327,0.4 16.128,0.4 Z" id="形状结合" stroke="#FFFFFF" stroke-width="0.8" fill="#F94E36"></path>
                            <path d="M13.4652802,3 C13.8642505,3 14.1964853,3.29775578 14.2292915,3.68451429 L14.2312742,3.71357143 L14.4648396,8.96134286 L15.0575432,8.96134286 L15.0575432,10.2914143 L20.1478675,10.2914143 C21.1570761,10.2914143 21.9775291,11.0763429 21.9996035,12.0525857 L22,12.0928286 L22,26.9128714 C22,27.0058629 21.9927558,27.0972093 21.9787859,27.1864057 C21.8979453,25.3188018 20.3127637,23.8431157 18.3829934,23.8428725 L18.3829934,23.8428725 L17.1831134,23.8428725 C17.106921,23.8428725 17.0313286,23.8451997 16.956936,23.8492723 C18.2145201,24.586735 18.9825976,25.9085058 18.9817335,27.3337103 L18.9817335,27.3337103 L21.9493071,27.3332222 C21.7577221,28.1127922 21.0450819,28.6955763 20.1891082,28.7137714 L20.1478675,28.7142857 L11.5666197,28.7142857 C10.6931104,28.7142857 10.1687785,28.1257117 10.0344269,27.3339742 L18.3817935,27.3337103 C18.3817935,25.4057738 16.7701798,23.8428725 14.7821535,23.8428725 L14.7821535,23.8428725 L13.5822735,23.8428725 C11.7180167,23.8428725 10.1847625,25.2172269 10.0010752,26.9781585 C10.0005442,26.9713585 10.0003878,26.9636567 10.0002644,26.9559429 L10,12.0928286 C10,11.1114429 10.8069704,10.3132714 11.8103631,10.2919286 L11.8709024,10.2914143 L11.8709024,8.96134286 L12.462945,8.96134286 L12.6992862,3.71318571 C12.717256,3.31437304 13.0548748,3 13.4652802,3 Z M12.9834803,18.9182563 C12.240965,19.3340147 11.7835877,20.102361 11.7836534,20.9338409 C11.7835877,21.7653209 12.240965,22.5336672 12.9834803,22.9494256 C13.7259956,23.3651839 14.6408311,23.3651839 15.3833464,22.9494256 C16.1258617,22.5336672 16.583239,21.7653209 16.5831734,20.9338409 C16.583239,20.102361 16.1258617,19.3340147 15.3833464,18.9182563 C14.6408311,18.502498 13.7259956,18.502498 12.9834803,18.9182563 Z M17.1831134,18.6066122 C16.8527032,18.6060534 16.5257938,18.672233 16.2232094,18.800939 C16.8361124,19.3508265 17.1841268,20.1241127 17.1831134,20.9338409 C17.184132,21.7439784 16.8356316,22.5175887 16.2220095,23.0673247 C17.1164093,23.4452662 18.1577272,23.2604771 18.856163,22.5998759 C19.5545989,21.9392748 19.7711164,20.934366 19.4038732,20.0578244 C19.03663,19.1812827 18.1587324,18.6075995 17.1831134,18.6066122 Z M19.5739472,11.5714286 L12.4260528,11.5714286 C12.0329547,11.5714286 11.7142857,11.9095662 11.7142857,12.3266802 L11.7142857,16.816317 C11.7142857,17.2333763 12.0330062,17.5714286 12.4260528,17.5714286 L19.5740792,17.5714286 C19.9670742,17.5713513 20.2857143,17.2333216 20.2857143,16.816317 L20.2857143,12.3265401 C20.2857143,11.9094809 19.9669938,11.5714286 19.5739472,11.5714286 Z M19.2991914,12.4285714 C19.370646,12.4285714 19.4285714,12.4904675 19.4285714,12.5668203 L19.4285714,16.5760369 C19.4285714,16.6523896 19.370646,16.7142857 19.2991914,16.7142857 L12.7008086,16.7142857 C12.629354,16.7142857 12.5714286,16.6523896 12.5714286,16.5760369 L12.5714286,12.5668203 C12.5714286,12.4904675 12.629354,12.4285714 12.7008086,12.4285714 L19.2991914,12.4285714 Z" id="形状备份-11" fill="#FFFFFF"></path>
                        </g>
                    </g>
                </g>
            </g>
        </g>
    </g>
</svg>