<?xml version="1.0" encoding="UTF-8"?>
<svg width="33px" height="39px" viewBox="0 0 33 39" version="1.1" xmlns="http://www.w3.org/2000/svg" xmlns:xlink="http://www.w3.org/1999/xlink">
    <title>编组 10</title>
    <g id="页面-1" stroke="none" stroke-width="1" fill="none" fill-rule="evenodd">
        <g id="筛设备" transform="translate(-1611.000000, -924.000000)" fill-rule="nonzero">
            <g id="编组-16" transform="translate(1585.000000, 803.000000)">
                <g id="分组-16备份-5" transform="translate(18.000000, 121.000000)">
                    <g id="编组-10" transform="translate(8.000000, -0.000000)">
                        <path d="M16.128,0.4 C20.4711673,0.4 24.4031673,2.16041636 27.2493755,5.00662455 C30.0955836,7.85283273 31.856,11.7848327 31.856,16.128 C31.856,20.3716622 30.1753338,24.2227893 27.4481386,27.0471069 L27.4481386,27.0471069 L16.1279592,38.3707063 L4.80890342,27.0514956 C2.08069254,24.2229009 0.4,20.3717216 0.4,16.128 C0.4,11.7848327 2.16041636,7.85283273 5.00662455,5.00662455 C7.85283273,2.16041636 11.7848327,0.4 16.128,0.4 Z" id="形状结合" stroke="#FFFFFF" stroke-width="0.8" fill="#F94E36"></path>
                        <path d="M16.1709763,12.8060186 C15.2472737,12.8060186 14.3768618,13.1612888 13.7240528,13.8074364 C13.0690233,14.4535841 12.7093122,15.3106735 12.7093122,16.2232738 C12.7093122,17.1358741 13.0690233,17.9929635 13.7240528,18.6391112 C14.3768618,19.2852589 15.2472737,19.6405291 16.1709763,19.6405291 C17.0946788,19.6405291 17.9650908,19.2852589 18.6178998,18.6391112 C19.2729292,17.9929635 19.6326403,17.1358741 19.6326403,16.2232738 C19.6326403,15.3106735 19.2729292,14.4535841 18.6178998,13.8074364 C17.9628703,13.1590683 17.0924584,12.8060186 16.1709763,12.8060186 Z M18.2359843,16.431995 C18.1405054,17.3912246 17.3544701,18.1683782 16.381918,18.2616366 C15.0696386,18.390422 13.9727419,17.3090684 14.1037478,16.0123321 C14.1992267,15.0531026 14.985262,14.275949 15.9578142,14.1826906 C17.2700935,14.0539051 18.3669902,15.1352588 18.2359843,16.431995 L18.2359843,16.431995 Z M25.1704146,16.2232738 C25.1704146,10.8054032 20.2632449,6.52217687 14.5989056,7.46808378 C11.0972737,8.05205917 7.76439513,11.44711 7.26479641,14.9198763 C6.66749839,19.0587741 8.9656525,22.7491433 12.4473005,24.3167731 C10.9151977,24.7764039 9.50299868,25.5180304 8.27731648,26.4750396 L24.0624156,26.4750396 C22.834513,25.5180304 21.4245344,24.7764039 19.8924316,24.3145526 C23.0054868,22.9156762 25.1704146,19.8203846 25.1704146,16.2232738 Z M16.4218859,21.001658 C13.5464177,21.1459865 11.1860913,18.8123054 11.3304198,15.9745847 C11.4547643,13.5432042 13.4553797,11.5692342 15.9156258,11.4448896 C18.791094,11.3005611 21.1514204,13.6342422 21.0070919,16.4719629 C20.8827473,18.9033434 18.8843524,20.8773134 16.4218859,21.001658 Z" id="形状备份-12" fill="#FFFFFF"></path>
                    </g>
                </g>
            </g>
        </g>
    </g>
</svg>