<?xml version="1.0" encoding="UTF-8"?>
<svg width="33px" height="39px" viewBox="0 0 33 39" version="1.1" xmlns="http://www.w3.org/2000/svg" xmlns:xlink="http://www.w3.org/1999/xlink">
    <title>编组 8</title>
    <g id="页面-1" stroke="none" stroke-width="1" fill="none" fill-rule="evenodd">
        <g id="筛设备" transform="translate(-1747.000000, -924.000000)" fill-rule="nonzero">
            <g id="编组-16" transform="translate(1585.000000, 803.000000)">
                <g id="分组-16备份-6" transform="translate(154.000000, 121.000000)">
                    <g id="编组-8" transform="translate(8.000000, 0.000000)">
                        <g id="编组-13" transform="translate(0.000000, -0.000000)">
                            <path d="M16.128,0.4 C20.4711673,0.4 24.4031673,2.16041636 27.2493755,5.00662455 C30.0955836,7.85283273 31.856,11.7848327 31.856,16.128 C31.856,20.3716622 30.1753338,24.2227893 27.4481386,27.0471069 L27.4481386,27.0471069 L16.1279592,38.3707063 L4.80890342,27.0514956 C2.08069254,24.2229009 0.4,20.3717216 0.4,16.128 C0.4,11.7848327 2.16041636,7.85283273 5.00662455,5.00662455 C7.85283273,2.16041636 11.7848327,0.4 16.128,0.4 Z" id="形状结合" stroke="#FFFFFF" stroke-width="0.8" fill="#F94E36"></path>
                            <path d="M13.4652802,3 C13.8642505,3 14.1964853,3.29775578 14.2292915,3.68451429 L14.2312742,3.71357143 L14.4648396,8.96134286 L15.0575432,8.96134286 L15.0575432,10.2914143 L20.1478675,10.2914143 C21.1570761,10.2914143 21.9775291,11.0763429 21.9996035,12.0525857 L22,12.0928286 L22,26.9128714 C22,27.8942571 21.1931618,28.6924286 20.1891082,28.7137714 L20.1478675,28.7142857 L11.5666197,28.7142857 C10.558865,28.7142857 10.0158618,27.9309 10.0002644,26.9559429 L10,26.913 L10,12.0928286 C10,11.1114429 10.8069704,10.3132714 11.8103631,10.2919286 L11.851736,10.2914143 L11.8709024,10.2914143 L11.8709024,8.96134286 L12.462945,8.96134286 L12.6992862,3.71318571 C12.717256,3.31437304 13.0548748,3 13.4652802,3 Z M13.1789886,19.2857143 L11.9638686,19.2857143 C11.897685,19.2856806 11.8342024,19.3165286 11.7873934,19.3714687 C11.7405844,19.4264087 11.7142857,19.5009376 11.7142857,19.5786514 L11.7142857,20.7070629 C11.7142857,20.7847767 11.7405844,20.8593056 11.7873934,20.9142456 C11.8342024,20.9691856 11.897685,21.0000337 11.9638686,21 L13.1789886,21 C13.2451721,21.0000337 13.3086548,20.9691856 13.3554637,20.9142456 C13.4022727,20.8593056 13.4285714,20.7847767 13.4285714,20.7070629 L13.4285714,19.5786514 C13.4285714,19.5009376 13.4022727,19.4264087 13.3554637,19.3714687 C13.3086548,19.3165286 13.2451721,19.2856806 13.1789886,19.2857143 L13.1789886,19.2857143 Z M16.6077607,19.2857143 L15.3924558,19.2857143 C15.326268,19.2856806 15.2627814,19.3165286 15.2159694,19.3714687 C15.1691575,19.4264087 15.1428571,19.5009376 15.1428571,19.5786514 L15.1428571,20.7070629 C15.1428571,20.7847767 15.1691575,20.8593056 15.2159694,20.9142456 C15.2627814,20.9691856 15.326268,21.0000337 15.3924558,21 L16.6076525,21 C16.7454422,21 16.8571429,20.8688476 16.8571429,20.7070629 L16.8571429,19.5786514 C16.8571429,19.4168667 16.7454422,19.2857143 16.6076525,19.2857143 L16.6077607,19.2857143 Z M20.0362397,19.2857143 L18.8210114,19.2857143 C18.7548279,19.2856806 18.6913452,19.3165286 18.6445363,19.3714687 C18.5977273,19.4264087 18.5714286,19.5009376 18.5714286,19.5786514 L18.5714286,20.7070629 C18.5714286,20.7847767 18.5977273,20.8593056 18.6445363,20.9142456 C18.6913452,20.9691856 18.7548279,21.0000337 18.8210114,21 L20.0362397,21 C20.1740207,21 20.2857143,20.8688476 20.2857143,20.7070629 L20.2857143,19.5786514 C20.2857143,19.4168667 20.1740207,19.2857143 20.0362397,19.2857143 Z M19.5739472,11.5714286 L12.4260528,11.5714286 C12.0329547,11.5714286 11.7142857,11.9095662 11.7142857,12.3266802 L11.7142857,16.816317 C11.7142857,17.2333763 12.0330062,17.5714286 12.4260528,17.5714286 L19.5740792,17.5714286 C19.9670742,17.5713513 20.2857143,17.2333216 20.2857143,16.816317 L20.2857143,12.3265401 C20.2857143,11.9094809 19.9669938,11.5714286 19.5739472,11.5714286 Z M19.2991914,12.4285714 C19.370646,12.4285714 19.4285714,12.4904675 19.4285714,12.5668203 L19.4285714,16.5760369 C19.4285714,16.6523896 19.370646,16.7142857 19.2991914,16.7142857 L12.7008086,16.7142857 C12.629354,16.7142857 12.5714286,16.6523896 12.5714286,16.5760369 L12.5714286,12.5668203 C12.5714286,12.4904675 12.629354,12.4285714 12.7008086,12.4285714 L19.2991914,12.4285714 Z" id="形状备份-14" fill="#FFFFFF"></path>
                        </g>
                    </g>
                </g>
            </g>
        </g>
    </g>
</svg>