<?xml version="1.0" encoding="UTF-8"?>
<svg width="20px" height="22px" viewBox="0 0 20 22" version="1.1" xmlns="http://www.w3.org/2000/svg" xmlns:xlink="http://www.w3.org/1999/xlink">
    <title>形状结合备份 2</title>
    <g id="页面-1" stroke="none" stroke-width="1" fill="none" fill-rule="evenodd">
        <g id="筛人员" transform="translate(-529.000000, -473.000000)" fill="#FFFFFF" fill-rule="nonzero">
            <g id="编组" transform="translate(515.000000, 131.000000)">
                <g id="编组-5备份-7" transform="translate(14.000000, 333.000000)">
                    <path d="M15.1544199,22.2200655 C17.8611993,23.9413163 19.7435619,26.9618068 20,30.4648368 C19.0522836,30.5935141 17.3667711,30.7319819 14.9618381,30.7319819 L14.9618381,30.7319819 L5.03485812,30.7319819 C2.63103446,30.7319819 0.946583036,30.5935141 0,30.4648368 C0.258560194,26.9640254 2.1409469,23.9413163 4.84447081,22.2200655 C6.27250827,23.3441585 8.04565437,24.0440941 10.0005305,24.0440941 C11.9553826,24.0440941 13.7296621,23.3463047 15.1544199,22.2200655 Z M10.0005305,9 C13.6874368,9 16.6884666,11.9999204 16.6884666,15.6868509 C16.6884666,19.3715868 13.6874368,22.3726407 10.0005305,22.3726407 C6.31251492,22.3726407 3.31365556,19.3715627 3.31365556,15.6868509 C3.31365556,11.9999204 6.31470938,9 10.0005305,9 Z" id="形状结合备份-2"></path>
                </g>
            </g>
        </g>
    </g>
</svg>