<?xml version="1.0" encoding="UTF-8"?>
<svg width="33px" height="39px" viewBox="0 0 33 39" version="1.1" xmlns="http://www.w3.org/2000/svg" xmlns:xlink="http://www.w3.org/1999/xlink">
    <title>编组 8</title>
    <g id="页面-1" stroke="none" stroke-width="1" fill="none" fill-rule="evenodd">
        <g id="筛人员" transform="translate(-1227.000000, -504.000000)" fill-rule="nonzero">
            <g id="分组-16备份-14" transform="translate(1219.000000, 504.000000)">
                <g id="编组-8" transform="translate(8.000000, 0.000000)">
                    <path d="M16.128,0.5 C20.443553,0.5 24.350553,2.24922348 27.1786648,5.07733522 C30.0067765,7.90544697 31.756,11.812447 31.756,16.128 C31.756,20.3446763 30.0860255,24.171316 27.3774173,26.9764069 L27.3774173,26.9764069 L16.1279487,38.2292741 L4.88087975,26.9820736 C2.17000743,24.1714555 0.5,20.3447505 0.5,16.128 C0.5,11.812447 2.24922348,7.90544697 5.07733522,5.07733522 C7.90544697,2.24922348 11.812447,0.5 16.128,0.5 Z" id="形状结合" stroke="#FFFFFF" fill="#0091FF"></path>
                    <path d="M20.6027892,18.194325 C22.9505323,19.6872633 24.5832121,22.3071058 24.8056353,25.3454822 C23.9836272,25.4570913 22.5216867,25.5771923 20.4357521,25.5771923 L20.4357521,25.5771923 L11.82552,25.5771923 C9.74054756,25.5771923 8.27952742,25.4570913 7.45850233,25.3454822 C7.68276623,22.3090301 9.31546685,19.6872633 11.6603863,18.194325 C12.8990041,19.1693145 14.4369541,19.7764084 16.132529,19.7764084 C17.8280829,19.7764084 19.367016,19.1711761 20.6027892,18.194325 Z M16.132529,6.72781326 C19.3303917,6.72781326 21.9333548,9.32981419 21.9333548,12.5276978 C21.9333548,15.7236781 19.3303917,18.3266621 16.132529,18.3266621 C12.9337041,18.3266621 10.3326235,15.7236572 10.3326235,12.5276978 C10.3326235,9.32981419 12.9356075,6.72781326 16.132529,6.72781326 Z" id="形状结合备份-2" fill="#FFFFFF"></path>
                </g>
            </g>
        </g>
    </g>
</svg>