<?xml version="1.0" encoding="UTF-8"?>
<svg width="33px" height="39px" viewBox="0 0 33 39" version="1.1" xmlns="http://www.w3.org/2000/svg" xmlns:xlink="http://www.w3.org/1999/xlink">
    <title>编组 8</title>
    <g id="页面-1" stroke="none" stroke-width="1" fill="none" fill-rule="evenodd">
        <g id="筛人员" transform="translate(-1358.000000, -415.000000)" fill-rule="nonzero">
            <g id="分组-16备份-13" transform="translate(1350.000000, 415.000000)">
                <g id="编组-8" transform="translate(8.000000, 0.000000)">
                    <path d="M16.128,0.4 C20.4711673,0.4 24.4031673,2.16041636 27.2493755,5.00662455 C30.0955836,7.85283273 31.856,11.7848327 31.856,16.128 C31.856,20.3716622 30.1753338,24.2227893 27.4481386,27.0471069 L27.4481386,27.0471069 L16.1279592,38.3707063 L4.80890342,27.0514956 C2.08069254,24.2229009 0.4,20.3717216 0.4,16.128 C0.4,11.7848327 2.16041636,7.85283273 5.00662455,5.00662455 C7.85283273,2.16041636 11.7848327,0.4 16.128,0.4 Z" id="形状结合" stroke="#FFFFFF" stroke-width="0.8" fill="#F94E36"></path>
                    <path d="M20.6027892,18.194325 C22.9505323,19.6872633 24.5832121,22.3071058 24.8056353,25.3454822 C23.9836272,25.4570913 22.5216867,25.5771923 20.4357521,25.5771923 L20.4357521,25.5771923 L11.82552,25.5771923 C9.74054756,25.5771923 8.27952742,25.4570913 7.45850233,25.3454822 C7.68276623,22.3090301 9.31546685,19.6872633 11.6603863,18.194325 C12.8990041,19.1693145 14.4369541,19.7764084 16.132529,19.7764084 C17.8280829,19.7764084 19.367016,19.1711761 20.6027892,18.194325 Z M16.132529,6.72781326 C19.3303917,6.72781326 21.9333548,9.32981419 21.9333548,12.5276978 C21.9333548,15.7236781 19.3303917,18.3266621 16.132529,18.3266621 C12.9337041,18.3266621 10.3326235,15.7236572 10.3326235,12.5276978 C10.3326235,9.32981419 12.9356075,6.72781326 16.132529,6.72781326 Z" id="形状结合备份-2" fill="#FFFFFF"></path>
                </g>
            </g>
        </g>
    </g>
</svg>