<?xml version="1.0" encoding="UTF-8"?>
<svg width="33px" height="39px" viewBox="0 0 33 39" version="1.1" xmlns="http://www.w3.org/2000/svg" xmlns:xlink="http://www.w3.org/1999/xlink">
    <title>编组 12</title>
    <g id="页面-1" stroke="none" stroke-width="1" fill="none" fill-rule="evenodd">
        <g id="筛设备" transform="translate(-1679.000000, -924.000000)" fill-rule="nonzero">
            <g id="编组-16" transform="translate(1585.000000, 803.000000)">
                <g id="分组-16备份-3" transform="translate(86.000000, 121.000000)">
                    <g id="编组-12" transform="translate(8.000000, 0.000000)">
                        <path d="M16.128,0.4 C20.4711673,0.4 24.4031673,2.16041636 27.2493755,5.00662455 C30.0955836,7.85283273 31.856,11.7848327 31.856,16.128 C31.856,20.3716622 30.1753338,24.2227893 27.4481386,27.0471069 L27.4481386,27.0471069 L16.1279592,38.3707063 L4.80890342,27.0514956 C2.08069254,24.2229009 0.4,20.3717216 0.4,16.128 C0.4,11.7848327 2.16041636,7.85283273 5.00662455,5.00662455 C7.85283273,2.16041636 11.7848327,0.4 16.128,0.4 Z" id="形状结合" stroke="#FFFFFF" stroke-width="0.8" fill="#F94E36"></path>
                        <path d="M11.6135352,8 L20.3864648,8 C21.2733749,8 22,8.72662511 22,9.61353517 L22,24.5841496 C22,25.4710597 21.2733749,26.1976848 20.3864648,26.1976848 L11.6135352,26.1976848 C10.7266251,26.1976848 10,25.4710597 10,24.5841496 L10,9.61353517 C10,8.72662511 10.7266251,8 11.6135352,8 Z M11.3463936,10.5966162 L11.3463936,16.9973286 L20.6001781,16.9973286 L20.6001781,10.5966162 L11.3463936,10.5966162 Z M13.7186109,8.84416741 L13.7186109,9.52804987 L17.9287622,9.52804987 L17.9287622,8.84416741 L13.7186109,8.84416741 Z M15.0329475,17.6918967 C14.7230632,17.6918967 14.4666073,17.9483526 14.4666073,18.2582369 L14.4666073,19.1344613 C14.4666073,19.4443455 14.7230632,19.7008014 15.0329475,19.7008014 L16.7533393,19.7008014 C17.0632235,19.7008014 17.3196794,19.4443455 17.3196794,19.1344613 L17.3196794,18.2582369 C17.3196794,17.9483526 17.0632235,17.6918967 16.7533393,17.6918967 L15.0329475,17.6918967 Z M14.0605521,18.3864648 L11.5066785,18.3864648 L11.5066785,19.0062333 L14.0605521,19.0062333 L14.0605521,18.3864648 Z M20.2796082,18.3864648 L17.7257346,18.3864648 L17.7257346,19.0062333 L20.2796082,19.0062333 L20.2796082,18.3864648 Z M14.0498664,20.2457703 L11.4959929,20.2457703 L11.4959929,21.4532502 L14.0498664,21.4532502 L14.0498664,20.2457703 Z M17.1700801,20.2457703 L14.6055209,20.2457703 L14.6055209,21.4532502 L17.1593945,21.4532502 L17.1593945,20.2457703 L17.1700801,20.2457703 Z M20.2582369,20.2457703 L17.7043633,20.2457703 L17.7043633,21.4532502 L20.2582369,21.4532502 L20.2582369,20.2457703 L20.2582369,20.2457703 Z M14.0498664,21.8165628 L11.4959929,21.8165628 L11.4959929,23.0240427 L14.0498664,23.0240427 L14.0498664,21.8165628 L14.0498664,21.8165628 Z M17.1700801,21.8165628 L14.6055209,21.8165628 L14.6055209,23.0240427 L17.1593945,23.0240427 L17.1593945,21.8165628 L17.1700801,21.8165628 Z M20.2582369,21.8165628 L17.7043633,21.8165628 L17.7043633,23.0240427 L20.2582369,23.0240427 L20.2582369,21.8165628 L20.2582369,21.8165628 Z M14.0498664,23.4942119 L11.4959929,23.4942119 L11.4959929,24.7016919 L14.0498664,24.7016919 L14.0498664,23.4942119 L14.0498664,23.4942119 Z M17.1700801,23.4942119 L14.6055209,23.4942119 L14.6055209,24.7016919 L17.1593945,24.7016919 L17.1593945,23.4942119 L17.1700801,23.4942119 Z M20.2582369,23.4942119 L17.7043633,23.4942119 L17.7043633,24.7016919 L20.2582369,24.7016919 L20.2582369,23.4942119 L20.2582369,23.4942119 Z" id="形状备份-15" fill="#FFFFFF"></path>
                    </g>
                </g>
            </g>
        </g>
    </g>
</svg>