<?xml version="1.0" encoding="UTF-8"?>
<svg width="33px" height="39px" viewBox="0 0 33 39" version="1.1" xmlns="http://www.w3.org/2000/svg" xmlns:xlink="http://www.w3.org/1999/xlink">
    <title>编组 12备份</title>
    <g id="页面-1" stroke="none" stroke-width="1" fill="none" fill-rule="evenodd">
        <g id="筛设备" transform="translate(-1679.000000, -983.000000)" fill-rule="nonzero">
            <g id="编组-16" transform="translate(1585.000000, 803.000000)">
                <g id="分组-16备份-4" transform="translate(86.000000, 180.000000)">
                    <g id="编组-12备份" transform="translate(8.000000, 0.000000)">
                        <path d="M16.128,0.5 C20.443553,0.5 24.350553,2.24922348 27.1786648,5.07733522 C30.0067765,7.90544697 31.756,11.812447 31.756,16.128 C31.756,20.3446763 30.0860255,24.171316 27.3774173,26.9764069 L27.3774173,26.9764069 L16.1279487,38.2292741 L4.88087975,26.9820736 C2.17000743,24.1714555 0.5,20.3447505 0.5,16.128 C0.5,11.812447 2.24922348,7.90544697 5.07733522,5.07733522 C7.90544697,2.24922348 11.812447,0.5 16.128,0.5 Z" id="形状结合" stroke="#FFFFFF" fill="#0091FF"></path>
                        <path d="M11.6135352,8 L20.3864648,8 C21.2733749,8 22,8.72662511 22,9.61353517 L22,24.5841496 C22,25.4710597 21.2733749,26.1976848 20.3864648,26.1976848 L11.6135352,26.1976848 C10.7266251,26.1976848 10,25.4710597 10,24.5841496 L10,9.61353517 C10,8.72662511 10.7266251,8 11.6135352,8 Z M11.3463936,10.5966162 L11.3463936,16.9973286 L20.6001781,16.9973286 L20.6001781,10.5966162 L11.3463936,10.5966162 Z M13.7186109,8.84416741 L13.7186109,9.52804987 L17.9287622,9.52804987 L17.9287622,8.84416741 L13.7186109,8.84416741 Z M15.0329475,17.6918967 C14.7230632,17.6918967 14.4666073,17.9483526 14.4666073,18.2582369 L14.4666073,19.1344613 C14.4666073,19.4443455 14.7230632,19.7008014 15.0329475,19.7008014 L16.7533393,19.7008014 C17.0632235,19.7008014 17.3196794,19.4443455 17.3196794,19.1344613 L17.3196794,18.2582369 C17.3196794,17.9483526 17.0632235,17.6918967 16.7533393,17.6918967 L15.0329475,17.6918967 Z M14.0605521,18.3864648 L11.5066785,18.3864648 L11.5066785,19.0062333 L14.0605521,19.0062333 L14.0605521,18.3864648 Z M20.2796082,18.3864648 L17.7257346,18.3864648 L17.7257346,19.0062333 L20.2796082,19.0062333 L20.2796082,18.3864648 Z M14.0498664,20.2457703 L11.4959929,20.2457703 L11.4959929,21.4532502 L14.0498664,21.4532502 L14.0498664,20.2457703 Z M17.1700801,20.2457703 L14.6055209,20.2457703 L14.6055209,21.4532502 L17.1593945,21.4532502 L17.1593945,20.2457703 L17.1700801,20.2457703 Z M20.2582369,20.2457703 L17.7043633,20.2457703 L17.7043633,21.4532502 L20.2582369,21.4532502 L20.2582369,20.2457703 L20.2582369,20.2457703 Z M14.0498664,21.8165628 L11.4959929,21.8165628 L11.4959929,23.0240427 L14.0498664,23.0240427 L14.0498664,21.8165628 L14.0498664,21.8165628 Z M17.1700801,21.8165628 L14.6055209,21.8165628 L14.6055209,23.0240427 L17.1593945,23.0240427 L17.1593945,21.8165628 L17.1700801,21.8165628 Z M20.2582369,21.8165628 L17.7043633,21.8165628 L17.7043633,23.0240427 L20.2582369,23.0240427 L20.2582369,21.8165628 L20.2582369,21.8165628 Z M14.0498664,23.4942119 L11.4959929,23.4942119 L11.4959929,24.7016919 L14.0498664,24.7016919 L14.0498664,23.4942119 L14.0498664,23.4942119 Z M17.1700801,23.4942119 L14.6055209,23.4942119 L14.6055209,24.7016919 L17.1593945,24.7016919 L17.1593945,23.4942119 L17.1700801,23.4942119 Z M20.2582369,23.4942119 L17.7043633,23.4942119 L17.7043633,24.7016919 L20.2582369,24.7016919 L20.2582369,23.4942119 L20.2582369,23.4942119 Z" id="形状备份-22" fill="#FFFFFF"></path>
                    </g>
                </g>
            </g>
        </g>
    </g>
</svg>