<?xml version="1.0" encoding="UTF-8"?>
<svg width="33px" height="39px" viewBox="0 0 33 39" version="1.1" xmlns="http://www.w3.org/2000/svg" xmlns:xlink="http://www.w3.org/1999/xlink">
    <title>编组 8</title>
    <g id="页面-1" stroke="none" stroke-width="1" fill="none" fill-rule="evenodd">
        <g id="筛任务" transform="translate(-1062.000000, -494.000000)" fill-rule="nonzero">
            <g id="分组-16备份-8" transform="translate(1054.000000, 494.000000)">
                <g id="编组-8" transform="translate(8.000000, 0.000000)">
                    <path d="M16.128,0.4 C20.4711673,0.4 24.4031673,2.16041636 27.2493755,5.00662455 C30.0955836,7.85283273 31.856,11.7848327 31.856,16.128 C31.856,20.3716622 30.1753338,24.2227893 27.4481386,27.0471069 L27.4481386,27.0471069 L16.1279592,38.3707063 L4.80890342,27.0514956 C2.08069254,24.2229009 0.4,20.3717216 0.4,16.128 C0.4,11.7848327 2.16041636,7.85283273 5.00662455,5.00662455 C7.85283273,2.16041636 11.7848327,0.4 16.128,0.4 Z" id="形状结合" stroke="#FFFFFF" stroke-width="0.8" fill="#F94E36"></path>
                    <path d="M22.9145212,12.3989415 L21.6041714,10.8585303 L20.4838723,9.61819921 C20.0121349,9.07140125 19.3255363,8.75731889 18.6033703,8.75796856 L11.091365,8.75796856 C9.71580874,8.75796856 8.60070008,9.87307822 8.60070008,11.2486345 L8.60070008,22.8717373 C8.60070008,24.2472935 9.71580874,25.3624021 11.091365,25.3624021 L21.0940352,25.3624021 C22.4695914,25.3624021 23.5847001,24.2472935 23.5847001,22.8717373 L23.5847001,14.0493821 C23.5752658,13.4348446 23.3361938,12.8460853 22.9145212,12.3989415 L22.9145212,12.3989415 Z M18.793421,17.5803247 L16.1027028,20.9012112 C15.9497612,21.0938251 15.718457,21.2076414 15.4725345,21.211294 C15.228603,21.2153019 14.9949737,21.113089 14.8323636,20.9312192 L13.3719738,19.270776 C13.1257198,18.9262108 13.1782973,18.4515195 13.4939864,18.1691959 C13.8096755,17.8868723 14.2872693,17.8874266 14.6023022,18.1704823 L15.4125185,19.0907279 L17.5030766,16.540047 C17.6557921,16.2439552 17.9707129,16.0678302 18.3029378,16.0927104 C18.6351626,16.1175906 18.9203379,16.3386567 19.0272489,16.6541918 C19.1341598,16.969727 19.0420973,17.3186104 18.793421,17.540314 L18.793421,17.5803247 Z M19.3935813,13.9093447 C18.841149,13.9093447 18.3933142,13.4615099 18.3933142,12.9090777 L18.3933142,9.90827665 L22.1443156,13.9093447 L19.3935813,13.9093447 Z" id="形状" fill="#FFFFFF"></path>
                </g>
            </g>
        </g>
    </g>
</svg>