<?xml version="1.0" encoding="UTF-8"?>
<svg width="29px" height="26px" viewBox="0 0 29 26" version="1.1" xmlns="http://www.w3.org/2000/svg" xmlns:xlink="http://www.w3.org/1999/xlink">
    <title>形状结合备份</title>
    <defs>
        <linearGradient x1="50%" y1="15.4528847%" x2="50%" y2="104.727046%" id="linearGradient-1">
            <stop stop-color="#32ACBE" offset="0%"></stop>
            <stop stop-color="#61EAFF" offset="100%"></stop>
        </linearGradient>
    </defs>
    <g id="页面-1" stroke="none" stroke-width="1" fill="none" fill-rule="evenodd">
        <g id="筛地点" transform="translate(-1798.000000, -1012.000000)" fill="url(#linearGradient-1)" fill-rule="nonzero">
            <g id="编组-16" transform="translate(1635.000000, 922.000000)">
                <path d="M172.389758,103.079269 C172.695085,102.980658 173.025687,103.040591 173.275571,103.232022 L173.393296,103.33857 L174.295425,104.309203 L174.970285,105.043054 L176.496501,106.730781 L177.203456,107.531791 L180.972438,103.352442 C181.03574,103.282164 181.108482,103.222089 181.190195,103.173161 L181.319436,103.108246 L181.461784,103.060759 L181.61184,103.036378 L181.817577,103.040709 C184.964331,103.454755 188.750736,108.737907 189.334499,113.444081 L189.360946,113.693173 L191.011572,113.695346 L191.189239,113.873061 L191.189239,115.45275 L191.011524,115.630465 L163.366954,115.630465 L163.189239,115.45275 L163.189239,113.873061 L163.366922,113.695346 L165.010424,113.694951 L165.037527,113.416588 C165.520535,109.136323 168.412009,104.833485 171.693278,103.349305 L172.046242,103.201201 L172.389758,103.079269 Z M182.019535,105.079323 L177.908156,109.645795 C177.602089,109.985589 177.109308,110.058122 176.715785,109.839536 L176.573425,109.743874 L176.450805,109.623441 L175.945493,109.03349 L174.838312,107.77929 L173.542298,106.349012 L172.426474,105.139746 C169.811597,106.371832 167.434624,109.974099 166.98025,113.469548 L166.954627,113.694951 L187.411411,113.694951 L187.391798,113.515923 C186.902336,110.11645 184.346342,106.119215 182.209998,105.154795 L182.019535,105.079323 Z M177.189239,90 C180.668088,90 183.488252,92.820164 183.488252,96.2990127 C183.488252,99.7778613 180.668088,102.598025 177.189239,102.598025 C173.71039,102.598025 170.890226,99.7778613 170.890226,96.2990127 C170.890226,92.820164 173.71039,90 177.189239,90 Z M177.189239,91.9351199 C174.779127,91.9351199 172.825346,93.8889012 172.825346,96.2990127 C172.825346,98.7091241 174.779127,100.662906 177.189239,100.662906 C179.59935,100.662906 181.553132,98.7091241 181.553132,96.2990127 C181.553132,93.8889012 179.59935,91.9351199 177.189239,91.9351199 Z" id="形状结合备份"></path>
            </g>
        </g>
    </g>
</svg>