<?xml version="1.0" encoding="UTF-8"?>
<svg width="29px" height="26px" viewBox="0 0 29 26" version="1.1" xmlns="http://www.w3.org/2000/svg" xmlns:xlink="http://www.w3.org/1999/xlink">
    <title>形状结合55</title>
    <g id="页面-1" stroke="none" stroke-width="1" fill="none" fill-rule="evenodd">
        <g id="筛地点" transform="translate(-1798.000000, -962.000000)" fill="#FFFFFF" fill-rule="nonzero">
            <g id="编组-16" transform="translate(1635.000000, 922.000000)">
                <path d="M172.389758,53.0792687 C172.695085,52.9806584 173.025687,53.040591 173.275571,53.2320216 L173.393296,53.3385699 L174.295425,54.3092028 L174.970285,55.0430543 L176.496501,56.7307807 L177.203456,57.5317913 L180.972438,53.3524424 C181.03574,53.2821642 181.108482,53.2220892 181.190195,53.1731608 L181.319436,53.1082461 L181.461784,53.060759 L181.61184,53.0363778 L181.817577,53.0407085 C184.964331,53.4547551 188.750736,58.7379066 189.334499,63.4440806 L189.360946,63.6931735 L191.011572,63.6953456 L191.189239,63.8730606 L191.189239,65.4527504 L191.011524,65.6304654 L163.366954,65.6304654 L163.189239,65.4527504 L163.189239,63.8730606 L163.366922,63.6953456 L165.010424,63.6949506 L165.037527,63.4165884 C165.520535,59.1363231 168.412009,54.8334849 171.693278,53.3493054 L172.046242,53.2012013 L172.389758,53.0792687 Z M182.019535,55.079323 L177.908156,59.6457946 C177.602089,59.9855891 177.109308,60.0581218 176.715785,59.8395361 L176.573425,59.7438736 L176.450805,59.623441 L175.945493,59.0334898 L174.838312,57.7792904 L173.542298,56.3490117 L172.426474,55.1397461 C169.811597,56.3718315 167.434624,59.9740995 166.98025,63.4695482 L166.954627,63.6949506 L187.411411,63.6949506 L187.391798,63.5159229 C186.902336,60.1164497 184.346342,56.1192147 182.209998,55.1547945 L182.019535,55.079323 Z M177.189239,40 C180.668088,40 183.488252,42.820164 183.488252,46.2990127 C183.488252,49.7778613 180.668088,52.5980254 177.189239,52.5980254 C173.71039,52.5980254 170.890226,49.7778613 170.890226,46.2990127 C170.890226,42.820164 173.71039,40 177.189239,40 Z M177.189239,41.9351199 C174.779127,41.9351199 172.825346,43.8889012 172.825346,46.2990127 C172.825346,48.7091241 174.779127,50.6629055 177.189239,50.6629055 C179.59935,50.6629055 181.553132,48.7091241 181.553132,46.2990127 C181.553132,43.8889012 179.59935,41.9351199 177.189239,41.9351199 Z" id="形状结合55"></path>
            </g>
        </g>
    </g>
</svg>