<?xml version="1.0" encoding="UTF-8"?>
<svg width="26px" height="32px" viewBox="0 0 26 32" version="1.1" xmlns="http://www.w3.org/2000/svg" xmlns:xlink="http://www.w3.org/1999/xlink">
    <title>形状备份 2</title>
    <defs>
        <linearGradient x1="50%" y1="15.4528847%" x2="50%" y2="104.727046%" id="linearGradient-1">
            <stop stop-color="#32ACBE" offset="0%"></stop>
            <stop stop-color="#61EAFF" offset="100%"></stop>
        </linearGradient>
    </defs>
    <g id="页面-1" stroke="none" stroke-width="1" fill="none" fill-rule="evenodd">
        <g id="筛地点" transform="translate(-1657.000000, -1010.000000)" fill="url(#linearGradient-1)" fill-rule="nonzero">
            <g id="编组-16" transform="translate(1635.000000, 922.000000)">
                <path d="M34.5946267,88 C37.9590137,88 41.1792504,89.3653699 43.5175461,91.7833257 C48.310382,96.7381983 48.4163956,104.550039 43.8037651,109.629906 L43.662543,109.783017 L43.5172992,109.935528 L34.5946267,119.06864 L25.6717425,109.935281 C20.7761387,104.874148 20.7760682,96.8444588 25.6716367,91.7834316 C28.0100029,89.3654052 31.2302397,88 34.5946267,88 Z M34.5946267,90.3989757 C31.8806305,90.3989757 29.2828221,91.5003588 27.3960416,93.4512136 C23.4838414,97.4956043 23.3973725,103.871694 27.1616828,108.017335 L27.2769042,108.142258 L27.3957593,108.267111 L34.5945561,115.635671 L41.7932118,108.267358 C45.7493344,104.177457 45.7888469,97.7131703 41.9117847,93.5757486 L41.793106,93.4510725 C39.9067702,91.5004936 37.308856,90.3989757 34.5946267,90.3989757 Z M34.5824554,94.9145302 C36.0709311,94.9078367 37.5026212,95.4854404 38.5696941,96.5232078 L38.6021508,96.5549589 L38.6344312,96.5871334 L38.6889726,96.6423804 C40.5688875,98.5720035 40.8458634,101.555271 39.3503843,103.799125 C37.8384651,106.067674 34.9346815,106.952472 32.4146281,105.912446 C29.89461,104.872419 28.4600225,102.197209 28.9881147,99.5226329 C29.5052351,96.9036571 31.7649643,94.9960481 34.4242641,94.9171641 L34.5049826,94.9153296 L34.5824554,94.9145302 L34.5824554,94.9145302 Z M34.6192867,97.3135997 L34.5938153,97.3135997 L34.5424137,97.3140936 C32.979481,97.338542 31.6447333,98.4523723 31.3416509,99.9873286 C31.0352524,101.539219 31.8676264,103.091462 33.3298373,103.69491 C34.792013,104.298323 36.47687,103.784978 37.354119,102.468681 C38.213164,101.179761 38.0642511,99.4703141 37.003163,98.3502747 L36.9707062,98.3165126 L36.9370853,98.2824684 L36.9157415,98.2611951 C36.3169168,97.6694681 35.5136284,97.3304431 34.6719231,97.3141994 L34.6458871,97.3138114 L34.6192867,97.3135997 L34.6192867,97.3135997 Z" id="形状备份-2"></path>
            </g>
        </g>
    </g>
</svg>