<?xml version="1.0" encoding="UTF-8"?>
<svg width="24px" height="27px" viewBox="0 0 24 27" version="1.1" xmlns="http://www.w3.org/2000/svg" xmlns:xlink="http://www.w3.org/1999/xlink">
    <title>治理任务44</title>
    <g id="页面-1" stroke="none" stroke-width="1" fill="none" fill-rule="evenodd">
        <g id="筛地点" transform="translate(-1846.000000, -961.000000)" fill="#FFFFFF">
            <g id="编组-16" transform="translate(1635.000000, 922.000000)">
                <path d="M222.676846,39 C223.881082,39 224.91239,39.7403907 225.340394,40.7907958 L226.510179,40.7910661 C227.761828,40.7910661 228.826664,41.5909057 229.22145,42.7073468 L232.847572,42.7077327 C233.526806,42.7077327 234.088151,43.2124747 234.176991,43.8673432 L234.189239,44.0493994 L234.189239,64.3660661 C234.189239,65.0452996 233.684497,65.6066443 233.029628,65.6954849 L232.847572,65.7077327 L212.530906,65.7077327 C211.851672,65.7077327 211.290327,65.2029908 211.201487,64.5481223 L211.189239,64.3660661 L211.189239,44.0493994 C211.189239,43.3701659 211.693981,42.8088211 212.348849,42.7199806 L212.530906,42.7077327 L216.121119,42.706977 C216.474952,41.6748535 217.407491,40.91145 218.531453,40.8040488 L218.804586,40.7910661 L220.013044,40.791419 C220.440894,39.7406835 221.472372,39 222.676846,39 Z M216.132357,44.6251102 L213.105906,44.6243994 L213.105906,63.7910661 L232.272572,63.7910661 L232.272572,44.6243994 L229.22138,44.6249837 C228.856004,45.6580124 227.916946,46.419938 226.787061,46.5279051 L226.510179,46.5410661 L218.843512,46.5410661 C217.591985,46.5410661 216.527234,45.7413816 216.132357,44.6251102 Z M218.843512,55.1660661 C220.431331,55.1660661 221.718512,56.4532474 221.718512,58.0410661 C221.718512,59.6288847 220.431331,60.9160661 218.843512,60.9160661 C217.255694,60.9160661 215.968512,59.6288847 215.968512,58.0410661 C215.968512,56.4532474 217.255694,55.1660661 218.843512,55.1660661 Z M228.507695,57.0827327 C229.036968,57.0827327 229.466028,57.5117932 229.466028,58.0410661 C229.466028,58.570339 229.036968,58.9993994 228.507695,58.9993994 L224.633785,58.9993994 C224.104512,58.9993994 223.675451,58.570339 223.675451,58.0410661 C223.675451,57.5117932 224.104512,57.0827327 224.633785,57.0827327 L228.507695,57.0827327 Z M218.843512,57.0827327 C218.31424,57.0827327 217.885179,57.5117932 217.885179,58.0410661 C217.885179,58.570339 218.31424,58.9993994 218.843512,58.9993994 C219.372785,58.9993994 219.801846,58.570339 219.801846,58.0410661 C219.801846,57.5117932 219.372785,57.0827327 218.843512,57.0827327 Z M221.908155,48.6472958 C222.240824,48.9799646 222.277787,49.4963614 222.019045,49.8698586 L221.908155,50.0025838 L218.814779,53.0959602 C218.48211,53.4286291 217.965713,53.4655923 217.592216,53.2068498 L217.459491,53.0959602 L215.736608,51.3730771 C215.362355,50.9988247 215.362355,50.3920416 215.736608,50.0177891 C216.069277,49.6851203 216.585674,49.6481571 216.959171,49.9068995 L217.091896,50.0177891 L218.137156,51.0624827 L220.552867,48.6472958 C220.92712,48.2730433 221.533903,48.2730433 221.908155,48.6472958 Z M228.507695,51.3327327 C229.036968,51.3327327 229.466028,51.7617932 229.466028,52.2910661 C229.466028,52.820339 229.036968,53.2493994 228.507695,53.2493994 L224.633785,53.2493994 C224.104512,53.2493994 223.675451,52.820339 223.675451,52.2910661 C223.675451,51.7617932 224.104512,51.3327327 224.633785,51.3327327 L228.507695,51.3327327 Z M222.676846,40.9166667 C222.206381,40.9166667 221.815096,41.2556774 221.733953,41.7027384 L221.718512,41.875 C221.656553,42.2878487 221.339226,42.618459 220.932441,42.6922927 L220.760179,42.7077327 L218.804586,42.7077327 C218.353231,42.7077327 217.97784,43.0329731 217.899992,43.4618748 L217.885179,43.6271393 L217.885179,43.6660661 C217.885179,44.1365309 218.22419,44.5278154 218.671251,44.6089594 L218.843512,44.6243994 L226.510179,44.6243994 C227.039452,44.6243994 227.468512,44.195339 227.468512,43.6660661 C227.468512,43.1956013 227.129502,42.8043167 226.682441,42.7231728 L226.510179,42.7077327 L224.593512,42.7077327 L224.392381,42.6906431 C223.937259,42.6100485 223.687303,42.255899 223.642513,41.8748282 L223.635179,41.875 C223.635179,41.3457271 223.206119,40.9166667 222.676846,40.9166667 Z" id="治理任务44"></path>
            </g>
        </g>
    </g>
</svg>