<?xml version="1.0" encoding="UTF-8"?>
<svg width="24px" height="27px" viewBox="0 0 24 27" version="1.1" xmlns="http://www.w3.org/2000/svg" xmlns:xlink="http://www.w3.org/1999/xlink">
    <title>治理任务备份</title>
    <defs>
        <linearGradient x1="50%" y1="15.4528847%" x2="50%" y2="104.727046%" id="linearGradient-1">
            <stop stop-color="#32ACBE" offset="0%"></stop>
            <stop stop-color="#61EAFF" offset="100%"></stop>
        </linearGradient>
    </defs>
    <g id="页面-1" stroke="none" stroke-width="1" fill="none" fill-rule="evenodd">
        <g id="筛地点" transform="translate(-1846.000000, -1011.000000)" fill="url(#linearGradient-1)" fill-rule="nonzero">
            <g id="编组-16" transform="translate(1635.000000, 922.000000)">
                <path d="M222.676846,89 C223.881082,89 224.91239,89.7403907 225.340394,90.7907958 L226.510179,90.7910661 C227.761828,90.7910661 228.826664,91.5909057 229.22145,92.7073468 L232.847572,92.7077327 C233.526806,92.7077327 234.088151,93.2124747 234.176991,93.8673432 L234.189239,94.0493994 L234.189239,114.366066 C234.189239,115.0453 233.684497,115.606644 233.029628,115.695485 L232.847572,115.707733 L212.530906,115.707733 C211.851672,115.707733 211.290327,115.202991 211.201487,114.548122 L211.189239,114.366066 L211.189239,94.0493994 C211.189239,93.3701659 211.693981,92.8088211 212.348849,92.7199806 L212.530906,92.7077327 L216.121119,92.706977 C216.474952,91.6748535 217.407491,90.91145 218.531453,90.8040488 L218.804586,90.7910661 L220.013044,90.791419 C220.440894,89.7406835 221.472372,89 222.676846,89 Z M216.132357,94.6251102 L213.105906,94.6243994 L213.105906,113.791066 L232.272572,113.791066 L232.272572,94.6243994 L229.22138,94.6249837 C228.856004,95.6580124 227.916946,96.419938 226.787061,96.5279051 L226.510179,96.5410661 L218.843512,96.5410661 C217.591985,96.5410661 216.527234,95.7413816 216.132357,94.6251102 Z M218.843512,105.166066 C220.431331,105.166066 221.718512,106.453247 221.718512,108.041066 C221.718512,109.628885 220.431331,110.916066 218.843512,110.916066 C217.255694,110.916066 215.968512,109.628885 215.968512,108.041066 C215.968512,106.453247 217.255694,105.166066 218.843512,105.166066 Z M228.507695,107.082733 C229.036968,107.082733 229.466028,107.511793 229.466028,108.041066 C229.466028,108.570339 229.036968,108.999399 228.507695,108.999399 L224.633785,108.999399 C224.104512,108.999399 223.675451,108.570339 223.675451,108.041066 C223.675451,107.511793 224.104512,107.082733 224.633785,107.082733 L228.507695,107.082733 Z M218.843512,107.082733 C218.31424,107.082733 217.885179,107.511793 217.885179,108.041066 C217.885179,108.570339 218.31424,108.999399 218.843512,108.999399 C219.372785,108.999399 219.801846,108.570339 219.801846,108.041066 C219.801846,107.511793 219.372785,107.082733 218.843512,107.082733 Z M221.908155,98.6472958 C222.240824,98.9799646 222.277787,99.4963614 222.019045,99.8698586 L221.908155,100.002584 L218.814779,103.09596 C218.48211,103.428629 217.965713,103.465592 217.592216,103.20685 L217.459491,103.09596 L215.736608,101.373077 C215.362355,100.998825 215.362355,100.392042 215.736608,100.017789 C216.069277,99.6851203 216.585674,99.6481571 216.959171,99.9068995 L217.091896,100.017789 L218.137156,101.062483 L220.552867,98.6472958 C220.92712,98.2730433 221.533903,98.2730433 221.908155,98.6472958 Z M228.507695,101.332733 C229.036968,101.332733 229.466028,101.761793 229.466028,102.291066 C229.466028,102.820339 229.036968,103.249399 228.507695,103.249399 L224.633785,103.249399 C224.104512,103.249399 223.675451,102.820339 223.675451,102.291066 C223.675451,101.761793 224.104512,101.332733 224.633785,101.332733 L228.507695,101.332733 Z M222.676846,90.9166667 C222.206381,90.9166667 221.815096,91.2556774 221.733953,91.7027384 L221.718512,91.875 C221.656553,92.2878487 221.339226,92.618459 220.932441,92.6922927 L220.760179,92.7077327 L218.804586,92.7077327 C218.353231,92.7077327 217.97784,93.0329731 217.899992,93.4618748 L217.885179,93.6271393 L217.885179,93.6660661 C217.885179,94.1365309 218.22419,94.5278154 218.671251,94.6089594 L218.843512,94.6243994 L226.510179,94.6243994 C227.039452,94.6243994 227.468512,94.195339 227.468512,93.6660661 C227.468512,93.1956013 227.129502,92.8043167 226.682441,92.7231728 L226.510179,92.7077327 L224.593512,92.7077327 L224.392381,92.6906431 C223.937259,92.6100485 223.687303,92.255899 223.642513,91.8748282 L223.635179,91.875 C223.635179,91.3457271 223.206119,90.9166667 222.676846,90.9166667 Z" id="治理任务备份"></path>
            </g>
        </g>
    </g>
</svg>