<?xml version="1.0" encoding="UTF-8"?>
<svg width="14px" height="14px" viewBox="0 0 14 14" version="1.1" xmlns="http://www.w3.org/2000/svg" xmlns:xlink="http://www.w3.org/1999/xlink">
    <title>编组</title>
    <g id="飞巡" stroke="none" stroke-width="1" fill="none" fill-rule="evenodd">
        <g id="雪碧图" transform="translate(-150.000000, -230.000000)" fill="#FFFFFF" fill-rule="nonzero">
            <g id="编组-4" transform="translate(0.000000, 15.000000)">
                <g id="编组" transform="translate(34.000000, 18.000000)">
                    <path d="M123,197 C119.134375,197 116,200.134375 116,204 C116,207.865625 119.134375,211 123,211 C126.865625,211 130,207.865625 130,204 C130,200.134375 126.865625,197 123,197 Z M125.584375,206.659375 L124.553125,206.654687 L123,204.803125 L121.448437,206.653125 L120.415625,206.657813 C120.346875,206.657813 120.290625,206.603125 120.290625,206.532813 C120.290625,206.503125 120.301563,206.475 120.320312,206.451562 L122.353125,204.029687 L120.320312,201.609375 C120.301563,201.585938 120.290625,201.557813 120.290625,201.528125 C120.290625,201.459375 120.346875,201.403125 120.415625,201.403125 L121.448437,201.407813 L123,203.259375 L124.551563,201.409375 L125.582813,201.404687 C125.651562,201.404687 125.707813,201.459375 125.707813,201.529687 C125.707813,201.559375 125.696875,201.5875 125.678125,201.610938 L123.648438,204.03125 L125.679688,206.453125 C125.698437,206.476562 125.709375,206.504687 125.709375,206.534375 C125.709375,206.603125 125.653125,206.659375 125.584375,206.659375 Z" id="形状"></path>
                </g>
            </g>
        </g>
    </g>
</svg>