<?xml version="1.0" encoding="UTF-8"?>
<svg width="14px" height="14px" viewBox="0 0 14 14" version="1.1" xmlns="http://www.w3.org/2000/svg" xmlns:xlink="http://www.w3.org/1999/xlink">
    <title>切图</title>
    <g id="任务调度" stroke="none" stroke-width="1" fill="none" fill-rule="evenodd">
        <g id="切图" transform="translate(-387.000000, -62.000000)" fill="#FFFFFF" fill-rule="nonzero">
            <g transform="translate(20.000000, 20.000000)" id="Shape">
                <path d="M379.849535,45.1738984 C379.110299,44.443996 378.127791,44.0390178 377.079363,44.0374481 L377.068376,44.0374481 C376.564566,44.0374481 376.073311,44.1316291 375.605599,44.3168517 C375.120623,44.5099226 374.684301,44.7940352 374.310759,45.1629106 L370.655387,48.7763202 C370.233191,49.1938558 370.002474,49.7510932 370.004043,50.3460029 C370.005613,50.939343 370.239469,51.4965803 370.663234,51.9156856 C371.087,52.3347909 371.648882,52.5655343 372.248432,52.5671039 L372.253141,52.5671039 C372.851121,52.5671039 373.411434,52.3379303 373.832061,51.923534 L377.040125,48.752775 C377.146851,48.6476062 377.204923,48.5079045 377.204923,48.3603543 C377.204923,48.2112344 377.146851,48.0715327 377.040125,47.9679336 C376.934968,47.8627649 376.793713,47.8062563 376.64461,47.8062563 C376.495507,47.8062563 376.354252,47.8643346 376.249095,47.9679336 L373.041031,51.1386927 C372.832287,51.3458908 372.551346,51.4589079 372.251571,51.4589079 L372.250002,51.4589079 C371.947088,51.4573383 371.663008,51.3411817 371.452694,51.1324139 C371.240811,50.9220765 371.123099,50.6426729 371.123099,50.3444332 C371.121529,50.0477632 371.236103,49.7699294 371.446416,49.5627312 L375.101789,45.947752 C375.622864,45.4313264 376.322862,45.1472138 377.069946,45.1472138 L377.077793,45.1472138 C377.828015,45.1487835 378.532722,45.4376051 379.061645,45.9587398 C379.588998,46.4814441 379.880925,47.1768135 379.882495,47.9177038 C379.884064,48.658594 379.596845,49.3523938 379.074201,49.8688194 L375.195959,53.7066936 C374.420624,54.4695594 373.384753,54.8902343 372.279822,54.8902343 L372.268836,54.8902343 C371.159197,54.887095 370.117047,54.4601413 369.335435,53.6878574 C368.553822,52.9155735 368.122209,51.8858616 368.120639,50.7886534 C368.1175,49.6914452 368.544405,48.6648727 369.31974,47.8988676 L374.326454,42.9480884 C374.433181,42.8429196 374.491252,42.7032178 374.491252,42.5556677 C374.491252,42.4065478 374.433181,42.2668461 374.326454,42.163247 C374.219728,42.0580783 374.078473,42 373.92937,42 C373.780267,42 373.639012,42.0580783 373.533855,42.1616773 L368.527141,47.1140262 C368.028039,47.6069066 367.641941,48.1861195 367.378265,48.8328288 C367.125575,49.4575625 366.998445,50.1168292 367,50.7917928 C367.001584,51.468326 367.131853,52.1275928 367.389251,52.7507568 C367.654497,53.3974661 368.042164,53.976679 368.544405,54.4726987 C369.043507,54.9671488 369.630501,55.351721 370.284984,55.6154277 C370.912785,55.8681467 371.579824,55.9968606 372.265697,56 L372.279822,56 C372.960987,56 373.621747,55.8744254 374.24641,55.6248458 C374.899323,55.3658482 375.484748,54.9844153 375.983849,54.4899652 L379.862091,50.6536607 C380.234064,50.2847853 380.522852,49.8546922 380.71747,49.3727996 C380.905811,48.9066039 381.001551,48.4168629 381,47.9129947 C380.995273,46.8770041 380.587202,45.9038009 379.849535,45.1738984 Z"></path>
            </g>
        </g>
    </g>
</svg>