<?xml version="1.0" encoding="UTF-8"?>
<svg width="16px" height="17px" viewBox="0 0 16 17" version="1.1" xmlns="http://www.w3.org/2000/svg" xmlns:xlink="http://www.w3.org/1999/xlink">
    <title>形状结合</title>
    <g id="深汕" stroke="none" stroke-width="1" fill="none" fill-rule="evenodd">
        <g id="任务列表" transform="translate(-1819.000000, -672.000000)" fill="#56E9FF" fill-rule="nonzero">
            <g id="右侧预案响应" transform="translate(1510.000000, 74.000000)">
                <g id="任务记录备份" transform="translate(20.000000, 549.000000)">
                    <g id="编组-18备份-4" transform="translate(10.000000, 42.000000)">
                        <path d="M282.559147,7 C284.500337,7 286.075196,8.57485971 286.075196,10.5160494 L286.075196,10.5160494 L286.075196,10.5483726 C286.075196,12.193266 284.952862,13.5741863 283.43367,13.9710438 C284.144781,16.2983165 285.841751,18.1874299 288.028956,19.1643098 C288.413244,17.6253648 289.804938,16.4832772 291.462402,16.4832772 C293.416162,16.4832772 295,18.0671156 295,20.0208754 C295,20.3548822 294.953311,20.6763187 294.867116,20.9815937 C294.850954,21.0480359 294.825814,21.1108866 294.79349,21.1683502 C294.366105,22.4056117 293.268911,23.3304153 291.932884,23.5063973 C291.877217,23.5243547 291.816162,23.5351291 291.755107,23.5369248 C291.704826,23.5369248 291.65275,23.5405163 291.600673,23.5405163 C284.6422,23.5405163 279,17.9180696 279,10.959596 C279,10.8734007 279.001796,10.7872054 279.003591,10.7010101 C279.001796,10.6507295 279,10.6004489 279,10.5501684 C279,9.07766554 279.899663,7.81705948 281.178227,7.28193042 C281.60202,7.10056117 282.068911,7 282.559147,7 Z M291.442649,9.11178451 C291.729966,8.82446689 292.196857,8.82446689 292.482379,9.11178451 L292.482379,9.11178451 L294.454437,11.0813823 C294.610542,11.2165143 294.709091,11.4161402 294.709091,11.6383838 C294.709091,11.8536824 294.616917,12.0469394 294.470141,12.181378 L292.482379,14.1667789 C292.195062,14.4540965 291.729966,14.4540965 291.442649,14.1667789 C291.155331,13.8794613 291.155331,13.4125701 291.442649,13.1270483 L291.442649,13.1270483 L292.195,12.374 L288.971717,12.3746352 C288.598055,12.3746352 288.290784,12.0969946 288.242168,11.738124 L288.235466,11.6383838 C288.235466,11.2325477 288.564085,10.9039282 288.969921,10.9021324 L288.969921,10.9021324 L292.193,10.902 L291.442649,10.1515152 C291.181451,9.89031731 291.157706,9.48219569 291.371413,9.19428444 Z" id="形状结合"></path>
                    </g>
                </g>
            </g>
        </g>
    </g>
</svg>