<?xml version="1.0" encoding="UTF-8"?>
<svg width="14px" height="17px" viewBox="0 0 14 17" version="1.1" xmlns="http://www.w3.org/2000/svg" xmlns:xlink="http://www.w3.org/1999/xlink">
    <title>形状</title>
    <g id="任务调度" stroke="none" stroke-width="1" fill="none" fill-rule="evenodd">
        <g id="任务动态" transform="translate(-1670.000000, -961.000000)" fill="#FFFFFF" fill-rule="nonzero">
            <g id="右侧预案响应" transform="translate(1510.000000, 74.000000)">
                <g id="Group-101" transform="translate(13.000000, 887.000000)">
                    <path d="M153.985635,10.1108405 C152.402823,10.1108405 151.114261,8.82227926 151.114261,7.2394669 C151.114261,5.65665453 152.401206,4.36971004 153.985635,4.36971004 C155.570064,4.36971004 156.855392,5.65827129 156.855392,7.24108366 C156.855392,8.82389602 155.568447,10.1108405 153.985635,10.1108405 Z M153.985635,5.87491772 C153.232223,5.87491772 152.621086,6.48767143 152.621086,7.2394669 C152.621086,7.99126236 153.233839,8.60401607 153.985635,8.60401607 C154.73743,8.60401607 155.350184,7.99126236 155.350184,7.2394669 C155.350184,6.48767143 154.73743,5.87491772 153.985635,5.87491772 Z M153.985635,16.5552635 C153.79324,16.5552635 153.600845,16.4825091 153.453719,16.3353835 L149.043186,11.926467 C146.318938,9.20221891 146.318938,4.76743409 149.043186,2.04318605 C151.767434,-0.681062015 156.202219,-0.681062015 158.926467,2.04318605 C161.650715,4.76743411 161.650715,9.20060215 158.926467,11.926467 L154.51755,16.3353835 C154.370425,16.4825091 154.17803,16.5552635 153.985635,16.5552635 Z M153.985635,1.50480348 C152.582283,1.50480348 151.177315,2.03995251 150.108634,3.1086338 C147.971271,5.24599636 147.971271,8.7252734 150.108634,10.862636 L153.985635,14.7380203 L157.862636,10.8610192 C159.999999,8.72365664 159.999999,5.24437959 157.862636,3.10701704 C156.792338,2.03833575 155.388986,1.50480348 153.985635,1.50480348 Z" id="形状"></path>
                </g>
            </g>
        </g>
    </g>
</svg>