<?xml version="1.0" encoding="UTF-8"?>
<svg width="17px" height="15px" viewBox="0 0 17 15" version="1.1" xmlns="http://www.w3.org/2000/svg" xmlns:xlink="http://www.w3.org/1999/xlink">
    <title>Shape</title>
    <g id="任务调度" stroke="none" stroke-width="1" fill="none" fill-rule="evenodd">
        <g id="任务动态" transform="translate(-1613.000000, -962.000000)" fill="#FFFFFF" fill-rule="nonzero">
            <g id="右侧预案响应" transform="translate(1510.000000, 74.000000)">
                <g id="Group-101" transform="translate(13.000000, 887.000000)">
                    <path d="M105.633929,1 L91.3660714,1 C90.6147321,1 90,1.61818182 90,2.37373737 L90,14.3080808 C90,15.0636364 90.6147321,15.6818182 91.3660714,15.6818182 L105.633929,15.6818182 C106.385268,15.6818182 107,15.0636364 107,14.3080808 L107,2.37373737 C107,1.61818182 106.385268,1 105.633929,1 Z M105.633929,14.3042649 C105.633929,14.3042649 105.632031,14.3061728 105.632031,14.3061728 L91.3698661,14.3061728 C91.3698661,14.3061728 91.3679688,14.3042649 91.3679688,14.3042649 L91.3679688,10.2441077 L94.8893973,6.62278339 L99.0122768,11.7723906 C99.2399554,12.0318743 99.6232143,12.0814815 99.9078125,11.8868687 L102.953013,9.81672278 L105.633929,11.0855219 L105.633929,14.3042649 Z M105.633929,9.35690236 L103.393192,8.42772166 C103.159821,8.24837262 102.839174,8.23883277 102.596317,8.40482604 L99.6402902,10.410101 L95.4263393,5.15937149 C95.3011161,5.01627385 95.1208705,4.93232323 94.9311384,4.92659933 C94.7414062,4.92087542 94.5573661,4.99719416 94.4245536,5.13265993 L91.3660714,8.27890011 L91.3660714,2.37564534 C91.3660714,2.37564534 91.3679688,2.37373737 91.3679688,2.37373737 L105.630134,2.37373737 C105.630134,2.37373737 105.632031,2.37564534 105.632031,2.37564534 L105.633929,9.35690236 Z M102.029018,3.78181818 C100.97221,3.78181818 100.112723,4.64612795 100.112723,5.70886644 C100.112723,6.77160494 100.97221,7.6359147 102.029018,7.6359147 C103.085826,7.6359147 103.945312,6.77160494 103.945312,5.70886644 C103.945312,4.64612795 103.085826,3.78181818 102.029018,3.78181818 Z M102.029018,6.26217733 C101.725446,6.26217733 101.478795,6.01414141 101.478795,5.70886644 C101.478795,5.40359147 101.725446,5.15555556 102.029018,5.15555556 C102.332589,5.15555556 102.579241,5.40359147 102.579241,5.70886644 C102.579241,6.01414141 102.332589,6.26217733 102.029018,6.26217733 Z" id="Shape"></path>
                </g>
            </g>
        </g>
    </g>
</svg>