<?xml version="1.0" encoding="UTF-8"?>
<svg width="18px" height="14px" viewBox="0 0 18 14" version="1.1" xmlns="http://www.w3.org/2000/svg" xmlns:xlink="http://www.w3.org/1999/xlink">
    <title>Shape</title>
    <g id="任务调度" stroke="none" stroke-width="1" fill="none" fill-rule="evenodd">
        <g id="任务动态" transform="translate(-1642.000000, -962.000000)" fill="#FFFFFF" fill-rule="nonzero">
            <g id="右侧预案响应" transform="translate(1510.000000, 74.000000)">
                <g id="Group-101" transform="translate(13.000000, 887.000000)">
                    <path d="M135.196135,3.12179492 L127.319233,3.12179492 L126.893915,1.83048379 C126.732294,1.33484576 126.26104,1 125.72684,1 L120.224918,1 C119.54781,1 119,1.53376403 119,2.19350964 L119,13.5981573 C119,14.2579029 119.54781,14.791667 120.224918,14.791667 L135.196135,14.791667 C135.873243,14.791667 136.421053,14.2579029 136.421053,13.5981573 L136.421053,4.31530456 C136.421053,3.65555895 135.873243,3.12179492 135.196135,3.12179492 Z M120.224918,2.19350964 L125.72684,2.19350964 L126.031368,3.12179492 L120.224918,3.12179492 L120.224918,2.19350964 Z M135.196135,13.5981573 L120.224918,13.5981573 L120.224918,4.31530456 L135.196135,4.31530456 L135.196135,13.5981573 Z" id="Shape"></path>
                </g>
            </g>
        </g>
    </g>
</svg>