<?xml version="1.0" encoding="UTF-8"?>
<svg width="18px" height="17px" viewBox="0 0 18 17" version="1.1" xmlns="http://www.w3.org/2000/svg" xmlns:xlink="http://www.w3.org/1999/xlink">
    <title>形状</title>
    <g id="深汕" stroke="none" stroke-width="1" fill="none" fill-rule="evenodd">
        <g id="任务列表" transform="translate(-1847.000000, -672.000000)" fill="#56E9FF" fill-rule="nonzero">
            <g id="右侧预案响应" transform="translate(1510.000000, 74.000000)">
                <g id="任务记录备份" transform="translate(20.000000, 549.000000)">
                    <g id="编组-18备份-4" transform="translate(10.000000, 42.000000)">
                        <path d="M322.826611,7.2875 L309.173389,7.2875 C307.711275,7.2875 307,8.0085454 307,9.45083724 L307,18.104146 C307,19.5465183 307.667308,20.2281802 309.092974,20.2281802 L311.186028,20.2281802 L310.928537,22.4308406 C310.928491,22.6969324 311.075753,22.9411842 311.311094,23.0653589 C311.416091,23.122163 311.533583,23.1519463 311.65296,23.1519463 C311.793446,23.1519463 311.934053,23.1114571 312.054274,23.0307602 L316.209281,20.2281802 L322.907006,20.2281802 C324.356113,20.2281802 325,19.5465384 325,18.104146 L325,9.45083724 C325,8.0085454 324.275597,7.2875 322.826611,7.2875 Z M311.818375,14.8044576 C311.242238,14.8044576 310.773999,14.3360374 310.773999,13.7616096 C310.773999,13.187242 311.242258,12.7168517 311.818375,12.7168517 C312.394451,12.7168517 312.862771,13.1853522 312.862771,13.7616096 C312.86267,14.3379473 312.392501,14.8044576 311.818375,14.8044576 Z M315.997708,14.8044576 C315.418536,14.8044576 314.948005,14.3360374 314.948005,13.7616096 C314.948005,13.187242 315.418636,12.7168517 315.997708,12.7168517 C316.57682,12.7168517 317.047351,13.1853522 317.047351,13.7616096 C317.047351,14.3379473 316.57477,14.8044576 315.997728,14.8044576 L315.997708,14.8044576 Z M320.183535,14.8044576 C319.604342,14.8044576 319.13546,14.3360374 319.13546,13.7616096 C319.13546,13.187242 319.604342,12.7168517 320.183515,12.7168517 C320.762446,12.7168517 321.233078,13.1853522 321.233078,13.7616096 C321.233078,14.3379473 320.762546,14.8044576 320.183515,14.8044576 L320.183535,14.8044576 Z" id="形状"></path>
                    </g>
                </g>
            </g>
        </g>
    </g>
</svg>