<?xml version="1.0" encoding="UTF-8"?>
<svg width="50px" height="44px" viewBox="0 0 50 44" version="1.1" xmlns="http://www.w3.org/2000/svg" xmlns:xlink="http://www.w3.org/1999/xlink">
    <title>编组</title>
    <defs>
        <linearGradient x1="50%" y1="1.53773449%" x2="50%" y2="100%" id="linearGradient-1">
            <stop stop-color="#00C1DE" offset="0%"></stop>
            <stop stop-color="#B0E9FB" offset="100%"></stop>
        </linearGradient>
        <linearGradient x1="50%" y1="100%" x2="50%" y2="0%" id="linearGradient-2">
            <stop stop-color="#FCFDFF" offset="0%"></stop>
            <stop stop-color="#00C1DE" offset="100%"></stop>
        </linearGradient>
    </defs>
    <g id="页面-1" stroke="none" stroke-width="1" fill="none" fill-rule="evenodd">
        <g id="切图" transform="translate(-235.000000, -378.000000)">
            <g id="编组" transform="translate(235.000000, 378.000000)">
                <path d="M20.0100446,3.04017857 C8.96306478,3.04017857 0.0100446429,11.9931987 0.0100446429,23.0401786 C0.0100446429,34.0871584 8.96306478,43.0401786 20.0100446,43.0401786 C31.0570245,43.0401786 40.0100446,34.0871584 40.0100446,23.0401786 C40.0100446,11.9931987 31.0570245,3.04017857 20.0100446,3.04017857 Z M30.0010961,19.6173598 L18.721454,30.8612077 C18.5022147,31.0849213 18.1934898,31.228098 17.8579194,31.228098 L17.8534451,31.228098 L17.8579194,31.228098 C17.5178746,31.2236238 17.2136241,31.080447 16.998859,30.8567334 L11.6207829,25.505503 C11.4194406,25.2907379 11.2986352,24.9999101 11.2986352,24.686711 C11.2986352,24.0155701 11.8444965,23.474183 12.5156375,23.474183 C12.8333109,23.474183 13.1241386,23.5949884 13.3389037,23.7963307 L18.0100446,27.375749 L28.2829753,17.9037132 C28.5066889,17.6621025 28.8243623,17.5099772 29.1778299,17.5099772 C29.8489708,17.5099772 30.3948321,18.0513643 30.3948321,18.7225052 C30.3948321,19.080447 30.2427068,19.3981204 30.0010961,19.6173598 L30.0010961,19.6173598 Z" id="形状" fill="url(#linearGradient-1)"></path>
                <circle id="Oval-3" fill="url(#linearGradient-2)" cx="47.5" cy="13.5" r="2.5"></circle>
                <circle id="Oval-3-Copy-3" fill="url(#linearGradient-2)" cx="38.5" cy="1.5" r="1.5"></circle>
            </g>
        </g>
    </g>
</svg>