<svg width="78" height="46" xmlns="http://www.w3.org/2000/svg" xmlns:xlink="http://www.w3.org/1999/xlink"><defs><linearGradient x1="13.228%" y1="35.778%" x2="83.417%" y2="67.325%" id="prefix__c"><stop stop-color="#3BF3A8" offset="0%"/><stop stop-color="#46D0ED" offset="100%"/></linearGradient><linearGradient x1="41.25%" y1="-6.092%" x2="9.04%" y2="59.024%" id="prefix__e"><stop stop-color="#FFF" stop-opacity="0" offset="0%"/><stop stop-color="#FFF" stop-opacity=".18" offset="100%"/></linearGradient><filter x="-9.7%" y="-13%" width="119.4%" height="136.5%" filterUnits="objectBoundingBox" id="prefix__b"><feOffset dy="2" in="SourceAlpha" result="shadowOffsetOuter1"/><feGaussianBlur stdDeviation="2" in="shadowOffsetOuter1" result="shadowBlurOuter1"/><feColorMatrix values="0 0 0 0 0.882670969 0 0 0 0 0.882670969 0 0 0 0 0.882670969 0 0 0 1 0" in="shadowBlurOuter1"/></filter><rect id="prefix__a" x="0" y="0" width="72" height="38.4" rx="9.6"/></defs><g transform="translate(3.6 3.44)" fill="none" fill-rule="evenodd"><mask id="prefix__d" fill="#fff"><use xlink:href="#prefix__a"/></mask><use fill="#000" filter="url(#prefix__b)" xlink:href="#prefix__a"/><use fill="url(#prefix__c)" xlink:href="#prefix__a"/><path d="M44.892 18.993h-6.944v-6.866a1.57 1.57 0 00-1.572-1.567 1.57 1.57 0 00-1.57 1.567v6.866H27.97A1.57 1.57 0 0026.4 20.56a1.57 1.57 0 001.571 1.567h6.834v6.866a1.57 1.57 0 001.571 1.567 1.57 1.57 0 001.572-1.567v-6.866h6.88A1.57 1.57 0 0046.4 20.56a1.57 1.57 0 00-1.571-1.567h.063z" fill="#FFF" fill-rule="nonzero" mask="url(#prefix__d)"/><circle fill="url(#prefix__e)" mask="url(#prefix__d)" cx="36.48" cy="-19.2" r="36.48"/></g></svg>