<?xml version="1.0" encoding="UTF-8"?>
<svg width="78px" height="46px" viewBox="0 0 78 46" version="1.1" xmlns="http://www.w3.org/2000/svg" xmlns:xlink="http://www.w3.org/1999/xlink">
    <title>编组 11</title>
    <defs>
        <linearGradient x1="13.2282509%" y1="35.7777778%" x2="83.4174172%" y2="67.3252474%" id="linearGradient-1">
            <stop stop-color="#3BF3A8" offset="0%"></stop>
            <stop stop-color="#46D0ED" offset="100%"></stop>
        </linearGradient>
        <rect id="path-2" x="0" y="0" width="72" height="38.4" rx="9.6"></rect>
        <filter x="-9.7%" y="-13.0%" width="119.4%" height="136.5%" filterUnits="objectBoundingBox" id="filter-4">
            <feOffset dx="0" dy="2" in="SourceAlpha" result="shadowOffsetOuter1"></feOffset>
            <feGaussianBlur stdDeviation="2" in="shadowOffsetOuter1" result="shadowBlurOuter1"></feGaussianBlur>
            <feColorMatrix values="0 0 0 0 0.882670969   0 0 0 0 0.882670969   0 0 0 0 0.882670969  0 0 0 1 0" type="matrix" in="shadowBlurOuter1"></feColorMatrix>
        </filter>
        <linearGradient x1="41.2504628%" y1="-6.09200421%" x2="9.03964931%" y2="59.0236083%" id="linearGradient-5">
            <stop stop-color="#FFFFFF" stop-opacity="0" offset="0%"></stop>
            <stop stop-color="#FFFFFF" stop-opacity="0.18" offset="100%"></stop>
        </linearGradient>
    </defs>
    <g id="页面-1" stroke="none" stroke-width="1" fill="none" fill-rule="evenodd">
        <g id="画板" transform="translate(-509.000000, -499.000000)">
            <g id="弹窗" transform="translate(391.000000, 197.000000)">
                <g id="编组-11" transform="translate(28.000000, 94.000000)">
                    <g id="编组-10备份-13" transform="translate(19.000000, 207.600000)">
                        <g id="椭圆形" transform="translate(71.000000, 0.240000)">
                            <g transform="translate(3.600000, 3.600000)">
                                <mask id="mask-3" fill="white">
                                    <use xlink:href="#path-2"></use>
                                </mask>
                                <g id="蒙版">
                                    <use fill="black" fill-opacity="1" filter="url(#filter-4)" xlink:href="#path-2"></use>
                                    <use fill="url(#linearGradient-1)" fill-rule="evenodd" xlink:href="#path-2"></use>
                                </g>
                                <path d="M41.7298214,22.4104539 C41.793626,22.4365558 43.2031278,23.0194979 44.3545109,23.8402572 C44.7866421,24.1534798 45.5145947,24.6755175 45.6306031,25.4150709 C45.7060085,25.9255078 45.5174949,26.482348 45.0447608,27.1232942 C44.9316526,27.2915064 43.8759764,28.7213096 41.8574306,29.1041373 C41.3034906,29.2085448 40.7205485,29.2288463 40.1173049,29.1592413 C39.4879595,29.086736 38.829612,28.9243243 38.165464,28.6662057 C35.5523753,27.7062363 33.4033201,26.23293 31.1933605,23.9011616 C27.3969864,19.8872717 26.6110297,15.9864901 26.4921211,15.2440364 C25.8859773,11.8362904 28.4584631,9.95985487 28.7513842,9.75974042 C29.1574135,9.47261969 29.5228399,9.29860712 29.8795657,9.2319023 C29.9781728,9.21160084 30.0854805,9.2 30.2043891,9.2 C30.2652935,9.2 30.3261979,9.20290021 30.3842021,9.20870063 C30.7061254,9.24350314 31.1788595,9.40881508 31.5790884,9.98885696 C32.1301282,10.7748137 32.7188707,11.9319973 33.2061059,13.1761871 C33.7165427,14.4609799 33.0436942,14.9772172 32.391147,15.4789534 L32.3650452,15.4963547 C32.3650452,15.4963547 31.1933605,16.2707106 30.9845455,16.4070204 C30.784431,16.5404301 30.7119258,16.8130497 30.8308344,17.024765 C31.6254917,18.4951712 32.6985692,19.974278 33.9340585,21.2967735 C35.1521464,22.5989675 36.5268457,23.7532509 37.9131458,24.6349146 C37.9798506,24.6813179 38.0668569,24.71032 38.1596636,24.71032 C38.1886657,24.71032 38.2176678,24.7074198 38.2437697,24.7016194 L38.2785722,24.6900185 C38.4177822,24.6523158 38.52509,24.5508085 38.580194,24.4231993 C38.7136036,24.1679808 38.9485205,23.7503507 39.203739,23.3878245 C39.6938744,22.7091755 40.1811096,22.3321483 40.685746,22.2364414 C40.7640516,22.2219403 40.8568584,22.2103395 40.9496651,22.2103395 C41.004769,22.2103395 41.059873,22.2132397 41.1120768,22.2190401 C41.2454864,22.2248405 41.4717027,22.300246 41.7298214,22.4104539 Z" id="路径" fill="#FFFFFF" fill-rule="nonzero" mask="url(#mask-3)"></path>
                                <circle fill="url(#linearGradient-5)" mask="url(#mask-3)" cx="36.48" cy="-19.2" r="36.48"></circle>
                            </g>
                        </g>
                    </g>
                </g>
            </g>
        </g>
    </g>
</svg>