<?xml version="1.0" encoding="UTF-8"?>
<svg width="40px" height="40px" viewBox="0 0 40 40" version="1.1" xmlns="http://www.w3.org/2000/svg" xmlns:xlink="http://www.w3.org/1999/xlink">
    <title>通讯录</title>
    <defs>
        <linearGradient x1="13.2282509%" y1="0%" x2="83.4174172%" y2="110.909073%" id="linearGradient-1">
            <stop stop-color="#54A0FF" offset="0%"></stop>
            <stop stop-color="#9B58F0" offset="100%"></stop>
        </linearGradient>
        <rect id="path-2" x="-1.81188398e-13" y="4.61852778e-14" width="39" height="39" rx="19.2"></rect>
    </defs>
    <g id="页面-1" stroke="none" stroke-width="1" fill="none" fill-rule="evenodd">
        <g id="画板" transform="translate(-438.000000, -502.000000)">
            <g id="弹窗" transform="translate(391.000000, 197.000000)">
                <g id="编组-11" transform="translate(28.000000, 94.000000)">
                    <g id="编组-10备份-13" transform="translate(19.000000, 207.600000)">
                        <g id="通讯录" transform="translate(0.500000, 3.740000)">
                            <mask id="mask-3" fill="white">
                                <use xlink:href="#path-2"></use>
                            </mask>
                            <use id="蒙版" fill="url(#linearGradient-1)" xlink:href="#path-2"></use>
                            <path d="M24.6099742,11.5000778 L14.4985026,11.5000778 C13.9701144,11.4953979 13.4617298,11.7019704 13.086416,12.0739332 C12.7111022,12.445896 12.5,12.9524075 12.5,13.4808172 L12.5,15.0153817 L14.5222943,15.0153817 L14.5222943,16.6213212 L12.5,16.6213212 L12.5,18.691199 L14.5222943,18.691199 L14.5222943,20.2971386 L12.5,20.2971386 L12.5,22.3670163 L14.5222943,22.3670163 L14.5222943,23.9907996 L12.5,23.9907996 L12.5,25.5194162 C12.5,26.6133039 13.3867712,27.5000778 14.4806588,27.5000778 L24.5921304,27.5000778 C25.686018,27.5000778 26.5727892,26.6133039 26.5727892,25.5194162 L26.5727892,13.4808172 C26.5727892,12.3938602 25.696887,11.5099507 24.6099742,11.5000778 Z M24.0151817,23.6279762 L23.9438066,23.6279762 C23.7551532,23.6259277 23.593787,23.4918696 23.5571915,23.3067883 C23.2599855,21.699343 21.8580701,20.5328712 20.2233799,20.5328712 C18.5886897,20.5328712 17.1867743,21.699343 16.8895682,23.3067883 C16.8619434,23.4534125 16.7581939,23.5741612 16.6174011,23.6235495 C16.4766084,23.6729378 16.3201622,23.6434624 16.2069944,23.5462265 C16.0938265,23.4489906 16.0411298,23.2987665 16.0687547,23.1521423 C16.3796367,21.5339618 17.6155938,20.2513648 19.2211546,19.8807838 C18.1698153,19.4266392 17.5820534,18.2964955 17.8139282,17.1749805 C18.0458029,16.0534655 19.0335361,15.2490576 20.1787705,15.2490576 C21.3240048,15.2490576 22.311738,16.0534655 22.5436127,17.1749805 C22.7754875,18.2964955 22.1877256,19.4266392 21.1363863,19.8807838 C22.7476571,20.2510735 23.9871864,21.5396237 24.2947342,23.1640381 C24.3346988,23.3789737 24.1940418,23.5859784 23.9794942,23.6279762 L24.0151817,23.6279762 Z M21.8441893,17.6800518 C21.848999,17.0211525 21.4551507,16.4246736 20.8473153,16.1702969 C20.2394798,15.9159202 19.5381856,16.0540864 19.072261,16.520011 C18.6063363,16.9859356 18.4681702,17.6872298 18.7225469,18.2950653 C18.9769235,18.9029008 19.5734024,19.296749 20.2323018,19.2919393 C21.1290926,19.2919393 21.8560851,18.5649467 21.8560851,17.668156 L21.8441893,17.6800518 Z" id="形状" fill="#FFFFFF" fill-rule="nonzero" mask="url(#mask-3)"></path>
                        </g>
                    </g>
                </g>
            </g>
        </g>
    </g>
</svg>