<svg width="14" height="14" xmlns="http://www.w3.org/2000/svg"><path d="M11.04 8.353a.518.518 0 00-.176-.728 7.21 7.21 0 00-1.528-.692c1.03-.686 1.703-1.83 1.703-3.13C11.04 1.702 9.277 0 7.106 0S3.18 1.71 3.18 3.81c0 1.3.673 2.444 1.704 3.13C2.047 7.845 0 10.43 0 13.47c0 .29.249.53.548.53.3 0 .549-.24.549-.53 0-3.209 2.697-5.816 6.016-5.816 1.126 0 2.223.304 3.18.876a.552.552 0 00.746-.177zM4.276 3.81c0-1.512 1.272-2.742 2.836-2.742 1.565 0 2.837 1.23 2.837 2.742 0 1.513-1.272 2.742-2.837 2.742-1.564 0-2.836-1.237-2.836-2.742zm9.175 7.308h-1.33V9.83c0-.29-.25-.53-.55-.53-.299 0-.547.24-.547.53v1.287H9.694c-.3 0-.548.24-.548.53 0 .29.248.53.548.53h1.33v1.286c0 .29.25.53.549.53.3 0 .548-.24.548-.53v-1.286h1.33c.3 0 .549-.24.549-.53 0-.29-.249-.53-.548-.53z" fill="#FFF" fill-rule="nonzero"/></svg>