<?xml version="1.0" encoding="UTF-8"?>
<svg width="36px" height="36px" viewBox="0 0 36 36" version="1.1" xmlns="http://www.w3.org/2000/svg" xmlns:xlink="http://www.w3.org/1999/xlink">
    <title>编组 2</title>
    <g id="PC端" stroke="none" stroke-width="1" fill="none" fill-rule="evenodd" opacity="0.800000012">
        <g id="新增状态" transform="translate(-1603.000000, -267.000000)" stroke="#67A9FF" stroke-width="1.5">
            <g id="win-copy-2备份-3" transform="translate(1319.000000, 45.000000)">
                <g id="编组-7" transform="translate(24.000000, 166.000000)">
                    <g id="编组-2" transform="translate(260.000000, 56.000000)">
                        <circle id="椭圆形" fill="#D6E8FF" cx="18" cy="18" r="17.25"></circle>
                        <path d="M15.1210965,19.9578251 C15.3753065,19.9578251 15.6054508,20.0608807 15.7720452,20.2274841 C15.9386542,20.3941021 16.0417064,20.6242809 16.0417064,20.8785251 L16.0417064,20.8785251 L16.0417064,26.3293 C16.0417064,26.5835441 15.9386542,26.813723 15.7720452,26.980341 C15.6054508,27.1469444 15.3753065,27.25 15.1210965,27.25 L15.1210965,27.25 L9.67061571,27.25 C9.41640573,27.25 9.18626145,27.1469444 9.01966705,26.980341 C8.85305801,26.813723 8.75000586,26.5835441 8.75000586,26.3293 L8.75000586,26.3293 L8.75000586,20.8785251 C8.75000586,20.6242809 8.85305801,20.3941021 9.01966705,20.2274841 C9.18626145,20.0608807 9.41640573,19.9578251 9.67061571,19.9578251 L9.67061571,19.9578251 Z M25.2020857,19.9578251 C25.4565908,19.9578251 25.6871564,20.0610631 25.8540942,20.2278767 C26.0207533,20.3944119 26.1240295,20.6244107 26.1240295,20.8785251 L26.1240295,20.8785251 L26.1240295,26.3293 C26.1240295,26.5834144 26.0207533,26.8134132 25.8540942,26.9799484 C25.6871564,27.146762 25.4565908,27.25 25.2020857,27.25 L25.2020857,27.25 L19.752933,27.25 C19.4984279,27.25 19.2678623,27.146762 19.1009245,26.9799484 C18.9342653,26.8134132 18.8309892,26.5834144 18.8309892,26.3293 L18.8309892,26.3293 L18.8309892,20.8785251 C18.8309892,20.6244107 18.9342653,20.3944119 19.1009245,20.2278767 C19.2678623,20.0610631 19.4984279,19.9578251 19.752933,19.9578251 L19.752933,19.9578251 Z M22.4681933,8.75 C22.707455,8.75000001 22.946715,8.84087097 23.1278089,9.02059871 L23.1278089,9.02059871 L26.9767292,12.8697218 C27.1586677,13.0527828 27.2497005,13.2919617 27.249834,13.5311753 C27.2499675,13.7704743 27.1591624,14.0097836 26.9783905,14.1920421 L26.9783905,14.1920421 L23.1312966,18.0580215 C22.94815,18.2396953 22.7088272,18.3304987 22.4695214,18.3304987 C22.2302156,18.3304987 21.9908928,18.2396953 21.8098148,18.0600815 L21.8098148,18.0600815 L17.9420567,14.1934565 C17.7601682,14.0097023 17.6690435,13.7701252 17.6690435,13.5305491 C17.6690435,13.2913612 17.759904,13.0522921 17.9380877,12.8726221 L17.9380877,12.8726221 L21.8065629,9.0226059 C21.9896716,8.84087092 22.2289315,8.74999999 22.4681933,8.75 Z M15.1210907,9.87496375 C15.3751703,9.87496375 15.6051338,9.97824436 15.771645,10.1448981 C15.9384651,10.311861 16.0417005,10.5424631 16.0417005,10.7970036 L16.0417005,10.7970036 L16.0417005,16.2477785 C16.0417005,16.5023178 15.9384659,16.732918 15.7716467,16.8998794 C15.6051352,17.0665329 15.3751709,17.1698126 15.1210907,17.1698126 L15.1210907,17.1698126 L9.67060985,17.1698126 C9.41665917,17.1698126 9.18687476,17.066309 9.02044599,16.8996054 C8.85341675,16.7323004 8.75,16.5012785 8.75,16.2464445 L8.75,16.2464445 L8.75,10.7969978 C8.75,10.5424773 8.85323427,10.3118923 9.02015575,10.1449618 C9.1869242,9.97818437 9.41731207,9.87496375 9.67194379,9.87496375 L9.67194379,9.87496375 Z" id="形状备份" fill="#FFFFFF" fill-rule="nonzero"></path>
                    </g>
                </g>
            </g>
        </g>
    </g>
</svg>