<?xml version="1.0" encoding="UTF-8"?>
<svg width="15px" height="15px" viewBox="0 0 15 15" version="1.1" xmlns="http://www.w3.org/2000/svg" xmlns:xlink="http://www.w3.org/1999/xlink">
    <title>形状</title>
    <g id="任务调度" stroke="none" stroke-width="1" fill="none" fill-rule="evenodd">
        <g id="切图" transform="translate(-342.000000, -63.000000)" fill="#FFFFFF" fill-rule="nonzero">
            <g transform="translate(20.000000, 20.000000)" id="形状">
                <path d="M333.34012,50.9711354 L325.617323,50.9711354 C325.235564,50.9648786 324.928905,50.6745641 324.928905,50.3179277 L324.928905,50.3079169 C324.928905,49.9450238 325.238067,49.6446984 325.617323,49.6446984 L333.34012,49.6446984 C333.520676,49.6420227 333.694795,49.7116889 333.823651,49.8381622 C333.952508,49.9646355 334.025386,50.1373987 334.026035,50.3179277 C334.026035,50.6745641 333.720628,50.9636273 333.34012,50.9723868 L333.34012,50.9711354 Z M333.34012,54.22466 L325.617323,54.22466 C325.235564,54.2171519 324.928905,53.9280888 324.928905,53.5714524 L324.928905,53.5614416 C324.928905,53.1960457 325.238067,52.8982231 325.617323,52.8982231 L333.34012,52.8982231 C333.520676,52.8955474 333.694795,52.9652135 333.823651,53.0916869 C333.952508,53.2181602 334.025386,53.3909234 334.026035,53.5714524 C334.026035,53.9268374 333.720628,54.2171519 333.34012,54.22466 L333.34012,54.22466 Z M324.928905,47.0543923 C324.928905,46.6914991 325.238067,46.3911738 325.617323,46.3911738 L330.486315,46.3911738 C330.667319,46.3884998 330.841884,46.4582589 330.971173,46.5849305 C331.100462,46.7116022 331.173751,46.8846792 331.174733,47.0656545 C331.174733,47.4222908 330.868074,47.711354 330.486315,47.7188621 L325.617323,47.7188621 C325.235564,47.711354 324.928905,47.4222908 324.928905,47.0656545 L324.928905,47.0543923 Z M335.630674,43 L323.369326,43 C322.617073,43 322,43.5956453 322,44.3226829 L322,56.6760657 C322,57.4043547 322.615821,58 323.369326,58 L335.630674,58 C336.384179,58 337,57.4043547 337,56.6760657 L337,44.3226829 C337,43.5956453 336.384179,43 335.630674,43 Z"></path>
            </g>
        </g>
    </g>
</svg>