<?xml version="1.0" encoding="UTF-8"?>
<svg width="25px" height="20px" viewBox="0 0 25 20" version="1.1" xmlns="http://www.w3.org/2000/svg" xmlns:xlink="http://www.w3.org/1999/xlink">
    <title>形状</title>
    <g id="事件信息、组织动态、辅助工具" stroke="none" stroke-width="1" fill="none" fill-rule="evenodd">
        <g id="雪碧图" transform="translate(-318.000000, -456.000000)" fill="#FFFFFF" fill-rule="nonzero">
            <g id="编组" transform="translate(0.000000, -18.979320)">
                <path d="M340.875,482.239551 L340.875,484.701318 C340.875,490.377702 336.229954,494.97932 330.5,494.97932 C324.770046,494.97932 320.125,490.377702 320.125,484.701318 L320.125,482.363383 C318.75,481.868057 318,481.256331 318,480.640889 L318,477.441087 C318.082338,477.111601 318.312705,476.837746 318.625,476.698099 C320.25,475.722308 325,474.97932 330.5,474.97932 C336.125,474.97932 340.75,475.722308 342.375,476.701814 C342.687295,476.841461 342.917662,477.115316 343,477.444802 L343,480.644604 C343,481.255092 342.125,481.747941 340.875,482.239551 Z M326.75,488.516562 C326.75,490.568267 328.428932,492.231502 330.5,492.231502 C332.571068,492.231502 334.25,490.568267 334.25,488.516562 L334.25,486.054795 C334.25,484.00309 332.571068,482.339855 330.5,482.339855 C328.428932,482.339855 326.75,484.00309 326.75,486.054795 L326.75,488.515324 L326.75,488.516562 Z M340.5,478.67197 C340.477231,478.113117 340.05805,477.648543 339.5,477.56368 C336.532639,477.01841 333.517535,476.769501 330.5,476.820692 C327.311734,476.786802 324.128378,477.077265 321,477.687511 C320.736816,477.794815 320.547903,478.028749 320.5,478.306668 L320.5,479.906569 C320.504013,480.08439 320.595388,480.249077 320.744777,480.347739 C320.894167,480.446401 321.082765,480.466617 321.25,480.401894 C324.308842,479.913877 327.401751,479.665446 330.5,479.658906 C333.598346,479.759863 336.687502,480.049349 339.75,480.525726 C340.128218,480.55527 340.461131,480.280436 340.5,479.906569 L340.5,478.670732 L340.5,478.67197 Z M329.25,486.385425 C330.024187,485.945556 330.975813,485.945556 331.75,486.385425 C332.72992,486.945892 333.207672,488.088504 332.914815,489.171245 C332.621957,490.253985 331.631514,491.006873 330.5,491.006873 C329.368486,491.006873 328.378043,490.253985 328.085185,489.171245 C327.792328,488.088504 328.27008,486.945892 329.25,486.385425 L329.25,486.385425 Z" id="形状"></path>
            </g>
        </g>
    </g>
</svg>