<?xml version="1.0" encoding="UTF-8"?>
<svg width="16px" height="17px" viewBox="0 0 16 17" version="1.1" xmlns="http://www.w3.org/2000/svg" xmlns:xlink="http://www.w3.org/1999/xlink">
    <title>形状结合</title>
    <g id="任务调度" stroke="none" stroke-width="1" fill="none" fill-rule="evenodd">
        <g id="切图" transform="translate(-187.000000, -28.000000)" fill="#FFFFFF" fill-rule="nonzero">
            <g transform="translate(20.000000, 20.000000)" id="形状结合">
                <path d="M170.559147,8 C172.500337,8 174.075196,9.61860819 174.075196,11.6137227 L174.075196,11.6137227 L174.075196,11.6469439 C174.075196,13.3375312 172.952862,14.7568125 171.43367,15.1646944 C172.144781,17.5566171 173.841751,19.4982087 176.028956,20.5022256 C176.413244,18.9205298 177.804938,17.7467159 179.462402,17.7467159 C181.416162,17.7467159 183,19.3745522 183,21.382586 C183,21.7258712 182.953311,22.0562371 182.867116,22.3699924 C182.850954,22.4382803 182.825814,22.502877 182.79349,22.5619368 C182.366105,23.8335686 181.268911,24.7840625 179.932884,24.9649332 C179.877217,24.9833894 179.816162,24.9944631 179.755107,24.9963088 C179.704826,24.9963088 179.65275,25 179.600673,25 C172.6422,25 167,19.2213658 167,12.0695907 C167,11.981001 167.001796,11.8924112 167.003591,11.8038215 C167.001796,11.7521442 167,11.7004668 167,11.6487895 C167,10.1353816 167.899663,8.83975681 169.178227,8.28976224 C169.60202,8.10335468 170.068911,8 170.559147,8 Z M179.442649,10.1704484 C179.729966,9.87514928 180.196857,9.87514928 180.482379,10.1704484 L180.482379,10.1704484 L182.458496,12.1983983 C182.612249,12.3372161 182.709091,12.5408037 182.709091,12.7672348 C182.709091,12.9885142 182.616917,13.1871398 182.470141,13.325313 L180.482379,15.3658669 C180.195062,15.661166 179.729966,15.661166 179.442649,15.3658669 C179.155331,15.0705678 179.155331,14.5907068 179.442649,14.2972533 L179.442649,14.2972533 L180.195,13.523 L176.971717,13.5239388 C176.598055,13.5239388 176.290784,13.2385855 176.242168,12.8697457 L176.235466,12.7672348 C176.235466,12.3501249 176.564085,12.0123765 176.969921,12.0105309 L176.969921,12.0105309 L180.192,12.01 L179.442649,11.239062 C179.181451,10.9706083 179.157706,10.5511493 179.371413,10.2552401 Z"></path>
            </g>
        </g>
    </g>
</svg>