<?xml version="1.0" encoding="UTF-8"?>
<svg width="18px" height="16px" viewBox="0 0 18 16" version="1.1" xmlns="http://www.w3.org/2000/svg" xmlns:xlink="http://www.w3.org/1999/xlink">
    <title>形状</title>
    <g id="任务调度" stroke="none" stroke-width="1" fill="none" fill-rule="evenodd">
        <g id="切图" transform="translate(-226.000000, -30.000000)" fill="#FFFFFF" fill-rule="nonzero">
            <g transform="translate(20.000000, 20.000000)" id="形状">
                <path d="M221.826611,10 L208.173389,10 C206.711275,10 206,10.7272064 206,12.1818219 L206,20.9090688 C206,22.3637654 206.667308,23.0512518 208.092974,23.0512518 L210.186028,23.0512518 L209.928537,25.2727328 C209.928491,25.5410983 210.075753,25.7874371 210.311094,25.9126728 C210.416091,25.9699623 210.533583,26 210.65296,26 C210.793446,26 210.934053,25.9591648 211.054274,25.8777784 L215.209281,23.0512518 L221.907006,23.0512518 C223.356113,23.0512518 224,22.3637857 224,20.9090688 L224,12.1818219 C224,10.7272064 223.275597,10 221.826611,10 Z M210.818375,17.5811862 C210.242238,17.5811862 209.773999,17.1087636 209.773999,16.5294276 C209.773999,15.9501523 210.242258,15.4757427 210.818375,15.4757427 C211.394451,15.4757427 211.862771,15.9482464 211.862771,16.5294276 C211.86267,17.1106898 211.392501,17.5811862 210.818375,17.5811862 Z M214.997708,17.5811862 C214.418536,17.5811862 213.948005,17.1087636 213.948005,16.5294276 C213.948005,15.9501523 214.418636,15.4757427 214.997708,15.4757427 C215.57682,15.4757427 216.047351,15.9482464 216.047351,16.5294276 C216.047351,17.1106898 215.57477,17.5811862 214.997728,17.5811862 L214.997708,17.5811862 Z M219.183535,17.5811862 C218.604342,17.5811862 218.13546,17.1087636 218.13546,16.5294276 C218.13546,15.9501523 218.604342,15.4757427 219.183515,15.4757427 C219.762446,15.4757427 220.233078,15.9482464 220.233078,16.5294276 C220.233078,17.1106898 219.762546,17.5811862 219.183515,17.5811862 L219.183535,17.5811862 Z"></path>
            </g>
        </g>
    </g>
</svg>