<?xml version="1.0" encoding="UTF-8"?>
<svg width="18px" height="13px" viewBox="0 0 18 13" version="1.1" xmlns="http://www.w3.org/2000/svg" xmlns:xlink="http://www.w3.org/1999/xlink">
    <title>形状</title>
    <g id="任务调度" stroke="none" stroke-width="1" fill="none" fill-rule="evenodd">
        <g id="切图" transform="translate(-341.000000, -33.000000)" fill="#FFFFFF" fill-rule="nonzero">
            <g transform="translate(20.000000, 20.000000)" id="形状">
                <path d="M335.314103,15.4242532 C335.314103,14.0851709 334.219229,13 332.868495,13 L323.44569,13 C322.094956,13 321,14.0851709 321,15.4242532 L321,23.5755823 C321,24.9146646 322.094956,26 323.445607,26 L332.868495,26 C334.219229,26 335.314103,24.9145 335.314103,23.5756645 C335.314088,23.490052 335.354625,23.409466 335.423441,23.3583062 C335.492256,23.3071463 335.581258,23.2914284 335.663499,23.3159114 L337.727459,23.929462 C338.251306,24.0852152 338.802619,23.7878608 338.958759,23.2652278 C338.986102,23.1737221 339,23.0787437 339,22.9832595 L339,15.9781519 C339,15.4328924 338.556821,14.9908101 338.01021,14.9908101 C337.914461,14.9908088 337.819219,15.0046662 337.727459,15.0319494 L335.626464,15.6565253 C335.552932,15.6784102 335.473358,15.6643499 335.411835,15.618602 C335.350313,15.572854 335.314078,15.5007982 335.314103,15.4242532 L335.314103,15.4242532 Z M326.1964,21.6552025 L326.1964,17.4269114 C326.1964,16.8815696 326.639579,16.4395696 327.186191,16.4395696 C327.373679,16.4395696 327.557317,16.4926509 327.715729,16.5926899 L331.06221,18.7066709 C331.524112,18.9984304 331.661363,19.608443 331.36888,20.0691202 C331.290599,20.192413 331.185891,20.2968618 331.062293,20.3749494 L327.715811,22.4893418 C327.253991,22.7811835 326.642548,22.6442721 326.349983,22.1835949 C326.249651,22.02556 326.1964,21.8423453 326.1964,21.6552848 L326.1964,21.6552025 Z"></path>
            </g>
        </g>
    </g>
</svg>