<?xml version="1.0" encoding="UTF-8"?>
<svg width="17px" height="15px" viewBox="0 0 17 15" version="1.1" xmlns="http://www.w3.org/2000/svg" xmlns:xlink="http://www.w3.org/1999/xlink">
    <title>形状结合</title>
    <g id="PC端" stroke="none" stroke-width="1" fill="none" fill-rule="evenodd">
        <g id="协同标绘首页" transform="translate(-513.000000, -119.000000)" fill="#0091FF" fill-rule="nonzero">
            <g id="2" transform="translate(286.000000, 112.000000)">
                <path d="M242.950877,7 C243.282248,7 243.550877,7.26862915 243.550877,7.6 L243.550877,7.6 L243.550877,17.5780702 C243.550877,17.909441 243.282248,18.1780702 242.950877,18.1780702 L242.950877,18.1780702 L235.875,18.178 L235.875,20.048 L240.480702,20.0482456 L240.480702,21.2482456 L230.070175,21.2482456 L230.070175,20.0482456 L234.675,20.048 L234.675,18.178 L227.6,18.1780702 C227.301766,18.1780702 227.054353,17.9604806 227.007853,17.6753933 L227,17.5780702 L227,7.6 C227,7.26862915 227.268629,7 227.6,7 L227.6,7 Z M242.350596,8.19912281 L228.199596,8.19912281 L228.199596,16.9771228 L242.350596,16.9771228 L242.350596,8.19912281 Z M232.805263,12.7565789 L232.805263,15.4916667 L231.605263,15.4916667 L231.605263,12.7565789 L232.805263,12.7565789 Z M235.875439,11.2214912 L235.875439,15.4916667 L234.675439,15.4916667 L234.675439,11.2214912 L235.875439,11.2214912 Z M238.945614,9.68640351 L238.945614,15.4916667 L237.745614,15.4916667 L237.745614,9.68640351 L238.945614,9.68640351 Z" id="形状结合"></path>
            </g>
        </g>
    </g>
</svg>