<?xml version="1.0" encoding="UTF-8"?>
<svg width="43px" height="50px" viewBox="0 0 43 50" version="1.1" xmlns="http://www.w3.org/2000/svg" xmlns:xlink="http://www.w3.org/1999/xlink">
    <title>垃圾桶</title>
    <defs>
        <linearGradient x1="50%" y1="100%" x2="50%" y2="66.6870117%" id="linearGradient-1">
            <stop stop-color="#C1D3EF" offset="0%"></stop>
            <stop stop-color="#FFFFFF" offset="100%"></stop>
        </linearGradient>
        <linearGradient x1="50%" y1="1.09736272%" x2="50%" y2="100%" id="linearGradient-2">
            <stop stop-color="#5595FF" offset="0%"></stop>
            <stop stop-color="#A4C7FF" offset="100%"></stop>
        </linearGradient>
        <linearGradient x1="50%" y1="100%" x2="50%" y2="0%" id="linearGradient-3">
            <stop stop-color="#FCFDFF" offset="0%"></stop>
            <stop stop-color="#D7DEEA" offset="100%"></stop>
        </linearGradient>
        <linearGradient x1="50%" y1="100%" x2="50%" y2="0%" id="linearGradient-4">
            <stop stop-color="#FCFDFF" offset="0%"></stop>
            <stop stop-color="#92B8FD" offset="100%"></stop>
        </linearGradient>
    </defs>
    <g id="PC端" stroke="none" stroke-width="1" fill="none" fill-rule="evenodd">
        <g id="删除提示弹窗" transform="translate(-351.000000, -329.000000)">
            <g id="编组-7" transform="translate(1.000000, 0.000000)">
                <g id="弹框2" transform="translate(260.000000, 254.000000)">
                    <g id="垃圾桶" transform="translate(90.000000, 75.000000)">
                        <circle id="Oval-6" fill="url(#linearGradient-1)" cx="17" cy="43" r="7"></circle>
                        <path d="M18,9 C19.6568542,9 21,10.3431458 21,12 L21.0007456,12.5799793 C26.7833403,14.3013162 31,19.6582313 31,26 L31,32.9145508 L31,32.9145508 C31,35.9033479 31.570194,38.7029048 32.7105821,41.3132217 C33.4802327,41.7396279 34,42.5591149 34,43.5 C34,44.8807119 32.8807119,46 31.5,46 L2.5,46 C1.11928813,46 1.69088438e-16,44.8807119 0,43.5 C-1.35494708e-16,42.3936017 0.718718365,41.4550692 1.71474333,41.125814 C2.57165165,39.0564066 3,36.3194002 3,32.9145508 L3,26 L3,26 C3,19.6578647 7.21714721,14.3006968 13.0002573,12.5796808 L13,12 C13,10.3431458 14.3431458,9 16,9 L18,9 Z" id="Combined-Shape" fill="url(#linearGradient-2)"></path>
                        <path d="M21.6338622,18.8494302 C24.5801808,20.8780038 26.5117188,24.2744696 26.5117188,28.1220703 C26.5117188,28.7829088 26.5117188,29.3199534 26.5117188,29.7627204" id="Rectangle-4-Copy-5" stroke="#FFFFFF" stroke-width="3" stroke-linecap="round"></path>
                        <circle id="Oval-3" fill="url(#linearGradient-3)" cx="39.5" cy="18.5" r="2.5"></circle>
                        <circle id="Oval-3-Copy-3" fill="url(#linearGradient-4)" cx="30.5" cy="6.5" r="1.5"></circle>
                    </g>
                </g>
            </g>
        </g>
    </g>
</svg>