<?xml version="1.0" encoding="UTF-8"?>
<svg width="46px" height="48px" viewBox="0 0 46 48" version="1.1" xmlns="http://www.w3.org/2000/svg" xmlns:xlink="http://www.w3.org/1999/xlink">
    <title>垃圾桶</title>
    <defs>
        <linearGradient x1="38.6400127%" y1="0%" x2="38.6400133%" y2="40.8151719%" id="linearGradient-1">
            <stop stop-color="#FF9E9E" offset="0%"></stop>
            <stop stop-color="#FFFFFF" offset="100%"></stop>
        </linearGradient>
        <linearGradient x1="50%" y1="100%" x2="50%" y2="3.061617e-15%" id="linearGradient-2">
            <stop stop-color="#FF9E9E" offset="0%"></stop>
            <stop stop-color="#FF5E5E" offset="100%"></stop>
        </linearGradient>
        <linearGradient x1="50%" y1="100%" x2="50%" y2="0%" id="linearGradient-3">
            <stop stop-color="#FCFDFF" offset="0%"></stop>
            <stop stop-color="#DDDDDD" offset="100%"></stop>
        </linearGradient>
        <linearGradient x1="50%" y1="100%" x2="50%" y2="0%" id="linearGradient-4">
            <stop stop-color="#FCFDFF" offset="0%"></stop>
            <stop stop-color="#FF9C9C" offset="100%"></stop>
        </linearGradient>
    </defs>
    <g id="PC端" stroke="none" stroke-width="1" fill="none" fill-rule="evenodd">
        <g id="删除提示弹窗" transform="translate(-785.000000, -330.000000)">
            <g id="编组-7" transform="translate(1.000000, 0.000000)">
                <g id="弹框1" transform="translate(729.000000, 254.000000)">
                    <g id="垃圾桶" transform="translate(55.000000, 76.000000)">
                        <path d="M16.5608868,6.95518608 L18.8937994,9.28808759 C21.7734206,7.57017466 25.5565328,7.95083207 28.0357605,10.4300598 C30.9646927,13.358992 30.9646927,18.1077293 28.0357605,21.0366615 L27.3286537,21.7437683 C24.5016617,24.5707603 19.9793353,24.6691525 17.0343325,22.038945 L15.85378,23.218642 C14.2916828,24.7807392 11.7590229,24.7807392 10.1969257,23.218642 L5.24717827,18.2688946 C3.6850811,16.7067974 3.6850811,14.1741375 5.24717827,12.6120403 L10.9040325,6.95518608 C12.4661297,5.39308891 14.9987896,5.39308891 16.5608868,6.95518608 Z" id="Combined-Shape" fill="url(#linearGradient-1)"></path>
                        <path d="M32.5,12 C33.8807119,12 35,13.1192881 35,14.5 C35,15.7096818 34.1408321,16.7186941 32.999426,16.9501074 L33,42 C33,45.3137085 30.3137085,48 27,48 L8,48 C4.6862915,48 2,45.3137085 2,42 L1.99956551,16.9499027 C0.858661832,16.7180997 -1.40775973e-15,15.7093254 0,14.5 C-1.69088438e-16,13.1192881 1.11928813,12 2.5,12 L32.5,12 Z" id="Rectangle-4" fill="url(#linearGradient-2)"></path>
                        <rect id="Rectangle-6" fill="#FFFFFF" x="8" y="23" width="3" height="17" rx="1.5"></rect>
                        <rect id="Rectangle-6-Copy" fill="#FFFFFF" x="16" y="23" width="3" height="17" rx="1.5"></rect>
                        <rect id="Rectangle-6-Copy-2" fill="#FFFFFF" x="24" y="23" width="3" height="17" rx="1.5"></rect>
                        <circle id="Oval-3" fill="url(#linearGradient-3)" cx="43.5" cy="13.5" r="2.5"></circle>
                        <circle id="Oval-3-Copy-3" fill="url(#linearGradient-4)" cx="34.5" cy="1.5" r="1.5"></circle>
                    </g>
                </g>
            </g>
        </g>
    </g>
</svg>