<?xml version="1.0" encoding="UTF-8"?>
<svg width="28px" height="28px" viewBox="0 0 28 28" version="1.1" xmlns="http://www.w3.org/2000/svg" xmlns:xlink="http://www.w3.org/1999/xlink">
    <title>编组</title>
    <defs>
        <filter id="filter-1">
            <feColorMatrix in="SourceGraphic" type="matrix" values="0 0 0 0 0.600000 0 0 0 0 0.600000 0 0 0 0 0.600000 0 0 0 1.000000 0"></feColorMatrix>
        </filter>
    </defs>
    <g id="页面-1" stroke="none" stroke-width="1" fill="none" fill-rule="evenodd">
        <g id="响应通告" transform="translate(-40.000000, -1171.000000)">
            <g id="编组" transform="translate(20.000000, 922.000000)" filter="url(#filter-1)">
                <g transform="translate(20.000000, 249.000000)">
                    <path d="M13.998,0 C6.26599999,0 0,6.26900001 0,14 C0,21.732 6.26799999,28 14,28 C21.732,28 28,21.732 28,14 L28,14.002 C28,6.27 21.732,0.00200000391 14,0.00200000391 L13.998,0 Z M13.998,26.135 C7.29499999,26.017 1.958,20.488 2.077,13.787 C2.19000001,7.25 7.462,1.98000001 13.998,1.86499999 C20.7,1.983 26.038,7.51199999 25.92,14.213 C25.805,20.75 20.535,26.02 13.998,26.135 Z M20.067,14.932 L13.997,14.932 L13.997,8.86499999 C13.9953862,8.60892062 13.7890637,8.40126407 13.533,8.398 L12.598,8.398 C12.3415454,8.40072326 12.1346226,8.60853608 12.133,8.86499999 L12.133,16.332 C12.1346226,16.5884639 12.3415454,16.7962768 12.598,16.799 L20.065,16.799 C20.3230167,16.7984563 20.5323537,16.590012 20.5340044,16.332 L20.5340044,15.4 C20.5345429,15.2754568 20.4851024,15.1559012 20.3967547,15.0681174 C20.308407,14.9803336 20.1885372,14.9316596 20.064,14.933 L20.067,14.933 L20.067,14.932 Z" id="形状" fill="#515151" fill-rule="nonzero"></path>
                </g>
            </g>
        </g>
    </g>
</svg>