<?xml version="1.0" encoding="UTF-8"?>
<svg width="13px" height="13px" viewBox="0 0 13 13" version="1.1" xmlns="http://www.w3.org/2000/svg" xmlns:xlink="http://www.w3.org/1999/xlink">
    <title>paperclip</title>
    <g id="PC端" stroke="none" stroke-width="1" fill="none" fill-rule="evenodd" opacity="0.45">
        <g id="切图" transform="translate(-128.000000, -94.000000)" fill="#fff" fill-rule="nonzero">
            <g id="paperclip" transform="translate(128.000000, 94.000000)">
                <path d="M11.8899884,2.93269388 C11.2068534,2.25826131 10.2989077,1.88406002 9.33004539,1.88260962 L9.31989264,1.88260962 C8.85431661,1.88260962 8.40034372,1.96963318 7.96812672,2.14077951 C7.5199554,2.3191778 7.11674625,2.58169887 6.77155281,2.92254113 L3.39358839,6.26134495 C3.00343278,6.64714939 2.79022506,7.16203877 2.79167545,7.71173757 C2.79312585,8.25998598 3.00923435,8.77487536 3.40084035,9.16213019 C3.79244636,9.54938502 4.31168692,9.76259274 4.8657369,9.76404313 L4.87008808,9.76404313 C5.42268767,9.76404313 5.94047783,9.55228581 6.32918306,9.16938215 L9.29378558,6.23958906 C9.39241227,6.14241275 9.4460768,6.01332781 9.4460768,5.8769909 C9.4460768,5.7392036 9.39241227,5.61011866 9.29378558,5.51439275 C9.19660927,5.41721644 9.06607393,5.36500231 8.92828664,5.36500231 C8.79049934,5.36500231 8.659964,5.41866683 8.56278769,5.51439275 L5.59818518,8.44418584 C5.40528296,8.63563767 5.14566268,8.74006594 4.86863769,8.74006594 L4.86718729,8.74006594 C4.58726152,8.73861555 4.32474045,8.63128649 4.13038784,8.43838427 C3.93458484,8.24403166 3.82580539,7.98586178 3.82580539,7.71028718 C3.824355,7.43616297 3.93023366,7.17944348 4.12458627,6.98799165 L7.50255069,3.64773744 C7.98408104,3.17055827 8.63095615,2.90803721 9.32134304,2.90803721 L9.328595,2.90803721 C10.0218827,2.9094876 10.673109,3.17635984 11.1618913,3.65789019 C11.6492232,4.14087094 11.9189962,4.78339487 11.9204466,5.46798018 C11.921897,6.1525655 11.6564752,6.79363904 11.1734944,7.27081821 L7.58957425,10.8170282 C6.87308029,11.521919 5.91582116,11.9106242 4.89474475,11.9106242 L4.88459201,11.9106242 C3.85916442,11.9077234 2.89610372,11.5132166 2.1738082,10.7996235 C1.45151267,10.0860303 1.0526547,9.13457273 1.05120431,8.12074829 C1.04830352,7.10692385 1.44281031,6.15836707 2.15930427,5.45057547 L6.78605673,0.876037144 C6.88468343,0.778860838 6.93834796,0.649775895 6.93834796,0.513438988 C6.93834796,0.375651689 6.88468343,0.246566746 6.78605673,0.150840833 C6.68743003,0.053664527 6.5568947,0 6.4191074,0 C6.2813201,0 6.15078476,0.053664527 6.05360846,0.14939044 L1.426856,4.72537916 C0.965631142,5.18080244 0.608834557,5.71599732 0.365168596,6.31355908 C0.131655384,6.89081535 0.014173582,7.49998025 0.0156107081,8.12364907 C0.0170743672,8.74876829 0.137456955,9.3579332 0.375321345,9.93373907 C0.620437698,10.5313008 0.978684675,11.0664957 1.44281031,11.5248198 C1.90403517,11.9816934 2.44648201,12.3370396 3.05129573,12.5807056 C3.63145278,12.8142188 4.24786964,12.933151 4.88169122,12.9360518 L4.89474475,12.9360518 C5.52421515,12.9360518 6.13483045,12.8200204 6.71208671,12.589408 C7.31545004,12.3500932 7.85644649,11.9976478 8.31767134,11.5407741 L11.9015915,7.99601452 C12.2453346,7.65517226 12.5122068,7.25776468 12.6920555,6.81249414 C12.8661026,6.38172754 12.9545766,5.92920504 12.9531437,5.46362901 C12.948775,4.50636988 12.5716729,3.60712645 11.8899884,2.93269388 Z" id="Shape"></path>
            </g>
        </g>
    </g>
</svg>