<?xml version="1.0" encoding="UTF-8"?>
<svg width="31px" height="33px" viewBox="0 0 31 33" version="1.1" xmlns="http://www.w3.org/2000/svg" xmlns:xlink="http://www.w3.org/1999/xlink">
    <title>编组</title>
    <defs>
        <filter id="filter-1">
            <feColorMatrix in="SourceGraphic" type="matrix" values="0 0 0 0 0.784314 0 0 0 0 0.788235 0 0 0 0 0.800000 0 0 0 1.000000 0"></feColorMatrix>
        </filter>
    </defs>
    <g id="任务管理" stroke="none" stroke-width="1" fill="none" fill-rule="evenodd">
        <g id="输入结果" transform="translate(-774.000000, -645.000000)">
            <g id="编组" transform="translate(305.000000, 50.000000)" filter="url(#filter-1)">
                <g transform="translate(469.000000, 595.000000)">
                    <path d="M23.5546875,7.02304687 C23.5546875,7.96948172 24.3219245,8.73671875 25.2683594,8.73671875 C26.2147942,8.73671875 26.9820313,7.96948172 26.9820313,7.02304687 C26.9820313,6.07661203 26.2147942,5.309375 25.2683594,5.309375 C24.3219245,5.309375 23.5546875,6.07661203 23.5546875,7.02304687 Z M26.7363278,16.2839844 C26.7358301,17.2414326 27.378527,18.0798244 28.3032477,18.3280158 C29.2279684,18.5762071 30.2040932,18.1723005 30.6830773,17.343276 C31.1620614,16.5142515 31.024449,15.4668628 30.347573,14.7897024 C29.6706971,14.1125419 28.6233663,13.9744894 27.7941406,14.453125 C27.1395526,14.8309586 26.7363278,15.5293496 26.7363278,16.2851562 L26.7363278,16.2839844 Z" id="形状" fill="#000000" fill-rule="nonzero"></path>
                    <path d="M22.8570313,25.5917969 C22.8572,26.7189193 23.6144097,27.7053973 24.703179,27.9969219 C25.7919482,28.2884465 26.9407786,27.8123223 27.5041341,26.8360869 C28.0674897,25.8598515 27.9048906,24.6269415 27.1077024,23.8301378 C26.3105143,23.0333341 25.077526,22.8713298 24.1015625,23.4351562 C23.3311458,23.8800496 22.856588,24.7021498 22.8566406,25.5917969 L22.8570313,25.5917969 Z M13.1640619,29.3136719 C13.1648916,30.6191835 14.0423819,31.7614131 15.3035769,32.0986792 C16.564772,32.4359453 17.8952691,31.8841709 18.5476219,30.7533318 C19.1999748,29.6224926 19.0115586,28.1944951 18.0882217,27.2715593 C17.1648848,26.3486236 15.7368056,26.1608278 14.60625,26.8136719 C13.7132433,27.3293424 13.1634076,28.2824703 13.1640619,29.3136719 L13.1640619,29.3136719 Z M3.65859375,25.4453125 C3.65859375,27.219743 5.09705388,28.6582031 6.87148438,28.6582031 C8.64591487,28.6582031 10.084375,27.219743 10.084375,25.4453125 C10.084375,23.670882 8.64591487,22.2324219 6.87148438,22.2324219 C5.09705388,22.2324219 3.65859375,23.670882 3.65859375,25.4453125 Z M12.7039063,3.43476562 C12.7039063,4.97396463 13.7378437,6.32122256 15.2246089,6.71954755 C16.7113741,7.11787253 18.2803176,6.46794432 19.0498878,5.13494195 C19.819458,3.80193959 19.5977666,2.11824026 18.5093765,1.02987417 C17.4209865,-0.058491926 15.7372823,-0.280146377 14.4042969,0.489453125 C13.3520452,1.0969709 12.7039063,2.21973008 12.7039063,3.43476562 Z M3.47070313,7.103125 C3.47054513,8.4786837 4.29906097,9.71887654 5.56988128,10.2453531 C6.84070158,10.7718296 8.30353294,10.480898 9.27619984,9.50823109 C10.2488667,8.53556419 10.5397983,7.07273283 10.0133218,5.80191253 C9.48684529,4.53109222 8.24665245,3.70257638 6.87109375,3.70273437 C4.99310986,3.70273437 3.47070313,5.22514111 3.47070313,7.103125 L3.47070313,7.103125 Z M0.02578125,16.1769531 C0.0268599498,17.9659762 1.47764291,19.4155933 3.26666627,19.4152338 C5.05568964,19.4148742 6.50588978,17.964674 6.50624941,16.1756506 C6.50660891,14.3866273 5.05699183,12.9358443 3.26796875,12.9347656 C1.47735804,12.9347656 0.02578125,14.3863424 0.02578125,16.1769531 L0.02578125,16.1769531 Z" id="形状" fill="#000000" fill-rule="nonzero"></path>
                </g>
            </g>
        </g>
    </g>
</svg>