<?xml version="1.0" encoding="UTF-8"?>
<svg width="8px" height="8px" viewBox="0 0 8 8" version="1.1" xmlns="http://www.w3.org/2000/svg" xmlns:xlink="http://www.w3.org/1999/xlink">
    <title>Shape</title>
    <g id="PC端" stroke="none" stroke-width="1" fill="none" fill-rule="evenodd" fill-opacity="0.25">
        <g id="点标绘-已填写详情" transform="translate(-1334.000000, -674.000000)" fill="#000000">
            <g id="编组" transform="translate(988.000000, 70.000000)">
                <g id="Group-2" transform="translate(18.000000, 596.000000)">
                    <path d="M332.691818,11.9996893 L335.856544,15.164142 C336.047819,15.3555504 336.047819,15.6650353 335.856544,15.8552008 C335.665269,16.0466092 335.356001,16.0466092 335.165968,15.8552008 L332,12.691991 L328.834032,15.8564437 C328.642757,16.0478521 328.333489,16.0478521 328.143456,15.8564437 C327.952181,15.6650353 327.952181,15.3555504 328.143456,15.1653849 L331.308182,12.0009322 L328.143456,8.83523654 C327.952181,8.64382817 327.952181,8.3343432 328.143456,8.14417774 C328.239093,8.04847355 328.36454,8.00124291 328.488744,8.00124291 C328.61419,8.00124291 328.738395,8.04847355 328.834032,8.14417774 L332,11.3086305 L335.165968,8.14293482 C335.261605,8.04723064 335.38581,8 335.511256,8 C335.636702,8 335.760907,8.04723064 335.856544,8.14293482 C336.047819,8.3343432 336.047819,8.64382817 335.856544,8.83399363 L332.691818,11.9996893 L332.691818,11.9996893 Z" id="Shape" transform="translate(332.000000, 12.000000) scale(1, -1) translate(-332.000000, -12.000000) "></path>
                </g>
            </g>
        </g>
    </g>
</svg>