<?xml version="1.0" standalone="no"?><!DOCTYPE svg PUBLIC "-//W3C//DTD SVG 1.1//EN" "http://www.w3.org/Graphics/SVG/1.1/DTD/svg11.dtd"><svg t="1620467393482" class="icon" viewBox="0 0 1024 1024" version="1.1" xmlns="http://www.w3.org/2000/svg" p-id="3441" width="16" height="16" xmlns:xlink="http://www.w3.org/1999/xlink"><defs><style type="text/css"></style></defs><path d="M312.889 995.556c-17.067 0-28.445-5.69-39.822-17.067-22.756-22.756-17.067-56.889 5.689-79.645L642.844 568.89c11.378-11.378 17.067-22.756 17.067-34.133 0-11.378-5.689-22.756-17.067-34.134L273.067 187.733c-22.756-22.755-28.445-56.889-5.69-79.644 22.756-22.756 56.89-28.445 79.645-5.689l364.09 312.889C745.243 443.733 768 489.244 768 534.756s-17.067 85.333-51.2 119.466L352.711 984.178c-11.378 5.689-28.444 11.378-39.822 11.378z" p-id="3442" fill="#515151"></path></svg>