<?xml version="1.0" encoding="UTF-8"?>
<svg width="241px" height="31px" viewBox="0 0 241 31" version="1.1" xmlns="http://www.w3.org/2000/svg" xmlns:xlink="http://www.w3.org/1999/xlink">
    <title>蒙版</title>
    <defs>
        <path d="M207.876273,9.50375156 C211.810599,9.50375156 215,12.6931528 215,16.6274787 L215,22.2433483 C215,23.076115 214.324909,23.7512059 213.492142,23.7512059 L211.999,23.7507516 L212,28.9921425 C212,29.8249092 211.324909,30.5 210.492142,30.5 L204.507858,30.5 C203.675091,30.5 203,29.8249092 203,28.9921425 L202.999,23.7507516 L201.507858,23.7512059 C200.675091,23.7512059 200,23.076115 200,22.2433483 L200,16.6274787 C200,12.6931528 203.189401,9.50375156 207.123727,9.50375156 L207.876273,9.50375156 Z M157.876273,9.50375156 C161.810599,9.50375156 165,12.6931528 165,16.6274787 L165,22.2433483 C165,23.076115 164.324909,23.7512059 163.492142,23.7512059 L161.999,23.7507516 L162,28.9921425 C162,29.8249092 161.324909,30.5 160.492142,30.5 L154.507858,30.5 C153.675091,30.5 153,29.8249092 153,28.9921425 L152.999,23.7507516 L151.507858,23.7512059 C150.675091,23.7512059 150,23.076115 150,22.2433483 L150,16.6274787 C150,12.6931528 153.189401,9.50375156 157.123727,9.50375156 L157.876273,9.50375156 Z M182.876273,9.50375156 C186.810599,9.50375156 190,12.6931528 190,16.6274787 L190,22.2433483 C190,23.076115 189.324909,23.7512059 188.492142,23.7512059 L186.999,23.7507516 L187,28.9921425 C187,29.8249092 186.324909,30.5 185.492142,30.5 L179.507858,30.5 C178.675091,30.5 178,29.8249092 178,28.9921425 L177.999,23.7507516 L176.507858,23.7512059 C175.675091,23.7512059 175,23.076115 175,22.2433483 L175,16.6274787 C175,12.6931528 178.189401,9.50375156 182.123727,9.50375156 L182.876273,9.50375156 Z M132.876273,9.50375156 C136.810599,9.50375156 140,12.6931528 140,16.6274787 L140,22.2433483 C140,23.076115 139.324909,23.7512059 138.492142,23.7512059 L136.999,23.7507516 L137,28.9921425 C137,29.8249092 136.324909,30.5 135.492142,30.5 L129.507858,30.5 C128.675091,30.5 128,29.8249092 128,28.9921425 L127.999,23.7507516 L126.507858,23.7512059 C125.675091,23.7512059 125,23.076115 125,22.2433483 L125,16.6274787 C125,12.6931528 128.189401,9.50375156 132.123727,9.50375156 L132.876273,9.50375156 Z M32.8762729,9.50375156 C36.8105987,9.50375156 40,12.6931528 40,16.6274787 L40,22.2433483 C40,23.076115 39.3249092,23.7512059 38.4921425,23.7512059 L36.999,23.7507516 L37,28.9921425 C37,29.8249092 36.3249092,30.5 35.4921425,30.5 L29.5078575,30.5 C28.6750908,30.5 28,29.8249092 28,28.9921425 L27.999,23.7507516 L26.5078575,23.7512059 C25.6750908,23.7512059 25,23.076115 25,22.2433483 L25,16.6274787 C25,12.6931528 28.1894013,9.50375156 32.1237271,9.50375156 L32.8762729,9.50375156 Z M107.876273,9.50375156 C111.810599,9.50375156 115,12.6931528 115,16.6274787 L115,22.2433483 C115,23.076115 114.324909,23.7512059 113.492142,23.7512059 L111.999,23.7507516 L112,28.9921425 C112,29.8249092 111.324909,30.5 110.492142,30.5 L104.507858,30.5 C103.675091,30.5 103,29.8249092 103,28.9921425 L102.999,23.7507516 L101.507858,23.7512059 C100.675091,23.7512059 100,23.076115 100,22.2433483 L100,16.6274787 C100,12.6931528 103.189401,9.50375156 107.123727,9.50375156 L107.876273,9.50375156 Z M57.8762729,9.50375156 C61.8105987,9.50375156 65,12.6931528 65,16.6274787 L65,22.2433483 C65,23.076115 64.3249092,23.7512059 63.4921425,23.7512059 L61.999,23.7507516 L62,28.9921425 C62,29.8249092 61.3249092,30.5 60.4921425,30.5 L54.5078575,30.5 C53.6750908,30.5 53,29.8249092 53,28.9921425 L52.999,23.7507516 L51.5078575,23.7512059 C50.6750908,23.7512059 50,23.076115 50,22.2433483 L50,16.6274787 C50,12.6931528 53.1894013,9.50375156 57.1237271,9.50375156 L57.8762729,9.50375156 Z M7.87627285,9.50375156 C11.8105987,9.50375156 15,12.6931528 15,16.6274787 L15,22.2433483 C15,23.076115 14.3249092,23.7512059 13.4921425,23.7512059 L11.999,23.7507516 L12,28.9921425 C12,29.8249092 11.3249092,30.5 10.4921425,30.5 L4.50785753,30.5 C3.67509081,30.5 3,29.8249092 3,28.9921425 L2.999,23.7507516 L1.50785753,23.7512059 C0.675090813,23.7512059 -4.53091809e-13,23.076115 -4.54747351e-13,22.2433483 L-4.54747351e-13,16.6274787 C-4.55229167e-13,12.6931528 3.18940128,9.50375156 7.12372715,9.50375156 L7.87627285,9.50375156 Z M82.8762729,9.50375156 C86.8105987,9.50375156 90,12.6931528 90,16.6274787 L90,22.2433483 C90,23.076115 89.3249092,23.7512059 88.4921425,23.7512059 L86.999,23.7507516 L87,28.9921425 C87,29.8249092 86.3249092,30.5 85.4921425,30.5 L79.5078575,30.5 C78.6750908,30.5 78,29.8249092 78,28.9921425 L77.999,23.7507516 L76.5078575,23.7512059 C75.6750908,23.7512059 75,23.076115 75,22.2433483 L75,16.6274787 C75,12.6931528 78.1894013,9.50375156 82.1237271,9.50375156 L82.8762729,9.50375156 Z M232.876273,9.50375156 C236.810599,9.50375156 240,12.6931528 240,16.6274787 L240,22.2433483 C240,23.076115 239.324909,23.7512059 238.492142,23.7512059 L236.999,23.7507516 L237,28.9921425 C237,29.8249092 236.324909,30.5 235.492142,30.5 L229.507858,30.5 C228.675091,30.5 228,29.8249092 228,28.9921425 L227.999,23.7507516 L226.507858,23.7512059 C225.675091,23.7512059 225,23.076115 225,22.2433483 L225,16.6274787 C225,12.6931528 228.189401,9.50375156 232.123727,9.50375156 L232.876273,9.50375156 Z M7.45890411,0.5 C9.94418548,0.5 11.9589041,2.5143587 11.9589041,4.99919609 C11.9589041,7.48403348 9.94418548,9.49839219 7.45890411,9.49839219 C4.97362274,9.49839219 2.95890411,7.48403348 2.95890411,4.99919609 C2.95890411,2.5143587 4.97362274,0.5 7.45890411,0.5 Z M32.4589041,0.5 C34.9441855,0.5 36.9589041,2.5143587 36.9589041,4.99919609 C36.9589041,7.48403348 34.9441855,9.49839219 32.4589041,9.49839219 C29.9736227,9.49839219 27.9589041,7.48403348 27.9589041,4.99919609 C27.9589041,2.5143587 29.9736227,0.5 32.4589041,0.5 Z M57.4589041,0.5 C59.9441855,0.5 61.9589041,2.5143587 61.9589041,4.99919609 C61.9589041,7.48403348 59.9441855,9.49839219 57.4589041,9.49839219 C54.9736227,9.49839219 52.9589041,7.48403348 52.9589041,4.99919609 C52.9589041,2.5143587 54.9736227,0.5 57.4589041,0.5 Z M82.4589041,0.5 C84.9441855,0.5 86.9589041,2.5143587 86.9589041,4.99919609 C86.9589041,7.48403348 84.9441855,9.49839219 82.4589041,9.49839219 C79.9736227,9.49839219 77.9589041,7.48403348 77.9589041,4.99919609 C77.9589041,2.5143587 79.9736227,0.5 82.4589041,0.5 Z M107.458904,0.5 C109.944185,0.5 111.958904,2.5143587 111.958904,4.99919609 C111.958904,7.48403348 109.944185,9.49839219 107.458904,9.49839219 C104.973623,9.49839219 102.958904,7.48403348 102.958904,4.99919609 C102.958904,2.5143587 104.973623,0.5 107.458904,0.5 Z M132.458904,0.5 C134.944185,0.5 136.958904,2.5143587 136.958904,4.99919609 C136.958904,7.48403348 134.944185,9.49839219 132.458904,9.49839219 C129.973623,9.49839219 127.958904,7.48403348 127.958904,4.99919609 C127.958904,2.5143587 129.973623,0.5 132.458904,0.5 Z M157.458904,0.5 C159.944185,0.5 161.958904,2.5143587 161.958904,4.99919609 C161.958904,7.48403348 159.944185,9.49839219 157.458904,9.49839219 C154.973623,9.49839219 152.958904,7.48403348 152.958904,4.99919609 C152.958904,2.5143587 154.973623,0.5 157.458904,0.5 Z M182.458904,0.5 C184.944185,0.5 186.958904,2.5143587 186.958904,4.99919609 C186.958904,7.48403348 184.944185,9.49839219 182.458904,9.49839219 C179.973623,9.49839219 177.958904,7.48403348 177.958904,4.99919609 C177.958904,2.5143587 179.973623,0.5 182.458904,0.5 Z M207.458904,0.5 C209.944185,0.5 211.958904,2.5143587 211.958904,4.99919609 C211.958904,7.48403348 209.944185,9.49839219 207.458904,9.49839219 C204.973623,9.49839219 202.958904,7.48403348 202.958904,4.99919609 C202.958904,2.5143587 204.973623,0.5 207.458904,0.5 Z M232.458904,0.5 C234.944185,0.5 236.958904,2.5143587 236.958904,4.99919609 C236.958904,7.48403348 234.944185,9.49839219 232.458904,9.49839219 C229.973623,9.49839219 227.958904,7.48403348 227.958904,4.99919609 C227.958904,2.5143587 229.973623,0.5 232.458904,0.5 Z" id="path-1"></path>
    </defs>
    <g id="页面-1" stroke="none" stroke-width="1" fill="none" fill-rule="evenodd">
        <g id="应急管理" transform="translate(-1689.000000, -260.000000)">
            <g id="综合保障能力" transform="translate(1435.000000, 38.000000)">
                <g id="编组-30" transform="translate(1.000000, 105.000000)">
                    <g id="人数" transform="translate(0.000000, 60.000000)">
                        <g id="编组-27" transform="translate(253.500000, 57.000000)">
                            <g id="矩形" transform="translate(-0.000000, 0.000000)">
                                <mask id="mask-2" fill="white">
                                    <use xlink:href="#path-1"></use>
                                </mask>
                                <use id="蒙版" fill="#FFFFFF" xlink:href="#path-1"></use>
                            </g>
                        </g>
                    </g>
                </g>
            </g>
        </g>
    </g>
</svg>