<?xml version="1.0" encoding="UTF-8"?>
<svg width="14px" height="14px" viewBox="0 0 14 14" version="1.1" xmlns="http://www.w3.org/2000/svg" xmlns:xlink="http://www.w3.org/1999/xlink">
    <title>添加</title>
    <g id="页面-1" stroke="none" stroke-width="1" fill="none" fill-rule="evenodd">
        <g id="响应通告" transform="translate(-345.000000, -2488.000000)" fill="#00C1DE" fill-rule="nonzero">
            <g id="弹窗" transform="translate(40.000000, 2130.000000)">
                <g id="椭圆形-+-椭圆形备份-蒙版" transform="translate(20.000000, 71.000000)">
                    <g id="menu" transform="translate(1.000000, 60.000000)">
                        <path d="M295.949451,229.04931 C294.627371,227.727822 292.870193,227 291.00063,227 C289.131068,227 287.373243,227.727822 286.051053,229.049294 C284.728863,230.370766 284,232.129614 284,233.999937 C284,235.870259 284.7285,237.62876 286.051037,238.950706 C287.373574,240.272652 289.130422,241 291.000158,241 C292.869893,241 294.627371,240.272969 295.948963,238.950722 C297.270554,237.628475 298,235.869768 298,233.999462 C298,232.129155 297.272587,230.371256 295.94942,229.04931 L295.949451,229.04931 Z M294.500867,234.502232 L291.500707,234.502232 L291.500707,237.515861 C291.500707,237.793263 291.276822,238.018157 291.000646,238.018157 C290.72447,238.018157 290.50057,237.793263 290.50057,237.515877 L290.50057,234.502216 L287.500236,234.502216 C287.22406,234.502216 287.000176,234.277338 287.000176,233.999937 C287.000176,233.722535 287.22406,233.497641 287.500236,233.497641 L290.500554,233.497641 L290.500554,230.484154 C290.500554,230.206753 290.724439,229.981875 291.000615,229.981875 C291.276822,229.981875 291.500691,230.206753 291.500691,230.484154 L291.500691,233.497784 L294.500851,233.497784 C294.777027,233.497784 295.000912,233.722678 295.000912,234.000063 C295.000912,234.277449 294.777027,234.502374 294.500851,234.502374 L294.500851,234.502232 L294.500867,234.502232 Z" id="添加"></path>
                    </g>
                </g>
            </g>
        </g>
    </g>
</svg>