<?xml version="1.0" encoding="UTF-8"?>
<svg width="14px" height="14px" viewBox="0 0 14 14" version="1.1" xmlns="http://www.w3.org/2000/svg" xmlns:xlink="http://www.w3.org/1999/xlink">
    <title>删除</title>
    <g id="页面-1" stroke="none" stroke-width="1" fill="none" fill-rule="evenodd">
        <g id="响应通告" transform="translate(-401.000000, -2488.000000)" fill="#00C1DE" fill-rule="nonzero">
            <g id="弹窗" transform="translate(40.000000, 2130.000000)">
                <g id="椭圆形-+-椭圆形备份-蒙版" transform="translate(20.000000, 71.000000)">
                    <g id="menu" transform="translate(1.000000, 60.000000)">
                        <path d="M351.501171,230.994816 C351.777709,230.995733 352.000869,231.231626 352,231.522806 L352,231.522806 L352,239.419698 C352,240.291404 351.328777,241 350.501792,241 L350.501792,241 L343.500834,241 C342.67385,241 342,240.291404 342,239.419698 L342,239.419698 L342,231.514517 C342,231.373539 342.053394,231.243617 342.146149,231.145017 C342.240662,231.047335 342.36755,230.994816 342.500569,230.994816 L342.500569,230.994816 Z M348.500776,232.992224 C348.223641,232.992224 348,233.19719 348,233.452178 L348,233.452178 L348,238.525312 C348,238.7803 348.223641,238.984448 348.500776,238.984448 C348.776165,238.984448 349.000679,238.7803 349.000679,238.525312 L349.000663,238.525312 L349.000663,233.452178 C349.000663,233.197993 348.777038,232.992224 348.500776,232.992224 Z M345.500776,232.992224 C345.223641,232.992224 345,233.19719 345,233.452178 L345,233.452178 L345,238.525312 C345,238.7803 345.223641,238.984448 345.500776,238.984448 C345.776165,238.984448 346.000679,238.7803 346.000679,238.525312 L346.000663,238.525312 L346.000663,233.452178 C346.000663,233.197993 345.777038,232.992224 345.500776,232.992224 Z M349.338171,227 C350.160969,227 350.504665,227.355008 350.505537,228.062267 L350.505537,228.062267 L350.505537,228.989837 L353.50984,228.989837 C353.836613,229.091412 354,229.256339 354,229.484616 C354,229.827033 353.784988,229.996112 353.508968,229.996112 L353.508968,229.996112 L340.491481,229.996112 C340.21546,229.996112 340,229.721368 340,229.484616 C340,229.24861 340.214588,228.989837 340.491481,228.989837 L340.491481,228.989837 L343.498855,228.989837 L343.498855,228.062267 C343.498855,227.355008 343.910673,227 344.73872,227 L344.73872,227 Z" id="删除"></path>
                    </g>
                </g>
            </g>
        </g>
    </g>
</svg>