<?xml version="1.0" encoding="UTF-8"?>
<svg width="14px" height="14px" viewBox="0 0 14 14" version="1.1" xmlns="http://www.w3.org/2000/svg" xmlns:xlink="http://www.w3.org/1999/xlink">
    <title>编辑</title>
    <g id="页面-1" stroke="none" stroke-width="1" fill="none" fill-rule="evenodd">
        <g id="响应通告" transform="translate(-373.000000, -2488.000000)" fill="#00C1DE" fill-rule="nonzero">
            <g id="弹窗" transform="translate(40.000000, 2130.000000)">
                <g id="椭圆形-+-椭圆形备份-蒙版" transform="translate(20.000000, 71.000000)">
                    <g id="menu" transform="translate(1.000000, 60.000000)">
                        <path d="M325.766475,230.110582 C325.915593,229.968671 326,229.771823 326,229.565971 C326,229.36012 325.915593,229.163272 325.766475,229.02136 L323.97864,227.233525 C323.836728,227.084407 323.63988,227 323.434029,227 C323.228177,227 323.031329,227.084407 322.889418,227.233525 L321.48939,228.633553 L324.443449,231.587612 L325.766475,230.110582 L325.766475,230.110582 Z M312,238.045941 L312,241 L314.955459,241 L323.51103,232.366027 L320.556971,229.411968 L312,238.043141 L312,238.045941 Z" id="编辑"></path>
                    </g>
                </g>
            </g>
        </g>
    </g>
</svg>