<?xml version="1.0" encoding="UTF-8"?>
<svg width="17px" height="14px" viewBox="0 0 17 14" version="1.1" xmlns="http://www.w3.org/2000/svg" xmlns:xlink="http://www.w3.org/1999/xlink">
    <title>文件夹</title>
    <g id="Page-1" stroke="none" stroke-width="1" fill="none" fill-rule="evenodd">
        <g id="文件夹" fill="#FFFFFF" fill-rule="nonzero">
            <path d="M15.2665012,4.71999124 C15.8287091,4.71999124 16.281031,5.17742407 16.281031,5.73707652 L14.5024095,12.9410047 C14.5024095,13.5032126 14.0449766,13.95809 13.4853242,13.95809 L0.776869159,13.95809 L2.55549065,5.73707652 C2.55549065,5.17486857 3.0078125,4.71999124 3.57002044,4.71999124 L15.2665012,4.71999124 Z M9,6 L8,6 L7.99933294,8.99955549 L5,9 L5,10 L7.99933294,9.99955549 L8,13 L9,13 L8.99933294,9.99955549 L12,10 L12,9 L8.99933294,8.99955549 L9,6 Z M6.11528914,0.00255549065 C6.67494159,0.00255549065 7.13237442,0.457432827 7.13237442,1.01964077 L7.13237442,1.01964077 L7.13237442,1.93961741 L13.2297751,1.93961741 C13.7894276,1.93961741 14.2468604,2.39449474 14.2468604,2.95670269 L14.2468604,2.95670269 L14.2468604,3.95589953 L2.80848423,3.95589953 C2.24627629,3.95589953 1.79139895,4.41333236 1.79395444,4.97042932 L1.79395444,4.97042932 L0.0153329439,12.9384492 L0.0153329439,1.01964077 C0.0153329439,0.459988318 0.47021028,0.00255549065 1.03241822,0.00255549065 L1.03241822,0.00255549065 L6.11528914,0.00255549065 Z" id="形状结合"></path>
        </g>
    </g>
</svg>