<?xml version="1.0" encoding="UTF-8"?>
<svg width="25px" height="25px" viewBox="0 0 25 25" version="1.1" xmlns="http://www.w3.org/2000/svg" xmlns:xlink="http://www.w3.org/1999/xlink">
    <title>切图</title>
    <g id="页面-1" stroke="none" stroke-width="1" fill="none" fill-rule="evenodd">
        <g id="切图" transform="translate(-287.000000, -320.000000)" fill="#9FC8FE" fill-rule="nonzero">
            <g id="编组-18" transform="translate(287.000000, 320.000000)">
                <path d="M20.0851231,4 L4.91487686,4 C3.29030547,4 2.5,4.80116156 2.5,6.40370805 L2.5,16.0184956 C2.5,17.6211314 3.24145306,18.3785335 4.82552633,18.3785335 L7.15114201,18.3785335 L6.8650416,20.825934 C6.86499023,21.1215916 7.02861412,21.3929825 7.29010443,21.5309544 C7.40676758,21.59407 7.53731396,21.6271626 7.66995588,21.6271626 C7.82605126,21.6271626 7.98228067,21.5821746 8.11585972,21.4925113 L12.7325348,18.3785335 L20.1744513,18.3785335 C21.7845703,18.3785335 22.5,17.6211537 22.5,16.0184956 L22.5,6.40370805 C22.5,4.80116156 21.6951081,4 20.0851231,4 Z M7.85374993,12.3521751 C7.21359803,12.3521751 6.69333222,11.8317083 6.69333222,11.1934551 C6.69333222,10.5552689 7.21362037,10.0326129 7.85374993,10.0326129 C8.49383481,10.0326129 9.01418998,10.5531692 9.01418998,11.1934551 C9.01407829,11.8338303 8.49166806,12.3521751 7.85374993,12.3521751 Z M12.4974535,12.3521751 C11.8539286,12.3521751 11.3311163,11.8317083 11.3311163,11.1934551 C11.3311163,10.5552689 11.8540403,10.0326129 12.4974535,10.0326129 C13.1409114,10.0326129 13.6637237,10.5531692 13.6637237,11.1934551 C13.6637237,11.8338303 13.1386329,12.3521751 12.4974758,12.3521751 L12.4974535,12.3521751 Z M17.1483721,12.3521751 C16.5048249,12.3521751 15.9838443,11.8317083 15.9838443,11.1934551 C15.9838443,10.5552689 16.5048249,10.0326129 17.1483498,10.0326129 C17.7916066,10.0326129 18.3145306,10.5531692 18.3145306,11.1934551 C18.3145306,11.8338303 17.7917183,12.3521751 17.1483498,12.3521751 L17.1483721,12.3521751 Z" id="形状"></path>
            </g>
        </g>
    </g>
</svg>