<?xml version="1.0" encoding="UTF-8"?>
<svg width="20px" height="20px" viewBox="0 0 20 20" version="1.1" xmlns="http://www.w3.org/2000/svg" xmlns:xlink="http://www.w3.org/1999/xlink">
    <title>路径</title>
    <defs>
        <filter id="filter-1">
            <feColorMatrix in="SourceGraphic" type="matrix" values="0 0 0 0 0.623529 0 0 0 0 0.784314 0 0 0 0 0.996078 0 0 0 1.000000 0"></feColorMatrix>
        </filter>
    </defs>
    <g id="页面-1" stroke="none" stroke-width="1" fill="none" fill-rule="evenodd">
        <g id="响应通告" transform="translate(-74.000000, -2217.000000)">
            <g id="弹窗" transform="translate(40.000000, 2130.000000)">
                <g id="编组" transform="translate(20.000000, 71.000000)" filter="url(#filter-1)">
                    <g transform="translate(14.000000, 16.000000)">
                        <path d="M19.3890863,12.8551785 C18.9323959,12.4808608 18.3487928,12.2973699 17.7600671,12.3429978 L16.4796154,12.3429978 L16.4796154,10.0139983 C16.4672595,9.67638618 16.1841556,9.41236792 15.8465031,9.4235678 L10.3675923,9.4235678 L10.3675923,7.61955354 L11.6480441,7.61955354 C12.237265,7.66570528 12.821502,7.48217532 13.278486,7.10737283 C13.6680749,6.70115698 13.8648997,6.14745767 13.8191212,5.5864807 L13.8191212,2.05527932 C13.8641471,1.49387494 13.6662647,0.940114936 13.2756405,0.534387188 C12.8186566,0.159584705 12.2344196,-0.02394525 11.6451986,0.0222064821 L7.86217507,0.0222064821 C7.27343239,-0.0235706212 6.68977487,0.159937425 6.23315592,0.534387188 C5.84065817,0.939181531 5.64113492,1.49318243 5.6854071,2.05527932 L5.6854071,5.5864807 C5.64113492,6.14857759 5.84065817,6.70257849 6.23315592,7.10737283 C6.69013989,7.48217532 7.27437691,7.66570527 7.86359781,7.61955354 L9.10279055,7.61955354 L9.10279055,9.42499051 L4.066347,9.42499051 C3.72869453,9.41379062 3.44559059,9.6778089 3.43323474,10.0154211 L3.43323474,12.3429978 L2.19546471,12.3429978 C1.606705,12.2970713 1.02299296,12.4805964 0.566445553,12.8551785 C0.174267652,13.2601723 -0.0252018476,13.814024 0.0186967382,14.3760706 L0.0186967382,17.9086947 C-0.0253444649,18.4703358 0.174174937,19.0238078 0.566445553,19.4281641 C1.02299297,19.8027462 1.60670501,19.9862713 2.19546471,19.9403448 L5.979911,19.9403448 C6.56863667,19.9859727 7.1522398,19.8024818 7.60893018,19.4281641 C8.00142792,19.0233698 8.20095116,18.4693689 8.15667898,17.907272 L8.15667898,14.3760706 C8.20039126,13.8140491 8.00094854,13.2602718 7.60893018,12.8551785 C7.1522398,12.4808608 6.56863667,12.2973699 5.979911,12.3429978 L4.69945925,12.3429978 L4.69945925,10.6058516 L15.2133909,10.6058516 L15.2133909,12.3429978 L13.9756208,12.3429978 C13.3864339,12.2971448 12.8023059,12.4806405 12.3451789,12.8551785 C11.9538379,13.2606155 11.7549508,13.8142881 11.7988528,14.3760706 L11.7988528,17.9086947 C11.7545807,18.4707916 11.9541039,19.0247925 12.3466017,19.4295869 C12.803504,19.803395 13.3870853,19.9863694 13.9756208,19.9403448 L17.7600671,19.9403448 C18.3487928,19.9859727 18.9323959,19.8024818 19.3890863,19.4281641 C19.7817443,19.0234698 19.9812946,18.469394 19.9368351,17.907272 L19.9368351,14.3760706 C19.9807337,13.814024 19.7812642,13.2601723 19.3890863,12.8551785 L19.3890863,12.8551785 Z" id="路径" fill="#1296DB" fill-rule="nonzero"></path>
                    </g>
                </g>
            </g>
        </g>
    </g>
</svg>