<?xml version="1.0" encoding="UTF-8"?>
<svg width="20px" height="18px" viewBox="0 0 20 18" version="1.1" xmlns="http://www.w3.org/2000/svg" xmlns:xlink="http://www.w3.org/1999/xlink">
    <title>Fill 1</title>
    <g id="页面-1" stroke="none" stroke-width="1" fill="none" fill-rule="evenodd">
        <g id="响应通告" transform="translate(-450.000000, -2218.000000)" fill="#9FC8FE">
            <g id="弹窗" transform="translate(40.000000, 2130.000000)">
                <g id="椭圆形-+-椭圆形备份-蒙版备份" transform="translate(396.000000, 71.000000)">
                    <path d="M32.1520926,26.9995838 L26.6522613,26.9995838 C25.7404495,26.9995838 25.0018879,27.6710034 25.0018879,28.4999233 L25.0018879,33.4996605 C25.0018879,34.3285804 25.7404495,35 26.6522613,35 L32.1520926,35 C33.0639044,35 33.8024716,34.3285804 33.8024716,33.4996605 L33.8024716,28.5020557 C33.8048117,27.6731359 33.0662501,26.9995838 32.1520926,26.9995838 L32.1520926,26.9995838 Z M32.1520926,28.0012044 C32.4576337,28.0012044 32.700563,28.2265328 32.700563,28.4999233 L32.700563,33.4996605 C32.700563,33.7774252 32.4528221,33.9983794 32.1520926,33.9983794 L26.6522613,33.9983794 C26.3467201,33.9983794 26.1037909,33.773051 26.1037909,33.4996605 L26.1037909,28.5020557 C26.1037909,28.224291 26.3515318,28.0034462 26.6522613,28.0034462 L32.1520926,28.0034462 L32.1520926,28.0012044 Z M15.6503734,26.9995838 L21.1502347,26.9995838 C22.0619263,26.9995838 22.8006081,27.6710034 22.8006081,28.4999233 L22.8006081,33.4996605 C22.8006081,34.3285804 22.0619263,35 21.1502347,35 L15.6503734,35 C14.7361858,35 14,34.3285804 14,33.4996605 L14,28.5020557 C14,27.6731359 14.7385916,26.9995838 15.6503734,26.9995838 L15.6503734,26.9995838 Z M26.6522613,17 L32.1520926,17 C33.0662501,17 33.802466,17.6714196 33.802466,18.5003395 L33.802466,23.5001861 C33.802466,24.3289966 33.0639044,25.0005255 32.1520926,25.0005255 L26.6522613,25.0005255 C25.7404495,25.0005255 25.0018879,24.3289966 25.0018879,23.5001861 L25.0018879,18.5003395 C25.0018879,17.6692598 25.7404495,17 26.6522613,17 L26.6522613,17 Z M15.6503734,17 L21.1502347,17 C22.0619263,17 22.8006081,17.6714196 22.8006081,18.5003395 L22.8006081,23.5001861 C22.8006081,24.3289966 22.0619263,25.0005255 21.1502347,25.0005255 L15.6503734,25.0005255 C14.7361858,25.0005255 14,24.3268641 14,23.5001861 L14,18.5003395 C14,17.6692598 14.7385916,17 15.6503734,17 L15.6503734,17 Z" id="Fill-1"></path>
                </g>
            </g>
        </g>
    </g>
</svg>