<?xml version="1.0" encoding="UTF-8"?>
<svg width="10px" height="11px" viewBox="0 0 10 11" version="1.1" xmlns="http://www.w3.org/2000/svg" xmlns:xlink="http://www.w3.org/1999/xlink">
    <title>路径</title>
    <g id="页面-1" stroke="none" stroke-width="1" fill="none" fill-rule="evenodd">
        <g id="历史搜索" transform="translate(-874.000000, -219.000000)" fill="#E8EAF0" fill-rule="nonzero">
            <g id="编组" transform="translate(515.000000, 131.000000)">
                <g id="编组-5" transform="translate(1.000000, 14.000000)">
                    <path d="M358.834012,83.9958309 C358.613607,83.9971052 358.401764,83.9105775 358.245277,83.7553617 C358.088298,83.5996649 358,83.3877237 358,83.1666268 C358,82.9455299 358.088298,82.7335887 358.245277,82.5778919 L361.827439,79.0206064 L358.311614,75.4550289 C358.076537,75.2506726 357.975814,74.9318132 358.050841,74.6294999 C358.125869,74.3271865 358.363989,74.0924202 358.667336,74.0216884 C358.970683,73.9509565 359.288082,74.0561918 359.489083,74.2941432 L362.980032,77.8265526 L366.537318,74.2858512 C366.862467,73.9607019 367.389638,73.9607019 367.714788,74.2858512 C368.039937,74.6110005 368.039937,75.1381717 367.714788,75.463321 L364.165794,79.0206064 L367.714788,82.602768 C367.949864,82.8071243 368.050587,83.1259837 367.97556,83.4282971 C367.900532,83.7306104 367.662412,83.9653767 367.359065,84.0361086 C367.055718,84.1068404 366.738319,84.0016051 366.537318,83.7636537 L362.980032,80.1814921 L359.422747,83.7553617 C359.266261,83.9105775 359.054417,83.9971052 358.834012,83.9958309 L358.834012,83.9958309 Z" id="路径"></path>
                </g>
            </g>
        </g>
    </g>
</svg>