<?xml version="1.0" encoding="UTF-8"?>
<svg width="16px" height="16px" viewBox="0 0 16 16" version="1.1" xmlns="http://www.w3.org/2000/svg" xmlns:xlink="http://www.w3.org/1999/xlink">
    <title>形状</title>
    <g id="页面-1" stroke="none" stroke-width="1" fill="none" fill-rule="evenodd">
        <g id="历史搜索" transform="translate(-533.000000, -147.000000)" fill="#FFFFFF" fill-rule="nonzero">
            <g id="编组" transform="translate(515.000000, 131.000000)">
                <g id="编组-5" transform="translate(1.000000, 14.000000)">
                    <g id="编组-2" transform="translate(17.000000, 0.000000)">
                        <path d="M8,2 C3.58171875,2 0,5.58175 0,10 C0,14.4182812 3.58171875,18 8,18 C12.4182812,18 16,14.4182812 16,10 C16,5.58175 12.4182812,2 8,2 Z M8,16.7434687 C4.2756875,16.7434687 1.25653125,13.7242969 1.25653125,10 C1.25653125,6.2756875 4.2756875,3.25653125 8,3.25653125 C11.7243125,3.25653125 14.7434687,6.2756875 14.7434687,10 C14.7434687,13.7242969 11.7243125,16.7434687 8,16.7434687 Z M8.60640625,9.83145313 L8.60640625,4.8296875 L7.35523437,4.8296875 L7.35523437,11.0879844 L12.8322656,11.0879844 L12.8322656,9.83679687 L8.60640625,9.83679687 L8.60640625,9.83145313 Z" id="形状"></path>
                    </g>
                </g>
            </g>
        </g>
    </g>
</svg>