<?xml version="1.0" encoding="UTF-8"?>
<svg width="282px" height="61px" viewBox="0 0 282 61" version="1.1" xmlns="http://www.w3.org/2000/svg" xmlns:xlink="http://www.w3.org/1999/xlink">
    <title>key-places-mask</title>
    <g id="页面-1" stroke="none" stroke-width="1" fill="none" fill-rule="evenodd">
        <g id="key-places-mask" transform="translate(0.000000, 1.000000)" fill="#FFFFFF" fill-rule="nonzero" stroke="#FFFFFF">
            <path d="M277.114526,-6.82121026e-13 C279.597084,-6.82121026e-13 281.609595,2.03091354 281.609595,4.53166442 L281.609595,54.4683356 C281.609595,56.9711048 279.589756,59 277.114526,59 L5.35466403,59 C2.87210599,59 0.859595051,56.9690865 0.859595051,54.4683356 L0.859595051,4.53166442 C0.859595051,2.02889527 2.87943379,-6.82121026e-13 5.35466403,-6.82121026e-13 L72.0235951,-6.82121026e-13 C72.1801869,2.4404625 74.2083683,4.41896965 76.6038567,4.53324748 L76.8225983,4.53846154 L205.646586,4.53846154 C208.139322,4.53846154 210.284554,2.50972761 210.445119,0.00715747225 L210.445119,0.00715747225 L210.444595,-6.82121026e-13 L277.114526,-6.82121026e-13 Z" id="形状结合"></path>
        </g>
    </g>
</svg>