<?xml version="1.0" encoding="UTF-8"?>
<svg width="13px" height="16px" viewBox="0 0 13 16" version="1.1" xmlns="http://www.w3.org/2000/svg" xmlns:xlink="http://www.w3.org/1999/xlink">
    <title>形状</title>
    <g id="页面-1" stroke="none" stroke-width="1" fill="none" fill-rule="evenodd">
        <g id="切图整合" transform="translate(-408.000000, -89.000000)" fill="#FFFFFF" fill-rule="nonzero">
            <path d="M420.86386,95.55946 C420.86386,91.93668 417.98418,89 414.43186,89 C410.87964,89 408,91.93668 408,95.55946 C408,95.67444 408.0111,95.78558 408.01692,95.89814 C408.01164,95.95374 408,96.00736 408,96.06442 C408,100.1017 413.93718,104.67484 413.93718,104.67484 C413.93718,104.67484 414.43192,105.0532 414.92668,104.67484 C415.42142,104.29606 420.86386,100.1017 420.86386,96.06442 C420.86386,96.00736 420.85222,95.95374 420.84694,95.89814 C420.8527,95.78558 420.86386,95.67444 420.86386,95.55946 L420.86386,95.55946 Z M414.43186,98.083 C413.06548,98.083 411.95812,96.95342 411.95812,95.55946 C411.95812,94.16648 413.06546,93.03686 414.43186,93.03686 C415.79832,93.03686 416.90574,94.16648 416.90574,95.55946 C416.90574,96.95342 415.79832,98.083 414.43186,98.083 L414.43186,98.083 Z" id="形状"></path>
        </g>
    </g>
</svg>