<?xml version="1.0" encoding="UTF-8"?>
<svg width="15px" height="15px" viewBox="0 0 15 15" version="1.1" xmlns="http://www.w3.org/2000/svg" xmlns:xlink="http://www.w3.org/1999/xlink">
    <title>路径</title>
    <g id="页面-1" stroke="none" stroke-width="1" fill="none" fill-rule="evenodd">
        <g id="切图整合" transform="translate(-339.000000, -91.000000)" fill="#FFFFFF" fill-rule="nonzero">
            <path d="M350.437366,100.856136 C350.48497,100.87561 351.53658,101.310535 352.395611,101.922892 C352.718018,102.156583 353.261133,102.546068 353.347685,103.097839 C353.403944,103.478669 353.263297,103.894119 352.910597,104.37232 C352.826208,104.497821 352.038583,105.564577 350.532574,105.8502 C350.119287,105.928097 349.684362,105.943243 349.23429,105.891312 C348.764744,105.837217 348.27356,105.716044 347.778049,105.523465 C345.82846,104.807245 344.22508,103.708032 342.57626,101.968332 C339.743838,98.9736247 339.157446,96.0633058 339.06873,95.5093715 C338.616495,92.9668996 340.535791,91.5669171 340.754335,91.4176145 C341.057268,91.2033978 341.329907,91.0735694 341.596056,91.0238019 C341.669625,91.0086552 341.749686,91 341.838402,91 C341.883842,91 341.929282,91.0021638 341.972558,91.0064914 C342.21274,91.0324571 342.565441,91.155794 342.864046,91.5885552 C343.275169,92.1749466 343.714421,93.0383051 344.077941,93.9665779 C344.458771,94.9251439 343.956768,95.3103013 343.469911,95.6846398 L343.450437,95.6976226 C343.450437,95.6976226 342.57626,96.2753588 342.420466,96.3770576 C342.271163,96.4765927 342.217068,96.6799905 342.305784,96.8379483 C342.898667,97.9349979 343.699275,99.0385389 344.621056,100.025234 C345.529855,100.996783 346.555499,101.857978 347.589798,102.515775 C347.639565,102.550396 347.70448,102.572034 347.773721,102.572034 C347.795359,102.572034 347.816997,102.56987 347.836472,102.565542 L347.862437,102.556887 C347.9663,102.528758 348.046361,102.453025 348.087473,102.357817 C348.187008,102.167402 348.362277,101.855814 348.552691,101.585338 C348.918375,101.079008 349.281894,100.797713 349.658396,100.726307 C349.716819,100.715488 349.786061,100.706833 349.855303,100.706833 C349.896415,100.706833 349.937527,100.708997 349.976476,100.713325 C350.076011,100.717652 350.244788,100.773911 350.437366,100.856136 Z" id="路径"></path>
        </g>
    </g>
</svg>