<?xml version="1.0" encoding="UTF-8"?>
<svg width="16px" height="16px" viewBox="0 0 16 16" version="1.1" xmlns="http://www.w3.org/2000/svg" xmlns:xlink="http://www.w3.org/1999/xlink">
    <title>路径</title>
    <g id="页面-1" stroke="none" stroke-width="1" fill="none" fill-rule="evenodd">
        <g id="响应通告" transform="translate(-4419.000000, -1264.000000)" fill="#FFFFFF">
            <g id="弹窗" transform="translate(3640.000000, 1100.000000)">
                <path d="M788.383636,171.995032 L794.713088,165.670548 C795.095637,165.287999 795.095637,164.669461 794.713088,164.289396 C794.330539,163.906847 793.712001,163.906847 793.331936,164.289396 L787,170.611396 L780.668064,164.286912 C780.285515,163.904363 779.666977,163.904363 779.286912,164.286912 C778.904363,164.669461 778.904363,165.287999 779.286912,165.668064 L785.616364,171.992548 L779.286912,178.319516 C778.904363,178.702065 778.904363,179.320602 779.286912,179.700668 C779.478187,179.891942 779.729079,179.986338 779.977488,179.986338 C780.228381,179.986338 780.476789,179.891942 780.668064,179.700668 L787,173.376184 L793.331936,179.703152 C793.523211,179.894426 793.771619,179.988822 794.022512,179.988822 C794.273405,179.988822 794.521813,179.894426 794.713088,179.703152 C795.095637,179.320602 795.095637,178.702065 794.713088,178.322 L788.383636,171.995032 Z" id="路径"></path>
            </g>
        </g>
    </g>
</svg>