<?xml version="1.0" encoding="UTF-8"?>
<svg width="16px" height="16px" viewBox="0 0 16 16" version="1.1" xmlns="http://www.w3.org/2000/svg" xmlns:xlink="http://www.w3.org/1999/xlink">
    <title>编辑</title>
    <g id="任务管理" stroke="none" stroke-width="1" fill="none" fill-rule="evenodd">
        <g transform="translate(-1411.000000, -302.000000)" fill="#0091FF" fill-rule="nonzero" id="右">
            <g transform="translate(170.000000, 148.000000)">
                <g id="表格" transform="translate(0.000000, 60.000000)">
                    <g id="编辑" transform="translate(1241.000000, 94.000000)">
                        <path d="M14.7664753,4.11058227 C14.9155932,3.9686711 15,3.7718231 15,3.56597138 C15,3.36011966 14.9155932,3.16327166 14.7664753,3.02136049 L12.9786395,1.23352474 C12.8367283,1.08440683 12.6398803,1 12.4340286,1 C12.2281769,1 12.0313289,1.08440683 11.8894177,1.23352474 L10.4893897,2.63355274 L13.4434488,5.5876118 L14.7664753,4.11058227 L14.7664753,4.11058227 Z M1,12.0459409 L1,15 L3.95545909,15 L12.5110302,6.36602737 L9.55697109,3.4119683 L1,12.0431409 L1,12.0459409 Z"></path>
                    </g>
                </g>
            </g>
        </g>
    </g>
</svg>