<?xml version="1.0" encoding="UTF-8"?>
<svg width="16px" height="16px" viewBox="0 0 16 16" version="1.1" xmlns="http://www.w3.org/2000/svg" xmlns:xlink="http://www.w3.org/1999/xlink">
    <title>拨号</title>
    <g id="深汕" stroke="none" stroke-width="1" fill="none" fill-rule="evenodd">
        <g id="任务管理" transform="translate(-699.000000, -263.000000)" fill="#9FC8FE">
            <g id="右" transform="translate(170.000000, 148.000000)">
                <g id="表格" transform="translate(0.000000, 60.000000)">
                    <g id="编组-3" transform="translate(529.000000, 55.000000)">
                        <path d="M3.89180696,2 C5.46902357,2 6.74859708,3.2377592 6.74859708,4.76343502 L6.74859708,4.76343502 L6.74859708,4.78883943 C6.74859708,6.08164152 5.83670034,7.16697427 4.6023569,7.47888394 C5.18013468,9.3080013 6.55892256,10.7927478 8.33602694,11.5605255 C8.64826038,10.3509934 9.77901235,9.45337097 11.1257015,9.45337097 C12.7131313,9.45337097 14,10.698187 14,12.2337423 C14,12.4962545 13.9620651,12.7488872 13.8920314,12.9888177 C13.8789001,13.0410379 13.8584736,13.0904353 13.832211,13.1355987 C13.4849607,14.108023 12.5934905,14.8348713 11.5079686,14.9731842 C11.4627385,14.9872978 11.4131313,14.9957659 11.3635241,14.9971773 C11.3226712,14.9971773 11.2803591,15 11.2380471,15 C5.58428732,15 1,10.5810444 1,5.11203995 C1,5.04429486 1.00145903,4.97654978 1.00291807,4.90880469 C1.00145903,4.86928672 1,4.82976875 1,4.79025079 C1,3.63293888 1.73097643,2.64216697 2.7698092,2.22158289 C3.11414141,2.07903594 3.49349046,2 3.89180696,2 Z M11.1096521,3.65975464 C11.3430976,3.43393768 11.7224467,3.43393768 11.9544332,3.65975464 L11.9544332,3.65975464 L13.5585964,5.20932744 C13.6843508,5.31550736 13.7636364,5.47171891 13.7636364,5.64553252 C13.7636364,5.81716348 13.6865904,5.97097248 13.5643517,6.07679814 L11.9544332,7.63272175 C11.7209877,7.8585387 11.3430976,7.8585387 11.1096521,7.63272175 C10.8762065,7.40690479 10.8762065,7.03995223 11.1096521,6.81554663 L11.1096521,6.81554663 L11.72,6.224 L9.1020202,6.22418847 C8.80393939,6.22418847 8.55785859,6.01383997 8.51162323,5.73924373 L8.50381594,5.64553252 C8.50381594,5.32656606 8.7708193,5.06828792 9.10056117,5.06687656 L9.10056117,5.06687656 L11.719,5.066 L11.1096521,4.47692976 C10.9021449,4.27620357 10.8790886,3.96507799 11.040483,3.7398186 Z" id="拨号"></path>
                    </g>
                </g>
            </g>
        </g>
    </g>
</svg>