<?xml version="1.0" encoding="UTF-8"?>
<svg width="16px" height="16px" viewBox="0 0 16 16" version="1.1" xmlns="http://www.w3.org/2000/svg" xmlns:xlink="http://www.w3.org/1999/xlink">
    <title>关联表格</title>
    <defs>
        <filter id="filter-1">
            <feColorMatrix in="SourceGraphic" type="matrix" values="0 0 0 0 0.000000 0 0 0 0 0.568627 0 0 0 0 1.000000 0 0 0 1.000000 0"></feColorMatrix>
        </filter>
    </defs>
    <g id="任务管理" stroke="none" stroke-width="1" fill="none" fill-rule="evenodd">
        <g transform="translate(-1380.000000, -302.000000)" id="右">
            <g transform="translate(170.000000, 148.000000)">
                <g id="关联事件" transform="translate(0.000000, 60.000000)" filter="url(#filter-1)">
                    <g transform="translate(1210.000000, 94.000000)">
                        <path d="M6.90116211,13.5496055 C6.76116211,12.9196055 6.87735938,12.2713945 7.22735938,11.7253945 L8.37675391,9.93339453 C8.67496484,9.47139453 9.12435938,9.11860547 9.64516211,8.94080273 L9.96855664,8.83019727 L10.5677539,7.8964082 C10.9135566,7.356 11.4497539,6.978 12.0769648,6.83519727 C12.2645566,6.79180273 12.4549648,6.77219727 12.6425703,6.77360547 L12.6425703,1.861 C12.6425703,1.38780273 12.2603457,1 11.7913457,1 L2.85935938,1 C2.39314844,1 2.01096484,1.38780273 2.01096484,1.861 L2.01096484,14.1376055 C2.01096484,14.6107891 2.39316211,14.9986055 2.86216211,14.9986055 L7.88535938,14.9986055 C7.38135938,14.6583945 7.03414844,14.1473945 6.90116211,13.5496055 Z M4.41335938,3.94278906 L10.2457539,3.94278906 C10.5131621,3.94278906 10.7301484,4.17380273 10.7301484,4.46080273 C10.7301484,4.7464082 10.5131621,4.97880273 10.2457539,4.97880273 L4.41335938,4.97880273 C4.14596484,4.97880273 3.92896484,4.74780273 3.92896484,4.46080273 C3.92896484,4.17380273 4.14596484,3.94280273 4.41335938,3.94280273 L4.41335938,3.94278906 Z M4.41335938,6.39278906 L8.84996484,6.39278906 C9.11735938,6.39278906 9.33435938,6.62380273 9.33435938,6.91080273 C9.33435938,7.1964082 9.11735938,7.42880273 8.84996484,7.42880273 L4.41335938,7.42880273 C4.14596484,7.42880273 3.92896484,7.19780273 3.92896484,6.91080273 C3.92896484,6.62519727 4.14596484,6.39280273 4.41335938,6.39280273 L4.41335938,6.39278906 Z M3.92896484,9.36219727 C3.92896484,9.0765918 4.14596484,8.84419727 4.41335938,8.84419727 L6.89555664,8.84419727 C7.16296484,8.84419727 7.37995117,9.07519727 7.37995117,9.36219727 C7.37995117,9.64780273 7.16296484,9.88019727 6.89555664,9.88019727 L4.41335938,9.88019727 C4.14596484,9.87880273 3.92896484,9.64780273 3.92896484,9.36219727 Z M11.8893594,13.3578027 L11.2901621,14.2915918 C11.1067539,14.5771973 10.8715566,14.8165918 10.5971621,15 L11.7927676,15 C12.2603594,15 12.6439648,14.6121973 12.6439648,14.139 L12.6439648,13.0511973 C12.5081621,13.1296055 12.3653594,13.1953945 12.2155566,13.2458027 L11.8893594,13.3578027 L11.8893594,13.3578027 Z M12.6439648,9.12980273 C12.6243594,9.12 12.6033594,9.12139453 12.5879648,9.12419727 C12.5725566,9.127 12.5501621,9.13680273 12.5361484,9.15919727 L12.2351621,9.62819727 C12.2645566,9.66180273 12.2939512,9.69680273 12.3219648,9.73180273 L12.6439648,9.2305918 L12.6439648,9.12980273 L12.6439648,9.12980273 Z M9.18735937,13.026 C9.19155664,13.0413945 9.20135937,13.0497891 9.20975391,13.0553945 C9.23216211,13.0693945 9.25596484,13.068 9.27275391,13.0638027 C9.28396484,13.061 9.30775391,13.0525918 9.32457031,13.0273945 L9.62416211,12.5598027 C9.59476758,12.5261973 9.56535937,12.4911973 9.53735937,12.4561973 L9.19575391,12.9881973 C9.18735937,13.0008027 9.18455664,13.0133945 9.18735937,13.026 L9.18735937,13.026 Z M11.9047539,12.1468027 C12.3597539,11.437 12.2449648,10.534 11.6765703,9.96839453 L11.6485566,10.0118027 C11.6457539,10.0174082 11.6429512,10.0216055 11.6387539,10.0258027 L11.0353594,10.877 C11.0409648,10.8868027 11.0437539,10.8966055 11.0493594,10.9063945 C11.0549648,10.919 11.0619648,10.9316055 11.0675566,10.9441973 C11.1557539,11.1556055 11.1361621,11.3908027 11.0101621,11.5868027 L10.4851621,12.4043945 C10.4809648,12.41 10.4767539,12.4141973 10.4725566,12.4198027 L9.85655664,13.3788027 C9.75016211,13.544 9.58776758,13.6518027 9.40996484,13.6923945 C9.23216211,13.733 9.04035937,13.7063945 8.87375391,13.6042109 C8.54335937,13.3983945 8.44675391,12.9643945 8.65814844,12.634 L9.38057031,11.5083945 C9.24057031,10.961 9.32596484,10.3631973 9.65496484,9.85219727 L9.84814844,9.54980273 C9.47435937,9.67719727 9.13975391,9.92639453 8.91155664,10.282 L7.76216211,12.074 C7.23296484,12.8986055 7.47375391,13.985 8.29975391,14.4988027 C8.71275391,14.755 9.19435937,14.8208027 9.63816211,14.7186055 C10.0819512,14.6163945 10.4893594,14.3476055 10.7539648,13.9346055 L11.9047539,12.1468027 L11.9047539,12.1468027 Z M13.5581621,7.68639453 C13.1451621,7.42880273 12.6635566,7.36439453 12.2197539,7.46519727 C11.7759648,7.56739453 11.3685566,7.83619727 11.1039648,8.24919727 L9.95316211,10.0412109 C9.49675391,10.7524219 9.61435938,11.6554082 10.1841621,12.2210137 L10.7091621,11.4034082 C10.7777539,11.2956191 10.7819648,11.1626191 10.7203594,11.0478027 C10.6573594,10.9302246 10.6657539,10.7874082 10.7441484,10.6782109 L11.3475566,9.82701367 L12.0013594,8.80781641 C12.1063594,8.64261914 12.2701484,8.53621094 12.4479648,8.49421094 C12.6257539,8.45360547 12.8175566,8.48021094 12.9841621,8.5824082 C13.3145566,8.78821094 13.4111621,9.22221094 13.1997676,9.55261914 L12.4773594,10.6740137 C12.6187539,11.2228027 12.5333594,11.8206191 12.2043594,12.3330137 L12.0111621,12.6340137 C12.3835566,12.5066191 12.7167676,12.2588164 12.9449512,11.9032109 L14.0943594,10.1112109 C14.6249648,9.28521094 14.3841621,8.20021094 13.5581484,7.6864082 L13.5581621,7.68639453 Z" id="形状" fill="#000000" fill-rule="nonzero"></path>
                    </g>
                </g>
            </g>
        </g>
    </g>
</svg>