<?xml version="1.0" encoding="UTF-8"?>
<svg width="19px" height="16px" viewBox="0 0 19 16" version="1.1" xmlns="http://www.w3.org/2000/svg" xmlns:xlink="http://www.w3.org/1999/xlink">
    <title>查看</title>
    <g id="任务管理" stroke="none" stroke-width="1" fill="none" fill-rule="evenodd">
        <g transform="translate(-1442.000000, -262.000000)" fill="#9FC8FE" fill-rule="nonzero" id="右">
            <g transform="translate(170.000000, 148.000000)">
                <g id="表格" transform="translate(0.000000, 60.000000)">
                    <g id="查看" transform="translate(1272.000000, 54.000000)">
                        <path d="M9.5,2 C3.01875,2 1,8 1,8 C1,8 3.23125,14 9.5,14 C15.76875,14 18,8 18,8 C18,8 15.98125,2 9.5,2 Z M9.5,5.17647059 C11.0583333,5.17647059 12.3333333,6.44705882 12.3333333,8 C12.3333333,9.55294118 11.0583333,10.8235294 9.5,10.8235294 C7.94166666,10.8235294 6.66666666,9.55294118 6.66666666,8 C6.66666666,6.44705882 7.94166666,5.17647059 9.5,5.17647059 Z M9.5,5.88235294 C8.32639491,5.88235294 7.375,6.83045582 7.375,8 C7.375,9.16954418 8.32639491,10.1176471 9.5,10.1176471 C10.6736051,10.1176471 11.625,9.16954418 11.625,8 C11.625,6.83045582 10.6736051,5.88235294 9.5,5.88235294 Z"></path>
                    </g>
                </g>
            </g>
        </g>
    </g>
</svg>