<?xml version="1.0" encoding="UTF-8"?>
<svg width="16px" height="16px" viewBox="0 0 16 16" version="1.1" xmlns="http://www.w3.org/2000/svg" xmlns:xlink="http://www.w3.org/1999/xlink">
    <title>短信</title>
    <g id="深汕" stroke="none" stroke-width="1" fill="none" fill-rule="evenodd">
        <g id="任务管理" transform="translate(-727.000000, -263.000000)" fill="#99C2F8" fill-rule="nonzero">
            <g id="右" transform="translate(170.000000, 148.000000)">
                <g id="表格" transform="translate(0.000000, 60.000000)">
                    <g id="编组-9" transform="translate(557.000000, 55.000000)">
                        <path d="M16,3.99047618 C15.9852655,3.99773656 15.9709148,4.00568266 15.957,4.0142857 L14.336,5.04571428 C9.96249999,7.85666667 7.77199999,9.25999999 7.76450001,9.25525018 L1.14249999,4.95571428 L0,4.21904762 L0,3.95238096 C0,3.42639548 0.447715251,3 1,3 L15,3 C15.5522847,3 16,3.42639548 16,3.95238096 L16,3.99047618 Z M16,5.13238095 L16,13.4761905 C16,14.002176 15.5522847,14.4285714 15,14.4285714 L1,14.4285714 C0.447715258,14.4285714 9.76996262e-14,14.002176 9.76996262e-14,13.4761905 L9.76996262e-14,5.3695238 L0.57999999,5.74380953 L7.2015,10.0419048 C7.54980153,10.268624 8.00806008,10.2701335 8.358,10.0457143 L14.8965,5.83476191 C14.9435,5.80428573 15.313,5.56904763 16,5.13238095 Z" id="形状"></path>
                    </g>
                </g>
            </g>
        </g>
    </g>
</svg>