<?xml version="1.0" encoding="UTF-8"?>
<svg width="30px" height="28px" viewBox="0 0 30 28" version="1.1" xmlns="http://www.w3.org/2000/svg" xmlns:xlink="http://www.w3.org/1999/xlink">
    <title>形状</title>
    <g id="页面-1" stroke="none" stroke-width="1" fill="none" fill-rule="evenodd">
        <g id="画板" transform="translate(-1535.000000, -57.000000)" fill="#FFFFFF" fill-rule="nonzero">
            <path d="M1562.56209,78.6518854 C1564.10352,76.4524217 1565,73.8240944 1565,70.9997879 C1565,63.2679412 1558.28421,57 1550,57 C1541.71579,57 1535,63.2683655 1535,71.0002121 C1535,78.7320588 1541.71579,85 1550,85 C1552.64158,85 1555.12301,84.3620071 1557.27849,83.2429742 L1563.48729,84.933401 C1563.77582,85.0118775 1564.0452,84.7599043 1563.97601,84.475692 L1562.56209,78.6518854 Z M1544.79256,72.4004878 C1544.15827,72.7577471 1543.37653,72.7575854 1542.7424,72.4000637 C1542.10805,72.0429511 1541.71749,71.3829572 1541.71797,70.6689139 C1541.71841,69.6996228 1542.43255,68.8698926 1543.41259,68.7019104 C1544.39219,68.5339282 1545.35439,69.0756283 1545.69427,69.9868044 C1546.03371,70.8979805 1545.65379,71.9156302 1544.79256,72.4004878 L1544.79256,72.4004878 Z M1551.79471,71.6666263 C1551.3308,72.4496947 1550.38558,72.8318966 1549.48909,72.5981639 C1548.59304,72.3644311 1547.96942,71.5733029 1547.96899,70.6689139 L1547.94331,70.6689139 C1547.95212,69.9506515 1548.35231,69.2912024 1548.99385,68.9377642 C1549.7972,68.4855697 1550.81206,68.6157983 1551.46788,69.2550638 C1552.12458,69.8943294 1552.25818,70.8835578 1551.79471,71.6666263 L1551.79471,71.6666263 Z M1558.01134,71.6517793 C1557.55135,72.4335752 1556.61048,72.8170497 1555.71661,72.5867105 C1554.82273,72.3563713 1554.19868,71.5703335 1554.1952,70.6689139 C1554.19622,69.9566983 1554.58376,69.2981697 1555.21397,68.9377642 C1556.01384,68.4855697 1557.02521,68.6132531 1557.68017,69.2491251 C1558.33556,69.8849971 1558.47134,70.8704077 1558.01134,71.6517793 L1558.01134,71.6517793 Z" id="形状"></path>
        </g>
    </g>
</svg>