<?xml version="1.0" encoding="UTF-8"?>
<svg width="30px" height="25px" viewBox="0 0 30 25" version="1.1" xmlns="http://www.w3.org/2000/svg" xmlns:xlink="http://www.w3.org/1999/xlink">
    <title>形状</title>
    <g id="页面-1" stroke="none" stroke-width="1" fill="none" fill-rule="evenodd">
        <g id="画板" transform="translate(-1536.000000, -231.000000)" fill="#FFFFFF" fill-rule="nonzero">
            <path d="M1551.70215,243.778898 L1565.99682,233.608003 C1565.99682,232.17185 1564.87273,231 1563.49708,231 L1538.49973,231 C1537.12408,231 1536,232.175034 1536,233.608003 L1550.29466,243.778898 C1550.71818,244.078229 1551.27863,244.078229 1551.70215,243.778898 Z M1551.70215,246.934614 C1551.69897,246.937799 1551.69579,246.937799 1551.6926,246.937799 C1551.64802,246.969642 1551.59707,246.995117 1551.5493,247.020592 C1551.52383,247.03333 1551.49835,247.052436 1551.4697,247.061989 C1551.43467,247.077911 1551.39964,247.08428 1551.36461,247.097017 C1551.32321,247.109755 1551.27863,247.128861 1551.23724,247.13523 C1551.20539,247.141599 1551.17673,247.141599 1551.14489,247.144783 C1551.09712,247.151152 1551.04936,247.15752 1551.00159,247.15752 C1550.95383,247.15752 1550.90606,247.147967 1550.8583,247.144783 C1550.82645,247.141599 1550.79461,247.141599 1550.76595,247.13523 C1550.72137,247.125677 1550.67997,247.109755 1550.63857,247.097017 C1550.60355,247.08428 1550.56852,247.077911 1550.53349,247.061989 C1550.50483,247.049252 1550.47935,247.03333 1550.45388,247.020592 C1550.40611,246.995117 1550.35516,246.969642 1550.31058,246.937799 C1550.3074,246.934614 1550.30421,246.934614 1550.30103,246.934614 L1536,236.763719 L1536,253.172805 C1536,254.608959 1537.12408,255.780809 1538.49973,255.780809 L1563.50027,255.780809 C1564.87592,255.780809 1566,254.605774 1566,253.172805 L1566,236.763719 L1551.70215,246.934614 Z" id="形状"></path>
        </g>
    </g>
</svg>