<?xml version="1.0" encoding="UTF-8"?>
<svg width="31px" height="33px" viewBox="0 0 31 33" version="1.1" xmlns="http://www.w3.org/2000/svg" xmlns:xlink="http://www.w3.org/1999/xlink">
    <title>路径</title>
    <g id="页面-1" stroke="none" stroke-width="1" fill="none" fill-rule="evenodd">
        <g id="画板" transform="translate(-1533.000000, -315.000000)" fill="#FFFFFF" fill-rule="nonzero">
            <path d="M1563.93477,342.915781 C1563.64544,341.577642 1562.53463,340.682966 1561.15258,340.674355 C1560.77456,340.671772 1560.39568,340.674355 1560.0168,340.674355 C1561.57708,340.00981 1562.58929,338.477257 1562.58802,336.781353 C1562.59147,334.446929 1560.70826,332.54908 1558.38417,332.546497 C1556.06524,332.543052 1554.17084,334.441763 1554.16653,336.772742 C1554.1626,338.471244 1555.17668,340.006791 1556.74034,340.67005 C1556.3339,340.669189 1555.92833,340.67005 1555.52189,340.679522 C1554.21045,340.70966 1553.12547,341.580225 1552.84389,342.857226 C1552.7552,343.261079 1552.77673,343.628766 1552.75864,344.047257 C1552.74745,344.308168 1552.75606,344.780909 1552.75606,344.780909 L1552.51409,344.780909 C1552.51409,344.196226 1552.51754,343.941343 1552.51323,343.498741 C1552.49773,341.839414 1551.28015,340.649383 1549.63201,340.645078 C1549.27983,340.644217 1548.92764,340.648522 1548.57631,340.649383 C1550.11099,339.974795 1551.10187,338.456888 1551.1019,336.780492 C1551.10276,334.44779 1549.21438,332.548219 1546.89374,332.545636 C1544.57051,332.543913 1542.6873,334.434874 1542.68213,336.773603 C1542.67572,338.463733 1543.67928,339.994333 1545.23183,340.6623 C1544.87189,340.664883 1544.51195,340.663161 1544.15116,340.666605 C1543.8205,340.669189 1543.47434,340.726882 1543.16176,340.833657 C1542.00531,341.227177 1541.28372,342.272544 1541.26908,343.515102 C1541.26391,343.971481 1541.26822,344.429583 1541.26822,344.873045 L1541.29663,345.279481 C1537.9289,344.770575 1535.33615,341.860942 1535.33615,338.347681 L1535.33615,337.178317 C1535.33615,333.350758 1538.41197,330.2336 1542.218,330.165574 C1549.70349,330.16988 1556.17804,330.159546 1563.735,330.159546 L1563.9916,330.159546 C1563.99505,330.159546 1563.99849,330.069993 1563.99849,330.032966 C1563.99849,328.668133 1564.00108,327.309328 1563.99591,325.944495 C1563.99506,325.751422 1563.97429,325.558952 1563.93391,325.370146 C1563.64458,324.032007 1562.53377,323.137332 1561.15172,323.128721 C1560.7737,323.126137 1560.39482,323.128721 1560.01594,323.128721 C1561.57622,322.464175 1562.58843,320.931623 1562.58716,319.235718 C1562.59061,316.901295 1560.70739,315.003446 1558.3833,315.000862 C1556.06438,314.997418 1554.16998,316.896128 1554.16567,319.227108 C1554.16174,320.92561 1555.17582,322.461157 1556.73948,323.124415 C1556.33304,323.123554 1555.92747,323.124415 1555.52103,323.133887 C1554.20959,323.164026 1553.12461,324.034591 1552.84303,325.311592 C1552.75434,325.715445 1552.77587,326.083992 1552.75778,326.501623 C1552.74659,326.762534 1552.7552,327.235274 1552.7552,327.235274 L1552.51323,327.235274 C1552.51323,326.650592 1552.51668,326.396569 1552.51237,325.953106 C1552.49687,324.29378 1551.27929,323.103749 1549.63115,323.099444 C1549.27897,323.098582 1548.92678,323.103749 1548.57545,323.103749 C1550.11013,322.42916 1551.10101,320.911253 1551.10104,319.234857 C1551.1019,316.902156 1549.21352,315.002584 1546.89288,315 C1544.56965,314.998279 1542.68644,316.88924 1542.68127,319.227108 C1542.67485,320.917237 1543.67842,322.447838 1545.23097,323.115804 C1544.87103,323.118388 1544.51109,323.117527 1544.1503,323.12011 C1543.81964,323.122693 1543.47348,323.180386 1543.1609,323.287162 C1542.00445,323.680681 1541.28286,324.726049 1541.26822,325.968606 C1541.26305,326.424985 1541.26736,326.883087 1541.26736,327.32655 L1541.3061,327.881094 C1536.64156,328.399472 1533,332.369973 1533,337.178317 L1533,338.347681 C1533,343.112971 1536.57698,347.05075 1541.18125,347.62596 L1541.17608,347.705181 L1541.17608,347.711209 C1549.35044,347.716375 1555.92316,347.705181 1563.73586,347.705181 L1563.99247,347.705181 C1563.99591,347.705181 1563.99935,347.615627 1563.99935,347.5786 C1563.99935,346.213768 1564.00194,344.854963 1563.99677,343.489269 C1563.99592,343.296481 1563.97514,343.104297 1563.93477,342.915781 L1563.93477,342.915781 Z" id="路径"></path>
        </g>
    </g>
</svg>