<?xml version="1.0" encoding="UTF-8"?>
<svg width="34px" height="38px" viewBox="0 0 34 38" version="1.1" xmlns="http://www.w3.org/2000/svg" xmlns:xlink="http://www.w3.org/1999/xlink">
    <title>形状</title>
    <g id="页面-1" stroke="none" stroke-width="1" fill="none" fill-rule="evenodd">
        <g id="画板" transform="translate(-1532.000000, -588.000000)" fill="#FFFFFF" fill-rule="nonzero">
            <path d="M1556.57822,617.051111 L1556.57444,617.277778 C1556.57444,618.588667 1556.871,619.829667 1557.40178,620.938444 L1549.01889,625.777778 L1540.636,620.938444 C1541.21503,619.726353 1541.49733,618.393875 1541.45956,617.051111 L1549.01889,621.414444 L1556.57822,617.051111 L1556.57822,617.051111 Z M1561.59889,609.518222 L1561.59889,599.626111 L1555.06522,595.854 C1555.9756,594.958993 1556.67284,593.870533 1557.10522,592.669333 L1565.38044,597.444444 L1565.38044,608.783444 C1564.08134,608.735831 1562.78871,608.987895 1561.60267,609.520111 L1561.59889,609.518222 Z M1536.43889,609.518222 C1535.25285,608.986006 1533.96022,608.733942 1532.66111,608.781556 L1532.66111,597.444444 L1541.07611,592.586222 C1541.49922,593.804556 1542.19056,594.896333 1543.08211,595.789778 L1536.43889,599.624222 L1536.43889,609.518222 L1536.43889,609.518222 Z M1549.01889,595.555556 C1546.93248,595.555556 1545.24111,593.864187 1545.24111,591.777778 C1545.24111,589.691369 1546.93248,588 1549.01889,588 C1551.1053,588 1552.79667,589.691369 1552.79667,591.777778 C1552.79667,593.864187 1551.1053,595.555556 1549.01889,595.555556 Z M1535.77778,619.068444 C1533.69137,619.068444 1532,617.377076 1532,615.290667 C1532,613.204258 1533.69137,611.512889 1535.77778,611.512889 C1537.86419,611.512889 1539.55556,613.204258 1539.55556,615.290667 C1539.55556,617.377076 1537.86419,619.068444 1535.77778,619.068444 Z M1562.22222,619.068444 C1560.13581,619.068444 1558.44444,617.377076 1558.44444,615.290667 C1558.44444,613.204258 1560.13581,611.512889 1562.22222,611.512889 C1564.30863,611.512889 1566,613.204258 1566,615.290667 C1566,617.377076 1564.30863,619.068444 1562.22222,619.068444 Z M1549.04156,597.255556 L1557.22044,601.977778 L1557.22044,611.422222 L1549.04156,616.144444 L1540.86267,611.422222 L1540.86267,601.977778 L1549.04156,597.255556 Z" id="形状"></path>
        </g>
    </g>
</svg>