<?xml version="1.0" encoding="UTF-8"?>
<svg width="32px" height="33px" viewBox="0 0 32 33" version="1.1" xmlns="http://www.w3.org/2000/svg" xmlns:xlink="http://www.w3.org/1999/xlink">
    <title>形状</title>
    <g id="页面-1" stroke="none" stroke-width="1" fill="none" fill-rule="evenodd">
        <g id="画板" transform="translate(-1534.000000, -408.000000)" fill="#FFFFFF" fill-rule="nonzero">
            <path d="M1553.77962,438.057262 C1554.37315,438.057262 1554.8543,438.538414 1554.8543,439.131946 C1554.8543,439.725478 1554.37315,440.20663 1553.77962,440.20663 L1546.05003,440.20663 C1545.66608,440.20663 1545.3113,440.001797 1545.11932,439.669288 C1544.92735,439.33678 1544.92735,438.927112 1545.11932,438.594604 C1545.3113,438.262095 1545.66608,438.057262 1546.05003,438.057262 L1553.77962,438.057262 Z M1549.91482,408 C1550.81531,408.000556 1551.67211,408.388191 1552.26701,409.064188 C1552.86191,409.740185 1553.13751,410.639302 1553.02361,411.532559 C1557.68189,412.861328 1560.99138,416.989355 1561.27529,421.82512 L1561.29563,422.469252 L1561.29563,428.707168 C1561.29326,430.675439 1561.86208,432.60211 1562.93308,434.253489 C1563.12343,434.548548 1563.1571,434.918154 1563.0232,435.242751 C1562.8893,435.567347 1562.60484,435.805723 1562.26183,435.880771 L1562.0313,435.907897 L1537.80174,435.907897 C1537.40849,435.909028 1537.04623,435.694614 1536.85801,435.349324 C1536.6698,435.004035 1536.6859,434.583383 1536.89995,434.253489 C1537.83526,432.813337 1538.38937,431.15918 1538.51028,429.446226 L1538.53402,428.707168 L1538.53402,422.469252 C1538.54334,417.384537 1541.92155,412.921769 1546.81281,411.532559 C1546.69906,410.640473 1546.97378,409.742481 1547.56717,409.066727 C1548.16056,408.390973 1549.01552,408.002499 1549.91482,408 Z M1559.94295,412.227544 C1560.07771,411.993656 1560.29993,411.822934 1560.56064,411.752986 C1560.82135,411.683038 1561.09918,411.719603 1561.33292,411.854625 C1563.47767,413.093324 1565.04235,415.133452 1565.68262,417.52602 C1566.32288,419.918587 1565.98625,422.467517 1564.74682,424.611841 C1564.56514,424.926751 1564.22926,425.120932 1563.8657,425.120932 C1563.50214,425.120932 1563.16614,424.927199 1562.98426,424.612406 C1562.80238,424.297612 1562.80225,423.909699 1562.98393,423.594789 C1563.95276,421.91712 1564.21522,419.923226 1563.71355,418.05199 C1563.21189,416.180754 1561.98721,414.585554 1560.30909,413.617514 C1560.0752,413.482752 1559.90448,413.260538 1559.83453,412.999824 C1559.76458,412.73911 1559.80115,412.461283 1559.93617,412.227544 L1559.94295,412.227544 Z M1540.05959,412.227544 C1540.19461,412.461283 1540.23118,412.73911 1540.16123,412.999824 C1540.09128,413.260538 1539.92056,413.482752 1539.68667,413.617514 C1538.00913,414.586121 1536.78517,416.181572 1536.28415,418.052759 C1535.78313,419.923946 1536.04611,421.917531 1537.01522,423.594789 C1537.1969,423.909699 1537.19677,424.297612 1537.01489,424.612406 C1536.83301,424.927199 1536.49701,425.120932 1536.13345,425.120932 C1535.76989,425.120932 1535.43401,424.926751 1535.25233,424.611841 C1534.01318,422.467106 1533.67707,419.917867 1534.31798,417.525251 C1534.9589,415.132635 1536.5243,413.092757 1538.66962,411.854625 C1538.90336,411.719603 1539.18119,411.683038 1539.4419,411.752986 C1539.70262,411.822934 1539.92483,411.993656 1540.05959,412.227544 L1540.05959,412.227544 Z" id="形状"></path>
        </g>
    </g>
</svg>