<?xml version="1.0" encoding="UTF-8"?>
<svg width="32px" height="32px" viewBox="0 0 32 32" version="1.1" xmlns="http://www.w3.org/2000/svg" xmlns:xlink="http://www.w3.org/1999/xlink">
    <title>形状</title>
    <g id="页面-1" stroke="none" stroke-width="1" fill="none" fill-rule="evenodd">
        <g id="画板" transform="translate(-1533.000000, -498.000000)" fill="#FFFFFF" fill-rule="nonzero">
            <path d="M1561.80025,517.200101 L1557.80013,517.200101 L1553.80013,510.320045 C1554.76007,509.840113 1555.40016,508.720169 1555.40016,507.600148 L1555.40016,501.200101 C1555.40016,499.439911 1553.96002,498 1552.2001,498 L1545.80009,498 C1544.04018,498 1542.60019,499.439989 1542.60019,501.200101 L1542.60019,507.600109 C1542.60019,508.720131 1543.24016,509.680033 1544.20006,510.320006 L1540.20006,517.200101 L1536.2001,517.200101 C1534.43991,517.200101 1533,518.64009 1533,520.400163 L1533,526.800171 C1533,528.560089 1534.43999,530.000078 1536.2001,530.000078 L1542.60011,530.000078 C1544.35999,530.000078 1545.80002,528.560089 1545.80002,526.800171 L1545.80002,524.720092 L1552.20002,524.720092 L1552.20002,526.800171 C1552.20002,528.560089 1553.64001,530.000078 1555.40009,530.000078 L1561.80009,530.000078 C1563.56001,530.000078 1565,528.560089 1565,526.800171 L1565,520.400163 C1565,518.640051 1563.56001,517.200101 1561.80009,517.200101 L1561.80009,517.200101 L1561.80025,517.200101 Z M1545.80009,522.320201 L1545.80009,520.400124 C1545.80009,518.800093 1544.51999,517.360104 1542.92015,517.200062 L1546.60011,510.800054 L1551.2402,510.800054 L1554.92015,517.200062 C1553.32012,517.360065 1552.04025,518.640051 1552.04025,520.400124 L1552.04025,522.320201 L1545.80013,522.320201 L1545.80009,522.320201 Z" id="形状"></path>
        </g>
    </g>
</svg>