<?xml version="1.0" encoding="UTF-8"?>
<svg width="30px" height="30px" viewBox="0 0 30 30" version="1.1" xmlns="http://www.w3.org/2000/svg" xmlns:xlink="http://www.w3.org/1999/xlink">
    <title>形状</title>
    <g id="页面-1" stroke="none" stroke-width="1" fill="none" fill-rule="evenodd">
        <g id="画板" transform="translate(-1535.000000, -140.000000)" fill="#FFFFFF" fill-rule="nonzero">
            <path d="M1549.89354,159.670937 C1548.22976,158.316015 1546.31166,156.493269 1544.64958,154.43729 C1543.48358,152.996136 1542.45238,151.483688 1543.5172,150.418694 L1536.04344,142.967808 C1534.95418,144.325786 1532.54034,150.789422 1542.88632,161.372823 C1553.78576,172.525896 1560.81742,170.139929 1562.02757,168.882441 L1554.74124,161.606056 C1553.7226,162.622163 1552.41059,161.718768 1549.89354,159.670937 Z M1564.65769,164.654038 L1564.65769,164.647248 C1564.65769,164.647248 1558.97199,158.980405 1558.96859,158.97769 C1558.52084,158.533363 1557.79812,158.534425 1557.35167,158.980066 L1555.29097,161.042156 L1562.598,168.337892 C1562.598,168.337892 1564.66109,166.282932 1564.65905,166.280556 L1564.66448,166.276142 C1565.13645,165.803905 1565.08824,165.085535 1564.65905,164.654038 L1564.65769,164.654038 Z M1546.14393,147.799154 L1546.14393,147.793383 C1546.35993,147.579361 1546.48145,147.287913 1546.48145,146.983858 C1546.48145,146.679804 1546.35993,146.388355 1546.14393,146.174334 L1546.14393,146.166525 L1540.29151,140.335368 C1540.07706,140.120652 1539.78602,140 1539.48254,140 C1539.17905,140 1538.88801,140.120652 1538.67357,140.335368 L1536.61286,142.399155 L1544.0805,149.854793 C1544.0805,149.854793 1546.14393,147.802549 1546.14393,147.799154 Z" id="形状"></path>
        </g>
    </g>
</svg>