<?xml version="1.0" encoding="UTF-8"?>
<svg width="10px" height="12px" viewBox="0 0 10 12" version="1.1" xmlns="http://www.w3.org/2000/svg" xmlns:xlink="http://www.w3.org/1999/xlink">
    <title>路径备份 5</title>
    <g id="页面-1" stroke="none" stroke-width="1" fill="none" fill-rule="evenodd">
        <g id="应急管理" transform="translate(-1169.000000, -207.000000)" fill="#0BD295">
            <g id="突发事件分析" transform="translate(735.000000, 38.000000)">
                <g id="编组-17" transform="translate(0.000000, 91.000000)">
                    <g id="编组-37" transform="translate(336.000000, 8.000000)">
                        <path d="M107.755789,74.321071 L103.589544,70.2392614 C103.26393,69.9202462 102.73607,69.9202462 102.410456,70.2392614 L98.2442107,74.321071 C97.9185964,74.6400862 97.9185964,75.1572475 98.2442107,75.4762627 C98.5698251,75.7952779 99.0976843,75.7952779 99.4232986,75.4762627 L102.167762,72.7874202 L102.167762,80.6122095 C102.167762,81.0639826 102.539893,81.4285714 103.001011,81.4285714 C103.46213,81.4285714 103.83426,81.0639826 103.83426,80.6122095 L103.83426,72.7874202 L106.578724,75.4762627 C106.74052,75.6347796 106.954899,75.7160195 107.167257,75.7160195 C107.379614,75.7160195 107.593993,75.6367611 107.755789,75.4762627 C108.081404,75.1572475 108.081404,74.6400862 107.755789,74.321071 Z" id="路径备份-5"></path>
                    </g>
                </g>
            </g>
        </g>
    </g>
</svg>