<?xml version="1.0" encoding="UTF-8"?>
<svg width="10px" height="12px" viewBox="0 0 10 12" version="1.1" xmlns="http://www.w3.org/2000/svg" xmlns:xlink="http://www.w3.org/1999/xlink">
    <title>路径备份 6</title>
    <g id="页面-1" stroke="none" stroke-width="1" fill="none" fill-rule="evenodd">
        <g id="应急管理" transform="translate(-1311.000000, -207.000000)" fill="#F66E6E">
            <g id="突发事件分析" transform="translate(735.000000, 38.000000)">
                <g id="编组-17" transform="translate(0.000000, 91.000000)">
                    <g id="编组-37" transform="translate(336.000000, 8.000000)">
                        <path d="M249.755789,74.321071 L245.589544,70.2392614 C245.26393,69.9202462 244.73607,69.9202462 244.410456,70.2392614 L240.244211,74.321071 C239.918596,74.6400862 239.918596,75.1572475 240.244211,75.4762627 C240.569825,75.7952779 241.097684,75.7952779 241.423299,75.4762627 L244.167762,72.7874202 L244.167762,80.6122095 C244.167762,81.0639826 244.539893,81.4285714 245.001011,81.4285714 C245.46213,81.4285714 245.83426,81.0639826 245.83426,80.6122095 L245.83426,72.7874202 L248.578724,75.4762627 C248.74052,75.6347796 248.954899,75.7160195 249.167257,75.7160195 C249.379614,75.7160195 249.593993,75.6367611 249.755789,75.4762627 C250.081404,75.1572475 250.081404,74.6400862 249.755789,74.321071 Z" id="路径备份-6" transform="translate(245.000000, 75.714286) scale(1, -1) translate(-245.000000, -75.714286) "></path>
                    </g>
                </g>
            </g>
        </g>
    </g>
</svg>