<?xml version="1.0" encoding="UTF-8"?>
<svg width="229px" height="228px" viewBox="0 0 229 228" version="1.1" xmlns="http://www.w3.org/2000/svg" xmlns:xlink="http://www.w3.org/1999/xlink">
    <title>编组18</title>
    <defs>
        <linearGradient x1="53.5805904%" y1="100%" x2="41.7224586%" y2="0%" id="linearGradient-1">
            <stop stop-color="#00F1F3" offset="0%"></stop>
            <stop stop-color="#0076CC" offset="100%"></stop>
        </linearGradient>
        <linearGradient x1="34.6485231%" y1="0%" x2="56.6405408%" y2="100%" id="linearGradient-2">
            <stop stop-color="#00F1F3" offset="0%"></stop>
            <stop stop-color="#0076CC" offset="100%"></stop>
        </linearGradient>
        <linearGradient x1="0%" y1="51.704973%" x2="100%" y2="46.6670375%" id="linearGradient-3">
            <stop stop-color="#00F1F3" offset="0%"></stop>
            <stop stop-color="#0076CC" offset="100%"></stop>
        </linearGradient>
        <circle id="path-4" cx="117.365221" cy="108.9" r="69.3"></circle>
        <filter x="-6.5%" y="-6.5%" width="112.9%" height="112.9%" filterUnits="objectBoundingBox" id="filter-5">
            <feMorphology radius="3" operator="erode" in="SourceAlpha" result="shadowSpreadInner1"></feMorphology>
            <feGaussianBlur stdDeviation="7" in="shadowSpreadInner1" result="shadowBlurInner1"></feGaussianBlur>
            <feOffset dx="0" dy="0" in="shadowBlurInner1" result="shadowOffsetInner1"></feOffset>
            <feComposite in="shadowOffsetInner1" in2="SourceAlpha" operator="arithmetic" k2="-1" k3="1" result="shadowInnerInner1"></feComposite>
            <feColorMatrix values="0 0 0 0 0.312900152   0 0 0 0 0.827481424   0 0 0 0 1  0 0 0 0.370929851 0" type="matrix" in="shadowInnerInner1"></feColorMatrix>
        </filter>
        <circle id="path-6" cx="56.5214586" cy="56.8737494" r="56.28"></circle>
        <path d="M105.236967,43.1999971 L118.107563,56.6177896 L130.860306,43.3218075 C157.126448,48.6788606 177.662064,69.8056746 182.165527,96.3922456 L173.596077,108.497896 L181.846231,120.152529 C175.91939,150.167127 149.471897,172.8 117.742507,172.8 C86.2965992,172.8 60.0386278,150.569739 53.8025441,120.955232 L62.6190501,108.497896 L53.4652183,95.5643528 C58.2883133,69.1625116 78.9522591,48.2982597 105.236967,43.1999971 Z" id="path-8"></path>
        <filter x="-6.2%" y="-6.2%" width="112.4%" height="112.3%" filterUnits="objectBoundingBox" id="filter-9">
            <feGaussianBlur stdDeviation="7.5" in="SourceAlpha" result="shadowBlurInner1"></feGaussianBlur>
            <feOffset dx="0" dy="0" in="shadowBlurInner1" result="shadowOffsetInner1"></feOffset>
            <feComposite in="shadowOffsetInner1" in2="SourceAlpha" operator="arithmetic" k2="-1" k3="1" result="shadowInnerInner1"></feComposite>
            <feColorMatrix values="0 0 0 0 0.196078431   0 0 0 0 0.77254902   0 0 0 0 1  0 0 0 0.691564173 0" type="matrix" in="shadowInnerInner1"></feColorMatrix>
        </filter>
    </defs>
    <g id="页面-1" stroke="none" stroke-width="1" fill="none" fill-rule="evenodd">
        <g id="应急管理" transform="translate(-735.000000, -130.000000)">
            <g id="突发事件分析" transform="translate(735.000000, 38.000000)">
                <g id="编组18" transform="translate(0.000000, 91.000000)">
                    <g id="分组-4" transform="translate(11.165221, 2.700000)">
                        <path d="M207,104.065385 C207,125.455883 200.608191,145.342472 189.643685,161.892611 L184.3344,158.795216 C194.875515,143.115689 201.03148,124.208376 201.03148,103.854671 C201.03148,64.6894001 178.237956,30.879645 145.267625,15.1174938 L148.603453,10.1710486 C183.169232,27.0671315 207,62.7627244 207,104.065385 Z" id="合并形状" fill="url(#linearGradient-1)"></path>
                        <path d="M5.08926234e-13,3.53950316e-05 C54.4961938,3.51042549 97.6092066,48.7615229 97.6092066,104.068061 C97.6092066,132.034547 86.5854095,157.429903 68.6403478,176.157359 L63.2673169,172.85747 C80.7453413,155.124681 91.5342471,130.761258 91.5342471,103.873776 C91.5342471,52.0505355 51.4543786,9.60395477 0.649814465,5.9378284 Z" id="合并形状" fill="url(#linearGradient-2)" transform="translate(48.804603, 88.078697) scale(-1, 1) translate(-48.804603, -88.078697) "></path>
                        <path d="M175.540698,172.767066 L179.231842,178.803293 C160.144965,199.472088 132.915734,212.4 102.690631,212.4 C84.3674785,212.4 67.1453284,207.648911 52.1707688,199.302355 L55.3679308,193.531498 C69.3465065,201.250171 85.3989097,205.639952 102.470531,205.639952 C131.504587,205.639952 157.590604,192.94273 175.540698,172.767066 Z" id="合并形状" fill="url(#linearGradient-3)"></path>
                    </g>
                    <path d="M84.0044434,179.039173 L83.7269894,179.606711 C82.5505644,182.006978 81.4456772,184.281771 80.4123278,186.431091 C62.4063436,178.136958 47.8090692,163.694706 39.3040879,145.79014 L46.9479715,141.924913 C54.5224651,158.254489 67.6983294,171.450684 84.0044434,179.039173 Z M185.52552,141.209652 C187.958777,142.576648 190.300928,143.793711 192.551972,144.860841 C184.221993,162.959652 169.702037,177.614516 151.708802,186.10323 L149.008576,178.63048 C164.992194,170.945364 177.883858,157.840282 185.307685,141.694193 Z M192.351069,73.6419727 L185.021582,77.3538688 C177.375375,61.1079771 164.170707,48.0016347 147.863113,40.4935577 C149.702316,38.0593493 151.381837,35.6968791 152.901813,33.4064992 C170.202299,41.9018569 184.177959,56.1416121 192.351069,73.6419727 Z M80.337534,32.5376247 L83.9203265,40.6630922 C67.8933822,48.1455618 54.8985345,61.0484157 47.286802,77.0175895 C44.4972661,75.6151004 41.8379383,74.3204431 39.3092995,73.1336973 C47.8026621,55.2579676 62.3690942,40.8348187 80.337534,32.5376247 Z" id="合并形状" stroke="#02AFE9" stroke-width="0.9" transform="translate(115.928030, 109.484358) rotate(-45.000000) translate(-115.928030, -109.484358) "></path>
                    <g id="椭圆形-copy-4">
                        <use fill="black" fill-opacity="1" filter="url(#filter-5)" xlink:href="#path-4"></use>
                        <use stroke="#02AFE9" stroke-width="0.9" xlink:href="#path-4"></use>
                    </g>
                    <g id="666" transform="translate(61.565221, 53.100000)">
                        <mask id="mask-7" fill="white">
                            <use xlink:href="#path-6"></use>
                        </mask>
                        <g id="Mask"></g>
                    </g>
                    <g id="合并形状">
                        <use fill="black" fill-opacity="1" filter="url(#filter-9)" xlink:href="#path-8"></use>
                        <use stroke="#02AFE9" stroke-width="0.9" xlink:href="#path-8"></use>
                    </g>
                    <circle id="椭圆形-copy-3" stroke="#00EEE6" stroke-width="0.9" cx="115.565221" cy="108.5" r="86"></circle>
                    <circle id="椭圆形" stroke="#02AFE9" stroke-width="0.9" cx="115.115221" cy="108.45" r="89.55"></circle>
                    <path d="M157.690038,244.590094 L152.474682,245.156204 C146.727462,222.240507 132.720672,202.023833 113.227907,188.416001 L116.884062,184.698642 C137.178154,199.198428 151.730059,220.501298 157.690038,244.590094 Z" id="合并形状" fill-opacity="0.31717111" fill="#05A3DD" transform="translate(135.458972, 214.927286) rotate(113.000000) translate(-135.458972, -214.927286) "></path>
                    <path d="M60.0043085,10.0601981 L62.9489772,14.4043303 C28.3196742,31.0310879 5.86629085,66.595018 7.05313899,105.518759 L1.74978314,106.826334 C0.272462634,65.6883303 23.6841798,28.0066471 60.0043085,10.0601981 Z" id="合并形状" fill-opacity="0.31717111" fill="#05A3DD" transform="translate(32.316339, 58.443266) rotate(-1.000000) translate(-32.316339, -58.443266) "></path>
                    <path d="M167.549708,104.926276 C191.048302,81.047851 225.367886,69.6175793 259.382668,75.2777171 L258.394144,80.415043 C226.205784,74.9432957 193.689966,85.7372287 171.475156,108.362096 Z" id="合并形状" fill-opacity="0.31717111" fill="#05A3DD" transform="translate(213.466188, 91.106031) rotate(-261.000000) translate(-213.466188, -91.106031) "></path>
                    <path d="M154.109241,180.552157 L155.756607,183.553563 L155.112588,183.9 L153.465221,180.898594 L154.109241,180.552157 Z M154.935733,174.302825 L159.028398,182.058078 L158.378761,182.394079 L154.286096,174.638826 L154.935733,174.302825 Z M159.816773,176.334771 L162.206159,179.632223 L161.610599,180.055178 L159.221213,176.757725 L159.816773,176.334771 Z M159.795095,171.232959 L165.105525,177.2564 L164.55332,177.733539 L159.242891,171.710098 L159.795095,171.232959 Z M165.983367,173.032096 L167.526609,174.91785 L166.957106,175.374627 L165.413865,173.488873 L165.983367,173.032096 Z M165.985873,167.163338 L170.684742,173.035191 L170.11023,173.485777 L165.41136,167.613924 L165.985873,167.163338 Z M170.672361,167.148676 L173.287406,170.084603 L172.737656,170.564512 L170.122611,167.628586 L170.672361,167.148676 Z M170.666336,162.645748 L176.247197,168.61004 L175.709498,169.103148 L170.128636,163.138856 L170.666336,162.645748 Z M176.229089,162.627707 L178.690483,164.913754 L178.189001,165.442944 L175.727606,163.156897 L176.229089,162.627707 Z M175.293908,157.713617 L181.076833,162.616742 L180.60006,163.167862 L174.817135,158.264737 L175.293908,157.713617 Z M181.070442,157.708321 L183.323138,159.532042 L182.859148,160.093753 L180.606452,158.270032 L181.070442,157.708321 Z M178.653345,152.175948 L185.449765,157.002154 L185.022561,157.591772 L178.22614,152.765566 L178.653345,152.175948 Z M185.481265,152.201033 L187.430171,153.936745 L186.939967,154.476193 L184.991061,152.740481 L185.481265,152.201033 Z M183.280731,146.931309 L189.416632,150.603327 L189.037458,151.2243 L182.901556,147.552283 L183.280731,146.931309 Z M188.025356,146.1 L191.265221,147.668896 L190.943165,148.320711 L187.7033,146.751815 L188.025356,146.1 Z" id="合并形状" fill="#02AFE9" fill-rule="nonzero"></path>
                    <path d="M40.409241,180.352157 L42.0566074,183.353563 L41.4125879,183.7 L39.7652215,180.698594 L40.409241,180.352157 Z M41.2357328,174.102825 L45.3283981,181.858078 L44.6787614,182.194079 L40.5860961,174.438826 L41.2357328,174.102825 Z M46.1167732,176.134771 L48.5061593,179.432223 L47.9105987,179.855178 L45.5212126,176.557725 L46.1167732,176.134771 Z M46.0950952,171.032959 L51.405525,177.0564 L50.8533204,177.533539 L45.5428907,171.510098 L46.0950952,171.032959 Z M52.2833675,172.832096 L53.8266087,174.71785 L53.2571064,175.174627 L51.7138652,173.288873 L52.2833675,172.832096 Z M52.2858726,166.963338 L56.9847425,172.835191 L56.41023,173.285777 L51.7113601,167.413924 L52.2858726,166.963338 Z M56.9723611,166.948676 L59.5874061,169.884603 L59.0376563,170.364512 L56.4226113,167.428586 L56.9723611,166.948676 Z M56.9663361,162.445748 L62.5471973,168.41004 L62.0094975,168.903148 L56.4286363,162.938856 L56.9663361,162.445748 Z M62.5290885,162.427707 L64.9904834,164.713754 L64.4890011,165.242944 L62.0276063,162.956897 L62.5290885,162.427707 Z M61.5939075,157.513617 L67.3768332,162.416742 L66.9000605,162.967862 L61.1171348,158.064737 L61.5939075,157.513617 Z M67.3704417,157.508321 L69.6231382,159.332042 L69.1591484,159.893753 L66.9064519,158.070032 L67.3704417,157.508321 Z M64.9533445,151.975948 L71.7497653,156.802154 L71.3225608,157.391772 L64.5261399,152.565566 L64.9533445,151.975948 Z M71.7812648,152.001033 L73.7301709,153.736745 L73.2399674,154.276193 L71.2910613,152.540481 L71.7812648,152.001033 Z M69.5807305,146.731309 L75.7166325,150.403327 L75.337458,151.0243 L69.2015561,147.352283 L69.5807305,146.731309 Z M74.3253561,145.9 L77.5652215,147.468896 L77.2431654,148.120711 L74.0033,146.551815 L74.3253561,145.9 Z" id="合并形状-copy-2" fill="#02AFE9" fill-rule="nonzero" transform="translate(58.665221, 164.800000) rotate(90.000000) translate(-58.665221, -164.800000) "></path>
                    <path d="M153.109241,66.852157 L154.756607,69.8535627 L154.112588,70.2 L152.465221,67.1985943 L153.109241,66.852157 Z M153.935733,60.6028252 L158.028398,68.3580779 L157.378761,68.6940792 L153.286096,60.9388265 L153.935733,60.6028252 Z M158.816773,62.6347708 L161.206159,65.9322228 L160.610599,66.3551776 L158.221213,63.0577255 L158.816773,62.6347708 Z M158.795095,57.5329591 L164.105525,63.5563995 L163.55332,64.0335388 L158.242891,58.0100984 L158.795095,57.5329591 Z M164.983367,59.3320956 L166.526609,61.2178495 L165.957106,61.6746267 L164.413865,59.7888727 L164.983367,59.3320956 Z M164.985873,53.463338 L169.684742,59.3351911 L169.11023,59.7857772 L164.41136,53.9139241 L164.985873,53.463338 Z M169.672361,53.4486764 L172.287406,56.3846029 L171.737656,56.8645122 L169.122611,53.9285857 L169.672361,53.4486764 Z M169.666336,48.9457481 L175.247197,54.9100402 L174.709498,55.4031484 L169.128636,49.4388564 L169.666336,48.9457481 Z M175.229089,48.9277071 L177.690483,51.2137536 L177.189001,51.7429439 L174.727606,49.4568974 L175.229089,48.9277071 Z M174.293908,44.0136168 L180.076833,48.9167423 L179.60006,49.4678622 L173.817135,44.5647367 L174.293908,44.0136168 Z M180.070442,44.0083213 L182.323138,45.8320421 L181.859148,46.393753 L179.606452,44.5700322 L180.070442,44.0083213 Z M177.653345,38.4759483 L184.449765,43.3021544 L184.022561,43.891772 L177.22614,39.0655659 L177.653345,38.4759483 Z M184.481265,38.5010329 L186.430171,40.2367445 L185.939967,40.7761929 L183.991061,39.0404813 L184.481265,38.5010329 Z M182.280731,33.2313093 L188.416632,36.9033268 L188.037458,37.5243 L181.901556,33.8522825 L182.280731,33.2313093 Z M187.025356,32.4 L190.265221,33.9688962 L189.943165,34.6207113 L186.7033,33.051815 L187.025356,32.4 Z" id="合并形状" fill="#02AFE9" fill-rule="nonzero" transform="translate(171.365221, 51.300000) scale(1, -1) translate(-171.365221, -51.300000) "></path>
                    <path d="M39.709241,67.752157 L41.3566074,70.7535627 L40.7125879,71.1 L39.0652215,68.0985943 L39.709241,67.752157 Z M40.5357328,61.5028252 L44.6283981,69.2580779 L43.9787614,69.5940792 L39.8860961,61.8388265 L40.5357328,61.5028252 Z M45.4167732,63.5347708 L47.8061593,66.8322228 L47.2105987,67.2551776 L44.8212126,63.9577255 L45.4167732,63.5347708 Z M45.3950952,58.4329591 L50.705525,64.4563995 L50.1533204,64.9335388 L44.8428907,58.9100984 L45.3950952,58.4329591 Z M51.5833675,60.2320956 L53.1266087,62.1178495 L52.5571064,62.5746267 L51.0138652,60.6888727 L51.5833675,60.2320956 Z M51.5858726,54.363338 L56.2847425,60.2351911 L55.71023,60.6857772 L51.0113601,54.8139241 L51.5858726,54.363338 Z M56.2723611,54.3486764 L58.8874061,57.2846029 L58.3376563,57.7645122 L55.7226113,54.8285857 L56.2723611,54.3486764 Z M56.2663361,49.8457481 L61.8471973,55.8100402 L61.3094975,56.3031484 L55.7286363,50.3388564 L56.2663361,49.8457481 Z M61.8290885,49.8277071 L64.2904834,52.1137536 L63.7890011,52.6429439 L61.3276063,50.3568974 L61.8290885,49.8277071 Z M60.8939075,44.9136168 L66.6768332,49.8167423 L66.2000605,50.3678622 L60.4171348,45.4647367 L60.8939075,44.9136168 Z M66.6704417,44.9083213 L68.9231382,46.7320421 L68.4591484,47.293753 L66.2064519,45.4700322 L66.6704417,44.9083213 Z M64.2533445,39.3759483 L71.0497653,44.2021544 L70.6225608,44.791772 L63.8261399,39.9655659 L64.2533445,39.3759483 Z M71.0812648,39.4010329 L73.0301709,41.1367445 L72.5399674,41.6761929 L70.5910613,39.9404813 L71.0812648,39.4010329 Z M68.8807305,34.1313093 L75.0166325,37.8033268 L74.637458,38.4243 L68.5015561,34.7522825 L68.8807305,34.1313093 Z M73.6253561,33.3 L76.8652215,34.8688962 L76.5431654,35.5207113 L73.3033,33.951815 L73.6253561,33.3 Z" id="合并形状-copy-2" fill="#02AFE9" fill-rule="nonzero" transform="translate(57.965221, 52.200000) scale(1, -1) rotate(90.000000) translate(-57.965221, -52.200000) "></path>
                </g>
            </g>
        </g>
    </g>
</svg>