<?xml version="1.0" encoding="UTF-8"?>
<svg width="40px" height="40px" viewBox="0 0 40 40" version="1.1" xmlns="http://www.w3.org/2000/svg" xmlns:xlink="http://www.w3.org/1999/xlink">
    <title>应急物资备份 4</title>
    <defs>
        <ellipse id="path-1" cx="20" cy="33" rx="20" ry="7"></ellipse>
        <filter x="-7.5%" y="-21.4%" width="115.0%" height="142.9%" filterUnits="objectBoundingBox" id="filter-2">
            <feGaussianBlur stdDeviation="3" in="SourceAlpha" result="shadowBlurInner1"></feGaussianBlur>
            <feOffset dx="0" dy="0" in="shadowBlurInner1" result="shadowOffsetInner1"></feOffset>
            <feComposite in="shadowOffsetInner1" in2="SourceAlpha" operator="arithmetic" k2="-1" k3="1" result="shadowInnerInner1"></feComposite>
            <feColorMatrix values="0 0 0 0 0.850980392   0 0 0 0 0.0470588235   0 0 0 0 0.0470588235  0 0 0 1 0" type="matrix" in="shadowInnerInner1"></feColorMatrix>
        </filter>
        <filter x="0.0%" y="0.0%" width="100.0%" height="100.0%" filterUnits="objectBoundingBox" id="filter-3">
            <feGaussianBlur stdDeviation="0" in="SourceGraphic"></feGaussianBlur>
        </filter>
    </defs>
    <g id="页面-1" stroke="none" stroke-width="1" fill="none" fill-rule="evenodd">
        <g id="落点切图" transform="translate(-624.000000, -197.000000)">
            <g id="应急物资备份-4" transform="translate(624.000000, 197.000000)">
                <g id="椭圆形备份-133" fill="black" fill-opacity="1">
                    <use filter="url(#filter-2)" xlink:href="#path-1"></use>
                </g>
                <ellipse id="椭圆形备份-134" fill="#D90C0C" opacity="0.703760901" filter="url(#filter-3)" cx="20" cy="33" rx="10" ry="3.5"></ellipse>
                <path d="M20,0.5 C23.7279221,0.5 27.1029221,2.01103897 29.5459415,4.45405845 C31.988961,6.89707794 33.5,10.2720779 33.5,14 C33.5,18.3257105 31.4654458,22.1761668 28.3012384,24.6468968 L28.3012384,24.6468968 L20.000092,32.895055 L11.7196612,24.6631831 C8.54351615,22.1931056 6.5,18.3352269 6.5,14 C6.5,10.2720779 8.01103897,6.89707794 10.4540585,4.45405845 C12.8970779,2.01103897 16.2720779,0.5 20,0.5 Z" id="形状结合" stroke="#FFFFFF" fill="#D90C0C" fill-rule="nonzero"></path>
                <path d="M20.0071431,23.4360719 L20.0071431,14.613377 C20.0060663,14.382728 20.1453179,14.1746102 20.3588397,14.0878722 L28.2485032,10.9685916 C28.4200106,10.9030642 28.6128117,10.9268453 28.7632947,11.0320887 C28.9137777,11.1373321 29.0023916,11.3103644 28.9999509,11.4940964 L28.9999509,19.6032618 C29.0011983,19.8207 28.8775174,20.0195246 28.6820012,20.1143032 L20.7971543,23.9471132 C20.6240442,24.0287551 20.4210941,24.015178 20.2603782,23.9112036 C20.0996624,23.8072293 20.0039474,23.6275863 20.0071431,23.4360719 L20.0071431,23.4360719 Z M12.2138941,9.13655658 L19.7663925,6.04138165 C19.8989679,5.98620612 20.0480485,5.98620612 20.1806239,6.04138165 L27.6656892,9.08352399 C27.8810907,9.17010855 28.0222441,9.37910024 28.0222441,9.61143934 C28.0222441,9.84377844 27.8810907,10.0527701 27.6656892,10.1393547 L19.3136279,13.2345296 C19.1808459,13.2886592 19.0321785,13.2886592 18.8993965,13.2345296 L12.1946275,10.1779239 C11.9899849,10.0832915 11.8605591,9.8765454 11.8646349,9.65094679 C11.8689068,9.42534818 12.0058913,9.22354018 12.2138941,9.13655658 Z M18.282866,23.8651538 L11.2842818,19.8973517 C11.111653,19.7976376 11.0038206,19.6147001 11.0000997,19.4152372 L11.0000997,11.5278444 C10.9965419,11.3399072 11.0883605,11.1629651 11.2440145,11.0578005 C11.3996686,10.9526359 11.5979562,10.9335732 11.7707628,11.0071607 L18.7693471,14.0782299 C18.9755773,14.168772 19.1081557,14.3735126 19.1065122,14.5989136 L19.1065122,23.3589336 C19.1145441,23.559429 19.0137197,23.7486217 18.8428856,23.8536178 C18.6720515,23.9586139 18.4578712,23.9630259 18.282866,23.8651538 Z M12.7533231,15.2594104 C12.7540233,15.4559646 12.8560085,15.6382512 13.0230904,15.7415249 L16.1779924,17.6699828 C16.3500978,17.7729635 16.5643682,17.7748061 16.7382159,17.6748003 C16.9120636,17.5747945 17.0183424,17.3885561 17.0161237,17.1878683 C17.0163575,16.9910697 16.9141346,16.8083582 16.7463564,16.7057538 L13.5914544,14.7772959 C13.419349,14.6743152 13.2050786,14.6724726 13.0312309,14.7724784 C12.8573832,14.8724842 12.7511044,15.0587226 12.7533231,15.2594104 Z" id="形状备份-18" fill="#FFFFFF" fill-rule="nonzero"></path>
            </g>
        </g>
    </g>
</svg>