<?xml version="1.0" encoding="UTF-8"?>
<svg width="40px" height="40px" viewBox="0 0 40 40" version="1.1" xmlns="http://www.w3.org/2000/svg" xmlns:xlink="http://www.w3.org/1999/xlink">
    <title>监控备份 4</title>
    <defs>
        <ellipse id="path-1" cx="20" cy="33" rx="20" ry="7"></ellipse>
        <filter x="-7.5%" y="-21.4%" width="115.0%" height="142.9%" filterUnits="objectBoundingBox" id="filter-2">
            <feGaussianBlur stdDeviation="3" in="SourceAlpha" result="shadowBlurInner1"></feGaussianBlur>
            <feOffset dx="0" dy="0" in="shadowBlurInner1" result="shadowOffsetInner1"></feOffset>
            <feComposite in="shadowOffsetInner1" in2="SourceAlpha" operator="arithmetic" k2="-1" k3="1" result="shadowInnerInner1"></feComposite>
            <feColorMatrix values="0 0 0 0 0.850980392   0 0 0 0 0.0470588235   0 0 0 0 0.0470588235  0 0 0 1 0" type="matrix" in="shadowInnerInner1"></feColorMatrix>
        </filter>
        <filter x="0.0%" y="0.0%" width="100.0%" height="100.0%" filterUnits="objectBoundingBox" id="filter-3">
            <feGaussianBlur stdDeviation="0" in="SourceGraphic"></feGaussianBlur>
        </filter>
    </defs>
    <g id="页面-1" stroke="none" stroke-width="1" fill="none" fill-rule="evenodd">
        <g id="落点切图" transform="translate(-269.000000, -197.000000)">
            <g id="监控备份-4" transform="translate(269.000000, 197.000000)">
                <g id="椭圆形备份-109" fill="black" fill-opacity="1">
                    <use filter="url(#filter-2)" xlink:href="#path-1"></use>
                </g>
                <ellipse id="椭圆形备份-110" fill="#D90C0C" opacity="0.703760901" filter="url(#filter-3)" cx="20" cy="33" rx="10" ry="3.5"></ellipse>
                <path d="M20,0.5 C23.7279221,0.5 27.1029221,2.01103897 29.5459415,4.45405845 C31.988961,6.89707794 33.5,10.2720779 33.5,14 C33.5,18.3257105 31.4654458,22.1761668 28.3012384,24.6468968 L28.3012384,24.6468968 L20.000092,32.895055 L11.7196612,24.6631831 C8.54351615,22.1931056 6.5,18.3352269 6.5,14 C6.5,10.2720779 8.01103897,6.89707794 10.4540585,4.45405845 C12.8970779,2.01103897 16.2720779,0.5 20,0.5 Z" id="形状结合" stroke="#FFFFFF" fill="#D90C0C" fill-rule="nonzero"></path>
                <path d="M16.6567127,14.5474053 L16.6600904,14.5417407 L14.0969844,11.7836198 C13.7141387,11.3715711 13.6908603,10.7388867 14.0423783,10.2994799 L14.6441706,9.54721365 L24.7766865,19.9531864 L23.5944939,20.6799617 C23.2365523,20.9002723 22.7865581,20.9020189 22.4269381,20.6844935 L16.6567127,14.5474053 L16.6567127,14.5474053 Z M16.3606016,15.0526927 L17.9914643,16.7872102 L16.9426907,18.5738427 C16.7835579,18.845873 16.51861,19.0385338 16.2119831,19.1051874 C16.1320444,19.1238808 16.0487279,19.1335107 15.9631597,19.1335107 L14.2517953,19.1335107 L14.2517953,20.8668954 C14.2518569,21.271694 14.0372755,21.6457699 13.6888962,21.8481871 C13.340517,22.0506043 12.9112783,22.0506043 12.5628991,21.8481871 C12.2145198,21.6457699 11.9999384,21.271694 12,20.8668954 L12,16.3351707 C11.9999384,15.9303721 12.2145198,15.5562962 12.5628991,15.353879 C12.9112783,15.1514618 13.340517,15.1514618 13.6888962,15.353879 C14.0372755,15.5562962 14.2518569,15.9303721 14.2517953,16.3351707 L14.2517953,16.8954052 L15.2791769,16.8954052 L16.3600387,15.0526927 L16.3606016,15.0526927 Z M15.3512343,8.66296088 L17.9419248,5.42277774 C18.1414215,5.17325245 18.4365494,5.02034329 18.754283,5.00188554 C19.0720166,4.98342779 19.3826711,5.10114589 19.6093792,5.32591212 L29.6642081,15.2974058 C29.9110667,15.5420944 30.0322033,15.8875336 29.9926224,16.2339281 C29.9530415,16.5803226 29.7571525,16.8890827 29.4615465,17.0710095 L25.7573433,19.3493341 L15.3512343,8.66296088 L15.3512343,8.66296088 Z" id="形状备份-3" fill="#FFFFFF" fill-rule="nonzero"></path>
            </g>
        </g>
    </g>
</svg>