<?xml version="1.0" encoding="UTF-8"?>
<svg width="40px" height="40px" viewBox="0 0 40 40" version="1.1" xmlns="http://www.w3.org/2000/svg" xmlns:xlink="http://www.w3.org/1999/xlink">
    <title>防护目标备份 4</title>
    <defs>
        <ellipse id="path-1" cx="20" cy="33" rx="20" ry="7"></ellipse>
        <filter x="-7.5%" y="-21.4%" width="115.0%" height="142.9%" filterUnits="objectBoundingBox" id="filter-2">
            <feGaussianBlur stdDeviation="3" in="SourceAlpha" result="shadowBlurInner1"></feGaussianBlur>
            <feOffset dx="0" dy="0" in="shadowBlurInner1" result="shadowOffsetInner1"></feOffset>
            <feComposite in="shadowOffsetInner1" in2="SourceAlpha" operator="arithmetic" k2="-1" k3="1" result="shadowInnerInner1"></feComposite>
            <feColorMatrix values="0 0 0 0 0.850980392   0 0 0 0 0.0470588235   0 0 0 0 0.0470588235  0 0 0 1 0" type="matrix" in="shadowInnerInner1"></feColorMatrix>
        </filter>
        <filter x="0.0%" y="0.0%" width="100.0%" height="100.0%" filterUnits="objectBoundingBox" id="filter-3">
            <feGaussianBlur stdDeviation="0" in="SourceGraphic"></feGaussianBlur>
        </filter>
    </defs>
    <g id="页面-1" stroke="none" stroke-width="1" fill="none" fill-rule="evenodd">
        <g id="落点切图" transform="translate(-837.000000, -197.000000)">
            <g id="防护目标备份-4" transform="translate(837.000000, 197.000000)">
                <g id="椭圆形备份-123" fill="black" fill-opacity="1">
                    <use filter="url(#filter-2)" xlink:href="#path-1"></use>
                </g>
                <ellipse id="椭圆形备份-124" fill="#D90C0C" opacity="0.703760901" filter="url(#filter-3)" cx="20" cy="33" rx="10" ry="3.5"></ellipse>
                <path d="M20,0.5 C23.7279221,0.5 27.1029221,2.01103897 29.5459415,4.45405845 C31.988961,6.89707794 33.5,10.2720779 33.5,14 C33.5,18.3257105 31.4654458,22.1761668 28.3012384,24.6468968 L28.3012384,24.6468968 L20.000092,32.895055 L11.7196612,24.6631831 C8.54351615,22.1931056 6.5,18.3352269 6.5,14 C6.5,10.2720779 8.01103897,6.89707794 10.4540585,4.45405845 C12.8970779,2.01103897 16.2720779,0.5 20,0.5 Z" id="形状结合" stroke="#FFFFFF" fill="#D90C0C" fill-rule="nonzero"></path>
                <path d="M20.0010916,24 C17.2001637,24 12,19.978 12,16.176 L12,8.61599999 L12.7924683,8.593 C12.8164825,8.593 14.5891663,8.549 16.4317096,7.86799999 C18.3200982,7.143 19.5339064,6.32999999 19.5339064,6.32999999 L20,6 L20.4660936,6.32999999 C20.4660936,6.32999999 21.7028244,7.16499999 23.5682904,7.86799999 C24.7268024,8.2996925 25.957954,8.54495925 27.2075317,8.593 L28,8.61499999 L28,16.175 C28,19.978 22.7987447,24 20,24 L20.0010916,24 Z M19.556829,19.033 L24.7580843,13.385 L23.5453677,12.395 L19.3941875,16.879 L17.2012553,15.143 L16.1511803,16.308 L19.556829,19.033 Z" id="形状备份-9" fill="#FFFFFF" fill-rule="nonzero"></path>
            </g>
        </g>
    </g>
</svg>