<?xml version="1.0" encoding="UTF-8"?>
<svg width="16px" height="13px" viewBox="0 0 16 13" version="1.1" xmlns="http://www.w3.org/2000/svg" xmlns:xlink="http://www.w3.org/1999/xlink">
    <title>Group 4备份 6</title>
    <g id="页面-1" stroke="none" stroke-width="1" fill="none" fill-rule="evenodd">
        <g id="通讯录-修改" transform="translate(-686.000000, -547.000000)" fill-rule="nonzero">
            <g id="弹窗" transform="translate(551.000000, 143.000000)">
                <g id="menu" transform="translate(90.000000, 257.000000)">
                    <g id="Group-4备份-6" transform="translate(45.000000, 147.000000)">
                        <path d="M0.004554245,4.31067397 L15.9772183,4.31067397 L15.9772183,11.7004008 C15.9772183,12.3777924 15.4525687,12.9320219 14.8113304,12.9320219 L1.17044214,12.9320219 C0.529203807,12.9320219 0.00455425866,12.3777924 0.004554245,11.7004008 L0.004554245,4.31067397 L0.004554245,4.31067397 Z" id="Shape" fill="#FFCE17"></path>
                        <path d="M0.004554245,0.615810571 C0.004554245,0.246324231 0.237731827,0 0.587498193,0 L0.587498193,0 L2.91927397,0 C3.5605123,0 4.551517,0.307905278 5.07616655,0.677391618 L5.07616655,0.677391618 L7.32355424,2.155 L15.3942743,2.15533698 C15.7440407,2.15533698 15.9772183,2.46324225 15.9772183,2.77114755 L15.9772183,3.75644446 L0.004554245,3.75644446 Z" id="Combined-Shape" fill="#FFB927"></path>
                    </g>
                </g>
            </g>
        </g>
    </g>
</svg>