<?xml version="1.0" encoding="UTF-8"?>
<svg width="100px" height="100px" viewBox="0 0 100 100" version="1.1" xmlns="http://www.w3.org/2000/svg" xmlns:xlink="http://www.w3.org/1999/xlink">
    <title>编组</title>
    <defs>
        <filter id="filter-1">
            <feColorMatrix in="SourceGraphic" type="matrix" values="0 0 0 0 0.784314 0 0 0 0 0.788235 0 0 0 0 0.800000 0 0 0 1.000000 0"></feColorMatrix>
        </filter>
    </defs>
    <g id="新增任务" stroke="none" stroke-width="1" fill="none" fill-rule="evenodd">
        <g id="编组" transform="translate(-325.000000, -467.000000)" filter="url(#filter-1)">
            <g transform="translate(327.000000, 469.000000)">
                <path d="M92.1465151,29.124894 C94.6268262,34.9185098 96,41.2988906 96,48 C96,74.5097143 74.5097143,96 48,96 C39.0685714,96 30.7337143,93.5177143 23.5748571,89.2662857 L3.77485714,94.92 C2.12914286,95.3897143 0.606857143,93.8708571 1.08,92.2251429 L6.73371429,72.4285714 C2.48571429,65.2662857 0,56.9314286 0,48 C0,21.4902857 21.4937143,0 48,0 C55.1429734,0 61.9215267,1.56023551 68.0134507,4.35849718" id="路径" stroke="#1890FF" stroke-width="3.86194286" fill-rule="nonzero"></path>
                <path d="M19.144308,47.3436384 C19.144308,50.6794136 21.8484882,53.3835937 25.1842634,53.3835937 C28.5200386,53.3835937 31.2242187,50.6794136 31.2242187,47.3436384 C31.2242187,44.0078632 28.5200386,41.303683 25.1842634,41.303683 C21.8484882,41.303683 19.144308,44.0078632 19.144308,47.3436384 L19.144308,47.3436384 Z" id="路径" fill="#6D35C1" fill-rule="nonzero"></path>
                <path d="M42.3811384,47.3436384 C42.3811384,50.6794136 45.0853185,53.3835937 48.4210937,53.3835937 C51.756869,53.3835937 54.4610491,50.6794136 54.4610491,47.3436384 C54.4610491,45.1857701 53.3098402,43.1918176 51.4410715,42.1128834 C49.5723028,41.0339492 47.2698847,41.0339492 45.401116,42.1128834 C43.5323473,43.1918176 42.3811384,45.1857701 42.3811384,47.3436384 L42.3811384,47.3436384 Z" id="路径" fill="#6D35C1" fill-rule="nonzero"></path>
                <path d="M65.6179687,47.3436384 C65.6179687,50.6794136 68.3221489,53.3835937 71.6579241,53.3835937 C74.9936993,53.3835937 77.6978795,50.6794136 77.6978795,47.3436384 C77.6978795,44.0078632 74.9936993,41.303683 71.6579241,41.303683 C68.3221489,41.303683 65.6179687,44.0078632 65.6179687,47.3436384 L65.6179687,47.3436384 Z" id="路径" fill="#6D35C1" fill-rule="nonzero"></path>
                <path d="M70.7225446,15.3760045 C70.7225446,19.1686419 72.7458925,22.6731835 76.0304129,24.5695023 C79.3149332,26.4658211 83.3616293,26.4658211 86.6461496,24.5695023 C89.93067,22.6731835 91.9540179,19.1686419 91.9540179,15.3760045 C91.9540179,9.51309503 87.2011907,4.76026786 81.3382813,4.76026786 C75.4753718,4.76026786 70.7225446,9.51309503 70.7225446,15.3760045 L70.7225446,15.3760045 Z" id="路径" fill="#6D35C1" fill-rule="nonzero"></path>
            </g>
        </g>
    </g>
</svg>