<?xml version="1.0" encoding="UTF-8"?>
<svg width="14px" height="14px" viewBox="0 0 14 14" version="1.1" xmlns="http://www.w3.org/2000/svg" xmlns:xlink="http://www.w3.org/1999/xlink">
    <title>形状结合备份 16</title>
    <g id="PC端" stroke="none" stroke-width="1" fill="none" fill-rule="evenodd">
        <g id="分享记录" transform="translate(-834.000000, -381.000000)" fill="#9FC8FE" fill-rule="nonzero">
            <g id="win-copy-2备份-11" transform="translate(393.000000, 186.000000)">
                <g id="穿梭组备份" transform="translate(15.000000, 50.000000)">
                    <g id="编组-3" transform="translate(21.000000, 38.000000)">
                        <path d="M414.712917,110.448923 C415.175356,110.448923 415.550237,110.823805 415.550237,111.286244 L415.550237,111.286244 L415.550237,120.16184 C415.550237,120.62428 415.175356,120.999161 414.712917,120.999161 L414.712917,120.999161 L405.83732,120.999161 C405.374881,120.999161 405,120.62428 405,120.16184 L405,120.16184 L405,111.286244 C405,110.823805 405.374881,110.448923 405.83732,110.448923 L405.83732,110.448923 Z M408.485395,114.88364 C408.341152,114.846152 408.187913,114.88954 408.084728,114.997084 L408.084728,114.997084 L407.214944,115.86694 C406.43767,116.675133 406.450009,117.956766 407.2427,118.749841 C408.035391,119.542916 409.316914,119.555772 410.125353,118.77876 L410.125353,118.77876 L410.996895,117.90949 C411.157664,117.748545 411.157533,117.487733 410.996602,117.32695 C410.83567,117.166167 410.57488,117.166298 410.41411,117.327243 L410.415,117.326 L410.415281,117.325486 L409.544326,118.195927 C409.234448,118.518261 408.774593,118.647973 408.34197,118.535076 C407.909348,118.422179 407.571495,118.084299 407.458607,117.651641 C407.34572,117.218982 407.475421,116.759089 407.797728,116.449187 L407.797728,116.449187 L408.667513,115.578745 C408.77484,115.475336 408.817916,115.321997 408.780141,115.177818 C408.742366,115.033639 408.629638,114.921128 408.485395,114.88364 Z M417.946313,107 C418.527659,107 418.999166,107.470833 418.999999,108.052177 L418.999999,116.495047 C419.000442,116.774499 418.889821,117.042675 418.692485,117.240545 C418.49515,117.438415 418.227273,117.54976 417.947821,117.55007 L416.555022,117.55007 L416.555022,111.287416 C416.555022,110.270909 415.729759,109.444139 414.715429,109.444139 L408.44976,109.444139 L408.44976,108.052177 C408.449982,107.772901 408.561137,107.505151 408.758773,107.307829 C408.956408,107.110508 409.224335,106.999779 409.503612,107 L417.946313,107 Z M411.425344,114.569186 C411.264574,114.408241 411.003784,114.40811 410.842852,114.568893 L410.842852,114.568893 L408.805155,116.606757 C408.653662,116.769225 408.658083,117.022509 408.815152,117.179592 C408.972222,117.336674 409.225485,117.341095 409.38794,117.189589 L409.387354,117.189589 L411.425051,115.151725 C411.585983,114.990942 411.586114,114.730131 411.425344,114.569186 Z M412.114,112.423392 C411.403525,112.233005 410.645457,112.436145 410.125353,112.956292 L410.125353,112.956292 L409.26494,113.81619 C409.10417,113.977134 409.104302,114.237946 409.265233,114.398729 C409.426165,114.559512 409.686955,114.559381 409.847725,114.398436 L409.847725,114.398436 L410.707552,113.539124 C411.017429,113.21679 411.477284,113.087079 411.909907,113.199976 C412.34253,113.312872 412.680383,113.650753 412.79327,114.083411 C412.906158,114.516069 412.776457,114.975962 412.454149,115.285865 L412.454149,115.285865 L411.589636,116.150449 C411.485637,116.254562 411.445076,116.406254 411.483233,116.548384 C411.52139,116.690515 411.632468,116.80149 411.774625,116.839508 C411.916782,116.877525 412.068421,116.836808 412.172421,116.732695 L412.172421,116.732695 L413.036934,115.868112 C413.557038,115.347965 413.760162,114.589835 413.56979,113.879302 C413.379419,113.168768 412.824475,112.613779 412.114,112.423392 Z" id="形状结合备份-16"></path>
                    </g>
                </g>
            </g>
        </g>
    </g>
</svg>