<?xml version="1.0" encoding="UTF-8"?>
<svg width="14px" height="14px" viewBox="0 0 14 14" version="1.1" xmlns="http://www.w3.org/2000/svg" xmlns:xlink="http://www.w3.org/1999/xlink">
    <title>形状结合</title>
    <g id="PC端" stroke="none" stroke-width="1" fill="none" fill-rule="evenodd">
        <g id="分享记录" transform="translate(-834.000000, -316.000000)" fill="#0091FF" fill-rule="nonzero">
            <g id="win-copy-2备份-11" transform="translate(393.000000, 186.000000)">
                <g id="穿梭组备份" transform="translate(15.000000, 50.000000)">
                    <g id="编组-3" transform="translate(21.000000, 38.000000)">
                        <path d="M414.712917,45.4489235 C415.175356,45.4489235 415.550237,45.8238046 415.550237,46.2862439 L415.550237,46.2862439 L415.550237,55.1618403 C415.550237,55.6242796 415.175356,55.9991607 414.712917,55.9991607 L414.712917,55.9991607 L405.83732,55.9991607 C405.374881,55.9991607 405,55.6242796 405,55.1618403 L405,55.1618403 L405,46.2862439 C405,45.8238046 405.374881,45.4489235 405.83732,45.4489235 L405.83732,45.4489235 Z M408.485395,49.8836402 C408.341152,49.8461525 408.187913,49.8895404 408.084728,49.9970845 L408.084728,49.9970845 L407.214944,50.8669401 C406.43767,51.6751331 406.450009,52.9567659 407.2427,53.749841 C408.035391,54.542916 409.316914,54.5557722 410.125353,53.7787598 L410.125353,53.7787598 L410.996895,52.9094899 C411.157664,52.7485452 411.157533,52.4877333 410.996602,52.3269503 C410.83567,52.1661673 410.57488,52.1662984 410.41411,52.3272431 L410.415,52.326 L410.415281,52.3254859 L409.544326,53.1959272 C409.234448,53.5182614 408.774593,53.6479729 408.34197,53.5350762 C407.909348,53.4221794 407.571495,53.0842989 407.458607,52.6516406 C407.34572,52.2189822 407.475421,51.7590895 407.797728,51.4491869 L407.797728,51.4491869 L408.667513,50.5787455 C408.77484,50.4753356 408.817916,50.3219968 408.780141,50.177818 C408.742366,50.0336393 408.629638,49.921128 408.485395,49.8836402 Z M417.946313,42.0000003 C418.527659,42.0000003 418.999166,42.4708326 418.999999,43.0521775 L418.999999,51.4950467 C419.000442,51.7744993 418.889821,52.0426755 418.692485,52.2405453 C418.49515,52.4384152 418.227273,52.5497598 417.947821,52.5500704 L416.555022,52.5500704 L416.555022,46.2874161 C416.555022,45.2709091 415.729759,44.444139 414.715429,44.444139 L408.44976,44.444139 L408.44976,43.0521775 C408.449982,42.7729008 408.561137,42.5051507 408.758773,42.3078292 C408.956408,42.1105077 409.224335,41.9997785 409.503612,42.0000003 L417.946313,42.0000003 Z M411.425344,49.5691858 C411.264574,49.408241 411.003784,49.4081099 410.842852,49.5688929 L410.842852,49.5688929 L408.805155,51.6067567 C408.653662,51.769225 408.658083,52.022509 408.815152,52.1795915 C408.972222,52.3366741 409.225485,52.3410946 409.38794,52.1895892 L409.387354,52.1895892 L411.425051,50.1517255 C411.585983,49.9909424 411.586114,49.7301306 411.425344,49.5691858 Z M412.114,47.4233919 C411.403525,47.2330051 410.645457,47.4361454 410.125353,47.9562919 L410.125353,47.9562919 L409.26494,48.8161896 C409.10417,48.9771343 409.104302,49.2379462 409.265233,49.3987292 C409.426165,49.5595122 409.686955,49.5593811 409.847725,49.3984363 L409.847725,49.3984363 L410.707552,48.5391244 C411.017429,48.2167903 411.477284,48.0870787 411.909907,48.1999755 C412.34253,48.3128723 412.680383,48.6507527 412.79327,49.0834111 C412.906158,49.5160695 412.776457,49.9759622 412.454149,50.2858648 L412.454149,50.2858648 L411.589636,51.1504486 C411.485637,51.2545616 411.445076,51.4062538 411.483233,51.5483842 C411.52139,51.6905146 411.632468,51.8014902 411.774625,51.8395076 C411.916782,51.877525 412.068421,51.8368084 412.172421,51.7326954 L412.172421,51.7326954 L413.036934,50.8681116 C413.557038,50.3479651 413.760162,49.5898351 413.56979,48.8793017 C413.379419,48.1687684 412.824475,47.6137787 412.114,47.4233919 Z" id="形状结合"></path>
                    </g>
                </g>
            </g>
        </g>
    </g>
</svg>