<?xml version="1.0" encoding="UTF-8"?>
<svg width="14px" height="15px" viewBox="0 0 14 15" version="1.1" xmlns="http://www.w3.org/2000/svg" xmlns:xlink="http://www.w3.org/1999/xlink">
    <title>形状结合</title>
    <g id="PC端" stroke="none" stroke-width="1" fill="none" fill-rule="evenodd">
        <g id="平台分享备份" transform="translate(-887.000000, -372.000000)" fill="#0091FF" fill-rule="nonzero">
            <g id="win-copy-2备份-11" transform="translate(393.000000, 186.000000)">
                <g id="1备份" transform="translate(20.000000, 175.000000)">
                    <path d="M485.501171,15 C485.777709,15.0009186 486.000869,15.2371176 486,15.5286757 L486,15.5286757 L486,23.4358149 C486,24.3086522 485.328777,25.0181678 484.501792,25.0181678 L484.501792,25.0181678 L477.500834,25.0181678 C476.67385,25.0181678 476,24.3086522 476,23.4358149 L476,23.4358149 L476,15.5203759 C476,15.3792142 476.053394,15.2491243 476.146149,15.1503964 C476.240662,15.0525871 476.36755,15 476.500569,15 L476.500569,15 Z M482.500776,17 C482.223641,17 482,17.2052318 482,17.4605507 L482,17.4605507 L482,22.5402681 C482,22.7955869 482.223641,23 482.500776,23 C482.776165,23 483.000679,22.7955869 483.000679,22.5402681 L483.000663,22.5402681 L483.000663,17.4605507 C483.000663,17.2060362 482.777038,17 482.500776,17 Z M479.500776,17 C479.223641,17 479,17.2052318 479,17.4605507 L479,17.4605507 L479,22.5402681 C479,22.7955869 479.223641,23 479.500776,23 C479.776165,23 480.000679,22.7955869 480.000679,22.5402681 L480.000663,22.5402681 L480.000663,17.4605507 C480.000663,17.2060362 479.777038,17 479.500776,17 Z M483.338171,11 C484.160969,11 484.504665,11.3554689 484.505537,12.0636452 L484.505537,12.0636452 L484.505537,12.9924191 L487.50984,12.9924191 C487.836613,13.0941262 488,13.2592667 488,13.4878406 C488,13.8307014 487.784988,14 487.508968,14 L487.508968,14 L474.491481,14 C474.21546,14 474,13.7248996 474,13.4878406 C474,13.2515284 474.214588,12.9924191 474.491481,12.9924191 L474.491481,12.9924191 L477.498855,12.9924191 L477.498855,12.0636452 C477.498855,11.3554689 477.910673,11 478.73872,11 L478.73872,11 Z" id="形状结合"></path>
                </g>
            </g>
        </g>
    </g>
</svg>