<?xml version="1.0" encoding="UTF-8"?>
<svg width="36px" height="36px" viewBox="0 0 36 36" version="1.1" xmlns="http://www.w3.org/2000/svg" xmlns:xlink="http://www.w3.org/1999/xlink">
    <title>编组 2备份</title>
    <g id="PC端" stroke="none" stroke-width="1" fill="none" fill-rule="evenodd" opacity="0.800000012">
        <g id="公开分享-下拉选项" transform="translate(-642.000000, -383.000000)" stroke="#67A9FF" stroke-width="1.5">
            <g id="win-copy-2备份-11" transform="translate(393.000000, 186.000000)">
                <g id="编组" transform="translate(219.000000, 197.000000)">
                    <g id="编组-2备份" transform="translate(30.000000, 0.000000)">
                        <circle id="椭圆形" fill="#D6E8FF" cx="18" cy="18" r="17.25"></circle>
                        <path d="M20.8401071,14.7362972 C21.22514,14.9448726 21.2667589,15.054158 21.266704,15.1634198 C21.2666491,15.2726816 21.2249204,15.3819251 21.1412537,15.4655147 L21.1412537,15.4655147 L15.3302135,21.2770316 C15.2477722,21.3508924 15.143621,21.386561 15.0401368,21.3847529 C14.9330438,21.3828817 14.8266034,21.3409242 14.7451037,21.2594178 C14.6635463,21.1778537 14.621625,21.0713123 14.6197536,20.9640744 C14.6179357,20.8599061 14.6539074,20.755076 14.7280658,20.6718379 L14.7280658,20.6718379 L20.5382648,14.8611621 C20.6216408,14.7778631 20.7308831,14.7362423 20.8401071,14.7362972 Z M20.789267,8.92502471 C21.6451517,8.69567226 22.5603568,8.6877242 23.4459017,8.92502471 C25.2170251,9.3996347 26.6004144,10.7831637 27.0749838,12.5544262 C27.5495598,14.3257132 27.0432017,16.215658 25.7466338,17.5123323 L25.7466338,17.5123323 L23.2763305,19.9828383 L25.1372746,16.9143506 C25.6925874,16.3784872 26.0821292,15.7138404 26.284468,14.9963884 C26.4874798,14.2765505 26.502041,13.5035563 26.3065085,12.7541483 C26.1109739,12.0047326 25.7206044,11.3374014 25.1917819,10.8085355 C24.6629481,10.2796583 23.9956557,9.88925216 23.2462862,9.69369754 C22.4969089,9.49814089 21.7239463,9.51270388 21.0041378,9.71574063 C20.2867725,9.91808823 19.6222005,10.3076327 19.0863865,10.8629508 L19.0863865,10.8629508 L16.6343415,13.3135269 L18.4885349,10.2534641 C19.1368042,9.60514156 19.9333746,9.15437917 20.789267,8.92502471 Z M12.6650058,16.0774709 L10.7823432,19.1676753 C10.2270811,19.7035228 9.83757235,20.3681346 9.63524506,21.0855456 C9.43223332,21.8053835 9.41767203,22.5783778 9.6132046,23.3277857 C9.8087392,24.0772014 10.1991087,24.7445327 10.7279312,25.2733986 C11.256765,25.8022757 11.9240574,26.1926819 12.6734269,26.3882365 C13.4228042,26.5837931 14.1957668,26.5692302 14.9155753,26.3661934 C15.6329411,26.1638457 16.2975135,25.7743008 16.8333277,25.218982 L16.8333277,25.218982 L19.3161951,22.7375803 L17.4384674,25.8180422 C16.4308146,26.7865237 15.1283336,27.2627573 13.8307575,27.24974 C12.5331808,27.2367227 11.240514,26.7344541 10.2524901,25.7459515 C9.26444273,24.7574253 8.76273388,23.4644171 8.75023953,22.1667005 C8.73776618,20.8711666 9.21286298,19.5709352 10.1784114,18.5642692 L10.1784114,18.5642692 L12.6650058,16.0774709 Z" id="形状备份-7" fill="#FFFFFF" fill-rule="nonzero"></path>
                    </g>
                </g>
            </g>
        </g>
    </g>
</svg>