<?xml version="1.0" encoding="UTF-8"?>
<svg width="39px" height="35px" viewBox="0 0 39 35" version="1.1" xmlns="http://www.w3.org/2000/svg" xmlns:xlink="http://www.w3.org/1999/xlink">
    <title>编组</title>
    <g id="PC端" stroke="none" stroke-width="1" fill="none" fill-rule="evenodd">
        <g id="通过PC浏览器访问" transform="translate(-598.000000, -165.000000)" fill="#0091FF" fill-rule="nonzero">
            <g id="编组-3" transform="translate(598.000000, 162.000000)">
                <g id="编组" transform="translate(0.000000, 3.000000)">
                    <path d="M19.329275,28.4860535 L6.51317078,23.1615089 L6.5131708,23.1615089 C6.37052886,23.0921434 6.20193423,23.0921434 6.05929334,23.1615089 L0.529161086,25.5661359 L0.529161085,25.5661359 C0.245508014,25.6861254 0.117025369,26.0038403 0.24218642,26.2757715 C0.298709623,26.3985768 0.40106247,26.4966998 0.529161085,26.5508877 L19.3053705,34.3601973 L19.3053705,34.3601974 C19.4480121,34.4295629 19.6166071,34.4295629 19.759248,34.3601973 L37.8546552,26.5508877 L37.8546552,26.5508877 C38.1383083,26.4159923 38.2541864,26.086195 38.1134765,25.8142604 C38.0578002,25.706662 37.9668915,25.6195098 37.8546552,25.5661342 L32.7544959,23.1157039 L32.7544959,23.1157039 C32.6007283,23.0247723 32.4066089,23.0247723 32.2528409,23.1157039 L19.7114845,28.5318348 L19.7114845,28.5318348 C19.5799415,28.5754593 19.4369261,28.5754593 19.3053845,28.5318348 L19.329275,28.4860535 Z M37.8785737,8.11543826 L20.5117707,0.134353931 L20.5117707,0.134353929 C20.1608447,-0.0447846435 19.7399447,-0.0447846435 19.3890188,0.134353932 L0.529199635,8.1612314 L0.529199682,8.16123138 C0.238950068,8.26572075 0.0920126062,8.57599883 0.201006535,8.85425432 C0.257941124,8.9996065 0.377582319,9.11430385 0.529199682,9.16888576 L19.4129374,16.8407824 L19.4129374,16.8407824 C19.751014,17.0041008 20.149836,17.0041008 20.4879118,16.8407824 L37.8069479,9.12309262 L37.8069479,9.12309262 C38.0927084,9.02524022 38.2416203,8.72383163 38.1395488,8.44987975 C38.0933028,8.32575783 38.0001972,8.22276732 37.8786127,8.16124112 L37.8785737,8.11543826 Z" id="形状"></path>
                    <path d="M19.3531585,20.2416082 L6.45344452,14.894167 L6.45344451,14.894167 C6.34977965,14.8234086 6.2107283,14.8234086 6.10706379,14.894167 L0.254416766,17.4133005 L0.254416738,17.4133005 C0.0334313445,17.5126396 -0.0617115643,17.7649124 0.0419094567,17.9767645 C0.0857453021,18.0663872 0.160930944,18.138466 0.254416738,18.1804905 L19.3650651,26.1959029 L19.3650651,26.1959029 C19.4735165,26.2653706 19.6149387,26.2653706 19.7233911,26.1959028 L38.0935111,18.1804905 L38.0935111,18.1804905 C38.3144964,18.0811513 38.4096394,17.8288786 38.3060183,17.6170265 C38.2621825,17.5274037 38.1869969,17.4553249 38.0935111,17.4133005 L32.718639,14.802564 L32.718639,14.8025639 C32.6055719,14.7340161 32.461437,14.7340161 32.3483713,14.802564 L19.6875623,20.2186948 L19.6875623,20.2186948 C19.5847932,20.2784397 19.455895,20.2784397 19.3531258,20.2186948 L19.3531585,20.2416082 Z" id="路径" opacity="0.6"></path>
                </g>
            </g>
        </g>
    </g>
</svg>