<?xml version="1.0" encoding="UTF-8"?>
<svg width="14px" height="14px" viewBox="0 0 14 14" version="1.1" xmlns="http://www.w3.org/2000/svg" xmlns:xlink="http://www.w3.org/1999/xlink">
    <title>形状</title>
    <g id="Page-1" stroke="none" stroke-width="1" fill="none" fill-rule="evenodd">
        <g id="编组" transform="translate(-362.000000, -11.000000)" fill="#FFFFFF" fill-rule="nonzero">
            <path d="M362,18.0667969 L364.235641,18.2779687 L364.235641,20.953125 L367.787703,20.07575 L367.787703,19.1048594 L367.356188,19.1048594 L367.356188,17.8795781 L365.316469,17.5528125 L364.155297,16.4538906 L364.525281,14.1428594 L371.434453,15.2495156 C371.482844,15.0754531 371.543438,14.9154687 371.613234,14.7745312 L363.88375,13.5367969 L365.140297,11.3230156 L365.985969,11 L373.212734,12.1573906 L373.896078,12.2668594 L374.672922,12.391125 L375.871422,12.5832656 L375.828203,13.685 L374.491578,15.1536562 L373.888328,15.0690781 L374.180547,13.245 L375.310234,13.425875 L375.325969,13.0305312 L373.686063,12.7679062 L373.592109,12.8038437 L372.439406,14.1815781 C372.800703,14.3279219 372.986047,15.0394844 372.856859,15.8471094 C372.71825,16.7129844 372.269797,17.3613281 371.855672,17.2948437 C371.658813,17.263375 371.504953,17.0759219 371.412844,16.7947187 L371.302906,17.4806562 L372.44575,18.6946719 L369.452297,18.2152187 L369.452297,19.1048125 L369.045188,19.1048125 L369.045188,20.851625 L364.235625,22.0397812 L364.235625,24.6129844 L362,24.9827344 L362,18.0667969 L362,18.0667969 Z M372.215547,15.0477344 C372.036297,15.0190781 371.842266,15.2997969 371.782125,15.6749687 C371.721984,16.0498594 371.818766,16.3773437 371.998016,16.406 C372.177484,16.4346719 372.371516,16.1539531 372.431656,15.7787969 C372.491547,15.403875 372.395016,15.0764062 372.215547,15.0477344 Z M372.159391,18.3905 L372.557094,18.7536719 L373.900531,17.9202031 L374.298953,15.4332344 L373.777203,15.3498281 L373.416859,17.6004844 L372.159391,18.3905 L372.159391,18.3905 Z" id="形状"></path>
        </g>
    </g>
</svg>