<?xml version="1.0" encoding="UTF-8"?>
<svg width="19px" height="12px" viewBox="0 0 19 12" version="1.1" xmlns="http://www.w3.org/2000/svg" xmlns:xlink="http://www.w3.org/1999/xlink">
    <title>编组</title>
    <defs>
        <filter id="filter-1">
            <feColorMatrix in="SourceGraphic" type="matrix" values="0 0 0 0 1.000000 0 0 0 0 1.000000 0 0 0 0 1.000000 0 0 0 1.000000 0"></feColorMatrix>
        </filter>
    </defs>
    <g id="页面-1" stroke="none" stroke-width="1" fill="none" fill-rule="evenodd">
        <g id="图例" transform="translate(-1800.000000, -171.000000)">
            <g id="右侧预案响应" transform="translate(1510.000000, 74.000000)">
                <g id="编组" transform="translate(10.000000, 72.000000)" filter="url(#filter-1)">
                    <g transform="translate(280.000000, 25.000000)">
                        <path d="M9.4017094,0.00667734375 C14.6153846,0.00667734375 18.8034188,4.28018161 18.8034188,5.98958333 C18.8034188,7.69898506 14.6153846,11.9724893 9.4017094,11.9724893 C4.18803419,11.9724893 0,7.69898504 0,5.98958333 C0,4.28018163 4.18803417,0.00667734375 9.4017094,0.00667734375 Z M9.27350427,2.00667734 C6.92307692,2.00667734 5,3.92975427 5,6.28018161 C5,8.63060895 6.92307692,10.5536859 9.27350427,10.5536859 C11.6239316,10.5536859 13.5470085,8.63060895 13.5470085,6.28018161 C13.5470085,3.92975427 11.6239316,2.00667734 9.27350427,2.00667734 Z M9.28,7.56667734 C9.98692448,7.56667734 10.56,6.99360182 10.56,6.28667734 C10.56,5.57975286 9.98692448,5.00667734 9.28,5.00667734 C8.57307552,5.00667734 8,5.57975286 8,6.28667734 C8,6.99360182 8.57307552,7.56667734 9.28,7.56667734 Z" id="形状" fill="#FFFFFF" fill-rule="nonzero"></path>
                    </g>
                </g>
            </g>
        </g>
    </g>
</svg>