<?xml version="1.0" encoding="UTF-8"?>
<svg width="16px" height="16px" viewBox="0 0 16 16" version="1.1" xmlns="http://www.w3.org/2000/svg" xmlns:xlink="http://www.w3.org/1999/xlink">
    <title>形状</title>
    <g id="页面-1" stroke="none" stroke-width="1" fill="none" fill-rule="evenodd">
        <g id="测距工具" transform="translate(-1489.000000, -545.000000)" fill="#00ECFF" fill-rule="nonzero">
            <g id="地址备份-3" transform="translate(1341.000000, 535.000000)">
                <g id="交叉" transform="translate(130.000000, 10.000000)">
                    <path d="M31.2,5.1 C30.9,5.1 30.6,5.4 30.6,5.7 L30.6,14.3 C30.6,14.6 30.3,14.9 30,14.9 L22,14.9 C21.7,14.9 21.4,14.6 21.4,14.3 L21.4,5.7 C21.4,5.4 21.2,5.1 20.8,5.1 C20.5,5.1 20.2,5.4 20.2,5.7 L20.2,14.3 C20.3,15.2 21,16 22,16 L30,16 C31,16 31.8,15.2 31.8,14.2 L31.8,5.7 C31.8,5.4 31.5,5.1 31.2,5.1 Z M24.8,11.9 L24.8,5.7 C24.8,5.4 24.6,5.1 24.2,5.1 C23.9,5.1 23.6,5.4 23.6,5.7 L23.6,12 C23.6,12.3 23.8,12.6 24.2,12.6 C24.6,12.5 24.8,12.3 24.8,11.9 L24.8,11.9 Z M28.3,11.9 L28.3,5.7 C28.3,5.4 28,5.1 27.7,5.1 C27.4,5.1 27.1,5.4 27.1,5.7 L27.1,12 C27.1,12.3 27.4,12.6 27.7,12.6 C28,12.5 28.3,12.3 28.3,11.9 L28.3,11.9 Z M33.4,2.8 L30.6,2.8 L30.6,1.7 C30.6,0.8 29.8,0 28.9,0 L23.1,0 C22.1,0 21.4,0.7 21.4,1.7 L21.4,2.9 L18.6,2.9 C18.3,2.8 18,3.1 18,3.4 C18,3.7 18.3,3.9 18.6,3.9 L33.4,3.9 C33.7,3.9 34,3.7 34,3.4 C34,3.1 33.7,2.8 33.4,2.8 L33.4,2.8 Z M29.4,2.8 L22.5,2.8 L22.5,1.7 C22.5,1.4 22.8,1.1 23.1,1.1 L28.9,1.1 C29.2,1.1 29.4,1.3 29.4,1.7 L29.4,2.8 L29.4,2.8 Z" id="形状"></path>
                </g>
            </g>
        </g>
    </g>
</svg>