<?xml version="1.0" encoding="UTF-8"?>
<svg width="16px" height="18px" viewBox="0 0 16 18" version="1.1" xmlns="http://www.w3.org/2000/svg" xmlns:xlink="http://www.w3.org/1999/xlink">
    <title>形状结合备份 6</title>
    <g id="页面-1" stroke="none" stroke-width="1" fill="none" fill-rule="evenodd">
        <g id="切图整合" transform="translate(-268.000000, -231.000000)" fill="#FFFFFF" fill-rule="nonzero">
            <path d="M271.559147,231.7125 C273.500337,231.7125 275.075196,233.28736 275.075196,235.228549 L275.075196,235.228549 L275.075196,235.260873 C275.075196,236.905766 273.952862,238.286686 272.43367,238.683544 C273.144781,241.010816 274.841751,242.89993 277.028956,243.87681 C277.413244,242.337865 278.804938,241.195777 280.462402,241.195777 C282.416162,241.195777 284,242.779616 284,244.733375 C284,245.067382 283.953311,245.388819 283.867116,245.694094 C283.850954,245.760536 283.825814,245.823387 283.79349,245.88085 C283.366105,247.118112 282.268911,248.042915 280.932884,248.218897 C280.877217,248.236855 280.816162,248.247629 280.755107,248.249425 C280.704826,248.249425 280.65275,248.253016 280.600673,248.253016 C273.6422,248.253016 268,242.63057 268,235.672096 C268,235.585901 268.001796,235.499705 268.003591,235.41351 C268.001796,235.36323 268,235.312949 268,235.262668 C268,233.790166 268.899663,232.529559 270.178227,231.99443 C270.60202,231.813061 271.068911,231.7125 271.559147,231.7125 Z M280.442649,233.824285 C280.729966,233.536967 281.196857,233.536967 281.482379,233.824285 L281.482379,233.824285 L283.454437,235.793882 C283.610542,235.929014 283.709091,236.12864 283.709091,236.350884 C283.709091,236.566182 283.616917,236.759439 283.470141,236.893878 L281.482379,238.879279 C281.195062,239.166597 280.729966,239.166597 280.442649,238.879279 C280.155331,238.591961 280.155331,238.12507 280.442649,237.839548 L280.442649,237.839548 L281.195,237.0865 L277.971717,237.087135 C277.598055,237.087135 277.290784,236.809495 277.242168,236.450624 L277.235466,236.350884 C277.235466,235.945048 277.564085,235.616428 277.969921,235.614632 L277.969921,235.614632 L281.193,235.6145 L280.442649,234.864015 C280.181451,234.602817 280.157706,234.194696 280.371413,233.906784 Z" id="形状结合备份-6"></path>
        </g>
    </g>
</svg>