<?xml version="1.0" encoding="UTF-8"?>
<svg width="19px" height="16px" viewBox="0 0 19 16" version="1.1" xmlns="http://www.w3.org/2000/svg" xmlns:xlink="http://www.w3.org/1999/xlink">
    <title>形状备份 16</title>
    <g id="页面-1" stroke="none" stroke-width="1" fill="none" fill-rule="evenodd">
        <g id="切图整合" transform="translate(-316.000000, -233.000000)" fill="#FFFFFF" fill-rule="nonzero">
            <path d="M332.166611,233 L318.513389,233 C317.051275,233 316.34,233.721045 316.34,235.163337 L316.34,243.816646 C316.34,245.259018 317.007308,245.94068 318.432974,245.94068 L320.526028,245.94068 L320.268537,248.143341 C320.268491,248.409432 320.415753,248.653684 320.651094,248.777859 C320.756091,248.834663 320.873583,248.864446 320.99296,248.864446 C321.133446,248.864446 321.274053,248.823957 321.394274,248.74326 L325.549281,245.94068 L332.247006,245.94068 C333.696113,245.94068 334.34,245.259038 334.34,243.816646 L334.34,235.163337 C334.34,233.721045 333.615597,233 332.166611,233 Z M321.158375,240.516958 C320.582238,240.516958 320.113999,240.048537 320.113999,239.47411 C320.113999,238.899742 320.582258,238.429352 321.158375,238.429352 C321.734451,238.429352 322.202771,238.897852 322.202771,239.47411 C322.20267,240.050447 321.732501,240.516958 321.158375,240.516958 Z M325.337708,240.516958 C324.758536,240.516958 324.288005,240.048537 324.288005,239.47411 C324.288005,238.899742 324.758636,238.429352 325.337708,238.429352 C325.91682,238.429352 326.387351,238.897852 326.387351,239.47411 C326.387351,240.050447 325.91477,240.516958 325.337728,240.516958 L325.337708,240.516958 Z M329.523535,240.516958 C328.944342,240.516958 328.47546,240.048537 328.47546,239.47411 C328.47546,238.899742 328.944342,238.429352 329.523515,238.429352 C330.102446,238.429352 330.573078,238.897852 330.573078,239.47411 C330.573078,240.050447 330.102546,240.516958 329.523515,240.516958 L329.523535,240.516958 Z" id="形状备份-16"></path>
        </g>
    </g>
</svg>