<?xml version="1.0" encoding="UTF-8"?>
<svg width="137px" height="41px" viewBox="0 0 137 41" version="1.1" xmlns="http://www.w3.org/2000/svg" xmlns:xlink="http://www.w3.org/1999/xlink">
    <title>矩形</title>
    <defs>
        <rect id="path-1" x="0" y="0" width="136" height="40" rx="8"></rect>
    </defs>
    <g id="页面-1" stroke="none" stroke-width="1" fill="none" fill-rule="evenodd">
        <g id="专项指挥部架构" transform="translate(-848.000000, -273.000000)">
            <g id="弹窗" transform="translate(570.000000, 79.000000)">
                <g id="编组-4" transform="translate(444.000000, 543.000000) rotate(-270.000000) translate(-444.000000, -543.000000) translate(30.500000, 129.500000)">
                    <g id="矩形" transform="translate(84.640904, 511.132209) rotate(-90.000000) translate(-84.640904, -511.132209) translate(16.640904, 491.132209)">
                        <mask id="mask-2" fill="white">
                            <use xlink:href="#path-1"></use>
                        </mask>
                        <use id="蒙版" fill="#54A0FF" xlink:href="#path-1"></use>
                        <g id="编组备份" opacity="0.300000012" mask="url(#mask-2)">
                            <g transform="translate(104.000000, -8.000000)">
                                <path d="M27.3337549,2.1291929 L43.9135989,12.7183594 C45.3550018,13.6389504 45.7772032,15.5537248 44.8566122,16.9951277 C44.6144928,17.3742228 44.292694,17.6960216 43.9135989,17.938141 L27.3337549,28.5273075 C25.300872,29.8256633 22.699128,29.8256633 20.6662451,28.5273075 L4.08640112,17.938141 C2.64499824,17.01755 2.22279679,15.1027756 3.1433878,13.6613728 C3.38550716,13.2822776 3.70730601,12.9604788 4.08640112,12.7183594 L20.6662451,2.1291929 C22.699128,0.830837158 25.300872,0.830837158 27.3337549,2.1291929 Z" id="矩形备份-10" fill="#FFFFFF"></path>
                                <path d="M27.3337549,11.8711284 L43.9135989,22.4602949 C45.3550018,23.3808859 45.7772032,25.2956603 44.8566122,26.7370632 C44.6144928,27.1161583 44.292694,27.4379571 43.9135989,27.6800765 L27.3337549,38.269243 C25.300872,39.5675988 22.699128,39.5675988 20.6662451,38.269243 L4.08640112,27.6800765 C2.64499824,26.7594855 2.22279679,24.8447111 3.1433878,23.4033082 C3.38550716,23.0242131 3.70730601,22.7024143 4.08640112,22.4602949 L20.6662451,11.8711284 C22.699128,10.5727726 25.300872,10.5727726 27.3337549,11.8711284 Z" id="矩形" fill="#CDE3FF" opacity="0.5"></path>
                            </g>
                        </g>
                    </g>
                </g>
            </g>
        </g>
    </g>
</svg>