<?xml version="1.0" encoding="UTF-8"?>
<svg width="18px" height="18px" viewBox="0 0 18 18" version="1.1" xmlns="http://www.w3.org/2000/svg" xmlns:xlink="http://www.w3.org/1999/xlink">
    <title>编组 7备份</title>
    <g id="页面-1" stroke="none" stroke-width="1" fill="none" fill-rule="evenodd">
        <g id="切图" transform="translate(-366.000000, -379.000000)" fill-rule="nonzero">
            <g id="编组-7备份" transform="translate(366.000000, 379.000000)">
                <path d="M9,0 C4.02991071,0 0,4.02991071 0,9 C0,13.9700893 4.02991071,18 9,18 C13.9700893,18 18,13.9700893 18,9 C18,4.02991071 13.9700893,0 9,0 Z" id="路径" fill="#A6ADB4"></path>
                <path d="M13.0928571,8.7 L4.87857143,8.7 C4.78035714,8.7 4.7,8.78035714 4.7,8.87857143 L4.7,9.95 C4.7,10.0482143 4.78035714,10.1285714 4.87857143,10.1285714 L13.0928571,10.1285714 C13.1910714,10.1285714 13.2714286,10.0482143 13.2714286,9.95 L13.2714286,8.87857143 C13.2714286,8.78035714 13.1910714,8.7 13.0928571,8.7 Z" id="路径" fill="#FFFFFF"></path>
            </g>
        </g>
    </g>
</svg>