<?xml version="1.0" encoding="UTF-8"?>
<svg width="18px" height="18px" viewBox="0 0 18 18" version="1.1" xmlns="http://www.w3.org/2000/svg" xmlns:xlink="http://www.w3.org/1999/xlink">
    <title>编组 7</title>
    <g id="页面-1" stroke="none" stroke-width="1" fill="none" fill-rule="evenodd">
        <g id="切图" transform="translate(-328.000000, -379.000000)" fill-rule="nonzero">
            <g id="编组-7" transform="translate(328.000000, 379.000000)">
                <path d="M9,0 C4.02991071,0 0,4.02991071 0,9 C0,13.9700893 4.02991071,18 9,18 C13.9700893,18 18,13.9700893 18,9 C18,4.02991071 13.9700893,0 9,0 Z" id="路径" fill="#A6ADB4"></path>
                <path d="M13.0928571,8.27142857 L9.7,8.27142857 L9.7,4.87857143 C9.7,4.78035714 9.61964286,4.7 9.52142857,4.7 L8.45,4.7 C8.35178571,4.7 8.27142857,4.78035714 8.27142857,4.87857143 L8.27142857,8.27142857 L4.87857143,8.27142857 C4.78035714,8.27142857 4.7,8.35178571 4.7,8.45 L4.7,9.52142857 C4.7,9.61964286 4.78035714,9.7 4.87857143,9.7 L8.27142857,9.7 L8.27142857,13.0928571 C8.27142857,13.1910714 8.35178571,13.2714286 8.45,13.2714286 L9.52142857,13.2714286 C9.61964286,13.2714286 9.7,13.1910714 9.7,13.0928571 L9.7,9.7 L13.0928571,9.7 C13.1910714,9.7 13.2714286,9.61964286 13.2714286,9.52142857 L13.2714286,8.45 C13.2714286,8.35178571 13.1910714,8.27142857 13.0928571,8.27142857 Z" id="路径" fill="#FFFFFF"></path>
            </g>
        </g>
    </g>
</svg>