<?xml version="1.0" encoding="UTF-8"?>
<svg width="17px" height="17px" viewBox="0 0 17 17" version="1.1" xmlns="http://www.w3.org/2000/svg" xmlns:xlink="http://www.w3.org/1999/xlink">
    <title>旗子</title>
    <g id="页面-1" stroke="none" stroke-width="1" fill="none" fill-rule="evenodd">
        <g id="专项指挥部架构" transform="translate(-861.000000, -285.000000)">
            <g id="弹窗" transform="translate(570.000000, 79.000000)">
                <g id="编组-4" transform="translate(444.000000, 543.000000) rotate(-270.000000) translate(-444.000000, -543.000000) translate(30.500000, 129.500000)">
                    <g id="head" transform="translate(84.640904, 511.132209) rotate(-90.000000) translate(-84.640904, -511.132209) translate(16.640904, 491.132209)">
                        <g id="旗子" transform="translate(12.632209, 11.859096)">
                            <path d="M1.01491558,0 C0.530664205,0 0,0.410901934 0,0.91942803 L0,16.0807609 C0,16.5870764 0.518817573,17 1.00216737,17 C1.48521064,17 2.01708295,16.5870386 2.01708295,16.080572 L2.01708295,0.919560286 C2.01708295,0.411053084 1.49813916,0 1.01491558,0 L1.01491558,0 Z M11.4311525,1.26184001 C8.58514789,1.26184001 8.58514789,0.0395257883 5.73930557,0.0395257883 C4.09650047,0.0395257883 2.82795517,0.842587025 2.82795517,0.842587025 L2.8160905,9.99309043 C2.8160905,9.99309043 4.09650047,9.19112504 5.73932361,9.19112504 C8.58516592,9.19112504 8.58516592,10.4134393 11.4311705,10.4134393 C13.2115913,10.4134393 15,9.43389122 15,9.43389122 L15,0.284313606 C15,0.284313606 13.2115913,1.26182112 11.4311705,1.26182112 L11.4311525,1.26184001 Z" id="形状" fill="#FFFFFF" fill-rule="nonzero"></path>
                            <path d="M13.4311525,3.26184001 C10.5851479,3.26184001 10.5851479,2.03952579 7.73930557,2.03952579 C6.09650047,2.03952579 4.82795517,2.84258703 4.82795517,2.84258703 L4.8160905,11.9930904 C4.8160905,11.9930904 6.09650047,11.191125 7.73932361,11.191125 C10.5851659,11.191125 10.5851659,12.4134393 13.4311705,12.4134393 C15.2115913,12.4134393 17,11.4338912 17,11.4338912 L17,2.28431361 C17,2.28431361 15.2115913,3.26182112 13.4311705,3.26182112 L13.4311525,3.26184001 Z" id="路径" fill="#CDE3FF" opacity="0.5"></path>
                        </g>
                    </g>
                </g>
            </g>
        </g>
    </g>
</svg>