<?xml version="1.0" encoding="UTF-8"?>
<svg width="40px" height="40px" viewBox="0 0 40 40" version="1.1" xmlns="http://www.w3.org/2000/svg" xmlns:xlink="http://www.w3.org/1999/xlink">
    <title>success</title>
    <g id="页面-1" stroke="none" stroke-width="1" fill="none" fill-rule="evenodd">
        <g id="异常签到" transform="translate(-171.000000, -172.000000)">
            <g id="success" transform="translate(171.000000, 172.000000)">
                <path d="M40,20.2469136 C40,8.95407407 31.0459259,0 19.7530864,0 C8.95407407,0 0,8.95407407 0,20.2469136 C0,31.0459259 8.95407407,40 19.7530864,40 C31.0459259,40 40,31.0459259 40,20.2469136 Z" id="Fill-3" fill="#F94E36"></path>
                <path d="M29.1170094,11.4393398 C29.7027958,12.0251263 29.7027958,12.9748737 29.1170094,13.5606602 L22.399,20.278 L29.1170094,26.995689 C29.7027958,27.5814755 29.7027958,28.5312229 29.1170094,29.1170094 C28.5312229,29.7027958 27.5814755,29.7027958 26.995689,29.1170094 L20.278,22.399 L13.5606602,29.1170094 C12.9748737,29.7027958 12.0251263,29.7027958 11.4393398,29.1170094 C10.8535534,28.5312229 10.8535534,27.5814755 11.4393398,26.995689 L18.156,20.278 L11.4393398,13.5606602 C10.8535534,12.9748737 10.8535534,12.0251263 11.4393398,11.4393398 C12.0251263,10.8535534 12.9748737,10.8535534 13.5606602,11.4393398 L20.278,18.156 L26.995689,11.4393398 C27.5814755,10.8535534 28.5312229,10.8535534 29.1170094,11.4393398 Z" id="形状结合" fill="#FFFFFF"></path>
            </g>
        </g>
    </g>
</svg>