<?xml version="1.0" encoding="UTF-8"?>
<svg width="200px" height="200px" viewBox="0 0 200 200" version="1.1" xmlns="http://www.w3.org/2000/svg" xmlns:xlink="http://www.w3.org/1999/xlink">
    <title>success</title>
    <g id="页面-1" stroke="none" stroke-width="1" fill="none" fill-rule="evenodd">
        <g id="签到成功" transform="translate(-275.000000, -228.000000)">
            <g id="success" transform="translate(275.000000, 228.000000)">
                <path d="M200,101.234568 C200,44.7703704 155.22963,0 98.7654321,0 C44.7703704,0 0,44.7703704 0,101.234568 C0,155.22963 44.7703704,200 98.7654321,200 C155.22963,200 200,155.22963 200,101.234568 Z" id="Fill-3" fill="#16C88B"></path>
                <path d="M50.3370049,106.571019 C49.9501887,106.170683 49.9003008,105.487351 50.2341164,105.033135 L54.8260124,98.7850301 C55.1560049,98.3360157 55.7838652,98.2482041 56.2155226,98.5790447 L82.3304101,118.594608 C83.2104025,119.269072 84.6073456,119.246365 85.4620399,118.534336 L150.014922,64.7565639 C150.442418,64.4004246 151.108345,64.4271275 151.498561,64.8125035 L155.866289,69.1260575 C156.258184,69.5130914 156.251954,70.1456336 155.856793,70.5345308 L85.3403661,139.933228 C84.5568294,140.704345 83.2972993,140.68329 82.53517,139.894524 L50.3370049,106.571019 Z" id="Fill-36" fill="#FFFFFF"></path>
            </g>
        </g>
    </g>
</svg>