<?xml version="1.0" encoding="UTF-8"?>
<svg width="40px" height="40px" viewBox="0 0 40 40" version="1.1" xmlns="http://www.w3.org/2000/svg" xmlns:xlink="http://www.w3.org/1999/xlink">
    <title>success</title>
    <g id="页面-1" stroke="none" stroke-width="1" fill="none" fill-rule="evenodd">
        <g id="现场签到" transform="translate(-235.000000, -172.000000)">
            <g id="success" transform="translate(235.000000, 172.000000)">
                <path d="M40,20.2469136 C40,8.95407407 31.0459259,0 19.7530864,0 C8.95407407,0 0,8.95407407 0,20.2469136 C0,31.0459259 8.95407407,40 19.7530864,40 C31.0459259,40 40,31.0459259 40,20.2469136 Z" id="Fill-3" fill="#16C88B"></path>
                <path d="M7.6033933,21.5086036 C7.22100333,21.1128489 7.17529992,20.4324189 7.50027039,19.9902379 L7.69246049,19.7287285 C8.01789725,19.2859129 8.64465982,19.2051157 9.08261272,19.5407815 L13.4496338,22.8878527 C14.3237493,23.5578121 15.712893,23.5339824 16.5653511,22.8238159 L30.1063269,11.5430878 C30.5282133,11.1916223 31.1881314,11.2206716 31.5876856,11.61527 L31.5234549,11.551836 C31.9197003,11.9431667 31.9275347,12.5688214 31.5233782,12.9665718 L16.4547865,27.7963169 C15.6689234,28.5697236 14.408111,28.551149 13.6358332,27.7518798 L7.6033933,21.5086036 Z" id="Fill-36" fill="#FFFFFF"></path>
            </g>
        </g>
    </g>
</svg>