<?xml version="1.0" encoding="UTF-8"?>
<svg width="10px" height="12px" viewBox="0 0 10 12" version="1.1" xmlns="http://www.w3.org/2000/svg" xmlns:xlink="http://www.w3.org/1999/xlink">
    <title>路径</title>
    <g id="页面-1" stroke="none" stroke-width="1" fill="none" fill-rule="evenodd">
        <g id="应急管理" transform="translate(-608.000000, -172.000000)" fill="#FFFFFF">
            <g id="风险隐患分析" transform="translate(35.000000, 38.000000)">
                <g id="风险总数" transform="translate(1.000000, 108.000000)">
                    <path d="M581.755789,30.321071 L577.589544,26.2392614 C577.26393,25.9202462 576.73607,25.9202462 576.410456,26.2392614 L572.244211,30.321071 C571.918596,30.6400862 571.918596,31.1572475 572.244211,31.4762627 C572.569825,31.7952779 573.097684,31.7952779 573.423299,31.4762627 L576.167762,28.7874202 L576.167762,36.6122095 C576.167762,37.0639826 576.539893,37.4285714 577.001011,37.4285714 C577.46213,37.4285714 577.83426,37.0639826 577.83426,36.6122095 L577.83426,28.7874202 L580.578724,31.4762627 C580.74052,31.6347796 580.954899,31.7160195 581.167257,31.7160195 C581.379614,31.7160195 581.593993,31.6367611 581.755789,31.4762627 C582.081404,31.1572475 582.081404,30.6400862 581.755789,30.321071 Z" id="路径" transform="translate(577.000000, 31.714286) scale(1, -1) translate(-577.000000, -31.714286) "></path>
                </g>
            </g>
        </g>
    </g>
</svg>