<?xml version="1.0" encoding="UTF-8"?>
<svg width="76px" height="76px" viewBox="0 0 76 76" version="1.1" xmlns="http://www.w3.org/2000/svg" xmlns:xlink="http://www.w3.org/1999/xlink">
    <title>编组 5</title>
    <defs>
        <linearGradient x1="50%" y1="0%" x2="44.8406809%" y2="100%" id="linearGradient-1">
            <stop stop-color="#00F1F3" offset="0%"></stop>
            <stop stop-color="#0076CC" offset="100%"></stop>
        </linearGradient>
    </defs>
    <g id="页面-1" stroke="none" stroke-width="1" fill="none" fill-rule="evenodd">
        <g id="编组-5" fill="url(#linearGradient-1)">
            <path d="M44,0 L45.6196217,4.8571094 C58.9842169,7.91704469 69.3461143,18.8528841 71.5606831,32.5199968 L76,34 L76,42 L71.5605212,43.4810026 C69.3456092,57.147649 58.9838912,68.0830299 45.6196217,71.1428906 L44,76 L32,76 L30.381376,71.143119 C17.0166245,68.0835741 6.65444591,57.1479891 4.43947884,43.4810026 L0,42 L0,34 L4.43931689,32.5199968 C6.65394076,18.852544 17.0162988,7.91650046 30.381376,4.85688099 L32,0 L44,0 Z M2.49447197,43.9258551 C4.71231226,58.7166159 15.8032758,70.5735174 30.100601,73.5102251 L29.899399,74.4897749 C15.1885551,71.4681294 3.78520032,59.277263 1.50552803,44.0741449 L2.49447197,43.9258551 Z M73.5053734,43.9268939 L74.4946266,44.0731061 C72.2536824,59.2350567 60.8505961,71.421529 46.1018286,74.4895211 L45.8981714,73.5104789 C60.2347618,70.5282265 71.3255151,58.6755444 73.5053734,43.9268939 Z M38,8 C21.4314575,8 8,21.4314575 8,38 C8,54.5685425 21.4314575,68 38,68 C54.5685425,68 68,54.5685425 68,38 C68,21.4314575 54.5685425,8 38,8 Z M29.8966557,1.51079661 L30.1033443,2.48920339 C15.7995649,5.51087877 4.73010472,17.3419088 2.49434047,32.0750167 L1.50565953,31.9249833 C3.80369898,16.781498 15.1832938,4.61899635 29.8966557,1.51079661 Z M46.1117367,1.51264498 C60.9179563,4.90729025 72.2460218,16.9995799 74.4944219,31.9255217 L73.5055781,32.0744783 C71.3187087,17.5570061 60.2959595,5.79063018 45.8882633,2.48735502 L46.1117367,1.51264498 Z" id="形状结合"></path>
        </g>
    </g>
</svg>