<?xml version="1.0" encoding="UTF-8"?>
<svg width="39px" height="35px" viewBox="0 0 39 35" version="1.1" xmlns="http://www.w3.org/2000/svg" xmlns:xlink="http://www.w3.org/1999/xlink">
    <title>形状</title>
    <defs>
        <linearGradient x1="50%" y1="0%" x2="50%" y2="100%" id="linearGradient-1">
            <stop stop-color="#00F1F3" offset="0%"></stop>
            <stop stop-color="#00EAF1" offset="73.8939243%"></stop>
            <stop stop-color="#0076CC" offset="100%"></stop>
        </linearGradient>
    </defs>
    <g id="页面-1" stroke="none" stroke-width="1" fill="none" fill-rule="evenodd">
        <path d="M18.3343119,0.19483583 C20.2131723,-0.450063454 22.2563229,0.558299124 22.8979387,2.44713705 L38.1924054,29.1063421 C40.0755603,32.3632764 38.5531629,35 34.7922011,35 L4.20512798,35 C0.445948903,35 -1.07284439,32.3559908 0.804884973,29.1063421 L16.0957863,2.44892923 C16.4558913,1.39087386 17.2821655,0.559514884 18.3343119,0.196628009 L18.3343119,0.19483583 Z M21.3880975,25.102303 C20.8390568,24.5517915 20.0948809,24.2432422 19.3194467,24.2445969 C18.5440125,24.2459606 17.8009113,24.5571168 17.2537834,25.1095496 C16.7036754,25.6610811 16.39435,26.4099274 16.394008,27.1909804 C16.3936666,27.9720333 16.7023367,28.7211529 17.2519619,29.2731706 L17.4756479,29.4671934 C18.654055,30.3836787 20.3210887,30.2997748 21.4025526,29.2695473 C21.950614,28.7180521 22.2581665,27.9701727 22.2574844,27.1906012 C22.2568,26.4110296 21.9479371,25.6636963 21.3989098,25.1131729 L21.3880975,25.102303 Z M21.3628302,9.75521362 C20.8060348,9.21162069 20.0572126,8.91271654 19.2811626,8.92428331 C18.5051127,8.93585009 17.7654335,9.25693986 17.2249119,9.81688795 L17.0300974,10.0525984 C16.6026062,10.6202516 16.3789203,11.3220454 16.3988009,12.0383325 L16.4023662,12.1326167 C16.4835551,13.1771453 17.6524031,18.5485389 17.9716942,22.4927738 L20.7369204,22.4927738 C21.0958952,18.4071126 22.253931,12.7909307 22.253931,12.0383325 C22.279215,11.1887207 21.9587102,10.3654965 21.366473,9.7588759 L21.3628302,9.75521362 Z" id="形状" fill="url(#linearGradient-1)"></path>
    </g>
</svg>