<?xml version="1.0" encoding="UTF-8"?>
<svg width="16px" height="16px" viewBox="0 0 16 16" version="1.1" xmlns="http://www.w3.org/2000/svg" xmlns:xlink="http://www.w3.org/1999/xlink">
    <title>形状</title>
    <g id="Page-1" stroke="none" stroke-width="1" fill="none" fill-rule="evenodd" opacity="0.600000024">
        <g id="雪碧图" transform="translate(-444.000000, -124.000000)" fill="#FFFFFF" fill-rule="nonzero">
            <path d="M457.118145,136.106667 L459.788485,138.777333 C459.923826,138.911018 460,139.093326 460,139.283555 C460,139.473784 459.923826,139.656093 459.788485,139.789778 C459.654001,139.923773 459.472088,139.999314 459.282241,140 C459.092394,139.999314 458.91048,139.923773 458.775996,139.789778 L456.106544,137.12 C453.163767,139.541744 448.863034,139.333256 446.168326,136.638222 C444.051314,134.52095 443.417984,131.337073 444.563584,128.570866 C445.709185,125.804659 448.408178,124.000713 451.402336,124 C455.490517,124 458.804442,127.314222 458.804442,131.403111 C458.804442,133.156444 458.185748,134.808444 457.1177,136.107111 L457.118145,136.106667 Z M451.402336,125.433333 C448.107079,125.438667 445.437627,128.108444 445.432294,131.403555 C445.432294,134.700444 448.105301,137.373778 451.402336,137.373778 C454.699371,137.373778 457.371934,134.700444 457.371934,131.403555 C457.371934,128.106222 454.699371,125.433333 451.402336,125.433333 Z" id="形状"></path>
        </g>
    </g>
</svg>