<?xml version="1.0" encoding="UTF-8"?>
<svg width="9px" height="9px" viewBox="0 0 9 9" version="1.1" xmlns="http://www.w3.org/2000/svg" xmlns:xlink="http://www.w3.org/1999/xlink">
    <title>路径</title>
    <g id="PC端" stroke="none" stroke-width="1" fill="none" fill-rule="evenodd">
        <g id="模板管理" transform="translate(-199.000000, -249.000000)" fill="#F66E6E" fill-rule="nonzero">
            <g id="win-copy-2备份" transform="translate(30.000000, 30.000000)">
                <g id="编组-14" transform="translate(12.000000, 210.000000)">
                    <path d="M166,9.21403092 C166,9.09631391 165.906574,9 165.792388,9 L164.079585,9.00802616 L161.5,12.1783591 L158.92301,9.01070155 L157.207612,9.00267539 C157.093426,9.00267539 157,9.09631391 157,9.2167063 C157,9.26753864 157.018166,9.3156956 157.049308,9.3558264 L160.425606,13.5026754 L157.049308,17.646849 C157.018166,17.6869798 157,17.7351367 157,17.7859691 C157,17.9036861 157.093426,18 157.207612,18 L158.92301,17.9919738 L161.5,14.8216409 L164.07699,17.9892985 L165.789792,17.9973246 C165.903979,17.9973246 165.997405,17.9036861 165.997405,17.7832937 C165.997405,17.7324614 165.979239,17.6843044 165.948097,17.6441736 L162.57699,13.5 L165.953287,9.35315101 C165.984429,9.3156956 166,9.26486326 166,9.21403092 Z" id="路径"></path>
                </g>
            </g>
        </g>
    </g>
</svg>