<?xml version="1.0" encoding="UTF-8"?>
<svg width="14px" height="15px" viewBox="0 0 14 15" version="1.1" xmlns="http://www.w3.org/2000/svg" xmlns:xlink="http://www.w3.org/1999/xlink">
    <title>形状</title>
    <g id="页面-1" stroke="none" stroke-width="1" fill="none" fill-rule="evenodd">
        <g id="会议中的会议详情" transform="translate(-1080.000000, -367.000000)" fill="#CCCCCC" fill-rule="nonzero">
            <g id="弹窗" transform="translate(554.000000, 143.000000)">
                <g id="编组-6备份" transform="translate(510.000000, 158.000000)">
                    <g id="编组-10" transform="translate(16.000000, 57.000000)">
                        <path d="M7.00043689,13.2540304 C6.28200159,13.2540304 5.60501449,13.5303516 5.09727416,14.032911 C4.58780682,14.5354703 4.30803154,15.2020953 4.30803154,15.9118956 C4.30803154,16.6216958 4.58780682,17.2883209 5.09727416,17.7908802 C5.60501449,18.2934395 6.28200159,18.5697608 7.00043689,18.5697608 C7.71887218,18.5697608 8.39585929,18.2934395 8.90359962,17.7908802 C9.41306696,17.2883209 9.69284224,16.6216958 9.69284224,15.9118956 C9.69284224,15.2020953 9.41306696,14.5354703 8.90359962,14.032911 C8.39413228,13.5286246 7.71714518,13.2540304 7.00043689,13.2540304 Z M8.60655426,16.0742343 C8.53229292,16.8203017 7.92093211,17.4247545 7.16450264,17.4972888 C6.14384096,17.5974553 5.29069904,16.7564024 5.39259251,15.7478298 C5.46685385,15.0017624 6.07821466,14.3973096 6.83464413,14.3247753 C7.85530581,14.2246088 8.70844772,15.0656617 8.60655426,16.0742343 L8.60655426,16.0742343 Z M14,15.9118956 C14,11.6979962 10.1833125,8.36659796 5.77771528,9.10230333 C3.05422378,9.55650641 0.46198489,12.1971015 0.0734081076,14.8981419 C-0.391157024,18.1172847 1.39629618,20.9875719 4.1042446,22.2068395 C2.91260913,22.5643301 1.81423209,23.1411507 0.860923721,23.8854912 L13.138223,23.8854912 C12.1831877,23.1411507 11.0865376,22.5643301 9.89490217,22.2051124 C12.3161673,21.1170975 14,18.7096484 14,15.9118956 Z M7.19558878,19.6284166 C4.95911352,19.7406721 3.1233041,17.9255868 3.23555961,15.7184707 C3.33227206,13.827397 4.8883062,12.292087 6.80183098,12.1953745 C9.03830624,12.083119 10.8741157,13.8982043 10.7618601,16.1053205 C10.6651477,17.9963941 9.11084057,19.5317042 7.19558878,19.6284166 Z" id="形状"></path>
                    </g>
                </g>
            </g>
        </g>
    </g>
</svg>