<?xml version="1.0" encoding="UTF-8"?>
<svg width="11px" height="24px" viewBox="0 0 11 24" version="1.1" xmlns="http://www.w3.org/2000/svg" xmlns:xlink="http://www.w3.org/1999/xlink">
    <title>形状</title>
    <g id="页面-1" stroke="none" stroke-width="1" fill="none" fill-rule="evenodd">
        <g id="会议中的会议详情" transform="translate(-1082.000000, -427.000000)" fill="#CCCCCC" fill-rule="nonzero">
            <g id="弹窗" transform="translate(554.000000, 143.000000)">
                <g id="编组-6备份" transform="translate(510.000000, 158.000000)">
                    <g id="编组-10" transform="translate(16.000000, 57.000000)">
                        <path d="M5.17650687,69 C5.5422296,69 5.8467782,69.2729428 5.87685055,69.6274714 L5.87866805,69.6541071 L6.09276965,74.4645643 L6.63608125,74.4645643 L6.63608125,75.6837964 L11.3022118,75.6837964 C12.2273198,75.6837964 12.9794017,76.4033143 12.9996365,77.2982036 L13,77.3350929 L13,90.9201321 C13,91.8197357 12.2603983,92.5513929 11.3400159,92.5709571 L11.3022118,92.5714286 L3.43606803,92.5714286 C2.51229292,92.5714286 2.01454001,91.853325 2.00024233,90.9596143 L2,90.92025 L2,77.3350929 C2,76.4354893 2.73972286,75.7038321 3.65949947,75.6842679 L3.69742466,75.6837964 L3.71499383,75.6837964 L3.71499383,74.4645643 L4.25769959,74.4645643 L4.4743457,69.6537536 C4.49081804,69.2881753 4.80030188,69 5.17650687,69 Z M4.91407286,83.9285714 L3.80021286,83.9285714 C3.73954462,83.9285405 3.68135218,83.9568179 3.63844395,84.0071796 C3.59553572,84.0575413 3.57142857,84.1258595 3.57142857,84.1970971 L3.57142857,85.2314743 C3.57142857,85.3027119 3.59553572,85.3710301 3.63844395,85.4213918 C3.68135218,85.4717535 3.73954462,85.5000309 3.80021286,85.5 L4.91407286,85.5 C4.9747411,85.5000309 5.03293353,85.4717535 5.07584176,85.4213918 C5.11874999,85.3710301 5.14285714,85.3027119 5.14285714,85.2314743 L5.14285714,84.1970971 C5.14285714,84.1258595 5.11874999,84.0575413 5.07584176,84.0071796 C5.03293353,83.9568179 4.9747411,83.9285405 4.91407286,83.9285714 L4.91407286,83.9285714 Z M8.05711399,83.9285714 L6.94308444,83.9285714 C6.88241237,83.9285405 6.82421627,83.9568179 6.78130533,84.0071796 C6.73839439,84.0575413 6.71428571,84.1258595 6.71428571,84.1970971 L6.71428571,85.2314743 C6.71428571,85.3027119 6.73839439,85.3710301 6.78130533,85.4213918 C6.82421627,85.4717535 6.88241237,85.5000309 6.94308444,85.5 L8.05701477,85.5 C8.18332203,85.5 8.28571429,85.3797769 8.28571429,85.2314743 L8.28571429,84.1970971 C8.28571429,84.0487945 8.18332203,83.9285714 8.05701477,83.9285714 L8.05711399,83.9285714 Z M11.1998864,83.9285714 L10.0859271,83.9285714 C10.0252589,83.9285405 9.96706647,83.9568179 9.92415824,84.0071796 C9.88125001,84.0575413 9.85714286,84.1258595 9.85714286,84.1970971 L9.85714286,85.2314743 C9.85714286,85.3027119 9.88125001,85.3710301 9.92415824,85.4213918 C9.96706647,85.4717535 10.0252589,85.5000309 10.0859271,85.5 L11.1998864,85.5 C11.3261856,85.5 11.4285714,85.3797769 11.4285714,85.2314743 L11.4285714,84.1970971 C11.4285714,84.0487945 11.3261856,83.9285714 11.1998864,83.9285714 Z M10.7761183,76.8571429 L4.22388175,76.8571429 C3.86354181,76.8571429 3.57142857,77.1671024 3.57142857,77.5494568 L3.57142857,81.6649573 C3.57142857,82.0472616 3.86358905,82.3571429 4.22388175,82.3571429 L10.7762392,82.3571429 C11.1364847,82.357072 11.4285714,82.0472114 11.4285714,81.6649573 L11.4285714,77.5493285 C11.4285714,77.1670241 11.136411,76.8571429 10.7761183,76.8571429 Z M10.5242588,77.6428571 C10.5897588,77.6428571 10.6428571,77.6995953 10.6428571,77.7695853 L10.6428571,81.4447005 C10.6428571,81.5146905 10.5897588,81.5714286 10.5242588,81.5714286 L4.47574124,81.5714286 C4.41024116,81.5714286 4.35714286,81.5146905 4.35714286,81.4447005 L4.35714286,77.7695853 C4.35714286,77.6995953 4.41024116,77.6428571 4.47574124,77.6428571 L10.5242588,77.6428571 Z" id="形状"></path>
                    </g>
                </g>
            </g>
        </g>
    </g>
</svg>