<?xml version="1.0" encoding="UTF-8"?>
<svg width="17px" height="15px" viewBox="0 0 17 15" version="1.1" xmlns="http://www.w3.org/2000/svg" xmlns:xlink="http://www.w3.org/1999/xlink">
    <title>形状</title>
    <g id="页面-1" stroke="none" stroke-width="1" fill="none" fill-rule="evenodd">
        <g id="会议中的会议详情" transform="translate(-1081.000000, -399.000000)" fill="#CCCCCC" fill-rule="nonzero">
            <g id="弹窗" transform="translate(554.000000, 143.000000)">
                <g id="编组-6备份" transform="translate(510.000000, 158.000000)">
                    <g id="编组-10" transform="translate(16.000000, 57.000000)">
                        <path d="M4.40666662,50.7779443 L2.70333331,50.7779443 L2.70333331,48.6487777 L1,48.3344721 L1,55.1944442 L2.70333331,54.6428887 L2.70333331,52.2764721 L5.46111105,52.2764721 L6.92111103,50.3054721 L4.97444439,49.2794166 L4.40666662,50.7779443 Z M13.2477776,51.1713332 L17.222222,48.7258332 L4.89333328,41 L3.4333333,41 L1.48666666,43.9179722 L1.48666666,44.9440277 L12.3555554,51.2524443 L13.2477776,51.1713332 Z M11.7877776,51.7228887 L2.45999998,45.8889722 L1.48666666,46.9150277 L12.3555554,53.2234443 L13.3288887,53.2234443 L13.8155554,52.7489443 L14.302222,51.3294999 L12.8422221,52.3555554 C12.1913054,51.8810554 11.7877776,51.7228887 11.7877776,51.7228887 L11.7877776,51.7228887 Z" id="形状"></path>
                    </g>
                </g>
            </g>
        </g>
    </g>
</svg>