<?xml version="1.0" encoding="UTF-8"?>
<svg width="11px" height="24px" viewBox="0 0 11 24" version="1.1" xmlns="http://www.w3.org/2000/svg" xmlns:xlink="http://www.w3.org/1999/xlink">
    <title>形状备份 11</title>
    <g id="页面-1" stroke="none" stroke-width="1" fill="none" fill-rule="evenodd">
        <g id="会议中的会议详情" transform="translate(-1082.000000, -494.000000)" fill="#CCCCCC" fill-rule="nonzero">
            <g id="弹窗" transform="translate(554.000000, 143.000000)">
                <g id="编组-6备份" transform="translate(510.000000, 158.000000)">
                    <g id="编组-10" transform="translate(16.000000, 57.000000)">
                        <path d="M5.17650687,136 C5.5422296,136 5.8467782,136.272943 5.87685055,136.627471 L5.87866805,136.654107 L6.09276965,141.464564 L6.63608125,141.464564 L6.63608125,142.683796 L11.3022118,142.683796 C12.2273198,142.683796 12.9794017,143.403314 12.9996365,144.298204 L13,144.335093 L13,157.920132 C13,158.004191 12.9935425,158.086784 12.9810834,158.167466 C12.9045283,156.457114 11.4521972,155.106189 9.68441063,155.105966 L9.68441063,155.105966 L8.58452062,155.105966 C8.5146776,155.105966 8.44538453,155.1081 8.37719134,155.111833 C9.52997679,155.78784 10.2340478,156.999464 10.2332557,158.305901 L10.2332557,158.305901 L12.953455,158.305765 C12.7777222,159.020215 12.1245445,159.554281 11.3400159,159.570957 L11.3022118,159.571429 L3.43606803,159.571429 C2.6352414,159.571429 2.15458189,159.031754 2.03150733,158.305845 L9.68331074,158.305901 C9.68331074,156.538626 8.20599815,155.105966 6.38364071,155.105966 L6.38364071,155.105966 L5.28375069,155.105966 C3.57408382,155.105966 2.16810759,156.366919 2.00076026,157.982146 C2.00052742,157.975138 2.00036661,157.967383 2.00024233,157.959614 L2,144.335093 C2,143.435489 2.73972286,142.703832 3.65949947,142.684268 L3.69742466,142.683796 L3.71499383,142.683796 L3.71499383,141.464564 L4.25769959,141.464564 L4.4743457,136.653754 C4.49081804,136.288175 4.80030188,136 5.17650687,136 Z M8.58452062,150.306061 C8.28164459,150.305549 7.98197764,150.366214 7.70460861,150.484194 C8.26643634,150.988258 8.58544953,151.697103 8.58452062,152.439354 C8.58545433,153.18198 8.26599566,153.891123 7.70350872,154.395048 C8.52337516,154.741494 9.47791657,154.572104 10.1181494,153.966553 C10.7583823,153.361002 10.9568567,152.439836 10.6202171,151.636339 C10.2835775,150.832842 9.47883805,150.306966 8.58452062,150.306061 Z M4.73485697,150.591735 C4.05421796,150.972847 3.63495541,151.677164 3.63501557,152.439354 C3.63495541,153.201544 4.05421796,153.905862 4.73485697,154.286973 C5.41549598,154.668085 6.2540952,154.668085 6.93473421,154.286973 C7.61537323,153.905862 8.03463577,153.201544 8.03457561,152.439354 C8.03463577,151.677164 7.61537323,150.972847 6.93473421,150.591735 C6.2540952,150.210623 5.41549598,150.210623 4.73485697,150.591735 Z M10.7761183,143.857143 L4.22388175,143.857143 C3.86354181,143.857143 3.57142857,144.167102 3.57142857,144.549457 L3.57142857,148.664957 C3.57142857,149.047262 3.86358905,149.357143 4.22388175,149.357143 L10.7762392,149.357143 C11.1364847,149.357072 11.4285714,149.047211 11.4285714,148.664957 L11.4285714,144.549328 C11.4285714,144.167024 11.136411,143.857143 10.7761183,143.857143 Z M10.5242588,144.642857 C10.5897588,144.642857 10.6428571,144.699595 10.6428571,144.769585 L10.6428571,148.4447 C10.6428571,148.51469 10.5897588,148.571429 10.5242588,148.571429 L4.47574124,148.571429 C4.41024116,148.571429 4.35714286,148.51469 4.35714286,148.4447 L4.35714286,144.769585 C4.35714286,144.699595 4.41024116,144.642857 4.47574124,144.642857 L10.5242588,144.642857 Z" id="形状备份-11"></path>
                    </g>
                </g>
            </g>
        </g>
    </g>
</svg>