<?xml version="1.0" encoding="UTF-8"?>
<svg width="14px" height="14px" viewBox="0 0 14 14" version="1.1" xmlns="http://www.w3.org/2000/svg" xmlns:xlink="http://www.w3.org/1999/xlink">
    <title>形状</title>
    <g id="页面-1" stroke="none" stroke-width="1" fill="none" fill-rule="evenodd">
        <g id="发起会议" transform="translate(-1080.000000, -579.000000)" fill="#CCCCCC" fill-rule="nonzero">
            <g id="弹窗备份" transform="translate(1038.000000, 143.000000)">
                <g id="编组-6备份" transform="translate(20.000000, 101.000000)">
                    <path d="M35.6956522,335 L29.9130435,335 C29.7456522,335 29.6086957,335.136957 29.6086957,335.304348 L29.6086957,341.086957 C29.6086957,341.254348 29.7456522,341.391304 29.9130435,341.391304 L35.6956522,341.391304 C35.8630435,341.391304 36,341.254348 36,341.086957 L36,335.304348 C36,335.136957 35.8630435,335 35.6956522,335 Z M35.6956522,342.608696 L29.9130435,342.608696 C29.7456522,342.608696 29.6086957,342.745652 29.6086957,342.913043 L29.6086957,348.695652 C29.6086957,348.863043 29.7456522,349 29.9130435,349 L35.6956522,349 C35.8630435,349 36,348.863043 36,348.695652 L36,342.913043 C36,342.745652 35.8630435,342.608696 35.6956522,342.608696 Z M28.0869565,335 L22.3043478,335 C22.1369565,335 22,335.136957 22,335.304348 L22,341.086957 C22,341.254348 22.1369565,341.391304 22.3043478,341.391304 L28.0869565,341.391304 C28.2543478,341.391304 28.3913043,341.254348 28.3913043,341.086957 L28.3913043,335.304348 C28.3913043,335.136957 28.2543478,335 28.0869565,335 Z M28.0869565,342.608696 L22.3043478,342.608696 C22.1369565,342.608696 22,342.745652 22,342.913043 L22,348.695652 C22,348.863043 22.1369565,349 22.3043478,349 L28.0869565,349 C28.2543478,349 28.3913043,348.863043 28.3913043,348.695652 L28.3913043,342.913043 C28.3913043,342.745652 28.2543478,342.608696 28.0869565,342.608696 Z" id="形状"></path>
                </g>
            </g>
        </g>
    </g>
</svg>