<?xml version="1.0" encoding="UTF-8"?>
<svg width="12px" height="18px" viewBox="0 0 12 18" version="1.1" xmlns="http://www.w3.org/2000/svg" xmlns:xlink="http://www.w3.org/1999/xlink">
    <title>形状</title>
    <g id="页面-1" stroke="none" stroke-width="1" fill="none" fill-rule="evenodd">
        <g id="会议中的会议详情" transform="translate(-1082.000000, -465.000000)" fill="#CCCCCC" fill-rule="nonzero">
            <g id="弹窗" transform="translate(554.000000, 143.000000)">
                <g id="编组-6备份" transform="translate(510.000000, 158.000000)">
                    <g id="编组-10" transform="translate(16.000000, 57.000000)">
                        <path d="M3.94226139,107.784 L12.1536826,107.784 C12.9838263,107.784 13.663944,108.464118 13.663944,109.294261 L13.663944,123.306687 C13.663944,124.13683 12.9838263,124.816948 12.1536826,124.816948 L3.94226139,124.816948 C3.11211771,124.816948 2.432,124.13683 2.432,123.306687 L2.432,109.294261 C2.432,108.464118 3.11211771,107.784 3.94226139,107.784 Z M3.69221812,110.214421 L3.69221812,116.205458 L12.3537172,116.205458 L12.3537172,110.214421 L3.69221812,110.214421 Z M5.91260241,108.574137 L5.91260241,109.214248 L9.85328446,109.214248 L9.85328446,108.574137 L5.91260241,108.574137 Z M7.14281534,116.85557 C6.85276514,116.85557 6.61272359,117.095612 6.61272359,117.385662 L6.61272359,118.205804 C6.61272359,118.495854 6.85276514,118.735896 7.14281534,118.735896 L8.75309404,118.735896 C9.04314424,118.735896 9.28318579,118.495854 9.28318579,118.205804 L9.28318579,117.385662 C9.28318579,117.095612 9.04314424,116.85557 8.75309404,116.85557 L7.14281534,116.85557 Z M6.23265781,117.505683 L3.84224408,117.505683 L3.84224408,118.085783 L6.23265781,118.085783 L6.23265781,117.505683 Z M12.0536653,117.505683 L9.66325157,117.505683 L9.66325157,118.085783 L12.0536653,118.085783 L12.0536653,117.505683 Z M6.22265608,119.245984 L3.83224235,119.245984 L3.83224235,120.376179 L6.22265608,120.376179 L6.22265608,119.245984 Z M9.14316155,119.245984 L6.74274609,119.245984 L6.74274609,120.376179 L9.13315982,120.376179 L9.13315982,119.245984 L9.14316155,119.245984 Z M12.0336618,119.245984 L9.64324811,119.245984 L9.64324811,120.376179 L12.0336618,120.376179 L12.0336618,119.245984 L12.0336618,119.245984 Z M6.22265608,120.716238 L3.83224235,120.716238 L3.83224235,121.846434 L6.22265608,121.846434 L6.22265608,120.716238 L6.22265608,120.716238 Z M9.14316155,120.716238 L6.74274609,120.716238 L6.74274609,121.846434 L9.13315982,121.846434 L9.13315982,120.716238 L9.14316155,120.716238 Z M12.0336618,120.716238 L9.64324811,120.716238 L9.64324811,121.846434 L12.0336618,121.846434 L12.0336618,120.716238 L12.0336618,120.716238 Z M6.22265608,122.28651 L3.83224235,122.28651 L3.83224235,123.416706 L6.22265608,123.416706 L6.22265608,122.28651 L6.22265608,122.28651 Z M9.14316155,122.28651 L6.74274609,122.28651 L6.74274609,123.416706 L9.13315982,123.416706 L9.13315982,122.28651 L9.14316155,122.28651 Z M12.0336618,122.28651 L9.64324811,122.28651 L9.64324811,123.416706 L12.0336618,123.416706 L12.0336618,122.28651 L12.0336618,122.28651 Z" id="形状"></path>
                    </g>
                </g>
            </g>
        </g>
    </g>
</svg>