<?xml version="1.0" encoding="UTF-8"?>
<svg width="184px" height="184px" viewBox="0 0 184 184" version="1.1" xmlns="http://www.w3.org/2000/svg" xmlns:xlink="http://www.w3.org/1999/xlink">
    <title>Shape</title>
    <g id="Page-1" stroke="none" stroke-width="1" fill="none" fill-rule="evenodd">
        <g id="雪碧图" transform="translate(-1216.000000, -237.000000)" fill="#56E9FF" fill-rule="nonzero">
            <g id="clear" transform="translate(1216.000000, 237.000000)">
                <path d="M91.796875,0.130208398 C41.1802084,0.130208398 0.130208398,41.1802084 0.130208398,91.796875 C0.130208398,142.413542 41.1802084,183.463542 91.796875,183.463542 C142.413542,183.463542 183.463542,142.413542 183.463542,91.796875 C183.463542,41.1802084 142.413542,0.130208398 91.796875,0.130208398 Z M135.005208,125.755208 C136.78231,127.381225 137.52356,129.851425 136.93531,132.187229 C136.347059,134.523033 134.524238,136.347497 132.188965,136.93785 C129.853691,137.528204 127.382825,136.789178 125.755208,135.013542 L91.796875,101.055208 L57.846875,135.005208 C56.2208583,136.782309 53.7506582,137.523559 51.4148546,136.935308 C49.0790509,136.347058 47.2545881,134.524237 46.6642345,132.188964 C46.0738809,129.853691 46.8129059,127.382825 48.5885416,125.755208 L82.5385416,91.796875 L48.5885416,57.846875 C46.2197378,55.2626463 46.3055932,51.2714621 48.7833343,48.7914887 C51.2610755,46.3115153 55.2521808,46.2220658 57.8385416,48.5885416 L91.796875,82.5385416 L125.746875,48.5885416 C128.331104,46.2197378 132.322288,46.3055932 134.802261,48.7833343 C137.282235,51.2610755 137.371684,55.2521808 135.005208,57.8385416 L101.055208,91.796875 L135.005208,125.755208 L135.005208,125.755208 Z" id="Shape"></path>
            </g>
        </g>
    </g>
</svg>