<?xml version="1.0" standalone="no"?><!DOCTYPE svg PUBLIC "-//W3C//DTD SVG 1.1//EN" "http://www.w3.org/Graphics/SVG/1.1/DTD/svg11.dtd"><svg t="1625124478787" class="icon" viewBox="0 0 1024 1024" version="1.1" xmlns="http://www.w3.org/2000/svg" p-id="1250" xmlns:xlink="http://www.w3.org/1999/xlink" width="48" height="48"><defs><style type="text/css"></style></defs><path d="M804 417c-18.61 0-34.081 14.176-35.835 32.528l-0.086 1.022-0.239 0.4A5.933 5.933 0 0 0 767 454c0 141.405-114.595 256-256 256-60 0-116.866-20.775-162.161-58.005l-1.37-1.133-1.361-1.142-51.184 51.184 1.345 1.168c48.075 41.472 107.313 68.522 171.075 77.422l1.933 0.264 1.976 0.258 1.747 0.223V886H335c-19.33 0-35 15.67-35 35 0 19.137 15.358 34.686 34.421 35H689c19.33 0 35-15.67 35-35 0-19.137-15.358-34.686-34.421-34.995L689 886H545V780.218l6.624-0.767C710.434 759.868 832.5 627.453 838.74 466.967l0.153-4.871 0.006-0.22 0.052-0.212A36.087 36.087 0 0 0 840 453c0-19.882-16.118-36-36-36z m22.403-375.403c-13.145-13.145-34.376-13.276-47.683-0.394l-0.4 0.394L661.61 158.304l-1.829-3.49C631.006 100.683 574.081 66 511 66c-91.84 0-166.494 72.897-167.977 163.257L343 232v223.99l0.007 1.536c0.047 5.08 0.327 10.1 0.84 15.054l0.162 1.485 0.193 1.65-71.041 71.04-1.304-3.511A254.277 254.277 0 0 1 256 455.41l0.001-1.342-0.006-0.128-0.003-0.15c0.006-0.264 0.009-0.527 0.009-0.791 0-19.882-16.118-36-36-36s-36 16.118-36 36l0.001 0.326 0.005 0.338L184 454c0 50.75 11.539 99.846 33.424 144.55l0.666 1.354 0.637 1.287L103.74 716.177c-13.278 13.278-13.278 34.806 0 48.083 13.145 13.146 34.375 13.277 47.682 0.395l0.4-0.395 674.58-674.58c13.278-13.277 13.278-34.805 0-48.083zM680 315.828l-72 72v67.192l-0.016 1.535c-0.947 51.295-43.617 92.546-95.974 92.445-18.118 0.095-35.448-4.752-50.855-13.944l-0.849-0.513-51.288 52.237 0.85 0.633c28.655 21.19 63.37 33.102 99.883 33.573l1.107 0.01L512 621c91.845 0 166.494-72.802 167.977-163.254L680 455V315.828zM511.014 138l1.392 0.01c44.8 0.629 82.894 31.526 92.324 73.75l0.277 1.283 0.308 1.558L415 404.917V231.983l0.014-1.531c0.84-50.688 42.67-91.626 94.416-92.44l1.585-0.012z" p-id="1251" fill="#ffffff"></path></svg>