<?xml version="1.0" encoding="UTF-8"?>
<svg width="42px" height="24px" viewBox="0 0 42 24" version="1.1" xmlns="http://www.w3.org/2000/svg" xmlns:xlink="http://www.w3.org/1999/xlink">
    <title>编组 21</title>
    <g id="页面-1" stroke="none" stroke-width="1" fill="none" fill-rule="evenodd">
        <g id="弹窗" transform="translate(-1019.000000, -166.000000)" fill="#FFFFFF" fill-rule="nonzero">
            <g id="直播窗口" transform="translate(430.000000, 100.000000)">
                <g id="直播中" transform="translate(580.000000, 58.000000)">
                    <g id="编组-21" transform="translate(9.000000, 8.000000)">
                        <path d="M20.9999941,7.00000781 C21.666666,7.00000781 22.0000098,7.33333594 22.0000098,7.99999219 L22.0000098,16.0000078 C22.0000098,16.6666641 21.666666,16.9999922 20.9999941,16.9999922 C20.3333379,16.9999922 20.0000098,16.6666641 20.0000098,16.0000078 L20.0000098,7.99999219 C20.0000098,7.33333594 20.3333379,7.00000781 20.9999941,7.00000781 Z M26.000002,9 C26.666666,9 27.000002,9.33333594 27.000002,10 L27.000002,14 C27.000002,14.6666641 26.666666,15 26.000002,15 C25.3333379,15 25.000002,14.6666641 25.000002,14 L25.000002,10 C25.000002,9.33333594 25.3333379,9 26.000002,9 Z M30.9999941,0 C31.6666738,0 32.0000098,0.333335938 32.0000098,1 L32.0000098,23 C32.0000098,23.6666641 31.6666738,24 30.9999941,24 C30.3333301,24 29.9999941,23.6666641 29.9999941,23 L29.9999941,1 C29.9999941,0.333335938 30.3333301,0 30.9999941,0 Z M35.9999941,4.00000781 C36.666666,4.00000781 37.0000098,4.33333594 37.0000098,4.99999219 L37.0000098,19.0000078 C37.0000098,19.6666641 36.666666,19.9999922 35.9999941,19.9999922 C35.3333379,19.9999922 35.0000098,19.6666641 35.0000098,19.0000078 L35.0000098,4.99999219 C35.0000098,4.33333594 35.3333379,4.00000781 35.9999941,4.00000781 L35.9999941,4.00000781 Z M41.000002,10.0000078 C41.666666,10.0000078 42.000002,10.3333359 42.000002,10.9999922 L42.000002,13.0000078 C42.000002,13.6666641 41.666666,13.9999922 41.000002,13.9999922 C40.3333379,13.9999922 40.000002,13.6666641 40.000002,13.0000078 L40.000002,10.9999922 C40.000002,10.3333359 40.3333379,10.0000078 41.000002,10.0000078 L41.000002,10.0000078 Z" id="形状"></path>
                        <path d="M0.999984375,7.00000781 C1.66665625,7.00000781 2,7.33333594 2,7.99999219 L2,16.0000078 C2,16.6666641 1.66665625,16.9999922 0.999984375,16.9999922 C0.333328125,16.9999922 1.82964754e-13,16.6666641 1.82964754e-13,16.0000078 L1.82964754e-13,7.99999219 C1.82964754e-13,7.33333594 0.333328125,7.00000781 0.999984375,7.00000781 Z M5.99999219,9 C6.66665625,9 6.99999219,9.33333594 6.99999219,10 L6.99999219,14 C6.99999219,14.6666641 6.66665625,15 5.99999219,15 C5.33332813,15 4.99999219,14.6666641 4.99999219,14 L4.99999219,10 C4.99999219,9.33333594 5.33332813,9 5.99999219,9 Z M10.9999844,0 C11.6666641,0 12,0.333335938 12,1 L12,23 C12,23.6666641 11.6666641,24 10.9999844,24 C10.3333203,24 9.99998438,23.6666641 9.99998438,23 L9.99998438,1 C9.99998438,0.333335938 10.3333203,0 10.9999844,0 Z M17,4.99999219 L17,19.0000078 C17,19.6666641 16.6666563,19.9999922 15.9999844,19.9999922 C15.3333281,19.9999922 15,19.6666641 15,19.0000078 L15,4.99999219 C15,4.33333594 15.3333281,4.00000781 15.9999844,4.00000781 C16.6666563,4.00000781 17,4.33333594 17,4.99999219 Z M21.9999922,10.9999922 L21.9999922,13.0000078 C21.9999922,13.6666641 21.6666563,13.9999922 20.9999922,13.9999922 C20.3333281,13.9999922 19.9999922,13.6666641 19.9999922,13.0000078 L19.9999922,10.9999922 C19.9999922,10.3333359 20.3333281,10.0000078 20.9999922,10.0000078 C21.6666563,10.0000078 21.9999922,10.3333359 21.9999922,10.9999922 Z" id="形状" transform="translate(10.999996, 12.000000) scale(-1, 1) translate(-10.999996, -12.000000) "></path>
                    </g>
                </g>
            </g>
        </g>
    </g>
</svg>