<?xml version="1.0" encoding="UTF-8"?>
<svg width="13px" height="16px" viewBox="0 0 13 16" version="1.1" xmlns="http://www.w3.org/2000/svg" xmlns:xlink="http://www.w3.org/1999/xlink">
    <title>形状</title>
    <g id="Page-1" stroke="none" stroke-width="1" fill="none" fill-rule="evenodd" opacity="0.600000024">
        <g id="编组" transform="translate(-400.000000, -11.000000)" fill="#FFFFFF" fill-rule="nonzero">
            <path d="M412.86386,17.55946 C412.86386,13.93668 409.98418,11 406.43186,11 C402.87964,11 400,13.93668 400,17.55946 C400,17.67444 400.0111,17.78558 400.01692,17.89814 C400.01164,17.95374 400,18.00736 400,18.06442 C400,22.1017 405.93718,26.67484 405.93718,26.67484 C405.93718,26.67484 406.43192,27.0532 406.92668,26.67484 C407.42142,26.29606 412.86386,22.1017 412.86386,18.06442 C412.86386,18.00736 412.85222,17.95374 412.84694,17.89814 C412.8527,17.78558 412.86386,17.67444 412.86386,17.55946 L412.86386,17.55946 Z M406.43186,20.083 C405.06548,20.083 403.95812,18.95342 403.95812,17.55946 C403.95812,16.16648 405.06546,15.03686 406.43186,15.03686 C407.79832,15.03686 408.90574,16.16648 408.90574,17.55946 C408.90574,18.95342 407.79832,20.083 406.43186,20.083 L406.43186,20.083 Z" id="形状"></path>
        </g>
    </g>
</svg>