<?xml version="1.0" encoding="UTF-8"?>
<svg width="14px" height="12px" viewBox="0 0 14 12" version="1.1" xmlns="http://www.w3.org/2000/svg" xmlns:xlink="http://www.w3.org/1999/xlink">
    <title>文件</title>
    <defs>
        <filter id="filter-1">
            <feColorMatrix in="SourceGraphic" type="matrix" values="0 0 0 0 0.623529 0 0 0 0 0.784314 0 0 0 0 0.996078 0 0 0 1.000000 0"></feColorMatrix>
        </filter>
    </defs>
    <g id="任务管理" stroke="none" stroke-width="1" fill="none" fill-rule="evenodd">
        <g id="发布任务" transform="translate(-869.000000, -649.000000)">
            <g id="弹窗" transform="translate(304.000000, 100.000000)">
                <g id="文件" transform="translate(515.000000, 40.000000)" filter="url(#filter-1)">
                    <g transform="translate(50.000000, 509.000000)">
                        <path d="M7.63584906,2.75849057 L7.6490566,1.81509434 L12.2622642,1.81509434 C12.2622642,1.81509434 13.2433962,1.70660377 13.2433962,2.79622642 L13.2433962,10.8745283 C13.2433962,10.8745283 13.395283,11.9641509 12.3490566,11.9641509 L0.981132075,11.9641509 C0.981132075,11.9641509 0,12.1160377 0,10.8084906 L0,1.18301887 C0,1.18301887 0.0216981132,0.00660377358 1.22075472,0.00660377358 L5.53490566,0.00660377358 C5.53490566,0.00660377358 6.05849057,-0.102830189 6.49433962,0.572641509 C6.90754717,1.22641509 7.14811321,1.64056604 7.14811321,1.64056604 C7.14811321,1.64056604 7.29622642,1.81037736 7.63584906,1.81509434 L7.63584906,2.75849057 Z M11.3830189,5.20283019 C11.3804538,4.93885295 11.166812,4.72563084 10.9028302,4.72358491 L2.25849057,4.72358491 C1.9754717,4.72358491 1.75660377,4.94150943 1.75660377,5.20283019 L1.75660377,5.24716981 C1.75660377,5.53018868 1.9745283,5.74716981 2.25849057,5.74716981 L10.9028302,5.74716981 C11.0329429,5.7449442 11.1567942,5.69091487 11.246933,5.59705718 C11.3370718,5.50319949 11.3860525,5.37726618 11.3830189,5.24716981 L11.3830189,5.20283019 Z" id="形状" fill="#000000" fill-rule="nonzero"></path>
                    </g>
                </g>
            </g>
        </g>
    </g>
</svg>