<?xml version="1.0" encoding="UTF-8"?>
<svg width="15px" height="12px" viewBox="0 0 15 12" version="1.1" xmlns="http://www.w3.org/2000/svg" xmlns:xlink="http://www.w3.org/1999/xlink">
    <title>图片</title>
    <defs>
        <filter id="filter-1">
            <feColorMatrix in="SourceGraphic" type="matrix" values="0 0 0 0 0.623529 0 0 0 0 0.784314 0 0 0 0 0.996078 0 0 0 1.000000 0"></feColorMatrix>
        </filter>
    </defs>
    <g id="任务管理" stroke="none" stroke-width="1" fill="none" fill-rule="evenodd">
        <g id="发布任务" transform="translate(-840.000000, -649.000000)">
            <g id="弹窗" transform="translate(304.000000, 100.000000)">
                <g id="图片" transform="translate(515.000000, 40.000000)" filter="url(#filter-1)">
                    <g transform="translate(21.000000, 509.000000)">
                        <path d="M12.5393903,0.0046875 C13.5595771,0.0046875 14.3879535,0.756326486 14.3879535,1.68420564 L14.3879535,10.3143684 C14.3879535,11.2422476 13.56079,11.9938866 12.5394067,11.9938866 L1.87006665,11.9938866 C0.848699738,11.9938866 0.0203234266,11.2422476 0.0203234266,10.3143684 L0.0203234266,9.88280704 C-0.0037566179,9.7993921 -0.0037566179,9.71086795 0.0203234266,9.62745302 L0.0203234266,1.68422203 C0.0203234266,0.756342876 0.847503278,0.0046875 1.86887019,0.0046875 L12.5393903,0.0046875 Z M12.5393903,1.02725087 L1.87008304,1.02725087 C1.46726945,1.02725087 1.14599541,1.31976071 1.14120957,1.68420564 L1.14120957,7.1327524 C1.4109375,6.6436462 1.6758632,6.2264587 1.93719952,5.89079436 C2.38795345,5.30698754 2.82911932,4.95573645 3.28346263,4.82147072 C3.70184659,4.69679305 4.11062609,4.75192854 4.47746394,4.98569712 C5.71222684,5.7745083 7.1663844,7.48639642 7.9060424,8.41427557 C8.05469843,8.22005573 8.23449519,7.99469515 8.43591018,7.76692526 C9.27507102,6.81506774 10.0111396,6.3067854 10.6824683,6.22046001 C11.108031,6.16532452 11.4976508,6.27441543 11.8117297,6.54055398 C12.3392045,6.98650568 12.8451104,7.54874344 13.2622815,8.06302448 L13.2622815,1.6854021 C13.2622815,1.32335009 12.9374017,1.02605441 12.5394067,1.02605441 L12.5393903,1.02725087 Z M10.7915756,2.40229458 C11.4536565,2.40229458 11.9903792,2.93901721 11.9903792,3.60109812 C11.9903792,4.26317903 11.4536565,4.79990166 10.7915756,4.79990166 C10.1294947,4.79990166 9.59277207,4.26317903 9.59277207,3.60109812 C9.59277207,2.93901721 10.1294947,2.40229458 10.7915756,2.40229458 L10.7915756,2.40229458 Z" id="形状" fill="#000000" fill-rule="nonzero"></path>
                    </g>
                </g>
            </g>
        </g>
    </g>
</svg>