<?xml version="1.0" encoding="UTF-8"?>
<svg width="20px" height="20px" viewBox="0 0 20 20" version="1.1" xmlns="http://www.w3.org/2000/svg" xmlns:xlink="http://www.w3.org/1999/xlink">
    <title>形状结合备份 3</title>
    <g id="任务调度" stroke="none" stroke-width="1" fill="none" fill-rule="evenodd">
        <g id="已选物资" transform="translate(-1093.000000, -321.000000)" fill="#FFFFFF">
            <g id="弹窗" transform="translate(365.000000, 119.000000)">
                <g id="编组-2" transform="translate(16.000000, 186.000000)">
                    <path d="M722,16 C727.522847,16 732,20.4771525 732,26 C732,31.5228475 727.522847,36 722,36 C716.477153,36 712,31.5228475 712,26 C712,20.4771525 716.477153,16 722,16 Z M722,21 C721.447715,21 721,21.4477153 721,22 L721,22 L720.999,25 L718,25 C717.447715,25 717,25.4477153 717,26 C717,26.5522847 717.447715,27 718,27 L718,27 L720.999,27 L721,30 C721,30.5522847 721.447715,31 722,31 C722.552285,31 723,30.5522847 723,30 L723,30 L722.999,27 L726,27 C726.552285,27 727,26.5522847 727,26 C727,25.4477153 726.552285,25 726,25 L726,25 L722.999,25 L723,22 C723,21.4477153 722.552285,21 722,21 Z" id="形状结合备份-3"></path>
                </g>
            </g>
        </g>
    </g>
</svg>