<?xml version="1.0" encoding="UTF-8"?>
<svg width="16px" height="16px" viewBox="0 0 16 16" version="1.1" xmlns="http://www.w3.org/2000/svg" xmlns:xlink="http://www.w3.org/1999/xlink">
    <title>合并形状</title>
    <g id="任务调度" stroke="none" stroke-width="1" fill="none" fill-rule="evenodd">
        <g id="已选物资" transform="translate(-1477.000000, -251.000000)" fill="#FFFFFF" fill-rule="nonzero">
            <g id="弹窗" transform="translate(365.000000, 119.000000)">
                <g id="编组-2备份-6" transform="translate(802.000000, 117.000000)">
                    <path d="M323.127161,19.5655039 C323.442794,19.5665523 323.697503,19.8361442 323.696512,20.1689217 L323.696512,20.1689217 L323.696512,29.1939404 C323.696512,30.190176 322.930394,31 321.986494,31 L321.986494,31 L313.995768,31 C313.051868,31 312.282752,30.190176 312.282752,29.1939404 L312.282752,29.1939404 L312.282752,20.1594485 C312.282752,19.9983299 312.343695,19.8498484 312.449563,19.7371628 C312.557438,19.6255255 312.702265,19.5655039 312.854089,19.5655039 L312.854089,19.5655039 Z M319.702581,21.8482559 C319.386266,21.8482559 319.131008,22.0825025 319.131008,22.3739173 L319.131008,22.3739173 L319.131008,28.1717847 C319.131008,28.4631995 319.386266,28.6965117 319.702581,28.6965117 C320.016903,28.6965117 320.273159,28.4631995 320.273159,28.1717847 L320.273141,28.1717847 L320.273141,22.3739173 C320.273141,22.0834206 320.0179,21.8482559 319.702581,21.8482559 Z M316.278454,21.8482559 C315.962139,21.8482559 315.70688,22.0825025 315.70688,22.3739173 L315.70688,22.3739173 L315.70688,28.1717847 C315.70688,28.4631995 315.962139,28.6965117 316.278454,28.6965117 C316.592775,28.6965117 316.849031,28.4631995 316.849031,28.1717847 L316.849013,28.1717847 L316.849013,22.3739173 C316.849013,22.0834206 316.593772,21.8482559 316.278454,21.8482559 Z M320.658364,15 C321.597486,15 321.989772,15.4057237 321.990767,16.2140191 L321.990767,16.2140191 L321.990767,17.2740993 L325.419807,17.2740993 C325.792778,17.3901854 325.979264,17.5786728 325.979264,17.8395615 C325.979264,18.2308946 325.733855,18.4241279 325.418811,18.4241279 L325.418811,18.4241279 L310.560965,18.4241279 C310.245921,18.4241279 310,18.1101349 310,17.8395615 C310,17.5698405 310.244925,17.2740993 310.560965,17.2740993 L310.560965,17.2740993 L313.993509,17.2740993 L313.993509,16.2140191 C313.993509,15.4057237 314.463548,15 315.408661,15 L315.408661,15 Z" id="合并形状"></path>
                </g>
            </g>
        </g>
    </g>
</svg>