<?xml version="1.0" encoding="UTF-8"?>
<svg width="16px" height="16px" viewBox="0 0 16 16" version="1.1" xmlns="http://www.w3.org/2000/svg" xmlns:xlink="http://www.w3.org/1999/xlink">
    <title>合并形状</title>
    <g id="任务调度" stroke="none" stroke-width="1" fill="none" fill-rule="evenodd">
        <g id="已选物资" transform="translate(-1477.000000, -300.000000)" fill="#56E9FF" fill-rule="nonzero">
            <g id="弹窗" transform="translate(365.000000, 119.000000)">
                <g id="编组-2备份-6" transform="translate(802.000000, 117.000000)">
                    <g id="编组-6" transform="translate(11.000000, 61.000000)">
                        <path d="M312.127161,7.56550391 C312.442794,7.56655232 312.697503,7.8361442 312.696512,8.16892167 L312.696512,8.16892167 L312.696512,17.1939404 C312.696512,18.190176 311.930394,19 310.986494,19 L310.986494,19 L302.995768,19 C302.051868,19 301.282752,18.190176 301.282752,17.1939404 L301.282752,17.1939404 L301.282752,8.15944851 C301.282752,7.99832992 301.343695,7.84984845 301.449563,7.73716279 C301.557438,7.62552554 301.702265,7.56550391 301.854089,7.56550391 L301.854089,7.56550391 Z M308.702581,9.84825586 C308.386266,9.84825586 308.131008,10.0825025 308.131008,10.3739173 L308.131008,10.3739173 L308.131008,16.1717847 C308.131008,16.4631995 308.386266,16.6965117 308.702581,16.6965117 C309.016903,16.6965117 309.273159,16.4631995 309.273159,16.1717847 L309.273141,16.1717847 L309.273141,10.3739173 C309.273141,10.0834206 309.0179,9.84825586 308.702581,9.84825586 Z M305.278454,9.84825586 C304.962139,9.84825586 304.70688,10.0825025 304.70688,10.3739173 L304.70688,10.3739173 L304.70688,16.1717847 C304.70688,16.4631995 304.962139,16.6965117 305.278454,16.6965117 C305.592775,16.6965117 305.849031,16.4631995 305.849031,16.1717847 L305.849013,16.1717847 L305.849013,10.3739173 C305.849013,10.0834206 305.593772,9.84825586 305.278454,9.84825586 Z M309.658364,3 C310.597486,3 310.989772,3.4057237 310.990767,4.21401907 L310.990767,4.21401907 L310.990767,5.27409927 L314.419807,5.27409927 C314.792778,5.39018537 314.979264,5.57867277 314.979264,5.83956149 C314.979264,6.23089457 314.733855,6.42412793 314.418811,6.42412793 L314.418811,6.42412793 L299.560965,6.42412793 C299.245921,6.42412793 299,6.11013494 299,5.83956149 C299,5.56984048 299.244925,5.27409927 299.560965,5.27409927 L299.560965,5.27409927 L302.993509,5.27409927 L302.993509,4.21401907 C302.993509,3.4057237 303.463548,3 304.408661,3 L304.408661,3 Z" id="合并形状"></path>
                    </g>
                </g>
            </g>
        </g>
    </g>
</svg>