<?xml version="1.0" encoding="UTF-8"?>
<svg width="18px" height="18px" viewBox="0 0 18 18" version="1.1" xmlns="http://www.w3.org/2000/svg" xmlns:xlink="http://www.w3.org/1999/xlink">
    <title>形状</title>
    <g id="任务调度" stroke="none" stroke-width="1" fill="none" fill-rule="evenodd">
        <g id="已选物资" transform="translate(-1450.000000, -250.000000)" fill="#56E9FF" fill-rule="nonzero">
            <g id="弹窗" transform="translate(365.000000, 119.000000)">
                <g id="编组-2备份-6" transform="translate(802.000000, 117.000000)">
                    <path d="M291.10014,30.1444163 C287.837168,29.73248 285.26752,27.162832 284.855584,23.8998603 L283.449697,23.8998603 C283.201336,23.8998603 283,23.698524 283,23.4501629 L283,22.5498371 C283,22.301476 283.201336,22.1001397 283.449697,22.1001397 L284.855584,22.1001397 C285.26752,18.837168 287.837168,16.26752 291.10014,15.8555837 L291.10014,14.4496974 C291.10014,14.2013364 291.301476,14 291.549837,14 L292.450163,14 C292.698524,14 292.89986,14.2013364 292.89986,14.4496974 L292.89986,15.8555837 C296.162832,16.26752 298.73248,18.837168 299.144416,22.1001397 L300.550303,22.1001397 C300.798664,22.1001397 301,22.301476 301,22.5498371 L301,23.4501629 C301,23.698524 300.798664,23.8998603 300.550303,23.8998603 L299.144416,23.8998603 C298.73248,27.162832 296.162832,29.73248 292.89986,30.1444163 L292.89986,31.5503026 C292.89986,31.7986636 292.698524,32 292.450163,32 L291.549837,32 C291.301476,32 291.10014,31.7986636 291.10014,31.5503026 L291.10014,30.1444163 Z M292.000466,28.4005586 C294.982855,28.4005586 297.400559,25.9828546 297.400559,23.0004655 C297.400559,20.0180765 294.982855,17.6003724 292.000466,17.6003724 C289.018076,17.6003724 286.600372,20.0180765 286.600372,23.0004655 C286.600372,25.9828546 289.018076,28.4005586 292.000466,28.4005586 Z M292.000466,25.7005121 C290.509271,25.7005121 289.300419,24.4916601 289.300419,23.0004655 C289.300419,21.509271 290.509271,20.300419 292.000466,20.300419 C293.49166,20.300419 294.700512,21.509271 294.700512,23.0004655 C294.700512,24.4916601 293.49166,25.7005121 292.000466,25.7005121 Z" id="形状"></path>
                </g>
            </g>
        </g>
    </g>
</svg>