<?xml version="1.0" encoding="UTF-8"?>
<svg width="62px" height="62px" viewBox="0 0 62 62" version="1.1" xmlns="http://www.w3.org/2000/svg" xmlns:xlink="http://www.w3.org/1999/xlink">
    <title>拨号盘</title>
    <defs>
        <linearGradient x1="13.2282509%" y1="0%" x2="83.4174172%" y2="110.909073%" id="linearGradient-1">
            <stop stop-color="#3BF3A8" offset="0%"></stop>
            <stop stop-color="#46D0ED" offset="100%"></stop>
        </linearGradient>
        <circle id="path-2" cx="21" cy="21" r="21"></circle>
        <filter x="-35.7%" y="-35.7%" width="171.4%" height="171.4%" filterUnits="objectBoundingBox" id="filter-3">
            <feOffset dx="0" dy="0" in="SourceAlpha" result="shadowOffsetOuter1"></feOffset>
            <feGaussianBlur stdDeviation="5" in="shadowOffsetOuter1" result="shadowBlurOuter1"></feGaussianBlur>
            <feColorMatrix values="0 0 0 0 0   0 0 0 0 0.756862745   0 0 0 0 0.870588235  0 0 0 0.4 0" type="matrix" in="shadowBlurOuter1"></feColorMatrix>
        </filter>
        <path d="M12.3205128,15.3846154 C12.5966552,15.3846154 12.8205128,15.608473 12.8205128,15.8846154 L12.8205128,17.9615385 C12.8205128,18.2376808 12.5966552,18.4615385 12.3205128,18.4615385 L7.67948718,18.4615385 C7.4033448,18.4615385 7.17948718,18.2376808 7.17948718,17.9615385 L7.17948718,15.8846154 C7.17948718,15.608473 7.4033448,15.3846154 7.67948718,15.3846154 L12.3205128,15.3846154 Z M5.14102564,10.2564103 C5.41716802,10.2564103 5.64102564,10.4802679 5.64102564,10.7564103 L5.64102564,12.8333333 C5.64102564,13.1094757 5.41716802,13.3333333 5.14102564,13.3333333 L0.5,13.3333333 C0.223857625,13.3333333 3.38176876e-17,13.1094757 0,12.8333333 L0,10.7564103 C-1.4483999e-16,10.4802679 0.223857625,10.2564103 0.5,10.2564103 L5.14102564,10.2564103 Z M12.3205128,10.2564103 C12.5966552,10.2564103 12.8205128,10.4802679 12.8205128,10.7564103 L12.8205128,12.8333333 C12.8205128,13.1094757 12.5966552,13.3333333 12.3205128,13.3333333 L7.67948718,13.3333333 C7.4033448,13.3333333 7.17948718,13.1094757 7.17948718,12.8333333 L7.17948718,10.7564103 C7.17948718,10.4802679 7.4033448,10.2564103 7.67948718,10.2564103 L12.3205128,10.2564103 Z M19.5,10.2564103 C19.7761424,10.2564103 20,10.4802679 20,10.7564103 L20,12.8333333 C20,13.1094757 19.7761424,13.3333333 19.5,13.3333333 L14.8589744,13.3333333 C14.582832,13.3333333 14.3589744,13.1094757 14.3589744,12.8333333 L14.3589744,10.7564103 C14.3589744,10.4802679 14.582832,10.2564103 14.8589744,10.2564103 L19.5,10.2564103 Z M5.14102564,5.12820513 C5.41716802,5.12820513 5.64102564,5.35206275 5.64102564,5.62820513 L5.64102564,7.70512821 C5.64102564,7.98127058 5.41716802,8.20512821 5.14102564,8.20512821 L0.5,8.20512821 C0.223857625,8.20512821 3.38176876e-17,7.98127058 0,7.70512821 L0,5.62820513 C-1.4483999e-16,5.35206275 0.223857625,5.12820513 0.5,5.12820513 L5.14102564,5.12820513 Z M12.3205128,5.12820513 C12.5966552,5.12820513 12.8205128,5.35206275 12.8205128,5.62820513 L12.8205128,7.70512821 C12.8205128,7.98127058 12.5966552,8.20512821 12.3205128,8.20512821 L7.67948718,8.20512821 C7.4033448,8.20512821 7.17948718,7.98127058 7.17948718,7.70512821 L7.17948718,5.62820513 C7.17948718,5.35206275 7.4033448,5.12820513 7.67948718,5.12820513 L12.3205128,5.12820513 Z M19.5,5.12820513 C19.7761424,5.12820513 20,5.35206275 20,5.62820513 L20,7.70512821 C20,7.98127058 19.7761424,8.20512821 19.5,8.20512821 L14.8589744,8.20512821 C14.582832,8.20512821 14.3589744,7.98127058 14.3589744,7.70512821 L14.3589744,5.62820513 C14.3589744,5.35206275 14.582832,5.12820513 14.8589744,5.12820513 L19.5,5.12820513 Z M5.14102564,0 C5.41716802,-5.07265313e-17 5.64102564,0.223857625 5.64102564,0.5 L5.64102564,2.57692308 C5.64102564,2.85306545 5.41716802,3.07692308 5.14102564,3.07692308 L0.5,3.07692308 C0.223857625,3.07692308 3.38176876e-17,2.85306545 0,2.57692308 L0,0.5 C-1.4483999e-16,0.223857625 0.223857625,5.07265313e-17 0.5,0 L5.14102564,0 Z M12.3205128,0 C12.5966552,-5.07265313e-17 12.8205128,0.223857625 12.8205128,0.5 L12.8205128,2.57692308 C12.8205128,2.85306545 12.5966552,3.07692308 12.3205128,3.07692308 L7.67948718,3.07692308 C7.4033448,3.07692308 7.17948718,2.85306545 7.17948718,2.57692308 L7.17948718,0.5 C7.17948718,0.223857625 7.4033448,5.07265313e-17 7.67948718,0 L12.3205128,0 Z M19.5,0 C19.7761424,-5.41253928e-16 20,0.223857625 20,0.5 L20,2.57692308 C20,2.85306545 19.7761424,3.07692308 19.5,3.07692308 L14.8589744,3.07692308 C14.582832,3.07692308 14.3589744,2.85306545 14.3589744,2.57692308 L14.3589744,0.5 C14.3589744,0.223857625 14.582832,5.07265313e-17 14.8589744,0 L19.5,0 Z" id="path-4"></path>
        <filter x="-35.0%" y="-27.1%" width="170.0%" height="175.8%" filterUnits="objectBoundingBox" id="filter-5">
            <feOffset dx="0" dy="2" in="SourceAlpha" result="shadowOffsetOuter1"></feOffset>
            <feGaussianBlur stdDeviation="2" in="shadowOffsetOuter1" result="shadowBlurOuter1"></feGaussianBlur>
            <feColorMatrix values="0 0 0 0 0.583806771   0 0 0 0 0.991847826   0 0 0 0 0.75175811  0 0 0 0.464434003 0" type="matrix" in="shadowBlurOuter1"></feColorMatrix>
        </filter>
    </defs>
    <g id="页面-1" stroke="none" stroke-width="1" fill="none" fill-rule="evenodd">
        <g id="电话" transform="translate(-1722.000000, -861.000000)">
            <g id="弹窗" transform="translate(554.000000, 143.000000)">
                <g id="拨号盘" transform="translate(1178.000000, 728.000000)">
                    <g id="Oval">
                        <use fill="black" fill-opacity="1" filter="url(#filter-3)" xlink:href="#path-2"></use>
                        <use fill="url(#linearGradient-1)" fill-rule="evenodd" xlink:href="#path-2"></use>
                    </g>
                    <g id="编组" transform="translate(10.130435, 11.869565)">
                        <g id="形状结合备份" transform="translate(0.869565, 0.130435)">
                            <use fill="black" fill-opacity="1" filter="url(#filter-5)" xlink:href="#path-4"></use>
                            <use fill="#FFFFFF" fill-rule="evenodd" xlink:href="#path-4"></use>
                        </g>
                    </g>
                </g>
            </g>
        </g>
    </g>
</svg>