<?xml version="1.0" encoding="UTF-8"?>
<svg width="16px" height="16px" viewBox="0 0 16 16" version="1.1" xmlns="http://www.w3.org/2000/svg" xmlns:xlink="http://www.w3.org/1999/xlink">
    <title>形状结合</title>
    <g id="页面-1" stroke="none" stroke-width="1" fill="none" fill-rule="evenodd">
        <g id="电话" transform="translate(-1722.000000, -295.000000)" fill="#56E9FF" fill-rule="nonzero">
            <g id="弹窗" transform="translate(554.000000, 143.000000)">
                <g id="编组-6" transform="translate(510.000000, 62.000000)">
                    <g id="1" transform="translate(0.000000, 52.000000)">
                        <g id="电话录音" transform="translate(20.000000, 38.000000)">
                            <g id="下载" transform="translate(548.000000, 0.000000)">
                                <path d="M105.500697,8.93722987 C105.776839,8.93722987 106.000697,9.1610875 106.000697,9.43722987 L106.000697,15.4372299 C105.999983,15.4469929 106,15.4494022 106,15.4518154 C106,15.7279578 105.776142,15.9518154 105.5,15.9518154 L90.5,15.9518154 C90.2238576,15.9518154 90,15.7279578 90,15.4518154 C90.0007137,15.4419988 90.0006969,15.4396163 90.0006969,15.4372299 L90.0006969,9.43722987 C90.0006969,9.1610875 90.2245546,8.93722987 90.5006969,8.93722987 C90.7768393,8.93722987 91.0006969,9.1610875 91.0006969,9.43722987 L91,14.9508154 L105,14.9508154 L105.000697,9.43722987 C105.000697,9.1610875 105.224555,8.93722987 105.500697,8.93722987 Z M98,0.451815385 C98.2761424,0.451815385 98.5,0.67567301 98.5,0.951815385 L98.499,11.7418154 L100.794433,9.44702268 C100.989696,9.25176054 101.306278,9.25176054 101.50154,9.44702268 C101.696802,9.64228483 101.696802,9.95886732 101.50154,10.1541295 L98.3847547,13.2711535 C98.2930397,13.381534 98.1547274,13.4518154 98,13.4518154 L97.9824701,13.4520563 C97.8338602,13.4713852 97.6782289,13.423969 97.5640677,13.3098078 L94.4427474,10.1884875 C94.2474852,9.99322532 94.2474852,9.67664283 94.4427474,9.48138069 C94.6380095,9.28611854 94.954592,9.28611854 95.1498542,9.48138069 L97.499,11.8298154 L97.5,0.951815385 C97.5,0.67567301 97.7238576,0.451815385 98,0.451815385 Z" id="形状结合"></path>
                            </g>
                        </g>
                    </g>
                </g>
            </g>
        </g>
    </g>
</svg>