<?xml version="1.0" encoding="UTF-8"?>
<svg width="22px" height="22px" viewBox="0 0 22 22" version="1.1" xmlns="http://www.w3.org/2000/svg" xmlns:xlink="http://www.w3.org/1999/xlink">
    <title>编组</title>
    <defs>
        <filter id="filter-1">
            <feColorMatrix in="SourceGraphic" type="matrix" values="0 0 0 0 0.623529 0 0 0 0 0.784314 0 0 0 0 0.996078 0 0 0 1.000000 0"></feColorMatrix>
        </filter>
    </defs>
    <g id="页面-1" stroke="none" stroke-width="1" fill="none" fill-rule="evenodd">
        <g id="电话" transform="translate(-1078.000000, -377.000000)">
            <g id="弹窗" transform="translate(554.000000, 143.000000)">
                <g id="历史记录" transform="translate(510.000000, 218.000000)">
                    <g id="编组" transform="translate(1.000000, 1.000000)" filter="url(#filter-1)">
                        <g transform="translate(13.000000, 15.500000)">
                            <path d="M15.4654696,8.95021436 C12.0529287,8.9478026 9.28717772,11.6218446 9.28717772,14.9185425 C9.28717772,18.2152404 12.0529287,20.886869 15.4654696,20.886869 C18.8780105,20.886869 21.6437615,18.2152404 21.6437615,14.9185425 C21.6437615,11.6194312 18.8780105,8.95021436 15.4654696,8.95021436 Z M18.4363592,17.9835545 C18.0429758,18.3624575 17.5796039,18.1380118 17.5796039,18.1380118 C17.5796039,18.1380118 15.1420746,15.7511639 14.845227,15.4519029 C14.5483794,15.1574686 14.5797535,14.8389005 14.5797535,14.8389005 L14.5797535,12.131071 C14.5845803,11.9524797 14.8210931,11.5711633 15.2868784,11.5711633 C15.755077,11.5711633 15.9409085,12.1286576 15.9409085,12.1286576 L15.9457353,14.2524454 C15.9457353,14.6820298 16.1098461,14.7858058 16.1098461,14.7858058 L18.3760243,17.1002518 C18.3808511,17.0978384 18.8297426,17.6070648 18.4363592,17.9835545 L18.4363592,17.9835545 Z M7.79811284,14.9185425 C7.79811284,10.8278375 11.2299609,7.51424581 15.4630562,7.51424581 C16.5659778,7.51424581 17.6133914,7.73869157 18.5594423,8.14414198 L18.5594423,4.64954563 L18.5642691,4.61575809 C18.5642691,4.61575809 18.5666825,4.49267494 18.5594423,3.8965663 L18.5594423,2.69469546 C18.5594423,2.69469546 18.5859897,2.41232821 18.5232414,2.03342516 C18.4435994,0.889475799 17.6544191,0.39955656 16.9979756,0.187177776 C16.609419,0.0616812217 16.2015552,-0.00106705502 15.791278,0.00617313051 C14.4928713,0.00617313051 11.8695107,0.00858652569 9.2944179,0.0158267117 C6.71932515,0.0109999213 4.0959645,0.00617313051 2.79755784,0.00617313051 C2.31487879,0.00617313051 1.91666857,0.073748198 1.59086021,0.187177776 C0.932003298,0.399556559 0.142823045,0.89430259 0.0655943967,2.03342516 C0.000432724814,2.41232821 0.0293934679,2.69469546 0.0293934676,2.69469546 L0.0293934676,3.8965663 C0.0197398865,4.49750173 0.0221532819,4.61575809 0.0221532819,4.61575809 L0.0293934676,4.64954563 C0.0293934676,8.53028522 0.0318068628,16.9699285 0.0414604435,18.4903675 C0.0535274199,20.4741784 2.22316977,20.8530815 2.22316977,20.8530815 L10.8872588,20.8554949 C9.00963726,19.5088203 7.79811284,17.3488315 7.79811284,14.9185425 Z M3.79429009,5.06223622 C3.79429009,4.74125465 4.06700375,4.47578117 4.40487909,4.47578117 L14.1960237,4.47578117 C14.5290722,4.47578117 14.8041993,4.73884125 14.8041993,5.06464961 L14.8041993,5.378391 C14.8041993,5.70419936 14.5290722,5.96725944 14.1960237,5.96725944 L4.40487909,5.96725944 C4.07183054,5.96967284 3.79911688,5.70661276 3.79429009,5.378391 L3.79429009,5.06223622 L3.79429009,5.06223622 Z M7.08374784,9.84558564 C7.08374784,10.171394 6.80862078,10.4344541 6.47315884,10.4344541 L4.4000523,10.4344541 C4.06700375,10.4368675 3.79670348,10.1738074 3.7894633,9.84558564 L3.7894633,9.52943086 C3.7894633,9.2060359 4.06217696,8.94056242 4.4000523,8.94056242 L6.47315884,8.94056242 C6.80620738,8.94056242 7.08374784,9.2036225 7.08374784,9.52943086 L7.08374784,9.84558564 Z" id="形状" fill="#000000" fill-rule="nonzero"></path>
                        </g>
                    </g>
                </g>
            </g>
        </g>
    </g>
</svg>