<?xml version="1.0" encoding="UTF-8"?>
<svg width="14px" height="14px" viewBox="0 0 14 14" version="1.1" xmlns="http://www.w3.org/2000/svg" xmlns:xlink="http://www.w3.org/1999/xlink">
    <title>路径</title>
    <g id="页面-1" stroke="none" stroke-width="1" fill="none" fill-rule="evenodd">
        <g id="电话" transform="translate(-779.000000, -475.000000)" fill="#FFFFFF" fill-rule="nonzero">
            <g id="弹窗" transform="translate(554.000000, 143.000000)">
                <g id="详情" transform="translate(99.000000, 178.000000)">
                    <g id="2" transform="translate(0.000000, 107.000000)">
                        <path d="M139.239155,58.9471176 C139.115332,58.3744343 138.639939,57.9915398 138.048461,57.9878546 C137.886679,57.986749 137.72453,57.9878546 137.56238,57.9878546 C138.230133,57.7034491 138.663328,57.0475625 138.662787,56.3217663 C138.664261,55.322703 137.858303,54.5104803 136.863662,54.5093748 C135.871232,54.5079007 135.060484,55.3204919 135.058641,56.3180811 C135.056958,57.0449892 135.490956,57.7021574 136.160154,57.986012 C135.986211,57.9856435 135.812637,57.986012 135.638695,57.9900657 C135.077436,58.002964 134.613098,58.3755398 134.492591,58.9220581 C134.454633,59.0948949 134.463846,59.2522538 134.456107,59.4313556 C134.451317,59.5430178 134.455002,59.7453364 134.455002,59.7453364 L134.351447,59.7453364 C134.351447,59.4951099 134.352921,59.3860274 134.351079,59.196607 C134.344445,58.486465 133.823355,57.9771675 133.118004,57.9753249 C132.967278,57.9749563 132.816553,57.9767989 132.666196,57.9771675 C133.322991,57.6884637 133.747058,57.0388449 133.747071,56.3213978 C133.74744,55.3230715 132.939271,54.5101118 131.946104,54.5090062 C130.951831,54.5082692 130.145873,55.3175437 130.143662,56.3184496 C130.140916,57.0417745 130.570413,57.6968256 131.234856,57.9826953 C131.080814,57.9838009 130.926772,57.9830638 130.772361,57.9845379 C130.630848,57.9856435 130.482702,58.0103345 130.348929,58.0560312 C129.854004,58.2244458 129.545182,58.6718316 129.538917,59.2036089 C129.536706,59.3989256 129.538549,59.5949794 129.538549,59.7847682 L129.55071,59.9587107 C128.10942,59.7409141 126.9998,58.495678 126.9998,56.992108 L126.9998,56.491655 C126.9998,54.8535744 128.316161,53.5195245 129.945029,53.4904112 C133.148591,53.4922539 135.919509,53.4878316 139.153658,53.4878316 L139.263478,53.4878316 C139.264952,53.4878316 139.266426,53.4495053 139.266426,53.4336588 C139.266426,52.8495514 139.267532,52.2680235 139.265321,51.683916 C139.264958,51.6012866 139.256066,51.5189152 139.238787,51.4381118 C139.114964,50.8654285 138.63957,50.4825341 138.048092,50.4788489 C137.886311,50.4777433 137.724161,50.4788489 137.562011,50.4788489 C138.229764,50.1944433 138.66296,49.5385568 138.662418,48.8127606 C138.663892,47.8136972 137.857935,47.0014746 136.863294,47.000369 C135.870864,46.9988949 135.060115,47.8114861 135.058273,48.8090754 C135.05659,49.5359834 135.490588,50.1931516 136.159785,50.4770063 C135.985843,50.4766377 135.812269,50.4770063 135.638326,50.48106 C135.077067,50.4939583 134.612729,50.8665341 134.492223,51.4130523 C134.454265,51.5858892 134.463478,51.7436166 134.455739,51.9223498 C134.450948,52.034012 134.454633,52.2363306 134.454633,52.2363306 L134.351079,52.2363306 C134.351079,51.9861041 134.352553,51.8773901 134.35071,51.6876013 C134.344077,50.9774592 133.822987,50.4681617 133.117635,50.4663191 C132.96691,50.4659506 132.816184,50.4681617 132.665827,50.4681617 C133.322623,50.179458 133.74669,49.5298392 133.746702,48.8123921 C133.747071,47.8140658 132.938902,47.0011061 131.945735,47 C130.951463,46.9992635 130.145505,47.8085379 130.143294,48.8090754 C130.140548,49.5324002 130.570044,50.1874513 131.234488,50.473321 C131.080445,50.4744266 130.926403,50.4740581 130.771992,50.4751636 C130.63048,50.4762692 130.482334,50.5009602 130.34856,50.5466569 C129.853635,50.7150715 129.544814,51.1624573 129.538549,51.6942347 C129.536338,51.8895514 129.53818,52.0856051 129.53818,52.275394 L129.554764,52.5127222 C127.55848,52.7345725 126,54.4338277 126,56.491655 L126,56.992108 C126,59.0315091 127.530841,60.7167606 129.501328,60.9629333 L129.499117,60.9968373 L129.499117,60.999417 C132.997497,61.0016281 135.810426,60.9968373 139.154027,60.9968373 L139.263846,60.9968373 C139.265321,60.9968373 139.266795,60.958511 139.266795,60.9426646 C139.266795,60.3585571 139.2679,59.7770293 139.265689,59.1925533 C139.265325,59.1100457 139.256433,59.0277967 139.239155,58.9471176 L139.239155,58.9471176 Z" id="路径"></path>
                    </g>
                </g>
            </g>
        </g>
    </g>
</svg>