<?xml version="1.0" encoding="UTF-8"?>
<svg width="15px" height="14px" viewBox="0 0 15 14" version="1.1" xmlns="http://www.w3.org/2000/svg" xmlns:xlink="http://www.w3.org/1999/xlink">
    <title>编组</title>
    <defs>
        <filter id="filter-1">
            <feColorMatrix in="SourceGraphic" type="matrix" values="0 0 0 0 1.000000 0 0 0 0 1.000000 0 0 0 0 1.000000 0 0 0 1.000000 0"></feColorMatrix>
        </filter>
    </defs>
    <g id="页面-1" stroke="none" stroke-width="1" fill="none" fill-rule="evenodd">
        <g id="电话" transform="translate(-952.000000, -475.000000)">
            <g id="弹窗" transform="translate(554.000000, 143.000000)">
                <g id="详情" transform="translate(99.000000, 178.000000)">
                    <g id="编组" transform="translate(0.000000, 107.000000)" filter="url(#filter-1)">
                        <g transform="translate(299.000000, 47.000000)">
                            <path d="M4.91200346,6.73739292 L0.861886504,6.73739292 C0.384986875,6.73739292 0,6.35142478 0,5.8754928 L0,1.82394481 C0,1.34799921 0.385477515,0.962535319 0.861423122,0.962535319 L4.91200346,0.962535319 C5.38842608,0.962535319 5.77485761,1.34848983 5.77485761,1.82442182 L5.77485761,5.8754928 C5.77485761,6.35191542 5.38890309,6.73739292 4.91344811,6.73739292 L4.91200346,6.73739292 M4.91200346,13.9559786 L0.861886504,13.9559786 C0.633342612,13.9560879 0.414117207,13.8653853 0.252468799,13.7038238 C0.0908203916,13.5422623 0,13.3230857 0,13.0945418 L0,9.04396147 C0,8.56753885 0.385477515,8.18110733 0.861423122,8.18110733 L4.91200346,8.18110733 C5.38842608,8.18110733 5.7748588,8.56753885 5.7748588,9.04396147 L5.7748588,13.0931244 C5.77523744,13.3217509 5.68471569,13.5411506 5.52323246,13.7029943 C5.36174924,13.864838 5.14255187,13.9558487 4.91392512,13.9559786 L4.91200346,13.9559786 M14.1772833,4.47991539 L11.2176627,7.43903177 C11.0506873,7.60609722 10.8241661,7.69996119 10.5879635,7.69996119 C10.351761,7.69996119 10.1252398,7.60609722 9.95826441,7.43903177 L6.99864376,4.47943838 C6.83157831,4.31246303 6.73771435,4.08594177 6.73771435,3.84973925 C6.73771435,3.61353673 6.83157831,3.38701547 6.99864376,3.22004012 L9.95826441,0.260882844 C10.1251583,0.0938463849 10.3516006,-5.71424468e-06 10.587725,-5.71424468e-06 C10.8238495,-5.71424468e-06 11.0502918,0.0938463849 11.2171857,0.260882844 L14.1767927,3.22050351 C14.3438581,3.38747886 14.4377221,3.61400011 14.4377221,3.85020263 C14.4377221,4.08640516 14.3438581,4.31292641 14.1767927,4.47990176 M12.6142214,13.9559786 L8.56121509,13.9559786 C8.08479247,13.9559786 7.69932859,13.5700104 7.69932859,13.0945418 L7.69932859,9.04396147 C7.69932859,8.56753885 8.08526947,8.18110733 8.56121509,8.18110733 L12.6122861,8.18110733 C13.0887087,8.18110733 13.474173,8.56753885 13.474173,9.04396147 L13.474173,13.0931244 C13.4746632,13.569547 13.0891857,13.9555016 12.6127631,13.9559786 L12.6122861,13.9559786" id="形状" fill="#000000" fill-rule="nonzero"></path>
                        </g>
                    </g>
                </g>
            </g>
        </g>
    </g>
</svg>