<?xml version="1.0" encoding="UTF-8"?>
<svg width="18px" height="18px" viewBox="0 0 18 18" version="1.1" xmlns="http://www.w3.org/2000/svg" xmlns:xlink="http://www.w3.org/1999/xlink">
    <title>路径</title>
    <g id="页面-1" stroke="none" stroke-width="1" fill="none" fill-rule="evenodd">
        <g id="电话" transform="translate(-1016.000000, -215.000000)" fill="#FFFFFF" fill-rule="nonzero">
            <g id="弹窗" transform="translate(554.000000, 143.000000)">
                <g id="搜索" transform="translate(99.000000, 62.000000)">
                    <g id="拨号" transform="translate(352.000000, 0.000000)">
                        <path d="M25.1368392,21.8894085 C25.1942634,21.9129002 26.462815,22.4375481 27.4990598,23.1762315 C27.8879779,23.4581318 28.5431352,23.9279657 28.6475428,24.5935638 C28.7154077,25.052957 28.5457454,25.5541132 28.1202847,26.1309648 C28.0184873,26.2823558 27.0683787,27.5691787 25.2516875,27.9137236 C24.7531415,28.0076903 24.2284937,28.0259617 23.6855745,27.9633171 C23.1191636,27.8980624 22.5266508,27.7518919 21.9289176,27.5195851 C19.5771378,26.6556127 17.6429881,25.329637 15.6540245,23.2310454 C12.2372878,19.6185446 11.5299267,16.1078411 11.422909,15.4396328 C10.8773796,12.3726613 13.1926168,10.6838694 13.4562458,10.5037664 C13.8216722,10.2453577 14.1505559,10.0887464 14.4716091,10.0287121 C14.5603555,10.0104408 14.6569325,10 14.7639502,10 C14.8187642,10 14.8735781,10.0026102 14.9257819,10.0078306 C15.2155128,10.0391528 15.6409735,10.1879336 16.0011796,10.7099713 C16.4971154,11.4173323 17.0269836,12.4587976 17.4654953,13.5785684 C17.9248885,14.7348819 17.3193247,15.1994955 16.7320323,15.6510581 L16.7085406,15.6667192 C16.7085406,15.6667192 15.6540245,16.3636395 15.4660909,16.4863184 C15.2859879,16.6063871 15.2207332,16.8517448 15.3277509,17.0422885 C16.0429426,18.3656541 17.0087123,19.6968502 18.1206526,20.8870962 C19.2169318,22.0590708 20.4541611,23.0979258 21.7018312,23.8914231 C21.7618655,23.9331861 21.8401712,23.959288 21.9236972,23.959288 C21.9497991,23.959288 21.975901,23.9566778 21.9993927,23.9514574 L22.030715,23.9410167 C22.156004,23.9070842 22.252581,23.8157276 22.3021746,23.7008793 C22.4222432,23.4711828 22.6336685,23.0953156 22.8633651,22.7690421 C23.3044869,22.158258 23.7429986,21.8189335 24.1971714,21.7327972 C24.2676465,21.7197463 24.3511725,21.7093055 24.4346985,21.7093055 C24.4842921,21.7093055 24.5338857,21.7119157 24.5808691,21.7171361 C24.7009378,21.7223565 24.9045325,21.7902214 25.1368392,21.8894085 Z" id="路径"></path>
                    </g>
                </g>
            </g>
        </g>
    </g>
</svg>