<?xml version="1.0" encoding="UTF-8"?>
<svg width="16px" height="16px" viewBox="0 0 16 16" version="1.1" xmlns="http://www.w3.org/2000/svg" xmlns:xlink="http://www.w3.org/1999/xlink">
    <title>路径</title>
    <g id="页面-1" stroke="none" stroke-width="1" fill="none" fill-rule="evenodd">
        <g id="电话" transform="translate(-1707.000000, -223.000000)" fill-rule="nonzero" stroke="#FFFFFF">
            <g id="弹窗" transform="translate(554.000000, 143.000000)">
                <g id="编组-6" transform="translate(510.000000, 62.000000)">
                    <g id="button/高亮" transform="translate(632.000000, 10.000000)">
                        <g id="编组" transform="translate(12.000000, 9.000000)">
                            <path d="M12.9612223,10.0189209 C10.9574382,8.42244466 10.4062907,9.20572917 9.50622559,10.1057943 C8.8667806,10.7452393 7.27030436,9.40938314 5.90596517,8.04361979 C4.51171875,6.65079753 3.2043457,5.05289714 3.84236654,4.44335938 C4.74243164,3.54329427 5.52571615,2.99072266 3.92923991,0.986938477 C2.33276367,-1.0168457 1.25895182,0.522664388 0.387369792,1.39424642 C-0.629475911,2.41109212 0.328979492,6.18509928 4.04602051,9.9021403 C7.76306152,13.6191813 11.5384928,14.5776367 12.5539144,13.560791 C13.4254964,12.689209 14.9635824,11.6153971 12.9612223,10.0189209 Z" id="路径"></path>
                        </g>
                    </g>
                </g>
            </g>
        </g>
    </g>
</svg>