<?xml version="1.0" encoding="UTF-8"?>
<svg width="18px" height="18px" viewBox="0 0 18 18" version="1.1" xmlns="http://www.w3.org/2000/svg" xmlns:xlink="http://www.w3.org/1999/xlink">
    <title>形状结合</title>
    <g id="PC端" stroke="none" stroke-width="1" fill="none" fill-rule="evenodd">
        <g id="分组" transform="translate(-42.000000, -85.000000)" fill="#0091FF" fill-rule="nonzero">
            <g id="编组-8" transform="translate(20.000000, 70.000000)">
                <g id="编组-7" transform="translate(6.000000, 15.000000)">
                    <g id="click" transform="translate(16.000000, 0.000000)">
                        <path d="M7.72109602,7.9057808 C7.60182537,7.30942756 8.12760937,6.78364355 8.72396262,6.9029142 L8.72396262,6.9029142 L17.2466899,8.60745965 C17.9912388,8.75636944 18.184072,9.73113511 17.5523013,10.1523156 L17.5523013,10.1523156 L15.8596364,11.2794545 L17.6821933,13.1018976 C17.9894239,13.4091283 18.0130571,13.8925638 17.7530927,14.2269029 L17.7530927,14.2269029 L17.6821933,14.3071933 L15.1253751,16.8640115 C14.7925419,17.1968447 14.2529127,17.1968447 13.9200794,16.8640115 L13.9200794,16.8640115 L12.0976364,15.0414545 L10.9704974,16.7341195 C10.5676291,17.3384219 9.65826701,17.1882663 9.4496346,16.5224719 L9.4496346,16.5224719 L9.42564147,16.4285081 Z M13.0909091,0 C14.3981025,0 15.4666316,1.02184361 15.5412878,2.31032226 L15.5454545,2.45454545 L15.5454545,6.95373987 L13.9090909,6.95373987 L13.9090909,2.45454545 C13.9090909,2.0349525 13.5932398,1.6891305 13.1863264,1.64186814 L13.0909091,1.63636364 L2.45454545,1.63636364 C2.0349525,1.63636364 1.6891305,1.9522147 1.64186814,2.35912817 L1.63636364,2.45454545 L1.63636364,13.0909091 C1.63636364,13.5105021 1.9522147,13.856324 2.35912817,13.9035864 L2.45454545,13.9090909 L8.11839122,13.9090909 L8.11839122,15.5454545 L2.45454545,15.5454545 C1.147352,15.5454545 0.0788229168,14.5236109 0.00416674916,13.2351323 L0,13.0909091 L0,2.45454545 C0,1.147352 1.02184361,0.0788229168 2.31032226,0.00416674916 L2.45454545,0 L13.0909091,0 Z M9.64227273,8.82409091 L10.6936364,14.076 L11.2567753,13.2317896 C11.5352175,12.8141264 12.105326,12.7316684 12.4892999,13.0317272 L12.4892999,13.0317272 L12.5685569,13.1018976 L14.5227273,15.0561818 L15.8743636,13.7045455 L13.9200794,11.7503751 C13.5651339,11.3954296 13.5960847,10.8202209 13.9656201,10.5025498 L13.9656201,10.5025498 L14.0499714,10.4385935 L14.8941818,9.87545455 L9.64227273,8.82409091 Z" id="形状结合"></path>
                    </g>
                </g>
            </g>
        </g>
    </g>
</svg>