<?xml version="1.0" encoding="UTF-8"?>
<svg width="19px" height="16px" viewBox="0 0 19 16" version="1.1" xmlns="http://www.w3.org/2000/svg" xmlns:xlink="http://www.w3.org/1999/xlink">
    <title>形状结合</title>
    <g id="PC端" stroke="none" stroke-width="1" fill="none" fill-rule="evenodd">
        <g id="分组" transform="translate(-41.000000, -433.000000)" fill="#0091FF" fill-rule="nonzero">
            <g id="编组-8" transform="translate(20.000000, 70.000000)">
                <g id="connection-box备份-5" transform="translate(8.000000, 347.000000)">
                    <path d="M29.3509615,16.65625 C30.4471154,16.65625 31.40625,17.6153846 31.40625,18.7115385 L31.40625,29.6730769 C31.40625,30.7692308 30.4471154,31.7283654 29.3509615,31.7283654 L15.6490385,31.7283654 C14.5528846,31.7283654 13.59375,30.7692308 13.59375,29.6730769 L13.59375,18.7115385 C13.59375,17.6153846 14.5528846,16.65625 15.6490385,16.65625 L29.3509615,16.65625 Z M29.3509615,18.0264423 L15.6490385,18.0264423 C15.2379808,18.0264423 14.9639423,18.3004808 14.9639423,18.7115385 L14.9639423,29.6730769 C14.9639423,30.0841346 15.2379808,30.3581731 15.6490385,30.3581731 L29.3509615,30.3581731 C29.7620192,30.3581731 30.0360577,30.0841346 30.0360577,29.6730769 L30.0360577,18.7115385 C30.0360577,18.3004808 29.7620192,18.0264423 29.3509615,18.0264423 Z M20.0336538,23.2331731 C20.9927885,23.78125 21.4038462,24.4663462 21.8149038,25.1514423 C22.2259615,25.8365385 22.5,26.3846154 23.3221154,26.5216346 C23.8701923,26.6586538 24.28125,26.5216346 24.8293269,26.2475962 C25.7884615,25.8365385 26.8846154,25.2884615 28.8028846,26.7956731 C29.2139423,27.0697115 29.2139423,27.6177885 29.0769231,27.7548077 L29.0181007,27.7859666 L29.0181007,27.7859666 L28.8980591,27.8536773 C28.6728562,27.9778135 28.4114011,28.0777816 27.9807692,27.7548077 C26.7475962,26.7956731 26.1995192,27.0697115 25.3774038,27.4807692 C24.8293269,27.7548077 24.0072115,28.0288462 22.9110577,27.8918269 C21.5408654,27.6177885 20.9927885,26.6586538 20.5817308,25.8365385 C20.3076923,25.2884615 20.0336538,24.7403846 19.4855769,24.4663462 C18.1153846,23.78125 16.8822115,24.6033654 16.8822115,24.6033654 C16.4711538,24.8774038 15.9230769,24.7403846 15.7860577,24.4663462 C15.6490385,24.1923077 15.7860577,23.6442308 16.0600962,23.5072115 C16.1971154,23.5072115 17.9783654,22.2740385 20.0336538,23.2331731 Z M25.9254808,20.6298077 C26.6822171,20.6298077 27.2956731,21.2432637 27.2956731,22 C27.2956731,22.7567363 26.6822171,23.3701923 25.9254808,23.3701923 C25.1687445,23.3701923 24.5552885,22.7567363 24.5552885,22 C24.5552885,21.2432637 25.1687445,20.6298077 25.9254808,20.6298077 Z" id="形状结合"></path>
                </g>
            </g>
        </g>
    </g>
</svg>