<?xml version="1.0" encoding="UTF-8"?>
<svg width="18px" height="18px" viewBox="0 0 18 18" version="1.1" xmlns="http://www.w3.org/2000/svg" xmlns:xlink="http://www.w3.org/1999/xlink">
    <title>形状结合</title>
    <g id="PC端" stroke="none" stroke-width="1" fill="none" fill-rule="evenodd">
        <g id="分组" transform="translate(-41.000000, -221.000000)" fill="#0091FF" fill-rule="nonzero">
            <g id="编组-8" transform="translate(20.000000, 70.000000)">
                <g id="connection-box" transform="translate(6.000000, 151.000000)">
                    <path d="M31.7727273,7.10542736e-15 C32.4671974,7.10542736e-15 33,0.581246865 33,1.26446318 L33,1.26446318 L33,5.28099545 C33,5.96421679 32.4671957,6.54545455 31.7727273,6.54545455 L31.7727273,6.54545455 L20.727,6.545 L20.7263377,8.18489054 L28.0912732,8.18885463 C28.5019342,8.18903737 28.8418212,8.49174287 28.900225,8.88616803 L28.9090909,9.00703636 L28.909,11.454 L31.7727273,11.4545455 C32.4237914,11.4545455 32.932768,11.965399 32.9938468,12.5922127 L33,12.7190045 L33,16.7355409 C33,17.4187622 32.4671957,18 31.7727273,18 L31.7727273,18 L16.2272727,18 C15.5328125,18 15,17.4187614 15,16.7355409 L15,16.7355409 L15,12.7190045 C15,12.035784 15.5328125,11.4545455 16.2272727,11.4545455 L16.2272727,11.4545455 L27.272,11.454 L27.2724601,9.82472727 L19.9087268,9.82157719 C19.4980658,9.82139445 19.1581788,9.51868894 19.099775,9.12426379 L19.0909091,9.00339545 L19.09,6.545 L16.2272727,6.54545455 C15.5762162,6.54545455 15.067233,6.03460033 15.0061533,5.40778719 L15,5.28099545 L15,1.26446318 C15,0.581247682 15.5328107,7.10542736e-15 16.2272727,7.10542736e-15 L16.2272727,7.10542736e-15 Z M27.272,13.089 L16.6363636,13.089974 L16.6363636,16.3636364 L31.3636364,16.3636364 L31.3636364,13.089974 L28.909,13.089 L28.9090909,13.0909091 L27.2727273,13.0909091 L27.272,13.089 Z M27.2727273,13.9090909 L27.2727273,15.5454545 L20.7272727,15.5454545 L20.7272727,13.9090909 L27.2727273,13.9090909 Z M31.3636364,1.63516141 L16.6363636,1.63516141 L16.6363636,4.90882375 L31.3636364,4.90882375 L31.3636364,1.63516141 Z M27.2727273,2.45454545 L27.2727273,4.09090909 L20.7272727,4.09090909 L20.7272727,2.45454545 L27.2727273,2.45454545 Z" id="形状结合"></path>
                </g>
            </g>
        </g>
    </g>
</svg>