<?xml version="1.0" encoding="UTF-8"?>
<svg width="18px" height="18px" viewBox="0 0 18 18" version="1.1" xmlns="http://www.w3.org/2000/svg" xmlns:xlink="http://www.w3.org/1999/xlink">
    <title>形状结合</title>
    <g id="PC端" stroke="none" stroke-width="1" fill="none" fill-rule="evenodd">
        <g id="分组" transform="translate(-41.000000, -152.000000)" fill="#0091FF" fill-rule="nonzero">
            <g id="编组-8" transform="translate(20.000000, 70.000000)">
                <g id="编组-6" transform="translate(6.000000, 82.000000)">
                    <g id="add" transform="translate(15.000000, 0.000000)">
                        <path d="M15.5305728,0.292569659 C16.732818,0.292569659 17.7074303,1.267182 17.7074303,2.46942724 L17.7074303,2.46942724 L17.7074303,15.5305728 C17.7074303,16.732818 16.732818,17.7074303 15.5305728,17.7074303 L15.5305728,17.7074303 L2.46942724,17.7074303 C1.267182,17.7074303 0.292569659,16.732818 0.292569659,15.5305728 L0.292569659,15.5305728 L0.292569659,2.46942724 C0.292569659,1.267182 1.267182,0.292569659 2.46942724,0.292569659 L2.46942724,0.292569659 Z M15.5305728,2.03405573 L2.46942724,2.03405573 C2.2289782,2.03405573 2.03405573,2.2289782 2.03405573,2.46942724 L2.03405573,2.46942724 L2.03405573,15.5305728 C2.03405573,15.7710218 2.2289782,15.9659443 2.46942724,15.9659443 L2.46942724,15.9659443 L15.5305728,15.9659443 C15.7710218,15.9659443 15.9659443,15.7710218 15.9659443,15.5305728 L15.9659443,15.5305728 L15.9659443,2.46942724 C15.9659443,2.2289782 15.7710218,2.03405573 15.5305728,2.03405573 L15.5305728,2.03405573 Z M9.87074303,4.64628483 L9.87028483,8.12828483 L13.3537152,8.12925697 L13.3537152,9.87074303 L9.87028483,9.87028483 L9.87074303,13.3537152 L8.12925697,13.3537152 L8.12828483,9.87028483 L4.64628483,9.87074303 L4.64628483,8.12925697 L8.12828483,8.12828483 L8.12925697,4.64628483 L9.87074303,4.64628483 Z" id="形状结合"></path>
                    </g>
                </g>
            </g>
        </g>
    </g>
</svg>