<?xml version="1.0" encoding="UTF-8"?>
<svg width="18px" height="19px" viewBox="0 0 18 19" version="1.1" xmlns="http://www.w3.org/2000/svg" xmlns:xlink="http://www.w3.org/1999/xlink">
    <title>形状</title>
    <g id="PC端" stroke="none" stroke-width="1" fill="none" fill-rule="evenodd">
        <g id="分组" transform="translate(-41.000000, -364.000000)" fill="#0091FF" fill-rule="nonzero">
            <g id="编组-8" transform="translate(20.000000, 70.000000)">
                <g id="connection-box备份-3" transform="translate(6.000000, 294.000000)">
                    <g id="2" transform="translate(15.000000, 0.000000)">
                        <path d="M14.0351371,12.0831818 C13.3327758,12.0841499 12.6527027,12.3298308 12.1118846,12.7779694 L6.92615125,9.66652937 C7.00670633,9.26778172 7.00670633,8.85695081 6.92615125,8.45820315 L12.1118846,5.35179784 C13.2022906,6.25205674 14.77129,6.27545862 15.8880599,5.40812011 C17.0048299,4.54078159 17.3705109,3.01481165 16.7681595,1.7355056 C16.165808,0.456199549 14.7566197,-0.23408677 13.3766081,0.0741651772 C11.9965965,0.382417124 11.0150674,1.60671585 11.0143216,3.02073519 C11.0141187,3.22364086 11.0343597,3.42605074 11.0747379,3.6248983 L5.88900458,6.73633831 C4.66005683,5.72070369 2.85339384,5.83497671 1.76220775,6.99736183 C0.671021661,8.15974695 0.671021661,9.97002028 1.76220775,11.1324054 C2.85339384,12.2947905 4.66005683,12.4090635 5.88900458,11.3934289 L11.0747379,14.4998342 C10.8192745,15.7513446 11.3785738,17.0282668 12.4716575,17.6891056 C13.5647411,18.3499445 14.955325,18.2518514 15.9448133,17.4441059 C16.9343016,16.6363603 17.3088037,15.2935669 16.8801787,14.0903128 C16.4515538,12.8870587 15.3124546,12.0834425 14.0351371,12.0831818 Z M14.0351371,1.51032743 C14.8693123,1.51032743 15.5455449,2.18656002 15.5455449,3.02073519 C15.5455449,3.85491036 14.8693123,4.53114295 14.0351371,4.53114295 C13.200962,4.53114295 12.5247294,3.85491036 12.5247294,3.02073519 C12.5247294,2.18656002 13.200962,1.51032743 14.0351371,1.51032743 Z M3.96575202,10.572774 C3.13157685,10.572774 2.45534426,9.89654146 2.45534426,9.06236629 C2.45534426,8.22819111 3.13157684,7.55195852 3.96575201,7.55195852 C4.79992718,7.55195852 5.47615979,8.22819109 5.47615979,9.06236626 C5.47615979,9.46295131 5.317028,9.84712944 5.0337716,10.1303858 C4.7505152,10.4136423 4.36633707,10.572774 3.96575202,10.572774 L3.96575202,10.572774 Z M14.0351371,16.6144051 C13.200962,16.6144051 12.5247294,15.9381725 12.5247294,15.1039973 C12.5247294,14.2698222 13.200962,13.5935896 14.0351371,13.5935896 C14.8693123,13.5935896 15.5455449,14.2698222 15.5455449,15.1039973 C15.5455449,15.9381725 14.8693123,16.6144051 14.0351371,16.6144051 Z" id="形状"></path>
                    </g>
                </g>
            </g>
        </g>
    </g>
</svg>