<?xml version="1.0" encoding="UTF-8"?>
<svg width="19px" height="19px" viewBox="0 0 19 19" version="1.1" xmlns="http://www.w3.org/2000/svg" xmlns:xlink="http://www.w3.org/1999/xlink">
    <title>交换机</title>
    <g id="PC端" stroke="none" stroke-width="1" fill="none" fill-rule="evenodd">
        <g id="数据统计" transform="translate(-41.000000, -497.000000)" fill="#0091FF" fill-rule="nonzero">
            <g id="编组-8" transform="translate(20.000000, 70.000000)">
                <g id="connection-box备份-6" transform="translate(6.000000, 412.000000)">
                    <path d="M31,15 C32.6568542,15 34,16.3431458 34,18 L34,31 C34,32.6568542 32.6568542,34 31,34 L18,34 C16.3431458,34 15,32.6568542 15,31 L15,18 C15,16.3431458 16.3431458,15 18,15 L31,15 Z M31,16.5 L18,16.5 C17.2203039,16.5 16.5795513,17.0948881 16.5068666,17.85554 L16.5,18 L16.5,31 C16.5,31.7796961 17.0948881,32.4204487 17.85554,32.4931334 L18,32.5 L31,32.5 C31.7796961,32.5 32.4204487,31.9051119 32.4931334,31.14446 L32.5,31 L32.5,18 C32.5,17.2203039 31.9051119,16.5795513 31.14446,16.5068666 L31,16.5 Z M21.0909091,23.5454545 L21.0909091,30.0909091 L19.4545455,30.0909091 L19.4545455,23.5454545 L21.0909091,23.5454545 Z M29.0909091,23.5454545 L29.0909091,30.0909091 L27.4545455,30.0909091 L27.4545455,23.5454545 L29.0909091,23.5454545 Z M25.0909091,19.5454545 L25.0909091,30.0909091 L23.4545455,30.0909091 L23.4545455,19.5454545 L25.0909091,19.5454545 Z" id="交换机"></path>
                </g>
            </g>
        </g>
    </g>
</svg>