<?xml version="1.0" encoding="UTF-8"?>
<svg width="18px" height="18px" viewBox="0 0 18 18" version="1.1" xmlns="http://www.w3.org/2000/svg" xmlns:xlink="http://www.w3.org/1999/xlink">
    <title>形状</title>
    <g id="PC端" stroke="none" stroke-width="1" fill="none" fill-rule="evenodd">
        <g id="分组" transform="translate(-41.000000, -296.000000)" fill="#0091FF" fill-rule="nonzero">
            <g id="编组-8" transform="translate(20.000000, 70.000000)">
                <g id="connection-box备份-2" transform="translate(6.000000, 226.000000)">
                    <g id="3" transform="translate(15.000000, 0.000000)">
                        <path d="M11.7000136,-4.99600942e-16 C12.6900148,-4.99600942e-16 13.5000157,0.810000943 13.5000157,1.80000209 L13.5000157,4.5 L16.2000189,4.5 C17.19002,4.5 18.0000209,5.31000618 18.0000209,6.30000733 L18.0000209,16.2000189 C18.0000209,17.19002 17.19002,18.0000209 16.2000189,18.0000209 L6.30000733,18.0000209 C5.31000618,18.0000209 4.5,17.19002 4.5,16.2000189 L4.5,13.5000157 L1.80000209,13.5000157 C0.810000943,13.5000157 -4.99600942e-16,12.6900148 -4.99600942e-16,11.7000136 L-4.99600942e-16,1.80000209 C-4.99600942e-16,0.810000943 0.810000943,-4.99600942e-16 1.80000209,-4.99600942e-16 L11.7000136,-4.99600942e-16 Z M11.7000136,1.80000209 L1.80000209,1.80000209 L1.80000209,11.7000136 L5.40000628,11.7000136 C5.94000691,11.7000136 6.30000209,12.060014 6.30000209,12.6000147 L6.30000209,16.2000189 L16.2000189,16.2000189 L16.2000189,6.30000209 L12.6000147,6.30000209 C12.060014,6.30000209 11.7000136,5.94000691 11.7000136,5.40000628 L11.7000136,1.80000209 Z M13.1400153,8.73001016 L14.4000168,9.99001162 C15.6600182,11.2500131 15.6600182,13.2300154 14.4000168,14.4000168 C13.2300154,15.5700181 11.3400132,15.6600182 10.0800117,14.4900169 L9.99001162,14.4000168 L8.82001026,13.2300154 L8.73001016,13.1400153 C8.46000984,12.7800149 8.46000984,12.2400142 8.82001026,11.9700139 C9.18001068,11.6100135 9.63001121,11.6100135 9.99001162,11.8800138 L10.0800117,11.9700139 L11.2500131,13.1400153 C11.7000136,13.5900158 12.5100146,13.6800159 13.0500152,13.2300154 L13.1400153,13.1400153 C13.5900158,12.6900148 13.6800159,11.8800138 13.2300154,11.3400132 L13.1400153,11.2500131 L11.9700139,10.0800117 L11.8800138,9.99001162 C11.6100135,9.63001121 11.6100135,9.09001058 11.9700139,8.82001026 C12.2400142,8.46000984 12.7800149,8.46000984 13.1400153,8.73001016 L13.1400153,8.73001016 Z M8.10000943,6.84000796 L11.3400132,10.0800117 C11.7000136,10.4400121 11.7000136,10.9800128 11.3400132,11.3400132 C10.9800128,11.7000136 10.5300123,11.7000136 10.1700118,11.4300133 L10.0800117,11.3400132 L6.84000796,8.10000943 C6.48000754,7.74000901 6.48000754,7.20000838 6.84000796,6.84000796 C7.20000838,6.57000765 7.74000901,6.57000765 8.10000943,6.84000796 L8.10000943,6.84000796 Z M7.92000922,3.51000408 L8.01000932,3.60000419 L9.36001089,4.95000576 C9.72001131,5.31000618 9.72001131,5.85000681 9.36001089,6.21000723 C9.09001058,6.57000765 8.55000995,6.57000765 8.19000953,6.30000733 L8.10000943,6.21000723 L6.75000785,4.86000566 C6.30000733,4.41000513 5.49000639,4.32000503 4.95000576,4.77000555 L4.86000566,4.86000566 C4.41000513,5.40000628 4.32000503,6.12000712 4.77000555,6.66000775 L4.86000566,6.75000785 L6.21000723,8.10000943 C6.57000765,8.46000984 6.57000765,9.00001047 6.30000733,9.36001089 L6.21000723,9.450011 C5.85000681,9.81001142 5.40000628,9.81001142 5.04000586,9.5400111 L4.95000576,9.450011 L3.60000419,8.01000932 C2.43000283,6.84000796 2.43000283,4.95000576 3.51000408,3.7800044 L3.60000419,3.60000419 C4.77000555,2.43000283 6.66000775,2.43000283 7.92000922,3.51000408 Z" id="形状"></path>
                    </g>
                </g>
            </g>
        </g>
    </g>
</svg>