<?xml version="1.0" encoding="UTF-8"?>
<svg width="45px" height="43px" viewBox="0 0 45 43" version="1.1" xmlns="http://www.w3.org/2000/svg" xmlns:xlink="http://www.w3.org/1999/xlink">
    <title>icon</title>
    <g id="事件信息、组织动态、辅助工具" stroke="none" stroke-width="1" fill="none" fill-rule="evenodd">
        <g id="组织动态" transform="translate(-985.000000, -579.000000)" fill-rule="nonzero">
            <g id="突发点" transform="translate(940.000000, 533.000000)">
                <g id="icon" transform="translate(45.000000, 46.000000)">
                    <ellipse id="Oval-9" stroke="#F87405" stroke-width="2" fill="#F87405" cx="22.0119048" cy="21.5" rx="21.0119048" ry="20.5"></ellipse>
                    <path d="M23.0003367,9.55084225 C23.2865086,9.72118271 23.5256143,9.96028832 23.6959547,10.2464603 L33.2673663,26.3264317 C33.8323358,27.2755804 33.520897,28.5030158 32.5717482,29.0679852 C32.2623119,29.2521735 31.9088863,29.3493995 31.5487805,29.3493995 L12.4059574,29.3493995 C11.3013879,29.3493995 10.4059574,28.453969 10.4059574,27.3493995 C10.4059574,26.9892937 10.5031833,26.6358681 10.6873716,26.3264317 L20.2587832,10.2464603 C20.8237527,9.29731158 22.051188,8.98587278 23.0003367,9.55084225 Z M23.5480949,23.0664957 L20.406643,23.0664957 L20.406643,26.2079476 L23.5480949,26.2079476 L23.5480949,23.0664957 Z M23.5480949,14.6892906 L20.406643,14.6892906 L20.406643,22.019345 L23.5480949,22.019345 L23.5480949,14.6892906 Z" id="形状结合" fill="#000000"></path>
                </g>
            </g>
        </g>
    </g>
</svg>