<?xml version="1.0" encoding="UTF-8"?>
<svg width="22px" height="22px" viewBox="0 0 22 22" version="1.1" xmlns="http://www.w3.org/2000/svg" xmlns:xlink="http://www.w3.org/1999/xlink">
    <title>知识库</title>
    <defs>
        <filter id="filter-1">
            <feColorMatrix in="SourceGraphic" type="matrix" values="0 0 0 0 1.000000 0 0 0 0 1.000000 0 0 0 0 1.000000 0 0 0 1.000000 0"></feColorMatrix>
        </filter>
    </defs>
    <g id="Page-1" stroke="none" stroke-width="1" fill="none" fill-rule="evenodd">
        <g id="知识库" transform="translate(-162.000000, -121.000000)" filter="url(#filter-1)">
            <g transform="translate(162.000000, 121.020680)">
                <g id="Group" transform="translate(0.000000, 0.979320)" fill="#000000" fill-rule="nonzero">
                    <path d="M17.5410714,0.00491352201 C17.7522321,0.00491352201 17.9633929,0.014740566 18.1745536,0.0343946541 C18.8375,0.0958136792 19.3457589,0.653498428 19.3433212,1.31928066 L19.3433212,15.8068003 C19.3433212,16.5020637 18.7933036,17.0695755 18.1008929,17.0941431 C16.8511161,17.1408215 15.7904018,17.3078813 14.9236607,17.5977791 C13.7868304,17.978577 12.6794643,18.6689269 11.6089286,19.6663719 L11.6089286,3.46648978 C12.3995536,2.10544418 13.5069196,1.13011006 14.9236607,0.53803066 C15.7535714,0.189170597 16.6424107,0.00737028302 17.5410714,0.00491352201 Z M20.6348214,16.1114387 L20.6348214,2.8916077 C20.9761161,2.8916077 21.3051339,3.02672956 21.5457589,3.2699489 C21.7863839,3.51316824 21.9238839,3.83991745 21.9238839,4.18140723 L21.9238839,17.2980542 C21.9238839,18.3225236 21.2830357,19.9808373 19.3457589,19.8137775 C17.9805804,19.6983097 17.8921875,19.6491745 16.740625,19.6688286 C15.6136161,19.6884827 14.0348214,19.6491745 12.6229911,19.9808373 C13.4136161,19.3199686 14.5700893,18.853184 15.3361607,18.6910377 C16.0997768,18.5264347 17.0549107,18.4551887 18.1770089,18.4134237 C19.6011161,18.3618318 20.6348214,17.290684 20.6348214,16.1114387 L20.6348214,16.1114387 Z M4.38772321,0.00491352201 C5.27901786,0.00491352201 6.15066964,0.184257075 7.00513393,0.53803066 C8.421875,1.1276533 9.52924107,2.10544418 10.3198661,3.46648978 L10.3198661,19.6688286 C9.24933036,18.6689269 8.14196429,17.978577 7.00513393,17.6002358 C6.13839286,17.3127948 5.08013393,17.1432783 3.82790179,17.0990566 C3.13549107,17.074489 2.58549107,16.5045204 2.58793011,15.8092571 L2.58793011,1.31928066 C2.58793011,0.653498428 3.09375,0.0982704403 3.75669643,0.0368514151 C3.96540179,0.014740566 4.1765625,0.00491352201 4.38772321,0.00491352201 Z M1.29397321,16.1114387 C1.29397321,17.1752162 2.0796875,18.3520047 3.77879464,18.4134237 C4.90334821,18.4551887 5.60558036,18.5780267 6.59508929,18.6910377 C7.58459821,18.801592 8.53727679,19.3224253 9.32790179,19.9808373 C7.91607143,19.6491745 6.45513393,19.6688286 5.18816964,19.6688286 C4.19129464,19.6688286 4.01696429,19.8137775 2.58303571,19.8137775 C0.891294643,19.8137775 0.00245535714,18.2832154 0.00245535714,17.2980542 L0.00245535714,4.17895047 C0.00245535714,3.46648978 0.579464286,2.88915094 1.29151786,2.88915094 L1.29151786,16.1114387 L1.29397321,16.1114387 Z" id="形状"></path>
                </g>
            </g>
        </g>
    </g>
</svg>