<?xml version="1.0" encoding="UTF-8"?>
<svg width="21px" height="20px" viewBox="0 0 21 20" version="1.1" xmlns="http://www.w3.org/2000/svg" xmlns:xlink="http://www.w3.org/1999/xlink">
    <title>退出</title>
    <defs>
        <filter id="filter-1">
            <feColorMatrix in="SourceGraphic" type="matrix" values="0 0 0 0 1.000000 0 0 0 0 1.000000 0 0 0 0 1.000000 0 0 0 1.000000 0"></feColorMatrix>
        </filter>
    </defs>
    <g id="Page-1" stroke="none" stroke-width="1" fill="none" fill-rule="evenodd">
        <g id="退出" transform="translate(-241.000000, -122.000000)" filter="url(#filter-1)">
            <g transform="translate(241.000000, 122.020680)">
                <g id="Group" transform="translate(0.000000, 0.979320)" fill="#000000" fill-rule="nonzero">
                    <path d="M20.8257443,9.25191097 C17.3454835,12.8408835 12.8094952,17.0697504 13.8118297,16.0327675 C13.671066,16.1794627 13.5133136,16.2426933 13.3215838,16.1668165 C13.1347078,16.093469 13.0449103,15.9417154 13.0449103,15.7014388 L13.0449103,11.1260679 L13.0449103,10.949022 L5.5723003,10.949022 C5.29805381,10.949022 5.11845876,10.8200315 5.07477348,10.5873426 C5.06506564,10.5418165 5.0674926,10.491232 5.0674926,10.4457059 L5.0674926,7.5067446 C5.0674926,7.1830036 5.23737981,7.01354541 5.55288462,7.01354541 L13.0449103,7.01354541 L13.0449103,6.85926259 L13.0449103,2.08408273 C13.0449103,1.87668615 13.1419887,1.70975719 13.304595,1.64652653 C13.491471,1.57317896 13.6589312,1.6060589 13.7996949,1.76034173 C13.8797846,1.84886466 13.9695821,1.92979991 14.0520987,2.01579362 C14.768052,2.74926933 19.139007,6.81373651 20.8233173,8.54878597 C21.0465976,8.77894559 21.0490246,9.02175135 20.8257443,9.25191097 Z M3.39289016,1.74516637 C2.41967918,1.74516637 1.701299,2.54187275 1.701299,3.55103417 C1.701299,7.03883768 1.70615292,10.9110836 1.69644508,14.3988871 C1.69401812,15.3220549 2.37356694,16.0681767 3.00214959,16.1895796 C3.14048632,16.2174011 3.28367696,16.227518 3.4268676,16.227518 C4.95099852,16.2300472 6.73724112,16.2300472 8.25894508,16.2300472 L8.43125925,16.2300472 L8.43125925,17.9549798 C8.40941661,17.9600382 8.385147,17.9701551 8.35845044,17.9701551 C6.73966808,17.9701551 4.98740292,17.9878597 3.36862056,17.9625674 C1.7862426,17.9398044 0.383459689,16.7535971 0.082516642,15.1475382 C0.0388313609,14.9224371 0.0194156805,14.687219 0.0194156805,14.4570594 C0.0145617604,10.9313174 0.00728088018,7.02113309 0.0218426405,3.49539119 C0.0291235207,2.02338129 0.735368898,1.04709982 1.97311853,0.361679406 C2.40997134,0.118873651 2.89050943,0.0101169065 3.38803624,0.00758767986 C4.9946838,0.00252922662 6.72996024,0.00505845324 8.3366078,0.00505845324 C8.36330436,0.00505845324 8.39000092,0.00758767986 8.43368621,0.0101169065 L8.43368621,1.74516637 L3.39289016,1.74516637 Z" id="形状"></path>
                </g>
            </g>
        </g>
    </g>
</svg>