<?xml version="1.0" encoding="UTF-8"?>
<svg width="18px" height="20px" viewBox="0 0 18 20" version="1.1" xmlns="http://www.w3.org/2000/svg" xmlns:xlink="http://www.w3.org/1999/xlink">
    <title>形状</title>
    <g id="Page-1" stroke="none" stroke-width="1" fill="none" fill-rule="evenodd">
        <g id="雪碧图" transform="translate(-204.000000, -122.000000)" fill="#FFFFFF" fill-rule="nonzero">
            <path d="M219.346967,135.561581 L219.346967,130.596048 C219.346967,127.335478 217.01011,124.594209 213.928768,123.962316 L213.928768,123.374081 C213.928768,122.629595 213.319853,122.02068 212.575368,122.02068 C211.830882,122.02068 211.221967,122.629595 211.221967,123.374081 L211.221967,123.962316 C208.140625,124.594209 205.803768,127.335478 205.803768,130.596048 L205.803768,135.561581 L204,135.561581 L204,138.27068 L221.155331,138.27068 L221.155331,135.561581 L219.346967,135.561581 Z M213.028033,141.882812 C214.523897,141.882812 215.737132,140.669577 215.737132,139.173713 L210.318934,139.173713 C210.318934,140.669577 211.532169,141.882812 213.028033,141.882812 Z" id="形状"></path>
        </g>
    </g>
</svg>