<?xml version="1.0" encoding="UTF-8"?>
<svg width="40px" height="40px" viewBox="0 0 40 40" version="1.1" xmlns="http://www.w3.org/2000/svg" xmlns:xlink="http://www.w3.org/1999/xlink">
    <title>编组</title>
    <g id="任务" stroke="none" stroke-width="1" fill="none" fill-rule="evenodd">
        <g id="路径分享" transform="translate(-484.000000, -1242.000000)">
            <g id="编组" transform="translate(0.000000, 1030.000000)">
                <g id="百度" transform="translate(418.000000, 192.000000)">
                    <g id="编组" transform="translate(66.000000, 20.000000)">
                        <rect id="矩形" fill="#FFFFFF" x="0" y="0" width="40" height="40" rx="8"></rect>
                        <path d="M32.6903553,40.1284898 L26.1928934,40.1284898 L40,26.3213832 L40,32.8188452 C40,36.8797589 36.751269,40.1284898 32.6903553,40.1284898 L32.6903553,40.1284898 Z M32.6903553,0.128489848 C36.751269,0.128489848 40,3.37722081 40,7.43813452 L40,11.2960025 L28.8324873,0.128489848 L32.6903553,0.128489848 Z M30.3553299,14.6462563 C30.3553299,17.2858503 29.3401015,19.7223985 27.715736,21.5498096 L27.4111675,21.7528553 C24.2639594,25.204632 21.8274112,29.3670685 20.3045685,33.9355964 C20.2030457,34.0371193 20.1015228,34.1386421 19.8984772,34.1386421 C19.6954315,34.1386421 19.5939086,34.0371193 19.4923858,33.9355964 C17.9695431,29.3670685 15.5329949,25.3061548 12.3857868,21.7528553 L12.0812183,21.4482868 L11.9796954,21.346764 L12.0812183,21.4482868 C10.4568528,19.6208756 9.44162437,17.1843274 9.44162437,14.5447335 C9.44162437,12.311231 10.1522843,10.2807741 11.2690355,8.65640863 C13.1979695,5.91529188 16.2436548,4.18940355 19.7969543,4.18940355 C23.3502538,4.18940355 26.4974619,5.91529188 28.3248731,8.65640863 C29.6446701,10.382297 30.3553299,12.4127538 30.3553299,14.6462563 Z M18.8832487,10.1792513 L17.5634518,10.1792513 L17.5634518,12.6157995 L16.0406091,12.6157995 C14.5177665,12.6157995 13.1979695,13.8340736 13.1979695,15.4584391 L13.1979695,16.0675761 C13.1979695,17.5904188 14.4162437,18.9102157 16.0406091,18.9102157 L18.680203,18.9102157 L18.680203,18.8086929 L18.7817259,18.8086929 L18.7817259,10.1792513 L18.8832487,10.1792513 Z M25.8883249,12.7173223 L24.4670051,12.7173223 L24.4670051,17.6919416 L22.8426396,17.6919416 C22.2335025,17.6919416 21.6243655,17.1843274 21.6243655,16.4736675 L21.6243655,12.6157995 L20.3045685,12.6157995 L20.3045685,16.9812817 C20.3045685,17.9965102 21.1167513,18.9102157 22.2335025,18.9102157 L25.8883249,18.9102157 L25.8883249,12.7173223 L25.8883249,12.7173223 Z M14.9238579,16.0675761 L14.9238579,15.4584391 C14.9238579,14.6462563 15.5329949,14.0371193 16.3451777,14.0371193 L17.5634518,14.0371193 L17.5634518,17.5904188 L16.3451777,17.5904188 C15.5329949,17.4888959 14.9238579,16.8797589 14.9238579,16.0675761 L14.9238579,16.0675761 Z M11.0659898,8.3518401 C10.3553299,9.46859137 9.74619289,10.6868655 9.44162437,11.9051396 L1.11675127,3.47874365 C2.43654822,1.4482868 4.67005076,0.0269670051 7.30964467,0.0269670051 L19.4923858,0.0269670051 L23.7563452,4.2909264 C22.5380711,3.78331218 21.2182741,3.5802665 19.8984772,3.5802665 C16.2436548,3.68178934 12.9949239,5.50920051 11.0659898,8.3518401 L11.0659898,8.3518401 Z M11.8781726,21.6513325 L12.1827411,21.955901 C13.2994924,23.1741751 14.3147208,24.3924492 15.2284264,25.813769 L2.53807107,38.3010787 C1.01522843,36.9812817 0,35.0523477 0,32.8188452 L0,8.65640863 L9.94923858,18.6056472 C10.4568528,19.7223985 11.0659898,20.7376269 11.8781726,21.6513325 L11.8781726,21.6513325 Z M30.7614213,14.4432107 C30.7614213,13.0218909 30.4568528,11.7020939 30.0507614,10.4838198 L39.7969543,20.2300127 L28.8324873,31.2960025 L24.1624365,26.6259518 C25.177665,25.0015863 26.3959391,23.4787437 27.715736,21.955901 L28.0203046,21.6513325 C29.6446701,19.7223985 30.7614213,17.1843274 30.7614213,14.4432107 L30.7614213,14.4432107 Z M19.4923858,34.5447335 C19.5939086,34.6462563 19.6954315,34.7477792 19.8984772,34.7477792 C20.1015228,34.7477792 20.2030457,34.6462563 20.3045685,34.5447335 C20.7106599,33.2249365 21.319797,31.9051396 21.928934,30.5853426 L25.6852792,34.3416878 L19.8984772,40.1284898 L7.30964467,40.1284898 C6.70050761,40.1284898 6.09137056,40.026967 5.58375635,39.9254442 L16.9543147,28.5548858 C17.9695431,30.4838198 18.8832487,32.5142766 19.4923858,34.5447335 L19.4923858,34.5447335 Z" id="形状" fill="#B3CE7D" fill-rule="nonzero"></path>
                        <path d="M30.3553299,14.6462563 C30.3553299,17.2858503 29.3401015,19.7223985 27.715736,21.5498096 L27.4111675,21.7528553 C24.2639594,25.204632 21.8274112,29.3670685 20.3045685,33.9355964 C20.2030457,34.0371193 20.1015228,34.1386421 19.8984772,34.1386421 C19.6954315,34.1386421 19.5939086,34.0371193 19.4923858,33.9355964 C17.9695431,29.3670685 15.5329949,25.3061548 12.3857868,21.7528553 L12.0812183,21.4482868 L11.9796954,21.346764 L12.0812183,21.4482868 C10.4568528,19.6208756 9.44162437,17.1843274 9.44162437,14.5447335 C9.44162437,12.311231 10.1522843,10.2807741 11.2690355,8.65640863 C13.1979695,5.91529188 16.2436548,4.18940355 19.7969543,4.18940355 C23.3502538,4.18940355 26.4974619,5.91529188 28.3248731,8.65640863 C29.6446701,10.382297 30.3553299,12.4127538 30.3553299,14.6462563 Z M18.8832487,10.1792513 L17.5634518,10.1792513 L17.5634518,12.6157995 L16.0406091,12.6157995 C14.5177665,12.6157995 13.1979695,13.8340736 13.1979695,15.4584391 L13.1979695,16.0675761 C13.1979695,17.5904188 14.4162437,18.9102157 16.0406091,18.9102157 L18.680203,18.9102157 L18.680203,18.8086929 L18.7817259,18.8086929 L18.7817259,10.1792513 L18.8832487,10.1792513 Z M25.8883249,12.7173223 L24.4670051,12.7173223 L24.4670051,17.6919416 L22.8426396,17.6919416 C22.2335025,17.6919416 21.6243655,17.1843274 21.6243655,16.4736675 L21.6243655,12.6157995 L20.3045685,12.6157995 L20.3045685,16.9812817 C20.3045685,17.9965102 21.1167513,18.9102157 22.2335025,18.9102157 L25.8883249,18.9102157 L25.8883249,12.7173223 L25.8883249,12.7173223 Z M14.9238579,16.0675761 L14.9238579,15.4584391 C14.9238579,14.6462563 15.5329949,14.0371193 16.3451777,14.0371193 L17.5634518,14.0371193 L17.5634518,17.5904188 L16.3451777,17.5904188 C15.5329949,17.4888959 14.9238579,16.8797589 14.9238579,16.0675761 L14.9238579,16.0675761 Z" id="形状" fill="#F93737" fill-rule="nonzero"></path>
                        <path d="M32.6903553,0.128489848 C36.751269,0.128489848 40,3.37722081 40,7.43813452 L40,11.2960025 L28.8324873,0.128489848 L32.6903553,0.128489848 Z" id="路径" fill="#B2E5FF" fill-rule="nonzero"></path>
                        <path d="M11.0659898,8.3518401 C10.3553299,9.46859137 9.74619289,10.6868655 9.44162437,11.9051396 L1.11675127,3.47874365 C2.43654822,1.4482868 4.67005076,0.0269670051 7.30964467,0.0269670051 L19.4923858,0.0269670051 L23.7563452,4.2909264 C22.5380711,3.78331218 21.2182741,3.5802665 19.8984772,3.5802665 C16.2436548,3.68178934 12.9949239,5.50920051 11.0659898,8.3518401 Z M30.7614213,14.4432107 C30.7614213,13.0218909 30.4568528,11.7020939 30.0507614,10.4838198 L39.7969543,20.2300127 L28.8324873,31.2960025 L24.1624365,26.6259518 C25.177665,25.0015863 26.3959391,23.4787437 27.715736,21.955901 L28.0203046,21.6513325 C29.6446701,19.7223985 30.7614213,17.1843274 30.7614213,14.4432107 L30.7614213,14.4432107 Z" id="形状" fill="#E6F28F" fill-rule="nonzero"></path>
                    </g>
                </g>
            </g>
        </g>
    </g>
</svg>