<?xml version="1.0" encoding="UTF-8"?>
<svg width="40px" height="40px" viewBox="0 0 40 40" version="1.1" xmlns="http://www.w3.org/2000/svg" xmlns:xlink="http://www.w3.org/1999/xlink">
    <title>编组</title>
    <g id="任务" stroke="none" stroke-width="1" fill="none" fill-rule="evenodd">
        <g id="路径分享" transform="translate(-98.000000, -1242.000000)" fill-rule="nonzero">
            <g id="编组" transform="translate(0.000000, 1030.000000)">
                <g id="高德" transform="translate(32.000000, 192.000000)">
                    <g id="编组" transform="translate(66.000000, 20.000000)">
                        <path d="M4.64890639,0 L34.8667978,0 C37.9660688,0 39.5157042,1.54963546 39.5157042,4.64890639 L39.5157042,34.8667978 C39.5157042,37.9660688 37.9660687,39.5157042 34.8667978,39.5157042 L4.64890639,39.5157042 C1.54963546,39.5157042 0,37.9660945 0,34.8667978 L0,4.64890639 C0,1.54963546 1.54963546,0 4.64890639,0 Z" id="路径" fill="#F1F1F1"></path>
                        <path d="M25.402757,23.9918443 L39.5157428,23.9918443 L39.5157428,34.4983712 C39.5995847,35.8403226 39.1080941,37.1544972 38.1642385,38.1120981 C37.2203829,39.0696989 35.913451,39.580137 34.5704278,39.5157042 L25.402757,39.5157042 L25.402757,23.9918443 Z" id="路径" fill="#B2D8FF"></path>
                        <polygon id="路径" fill="#FFFFFF" points="39.5157428 14.0617704 39.5157428 8.43656823 0 8.43656823 0 14.0617704"></polygon>
                        <polygon id="路径" fill="#FFFFFF" points="25.0494596 39.5157428 30.6746617 39.5157428 30.6746617 0 25.0494596 0"></polygon>
                        <polygon id="路径" fill="#FFCF68" points="39.5157428 28.1479714 39.5157428 22.5227692 0 22.5227692 0 28.1479714"></polygon>
                        <path d="M0,8.43660682 L25.0518138,8.43660682 L25.0518138,0 L5.64488556,0 C1.1471167,0 0,2.52784817 0,5.64492416 L0,8.43429117 L0,8.43660682 Z" id="路径" fill="#AFE881"></path>
                        <polygon id="路径" fill="#FFCF68" points="7.55216681 39.5157428 13.1773304 39.5157428 13.1773304 0 7.55212821 0"></polygon>
                        <polygon id="路径" fill="#0093FD" points="4.00850172 20.9805182 13.4923032 23.8512046 25.1703387 13.9351021 16.1189156 24.615962 26.2593315 27.7539564 31.4812173 7.67999301"></polygon>
                        <polygon id="路径" fill="#0066BD" points="25.1691808 13.9362599 13.4899875 23.8500468 16.1177577 24.6148041"></polygon>
                        <polygon id="路径" fill="#0064BB" points="13.4923032 23.8524011 13.4923032 29.405508 17.2718601 24.9739294 13.4911067 23.8523625"></polygon>
                    </g>
                </g>
            </g>
        </g>
    </g>
</svg>