<?xml version="1.0" encoding="UTF-8"?>
<svg width="15px" height="15px" viewBox="0 0 15 15" version="1.1" xmlns="http://www.w3.org/2000/svg" xmlns:xlink="http://www.w3.org/1999/xlink">
    <title>路径备份</title>
    <g id="页面-1" stroke="none" stroke-width="1" fill="none" fill-rule="evenodd">
        <g id="切图整合" transform="translate(-339.000000, -121.000000)" fill="#56E9FF" fill-rule="nonzero">
            <path d="M350.437366,130.856136 C350.48497,130.87561 351.53658,131.310535 352.395611,131.922892 C352.718018,132.156583 353.261133,132.546068 353.347685,133.097839 C353.403944,133.478669 353.263297,133.894119 352.910597,134.37232 C352.826208,134.497821 352.038583,135.564577 350.532574,135.8502 C350.119287,135.928097 349.684362,135.943243 349.23429,135.891312 C348.764744,135.837217 348.27356,135.716044 347.778049,135.523465 C345.82846,134.807245 344.22508,133.708032 342.57626,131.968332 C339.743838,128.973625 339.157446,126.063306 339.06873,125.509371 C338.616495,122.9669 340.535791,121.566917 340.754335,121.417615 C341.057268,121.203398 341.329907,121.073569 341.596056,121.023802 C341.669625,121.008655 341.749686,121 341.838402,121 C341.883842,121 341.929282,121.002164 341.972558,121.006491 C342.21274,121.032457 342.565441,121.155794 342.864046,121.588555 C343.275169,122.174947 343.714421,123.038305 344.077941,123.966578 C344.458771,124.925144 343.956768,125.310301 343.469911,125.68464 L343.450437,125.697623 C343.450437,125.697623 342.57626,126.275359 342.420466,126.377058 C342.271163,126.476593 342.217068,126.67999 342.305784,126.837948 C342.898667,127.934998 343.699275,129.038539 344.621056,130.025234 C345.529855,130.996783 346.555499,131.857978 347.589798,132.515775 C347.639565,132.550396 347.70448,132.572034 347.773721,132.572034 C347.795359,132.572034 347.816997,132.56987 347.836472,132.565542 L347.862437,132.556887 C347.9663,132.528758 348.046361,132.453025 348.087473,132.357817 C348.187008,132.167402 348.362277,131.855814 348.552691,131.585338 C348.918375,131.079008 349.281894,130.797713 349.658396,130.726307 C349.716819,130.715488 349.786061,130.706833 349.855303,130.706833 C349.896415,130.706833 349.937527,130.708997 349.976476,130.713325 C350.076011,130.717652 350.244788,130.773911 350.437366,130.856136 Z" id="路径备份"></path>
        </g>
    </g>
</svg>