<?xml version="1.0" encoding="UTF-8"?>
<svg width="183px" height="109px" viewBox="0 0 183 109" version="1.1" xmlns="http://www.w3.org/2000/svg" xmlns:xlink="http://www.w3.org/1999/xlink">
    <title>多云</title>
    <g id="首页" stroke="none" stroke-width="1" fill="none" fill-rule="evenodd">
        <g id="天气图标" transform="translate(-184.000000, -191.000000)" fill="#FFFFFF">
            <path d="M214.037583,249.570979 C202.541741,249.570979 193.191733,258.920987 193.191733,270.412663 C193.191733,281.904339 202.541741,291.254346 214.037583,291.254346 L324.904339,291.254346 C343.291853,291.254346 358.250199,276.296001 358.250199,257.908486 C358.250199,239.520971 343.291853,224.562626 324.904339,224.562626 C321.125169,224.562626 317.354333,225.229293 313.700163,226.541794 L310.258494,227.775129 L308.583492,224.520959 C300.679319,209.120947 285.054307,199.554273 267.800126,199.554273 C242.520939,199.554273 221.954256,220.125122 221.954256,245.404309 L221.954256,250.23348 L217.195919,249.837646 C216.158418,249.683479 215.112584,249.570979 214.037583,249.570979 M324.904339,299.587686 L214.037583,299.587686 C197.95007,299.587686 184.858393,286.500176 184.858393,270.412663 C184.858393,254.41265 197.808404,241.375139 213.77925,241.237639 C215.916751,213.300117 239.32927,191.220933 267.800126,191.220933 C287.012642,191.220933 304.520989,201.254274 314.29183,217.629287 C317.775166,216.70012 321.333502,216.229286 324.904339,216.229286 C347.88769,216.229286 366.583539,234.925134 366.583539,257.908486 C366.583539,280.891838 347.88769,299.587686 324.904339,299.587686" id="多云"></path>
        </g>
    </g>
</svg>