<?xml version="1.0" encoding="UTF-8"?>
<svg width="182px" height="224px" viewBox="0 0 182 224" version="1.1" xmlns="http://www.w3.org/2000/svg" xmlns:xlink="http://www.w3.org/1999/xlink">
    <title>大雨晴</title>
    <g id="首页" stroke="none" stroke-width="1" fill="none" fill-rule="evenodd">
        <g id="天气图标" transform="translate(-1184.000000, -726.000000)" fill="#FFFFFF">
            <path d="M1267.15926,782.875573 C1284.41344,782.875573 1300.03845,792.43808 1307.94263,807.842259 L1307.94263,807.842259 L1309.61763,811.092262 L1313.0593,809.863094 C1316.71347,808.54226 1320.4843,807.883926 1324.26347,807.883926 C1342.65099,807.883926 1357.60933,822.842271 1357.60933,841.233953 C1357.60933,859.617301 1342.65099,874.575646 1324.26347,874.575646 L1324.26347,874.575646 L1213.39672,874.575646 C1201.90087,874.575646 1192.55087,865.225639 1192.55087,853.733963 C1192.55087,842.242287 1201.90087,832.892279 1213.39672,832.892279 C1214.32588,832.892279 1215.32172,832.975613 1216.54255,833.158946 L1216.54255,833.158946 L1221.31339,833.56728 L1221.31339,828.725609 C1221.31339,803.442256 1241.88007,782.875573 1267.15926,782.875573 Z M1347.77679,792.50542 L1347.98849,792.51308 L1361.72183,793.317248 C1364.02184,793.446414 1365.776,795.417249 1365.6385,797.721418 C1365.5135,799.93392 1363.676,801.642254 1361.48433,801.642254 C1361.40517,801.642254 1361.32183,801.633921 1361.2385,801.633921 L1361.2385,801.633921 L1347.50516,800.838087 C1345.20515,800.69642 1343.45099,798.729752 1343.58432,796.433917 C1343.71765,794.138082 1345.64682,792.371414 1347.98849,792.51308 Z M1352.98433,761.663056 C1355.0385,760.638055 1357.54683,761.467222 1358.57183,763.517224 C1359.60517,765.575559 1358.776,768.075561 1356.71766,769.108895 L1356.71766,769.108895 L1344.42182,775.275567 C1343.82182,775.579734 1343.18432,775.725567 1342.55932,775.725567 C1341.03015,775.725567 1339.55932,774.879733 1338.83015,773.421398 C1337.79682,771.363063 1338.62598,768.863061 1340.68432,767.829727 L1340.68432,767.829727 Z M1241.86757,756.733885 C1243.13841,754.821384 1245.72174,754.283883 1247.63841,755.546384 L1247.63841,755.546384 L1259.13425,763.09639 C1261.05925,764.358891 1261.59259,766.93806 1260.33009,768.867228 C1259.53009,770.079729 1258.19675,770.746396 1256.84258,770.746396 C1256.05925,770.746396 1255.26342,770.517229 1254.55925,770.063062 L1254.55925,770.063062 L1243.06757,762.50889 C1241.14257,761.242222 1240.60924,758.663053 1241.86757,756.733885 Z M1329.57181,738.608871 C1330.84264,736.683869 1333.41765,736.154702 1335.34681,737.417203 C1337.26765,738.679704 1337.80098,741.263039 1336.53848,743.188041 L1336.53848,743.188041 L1328.98431,754.679717 C1328.18014,755.900551 1326.85097,756.558885 1325.49681,756.558885 C1324.70931,756.558885 1323.91764,756.333885 1323.2093,755.867218 C1321.28847,754.604717 1320.75514,752.025548 1322.01764,750.100546 L1322.01764,750.100546 Z M1267.95926,733.496367 C1270.03426,732.463032 1272.52593,733.296366 1273.5551,735.350535 L1273.5551,735.350535 L1279.73427,747.646378 C1280.7676,749.700546 1279.93427,752.204715 1277.8801,753.242216 C1277.2801,753.542216 1276.63843,753.688049 1276.01343,753.688049 C1274.48843,753.688049 1273.0176,752.842215 1272.28426,751.388048 L1272.28426,751.388048 L1266.10926,739.092204 C1265.07592,737.033869 1265.90509,734.529701 1267.95926,733.496367 Z M1301.96959,726.419281 L1302.17595,726.425528 C1304.47179,726.558861 1306.22596,728.529696 1306.09262,730.825531 L1306.09262,730.825531 L1305.29679,744.567209 C1305.16762,746.77971 1303.33012,748.492212 1301.14262,748.492212 C1301.05929,748.492212 1300.98012,748.488045 1300.89679,748.483879 C1298.59678,748.350545 1296.84262,746.375543 1296.98012,744.079708 L1296.98012,744.079708 L1297.77595,730.342197 C1297.90512,728.046362 1299.89679,726.300527 1302.17595,726.425528 Z M1233.4884,929.484023 C1235.11757,927.854855 1237.7509,927.854855 1239.38007,929.484023 C1241.00924,931.113191 1241.00924,933.746527 1239.38007,935.375695 L1239.38007,935.375695 L1226.58006,948.175705 C1225.76339,948.992372 1224.70089,949.396539 1223.63422,949.396539 C1222.56756,949.396539 1221.50089,948.992372 1220.68839,948.175705 C1219.05922,946.550704 1219.05922,943.913202 1220.68839,942.284034 L1220.68839,942.284034 Z M1284.08011,929.484023 C1285.70927,927.854855 1288.34261,927.854855 1289.97178,929.484023 C1291.60095,931.113191 1291.60095,933.746527 1289.97178,935.375695 L1289.97178,935.375695 L1277.17177,948.175705 C1276.3551,948.992372 1275.2926,949.396539 1274.22593,949.396539 C1273.15926,949.396539 1272.0926,948.992372 1271.2801,948.175705 C1269.65093,946.550704 1269.65093,943.913202 1271.2801,942.284034 L1271.2801,942.284034 Z M1219.84672,900.188167 C1221.47589,898.558999 1224.10922,898.558999 1225.73839,900.188167 C1227.36756,901.817335 1227.36756,904.45067 1225.73839,906.079838 L1225.73839,906.079838 L1212.93838,918.879848 C1212.12172,919.696515 1211.05921,920.100682 1209.99255,920.100682 C1208.92588,920.100682 1207.85921,919.696515 1207.04671,918.879848 C1205.41754,917.254847 1205.41754,914.617345 1207.04671,912.988177 L1207.04671,912.988177 Z M1270.4426,900.188167 C1272.07176,898.558999 1274.7051,898.558999 1276.33427,900.188167 C1277.96343,901.817335 1277.96343,904.45067 1276.33427,906.079838 L1276.33427,906.079838 L1263.53426,918.879848 C1262.71759,919.696515 1261.65509,920.100682 1260.58842,920.100682 C1259.52175,920.100682 1258.45509,919.696515 1257.64258,918.879848 C1256.01342,917.254847 1256.01342,914.617345 1257.64258,912.988177 L1257.64258,912.988177 Z M1321.03847,900.188167 C1322.66764,898.558999 1325.30097,898.558999 1326.93014,900.188167 C1328.55931,901.817335 1328.55931,904.45067 1326.93014,906.079838 L1326.93014,906.079838 L1314.13013,918.879848 C1313.31346,919.696515 1312.25096,920.100682 1311.18429,920.100682 C1310.11763,920.100682 1309.05096,919.696515 1308.23846,918.879848 C1306.60929,917.254847 1306.60929,914.617345 1308.23846,912.988177 L1308.23846,912.988177 Z M1269.12625,774.510705 C1275.95419,764.25143 1287.99491,758.207593 1300.28845,758.921387 C1309.60513,759.467221 1318.1593,763.596391 1324.36347,770.575563 C1330.57598,777.550568 1333.69681,786.513076 1333.15098,795.833916 C1333.06364,797.370202 1332.87608,798.890413 1332.59145,800.386893 C1351.59723,804.253776 1365.94267,821.094155 1365.94267,841.233953 C1365.94267,864.208971 1347.24682,882.908986 1324.26347,882.908986 L1213.39672,882.908986 C1197.3092,882.908986 1184.21753,869.821476 1184.21753,853.733963 C1184.21753,837.725617 1197.16754,824.696439 1213.13838,824.558939 C1215.27172,796.621417 1238.68424,774.542233 1267.15926,774.542233 C1267.8025,774.542233 1268.44382,774.553474 1269.08299,774.575819 Z M1299.80929,767.242227 C1291.80859,766.771984 1284.04406,770.018168 1278.70116,775.774369 C1293.2233,778.919304 1305.8818,787.930207 1313.65096,800.950587 C1317.13267,800.021854 1320.68931,799.551026 1324.25847,799.550586 C1324.55741,798.17794 1324.75007,796.774685 1324.83431,795.354749 C1325.24264,788.25891 1322.86764,781.425572 1318.14263,776.117234 C1313.41346,770.813063 1306.90096,767.654727 1299.80929,767.242227 Z" id="大雨晴"></path>
        </g>
    </g>
</svg>