<?xml version="1.0" encoding="UTF-8"?>
<svg width="183px" height="195px" viewBox="0 0 183 195" version="1.1" xmlns="http://www.w3.org/2000/svg" xmlns:xlink="http://www.w3.org/1999/xlink">
    <title>中雨晴</title>
    <g id="首页" stroke="none" stroke-width="1" fill="none" fill-rule="evenodd">
        <g id="天气图标" transform="translate(-434.000000, -434.000000)" fill="#FFFFFF">
            <path d="M517.800326,490.792006 C535.054507,490.792006 550.679519,500.35868 558.583692,515.758692 L558.583692,515.758692 L560.258694,519.012862 L563.700363,517.779527 C567.354533,516.467026 571.125369,515.800359 574.904539,515.800359 C593.292053,515.800359 608.250399,530.758704 608.250399,549.146219 C608.250399,567.533734 593.292053,582.487912 574.904539,582.487912 L574.904539,582.487912 L464.037783,582.487912 C452.541941,582.487912 443.191933,573.142072 443.191933,561.646229 C443.191933,550.15872 452.541941,540.808712 464.037783,540.808712 C465.112784,540.808712 466.158618,540.921212 467.196119,541.075379 L467.196119,541.075379 L471.954456,541.471213 L471.954456,536.642042 C471.954456,511.362855 492.521139,490.792006 517.800326,490.792006 Z M598.417627,500.433025 L598.625391,500.437847 L612.362902,501.233681 C614.662904,501.367014 616.417072,503.337849 616.279572,505.637851 C616.154572,507.850353 614.31707,509.562854 612.125402,509.562854 C612.046235,509.562854 611.962902,509.558687 611.883735,509.554521 L611.883735,509.554521 L598.146224,508.758687 C595.846222,508.621187 594.092054,506.650352 594.225387,504.354517 C594.362887,502.058681 596.329556,500.329513 598.625391,500.437847 Z M603.625395,469.579489 C605.68373,468.550321 608.183732,469.379489 609.212899,471.433657 C610.246234,473.487825 609.417066,475.991994 607.358731,477.025328 L607.358731,477.025328 L595.062888,483.196166 C594.462888,483.500333 593.825387,483.642 593.200387,483.642 C591.671219,483.642 590.204551,482.800333 589.471217,481.346165 C588.437883,479.28783 589.26705,476.783661 591.325385,475.750327 L591.325385,475.750327 Z M492.508639,464.650318 C493.779474,462.729483 496.366976,462.200316 498.279477,463.454484 L498.279477,463.454484 L509.77532,471.008657 C511.700321,472.275324 512.233655,474.85866 510.971154,476.779494 C510.171153,477.996162 508.837819,478.658663 507.483651,478.658663 C506.700317,478.658663 505.904483,478.437829 505.200316,477.971162 L505.200316,477.971162 L493.70864,470.421156 C491.783639,469.154488 491.250305,466.571153 492.508639,464.650318 Z M580.212876,446.525304 C581.479544,444.604469 584.062879,444.075302 585.987881,445.333636 C587.908716,446.596137 588.442049,449.179472 587.179548,451.104474 L587.179548,451.104474 L579.625376,462.59615 C578.821208,463.812817 577.492041,464.475318 576.137873,464.475318 C575.350372,464.475318 574.558705,464.254484 573.850371,463.787817 C571.929536,462.525316 571.396202,459.941981 572.658703,458.016979 L572.658703,458.016979 Z M518.600327,441.416966 C520.671162,440.387799 523.166997,441.216966 524.196165,443.271134 L524.196165,443.271134 L530.375336,455.562811 C531.40867,457.616979 530.575336,460.125314 528.521168,461.158649 C527.921168,461.458649 527.2795,461.600316 526.6545,461.600316 C525.129499,461.600316 523.658664,460.758648 522.92533,459.304481 L522.92533,459.304481 L516.750325,447.008637 C515.716991,444.954469 516.546159,442.4503 518.600327,441.416966 Z M552.618388,434.3343 L552.821188,434.341961 C555.117023,434.475294 556.871191,436.446129 556.737857,438.746131 L556.737857,438.746131 L555.942023,452.487808 C555.812857,454.70031 553.975355,456.408645 551.787853,456.408645 C551.70452,456.408645 551.625353,456.408645 551.54202,456.404478 C549.242018,456.271145 547.48785,454.30031 547.62535,452.000308 L547.62535,452.000308 L548.421184,438.262797 C548.550351,435.966962 550.583686,434.200294 552.821188,434.341961 Z M470.491955,608.200433 C472.121123,606.571265 474.754458,606.571265 476.383626,608.200433 C478.012794,609.829601 478.012794,612.462936 476.383626,614.092104 L476.383626,614.092104 L463.583616,626.892115 C462.766949,627.708782 461.704448,628.112949 460.637781,628.112949 C459.571113,628.112949 458.504445,627.708782 457.691945,626.892115 C456.062777,625.267113 456.062777,622.629611 457.691945,621.000443 L457.691945,621.000443 Z M521.083662,608.200433 C522.71283,606.571265 525.346166,606.571265 526.975334,608.200433 C528.604502,609.829601 528.604502,612.462936 526.975334,614.092104 L526.975334,614.092104 L514.175323,626.892115 C513.358656,627.708782 512.296155,628.112949 511.229488,628.112949 C510.16282,628.112949 509.096153,627.708782 508.283652,626.892115 C506.654484,625.267113 506.654484,622.629611 508.283652,621.000443 L508.283652,621.000443 Z M571.679536,608.200433 C573.308704,606.571265 575.942039,606.571265 577.571207,608.200433 C579.200375,609.829601 579.200375,612.462936 577.571207,614.092104 L577.571207,614.092104 L564.771197,626.892115 C563.95453,627.708782 562.892029,628.112949 561.825361,628.112949 C560.758694,628.112949 559.692026,627.708782 558.879526,626.892115 C557.250358,625.267113 557.250358,622.629611 558.879526,621.000443 L558.879526,621.000443 Z M519.767903,482.424412 C526.597262,472.170404 538.624337,466.116268 550.929519,466.83782 C560.246194,467.379487 568.800367,471.51699 575.004539,478.491996 C581.217044,485.462835 584.337879,494.437842 583.792046,503.758683 C583.704738,505.290544 583.517263,506.809175 583.232773,508.304227 C602.238301,512.17105 616.583739,529.013721 616.583739,549.146219 C616.583739,572.125404 597.88789,590.821252 574.904539,590.821252 L464.037783,590.821252 C447.95027,590.821252 434.858593,577.733742 434.858593,561.646229 C434.858593,545.646216 447.808604,532.612872 463.77945,532.475372 C465.916951,504.53785 489.32947,482.458666 517.800326,482.458666 C518.443207,482.458666 519.084179,482.4699 519.723017,482.49223 Z M550.450352,475.15866 C542.424999,474.701665 534.679819,477.938813 529.34366,483.69105 C543.86319,486.836776 556.52332,495.847391 564.29203,508.86702 C567.77374,507.938287 571.33038,507.467459 574.899537,507.467019 C575.198484,506.097103 575.39114,504.695261 575.475372,503.275349 C575.883706,496.175343 573.508704,489.342005 568.7837,484.0295 C564.05453,478.721163 557.546191,475.57116 550.450352,475.15866 Z" id="中雨晴"></path>
        </g>
    </g>
</svg>