<?xml version="1.0" encoding="UTF-8"?>
<svg width="183px" height="177px" viewBox="0 0 183 177" version="1.1" xmlns="http://www.w3.org/2000/svg" xmlns:xlink="http://www.w3.org/1999/xlink">
    <title>雾天太阳</title>
    <g id="首页" stroke="none" stroke-width="1" fill="none" fill-rule="evenodd">
        <g id="天气图标" transform="translate(-434.000000, -1018.000000)" fill="#FFFFFF">
            <path d="M517.800326,1074.46331 C535.05034,1074.46331 550.675353,1084.02581 558.583692,1099.42999 L560.254527,1102.68 L563.696196,1101.45083 C567.350366,1100.12999 571.125369,1099.47166 574.904539,1099.47166 C593.292053,1099.47166 608.250399,1114.43 608.250399,1132.81335 C608.250399,1139.86752 605.99623,1146.68836 601.925394,1152.33003 C597.36289,1141.30086 586.496215,1133.53002 573.842038,1133.53002 C570.471202,1133.53002 567.183699,1134.08419 564.021197,1135.17585 C557.017024,1123.43835 544.229514,1116.05084 530.425336,1116.05084 C510.30032,1116.05084 493.675307,1131.31752 491.529472,1151.0592 C482.441965,1151.5967 474.933625,1157.80504 472.279456,1166.16338 L464.033617,1166.16338 C452.541941,1166.16338 443.191933,1156.81337 443.191933,1145.3217 C443.191933,1133.83002 452.541941,1124.48001 464.033617,1124.48001 C465.112784,1124.48001 466.162785,1124.59251 467.204452,1124.74251 L471.954456,1125.12168 L471.954456,1120.31334 C471.954456,1095.02999 492.516973,1074.46331 517.800326,1074.46331 Z M598.417627,1084.10075 L598.625391,1084.10915 L612.362902,1084.90498 C614.662904,1085.03415 616.417072,1087.00498 616.279572,1089.30082 C616.154572,1091.52165 614.31707,1093.22999 612.125402,1093.22999 C612.046235,1093.22999 611.962902,1093.22165 611.883735,1093.22165 L611.883735,1093.22165 L598.146224,1092.42582 C595.846222,1092.29249 594.092054,1090.31749 594.225387,1088.02165 C594.362887,1085.72581 596.329556,1083.95915 598.625391,1084.10915 Z M603.621228,1053.23829 C605.692063,1052.20495 608.183732,1053.03412 609.212899,1055.09246 C610.246234,1057.15079 609.417066,1059.65079 607.362898,1060.68413 L607.362898,1060.68413 L595.067055,1066.85913 C594.462888,1067.1633 593.825387,1067.30913 593.200387,1067.30913 C591.671219,1067.30913 590.204551,1066.47163 589.471217,1065.0133 C588.437883,1062.95496 589.26705,1060.44663 591.321218,1059.41329 L591.321218,1059.41329 Z M492.508639,1048.31745 C493.779474,1046.38828 496.366976,1045.85078 498.279477,1047.12162 L498.279477,1047.12162 L509.77532,1054.67162 C511.700321,1055.93412 512.233655,1058.52163 510.971154,1060.44246 C510.171153,1061.6633 508.837819,1062.32163 507.483651,1062.32163 C506.700317,1062.32163 505.904483,1062.1008 505.200316,1061.6383 L505.200316,1061.6383 L493.70864,1054.08412 C491.783639,1052.81746 491.250305,1050.23829 492.508639,1048.31745 Z M580.212876,1030.19244 C581.479544,1028.26327 584.071213,1027.7341 585.983714,1028.9966 C587.908716,1030.2591 588.442049,1032.84661 587.179548,1034.76744 L587.179548,1034.76744 L579.625376,1046.26745 C578.821208,1047.48412 577.492041,1048.14662 576.137873,1048.14662 C575.350372,1048.14662 574.558705,1047.92578 573.854538,1047.46328 C571.929536,1046.19245 571.396202,1043.61328 572.658703,1041.69245 L572.658703,1041.69245 Z M518.600327,1025.0716 C520.671162,1024.03827 523.166997,1024.86743 524.196165,1026.92993 L524.196165,1026.92993 L530.375336,1039.22578 C531.40867,1041.28411 530.575336,1043.78411 528.521168,1044.81745 C527.921168,1045.11745 527.2795,1045.26328 526.6545,1045.26328 C525.129499,1045.26328 523.658664,1044.42578 522.92533,1042.96745 L522.92533,1042.96745 L516.750325,1030.6716 C515.716991,1028.61327 516.546159,1026.10493 518.600327,1025.0716 Z M552.618388,1018.00392 L552.821188,1018.00909 C555.117023,1018.13826 556.871191,1020.1091 556.737857,1022.40493 L556.737857,1022.40493 L555.942023,1036.15078 C555.812857,1038.37161 553.975355,1040.07995 551.787853,1040.07995 C551.70452,1040.07995 551.625353,1040.07161 551.54202,1040.07161 C549.242018,1039.94245 547.48785,1037.96328 547.62535,1035.66744 L547.62535,1035.66744 L548.421184,1021.92576 C548.550351,1019.62993 550.583686,1017.89659 552.821188,1018.00909 Z M573.842038,1185.9884 L492.837806,1185.9884 C485.491967,1185.9884 479.512796,1180.00506 479.512796,1172.66755 C479.512796,1165.32588 485.491967,1159.35087 492.837806,1159.35087 C493.516973,1159.35087 494.187807,1159.42587 494.837808,1159.52171 L499.625312,1160.03421 L499.625312,1155.1842 C499.625312,1138.20086 513.441989,1124.38418 530.425336,1124.38418 C542.342013,1124.38418 553.300355,1131.38835 558.342025,1142.23836 L560.15036,1146.12586 L563.987863,1144.21336 C567.108699,1142.65086 570.425368,1141.86336 573.842038,1141.86336 C586.008714,1141.86336 595.904555,1151.7592 595.904555,1163.92588 C595.904555,1176.09255 586.008714,1185.9884 573.842038,1185.9884 M519.767903,1066.08652 C526.597262,1055.82871 538.624337,1049.77176 550.929519,1050.50495 C560.246194,1051.04245 568.800367,1055.18412 575.004539,1062.1508 C581.217044,1069.1258 584.337879,1078.10081 583.792046,1087.42582 C583.704601,1088.96007 583.516678,1090.47915 583.231441,1091.97493 C602.237798,1095.8417 616.583739,1112.68415 616.583739,1132.81335 C616.583739,1143.95503 612.050402,1154.60087 604.158729,1162.41338 C604.183729,1162.91754 604.237895,1163.41338 604.237895,1163.92588 C604.237895,1180.68006 590.600384,1194.32174 573.842038,1194.32174 L573.842038,1194.32174 L492.837806,1194.32174 C481.521131,1194.32174 472.31279,1185.57173 471.366956,1174.49672 L471.366956,1174.49672 L464.033617,1174.49672 C447.946104,1174.49672 434.858593,1161.40921 434.858593,1145.3217 C434.858593,1129.31335 447.808604,1116.28417 463.77945,1116.14667 C465.916951,1088.20915 489.32947,1066.12997 517.800326,1066.12997 C518.441275,1066.12997 519.080331,1066.14114 519.71727,1066.16334 Z M550.450352,1058.82163 C542.420349,1058.38411 534.670844,1061.61124 529.334387,1067.3609 C543.854955,1070.50518 556.517905,1079.5166 564.287863,1092.53832 C567.775366,1091.60915 571.329536,1091.13832 574.904539,1091.13832 C575.197643,1089.76479 575.390956,1088.36133 575.475372,1086.93832 C575.883706,1079.84248 573.508704,1073.00497 568.7837,1067.69247 C564.05453,1062.3883 557.546191,1059.22996 550.450352,1058.82163 Z" id="雾天太阳"></path>
        </g>
    </g>
</svg>