<?xml version="1.0" encoding="UTF-8"?>
<svg width="183px" height="224px" viewBox="0 0 183 224" version="1.1" xmlns="http://www.w3.org/2000/svg" xmlns:xlink="http://www.w3.org/1999/xlink">
    <title>太阳雷阵雨</title>
    <g id="首页" stroke="none" stroke-width="1" fill="none" fill-rule="evenodd">
        <g id="天气图标" transform="translate(-434.000000, -726.000000)" fill="#FFFFFF">
            <path d="M488.521136,929.58819 C490.150304,927.959022 492.78364,927.959022 494.412808,929.58819 C496.041976,931.217358 496.041976,933.850693 494.412808,935.479861 L494.412808,935.479861 L481.612797,948.279872 C480.79613,949.096539 479.733629,949.500706 478.666962,949.500706 C477.600294,949.500706 476.533627,949.096539 475.721126,948.279872 C474.091958,946.65487 474.091958,944.017368 475.721126,942.3882 L475.721126,942.3882 Z M555.779523,929.58819 C557.408691,927.959022 560.042027,927.959022 561.671195,929.58819 C563.300363,931.217358 563.300363,933.850693 561.671195,935.479861 L561.671195,935.479861 L548.871184,948.279872 C548.054517,949.096539 546.992016,949.500706 545.925349,949.500706 C544.858681,949.500706 543.792014,949.096539 542.979513,948.279872 C541.350345,946.65487 541.350345,944.017368 542.979513,942.3882 L542.979513,942.3882 Z M475.725293,900.284 C477.358627,898.654832 479.987796,898.654832 481.616964,900.284 C483.250299,901.913168 483.250299,904.546503 481.616964,906.175671 L481.616964,906.175671 L468.816954,918.975682 C468.000286,919.792349 466.941952,920.196516 465.875285,920.196516 C464.808617,920.196516 463.74195,919.792349 462.925282,918.975682 C461.300281,917.35068 461.300281,914.713178 462.925282,913.08401 L462.925282,913.08401 Z M585.242047,900.284 C586.871215,898.654832 589.50455,898.654832 591.133718,900.284 C592.762886,901.913168 592.762886,904.546503 591.133718,906.175671 L591.133718,906.175671 L578.333708,918.975682 C577.517041,919.792349 576.45454,920.196516 575.387872,920.196516 C574.321205,920.196516 573.254537,919.792349 572.442037,918.975682 C570.812869,917.35068 570.812869,914.713178 572.442037,913.08401 L572.442037,913.08401 Z M517.800326,782.796406 C535.054507,782.796406 550.679519,792.358914 558.583692,807.763093 L558.583692,807.763093 L560.258694,811.013095 L563.700363,809.783928 C567.354533,808.463093 571.125369,807.804759 574.904539,807.804759 C593.292053,807.804759 608.250399,822.763105 608.250399,841.146453 C608.250399,859.529801 593.292053,874.496479 574.904539,874.496479 L574.904539,874.496479 L464.037783,874.496479 C452.541941,874.496479 443.191933,865.146472 443.191933,853.654796 C443.191933,842.16312 452.541941,832.813113 464.037783,832.813113 C465.116951,832.813113 466.166952,832.925613 467.208619,833.071446 L467.208619,833.071446 L471.954456,833.45478 L471.954456,828.646443 C471.954456,803.363089 492.521139,782.796406 517.800326,782.796406 Z M598.41181,792.428368 L598.629558,792.433914 L612.362902,793.238081 C614.662904,793.367248 616.417072,795.338083 616.279572,797.642251 C616.154572,799.854753 614.31707,801.563088 612.125402,801.563088 C612.046235,801.563088 611.962902,801.554754 611.879568,801.554754 L611.879568,801.554754 L598.146224,800.75892 C595.846222,800.617254 594.092054,798.650585 594.225387,796.35475 C594.362887,794.050582 596.217056,792.317247 598.629558,792.433914 Z M603.621228,761.571389 C605.692063,760.546388 608.183732,761.367222 609.212899,763.425557 C610.246234,765.475559 609.417066,767.983894 607.362898,769.017228 L607.362898,769.017228 L595.067055,775.192233 C594.462888,775.4964 593.825387,775.642234 593.200387,775.642234 C591.671219,775.642234 590.204551,774.7964 589.471217,773.338065 C588.437883,771.288063 589.26705,768.779728 591.321218,767.746394 L591.321218,767.746394 Z M492.508639,756.642218 C493.779474,754.729717 496.366976,754.192216 498.279477,755.454717 L498.279477,755.454717 L509.77532,763.004723 C511.700321,764.267224 512.233655,766.846393 510.971154,768.775561 C510.171153,769.988062 508.837819,770.65473 507.483651,770.65473 C506.700317,770.65473 505.904483,770.425563 505.200316,769.971396 L505.200316,769.971396 L493.70864,762.417223 C491.783639,761.150555 491.250305,758.571387 492.508639,756.642218 Z M580.212876,738.521371 C581.479544,736.600536 584.071213,736.071369 585.983714,737.325536 C587.908716,738.592204 588.442049,741.171373 587.179548,743.096374 L587.179548,743.096374 L579.625376,754.60055 C578.821208,755.813051 577.492041,756.479718 576.137873,756.479718 C575.350372,756.479718 574.558705,756.250551 573.854538,755.796384 C571.929536,754.52555 571.396202,751.942215 572.658703,750.017213 L572.658703,750.017213 Z M518.600327,733.4047 C520.671162,732.375532 523.166997,733.2047 524.196165,735.258868 L524.196165,735.258868 L530.375336,747.554711 C531.40867,749.608879 530.575336,752.113048 528.521168,753.150549 C527.921168,753.450549 527.2795,753.596383 526.6545,753.596383 C525.129499,753.596383 523.658664,752.750549 522.92533,751.296381 L522.92533,751.296381 L516.750325,739.000538 C515.716991,736.942203 516.546159,734.438034 518.600327,733.4047 Z M552.618388,726.329644 L552.821188,726.338027 C555.117023,726.471361 556.871191,728.438029 556.737857,730.738031 L556.737857,730.738031 L555.942023,744.488042 C555.812857,746.700544 553.975355,748.413045 551.787853,748.413045 C551.70452,748.413045 551.625353,748.408878 551.54202,748.404712 C549.242018,748.271378 547.48785,746.300543 547.62535,744.000542 L547.62535,744.000542 L548.421184,730.254697 C548.550351,727.958862 550.583686,726.188027 552.821188,726.338027 Z M519.767903,774.419897 C526.597262,764.164445 538.624337,758.123685 550.929519,758.82972 C560.246194,759.375554 568.800367,763.508891 575.004539,770.483896 C581.217044,777.458902 584.337879,786.433909 583.792046,795.750583 C583.704517,797.286307 583.516317,798.808735 583.230619,800.307892 C602.237295,804.173299 616.583739,821.013248 616.583739,841.146453 C616.583739,864.129804 597.88789,882.829819 574.904539,882.829819 L538.886593,882.829157 L536.508675,894.417329 L553.425355,894.417329 L516.591992,941.5007 L523.525331,907.671506 L505.72115,907.671506 L510.811593,882.829157 L464.037783,882.829819 C447.95027,882.829819 434.858593,869.742309 434.858593,853.654796 C434.858593,837.64645 447.808604,824.617273 463.77945,824.479773 C465.912785,796.54225 489.325303,774.463066 517.800326,774.463066 C518.441218,774.463066 519.080204,774.474226 519.717063,774.496409 Z M550.450352,767.154727 C542.419182,766.690821 534.668592,769.934208 529.33206,775.693013 C543.858542,778.835994 556.521085,787.848046 564.29203,800.87142 C567.77309,799.94286 571.329051,799.472035 574.897537,799.47142 C575.197643,798.097893 575.390956,796.694427 575.475372,795.271416 C575.883706,788.175577 573.508704,781.338071 568.7837,776.025567 C564.05453,770.721396 557.546191,767.56306 550.450352,767.154727 Z" id="太阳雷阵雨"></path>
        </g>
    </g>
</svg>