<?xml version="1.0" encoding="UTF-8"?>
<svg width="182px" height="216px" viewBox="0 0 182 216" version="1.1" xmlns="http://www.w3.org/2000/svg" xmlns:xlink="http://www.w3.org/1999/xlink">
    <title>多云晴闪电</title>
    <g id="首页" stroke="none" stroke-width="1" fill="none" fill-rule="evenodd">
        <g id="天气图标" transform="translate(-1184.000000, -434.000000)" fill="#FFFFFF">
            <path d="M1219.84672,608.6171 C1221.47589,606.987932 1224.10922,606.987932 1225.73839,608.6171 C1227.36756,610.246268 1227.36756,612.879603 1225.73839,614.508771 L1225.73839,614.508771 L1212.93838,627.308782 C1212.12172,628.125449 1211.05921,628.529616 1209.99255,628.529616 C1208.92588,628.529616 1207.85921,628.125449 1207.04671,627.308782 C1205.41754,625.68378 1205.41754,623.046278 1207.04671,621.41711 L1207.04671,621.41711 Z M1325.19681,608.6171 C1326.82181,606.987932 1329.45931,606.987932 1331.08848,608.6171 C1332.71764,610.246268 1332.71764,612.879603 1331.08848,614.508771 L1331.08848,614.508771 L1318.28847,627.308782 C1317.4718,628.125449 1316.40513,628.529616 1315.34263,628.529616 C1314.2718,628.529616 1313.2093,628.125449 1312.3968,627.308782 C1310.76763,625.68378 1310.76763,623.046278 1312.3968,621.41711 L1312.3968,621.41711 Z M1267.15926,491.208673 C1284.41344,491.208673 1300.03845,500.775347 1307.94263,516.175359 L1307.94263,516.175359 L1309.61763,519.429529 L1313.0593,518.196194 C1316.71347,516.883693 1320.4843,516.217026 1324.26347,516.217026 C1342.65099,516.217026 1357.60933,531.175371 1357.60933,549.562886 C1357.60933,567.950401 1342.65099,582.904579 1324.26347,582.904579 L1324.26347,582.904579 L1213.39672,582.904579 C1201.90087,582.904579 1192.55087,573.558739 1192.55087,562.062896 C1192.55087,550.575387 1201.90087,541.225379 1213.39672,541.225379 C1214.47172,541.225379 1215.51755,541.337879 1216.55505,541.492046 L1216.55505,541.492046 L1221.31339,541.88788 L1221.31339,537.058709 C1221.31339,511.779522 1241.88007,491.208673 1267.15926,491.208673 Z M1347.7826,500.847911 L1347.98432,500.854514 L1361.72183,501.650348 C1364.02184,501.783681 1365.776,503.754516 1365.6385,506.054518 C1365.5135,508.26702 1363.676,509.979521 1361.48433,509.979521 C1361.40517,509.979521 1361.32183,509.975354 1361.24267,509.971188 L1361.24267,509.971188 L1347.50516,509.175354 C1345.20515,509.037854 1343.45099,507.067019 1343.58432,504.771184 C1343.71765,502.475348 1345.75932,500.725347 1347.98432,500.854514 Z M1352.98433,469.991989 C1355.0385,468.958655 1357.5385,469.791989 1358.57183,471.846157 C1359.60517,473.900326 1358.776,476.404494 1356.71766,477.437828 L1356.71766,477.437828 L1344.42182,483.608667 C1343.82182,483.912834 1343.18432,484.0545 1342.55932,484.0545 C1341.03015,484.0545 1339.56348,483.212833 1338.83015,481.758665 C1337.79682,479.70033 1338.62598,477.196161 1340.68432,476.162827 L1340.68432,476.162827 Z M1241.86757,465.066985 C1243.13841,463.141984 1245.72174,462.612816 1247.63841,463.871151 L1247.63841,463.871151 L1259.13425,471.425324 C1261.05925,472.691991 1261.59259,475.275327 1260.33009,477.196161 C1259.53009,478.412829 1258.19675,479.07533 1256.84258,479.07533 C1256.05925,479.07533 1255.26342,478.854496 1254.55925,478.387829 L1254.55925,478.387829 L1243.06757,470.837823 C1241.14257,469.571155 1240.60924,466.98782 1241.86757,465.066985 Z M1329.57181,446.941971 C1330.84264,445.021136 1333.41765,444.491969 1335.34681,445.750303 C1337.26765,447.012804 1337.80098,449.596139 1336.53848,451.521141 L1336.53848,451.521141 L1328.98431,463.012817 C1328.18014,464.229484 1326.85097,464.891985 1325.49681,464.891985 C1324.70931,464.891985 1323.91764,464.671151 1323.2093,464.204484 C1321.28847,462.941983 1320.75514,460.358648 1322.01764,458.433646 L1322.01764,458.433646 Z M1267.95926,441.829467 C1270.03426,440.796132 1272.52593,441.629466 1273.5551,443.683635 L1273.5551,443.683635 L1279.73427,455.975311 C1280.7676,458.029479 1279.93427,460.537815 1277.8801,461.571149 C1277.2801,461.871149 1276.63843,462.012816 1276.01343,462.012816 C1274.48843,462.012816 1273.0176,461.171149 1272.28426,459.716981 L1272.28426,459.716981 L1266.10926,447.421138 C1265.07592,445.366969 1265.90509,442.862801 1267.95926,441.829467 Z M1301.96959,434.754518 L1302.17595,434.758628 C1304.47179,434.891961 1306.22596,436.862796 1306.09262,439.162798 L1306.09262,439.162798 L1305.29679,452.904475 C1305.16762,455.116977 1303.33012,456.825312 1301.14262,456.825312 C1301.05929,456.825312 1300.98012,456.825312 1300.89679,456.821145 C1298.59678,456.687812 1296.84262,454.716977 1296.98012,452.416975 L1296.98012,452.416975 L1297.77595,438.679464 C1297.90512,436.379462 1299.89679,434.658627 1302.17595,434.758628 Z M1269.12625,482.838158 C1275.95419,472.591332 1287.99491,466.563682 1300.28845,467.25032 C1309.60513,467.791987 1318.1593,471.933657 1324.36347,478.904496 C1330.57598,485.875335 1333.69681,494.850342 1333.15098,504.17535 C1333.06364,505.70568 1332.87608,507.224665 1332.59145,508.720141 C1351.59723,512.587717 1365.94267,529.430388 1365.94267,549.562886 C1365.94267,572.542071 1347.24682,591.237919 1324.26347,591.237919 L1284.37453,591.237482 L1282.01344,602.746262 L1298.93012,602.746262 L1262.09676,649.829633 L1269.03009,616.004606 L1251.22591,616.004606 L1256.30053,591.237482 L1213.39672,591.237919 C1197.3092,591.237919 1184.21753,578.150409 1184.21753,562.062896 C1184.21753,546.062883 1197.16754,533.029539 1213.13838,532.892039 C1215.27588,504.954517 1238.6884,482.875333 1267.15926,482.875333 C1267.80113,482.875333 1268.4411,482.886532 1269.07895,482.908792 Z M1299.80929,475.57116 C1291.80813,475.107468 1284.04316,478.350248 1278.70024,484.107223 C1293.22096,487.252616 1305.8819,496.26346 1313.65096,509.283687 C1317.13267,508.354954 1320.68931,507.884126 1324.25847,507.883686 C1324.55751,506.51309 1324.75009,505.111584 1324.83431,503.692016 C1325.24264,496.587844 1322.86764,489.754505 1318.14263,484.446167 C1313.41346,479.13783 1306.90512,475.987827 1299.80929,475.57116 Z" id="多云晴闪电"></path>
        </g>
    </g>
</svg>