<?xml version="1.0" encoding="UTF-8"?>
<svg width="182px" height="216px" viewBox="0 0 182 216" version="1.1" xmlns="http://www.w3.org/2000/svg" xmlns:xlink="http://www.w3.org/1999/xlink">
    <title>闪电晴</title>
    <g id="首页" stroke="none" stroke-width="1" fill="none" fill-rule="evenodd">
        <g id="天气图标" transform="translate(-1184.000000, -142.000000)" fill="#FFFFFF">
            <path d="M1267.15926,199.041772 C1284.41344,199.041772 1300.03845,208.608447 1307.94263,224.008459 L1307.94263,224.008459 L1309.61763,227.262628 L1313.0593,226.029294 C1316.71347,224.716793 1320.4843,224.050126 1324.26347,224.050126 C1342.65099,224.050126 1357.60933,239.008471 1357.60933,257.395986 C1357.60933,275.7835 1342.65099,290.741846 1324.26347,290.741846 L1324.26347,290.741846 L1213.39672,290.741846 C1201.90087,290.741846 1192.55087,281.391838 1192.55087,269.900162 C1192.55087,258.408486 1201.90087,249.058479 1213.39672,249.058479 C1214.47172,249.058479 1215.51755,249.170979 1216.55505,249.325146 L1216.55505,249.325146 L1221.31339,249.72098 L1221.31339,244.891809 C1221.31339,219.612622 1241.88007,199.041772 1267.15926,199.041772 Z M1347.7826,208.682079 L1347.98432,208.687613 L1361.72183,209.483447 C1364.02184,209.616781 1365.776,211.587616 1365.6385,213.887618 C1365.5135,216.100119 1363.676,217.812621 1361.48433,217.812621 C1361.40517,217.812621 1361.32183,217.808454 1361.24267,217.804287 L1361.24267,217.804287 L1347.50516,217.008453 C1345.20515,216.870953 1343.45099,214.900118 1343.58432,212.604283 C1343.71765,210.308448 1345.75932,208.570947 1347.98432,208.687613 Z M1352.98433,177.825089 C1355.0385,176.791754 1357.5385,177.625088 1358.57183,179.679257 C1359.60517,181.733425 1358.776,184.237594 1356.71766,185.270928 L1356.71766,185.270928 L1344.42182,191.441766 C1343.82182,191.745933 1343.18432,191.8876 1342.55932,191.8876 C1341.03015,191.8876 1339.56348,191.045933 1338.83015,189.591765 C1337.79682,187.53343 1338.62598,185.029261 1340.68432,183.995927 L1340.68432,183.995927 Z M1241.86757,172.895918 C1243.13841,170.970917 1245.72174,170.441749 1247.63841,171.700084 L1247.63841,171.700084 L1259.13425,179.254256 C1261.05925,180.520924 1261.59259,183.10426 1260.33009,185.025094 C1259.53009,186.241762 1258.19675,186.904263 1256.84258,186.904263 C1256.05925,186.904263 1255.26342,186.683429 1254.55925,186.216762 L1254.55925,186.216762 L1243.06757,178.666756 C1241.14257,177.400088 1240.60924,174.816753 1241.86757,172.895918 Z M1329.57181,154.77507 C1330.84264,152.858402 1333.41765,152.325068 1335.34681,153.583403 C1337.26765,154.845904 1337.80098,157.429239 1336.53848,159.354241 L1336.53848,159.354241 L1328.98431,170.845916 C1328.18014,172.062584 1326.85097,172.725085 1325.49681,172.725085 C1324.70931,172.725085 1323.91764,172.504251 1323.2093,172.037584 C1321.28847,170.775083 1320.75514,168.191748 1322.01764,166.266746 L1322.01764,166.266746 Z M1267.95926,149.662566 C1270.03426,148.629232 1272.52593,149.462566 1273.5551,151.516734 L1273.5551,151.516734 L1279.73427,163.808411 C1280.7676,165.862579 1279.93427,168.370914 1277.8801,169.404249 C1277.2801,169.704249 1276.63843,169.845916 1276.01343,169.845916 C1274.48843,169.845916 1273.0176,169.004248 1272.28426,167.55008 L1272.28426,167.55008 L1266.10926,155.254237 C1265.07592,153.200069 1265.90509,150.6959 1267.95926,149.662566 Z M1301.96959,142.58833 L1302.17595,142.591727 C1304.47179,142.725061 1306.22596,144.695895 1306.09262,146.995897 L1306.09262,146.995897 L1305.29679,160.737575 C1305.16762,162.950077 1303.33012,164.658411 1301.14262,164.658411 C1301.05929,164.658411 1300.98012,164.658411 1300.89679,164.654245 C1298.59678,164.520911 1296.84262,162.550076 1296.98012,160.250075 L1296.98012,160.250075 L1297.77595,146.512564 C1297.90512,144.212562 1299.89679,142.50006 1302.17595,142.591727 Z M1269.12625,190.6704 C1275.95419,180.41975 1287.99491,174.389023 1300.28845,175.08342 C1309.60513,175.625087 1318.1593,179.76259 1324.36347,186.737596 C1330.57598,193.708435 1333.69681,202.683442 1333.15098,212.004283 C1333.06359,213.537509 1332.87586,215.057483 1332.59094,216.553825 C1351.59673,220.420226 1365.94267,237.263134 1365.94267,257.395986 C1365.94267,280.379337 1347.24682,299.075186 1324.26347,299.075186 L1289.48253,299.074214 L1287.10511,310.662695 L1304.02179,310.662695 L1267.18843,357.746066 L1274.12176,323.916872 L1256.31758,323.921039 L1261.40853,299.074214 L1213.39672,299.075186 C1197.3092,299.075186 1184.21753,285.987675 1184.21753,269.900162 C1184.21753,253.90015 1197.16754,240.862639 1213.13838,240.725139 C1215.27588,212.787617 1238.6884,190.708432 1267.15926,190.708432 C1267.80113,190.708432 1268.4411,190.719631 1269.07895,190.741891 Z M1299.80929,183.40426 C1291.8072,182.924069 1284.04137,186.177167 1278.69839,191.940125 C1293.2198,195.084889 1305.88154,204.095962 1313.65096,217.116787 C1317.13235,216.18814 1320.68865,215.717313 1324.25747,215.716786 C1324.55714,214.344743 1324.75001,212.941894 1324.83431,211.520949 C1325.24264,204.420943 1322.86764,197.587604 1318.14263,192.2751 C1313.41346,186.966763 1306.90512,183.81676 1299.80929,183.40426 Z" id="闪电晴"></path>
        </g>
    </g>
</svg>