<?xml version="1.0" encoding="UTF-8"?>
<svg width="183px" height="129px" viewBox="0 0 183 129" version="1.1" xmlns="http://www.w3.org/2000/svg" xmlns:xlink="http://www.w3.org/1999/xlink">
    <title>雾天</title>
    <g id="首页" stroke="none" stroke-width="1" fill="none" fill-rule="evenodd">
        <g id="天气图标" transform="translate(-184.000000, -1066.000000)" fill="#FFFFFF">
            <path d="M323.933504,1185.9884 L242.929273,1185.9884 C235.583434,1185.9884 229.604262,1180.00506 229.604262,1172.66755 C229.604262,1165.32588 235.583434,1159.35087 242.929273,1159.35087 C243.60844,1159.35087 244.279274,1159.42587 244.929275,1159.52171 L249.716778,1160.03421 L249.716778,1155.1842 C249.716778,1138.20086 263.533456,1124.38418 280.516803,1124.38418 C292.433479,1124.38418 303.391821,1131.38835 308.433492,1142.23836 L310.241827,1146.13003 L314.07933,1144.21753 C317.200166,1142.65503 320.516835,1141.86336 323.933504,1141.86336 C336.100181,1141.86336 345.996022,1151.7592 345.996022,1163.92588 C345.996022,1176.09255 336.100181,1185.9884 323.933504,1185.9884 M222.341757,1166.26338 L214.037583,1166.26338 C202.541741,1166.26338 193.191733,1156.90921 193.191733,1145.4217 C193.191733,1133.93002 202.541741,1124.58001 214.037583,1124.58001 C215.116751,1124.58001 216.166752,1124.69251 217.208419,1124.83835 L221.954256,1125.22168 L221.954256,1120.41334 C221.954256,1095.12582 242.520939,1074.56331 267.800126,1074.56331 C285.054307,1074.56331 300.679319,1084.12581 308.583492,1099.52999 L310.258494,1102.77583 L313.700163,1101.54666 C317.354333,1100.22999 321.125169,1099.57166 324.904339,1099.57166 C343.291853,1099.57166 358.250199,1114.53 358.250199,1132.91335 C358.250199,1139.90919 356.025197,1146.68836 352.008527,1152.31337 C347.441857,1141.29253 336.579348,1133.53002 323.933504,1133.53002 C320.562668,1133.53002 317.275166,1134.08419 314.112663,1135.17585 C307.108491,1123.43835 294.320981,1116.05084 280.516803,1116.05084 C260.391787,1116.05084 243.766774,1131.31752 241.620939,1151.0592 C232.500098,1151.60503 224.966759,1157.85504 222.341757,1166.26338 M366.583539,1132.91335 C366.583539,1109.93 347.88769,1091.23832 324.904339,1091.23832 C321.333502,1091.23832 317.775166,1091.70915 314.29183,1092.63832 C304.520989,1076.26331 287.012642,1066.22997 267.800126,1066.22997 C239.32927,1066.22997 215.916751,1088.30915 213.77925,1116.24667 C197.808404,1116.38417 184.858393,1129.41335 184.858393,1145.4217 C184.858393,1161.50921 197.95007,1174.59672 214.037583,1174.59672 L221.466756,1174.59672 C222.458423,1185.62173 231.645931,1194.32174 242.929273,1194.32174 L323.933504,1194.32174 C340.691851,1194.32174 354.329362,1180.68422 354.329362,1163.92588 C354.329362,1163.42171 354.279362,1162.92588 354.250195,1162.42171 C362.083535,1154.62587 366.583539,1144.01336 366.583539,1132.91335" id="雾天"></path>
        </g>
    </g>
</svg>