<?xml version="1.0" encoding="UTF-8"?>
<svg width="183px" height="168px" viewBox="0 0 183 168" version="1.1" xmlns="http://www.w3.org/2000/svg" xmlns:xlink="http://www.w3.org/1999/xlink">
    <title>闪电</title>
    <g id="首页" stroke="none" stroke-width="1" fill="none" fill-rule="evenodd">
        <g id="天气图标" transform="translate(-933.000000, -190.000000)" fill="#FFFFFF">
            <path d="M963.154849,249.058479 C951.659007,249.058479 942.308999,258.408486 942.308999,269.900162 C942.308999,281.391838 951.659007,290.741846 963.154849,290.741846 L1074.0216,290.741846 C1092.40912,290.741846 1107.36746,275.7835 1107.36746,257.395986 C1107.36746,239.008471 1092.40912,224.050126 1074.0216,224.050126 C1070.24243,224.050126 1066.4716,224.716793 1062.81743,226.029294 L1059.37576,227.262628 L1057.70076,224.008459 C1049.79659,208.608447 1034.17157,199.041772 1016.91739,199.041772 C991.638205,199.041772 971.071522,219.612622 971.071522,244.891809 L971.071522,249.72098 L966.313185,249.325146 C965.275684,249.170979 964.22985,249.058479 963.154849,249.058479 M1016.91739,190.708432 C1036.12991,190.708432 1053.63825,200.741774 1063.4091,217.116787 C1066.89243,216.187619 1070.45077,215.716786 1074.0216,215.716786 C1097.00496,215.716786 1115.7008,234.412634 1115.7008,257.395986 C1115.7008,280.379337 1097.00496,299.075186 1074.0216,299.075186 L1038.29666,299.074432 L1035.93824,310.566862 L1052.85492,310.566862 L1016.02156,357.650233 L1022.9549,323.821039 L1005.15072,323.825205 L1010.22266,299.074432 L963.154849,299.075186 C947.067336,299.075186 933.975659,285.987675 933.975659,269.900162 C933.975659,253.90015 946.92567,240.862639 962.896516,240.725139 C965.034017,212.787617 988.446536,190.708432 1016.91739,190.708432 Z" id="闪电"></path>
        </g>
    </g>
</svg>