<?xml version="1.0" encoding="UTF-8"?>
<svg width="183px" height="157px" viewBox="0 0 183 157" version="1.1" xmlns="http://www.w3.org/2000/svg" xmlns:xlink="http://www.w3.org/1999/xlink">
    <title>晚间多云</title>
    <g id="首页" stroke="none" stroke-width="1" fill="none" fill-rule="evenodd">
        <g id="天气图标" transform="translate(-684.000000, -143.000000)" fill="#FFFFFF">
            <path d="M714.037983,249.608479 C702.542141,249.608479 693.192133,258.958487 693.192133,270.450163 C693.192133,281.941839 702.542141,291.291846 714.037983,291.291846 L824.904739,291.291846 C843.292253,291.291846 858.250599,276.333501 858.250599,257.945986 C858.250599,239.558471 843.292253,224.600126 824.904739,224.600126 C821.125569,224.600126 817.354733,225.266793 813.700563,226.579294 L810.258894,227.812629 L808.583892,224.558459 C800.679719,209.158447 785.054707,199.591773 767.800526,199.591773 C742.521339,199.591773 721.954656,220.162623 721.954656,245.441809 L721.954656,250.27098 L717.196319,249.875146 C716.158818,249.72098 715.112984,249.608479 714.037983,249.608479 M808.213059,144.225062 C809.333893,145.354229 809.71306,147.020897 809.196393,148.520899 C807.683891,152.904235 806.917224,157.404239 806.917224,161.895909 C806.917224,184.508427 825.313072,202.900109 847.92559,202.900109 C852.358927,202.900109 856.788097,202.162608 861.079768,200.70844 C862.596435,200.19594 864.25477,200.587607 865.371438,201.716774 C866.496439,202.841775 866.879772,204.508443 866.358938,206.012611 C863.573479,214.067489 858.83849,221.153238 852.533886,226.764849 C861.147457,234.405402 866.583939,245.552322 866.583939,257.945986 C866.583939,280.929338 847.88809,299.625186 824.904739,299.625186 L714.037983,299.625186 C697.95047,299.625186 684.858793,286.537676 684.858793,270.450163 C684.858793,254.45015 697.808804,241.41264 713.77965,241.275139 C715.917151,213.337617 739.32967,191.258433 767.800526,191.258433 C768.680876,191.258433 769.557648,191.279499 770.430261,191.321276 C770.415478,190.852938 770.408862,190.384474 770.408862,189.916765 C770.408862,168.783415 783.875539,150.012566 803.917222,143.216728 C805.429723,142.712561 807.092224,143.100061 808.213059,144.225062 Z M799.158885,154.48757 C786.688041,161.716742 778.742202,175.12092 778.742202,189.916765 C778.742202,190.737556 778.767257,191.560018 778.815871,192.379664 C793.556387,195.419136 806.429545,204.489665 814.29223,217.666787 C817.775566,216.73762 821.333902,216.266786 824.904739,216.266786 C832.414959,216.266786 839.467372,218.263077 845.55925,221.752932 C849.339828,218.667621 852.563416,214.903149 855.042263,210.708448 C852.679761,211.058449 850.304759,211.233449 847.92559,211.233449 C820.717235,211.233449 798.583884,189.100098 798.583884,161.895909 C798.583884,159.420907 798.775551,156.945905 799.158885,154.48757 Z" id="晚间多云"></path>
        </g>
    </g>
</svg>