<?xml version="1.0" encoding="UTF-8"?>
<svg width="140px" height="140px" viewBox="0 0 140 140" version="1.1" xmlns="http://www.w3.org/2000/svg" xmlns:xlink="http://www.w3.org/1999/xlink">
    <title>晚间</title>
    <g id="首页" stroke="none" stroke-width="1" fill="none" fill-rule="evenodd">
        <g id="天气图标" transform="translate(-955.000000, -1319.000000)" fill="#FFFFFF">
            <path d="M998.859044,1330.63851 C977.567361,1341.13019 963.746516,1362.8802 963.746516,1387.05939 C963.746516,1421.76775 991.988206,1450.01361 1026.70073,1450.01361 C1050.72159,1450.01361 1072.4091,1436.31776 1082.95911,1415.20941 C1078.20494,1416.20108 1073.39244,1416.70525 1068.56327,1416.70525 C1029.2549,1416.70525 997.27571,1384.72189 997.27571,1345.42602 C997.27571,1340.46769 997.804877,1335.53018 998.859044,1330.63851 M1026.70073,1458.34695 C987.392369,1458.34695 955.413176,1426.36775 955.413176,1387.05939 C955.413176,1356.5177 974.867359,1329.40934 1003.82572,1319.5885 C1005.34238,1319.08434 1007.00488,1319.4635 1008.12155,1320.59684 C1009.24239,1321.71767 1009.62155,1323.38851 1009.10489,1324.89267 C1006.78405,1331.60518 1005.60905,1338.51768 1005.60905,1345.42602 C1005.60905,1380.13438 1033.85074,1408.37191 1068.56327,1408.37191 C1075.37577,1408.37191 1082.17161,1407.24274 1088.75912,1405.00524 C1090.27162,1404.5094 1091.93829,1404.88024 1093.05079,1406.01357 C1094.17579,1407.13441 1094.55495,1408.80524 1094.03829,1410.30941 C1084.11745,1439.04693 1057.05909,1458.34695 1026.70073,1458.34695" id="晚间"></path>
        </g>
    </g>
</svg>