<?xml version="1.0" encoding="UTF-8"?>
<svg width="183px" height="216px" viewBox="0 0 183 216" version="1.1" xmlns="http://www.w3.org/2000/svg" xmlns:xlink="http://www.w3.org/1999/xlink">
    <title>晚间闪电</title>
    <g id="首页" stroke="none" stroke-width="1" fill="none" fill-rule="evenodd">
        <g id="天气图标" transform="translate(-1433.000000, -142.000000)" fill="#FFFFFF">
            <path d="M1463.15525,249.191812 C1451.65941,249.191812 1442.3094,258.54182 1442.3094,270.033496 C1442.3094,281.525172 1451.65941,290.875179 1463.15525,290.875179 L1574.022,290.875179 C1592.40952,290.875179 1607.36786,275.916834 1607.36786,257.529319 C1607.36786,239.141804 1592.40952,224.183459 1574.022,224.183459 C1570.24283,224.183459 1566.472,224.850126 1562.81783,226.162627 L1559.37616,227.395962 L1557.70116,224.141792 C1549.79699,208.74178 1534.17197,199.175106 1516.91779,199.175106 C1491.63861,199.175106 1471.07192,219.745956 1471.07192,245.025142 L1471.07192,249.854313 L1466.31359,249.458479 C1465.27608,249.304313 1464.23025,249.191812 1463.15525,249.191812 M1557.33032,143.812561 C1558.45116,144.941729 1558.83033,146.608397 1558.31366,148.108398 C1556.80116,152.491735 1556.03449,156.991739 1556.03449,161.483409 C1556.03449,184.095927 1574.43034,202.487608 1597.04286,202.487608 C1601.47619,202.487608 1605.90536,201.750108 1610.19703,200.29594 C1611.70953,199.78344 1613.37204,200.179273 1614.4887,201.304274 C1615.6137,202.429275 1615.99704,204.095943 1615.4762,205.600111 C1612.69104,213.654138 1607.95676,220.739241 1601.65315,226.35057 C1610.26557,233.990468 1615.7012,245.136619 1615.7012,257.529319 C1615.7012,280.512671 1597.00536,299.208519 1574.022,299.208519 L1538.28906,299.207982 L1535.93864,310.662695 L1552.85532,310.662695 L1516.02196,357.746066 L1522.9553,323.916872 L1505.15112,323.921039 L1510.21506,299.207982 L1463.15525,299.208519 C1447.06774,299.208519 1433.97606,286.121009 1433.97606,270.033496 C1433.97606,254.033483 1446.92607,240.995973 1462.89692,240.858472 C1465.03442,212.92095 1488.44694,190.841766 1516.91779,190.841766 C1517.79814,190.841766 1518.67491,190.862832 1519.54753,190.904609 C1519.53271,190.438097 1519.52613,189.970805 1519.52613,189.504265 C1519.52613,168.370914 1532.99281,149.600066 1553.03449,142.804227 C1554.55116,142.295894 1556.21366,142.687561 1557.33032,143.812561 Z M1548.27615,154.07507 C1535.80531,161.304242 1527.85947,174.708419 1527.85947,189.504265 C1527.85947,190.323763 1527.88444,191.144926 1527.93291,191.963289 C1542.67365,195.002469 1555.54681,204.072998 1563.4095,217.25012 C1566.89283,216.320953 1570.45117,215.850119 1574.022,215.850119 C1581.53305,215.850119 1588.58618,217.846846 1594.67851,221.337409 C1598.45823,218.253788 1601.68112,214.489906 1604.15953,210.295948 C1601.79703,210.645948 1599.42202,210.820948 1597.04286,210.820948 C1569.8345,210.820948 1547.70115,188.687597 1547.70115,161.483409 C1547.70115,159.008407 1547.89282,156.533405 1548.27615,154.07507 Z" id="晚间闪电"></path>
        </g>
    </g>
</svg>