<?xml version="1.0" encoding="UTF-8"?>
<svg width="100px" height="72px" viewBox="0 0 100 72" version="1.1" xmlns="http://www.w3.org/2000/svg" xmlns:xlink="http://www.w3.org/1999/xlink">
    <title>暂无数据</title>
    <g id="页面-1" stroke="none" stroke-width="1" fill="none" fill-rule="evenodd">
        <g id="提示图标/组件" transform="translate(-213.000000, -129.000000)">
            <g id="编组-5" transform="translate(66.000000, 41.000000)">
                <g id="分组" transform="translate(147.000000, 83.000000)">
                    <path d="M99,64.5 L99.5,75 C99.5,75.4142136 99.3321068,75.7892136 99.0606602,76.0606602 C98.7892136,76.3321068 98.4142136,76.5 98,76.5 L98,76.5 L2,76.5 C1.58578644,76.5 1.21078644,76.3321068 0.939339828,76.0606602 C0.667893219,75.7892136 0.5,75.4142136 0.5,75 L0.5,75 L0.5,65 L99,64.5 Z" id="矩形" stroke="#D0DAED" fill="#FFFFFF"></path>
                    <path d="M67.5,64.5 L67.5,70 C67.5,70.4142136 67.3321068,70.7892136 67.0606602,71.0606602 C66.7892136,71.3321068 66.4142136,71.5 66,71.5 L66,71.5 L36,71.5 C35.5857864,71.5 35.2107864,71.3321068 34.9393398,71.0606602 C34.6678932,70.7892136 34.5,70.4142136 34.5,70 L34.5,70 L34.5,64.5 L67.5,64.5 Z" id="矩形" stroke="#D0DAED" fill="#FFFFFF"></path>
                    <rect id="矩形" stroke="#979797" fill="#D8D8D8" fill-rule="nonzero" x="26.5" y="27.5" width="15" height="1" rx="0.5"></rect>
                    <rect id="矩形-copy-4" stroke="#979797" fill="#D8D8D8" fill-rule="nonzero" x="26.5" y="33.5" width="15" height="1" rx="0.5"></rect>
                    <rect id="矩形-copy-11" stroke="#979797" fill="#D8D8D8" fill-rule="nonzero" x="26.5" y="52.5" width="49" height="1" rx="0.5"></rect>
                    <path d="M93,5.5 C93.4142136,5.5 93.7892136,5.66789322 94.0606602,5.93933983 C94.3321068,6.21078644 94.5,6.58578644 94.5,7 L94.5,7 L94.5,64.5 L7.5,64.5 L7.5,7 C7.5,6.58578644 7.66789322,6.21078644 7.93933983,5.93933983 C8.21078644,5.66789322 8.58578644,5.5 9,5.5 L9,5.5 Z" id="矩形" stroke="#D0DAED" fill="#F5F8FE"></path>
                    <rect id="矩形" stroke="#D0DAED" fill="#FFFFFF" x="14.5" y="12.5" width="73" height="47" rx="2"></rect>
                    <path d="M50.5,21.5618903 L50.5,37.9076574 L64.2014956,30.0180888 C65.0404355,31.858144 65.5,33.8878224 65.5,36.026738 C65.5,40.0197059 63.8751787,43.637819 61.2505568,46.2577624 C58.6256116,48.8780286 55.0005484,50.5 51,50.5 C46.9994516,50.5 43.3743884,48.8780286 40.7494432,46.2577624 C38.1248213,43.637819 36.5,40.0197059 36.5,36.026738 C36.5,32.0305163 38.1207916,28.4096487 40.7459726,25.7891472 C43.2578214,23.2817759 46.6891619,21.6903516 50.5,21.5618903 L50.5,21.5618903 Z M53.6428571,21.5901402 C57.2794508,22.2712687 60.4410377,24.3034733 62.5886443,27.1281677 L62.5886443,27.1281677 L53.6428571,32.2745591 Z" id="形状" stroke="#D0DAED" fill="#F5F8FE"></path>
                </g>
            </g>
        </g>
    </g>
</svg>