<?xml version="1.0" encoding="UTF-8"?>
<svg width="183px" height="164px" viewBox="0 0 183 164" version="1.1" xmlns="http://www.w3.org/2000/svg" xmlns:xlink="http://www.w3.org/1999/xlink">
    <title>小雨</title>
    <g id="首页" stroke="none" stroke-width="1" fill="none" fill-rule="evenodd">
        <g id="天气图标" transform="translate(-933.000000, -1066.000000)" fill="#FFFFFF">
            <path d="M1004.00905,1217.26342 C1007.45905,1217.26342 1010.25905,1220.06342 1010.25905,1223.51343 C1010.25905,1226.97176 1007.45905,1229.76343 1004.00905,1229.76343 C1000.55905,1229.76343 997.759044,1226.97176 997.759044,1223.51343 C997.759044,1220.06342 1000.55905,1217.26342 1004.00905,1217.26342 Z M1045.67575,1217.96342 C1048.73408,1217.96342 1051.22575,1220.44676 1051.22575,1223.51343 C1051.22575,1226.58843 1048.73408,1229.07176 1045.67575,1229.07176 C1042.60908,1229.07176 1040.11741,1226.58843 1040.11741,1223.51343 C1040.11741,1220.44676 1042.60908,1217.96342 1045.67575,1217.96342 Z M983.175699,1192.13007 C986.625701,1192.13007 989.425704,1194.93007 989.425704,1198.38007 C989.425704,1201.83841 986.625701,1204.63008 983.175699,1204.63008 C979.725696,1204.63008 976.925694,1201.83841 976.925694,1198.38007 C976.925694,1194.93007 979.725696,1192.13007 983.175699,1192.13007 Z M1024.8424,1192.13007 C1028.2924,1192.13007 1031.0924,1194.93007 1031.0924,1198.38007 C1031.0924,1201.83841 1028.2924,1204.63008 1024.8424,1204.63008 C1021.3924,1204.63008 1018.59239,1201.83841 1018.59239,1198.38007 C1018.59239,1194.93007 1021.3924,1192.13007 1024.8424,1192.13007 Z M1066.5091,1192.13007 C1069.9591,1192.13007 1072.7591,1194.93007 1072.7591,1198.38007 C1072.7591,1201.83841 1069.9591,1204.63008 1066.5091,1204.63008 C1063.0591,1204.63008 1060.25909,1201.83841 1060.25909,1198.38007 C1060.25909,1194.93007 1063.0591,1192.13007 1066.5091,1192.13007 Z M1016.91739,1074.41331 C1034.17157,1074.41331 1049.79659,1083.97581 1057.70076,1099.37999 L1057.70076,1099.37999 L1059.37576,1102.63 L1062.81743,1101.40083 C1066.4716,1100.07999 1070.24243,1099.42166 1074.0216,1099.42166 C1092.40495,1099.42166 1107.3633,1114.38 1107.3633,1132.77169 C1107.3633,1151.15503 1092.40495,1166.11338 1074.0216,1166.11338 L1074.0216,1166.11338 L963.150683,1166.11338 C951.659007,1166.11338 942.308999,1156.76337 942.308999,1145.2717 C942.308999,1133.78002 951.659007,1124.43001 963.150683,1124.43001 C964.07985,1124.43001 965.075684,1124.51335 966.296518,1124.69668 L966.296518,1124.69668 L971.067356,1125.10501 L971.067356,1120.26334 C971.067356,1094.97999 991.638205,1074.41331 1016.91739,1074.41331 Z M1074.0216,1174.44672 L963.150683,1174.44672 C947.06317,1174.44672 933.975659,1161.35921 933.975659,1145.2717 C933.975659,1129.25502 946.942336,1116.20917 962.929849,1116.09667 C965.179851,1088.01332 988.538203,1066.07997 1016.91739,1066.07997 C1036.12991,1066.07997 1053.63825,1076.11331 1063.4091,1092.48832 C1066.89243,1091.55915 1070.45077,1091.08832 1074.0216,1091.08832 C1097.00079,1091.08832 1115.69664,1109.78 1115.69664,1132.77169 C1115.69664,1155.7467 1097.00079,1174.44672 1074.0216,1174.44672" id="小雨"></path>
        </g>
    </g>
</svg>