<?xml version="1.0" encoding="UTF-8"?>
<svg width="183px" height="167px" viewBox="0 0 183 167" version="1.1" xmlns="http://www.w3.org/2000/svg" xmlns:xlink="http://www.w3.org/1999/xlink">
    <title>雨闪电</title>
    <g id="首页" stroke="none" stroke-width="1" fill="none" fill-rule="evenodd">
        <g id="天气图标" transform="translate(-933.000000, -483.000000)" fill="#FFFFFF">
            <path d="M969.517354,609.362934 C971.146522,607.737933 973.779858,607.737933 975.409026,609.362934 C977.038194,610.992102 977.038194,613.629604 975.409026,615.254605 L975.409026,615.254605 L962.609015,628.054616 C961.792348,628.871283 960.729847,629.279616 959.66318,629.279616 C958.596512,629.279616 957.529845,628.871283 956.717344,628.054616 C955.088176,626.433781 955.088176,623.792112 956.717344,622.167111 L956.717344,622.167111 Z M1074.86327,609.362934 C1076.49244,607.737933 1079.12578,607.737933 1080.75494,609.362934 C1082.38411,610.992102 1082.38411,613.629604 1080.75494,615.254605 L1080.75494,615.254605 L1067.95493,628.054616 C1067.13827,628.871283 1066.07576,629.279616 1065.0091,629.279616 C1063.94243,629.279616 1062.87576,628.871283 1062.06326,628.054616 C1060.43409,626.433781 1060.43409,623.792112 1062.06326,622.167111 L1062.06326,622.167111 Z M1016.91739,491.92534 C1034.17157,491.92534 1049.79659,501.492014 1057.70076,516.892027 L1057.70076,516.892027 L1059.37576,520.146196 L1062.81743,518.912862 C1066.4716,517.60036 1070.24243,516.933693 1074.0216,516.933693 C1092.40495,516.933693 1107.3633,531.892039 1107.3633,550.279553 C1107.3633,568.667068 1092.40495,583.625413 1074.0216,583.625413 L1074.0216,583.625413 L963.150683,583.625413 C951.659007,583.625413 942.308999,574.275406 942.308999,562.78373 C942.308999,551.292054 951.659007,541.942047 963.150683,541.942047 C964.22985,541.942047 965.271518,542.054547 966.309018,542.208713 L966.309018,542.208713 L971.067356,542.604547 L971.067356,537.775377 C971.067356,512.49619 991.638205,491.92534 1016.91739,491.92534 Z M1016.91739,483.592 C1036.12991,483.592 1053.63825,493.625341 1063.4091,510.000354 C1066.89243,509.071187 1070.45077,508.600353 1074.0216,508.600353 C1097.00079,508.600353 1115.69664,527.296202 1115.69664,550.279553 C1115.69664,573.262905 1097.00079,591.958753 1074.0216,591.958753 L1033.94666,591.958 L1031.7674,602.575428 L1048.68408,602.575428 L1011.85072,649.658799 L1018.78406,615.833772 L1000.97988,615.842106 L1005.87266,591.958 L963.150683,591.958753 C947.06317,591.958753 933.975659,578.871243 933.975659,562.78373 C933.975659,546.771217 946.942336,533.72954 962.929849,533.608707 C965.179851,505.529517 988.538203,483.592 1016.91739,483.592 Z" id="雨闪电"></path>
        </g>
    </g>
</svg>