<?xml version="1.0" encoding="UTF-8"?>
<svg width="50px" height="50px" viewBox="0 0 50 50" version="1.1" xmlns="http://www.w3.org/2000/svg" xmlns:xlink="http://www.w3.org/1999/xlink">
    <title>滑块未选</title>
    <g id="新增任务" stroke="none" stroke-width="1" fill="none" fill-rule="evenodd">
        <g id="任务管理备份" transform="translate(-673.000000, -249.000000)">
            <g id="搜索" transform="translate(0.000000, 229.000000)">
                <g id="滑块未选" transform="translate(673.000000, 20.000000)">
                    <g id="编组-7">
                        <path d="M25,5.86336535e-14 C11.1928813,5.86336535e-14 0,11.1898454 0,25 L0,25 C0,38.8071187 11.1898454,50 25,50 L25,50 C38.8071187,50 50,38.8101546 50,25 L50,25 C50,11.1928813 38.8101546,5.86336535e-14 25,5.86336535e-14 L25,5.86336535e-14 Z" id="Switch-Background" fill="#0091FF"></path>
                        <path d="M32.7871867,25.7548248 L25.7554182,25.7548248 L25.7554182,32.7877165 C25.7554182,33.4730692 25.1995825,34.0283538 24.5142087,34.0283538 C23.8288561,34.0283538 23.2730204,33.4730692 23.2730204,32.7877165 L23.2730204,25.7548248 L16.2412095,25.7548248 C15.5552846,25.7548248 15,25.1995401 15,24.5141663 C15,23.829068 15.5553482,23.273529 16.2412095,23.273529 L23.272978,23.273529 L23.272978,16.2406373 C23.272978,15.555539 23.8288137,15 24.5141663,15 C25.1995401,15 25.7553758,15.5555602 25.7553758,16.2406373 L25.7553758,23.2735502 L32.7871443,23.2735502 C33.4730692,23.2735502 34.028375,23.829068 34.028375,24.5141451 C34.028375,25.1994977 33.4730904,25.7547612 32.7871443,25.7547612 L32.7871867,25.7548248 Z" id="路径" fill="#FFFFFF" fill-rule="nonzero"></path>
                    </g>
                    <g id="加号" transform="translate(17.000000, 17.000000)" fill="#000000" fill-rule="nonzero" opacity="0">
                        <rect id="矩形" x="0" y="0" width="16" height="16"></rect>
                    </g>
                </g>
            </g>
        </g>
    </g>
</svg>