<?xml version="1.0" encoding="UTF-8"?>
<svg width="20px" height="20px" viewBox="0 0 20 20" version="1.1" xmlns="http://www.w3.org/2000/svg" xmlns:xlink="http://www.w3.org/1999/xlink">
    <title>形状</title>
    <g id="新增任务" stroke="none" stroke-width="1" fill="none" fill-rule="evenodd">
        <g id="任务管理备份" transform="translate(-54.000000, -2422.000000)" fill="#CCCCCC" fill-rule="nonzero">
            <g id="工单备份-5" transform="translate(20.000000, 1978.000000)">
                <path d="M44,444 C38.4615385,444 34,448.461538 34,454 C34,459.538462 38.5128205,464 44,464 C49.5384615,464 54,459.538462 54,454 C54,448.461538 49.4871795,444 44,444 Z M50.5128205,457.025641 C50.3589743,457.333333 50.1025641,457.487179 49.7948718,457.487179 C49.6923077,457.487179 49.5897436,457.487179 49.4871795,457.435897 L43.5897436,454.769231 C43.3333333,454.666667 43.1282051,454.358974 43.1282051,454.051282 L43.1282051,448.512821 C43.1282051,448.102564 43.4871795,447.74359 43.8974359,447.74359 C44.3076923,447.74359 44.6666667,448.102564 44.6666667,448.512821 L44.6666667,453.589744 L50.1025641,456.051282 C50.5128205,456.205128 50.6666667,456.615385 50.5128205,457.025641 L50.5128205,457.025641 Z" id="形状"></path>
            </g>
        </g>
    </g>
</svg>