<?xml version="1.0" encoding="UTF-8"?>
<svg width="26px" height="26px" viewBox="0 0 26 26" version="1.1" xmlns="http://www.w3.org/2000/svg" xmlns:xlink="http://www.w3.org/1999/xlink">
    <title>形状</title>
    <g id="新增任务" stroke="none" stroke-width="1" fill="none" fill-rule="evenodd">
        <g id="任务搜索" transform="translate(-703.000000, -239.000000)" fill="#999999" fill-rule="nonzero">
            <path d="M724.45,247.2875 C723.9625,247.2875 723.475,247.775 723.475,248.2625 L723.475,262.2375 C723.475,262.725 722.9875,263.2125 722.5,263.2125 L709.5,263.2125 C709.0125,263.2125 708.525,262.725 708.525,262.2375 L708.525,248.2625 C708.525,247.775 708.2,247.2875 707.55,247.2875 C707.0625,247.2875 706.575,247.775 706.575,248.2625 L706.575,262.2375 C706.7375,263.7 707.875,265 709.5,265 L722.5,265 C724.125,265 725.425,263.7 725.425,262.075 L725.425,248.2625 C725.425,247.775 724.9375,247.2875 724.45,247.2875 Z M714.05,258.3375 L714.05,248.2625 C714.05,247.775 713.725,247.2875 713.075,247.2875 C712.5875,247.2875 712.1,247.775 712.1,248.2625 L712.1,258.5 C712.1,258.9875 712.425,259.475 713.075,259.475 C713.725,259.3125 714.05,258.9875 714.05,258.3375 L714.05,258.3375 Z M719.7375,258.3375 L719.7375,248.2625 C719.7375,247.775 719.25,247.2875 718.7625,247.2875 C718.275,247.2875 717.7875,247.775 717.7875,248.2625 L717.7875,258.5 C717.7875,258.9875 718.275,259.475 718.7625,259.475 C719.25,259.3125 719.7375,258.9875 719.7375,258.3375 L719.7375,258.3375 Z M728.025,243.55 L723.475,243.55 L723.475,241.7625 C723.475,240.3 722.175,239 720.7125,239 L711.2875,239 C709.6625,239 708.525,240.1375 708.525,241.7625 L708.525,243.7125 L703.975,243.7125 C703.4875,243.55 703,244.0375 703,244.525 C703,245.0125 703.4875,245.3375 703.975,245.3375 L728.025,245.3375 C728.5125,245.3375 729,245.0125 729,244.525 C729,244.0375 728.5125,243.55 728.025,243.55 L728.025,243.55 Z M721.525,243.55 L710.3125,243.55 L710.3125,241.7625 C710.3125,241.275 710.8,240.7875 711.2875,240.7875 L720.7125,240.7875 C721.2,240.7875 721.525,241.1125 721.525,241.7625 L721.525,243.55 L721.525,243.55 Z" id="形状"></path>
        </g>
    </g>
</svg>