<?xml version="1.0" encoding="UTF-8"?>
<svg width="200px" height="200px" viewBox="0 0 200 200" version="1.1" xmlns="http://www.w3.org/2000/svg" xmlns:xlink="http://www.w3.org/1999/xlink">
    <title>取消图标</title>
    <g id="新增任务" stroke="none" stroke-width="1" fill="none" fill-rule="evenodd">
        <g id="取消反馈" transform="translate(-275.000000, -228.000000)" fill="#FA5151">
            <g id="取消图标" transform="translate(275.000000, 228.000000)">
                <path d="M100,0 C155.228475,0 200,44.771525 200,100 C200,155.228475 155.228475,200 100,200 C44.771525,200 0,155.228475 0,100 C0,44.771525 44.771525,0 100,0 Z M99.9550819,133.388672 C94.9648476,133.388672 91.0000038,137.216797 91.0000038,142.207031 C91.0000038,147.197266 94.9648476,151.025391 99.9550819,151.025391 C105.082035,151.025391 108.978519,147.197266 108.978519,142.207031 C108.978519,137.216797 105.082035,133.388672 99.9550819,133.388672 Z M107.611332,41.3574219 L92.3671913,41.3574219 L93.4609413,117.324219 L106.517582,117.324219 L107.611332,41.3574219 Z" id="图标颜色"></path>
            </g>
        </g>
    </g>
</svg>