<?xml version="1.0" encoding="UTF-8"?>
<svg width="21px" height="16px" viewBox="0 0 21 16" version="1.1" xmlns="http://www.w3.org/2000/svg" xmlns:xlink="http://www.w3.org/1999/xlink">
    <title>编组</title>
    <defs>
        <filter id="filter-1">
            <feColorMatrix in="SourceGraphic" type="matrix" values="0 0 0 0 1.000000 0 0 0 0 1.000000 0 0 0 0 1.000000 0 0 0 1.000000 0"></feColorMatrix>
        </filter>
    </defs>
    <g id="页面-1" stroke="none" stroke-width="1" fill="none" fill-rule="evenodd" opacity="0.45">
        <g id="弹窗" transform="translate(-995.000000, -116.000000)">
            <g id="编组" transform="translate(430.000000, 100.000000)" filter="url(#filter-1)">
                <g transform="translate(565.000000, 16.500000)">
                    <path d="M18.0663462,0.0200120192 L2.12596154,0.0200120192 C0.951923077,0.0200120192 0,0.971935096 0,2.14453125 L0,12.7728966 C0,13.9454928 0.951923077,14.8988582 2.12596154,14.8988582 L18.0677885,14.8988582 C19.2403846,14.8988582 20.19375,13.9469351 20.19375,12.7728966 L20.19375,2.14453125 C20.1923077,0.971935096 19.2403846,0.0200120192 18.0663462,0.0200120192 Z M11.6899038,12.7743389 L8.50240385,12.7743389 L8.50240385,8.52241587 L4.25048077,8.52241587 L9.56538462,2.14453125 L10.6269231,2.14453125 L15.9418269,8.52241587 L11.6899038,8.52241587 L11.6899038,12.7743389 Z" id="形状" fill="#000000" fill-rule="nonzero"></path>
                </g>
            </g>
        </g>
    </g>
</svg>