<?xml version="1.0" encoding="UTF-8"?>
<svg width="30px" height="30px" viewBox="0 0 30 30" version="1.1" xmlns="http://www.w3.org/2000/svg" xmlns:xlink="http://www.w3.org/1999/xlink">
    <title>视频</title>
    <defs>
        <circle id="path-1" cx="11" cy="11" r="11"></circle>
        <filter x="-31.8%" y="-22.7%" width="163.6%" height="163.6%" filterUnits="objectBoundingBox" id="filter-2">
            <feOffset dx="0" dy="2" in="SourceAlpha" result="shadowOffsetOuter1"></feOffset>
            <feGaussianBlur stdDeviation="2" in="shadowOffsetOuter1" result="shadowBlurOuter1"></feGaussianBlur>
            <feColorMatrix values="0 0 0 0 0   0 0 0 0 0   0 0 0 0 0  0 0 0 0.328452797 0" type="matrix" in="shadowBlurOuter1"></feColorMatrix>
        </filter>
        <linearGradient x1="0%" y1="100%" x2="100%" y2="100%" id="linearGradient-3">
            <stop stop-color="#1B7E8D" offset="0%"></stop>
            <stop stop-color="#2A3934" offset="100%"></stop>
        </linearGradient>
    </defs>
    <g id="页面-1" stroke="none" stroke-width="1" fill="none" fill-rule="evenodd">
        <g id="情报信息" transform="translate(-1565.000000, -710.000000)">
            <g id="右侧预案响应" transform="translate(1486.000000, 72.000000)">
                <g id="任务记录备份" transform="translate(44.000000, 81.000000)">
                    <g id="2" transform="translate(9.000000, 500.000000)">
                        <g id="视频" transform="translate(30.000000, 59.000000)">
                            <g id="椭圆形" fill-rule="nonzero">
                                <use fill="black" fill-opacity="1" filter="url(#filter-2)" xlink:href="#path-1"></use>
                                <use fill="#FFFFFF" xlink:href="#path-1"></use>
                            </g>
                            <path d="M13.4472136,5.89442719 L18.6381966,16.2763932 C18.7616912,16.5233825 18.6615791,16.823719 18.4145898,16.9472136 C18.3451621,16.9819275 18.2686056,17 18.190983,17 L7.80901699,17 C7.53287462,17 7.30901699,16.7761424 7.30901699,16.5 C7.30901699,16.4223775 7.32708954,16.3458209 7.3618034,16.2763932 L12.5527864,5.89442719 C12.676281,5.64743794 12.9766175,5.54732577 13.2236068,5.67082039 C13.3203705,5.71920224 13.3988317,5.79766349 13.4472136,5.89442719 Z" id="三角形" fill="url(#linearGradient-3)" transform="translate(13.000000, 11.000000) rotate(-270.000000) translate(-13.000000, -11.000000) "></path>
                        </g>
                    </g>
                </g>
            </g>
        </g>
    </g>
</svg>