<?xml version="1.0" encoding="UTF-8"?>
<svg width="28px" height="28px" viewBox="0 0 28 28" version="1.1" fill="#0091FF" xmlns="http://www.w3.org/2000/svg" xmlns:xlink="http://www.w3.org/1999/xlink">
    <title>编组</title>
    <defs>
        <filter id="filter-1">
            <feColorMatrix in="SourceGraphic" type="matrix" values="0 0 0 0 0.000000 0 0 0 0 0.568627 0 0 0 0 1.000000 0 0 0 1.000000 0"></feColorMatrix>
        </filter>
    </defs>
    <g id="页面-1" stroke="none" stroke-width="1" fill="#0091FF" fill-rule="evenodd">
        <g id="现场指挥部-联系人" transform="translate(-442.000000, -522.000000)">
            <g id="编组" transform="translate(0.000000, 308.000000)" fill="#0091FF" filter="url(#filter-1)">
                <g transform="translate(442.000000, 214.000000)">
                    <path d="M22.3336944,27.9512722 C19.0911389,27.9512722 13.8136056,24.6869389 8.56002778,19.4319611 C5.26271667,16.1355833 2.65762778,12.7212944 1.22433889,9.81816111 C-0.225905556,6.88049444 -0.387216667,4.62493889 0.770583333,3.46713889 L3.53076111,0.706961111 L3.53076111,0.676316667 C3.56420556,0.655316667 3.60885,0.62545 3.65473889,0.581272222 C4.1492712,0.206985074 4.75233525,0.00410696769 5.37253889,0.00338333333 C6.23462778,0.00338333333 7.02205,0.38465 7.53320556,1.04933889 L10.6306278,4.94507222 C11.5596056,6.06056111 11.48105,7.61689444 10.4469167,8.64962778 L8.73378333,10.5755611 L8.81809444,10.7133833 C9.98989444,12.6299833 11.2082056,14.2112056 12.5427167,15.5474278 C13.8814278,16.8847389 15.46265,18.1035167 17.3766056,19.2737611 L17.5229833,19.36305 L19.3409611,17.5435167 C19.8742056,17.0104278 20.5693833,16.71705 21.2987833,16.71705 C21.9360944,16.71705 22.5380944,16.93825 23.0397611,17.3566944 L26.9283389,20.4471167 L27.1182722,20.6382944 C27.6437389,21.1197389 27.9377389,21.7729167 27.9531389,22.4844278 C27.9694722,23.2335833 27.6653611,23.9768278 27.1188944,24.5232944 L24.42265,27.2196944 C23.9189611,27.70425 23.2150722,27.9512722 22.3336944,27.9512722 Z M25.07785,13.0782944 C24.5965611,13.0782944 24.2975833,12.7793167 24.2975833,12.2978722 C24.2975833,7.77385 20.6162056,4.09340556 16.0914056,4.09340556 C15.6099611,4.09340556 15.3109833,3.79442778 15.3109833,3.31298333 C15.3109833,2.83060556 15.6099611,2.53100556 16.0914056,2.53100556 C21.4765833,2.53100556 25.8578058,6.91238333 25.8578058,12.2977167 C25.8581167,12.7793167 25.5591389,13.0782944 25.07785,13.0782944 Z" id="形状" fill="#0091FF" fill-rule="nonzero"></path>
                    <path d="M21.0834944,13.0782944 C20.6022056,13.0782944 20.3032278,12.7793167 20.3032278,12.2978722 C20.29685,9.98149444 18.4074722,8.09242778 16.0920278,8.08605 C15.6099611,8.08605 15.3109833,7.78707222 15.3109833,7.30562778 C15.3109833,6.82433889 15.6099611,6.52520556 16.0914056,6.52520556 C19.2648944,6.53438333 21.8548944,9.12422778 21.8637614,12.2984944 C21.8640722,12.7793167 21.5650944,13.0782944 21.0834944,13.0782944 L21.0834944,13.0782944 Z" id="路径" fill="#0091FF" fill-rule="nonzero"></path>
                </g>
            </g>
        </g>
    </g>
</svg>