<?xml version="1.0" encoding="UTF-8"?>
<svg width="23px" height="22px" viewBox="0 0 23 22" version="1.1" xmlns="http://www.w3.org/2000/svg" xmlns:xlink="http://www.w3.org/1999/xlink">
    <title>编组</title>
    <defs>
        <filter id="filter-1">
            <feColorMatrix in="SourceGraphic" type="matrix" values="0 0 0 0 0.968627 0 0 0 0 0.356863 0 0 0 0 0.270588 0 0 0 1.000000 0"></feColorMatrix>
        </filter>
    </defs>
    <g id="页面-1" stroke="none" stroke-width="1" fill="none" fill-rule="evenodd">
        <g id="现场指挥部-联系人" transform="translate(-414.000000, -203.000000)">
            <g id="编组" transform="translate(0.000000, 128.000000)" filter="url(#filter-1)">
                <g transform="translate(425.500000, 86.000000) rotate(-180.000000) translate(-425.500000, -86.000000) translate(414.000000, 75.000000)">
                    <path d="M21.7300163,0.0168128178 L14.5662071,7.18059582 C12.992781,5.68584498 10.9473297,4.7417684 8.58722988,4.7417684 C3.86697782,4.7417684 0.0121009463,8.59667144 0.0121009463,13.3168973 C0.0121009463,18.0371494 3.86697782,21.8920263 8.58722988,21.8920263 C13.3074819,21.8920263 17.162385,18.0371494 17.162385,13.3168973 C17.162385,11.5074717 16.6116584,9.77672138 15.5889327,8.36064576 L22.831404,1.11820061 L21.7300163,0.0168128178 Z M8.58722988,20.3186525 C4.73232683,20.3186525 1.58552703,17.1718265 1.58552703,13.3169235 C1.58552703,9.46207278 4.732353,6.31524678 8.58722988,6.31524678 C12.4421068,6.31524678 15.5889327,9.46204662 15.5889327,13.3169235 C15.5889327,17.1718003 12.4421329,20.3186525 8.58722988,20.3186525 Z" id="形状" fill="#000000" fill-rule="nonzero"></path>
                    <rect id="矩形" stroke="#979797" fill="#D8D8D8" transform="translate(17.899316, 5.024948) rotate(-45.000000) translate(-17.899316, -5.024948) " x="17.6493164" y="-0.475052301" width="1" height="11"></rect>
                </g>
            </g>
        </g>
    </g>
</svg>