<?xml version="1.0" encoding="UTF-8"?>
<svg width="6px" height="6px" viewBox="0 0 6 6" version="1.1" xmlns="http://www.w3.org/2000/svg" xmlns:xlink="http://www.w3.org/1999/xlink">
    <title>绿备份</title>
    <defs>
        <linearGradient x1="8.19415082%" y1="10.8142021%" x2="100%" y2="89.1857979%" id="linearGradient-1">
            <stop stop-color="#58DBEA" offset="0%"></stop>
            <stop stop-color="#46D0ED" offset="100%"></stop>
        </linearGradient>
        <linearGradient x1="8.19415082%" y1="45.0926766%" x2="100%" y2="54.9073234%" id="linearGradient-2">
            <stop stop-color="#84F6F9" offset="0%"></stop>
            <stop stop-color="#46C8ED" offset="100%"></stop>
        </linearGradient>
        <linearGradient x1="68.7668199%" y1="75.7294004%" x2="31.2331801%" y2="24.2389356%" id="linearGradient-3">
            <stop stop-color="#8FD3F4" offset="0%"></stop>
            <stop stop-color="#84FAF8" offset="100%"></stop>
        </linearGradient>
    </defs>
    <g id="事件信息、组织动态、辅助工具" stroke="none" stroke-width="1" fill="none" fill-rule="evenodd">
        <g id="动效切图" transform="translate(-606.000000, -533.000000)" fill-rule="nonzero">
            <g id="编组-13" transform="translate(595.000000, 506.000000)">
                <g id="绿备份" transform="translate(11.700000, 27.899999)">
                    <path d="M2.63228259,0.0460925273 C2.51075484,0.0537746152 2.38915962,0.0614567031 2.26756439,0.0691387909 L2.26756439,0.0691387909 C2.1822723,0.0746645033 1.5720694,0.113816197 1.48670983,0.119409296 L1.48670983,0.119409296 C1.14425935,0.141579532 1.32665219,0.1300564 0.98413423,0.152091863 L0.98413423,0.152091863 C0.905657402,0.397986062 0.827113095,0.643880261 0.748703744,0.88977446 L0.748703744,0.88977446 C0.708621856,1.01120536 0.668674924,1.13263626 0.628660513,1.25406715 L0.628660513,1.25406715 C0.606460275,1.32374504 0.584260037,1.3935577 0.5620598,1.46330297 L0.5620598,1.46330297 L0.134654612,2.80780312 C0.480546464,2.80504026 0.455714587,2.8038273 0.801471483,2.80119922 L0.801471483,2.80119922 C1.23744637,2.79762772 2.04394255,2.79270849 2.47991743,2.78920438 L2.47991743,2.78920438 C2.61932683,2.31891235 2.75866874,1.84841816 2.89801066,1.37805875 L2.89801066,1.37805875 C3.03418112,0.918683369 3.17021662,0.459442765 3.3063196,0 L3.3063196,0 C3.08168558,0.0153641758 2.85698408,0.0307283515 2.63228259,0.0460925273" id="Fill-113" fill="url(#linearGradient-1)"></path>
                    <polygon id="Fill-115" fill="url(#linearGradient-2)" points="0.0979973033 2.80761514 1.16448593 3.53134868 1.89851082 4.02926927 2.98342092 4.04780062 3.29739571 4.05231554 3.65739045 4.05696522 4.17454128 4.06612982 2.44326012 2.7890164"></polygon>
                    <polygon id="Fill-117" fill="url(#linearGradient-3)" points="2.42378302 2.78920438 4.15506419 4.0663178 4.9150006 1.59780689 3.25018519 0"></polygon>
                </g>
            </g>
        </g>
    </g>
</svg>