<?xml version="1.0" encoding="UTF-8"?>
<svg width="7px" height="5px" viewBox="0 0 7 5" version="1.1" xmlns="http://www.w3.org/2000/svg" xmlns:xlink="http://www.w3.org/1999/xlink">
    <title>绿备份 2</title>
    <defs>
        <linearGradient x1="8.19415082%" y1="10.8142021%" x2="100%" y2="89.1857979%" id="linearGradient-1">
            <stop stop-color="#58DBEA" offset="0%"></stop>
            <stop stop-color="#46D0ED" offset="100%"></stop>
        </linearGradient>
        <linearGradient x1="8.19415082%" y1="45.0926766%" x2="100%" y2="54.9073234%" id="linearGradient-2">
            <stop stop-color="#84F6F9" offset="0%"></stop>
            <stop stop-color="#46C8ED" offset="100%"></stop>
        </linearGradient>
        <linearGradient x1="68.7668199%" y1="75.7294004%" x2="31.2331801%" y2="24.2389356%" id="linearGradient-3">
            <stop stop-color="#8FD3F4" offset="0%"></stop>
            <stop stop-color="#84FAF8" offset="100%"></stop>
        </linearGradient>
    </defs>
    <g id="事件信息、组织动态、辅助工具" stroke="none" stroke-width="1" fill="none" fill-rule="evenodd">
        <g id="动效切图" transform="translate(-644.000000, -533.000000)" fill-rule="nonzero">
            <g id="编组-13" transform="translate(595.000000, 506.000000)">
                <g id="绿备份-2" transform="translate(49.000000, 27.000000)">
                    <path d="M3.22454617,0.0564633459 C3.07567468,0.0658739036 2.92672053,0.0752844612 2.77776638,0.0846950189 L2.77776638,0.0846950189 C2.67328356,0.0914640165 1.92578502,0.139424841 1.82121954,0.146276387 L1.82121954,0.146276387 C1.4017177,0.173434927 1.62514893,0.15931909 1.20556443,0.186312532 L1.20556443,0.186312532 C1.10943032,0.487532926 1.01321354,0.788753319 0.917162087,1.08997371 L0.917162087,1.08997371 C0.868061774,1.23872656 0.819126781,1.38747941 0.770109128,1.53623226 L0.770109128,1.53623226 C0.742913837,1.62158767 0.715718546,1.70710818 0.688523254,1.79254614 L0.688523254,1.79254614 L0.1649519,3.43955882 C0.588669419,3.43617432 0.558250369,3.43468845 0.981802567,3.43146905 L0.981802567,3.43146905 C1.5158718,3.42709396 2.50382962,3.4210679 3.03789885,3.41677537 L3.03789885,3.41677537 C3.20867536,2.84066763 3.37936921,2.26431225 3.55006306,1.68812197 L3.55006306,1.68812197 C3.71687187,1.12538713 3.88351536,0.562817387 4.05024151,0 L4.05024151,0 C3.77506483,0.0188211153 3.4998055,0.0376422306 3.22454617,0.0564633459" id="Fill-113" fill="url(#linearGradient-1)"></path>
                    <polygon id="Fill-115" fill="url(#linearGradient-2)" points="0.120046697 3.43932854 1.42649527 4.32590213 2.32567575 4.93585486 3.65469063 4.95855576 4.03930975 4.96408653 4.48030331 4.96978239 5.11381307 4.98100902 2.99299365 3.41654509"></polygon>
                    <polygon id="Fill-117" fill="url(#linearGradient-3)" points="2.9691342 3.41677537 5.08995363 4.9812393 6.02087573 1.95731344 3.98147686 0"></polygon>
                </g>
            </g>
        </g>
    </g>
</svg>