<?xml version="1.0" encoding="UTF-8"?>
<svg width="5px" height="4px" viewBox="0 0 5 4" version="1.1" xmlns="http://www.w3.org/2000/svg" xmlns:xlink="http://www.w3.org/1999/xlink">
    <title>绿</title>
    <defs>
        <linearGradient x1="14.7842738%" y1="82.6565445%" x2="89.7926539%" y2="35.3433794%" id="linearGradient-1">
            <stop stop-color="#FBD249" offset="0%"></stop>
            <stop stop-color="#F5A623" offset="100%"></stop>
        </linearGradient>
        <linearGradient x1="14.7842738%" y1="54.0896506%" x2="89.7926539%" y2="48.1645193%" id="linearGradient-2">
            <stop stop-color="#FBD249" offset="0%"></stop>
            <stop stop-color="#F5A623" offset="100%"></stop>
        </linearGradient>
        <linearGradient x1="36.7822562%" y1="91.6688523%" x2="64.9356314%" y2="31.2985553%" id="linearGradient-3">
            <stop stop-color="#FBD249" offset="0%"></stop>
            <stop stop-color="#F5A623" offset="100%"></stop>
        </linearGradient>
    </defs>
    <g id="事件信息、组织动态、辅助工具" stroke="none" stroke-width="1" fill="none" fill-rule="evenodd">
        <g id="动效切图" transform="translate(-641.000000, -524.000000)">
            <g id="编组-13" transform="translate(595.000000, 506.000000)">
                <g id="绿" transform="translate(46.799999, 18.000000)">
                    <path d="M2.0473309,0.0358497434 C1.95280932,0.0418247007 1.85823526,0.0477996579 1.7636612,0.0537746152 L1.7636612,0.0537746152 C1.6973229,0.0580723914 1.22272065,0.0885237086 1.15632987,0.0928738968 L1.15632987,0.0928738968 C0.889979495,0.110117414 1.03184059,0.101154978 0.765437735,0.118293671 L0.765437735,0.118293671 C0.704400201,0.309544715 0.643310185,0.500795758 0.582325135,0.692046802 L0.582325135,0.692046802 C0.551150333,0.786493056 0.520080496,0.88093931 0.488958177,0.975385564 L0.488958177,0.975385564 C0.471691325,1.02957947 0.454424473,1.08387821 0.437157622,1.13812453 L0.437157622,1.13812453 L0.104731365,2.18384687 C0.373758361,2.18169798 0.354444679,2.18075457 0.623366709,2.17871051 L0.623366709,2.17871051 C0.962458285,2.17593267 1.58973309,2.1721066 1.92882467,2.16938119 L1.92882467,2.16938119 C2.0372542,1.8035985 2.14563125,1.43765857 2.25400829,1.07182347 L2.25400829,1.07182347 C2.35991865,0.714531509 2.46572404,0.357344373 2.57158191,0 L2.57158191,0 C2.39686656,0.0119499145 2.22209873,0.023899829 2.0473309,0.0358497434" id="Fill-113" fill="url(#linearGradient-1)"></path>
                    <polygon id="Fill-115" fill="url(#linearGradient-2)" points="0.0762201248 2.18370066 0.905711281 2.74660453 1.47661953 3.1338761 2.3204385 3.14828937 2.56464111 3.15180097 2.84463702 3.15541739 3.24686544 3.16254541 1.90031343 2.16923498"></polygon>
                    <polygon id="Fill-117" fill="url(#linearGradient-3)" points="1.88516457 2.16938119 3.23171659 3.16269162 3.82277824 1.24273869 2.52792182 0"></polygon>
                </g>
            </g>
        </g>
    </g>
</svg>