<?xml version="1.0" encoding="UTF-8"?>
<svg width="14px" height="14px" viewBox="0 0 14 14" version="1.1" xmlns="http://www.w3.org/2000/svg" xmlns:xlink="http://www.w3.org/1999/xlink">
    <title>右翻</title>
    <defs>
        <filter id="filter-1">
            <feColorMatrix in="SourceGraphic" type="matrix" values="0 0 0 0 0.000000 0 0 0 0 0.756863 0 0 0 0 0.870588 0 0 0 1.000000 0"></feColorMatrix>
        </filter>
    </defs>
    <g id="事件信息、组织动态、辅助工具" stroke="none" stroke-width="1" fill="none" fill-rule="evenodd">
        <g id="辅助工具" transform="translate(-392.000000, -309.000000)">
            <g id="左侧数据看板" transform="translate(10.000000, 132.000000)">
                <g id="标绘模板" transform="translate(0.000000, 132.000000)">
                    <g id="右翻" transform="translate(0.000000, 36.000000)" filter="url(#filter-1)">
                        <g transform="translate(389.250000, 16.000000) scale(-1, 1) translate(-389.250000, -16.000000) translate(382.750000, 9.000000)">
                            <path d="M7.41208411,12.8630455 L1.52452789,6.97548929 L7.41208411,1.08793307 C7.65766132,0.842355858 7.65766132,0.443555258 7.41208411,0.197978047 C7.1665069,-0.0475991646 6.7677063,-0.0475991648 6.52212909,0.197978046 L0.189595354,6.53261073 C0.0657572732,6.65644881 0.00488770814,6.81596905 0.00488770814,6.97758824 C0.00488770814,7.13920743 0.0657572736,7.30082662 0.189595354,7.42256575 L6.52212909,13.7550995 C6.7677063,14.0006767 7.1665069,14.0006767 7.41208411,13.7550995 C7.65766132,13.5074233 7.65766132,13.1086227 7.41208411,12.8630455 L7.41208411,12.8630455 Z M4.66665682,6.53051178 C4.54281874,6.65434986 4.48194918,6.8138701 4.48194918,6.97548929 C4.48194918,7.13710848 4.54281874,7.29872767 4.66665682,7.4204668 L10.9991906,13.7550995 C11.2447678,14.0006767 11.6435684,14.0006767 11.8891456,13.7550995 C12.1347228,13.5095223 12.1347228,13.1107217 11.8891456,12.8651445 L6.00158936,6.97548929 L11.8891456,1.08793307 C12.1347228,0.842355858 12.1347228,0.443555258 11.8891456,0.197978047 C11.6435684,-0.0475991646 11.2447678,-0.0475991648 10.9991906,0.197978046 L4.66665682,6.53051178 Z" id="形状" fill="#000000" fill-rule="nonzero"></path>
                        </g>
                    </g>
                </g>
            </g>
        </g>
    </g>
</svg>