<?xml version="1.0" encoding="UTF-8"?>
<svg width="650px" height="260px" viewBox="0 0 650 260" version="1.1" xmlns="http://www.w3.org/2000/svg" xmlns:xlink="http://www.w3.org/1999/xlink">
    <title>编组 2</title>
    <defs>
        <linearGradient x1="0%" y1="50%" x2="100%" y2="50%" id="linearGradient-1">
            <stop stop-color="#FFBD99" offset="0%"></stop>
            <stop stop-color="#E89292" offset="100%"></stop>
        </linearGradient>
        <rect id="path-2" x="0" y="0" width="630" height="240" rx="10"></rect>
        <filter x="-1.6%" y="-2.1%" width="103.2%" height="108.3%" filterUnits="objectBoundingBox" id="filter-3">
            <feGaussianBlur stdDeviation="0" in="SourceGraphic"></feGaussianBlur>
        </filter>
        <filter x="-2.8%" y="-5.2%" width="105.6%" height="114.6%" filterUnits="objectBoundingBox" id="filter-5">
            <feOffset dx="0" dy="5" in="SourceAlpha" result="shadowOffsetOuter1"></feOffset>
            <feGaussianBlur stdDeviation="5" in="shadowOffsetOuter1" result="shadowBlurOuter1"></feGaussianBlur>
            <feColorMatrix values="0 0 0 0 0.45105865   0 0 0 0 0.18803713   0 0 0 0 0.18497874  0 0 0 0.3 0" type="matrix" in="shadowBlurOuter1"></feColorMatrix>
        </filter>
        <rect id="path-6" x="10" y="10" width="610" height="220" rx="8"></rect>
        <filter x="0.0%" y="0.0%" width="100.0%" height="100.0%" filterUnits="objectBoundingBox" id="filter-7">
            <feGaussianBlur stdDeviation="0" in="SourceGraphic"></feGaussianBlur>
        </filter>
        <linearGradient x1="13.875%" y1="100%" x2="86.125%" y2="0%" id="linearGradient-9">
            <stop stop-color="#FFFFFF" stop-opacity="0" offset="0%"></stop>
            <stop stop-color="#FFFFFF" stop-opacity="0" offset="20.4535293%"></stop>
            <stop stop-color="#FFFFFF" offset="87.461757%"></stop>
            <stop stop-color="#FFFFFF" offset="100%"></stop>
        </linearGradient>
    </defs>
    <g id="页面-1" stroke="none" stroke-width="1" fill="none" fill-rule="evenodd">
        <g id="现场指挥部-联系人" transform="translate(-50.000000, -143.000000)">
            <g id="编组-2" transform="translate(60.000000, 148.000000)">
                <g id="椭圆形">
                    <mask id="mask-4" fill="white">
                        <use xlink:href="#path-2"></use>
                    </mask>
                    <g id="蒙版" filter="url(#filter-3)">
                        <use fill="black" fill-opacity="1" filter="url(#filter-5)" xlink:href="#path-2"></use>
                        <use fill="url(#linearGradient-1)" fill-rule="evenodd" xlink:href="#path-2"></use>
                    </g>
                    <mask id="mask-8" fill="white">
                        <use xlink:href="#path-6"></use>
                    </mask>
                    <rect stroke="#FFFFFF" x="10.5" y="10.5" width="609" height="219" rx="8"></rect>
                    <circle fill="#FFFFFF" opacity="0.200000003" mask="url(#mask-8)" cx="20" cy="-20" r="105"></circle>
                    <circle stroke="#FFFFFF" opacity="0.699999988" mask="url(#mask-8)" cx="40" cy="-40" r="104.5"></circle>
                    <path d="M494.977386,87.5846505 C542.677508,87.5846505 581.339632,126.177557 581.34717,173.784754 L581.34717,236.764404 C581.34717,241.537518 577.475276,245.409221 572.693608,245.417522 L417.261164,245.417522 C412.479496,245.409221 408.607602,241.537518 408.607602,236.764404 L408.607602,173.784754 C408.61514,126.177557 447.277265,87.5846505 494.977386,87.5846505 Z M487.409288,40.000013 L502.56056,40.000013 C503.133632,39.998026 503.68392,40.2238699 504.089853,40.6276638 C504.495785,41.0314577 504.723963,41.5799689 504.723963,42.152019 L504.723963,68.1113729 C504.725954,68.6834194 504.499705,69.2327222 504.095187,69.637928 C503.690669,70.0431338 503.141174,70.2709033 502.568098,70.2709033 L487.416826,70.2709033 C486.843754,70.2728903 486.293466,70.0470464 485.887533,69.6432525 C485.481601,69.2394586 485.253423,68.6909474 485.253423,68.1188973 L485.253423,42.1595434 C485.251433,41.5887984 485.476649,41.0406358 485.879537,40.635647 C486.282424,40.2306582 486.829982,40.0020183 487.401751,40.000013 L487.409288,40.000013 Z M404.348663,73.4386837 C404.753715,73.0292404 405.306169,72.7987825 405.882635,72.7987825 C406.459101,72.7987825 407.011555,73.0292404 407.416607,73.4386837 L425.779043,91.7832938 C426.193903,92.1881761 426.427763,92.7428866 426.427763,93.3220439 C426.427763,93.9012012 426.193903,94.4559117 425.779043,94.860794 L415.07516,105.537989 C414.670398,105.94511 414.119565,106.17409 413.544957,106.17409 C412.970348,106.17409 412.419516,105.94511 412.014754,105.537989 L393.637242,87.1783302 C393.22939,86.774293 393,86.2244466 393,85.6508667 C393,85.0772869 393.22939,84.5274405 393.637242,84.1234033 L404.356201,73.4161104 L404.356201,73.4311593 L404.348663,73.4386837 Z M585.643799,73.4386837 L596.362758,84.1459766 C596.77061,84.5500138 597,85.0998602 597,85.6734401 C597,86.2470199 596.77061,86.7968663 596.362758,87.2009035 L578.00786,105.537989 C577.602808,105.947432 577.050354,106.17789 576.473888,106.17789 C575.897422,106.17789 575.344968,105.947432 574.939916,105.537989 L564.220957,94.8382207 C563.810779,94.4338937 563.579908,93.8824289 563.579908,93.306995 C563.579908,92.7315611 563.810779,92.1800963 564.220957,91.7757693 L582.598469,73.4311593 C583.003804,73.0193838 583.557882,72.7874387 584.13621,72.7874387 C584.714538,72.7874387 585.268617,73.0193838 585.673951,73.4311593 L585.643799,73.4462082 L585.643799,73.4386837 Z M408.336236,262.701185 L581.626074,262.701185 C586.397594,262.701185 590.294712,266.591325 590.294712,271.354302 L590.294712,277.847903 C590.294712,278.421264 590.065524,278.970925 589.657956,279.374937 C589.250389,279.77895 588.698159,280.003905 588.123783,279.999949 L401.838527,279.999949 C400.647882,279.999949 399.682674,279.036416 399.682674,277.847903 L399.682674,271.354302 C399.682674,266.591325 403.549641,262.716233 408.336236,262.716233 L408.336236,262.701185 Z M448.415494,177.020268 L448.415494,245.417522 L465.75277,245.417522 L465.75277,177.020268 L448.415494,177.020268 L448.415494,177.020268 Z" id="形状" fill="url(#linearGradient-9)" fill-rule="nonzero" mask="url(#mask-8)"></path>
                </g>
                <rect id="矩形" fill="#FFFFFF" opacity="0.5" x="40" y="150" width="80" height="4"></rect>
                <rect id="矩形" fill="#FFFFFF" x="40" y="150" width="40" height="4"></rect>
            </g>
        </g>
    </g>
</svg>