<?xml version="1.0" encoding="UTF-8"?>
<svg width="650px" height="260px" viewBox="0 0 650 260" version="1.1" xmlns="http://www.w3.org/2000/svg" xmlns:xlink="http://www.w3.org/1999/xlink">
    <title>编组 2</title>
    <defs>
        <linearGradient x1="0.767591783%" y1="50%" x2="100%" y2="50%" id="linearGradient-1">
            <stop stop-color="#70E0B2" offset="0%"></stop>
            <stop stop-color="#32C794" offset="100%"></stop>
        </linearGradient>
        <rect id="path-2" x="0" y="0" width="630" height="240" rx="10"></rect>
        <filter x="-1.6%" y="-2.1%" width="103.2%" height="108.3%" filterUnits="objectBoundingBox" id="filter-3">
            <feGaussianBlur stdDeviation="0" in="SourceGraphic"></feGaussianBlur>
        </filter>
        <filter x="-2.8%" y="-5.2%" width="105.6%" height="114.6%" filterUnits="objectBoundingBox" id="filter-5">
            <feOffset dx="0" dy="5" in="SourceAlpha" result="shadowOffsetOuter1"></feOffset>
            <feGaussianBlur stdDeviation="5" in="shadowOffsetOuter1" result="shadowBlurOuter1"></feGaussianBlur>
            <feColorMatrix values="0 0 0 0 0.0810786976   0 0 0 0 0.471156024   0 0 0 0 0.273282992  0 0 0 0.3 0" type="matrix" in="shadowBlurOuter1"></feColorMatrix>
        </filter>
        <rect id="path-6" x="10" y="10" width="610" height="220" rx="8"></rect>
        <linearGradient x1="0%" y1="100%" x2="100%" y2="0%" id="linearGradient-8">
            <stop stop-color="#FFFFFF" stop-opacity="0" offset="0%"></stop>
            <stop stop-color="#FFFFFF" stop-opacity="0" offset="10.2129178%"></stop>
            <stop stop-color="#FFFFFF" offset="90.7609522%"></stop>
            <stop stop-color="#FFFFFF" offset="100%"></stop>
        </linearGradient>
    </defs>
    <g id="页面-1" stroke="none" stroke-width="1" fill="none" fill-rule="evenodd">
        <g id="首页入口" transform="translate(-50.000000, -1035.000000)">
            <g id="编组" transform="translate(60.000000, 752.000000)">
                <g id="编组-2" transform="translate(0.000000, 288.000000)">
                    <g id="椭圆形">
                        <mask id="mask-4" fill="white">
                            <use xlink:href="#path-2"></use>
                        </mask>
                        <g id="蒙版" filter="url(#filter-3)">
                            <use fill="black" fill-opacity="1" filter="url(#filter-5)" xlink:href="#path-2"></use>
                            <use fill="url(#linearGradient-1)" fill-rule="evenodd" xlink:href="#path-2"></use>
                        </g>
                        <mask id="mask-7" fill="white">
                            <use xlink:href="#path-6"></use>
                        </mask>
                        <rect stroke="#FFFFFF" x="10.5" y="10.5" width="609" height="219" rx="8"></rect>
                        <circle fill="#FFFFFF" opacity="0.200000003" mask="url(#mask-7)" cx="20" cy="-20" r="105"></circle>
                        <circle stroke="#FFFFFF" opacity="0.699999988" mask="url(#mask-7)" cx="40" cy="-40" r="104.5"></circle>
                        <path d="M531.323455,162.940983 C526.694117,162.940983 522.941236,166.693863 522.941236,171.323201 C522.941236,175.95254 526.694117,179.70542 531.323455,179.70542 L559.264691,179.70542 C563.894029,179.70542 567.64691,175.95254 567.64691,171.323201 C567.64691,166.693863 563.894029,162.940983 559.264691,162.940983 L531.323455,162.940983 Z M511.764691,140.588146 L578.823455,140.588146 C584.995906,140.588146 590,145.591987 590,151.764691 L590,218.823455 C590,224.996159 584.996159,230 578.823455,230 L511.764691,230 C505.591987,230 500.588146,224.996159 500.588146,218.823455 L500.588146,151.764691 C500.588146,145.591987 505.591987,140.588146 511.764691,140.588146 Z M430.735309,162.940983 C426.105971,162.940983 422.35309,166.693863 422.35309,171.323201 C422.35309,175.95254 426.105971,179.70542 430.735309,179.70542 L458.676545,179.70542 C463.305883,179.70542 467.058764,175.95254 467.058764,171.323201 C467.058764,166.693863 463.305883,162.940983 458.676545,162.940983 L430.735309,162.940983 Z M411.176545,140.588146 L478.235309,140.588146 C484.408013,140.588146 489.411854,145.591987 489.411854,151.764691 L489.411854,218.823455 C489.411854,224.996159 484.408013,230 478.235309,230 L411.176545,230 C405.003841,230 400,224.996159 400,218.823455 L400,151.764691 C400,145.591987 405.004094,140.588146 411.176545,140.588146 Z M475.441236,62.3530902 C470.811898,62.3530902 467.059017,66.1059707 467.059017,70.7353089 C467.059017,75.364647 470.811898,79.1175276 475.441236,79.1175276 L503.382472,79.1175276 C508.01181,79.1175276 511.764691,75.364647 511.764691,70.7353089 C511.764691,66.1059707 508.01181,62.3530902 503.382472,62.3530902 L475.441236,62.3530902 L475.441236,62.3530902 Z M455.882472,40 L522.941236,40 C529.113687,40 534.117781,45.0038408 534.117781,51.1765451 L534.117781,118.235309 C534.117781,124.408013 529.11394,129.411854 522.941236,129.411854 L455.882472,129.411854 C449.709768,129.411854 444.705927,124.408013 444.705927,118.235309 L444.705927,51.1765451 C444.705927,45.0040941 449.709768,40 455.882472,40 Z" id="形状" fill="url(#linearGradient-8)" fill-rule="nonzero" mask="url(#mask-7)"></path>
                    </g>
                    <rect id="矩形" fill="#FFFFFF" opacity="0.5" x="40" y="150" width="80" height="4"></rect>
                    <rect id="矩形" fill="#FFFFFF" x="40" y="150" width="40" height="4"></rect>
                </g>
            </g>
        </g>
    </g>
</svg>