<?xml version="1.0" encoding="UTF-8"?>
<svg width="650px" height="260px" viewBox="0 0 650 260" version="1.1" xmlns="http://www.w3.org/2000/svg" xmlns:xlink="http://www.w3.org/1999/xlink">
    <title>编组 2</title>
    <defs>
        <linearGradient x1="0%" y1="50%" x2="100%" y2="50%" id="linearGradient-1">
            <stop stop-color="#9EDAFF" offset="0%"></stop>
            <stop stop-color="#6F8FF7" offset="100%"></stop>
        </linearGradient>
        <rect id="path-2" x="0" y="0" width="630" height="240" rx="10"></rect>
        <filter x="-1.6%" y="-2.1%" width="103.2%" height="108.3%" filterUnits="objectBoundingBox" id="filter-3">
            <feGaussianBlur stdDeviation="0" in="SourceGraphic"></feGaussianBlur>
        </filter>
        <filter x="-2.8%" y="-5.2%" width="105.6%" height="114.6%" filterUnits="objectBoundingBox" id="filter-5">
            <feOffset dx="0" dy="5" in="SourceAlpha" result="shadowOffsetOuter1"></feOffset>
            <feGaussianBlur stdDeviation="5" in="shadowOffsetOuter1" result="shadowBlurOuter1"></feGaussianBlur>
            <feColorMatrix values="0 0 0 0 0.0696390998   0 0 0 0 0.193133089   0 0 0 0 0.602383379  0 0 0 0.3 0" type="matrix" in="shadowBlurOuter1"></feColorMatrix>
        </filter>
        <rect id="path-6" x="10" y="10" width="610" height="220" rx="8"></rect>
        <filter x="0.0%" y="0.0%" width="100.0%" height="100.0%" filterUnits="objectBoundingBox" id="filter-7">
            <feGaussianBlur stdDeviation="0" in="SourceGraphic"></feGaussianBlur>
        </filter>
        <linearGradient x1="9.5%" y1="100%" x2="90.5%" y2="0%" id="linearGradient-9">
            <stop stop-color="#FFFFFF" stop-opacity="0" offset="0%"></stop>
            <stop stop-color="#FFFFFF" stop-opacity="0" offset="20.4535293%"></stop>
            <stop stop-color="#FFFFFF" offset="87.461757%"></stop>
            <stop stop-color="#FFFFFF" offset="100%"></stop>
        </linearGradient>
    </defs>
    <g id="页面-1" stroke="none" stroke-width="1" fill="none" fill-rule="evenodd">
        <g id="首页入口" transform="translate(-50.000000, -747.000000)">
            <g id="编组-2" transform="translate(60.000000, 752.000000)">
                <g id="椭圆形">
                    <mask id="mask-4" fill="white">
                        <use xlink:href="#path-2"></use>
                    </mask>
                    <g id="蒙版" filter="url(#filter-3)">
                        <use fill="black" fill-opacity="1" filter="url(#filter-5)" xlink:href="#path-2"></use>
                        <use fill="url(#linearGradient-1)" fill-rule="evenodd" xlink:href="#path-2"></use>
                    </g>
                    <mask id="mask-8" fill="white">
                        <use xlink:href="#path-6"></use>
                    </mask>
                    <rect stroke="#FFFFFF" x="10.5" y="10.5" width="609" height="219" rx="8"></rect>
                    <circle fill="#FFFFFF" opacity="0.200000003" mask="url(#mask-8)" cx="20" cy="-20" r="105"></circle>
                    <circle stroke="#FFFFFF" opacity="0.699999988" mask="url(#mask-8)" cx="40" cy="-40" r="104.5"></circle>
                    <path d="M473.988235,160.007057 L473.988235,135.836274 C456.341176,128.10868 443.988235,110.465773 443.988235,90 C443.988235,62.4064926 466.435294,40 494,40 C521.6,40 544.011765,62.4417785 544.011765,90 C544.011765,110.501059 531.658824,128.10868 514.011765,135.800988 L514.011765,159.971771 L558.976471,159.971771 C572.811765,159.971771 584,171.051517 584,184.954128 L584,210.007057 L404,210.007057 L404,185.0247 C404,171.227946 415.258823,160.042343 429.023529,160.042343 L473.988235,160.042343 L473.988235,160.007057 Z M413.988235,219.992943 L573.976471,219.992943 L573.976471,240 L413.988235,240 L413.988235,219.992943 Z" id="形状" fill="url(#linearGradient-9)" fill-rule="nonzero" mask="url(#mask-8)"></path>
                </g>
                <rect id="矩形" fill="#FFFFFF" opacity="0.5" x="40" y="150" width="80" height="4"></rect>
                <rect id="矩形" fill="#FFFFFF" x="40" y="150" width="40" height="4"></rect>
            </g>
        </g>
    </g>
</svg>