<?xml version="1.0" encoding="UTF-8"?>
<svg width="650px" height="260px" viewBox="0 0 650 260" version="1.1" xmlns="http://www.w3.org/2000/svg" xmlns:xlink="http://www.w3.org/1999/xlink">
    <title>编组 2</title>
    <defs>
        <linearGradient x1="0%" y1="50%" x2="100%" y2="50%" id="linearGradient-1">
            <stop stop-color="#DDB3ED" offset="0%"></stop>
            <stop stop-color="#A18CD1" offset="100%"></stop>
        </linearGradient>
        <rect id="path-2" x="0" y="0" width="630" height="240" rx="10"></rect>
        <filter x="-2.7%" y="-5.4%" width="105.4%" height="114.2%" filterUnits="objectBoundingBox" id="filter-4">
            <feOffset dx="0" dy="4" in="SourceAlpha" result="shadowOffsetOuter1"></feOffset>
            <feGaussianBlur stdDeviation="5" in="shadowOffsetOuter1" result="shadowBlurOuter1"></feGaussianBlur>
            <feColorMatrix values="0 0 0 0 0.246181163   0 0 0 0 0.0112372907   0 0 0 0 0.463626585  0 0 0 0.3 0" type="matrix" in="shadowBlurOuter1"></feColorMatrix>
        </filter>
        <rect id="path-5" x="10" y="10" width="610" height="220" rx="8"></rect>
        <linearGradient x1="14.292799%" y1="100%" x2="85.707201%" y2="0%" id="linearGradient-7">
            <stop stop-color="#FFFFFF" stop-opacity="0" offset="0%"></stop>
            <stop stop-color="#FFFFFF" stop-opacity="0" offset="20.4535293%"></stop>
            <stop stop-color="#FFFFFF" offset="100%"></stop>
        </linearGradient>
    </defs>
    <g id="页面-1" stroke="none" stroke-width="1" fill="none" fill-rule="evenodd">
        <g id="现场指挥部-联系人" transform="translate(-50.000000, -462.000000)">
            <g id="编组" transform="translate(60.000000, 148.000000)">
                <g id="编组-2" transform="translate(0.000000, 320.000000)">
                    <g id="椭圆形">
                        <mask id="mask-3" fill="white">
                            <use xlink:href="#path-2"></use>
                        </mask>
                        <g id="蒙版">
                            <use fill="black" fill-opacity="1" filter="url(#filter-4)" xlink:href="#path-2"></use>
                            <use fill="url(#linearGradient-1)" fill-rule="evenodd" xlink:href="#path-2"></use>
                        </g>
                        <mask id="mask-6" fill="white">
                            <use xlink:href="#path-5"></use>
                        </mask>
                        <rect stroke="#FFFFFF" x="10.5" y="10.5" width="609" height="219" rx="8"></rect>
                        <circle fill="#FFFFFF" opacity="0.200000003" mask="url(#mask-6)" cx="20" cy="-20" r="105"></circle>
                        <circle stroke="#FFFFFF" opacity="0.699999988" mask="url(#mask-6)" cx="40" cy="-40" r="104.5"></circle>
                        <path d="M454.239159,101.570313 C449.581401,101.570313 445.921734,105.23125 445.921734,109.890625 C445.921734,114.55 449.581401,118.210938 454.239159,118.210938 C458.896918,118.210938 462.556585,114.55 462.556585,109.890625 C462.556585,105.23125 458.896918,101.570313 454.239159,101.570313 Z M454.239159,101.570313 C449.581401,101.570313 445.921734,105.23125 445.921734,109.890625 C445.921734,114.55 449.581401,118.210938 454.239159,118.210938 C458.896918,118.210938 462.556585,114.55 462.556585,109.890625 C462.556585,105.23125 458.896918,101.570313 454.239159,101.570313 Z M454.239159,101.570313 C449.581401,101.570313 445.921734,105.23125 445.921734,109.890625 C445.921734,114.55 449.581401,118.210938 454.239159,118.210938 C458.896918,118.210938 462.556585,114.55 462.556585,109.890625 C462.556585,105.23125 458.896918,101.570313 454.239159,101.570313 Z M454.239159,101.570313 C449.581401,101.570313 445.921734,105.23125 445.921734,109.890625 C445.921734,114.55 449.581401,118.210938 454.239159,118.210938 C458.896918,118.210938 462.556585,114.55 462.556585,109.890625 C462.556585,105.23125 458.896918,101.570313 454.239159,101.570313 Z M569.019632,40 L421.302154,40 C412.319334,40 405,47.321875 405,56.3078125 L405,236.692188 C405,245.678125 412.319334,253 421.302154,253 L568.686935,253 C577.669754,253 584.989089,245.678125 584.989089,236.692188 L584.989089,56.3078125 C585.321786,47.321875 578.002451,40 569.019632,40 Z M462.556585,130.192188 L462.556585,164.471875 C469.875919,167.467188 474.866375,174.789063 474.866375,183.442188 C474.866375,194.757813 465.550858,204.076563 454.239159,204.076563 C442.92746,204.076563 433.611944,194.757813 433.611944,183.442188 C433.611944,175.121875 438.602399,167.8 445.921734,164.471875 L445.921734,130.192188 L445.921734,128.528125 C438.602399,125.532813 433.611944,118.210938 433.611944,109.557813 C433.611944,98.2421875 442.92746,88.9234375 454.239159,88.9234375 C465.550858,88.9234375 474.866375,98.2421875 474.866375,109.557813 C474.866375,117.878125 469.875919,125.2 462.556585,128.528125 C462.223888,128.860938 462.556585,129.526563 462.556585,130.192188 Z M554.048266,189.1 C552.717478,190.43125 550.388599,191.429688 548.392416,191.429688 L499.153257,191.429688 C494.495499,191.429688 490.835832,187.76875 490.835832,183.109375 C490.835832,180.779688 491.833923,178.782813 493.164711,177.451563 C494.495499,176.120313 496.824378,175.121875 498.82056,175.121875 L548.392416,175.121875 C553.050175,175.121875 556.709842,178.782813 556.709842,183.442188 C556.709842,185.771875 555.711751,187.76875 554.048266,189.1 Z M554.048266,152.157813 C552.717478,153.489062 550.388599,154.4875 548.392416,154.4875 L515.788108,154.4875 C511.13035,154.4875 507.470683,150.826563 507.470683,146.167188 C507.470683,143.8375 508.468774,141.840625 509.799562,140.509375 C511.13035,139.178125 513.459229,138.179688 515.455411,138.179688 L548.392416,138.179688 C553.050175,138.179688 556.709842,141.840625 556.709842,146.5 C556.709842,148.829688 555.711751,150.826563 554.048266,152.157813 L554.048266,152.157813 Z M554.048266,115.548437 C552.717478,116.879687 550.388599,117.878125 548.392416,117.878125 L499.153257,117.878125 C494.495499,117.878125 490.835832,114.217187 490.835832,109.557812 C490.835832,107.228125 491.833923,105.23125 493.164711,103.9 C494.495499,102.56875 496.824378,101.570312 498.82056,101.570312 L548.392416,101.570312 C553.050175,101.570312 556.709842,105.23125 556.709842,109.890625 C556.709842,111.8875 555.711751,113.884375 554.048266,115.548437 Z M454.239159,101.570312 C449.581401,101.570312 445.921734,105.23125 445.921734,109.890625 C445.921734,114.55 449.581401,118.210938 454.239159,118.210938 C458.896918,118.210938 462.556585,114.55 462.556585,109.890625 C462.556585,105.23125 458.896918,101.570312 454.239159,101.570312 Z M454.239159,175.121875 C449.581401,175.121875 445.921734,178.782813 445.921734,183.442188 C445.921734,188.101562 449.581401,191.7625 454.239159,191.7625 C458.896918,191.7625 462.556585,188.101562 462.556585,183.442188 C462.556585,178.782813 458.896918,175.121875 454.239159,175.121875 Z M454.239159,101.570312 C449.581401,101.570312 445.921734,105.23125 445.921734,109.890625 C445.921734,114.55 449.581401,118.210937 454.239159,118.210937 C458.896918,118.210937 462.556585,114.55 462.556585,109.890625 C462.556585,105.23125 458.896918,101.570312 454.239159,101.570312 Z M454.239159,101.570312 C449.581401,101.570312 445.921734,105.23125 445.921734,109.890625 C445.921734,114.55 449.581401,118.210937 454.239159,118.210937 C458.896918,118.210937 462.556585,114.55 462.556585,109.890625 C462.556585,105.23125 458.896918,101.570312 454.239159,101.570312 Z M454.239159,101.570312 C449.581401,101.570312 445.921734,105.23125 445.921734,109.890625 C445.921734,114.55 449.581401,118.210937 454.239159,118.210937 C458.896918,118.210937 462.556585,114.55 462.556585,109.890625 C462.556585,105.23125 458.896918,101.570312 454.239159,101.570312 Z M454.239159,101.570312 C449.581401,101.570312 445.921734,105.23125 445.921734,109.890625 C445.921734,114.55 449.581401,118.210937 454.239159,118.210937 C458.896918,118.210937 462.556585,114.55 462.556585,109.890625 C462.556585,105.23125 458.896918,101.570312 454.239159,101.570312 Z" id="形状" fill="url(#linearGradient-7)" fill-rule="nonzero" mask="url(#mask-6)"></path>
                    </g>
                    <rect id="矩形" fill="#FFFFFF" opacity="0.5" x="40" y="150" width="80" height="4"></rect>
                    <rect id="矩形" fill="#FFFFFF" x="40" y="150" width="40" height="4"></rect>
                </g>
            </g>
        </g>
    </g>
</svg>