<svg width="48" height="41" xmlns="http://www.w3.org/2000/svg"><path d="M41.92 34.135c-.355-1.637-1.716-2.73-3.41-2.741-.464-.003-.928 0-1.393 0a5.17 5.17 0 003.152-4.76 5.167 5.167 0 00-5.153-5.179c-2.842-.004-5.165 2.318-5.17 5.168a5.163 5.163 0 003.155 4.766c-.498-.001-.995 0-1.494.011-1.607.037-2.937 1.102-3.282 2.663-.109.494-.083.943-.105 1.455-.013.32-.003.897-.003.897h-.296c0-.715.004-1.026-.002-1.568-.019-2.029-1.511-3.484-3.531-3.489-.432-.001-.864.004-1.294.005a5.167 5.167 0 003.095-4.73c.001-2.853-2.313-5.176-5.158-5.179-2.848-.002-5.156 2.31-5.163 5.17a5.155 5.155 0 003.126 4.755c-.441.003-.883.001-1.325.005-.405.004-.83.074-1.213.205-1.417.48-2.302 1.76-2.32 3.278-.006.559 0 1.119 0 1.66l.034.498c-4.128-.622-7.306-4.18-7.306-8.476v-1.43c0-4.68 3.77-8.492 8.435-8.575 9.176.005 17.113-.007 26.376-.007h.315c.004 0 .008-.11.008-.155 0-1.669.003-3.33-.003-5a3.422 3.422 0 00-.076-.702c-.355-1.636-1.716-2.73-3.41-2.74-.464-.004-.928 0-1.393 0a5.17 5.17 0 003.152-4.76A5.167 5.167 0 0035.115 0c-2.843-.004-5.165 2.318-5.17 5.168A5.163 5.163 0 0033.1 9.934c-.498 0-.995 0-1.494.012-1.607.037-2.937 1.101-3.282 2.663-.109.494-.083.944-.105 1.455-.014.319-.003.897-.003.897h-.297c0-.715.005-1.026 0-1.568-.02-2.029-1.512-3.484-3.532-3.49-.432 0-.864.006-1.295.006a5.167 5.167 0 003.096-4.73C26.19 2.325 23.875.002 21.03 0c-2.848-.002-5.156 2.31-5.163 5.169a5.155 5.155 0 003.126 4.755c-.441.003-.883.002-1.325.005-.405.003-.83.074-1.213.204-1.417.481-2.302 1.76-2.32 3.28-.006.557 0 1.117 0 1.66l.047.678C8.464 16.384 4 21.24 4 27.119v1.43c0 5.827 4.385 10.642 10.029 11.345l-.007.097v.007c10.02.007 18.077-.007 27.654-.007h.315c.004 0 .008-.11.008-.155 0-1.669.003-3.33-.003-5a3.413 3.413 0 00-.076-.701z" fill="#FFF" fill-rule="nonzero" opacity=".3"/></svg>