<?xml version="1.0" encoding="UTF-8"?>
<svg width="25px" height="25px" viewBox="0 0 25 25" version="1.1" xmlns="http://www.w3.org/2000/svg" xmlns:xlink="http://www.w3.org/1999/xlink">
    <title>切图</title>
    <g id="页面-1" stroke="none" stroke-width="1" fill="none" fill-rule="evenodd">
        <g id="切图" transform="translate(-155.000000, -320.000000)" fill="#9FC8FE">
            <g id="编组-13" transform="translate(155.000000, 320.000000)">
                <path d="M6.41920449,19.6801318 L6.41920449,13.5002038 C6.41920449,9.80350246 9.41681933,6.80534049 13.1172334,6.80534049 C16.8176475,6.80534049 19.8152819,9.803522 19.8152819,13.5002038 L19.8152819,19.6801318 L22.1017731,19.6801318 C22.5766111,19.6801318 22.961562,20.0650827 22.961562,20.5399206 C22.961562,21.0147586 22.5766111,21.3997095 22.1017731,21.3997095 L3.85978888,21.3997095 C3.38493139,21.3997095 3,21.0147586 3,20.5399206 C3,20.0650827 3.38493139,19.6801318 3.85978888,19.6801318 L6.41922403,19.6801318 L6.41920449,19.6801318 Z M13.6021152,9.50327981 L10.2982397,14.9424019 L12.9405468,14.9424019 L12.2789979,19.0217484 L15.5828734,13.5826263 L12.9405272,13.5826263 L13.6020957,9.50327981 L13.6021152,9.50327981 L13.6021152,9.50327981 Z M18.668812,3.52852875 C18.9790199,3.7090258 19.0850084,4.10736207 18.9063482,4.41739413 L17.7187062,6.48159089 L16.5958219,5.83209856 L17.783503,3.76790179 C17.9601506,3.45788928 18.3566891,3.35193984 18.6649039,3.52852875 L18.668812,3.52852875 Z M13.1152793,2 C13.5039821,2 13.8180786,2.2923673 13.8180786,2.65537407 L13.8180786,4.99425384 L12.4124996,4.99425384 L12.4124996,2.65342 C12.4124801,2.29238684 12.7265766,2 13.1152793,2 L13.1152598,2 L13.1152793,2 Z M7.56567434,3.52852875 C7.87388911,3.34996624 8.2704081,3.45591568 8.44906832,3.76399366 C8.44906832,3.76399366 8.44906832,3.76594773 8.45102239,3.76594773 L9.63870348,5.83014449 L8.51579967,6.47961729 L7.32811858,4.41542052 C7.14951698,4.10538847 7.2555055,3.7090258 7.5656548,3.52852875 L7.56567434,3.52852875 Z M3.50205808,7.60787524 C3.67872515,7.29782365 4.07526369,7.1899006 4.38545207,7.36846312 C4.38545207,7.36846312 4.38740614,7.36846312 4.38740614,7.37043672 L6.44470505,8.56343287 L5.79689321,9.68971722 L3.73957476,8.49472792 C3.42942546,8.31618495 3.32339786,7.91784867 3.50205808,7.60783616 L3.50205808,7.60787524 Z M22.7324087,7.60787524 C22.9110689,7.91786821 22.8050413,8.31620449 22.494892,8.49670153 L20.4375541,9.68774361 L19.7897422,8.5614788 L21.8470411,7.36846312 C22.1552559,7.18992014 22.5517749,7.29586958 22.7304351,7.60392803 C22.7304351,7.60588209 22.7323892,7.60588209 22.7323892,7.60783616 L22.7323892,7.60787524 L22.7324087,7.60787524 Z" id="形状"></path>
            </g>
        </g>
    </g>
</svg>