<?xml version="1.0" encoding="UTF-8"?>
<svg width="16px" height="16px" viewBox="0 0 16 16" version="1.1" xmlns="http://www.w3.org/2000/svg" xmlns:xlink="http://www.w3.org/1999/xlink">
    <title>形状结合</title>
    <g id="页面-1" stroke="none" stroke-width="1" fill="none" fill-rule="evenodd">
        <g id="通讯录-修改" transform="translate(-1237.000000, -555.000000)" fill="#56E9FF" fill-rule="nonzero">
            <g id="弹窗" transform="translate(551.000000, 143.000000)">
                <g id="编组-6备份-2" transform="translate(470.000000, 68.000000)">
                    <g id="编组-2备份-8" transform="translate(21.000000, 266.000000)">
                        <path d="M203,78 C207.417857,78 211,81.5821429 211,86 C211,90.4178571 207.417857,94 203,94 C198.582143,94 195,90.4178571 195,86 C195,81.5821429 198.582143,78 203,78 Z M203,79.3571429 C199.332143,79.3571429 196.357143,82.3321429 196.357143,86 C196.357143,89.6678571 199.332143,92.6428571 203,92.6428571 C206.667857,92.6428571 209.642857,89.6678571 209.642857,86 C209.642857,82.3321429 206.667857,79.3571429 203,79.3571429 Z M203.428571,84.8571429 C203.507143,84.8571429 203.571429,84.9214286 203.571429,85 L203.571429,85 L203.571429,89.8571429 C203.571429,89.9357143 203.507143,90 203.428571,90 L203.428571,90 L202.571429,90 C202.492857,90 202.428571,89.9357143 202.428571,89.8571429 L202.428571,89.8571429 L202.428571,85 C202.428571,84.9214286 202.492857,84.8571429 202.571429,84.8571429 L202.571429,84.8571429 Z M203,82 C203.473387,82 203.857143,82.3837559 203.857143,82.8571429 C203.857143,83.3305298 203.473387,83.7142857 203,83.7142857 C202.526613,83.7142857 202.142857,83.3305298 202.142857,82.8571429 C202.142857,82.3837559 202.526613,82 203,82 Z" id="形状结合"></path>
                    </g>
                </g>
            </g>
        </g>
    </g>
</svg>