<?xml version="1.0" encoding="UTF-8"?>
<svg width="15px" height="16px" viewBox="0 0 15 16" version="1.1" xmlns="http://www.w3.org/2000/svg" xmlns:xlink="http://www.w3.org/1999/xlink">
    <title>路径</title>
    <g id="页面-1" stroke="none" stroke-width="1" fill="none" fill-rule="evenodd">
        <g id="切图整合" transform="translate(-304.000000, -90.000000)" fill="#FFFFFF" fill-rule="nonzero">
            <path d="M318.921496,103.465275 C318.781938,102.819819 318.246135,102.388269 317.579496,102.384115 C317.397157,102.382869 317.214402,102.384115 317.031648,102.384115 C317.784254,102.06357 318.272497,101.324338 318.271887,100.506312 C318.273548,99.3802948 317.365175,98.4648604 316.244142,98.4636144 C315.1256,98.461953 314.211828,99.3778026 314.209751,100.502159 C314.207854,101.321437 314.697002,102.062114 315.451236,102.382039 C315.25519,102.381623 315.05956,102.382039 314.863514,102.386608 C314.230934,102.401145 313.707591,102.821065 313.571771,103.437031 C313.52899,103.631831 313.539374,103.809186 313.530651,104.011047 C313.525252,104.136898 313.529405,104.364926 313.529405,104.364926 L313.412692,104.364926 C313.412692,104.082902 313.414353,103.959958 313.412276,103.746468 C313.4048,102.946086 312.817493,102.37207 312.022511,102.369994 C311.852632,102.369578 311.682753,102.371655 311.51329,102.37207 C312.253547,102.04668 312.731501,101.314512 312.731515,100.505897 C312.731931,99.3807101 311.821065,98.4644451 310.701694,98.463199 C309.581076,98.4623683 308.672702,99.3744798 308.67021,100.502574 C308.667115,101.317814 309.151189,102.056104 309.900065,102.378301 C309.726449,102.379547 309.552832,102.378716 309.3788,102.380377 C309.219305,102.381623 309.052333,102.409452 308.901561,102.460955 C308.343744,102.650771 307.99568,103.155008 307.988619,103.754359 C307.986127,103.974496 307.988203,104.195463 307.988203,104.409369 L308.00191,104.605414 C306.377471,104.359942 305.126848,102.95647 305.126848,101.261836 L305.126848,100.697789 C305.126848,98.8515525 306.610483,97.3479808 308.446336,97.315168 C312.056985,97.3172448 315.180011,97.3122605 318.825135,97.3122605 L318.948909,97.3122605 C318.950571,97.3122605 318.952232,97.269064 318.952232,97.2512039 C318.952232,96.5928721 318.953478,95.9374477 318.950986,95.2791158 C318.950577,95.1859864 318.940556,95.0931478 318.921081,95.0020765 C318.781523,94.3566206 318.24572,93.9250705 317.579081,93.920917 C317.396741,93.919671 317.213987,93.920917 317.031232,93.920917 C317.783839,93.6003712 318.272082,92.8611391 318.271471,92.0431137 C318.273133,90.9170963 317.364759,90.001662 316.243726,90.0004159 C315.125185,89.9987545 314.211412,90.9146042 314.209335,92.0389602 C314.207439,92.8582388 314.696586,93.5989153 315.450821,93.9188403 C315.254775,93.9184249 315.059144,93.9188403 314.863098,93.9234091 C314.230518,93.9379464 313.707176,94.3578666 313.571356,94.9738326 C313.528575,95.1686324 313.538958,95.3464027 313.530236,95.5478481 C313.524836,95.6736996 313.52899,95.9017275 313.52899,95.9017275 L313.412276,95.9017275 C313.412276,95.6197039 313.413938,95.4971753 313.411861,95.2832693 C313.404385,94.4828874 312.817078,93.9088718 312.022095,93.9067951 C311.852217,93.9063797 311.682338,93.9088718 311.512875,93.9088718 C312.253131,93.5834816 312.731086,92.8513137 312.7311,92.0426984 C312.731515,90.9175116 311.82065,90.0012466 310.701278,90 C309.58066,89.9991699 308.672287,90.9112814 308.669795,92.0389602 C308.6667,92.8542002 309.150774,93.5924907 309.89965,93.9146867 C309.726033,93.9159328 309.552416,93.9155175 309.378384,93.9167635 C309.218889,93.9180096 309.051918,93.9458381 308.901146,93.9973417 C308.343329,94.1871572 307.995264,94.6913937 307.988203,95.2907457 C307.985711,95.5108819 307.987788,95.7318488 307.987788,95.9457547 L308.006479,96.2132409 C305.756521,96.4632824 304,98.3784674 304,100.697789 L304,101.261836 C304,103.56039 305.725369,105.459792 307.946253,105.737247 L307.943761,105.775459 L307.943761,105.778366 C311.886691,105.780859 315.057067,105.775459 318.82555,105.775459 L318.949325,105.775459 C318.950986,105.775459 318.952647,105.732262 318.952647,105.714402 C318.952647,105.056071 318.953894,104.400646 318.951401,103.741899 C318.950991,103.648907 318.940969,103.556206 318.921496,103.465275 L318.921496,103.465275 Z" id="路径"></path>
        </g>
    </g>
</svg>