<?xml version="1.0" encoding="UTF-8"?>
<svg width="15px" height="16px" viewBox="0 0 15 16" version="1.1" xmlns="http://www.w3.org/2000/svg" xmlns:xlink="http://www.w3.org/1999/xlink">
    <title>路径备份 2</title>
    <g id="页面-1" stroke="none" stroke-width="1" fill="none" fill-rule="evenodd">
        <g id="切图整合" transform="translate(-304.000000, -120.000000)" fill="#56E9FF" fill-rule="nonzero">
            <path d="M318.921496,133.465275 C318.781938,132.819819 318.246135,132.388269 317.579496,132.384115 C317.397157,132.382869 317.214402,132.384115 317.031648,132.384115 C317.784254,132.06357 318.272497,131.324338 318.271887,130.506312 C318.273548,129.380295 317.365175,128.46486 316.244142,128.463614 C315.1256,128.461953 314.211828,129.377803 314.209751,130.502159 C314.207854,131.321437 314.697002,132.062114 315.451236,132.382039 C315.25519,132.381623 315.05956,132.382039 314.863514,132.386608 C314.230934,132.401145 313.707591,132.821065 313.571771,133.437031 C313.52899,133.631831 313.539374,133.809186 313.530651,134.011047 C313.525252,134.136898 313.529405,134.364926 313.529405,134.364926 L313.412692,134.364926 C313.412692,134.082902 313.414353,133.959958 313.412276,133.746468 C313.4048,132.946086 312.817493,132.37207 312.022511,132.369994 C311.852632,132.369578 311.682753,132.371655 311.51329,132.37207 C312.253547,132.04668 312.731501,131.314512 312.731515,130.505897 C312.731931,129.38071 311.821065,128.464445 310.701694,128.463199 C309.581076,128.462368 308.672702,129.37448 308.67021,130.502574 C308.667115,131.317814 309.151189,132.056104 309.900065,132.378301 C309.726449,132.379547 309.552832,132.378716 309.3788,132.380377 C309.219305,132.381623 309.052333,132.409452 308.901561,132.460955 C308.343744,132.650771 307.99568,133.155008 307.988619,133.754359 C307.986127,133.974496 307.988203,134.195463 307.988203,134.409369 L308.00191,134.605414 C306.377471,134.359942 305.126848,132.95647 305.126848,131.261836 L305.126848,130.697789 C305.126848,128.851553 306.610483,127.347981 308.446336,127.315168 C312.056985,127.317245 315.180011,127.312261 318.825135,127.312261 L318.948909,127.312261 C318.950571,127.312261 318.952232,127.269064 318.952232,127.251204 C318.952232,126.592872 318.953478,125.937448 318.950986,125.279116 C318.950577,125.185986 318.940556,125.093148 318.921081,125.002077 C318.781523,124.356621 318.24572,123.925071 317.579081,123.920917 C317.396741,123.919671 317.213987,123.920917 317.031232,123.920917 C317.783839,123.600371 318.272082,122.861139 318.271471,122.043114 C318.273133,120.917096 317.364759,120.001662 316.243726,120.000416 C315.125185,119.998755 314.211412,120.914604 314.209335,122.03896 C314.207439,122.858239 314.696586,123.598915 315.450821,123.91884 C315.254775,123.918425 315.059144,123.91884 314.863098,123.923409 C314.230518,123.937946 313.707176,124.357867 313.571356,124.973833 C313.528575,125.168632 313.538958,125.346403 313.530236,125.547848 C313.524836,125.6737 313.52899,125.901727 313.52899,125.901727 L313.412276,125.901727 C313.412276,125.619704 313.413938,125.497175 313.411861,125.283269 C313.404385,124.482887 312.817078,123.908872 312.022095,123.906795 C311.852217,123.90638 311.682338,123.908872 311.512875,123.908872 C312.253131,123.583482 312.731086,122.851314 312.7311,122.042698 C312.731515,120.917512 311.82065,120.001247 310.701278,120 C309.58066,119.99917 308.672287,120.911281 308.669795,122.03896 C308.6667,122.8542 309.150774,123.592491 309.89965,123.914687 C309.726033,123.915933 309.552416,123.915517 309.378384,123.916764 C309.218889,123.91801 309.051918,123.945838 308.901146,123.997342 C308.343329,124.187157 307.995264,124.691394 307.988203,125.290746 C307.985711,125.510882 307.987788,125.731849 307.987788,125.945755 L308.006479,126.213241 C305.756521,126.463282 304,128.378467 304,130.697789 L304,131.261836 C304,133.56039 305.725369,135.459792 307.946253,135.737247 L307.943761,135.775459 L307.943761,135.778366 C311.886691,135.780859 315.057067,135.775459 318.82555,135.775459 L318.949325,135.775459 C318.950986,135.775459 318.952647,135.732262 318.952647,135.714402 C318.952647,135.056071 318.953894,134.400646 318.951401,133.741899 C318.950991,133.648907 318.940969,133.556206 318.921496,133.465275 L318.921496,133.465275 Z" id="路径备份-2"></path>
        </g>
    </g>
</svg>