<?xml version="1.0" encoding="UTF-8"?>
<svg width="15px" height="15px" viewBox="0 0 15 15" version="1.1" xmlns="http://www.w3.org/2000/svg" xmlns:xlink="http://www.w3.org/1999/xlink">
    <title>形状</title>
    <g id="页面-1" stroke="none" stroke-width="1" fill="none" fill-rule="evenodd">
        <g id="切图整合" transform="translate(-373.000000, -90.000000)" fill="#FFFFFF" fill-rule="nonzero">
            <path d="M387.809459,94.6188666 L384.25226,98.1760435 C383.998176,98.4301276 383.61705,98.4301276 383.362966,98.1760435 L379.823956,94.6188666 C379.569872,94.3647825 379.569872,93.9836564 379.823956,93.7295723 L383.381133,90.1905631 C383.635218,89.936479 384.016344,89.936479 384.270428,90.1905631 L387.809437,93.747718 C388.063521,93.9836564 388.063521,94.3829282 387.809437,94.6188666 L387.809459,94.6188666 Z M378.66241,104.981854 L373.63521,104.981854 C373.290376,104.981854 373,104.709624 373,104.346644 L373,99.3375236 C373,98.9927109 373.27223,98.7023134 373.63521,98.7023134 L378.662432,98.7023134 C379.007267,98.7023134 379.297643,98.9745652 379.297643,99.3375236 L379.297643,104.364768 C379.297643,104.709602 379.025413,104.981854 378.662432,104.981854 L378.66241,104.981854 Z M378.66241,97.4500828 L373.63521,97.4500828 C373.290376,97.4500828 373,97.177853 373,96.8148726 L373,91.8057961 C373,91.4609834 373.27223,91.1705859 373.63521,91.1705859 L378.662432,91.1705859 C379.007267,91.1705859 379.297643,91.4428157 379.297643,91.8057961 L379.297643,96.8330183 C379.297643,97.177853 379.025413,97.4500828 378.662432,97.4500828 L378.66241,97.4500828 Z M381.16696,98.7023574 L386.194182,98.7023574 C386.538995,98.7023574 386.829392,98.9745872 386.829392,99.3375676 L386.829392,104.36479 C386.829392,104.709624 386.557162,105 386.194182,105 L381.166982,105 C380.822147,105 380.531772,104.72777 380.531772,104.36479 L380.531772,99.3375676 C380.549917,98.9745872 380.822147,98.7023574 381.166982,98.7023574 L381.16696,98.7023574 Z" id="形状"></path>
        </g>
    </g>
</svg>