<?xml version="1.0" encoding="UTF-8"?>
<svg width="15px" height="15px" viewBox="0 0 15 15" version="1.1" xmlns="http://www.w3.org/2000/svg" xmlns:xlink="http://www.w3.org/1999/xlink">
    <title>形状备份 10</title>
    <g id="页面-1" stroke="none" stroke-width="1" fill="none" fill-rule="evenodd">
        <g id="切图整合" transform="translate(-373.000000, -120.000000)" fill="#56E9FF" fill-rule="nonzero">
            <path d="M387.809459,124.618867 L384.25226,128.176044 C383.998176,128.430128 383.61705,128.430128 383.362966,128.176044 L379.823956,124.618867 C379.569872,124.364782 379.569872,123.983656 379.823956,123.729572 L383.381133,120.190563 C383.635218,119.936479 384.016344,119.936479 384.270428,120.190563 L387.809437,123.747718 C388.063521,123.983656 388.063521,124.382928 387.809437,124.618867 L387.809459,124.618867 Z M378.66241,134.981854 L373.63521,134.981854 C373.290376,134.981854 373,134.709624 373,134.346644 L373,129.337524 C373,128.992711 373.27223,128.702313 373.63521,128.702313 L378.662432,128.702313 C379.007267,128.702313 379.297643,128.974565 379.297643,129.337524 L379.297643,134.364768 C379.297643,134.709602 379.025413,134.981854 378.662432,134.981854 L378.66241,134.981854 Z M378.66241,127.450083 L373.63521,127.450083 C373.290376,127.450083 373,127.177853 373,126.814873 L373,121.805796 C373,121.460983 373.27223,121.170586 373.63521,121.170586 L378.662432,121.170586 C379.007267,121.170586 379.297643,121.442816 379.297643,121.805796 L379.297643,126.833018 C379.297643,127.177853 379.025413,127.450083 378.662432,127.450083 L378.66241,127.450083 Z M381.16696,128.702357 L386.194182,128.702357 C386.538995,128.702357 386.829392,128.974587 386.829392,129.337568 L386.829392,134.36479 C386.829392,134.709624 386.557162,135 386.194182,135 L381.166982,135 C380.822147,135 380.531772,134.72777 380.531772,134.36479 L380.531772,129.337568 C380.549917,128.974587 380.822147,128.702357 381.166982,128.702357 L381.16696,128.702357 Z" id="形状备份-10"></path>
        </g>
    </g>
</svg>