<?xml version="1.0" encoding="UTF-8"?>
<svg width="17px" height="18px" viewBox="0 0 17 18" version="1.1" xmlns="http://www.w3.org/2000/svg" xmlns:xlink="http://www.w3.org/1999/xlink">
    <title>形状</title>
    <g id="页面-1" stroke="none" stroke-width="1" fill="none" fill-rule="evenodd">
        <g id="通讯录-修改" transform="translate(-1132.000000, -327.000000)" fill="#D1D1D1" fill-rule="nonzero" stroke="#D1D1D1" stroke-width="0.1">
            <g id="弹窗" transform="translate(551.000000, 143.000000)">
                <g id="编组-6备份-2" transform="translate(470.000000, 68.000000)">
                    <g id="编组-2备份-7" transform="translate(21.000000, 104.000000)">
                        <path d="M105.411496,26.0572864 C105.034505,25.1567839 104.491958,24.3487437 103.8038,23.6552764 C103.115643,22.961809 102.313789,22.4170854 101.420182,22.0351759 C101.412203,22.0311558 101.404225,22.0291457 101.396246,22.0251256 C102.638919,21.120603 103.446756,19.6472362 103.446756,17.9849246 C103.446756,15.2311558 101.232684,13 98.5,13 C95.7673162,13 93.5532439,15.2311558 93.5532439,17.9849246 C93.5532439,19.6472362 94.3610811,21.120603 95.6037541,22.0271357 C95.5957755,22.0311558 95.5877968,22.0331658 95.5798182,22.0371859 C94.6862107,22.4170854 93.8843575,22.961809 93.1961999,23.6572864 C92.5080423,24.3507538 91.9674895,25.158794 91.5885041,26.0592965 C91.2174974,26.9396985 91.0200261,27.8743719 91.000039,28.8351759 C90.9980849,28.9256281 91.0698926,29 91.1596523,29 L92.3564481,29 C92.4442132,29 92.5140262,28.9296482 92.5160209,28.8432161 C92.5559141,27.2914573 93.1742586,25.838191 94.2673321,24.7366834 C95.3983042,23.5969849 96.9002829,22.9698492 98.5,22.9698492 C100.099717,22.9698492 101.601696,23.5969849 102.732668,24.7366834 C103.825741,25.838191 104.444086,27.2914573 104.483979,28.8432161 C104.485974,28.9316583 104.555787,29 104.643552,29 L105.840348,29 C105.930107,29 106.001915,28.9256281 105.999961,28.8351759 C105.979974,27.8743719 105.782503,26.9396985 105.411496,26.0572864 Z M98.5,21.4422111 C97.5844512,21.4422111 96.7227582,21.0824121 96.0744938,20.4291457 C95.4262294,19.7758794 95.0691853,18.9075377 95.0691853,17.9849246 C95.0691853,17.0623116 95.4262294,16.1939698 96.0744938,15.5407035 C96.7227582,14.8874372 97.5844512,14.5276382 98.5,14.5276382 C99.4155488,14.5276382 100.277242,14.8874372 100.925506,15.5407035 C101.573771,16.1939698 101.930815,17.0623116 101.930815,17.9849246 C101.930815,18.9075377 101.573771,19.7758794 100.925506,20.4291457 C100.277242,21.0824121 99.4155488,21.4422111 98.5,21.4422111 Z" id="形状"></path>
                    </g>
                </g>
            </g>
        </g>
    </g>
</svg>