<?xml version="1.0" encoding="UTF-8"?>
<svg width="14px" height="14px" viewBox="0 0 14 14" version="1.1" xmlns="http://www.w3.org/2000/svg" xmlns:xlink="http://www.w3.org/1999/xlink">
    <title>岗位</title>
    <g id="页面-1" stroke="none" stroke-width="1" fill="none" fill-rule="evenodd">
        <g id="点击联系人详情" transform="translate(-1436.000000, -301.000000)" fill="#D1D1D1" fill-rule="nonzero">
            <g id="编组-4" transform="translate(1319.000000, 142.000000)">
                <g id="编组-6" transform="translate(116.000000, 63.000000)">
                    <path d="M13.9644737,99.295216 L13.9969179,99.3192488 L13.9969179,99.3192488 C14.0156729,99.334204 14.0335282,99.3502537 14.0503908,99.3673143 C14.0515924,99.3703184 14.0545965,99.3733224 14.0563989,99.3757257 C14.069617,99.3877421 14.0804318,99.4009601 14.0912464,99.4147789 L14.1014603,99.4291986 C14.1116742,99.441215 14.1200857,99.454433 14.1284972,99.4670502 C14.1327029,99.4760625 14.1381103,99.4838732 14.1429168,99.4922846 L14.1429168,99.4922846 C14.1924118,99.5820669 14.2182562,99.6829636 14.2180208,99.785484 L14.2180208,106.394491 L14.2180208,106.394464 C14.2180208,106.621974 14.0893013,106.829905 13.885791,106.93161 L7.8776076,109.935702 L7.86859532,109.940509 L7.86859534,109.940509 C7.85480703,109.947041 7.8407782,109.953054 7.82653851,109.958533 L7.87760805,109.935702 L7.87760811,109.935702 C7.79406418,109.977067 7.70226134,109.999043 7.60904189,110 L7.60904191,110 C7.51566234,110.000386 7.42355492,109.978338 7.34047569,109.935702 L7.3921461,109.959134 L7.39214614,109.959134 C7.37769465,109.953471 7.36346495,109.947258 7.34948802,109.940509 L7.34047574,109.935702 L1.3322923,106.93161 L1.33229224,106.93161 C1.12877081,106.829923 1.00014573,106.622002 1.00000728,106.394491 L1.00000728,99.7854832 L1.00000728,99.7854839 C0.999491151,99.6808308 1.02642233,99.5778703 1.0781209,99.4868772 L1.08953646,99.4688526 L1.08953648,99.4688526 C1.09615492,99.457268 1.10337461,99.4460374 1.11116598,99.4352068 L1.12979142,99.4111741 L1.12979141,99.4111741 C1.13740194,99.4006826 1.14562756,99.3906514 1.15442496,99.3811332 L1.17244954,99.3637095 L1.17244954,99.3637095 C1.18226391,99.3530903 1.19269607,99.3430593 1.20369191,99.3336688 L1.23373283,99.3096361 L1.23373275,99.3096362 C1.25855386,99.2908245 1.28465205,99.2737602 1.31183888,99.2585668 L1.31724626,99.2555627 L7.26535716,96.0712252 L7.26535707,96.0712252 C7.44100378,95.9771162 7.65188149,95.976216 7.8283238,96.0688219 L13.8965939,99.2531594 C13.9206267,99.2663774 13.9404536,99.2783938 13.959079,99.2916117 L13.9650872,99.2952166 L13.9644737,99.295216 Z M2.20164784,100.757615 L2.20164784,106.023186 L7.0081974,108.426467 L7.0081974,103.160897 L2.20164784,100.757615 Z M13.0163808,100.757615 L8.20983128,103.160897 L8.20983128,108.426467 L13.0163808,106.023186 L13.0163808,100.757615 Z M7.55193416,97.2806736 L2.90821131,99.7668685 L7.60902138,102.117274 L12.2996081,99.7722759 L7.55193416,97.2806736 Z" id="岗位"></path>
                </g>
            </g>
        </g>
    </g>
</svg>