<?xml version="1.0" encoding="UTF-8"?>
<svg width="13px" height="16px" viewBox="0 0 13 16" version="1.1" xmlns="http://www.w3.org/2000/svg" xmlns:xlink="http://www.w3.org/1999/xlink">
    <title>职称</title>
    <g id="页面-1" stroke="none" stroke-width="1" fill="none" fill-rule="evenodd">
        <g id="点击联系人详情" transform="translate(-1435.000000, -269.000000)" fill="#D1D1D1" fill-rule="nonzero" stroke="#D1D1D1" stroke-width="0.2">
            <g id="编组-4" transform="translate(1319.000000, 142.000000)">
                <g id="编组-6" transform="translate(116.000000, 63.000000)">
                    <path d="M7.27928699,65 C7.33373663,65 7.38678253,65.0061957 7.43775401,65.0179181 C7.54993206,65.0205328 7.65740084,65.0644808 7.74033868,65.1416564 L7.74929144,65.1501775 L12.4151315,69.7135404 C12.4343938,69.7323656 12.4520511,69.7528316 12.4679122,69.7747167 C12.5910517,69.9062753 12.6666667,70.0846121 12.6666667,70.2809465 L12.6666667,76.9842867 C12.6666667,78.0975336 11.7827139,79 10.6923017,79 L2.97436497,79 C1.88395276,79 1,78.0975336 1,76.9842867 L1,67.0157133 C1,65.9024664 1.88395276,65 2.97436497,65 L7.27928699,65 Z M7.06389037,65.952876 L2.97438057,65.952876 C2.40517825,65.952876 1.94267602,66.419256 1.9334893,66.9981297 L1.93334893,67.0157133 L1.93334893,76.9842867 C1.93334893,77.5654061 2.3901582,78.0375995 2.95714572,78.0469807 L2.97438057,78.047124 L10.6923173,78.047124 C11.2615196,78.047124 11.7240218,77.580744 11.7332086,77.0018703 L11.7333489,76.9842867 L11.7333489,70.5008214 L8.53571524,70.5008532 C7.73099599,70.5008532 7.07711676,69.8414835 7.06412433,69.0230808 L7.06392157,68.9982344 L7.06392157,65.952876 L7.06389037,65.952876 Z M9.36966355,75.2434585 C9.62739082,75.2426644 9.8369541,75.4553242 9.83773611,75.7184573 C9.83849822,75.9778316 9.63610963,76.1894243 9.38348262,76.1961615 L9.37247103,76.1963208 L3.41350267,76.2146552 C3.1557598,76.2154494 2.94621212,76.0027895 2.94543002,75.7396564 C2.94465241,75.4802821 3.147041,75.2686894 3.399668,75.2619522 L3.41067959,75.2617929 L9.36966355,75.2434585 Z M6.62197638,71.8717224 C6.87970365,71.8717224 7.08864305,72.0850353 7.08864305,72.3481684 C7.08864305,72.6075427 6.88563057,72.8184983 6.63298797,72.824471 L6.62197638,72.8246143 L3.40512701,72.8246143 C3.14739973,72.8246143 2.93846034,72.6113015 2.93846034,72.3481684 C2.93846034,72.0887941 3.14147282,71.8778385 3.39411542,71.8718658 L3.40512701,71.8717224 L6.62199198,71.8717224 L6.62197638,71.8717224 Z M10.8966399,69.5479613 L7.99722371,66.7122366 L7.99722371,68.9982344 C7.99722371,69.3018385 8.23830882,69.5479613 8.53569964,69.5479613 L10.8966399,69.5479613 L10.8966399,69.5479613 Z" id="职称"></path>
                </g>
            </g>
        </g>
    </g>
</svg>