<?xml version="1.0" encoding="UTF-8"?>
<svg width="13px" height="14px" viewBox="0 0 13 14" version="1.1" xmlns="http://www.w3.org/2000/svg" xmlns:xlink="http://www.w3.org/1999/xlink">
    <title>单位</title>
    <g id="页面-1" stroke="none" stroke-width="1" fill="none" fill-rule="evenodd">
        <g id="点击联系人详情" transform="translate(-1436.000000, -237.000000)" fill="#D1D1D1" fill-rule="nonzero">
            <g id="编组-4" transform="translate(1319.000000, 142.000000)">
                <g id="编组-6" transform="translate(116.000000, 63.000000)">
                    <path d="M10.1123018,33.9083725 L12.5658362,33.9083725 L12.5658362,33.9083725 C13.1465299,33.9083725 13.6172758,34.3791185 13.6172758,34.9598122 L13.6172758,44.7728984 L13.6172758,44.7728984 C13.6172758,45.353592 13.1465299,45.824338 12.5658362,45.824338 L2.05143974,45.824338 L2.05143969,45.824338 C1.470746,45.824338 1,45.353592 1,44.7728984 C1,44.7728984 1,44.7728984 1,44.7728984 L1,34.2500904 L1,34.2497769 C1,33.7373266 1.36943153,33.2995153 1.87458092,33.2133186 L8.88400331,32.0152031 L8.88400319,32.0152032 C9.45639379,31.9173562 9.99973015,32.3020507 10.0975765,32.8744413 C10.1075987,32.93307 10.112628,32.9924434 10.1126103,33.0519226 L10.1126103,33.9083202 L10.1123018,33.9083725 Z M10.1123018,35.3099416 L10.1123018,44.422769 L12.2151811,44.422769 L12.2151811,35.3099416 L10.1123018,35.3099416 Z M2.4020949,34.609157 L2.4020949,44.422769 L8.71073277,44.422769 L8.71073277,33.5561402 L2.4020949,34.609157 Z M5.90654324,37.763476 L7.308638,37.763476 L7.308638,40.5671398 L5.90654324,40.5671398 L5.90654324,37.763476 Z" id="单位"></path>
                </g>
            </g>
        </g>
    </g>
</svg>