<?xml version="1.0" encoding="UTF-8"?>
<svg width="24px" height="28px" viewBox="0 0 24 28" version="1.1" xmlns="http://www.w3.org/2000/svg" xmlns:xlink="http://www.w3.org/1999/xlink">
    <title>路径</title>
    <g id="页面-1" stroke="none" stroke-width="1" fill="none" fill-rule="evenodd">
        <g id="2.查看通知公告内容" transform="translate(-36.000000, -1509.000000)" fill="#666666">
            <g id="编组-9" transform="translate(36.000000, 1502.000000)">
                <path d="M21.4899314,9.50828292 C18.1455542,6.16390569 12.6994027,6.16390569 9.35857578,9.50828292 L0.0923076518,18.7674505 C0.0319526487,18.8278055 0,18.9094622 0,18.9946693 C0,19.0798764 0.0319526487,19.1615331 0.0923076518,19.2218881 L1.40236625,20.5319467 C1.52662655,20.656207 1.72899332,20.656207 1.85325363,20.5319467 L11.1195218,11.2727792 C12.2698171,10.1224838 13.7999939,9.49053145 15.4260287,9.49053145 C17.0520635,9.49053145 18.5822404,10.1224838 19.7289854,11.2727792 C20.8792808,12.4230745 21.5112332,13.9532514 21.5112332,15.5757359 C21.5112332,17.2017707 20.8792808,18.7283972 19.7289854,19.8786926 L10.2852026,29.3189251 L8.75502575,30.849102 C7.32425714,32.2798706 4.99881438,32.2798706 3.56804577,30.849102 C2.87573838,30.1567946 2.49585689,29.2372684 2.49585689,28.2573871 C2.49585689,27.2775059 2.87573838,26.3579797 3.56804577,25.6656723 L12.9372724,16.2999959 C13.1751422,16.0656765 13.487568,15.9343156 13.8212957,15.9343156 L13.824846,15.9343156 C14.1585737,15.9343156 14.4674493,16.0656765 14.7017687,16.2999959 C14.9396384,16.5378656 15.067449,16.8502915 15.067449,17.1840192 C15.067449,17.5141966 14.9360881,17.8266225 14.7017687,18.0609419 L7.04378389,25.7118261 C6.98342889,25.7721811 6.95147624,25.8538379 6.95147624,25.9390449 C6.95147624,26.024252 6.98342889,26.1059088 7.04378389,26.1662638 L8.35384249,27.4763224 C8.47810279,27.6005827 8.68046957,27.6005827 8.80472987,27.4763224 L16.4591644,19.8218879 C17.1656729,19.1153793 17.552655,18.1781016 17.552655,17.1804689 C17.552655,16.1828362 17.1621227,15.2420082 16.4591644,14.5390499 C15,13.079879 12.6283968,13.0834293 11.1692259,14.5390499 L10.2603505,15.4514756 L1.8035495,23.9047263 C0.639052974,25.0692228 0,26.6136009 0,28.2609374 C0,29.9047237 0.642603268,31.4491017 1.8035495,32.6100479 C3.00709927,33.8100474 4.58342994,34.4100472 6.15976061,34.4100472 C7.73609128,34.4100472 9.31242195,33.8100474 10.5124214,32.6100479 L21.4899314,21.6396385 C23.1053153,20.0207043 24,17.8656757 24,15.5757359 C24.0035398,13.2822458 23.1088656,11.1272171 21.4899314,9.50828292 Z" id="路径"></path>
            </g>
        </g>
    </g>
</svg>