<?xml version="1.0" encoding="UTF-8"?>
<svg width="81px" height="68px" viewBox="0 0 81 68" version="1.1" xmlns="http://www.w3.org/2000/svg" xmlns:xlink="http://www.w3.org/1999/xlink">
    <title>Fill 1</title>
    <g id="页面-1" stroke="none" stroke-width="1" fill="none" fill-rule="evenodd">
        <g id="2.通知公告记录备份" transform="translate(-568.000000, -991.000000)" fill="#FFFFFF">
            <g id="编组-3" transform="translate(20.000000, 934.000000)">
                <path d="M606.218681,82.1949302 C609.008985,82.1949302 611.269723,79.9460793 611.269723,77.174291 C611.269723,74.4025026 609.008985,72.1498065 606.218681,72.1498065 C603.428377,72.1498065 601.167639,74.4025026 601.167639,77.174291 C601.167639,79.94553 603.428377,82.1949302 606.218681,82.1949302 L606.218681,82.1949302 Z M623.937362,108.138013 L609.064206,92.9936992 C608.161899,92.1115168 606.748248,92.0208816 605.746544,92.7778227 L596.209921,101.04375 L575.253647,80.4190302 C574.804703,79.8812615 574.157515,79.5522283 573.457316,79.5066361 C572.760431,79.4835653 572.073484,79.7109772 571.561588,80.1883224 L553.062086,98.0939875 L553.062086,62.0360198 L623.937362,62.0360198 L623.937362,108.138013 Z M623.937362,119.96398 L553.062086,119.96398 L553.062086,105.12508 L573.378903,85.5385442 L594.32358,106.352225 C595.186128,107.393706 596.723474,107.260774 597.814083,106.44286 L607.059693,98.116509 L623.73415,115.140541 C623.79931,115.20481 623.867232,115.264134 623.937362,115.320163 L623.937362,119.96398 Z M623.937362,57 L553.062086,57 C550.280065,57 548,59.2647807 548,62.0360198 L548,119.96398 C548,122.731923 550.280065,125 553.062086,125 L623.937362,125 C626.719935,125 629,122.731923 629,119.96398 L629,62.0360198 C629,59.2647807 626.719935,57 623.937362,57 L623.937362,57 Z" id="Fill-1"></path>
            </g>
        </g>
    </g>
</svg>