<?xml version="1.0" encoding="UTF-8"?>
<svg width="216px" height="217px" viewBox="0 0 216 217" version="1.1" xmlns="http://www.w3.org/2000/svg" xmlns:xlink="http://www.w3.org/1999/xlink">
    <title>分组</title>
    <defs>
        <polygon id="path-1" points="5.19230769e-05 0.118125 215.881875 0.118125 215.881875 216 5.19230769e-05 216"></polygon>
    </defs>
    <g id="页面-1" stroke="none" stroke-width="1" fill="none" fill-rule="evenodd">
        <g id="3.链接失效" transform="translate(-267.000000, -572.000000)">
            <g id="分组" transform="translate(267.000000, 572.000000)">
                <g transform="translate(0.000000, 0.141490)">
                    <mask id="mask-2" fill="white">
                        <use xlink:href="#path-1"></use>
                    </mask>
                    <g id="Clip-2"></g>
                    <path d="M215.881927,108.059011 C215.881927,167.673193 167.555302,216.000078 107.941119,216.000078 C48.3269365,216.000078 5.19230769e-05,167.673193 5.19230769e-05,108.059011 C5.19230769e-05,48.4448279 48.3269365,0.117943269 107.941119,0.117943269 C167.555302,0.117943269 215.881927,48.4448279 215.881927,108.059011" id="Fill-1" fill="#CCD7EE" mask="url(#mask-2)"></path>
                </g>
                <path d="M103.530591,92.7086279 C103.530591,105.235589 93.375476,115.390705 80.8485144,115.390705 C68.3212933,115.390705 58.1661779,105.235589 58.1661779,92.7086279 C58.1661779,80.1816663 68.3212933,70.0262913 80.8485144,70.0262913 C93.375476,70.0262913 103.530591,80.1816663 103.530591,92.7086279" id="Fill-7" fill="#FFFFFF"></path>
                <path d="M157.715905,92.7086279 C157.715905,105.235589 147.560789,115.390705 135.033568,115.390705 C122.506607,115.390705 112.351491,105.235589 112.351491,92.7086279 C112.351491,80.1816663 122.506607,70.0262913 135.033568,70.0262913 C147.560789,70.0262913 157.715905,80.1816663 157.715905,92.7086279" id="Fill-9" fill="#FFFFFF"></path>
                <path d="M90.9293538,92.0784894 C90.9293538,97.2980567 86.6978827,101.529528 81.478575,101.529528 C76.2587481,101.529528 72.0275365,97.2980567 72.0275365,92.0784894 C72.0275365,86.8589221 76.2587481,82.6277106 81.478575,82.6277106 C86.6978827,82.6277106 90.9293538,86.8589221 90.9293538,92.0784894" id="Fill-11" fill="#253369"></path>
                <path d="M143.854364,92.0784894 C143.854364,97.2980567 139.623153,101.529528 134.403586,101.529528 C129.184018,101.529528 124.952547,97.2980567 124.952547,92.0784894 C124.952547,86.8589221 129.184018,82.6277106 134.403586,82.6277106 C139.623153,82.6277106 143.854364,86.8589221 143.854364,92.0784894" id="Fill-13" fill="#253369"></path>
                <path d="M143.00428,156.975614 C141.614299,156.975614 140.27702,156.206631 139.616039,154.87766 C134.282501,144.153208 121.849261,137.223554 107.940886,137.223554 C94.0327702,137.223554 81.5995298,144.153208 76.2657317,154.87766 C75.336049,156.74715 73.0670106,157.509121 71.1972606,156.579179 C69.3277702,155.649496 68.5660587,153.380198 69.4957413,151.510967 C76.0969817,138.23865 91.1873856,129.662515 107.940886,129.662515 C124.694645,129.662515 139.785049,138.23865 146.38603,151.510967 C147.315453,153.380198 146.554001,155.649496 144.68477,156.579179 C144.143991,156.84814 143.569722,156.975614 143.00428,156.975614" id="Fill-15" fill="#253369"></path>
            </g>
        </g>
    </g>
</svg>