<?xml version="1.0" encoding="UTF-8"?>
<svg width="17px" height="16px" viewBox="0 0 17 16" version="1.1" xmlns="http://www.w3.org/2000/svg" xmlns:xlink="http://www.w3.org/1999/xlink">
    <title>形状结合</title>
    <g id="PC端" stroke="none" stroke-width="1" fill="none" fill-rule="evenodd">
        <g id="切图" transform="translate(-164.000000, -54.000000)" fill="#0091FF" fill-rule="nonzero">
            <path d="M175.351071,54 C177.424286,54 178.579286,55.0992857 178.656429,57.1275 L178.660715,57.3482143 L178.660715,65.7857143 L178.655344,65.861771 C179.432608,66.0905511 180,66.809372 180,67.6607143 C180,68.6962482 179.160534,69.5357143 178.125,69.5357143 C177.089466,69.5357143 176.25,68.6962482 176.25,67.6607143 C176.25,66.809372 176.817392,66.0905511 177.594656,65.861771 L177.589286,65.7857143 L177.589286,57.3482143 C177.589286,55.7678571 176.903571,55.0714286 175.351071,55.0714286 C173.861786,55.0714286 173.143929,55.7164286 173.045357,57.1478571 L173.035714,57.3482143 L173.035714,66.7232143 C173.035714,68.8939286 171.860357,70.0714286 169.691786,70.0714286 C167.598214,70.0714286 166.428214,68.9742857 166.343571,66.9439286 L166.339285,66.7232143 L166.339285,58.2857143 L166.344656,58.2096576 C165.567392,57.9808775 165,57.2620566 165,56.4107143 C165,55.3751804 165.839466,54.5357143 166.875,54.5357143 C167.910534,54.5357143 168.75,55.3751804 168.75,56.4107143 C168.75,57.2620566 168.182608,57.9808775 167.405344,58.2096576 L167.410714,58.2857143 L167.410714,66.7221428 C167.415,68.3014286 168.114643,69 169.691786,69 C171.2025,69 171.904286,68.3592857 171.961071,66.9160714 L171.964286,66.7232143 L171.964286,57.3332143 C172.024286,55.17 173.210357,54 175.351071,54 Z" id="形状结合" transform="translate(172.500000, 62.035714) rotate(-90.000000) translate(-172.500000, -62.035714) "></path>
        </g>
    </g>
</svg>