<?xml version="1.0" encoding="UTF-8"?>
<svg width="16px" height="15px" viewBox="0 0 16 15" version="1.1" xmlns="http://www.w3.org/2000/svg" xmlns:xlink="http://www.w3.org/1999/xlink">
    <title>形状</title>
    <g id="PC端" stroke="none" stroke-width="1" fill="none" fill-rule="evenodd">
        <g id="切图" transform="translate(-201.000000, -55.000000)" fill="#0091FF" fill-rule="nonzero">
            <path d="M215.638556,65.3218948 L215.638556,58.991063 C216.575768,58.6499281 217.133375,57.6857622 216.961643,56.7032915 C216.789912,55.7208209 215.938298,55.0029801 214.940936,55 C214.016002,55 213.242611,55.6153161 212.983944,56.45664 L205.024026,56.45664 C204.762829,55.5925682 203.967108,55.0010821 203.064421,55 C202.088435,55 201.246456,55.6849902 201.048182,56.640624 C200.849909,57.5962579 201.349827,58.5597958 202.245306,58.9479517 L202.245306,65.3650062 C201.347012,65.7510943 200.844482,66.7160236 201.043114,67.6733855 C201.241746,68.6307473 202.086675,69.3161075 203.064421,69.3129578 C203.985377,69.3117515 204.792614,68.6968415 205.038397,67.8092873 L212.969573,67.8092873 C213.240039,68.8046674 214.207647,69.444341 215.229423,69.3032465 C216.251198,69.162152 217.009239,68.284188 216.999915,67.2527594 C216.999915,66.3604857 216.431543,65.6093036 215.638556,65.3218948 Z M203.225109,65.2108505 L203.225109,59.1047201 C204.151984,59.0347057 204.915904,58.3501262 205.086734,57.4364427 L212.923849,57.4364427 C213.085237,58.3047787 213.785009,58.9719051 214.660059,59.0916561 L214.660059,65.2213018 C213.802094,65.3390505 213.110194,65.98235 212.930381,66.8294846 L205.080202,66.8294846 C204.890422,65.9375401 204.134543,65.2780094 203.225109,65.2108505 Z" id="形状"></path>
        </g>
    </g>
</svg>