<?xml version="1.0" encoding="UTF-8"?>
<svg width="20px" height="16px" viewBox="0 0 20 16" version="1.1" xmlns="http://www.w3.org/2000/svg" xmlns:xlink="http://www.w3.org/1999/xlink">
    <title>音量</title>
    <g id="PC端" stroke="none" stroke-width="1" fill="none" fill-rule="evenodd">
        <g id="点标绘-视频暂停静音" transform="translate(-999.000000, -515.000000)" fill="#FFFFFF">
            <g id="win-copy-2" transform="translate(266.000000, 85.000000)">
                <g id="编组-11" transform="translate(225.000000, 415.000000)">
                    <g id="音量" transform="translate(508.000000, 15.000000)">
                        <path d="M14.5576923,4 C14.9719059,4 15.3076923,4.33578644 15.3076923,4.75 L15.307,6.692 L17.25,6.69230769 C17.6642136,6.69230769 18,7.02809413 18,7.44230769 L18,7.55769231 C18,7.97190587 17.6642136,8.30769231 17.25,8.30769231 L15.307,8.307 L15.3076923,10.25 C15.3076923,10.6642136 14.9719059,11 14.5576923,11 L14.4423077,11 C14.0280941,11 13.6923077,10.6642136 13.6923077,10.25 L13.692,8.307 L11.75,8.30769231 C11.3357864,8.30769231 11,7.97190587 11,7.55769231 L11,7.44230769 C11,7.02809413 11.3357864,6.69230769 11.75,6.69230769 L13.692,6.692 L13.6923077,4.75 C13.6923077,4.33578644 14.0280941,4 14.4423077,4 L14.5576923,4 Z" id="形状结合" transform="translate(14.500000, 7.500000) rotate(-315.000000) translate(-14.500000, -7.500000) "></path>
                        <path d="M6.84163812,0.497783124 L3.42068647,3.9979445 L1.33575866,3.9979445 C0.443833,3.9979445 0.00500551072,4.47814204 0.00500551072,5.32894627 L0.00500551072,9.76437572 C0.00500551072,10.6012905 0.457689314,11.0955764 1.33575866,11.0955764 L3.42070304,11.0955764 L6.84163812,14.5953234 C7.824558,15.5184258 9.3203604,15.1116369 9.3203604,13.5790224 L9.3203604,1.51380235 C9.3203604,-0.0346242115 7.80592822,-0.405877306 6.84163812,0.497766549 L6.84163812,0.497783124 Z M7.98960726,12.8972122 C7.98960726,13.904795 7.54295658,13.3399181 7.08465401,12.8876321 C6.28586069,12.0992144 5.07898565,10.8252457 4.08698293,9.76437572 L2.22294399,9.76437572 C1.54847629,9.76437572 1.33580838,9.53818299 1.33580838,8.87724011 L1.33580838,6.21593271 C1.33580838,5.56896216 1.56236575,5.32894627 2.22294399,5.32894627 L4.10773425,5.32894627 C5.09459886,4.26240784 6.28975571,2.99079265 7.08808494,2.20953519 C7.54121626,1.76618285 7.98960726,1.18852703 7.98960726,2.23749644 C7.98960726,4.40476656 7.98960726,10.7737486 7.98960726,12.8972619 L7.98960726,12.8972122 Z" id="形状" fill-rule="nonzero"></path>
                    </g>
                </g>
            </g>
        </g>
    </g>
</svg>