<?xml version="1.0" encoding="UTF-8"?>
<svg width="49px" height="60px" viewBox="0 0 49 60" version="1.1" xmlns="http://www.w3.org/2000/svg" xmlns:xlink="http://www.w3.org/1999/xlink">
    <title>文件类型-标准图-幻灯片</title>
    <g id="PC端" stroke="none" stroke-width="1" fill="none" fill-rule="evenodd">
        <g id="点标绘-附件" transform="translate(-529.000000, -190.000000)" fill-rule="nonzero">
            <g id="编组-13" transform="translate(508.000000, 190.000000)">
                <g id="文件类型-标准图-幻灯片" transform="translate(21.000000, 0.000000)">
                    <path d="M3.75,0 L33.75,0 L48.75,15 L48.75,56.25 C48.75,58.321125 47.071125,60 45,60 L3.75,60 C1.678875,60 0,58.321125 0,56.25 L0,3.75 C0,1.678875 1.678875,0 3.75,0 Z" id="路径" fill="#FF9333"></path>
                    <path d="M19.447125,45 L19.447125,35.79825 L26.0025,35.79825 C31.14675,35.79825 33.75,33.561 33.75,29.117625 C33.75,24.70575 31.177875,22.5 26.034,22.5 L16.875,22.5 L16.875,45 L19.447125,45 Z M25.87725,33.561 L19.447125,33.561 L19.447125,24.73725 L25.87725,24.73725 C27.664875,24.73725 28.98225,25.084125 29.8605,25.8405 C30.73875,26.502 31.177875,27.604875 31.177875,29.118 C31.177875,30.630375 30.739125,31.73325 29.891625,32.458125 C29.01375,33.182625 27.696375,33.560625 25.87725,33.560625 L25.87725,33.561 Z" id="形状" fill="#FFFFFF"></path>
                    <path d="M33.75,0 L48.75,15 L37.5,15 C35.428875,15 33.75,13.321125 33.75,11.25 L33.75,0 Z" id="路径" fill="#FFD3AD"></path>
                </g>
            </g>
        </g>
    </g>
</svg>