<?xml version="1.0" encoding="UTF-8"?>
<svg width="13px" height="15px" viewBox="0 0 13 15" version="1.1" xmlns="http://www.w3.org/2000/svg" xmlns:xlink="http://www.w3.org/1999/xlink">
    <title>形状结合</title>
    <g id="PC端" stroke="none" stroke-width="1" fill="none" fill-rule="evenodd">
        <g id="点标绘-视频" transform="translate(-509.000000, -515.000000)" fill="#FFFFFF">
            <g id="win-copy-2" transform="translate(266.000000, 85.000000)">
                <g id="编组-18" transform="translate(225.000000, 415.000000)">
                    <path d="M20.7142857,15 C21.2665705,15 21.7142857,15.4477153 21.7142857,16 L21.7142857,28.8571429 C21.7142857,29.4094276 21.2665705,29.8571429 20.7142857,29.8571429 L19,29.8571429 C18.4477153,29.8571429 18,29.4094276 18,28.8571429 L18,16 C18,15.4477153 18.4477153,15 19,15 L20.7142857,15 Z M30,15 C30.5522847,15 31,15.4477153 31,16 L31,28.8571429 C31,29.4094276 30.5522847,29.8571429 30,29.8571429 L28.2857143,29.8571429 C27.7334295,29.8571429 27.2857143,29.4094276 27.2857143,28.8571429 L27.2857143,16 C27.2857143,15.4477153 27.7334295,15 28.2857143,15 L30,15 Z" id="形状结合"></path>
                </g>
            </g>
        </g>
    </g>
</svg>