<?xml version="1.0" encoding="UTF-8"?>
<svg width="17px" height="16px" viewBox="0 0 17 16" version="1.1" xmlns="http://www.w3.org/2000/svg" xmlns:xlink="http://www.w3.org/1999/xlink">
    <title>音量</title>
    <g id="PC端" stroke="none" stroke-width="1" fill="none" fill-rule="evenodd">
        <g id="点标绘-视频" transform="translate(-999.000000, -515.000000)" fill="#FFFFFF" fill-rule="nonzero">
            <g id="win-copy-2" transform="translate(266.000000, 85.000000)">
                <g id="编组-18" transform="translate(225.000000, 415.000000)">
                    <g id="音量" transform="translate(508.000000, 15.000000)">
                        <path d="M11.7783977,4.16480038 C11.7161934,3.99902185 11.5909728,3.86443659 11.4315423,3.79164122 C11.301167,3.71836518 11.1467254,3.68664152 10.9881734,3.71161935 C10.6108374,3.77107222 10.3536006,4.12835297 10.4136833,4.50961709 C10.4477108,4.72551703 10.5762464,4.90269885 10.7497818,5.00507978 C11.4157467,5.71780152 11.8256682,6.67231264 11.8256682,7.72494502 C11.8256682,8.87674287 11.3345315,9.91145818 10.553589,10.6400252 C10.4088104,10.7649309 10.3170703,10.9495713 10.3170703,11.1557917 C10.3170703,11.531984 10.6220087,11.8368892 10.9981844,11.8368892 C11.1907474,11.8368892 11.3645148,11.7568508 11.4884095,11.6283815 C11.6205915,11.551658 11.7237845,11.4301666 11.7783645,11.2843935 C12.6318207,10.3417829 13.1563219,9.09676987 13.1563219,7.72491187 C13.1562888,6.35275553 12.6317544,5.10799109 11.7783314,4.16471751 L11.7783977,4.16480038 Z" id="路径"></path>
                        <path d="M14.161402,1.68021072 C14.0481316,1.44955944 13.8109665,1.29072563 13.5366247,1.29072563 C13.1523938,1.29072563 12.8408587,1.60222752 12.8408587,1.9865082 C12.8408587,2.23872296 12.9750628,2.45959526 13.1759959,2.58160044 C14.3550589,3.81537596 15.0830292,5.48357014 15.0830292,7.3248688 C15.0830292,9.38659226 14.1707169,11.2316202 12.7325773,12.4908708 L12.7352458,12.4939868 C12.5095669,12.6059644 12.3543795,12.8386378 12.3543795,13.1076591 C12.3543795,13.4858403 12.6609753,13.7924527 13.0391731,13.7924527 C13.2638244,13.7924527 13.4631829,13.6842707 13.5880555,13.5171828 C13.5940887,13.5100226 13.6001052,13.5028292 13.6058732,13.495437 L13.6076135,13.4971773 C15.3265423,11.9926899 16.4177105,9.78864085 16.4177105,7.32488538 C16.4177105,5.13639985 15.5574256,3.15138336 14.1613688,1.68021072 L14.161402,1.68021072 Z" id="路径"></path>
                        <path d="M6.84163812,0.497783124 L3.42068647,3.9979445 L1.33575866,3.9979445 C0.443833,3.9979445 0.00500551072,4.47814204 0.00500551072,5.32894627 L0.00500551072,9.76437572 C0.00500551072,10.6012905 0.457689314,11.0955764 1.33575866,11.0955764 L3.42070304,11.0955764 L6.84163812,14.5953234 C7.824558,15.5184258 9.3203604,15.1116369 9.3203604,13.5790224 L9.3203604,1.51380235 C9.3203604,-0.0346242115 7.80592822,-0.405877306 6.84163812,0.497766549 L6.84163812,0.497783124 Z M7.98960726,12.8972122 C7.98960726,13.904795 7.54295658,13.3399181 7.08465401,12.8876321 C6.28586069,12.0992144 5.07898565,10.8252457 4.08698293,9.76437572 L2.22294399,9.76437572 C1.54847629,9.76437572 1.33580838,9.53818299 1.33580838,8.87724011 L1.33580838,6.21593271 C1.33580838,5.56896216 1.56236575,5.32894627 2.22294399,5.32894627 L4.10773425,5.32894627 C5.09459886,4.26240784 6.28975571,2.99079265 7.08808494,2.20953519 C7.54121626,1.76618285 7.98960726,1.18852703 7.98960726,2.23749644 C7.98960726,4.40476656 7.98960726,10.7737486 7.98960726,12.8972619 L7.98960726,12.8972122 Z" id="形状"></path>
                    </g>
                </g>
            </g>
        </g>
    </g>
</svg>