<?xml version="1.0" encoding="UTF-8"?>
<svg width="14px" height="14px" viewBox="0 0 14 14" version="1.1" xmlns="http://www.w3.org/2000/svg" xmlns:xlink="http://www.w3.org/1999/xlink">
    <title>形状</title>
    <g id="页面-1" stroke="none" stroke-width="1" fill="none" fill-rule="evenodd">
        <g id="通讯录-设置应急岗位" transform="translate(-922.000000, -499.000000)" fill="#FFFFFF" fill-rule="nonzero">
            <g id="弹窗" transform="translate(540.000000, 153.000000)">
                <g id="编组-6备份" transform="translate(16.000000, 157.000000)">
                    <g id="编组" transform="translate(2.000000, 179.000000)">
                        <path d="M371,10 C367.134375,10 364,13.134375 364,17 C364,20.865625 367.134375,24 371,24 C374.865625,24 378,20.865625 378,17 C378,13.134375 374.865625,10 371,10 Z M373.584375,19.659375 L372.553125,19.6546875 L371,17.803125 L369.448438,19.653125 L368.415625,19.6578125 C368.346875,19.6578125 368.290625,19.603125 368.290625,19.5328125 C368.290625,19.503125 368.301562,19.475 368.320312,19.4515625 L370.353125,17.0296875 L368.320312,14.609375 C368.301562,14.5859375 368.290625,14.5578125 368.290625,14.528125 C368.290625,14.459375 368.346875,14.403125 368.415625,14.403125 L369.448438,14.4078125 L371,16.259375 L372.551562,14.409375 L373.582812,14.4046875 C373.651563,14.4046875 373.707812,14.459375 373.707812,14.5296875 C373.707812,14.559375 373.696875,14.5875 373.678125,14.6109375 L371.648438,17.03125 L373.679688,19.453125 C373.698438,19.4765625 373.709375,19.5046875 373.709375,19.534375 C373.709375,19.603125 373.653125,19.659375 373.584375,19.659375 Z" id="形状"></path>
                    </g>
                </g>
            </g>
        </g>
    </g>
</svg>