<?xml version="1.0" encoding="UTF-8"?>
<svg width="14px" height="14px" viewBox="0 0 14 14" version="1.1" xmlns="http://www.w3.org/2000/svg" xmlns:xlink="http://www.w3.org/1999/xlink">
    <title>形状</title>
    <g id="页面-1" stroke="none" stroke-width="1" fill="none" fill-rule="evenodd">
        <g id="路径分享" transform="translate(-1697.000000, -346.000000)" fill="#FFFFFF" fill-rule="nonzero">
            <g id="弹窗" transform="translate(580.000000, 131.000000)">
                <g id="右上" transform="translate(772.000000, 71.000000)">
                    <g id="编组" transform="translate(0.000000, 135.000000)">
                        <path d="M352,9 C348.134375,9 345,12.134375 345,16 C345,19.865625 348.134375,23 352,23 C355.865625,23 359,19.865625 359,16 C359,12.134375 355.865625,9 352,9 Z M354.584375,18.659375 L353.553125,18.6546875 L352,16.803125 L350.448438,18.653125 L349.415625,18.6578125 C349.346875,18.6578125 349.290625,18.603125 349.290625,18.5328125 C349.290625,18.503125 349.301562,18.475 349.320312,18.4515625 L351.353125,16.0296875 L349.320312,13.609375 C349.301562,13.5859375 349.290625,13.5578125 349.290625,13.528125 C349.290625,13.459375 349.346875,13.403125 349.415625,13.403125 L350.448438,13.4078125 L352,15.259375 L353.551562,13.409375 L354.582812,13.4046875 C354.651563,13.4046875 354.707812,13.459375 354.707812,13.5296875 C354.707812,13.559375 354.696875,13.5875 354.678125,13.6109375 L352.648438,16.03125 L354.679688,18.453125 C354.698438,18.4765625 354.709375,18.5046875 354.709375,18.534375 C354.709375,18.603125 354.653125,18.659375 354.584375,18.659375 Z" id="形状"></path>
                    </g>
                </g>
            </g>
        </g>
    </g>
</svg>