<?xml version="1.0" encoding="UTF-8"?>
<svg width="14px" height="14px" viewBox="0 0 14 14" version="1.1" xmlns="http://www.w3.org/2000/svg" xmlns:xlink="http://www.w3.org/1999/xlink">
    <title>形状</title>
    <g id="页面-1" stroke="none" stroke-width="1" fill="none" fill-rule="evenodd" opacity="0.600000024">
        <g id="路径分享" transform="translate(-620.000000, -275.000000)" fill="#FFFFFF" fill-rule="nonzero">
            <g id="弹窗" transform="translate(580.000000, 131.000000)">
                <g id="椭圆形-+-椭圆形备份-蒙版" transform="translate(20.000000, 71.000000)">
                    <g id="类型下拉框-纠纷" transform="translate(10.000000, 62.000000)">
                        <path d="M21.4777954,21.5932664 L23.8142251,23.930085 C23.9326422,24.0470584 23.999291,24.2065773 23.999291,24.3730266 C23.999291,24.539476 23.9326422,24.6989949 23.8142251,24.8159683 C23.6965573,24.9332133 23.5373911,24.9993113 23.3712835,24.9999116 C23.2051759,24.9993113 23.0460096,24.9332133 22.9283418,24.8159683 L20.5926899,22.4799275 C18.0178904,24.59894 14.2549391,24.4165143 11.8971893,22.0583746 C10.0448973,20.205773 9.49076146,17.4198987 10.4931112,14.9994828 C11.495461,12.5790669 13.8569606,11.0006242 16.4767159,11 C20.0536933,11 22.9532306,13.8999261 22.9532306,17.4776813 C22.9532306,19.0118383 22.4119006,20.4573291 21.4774066,21.5936553 L21.4777954,21.5932664 Z M16.4767159,12.2541587 C13.5935119,12.2588254 11.25786,14.5948662 11.2531934,17.4780702 C11.2531934,20.3628298 13.5919564,22.7019816 16.4767159,22.7019816 C19.3614755,22.7019816 21.6998496,20.3628298 21.6998496,17.4780702 C21.6998496,14.5929218 19.3614755,12.2541587 16.4767159,12.2541587 Z" id="形状"></path>
                    </g>
                </g>
            </g>
        </g>
    </g>
</svg>