<?xml version="1.0" encoding="UTF-8"?>
<svg width="28px" height="28px" viewBox="0 0 28 28" version="1.1" xmlns="http://www.w3.org/2000/svg" xmlns:xlink="http://www.w3.org/1999/xlink">
    <title>视频</title>
    <g id="事件信息、组织动态、辅助工具" stroke="none" stroke-width="1" fill="none" fill-rule="evenodd">
        <g id="雪碧图" transform="translate(-455.000000, -450.000000)" fill-rule="nonzero">
            <g id="编组-8" transform="translate(455.000000, 337.000000)">
                <g id="视频" transform="translate(0.000000, 113.000000)">
                    <circle id="Oval-9" stroke-opacity="0.5" stroke="#FFFFFF" stroke-width="2" fill="#006AC1" cx="14" cy="14" r="13"></circle>
                    <path d="M10.6567127,14.5474053 L10.6600904,14.5417407 L8.09698439,11.7836198 C7.71413868,11.3715711 7.69086028,10.7388867 8.04237834,10.2994799 L8.64417065,9.54721365 L18.7766865,19.9531864 L17.5944939,20.6799617 C17.2365523,20.9002723 16.7865581,20.9020189 16.4269381,20.6844935 L10.6567127,14.5474053 L10.6567127,14.5474053 Z M10.3606016,15.0526927 L11.9914643,16.7872102 L10.9426907,18.5738427 C10.7835579,18.845873 10.51861,19.0385338 10.2119831,19.1051874 C10.1320444,19.1238808 10.0487279,19.1335107 9.96315973,19.1335107 L8.2517953,19.1335107 L8.2517953,20.8668954 C8.25185689,21.271694 8.03727548,21.6457699 7.68889625,21.8481871 C7.34051701,22.0506043 6.91127832,22.0506043 6.56289908,21.8481871 C6.21451985,21.6457699 5.99993844,21.271694 6.00000001,20.8668954 L6.00000001,16.3351707 C5.99993844,15.9303721 6.21451985,15.5562962 6.56289908,15.353879 C6.91127832,15.1514618 7.34051701,15.1514618 7.68889625,15.353879 C8.03727548,15.5562962 8.25185689,15.9303721 8.2517953,16.3351707 L8.2517953,16.8954052 L9.27917692,16.8954052 L10.3600387,15.0526927 L10.3606016,15.0526927 Z M9.35123435,8.66296088 L11.9419248,5.42277774 C12.1414215,5.17325245 12.4365494,5.02034329 12.754283,5.00188554 C13.0720166,4.98342779 13.3826711,5.10114589 13.6093792,5.32591212 L23.6642081,15.2974058 C23.9110667,15.5420944 24.0322033,15.8875336 23.9926224,16.2339281 C23.9530415,16.5803226 23.7571525,16.8890827 23.4615465,17.0710095 L19.7573433,19.3493341 L9.35123435,8.66296088 L9.35123435,8.66296088 Z" id="形状备份-4" fill="#FFFFFF"></path>
                </g>
            </g>
        </g>
    </g>
</svg>