<?xml version="1.0" encoding="UTF-8"?>
<svg width="28px" height="28px" viewBox="0 0 28 28" version="1.1" xmlns="http://www.w3.org/2000/svg" xmlns:xlink="http://www.w3.org/1999/xlink">
    <title>物资</title>
    <g id="事件信息、组织动态、辅助工具" stroke="none" stroke-width="1" fill="none" fill-rule="evenodd">
        <g id="雪碧图" transform="translate(-455.000000, -394.000000)" fill-rule="nonzero">
            <g id="编组-8" transform="translate(455.000000, 337.000000)">
                <g id="物资" transform="translate(0.000000, 57.000000)">
                    <circle id="Oval-9" stroke-opacity="0.6" stroke="#FFFFFF" stroke-width="2" fill="#33C8DE" cx="14" cy="14" r="13"></circle>
                    <path d="M14.0066926,22.4360701 L14.0066926,13.6133752 C14.0056158,13.3827263 14.1448604,13.1746084 14.3583715,13.0878705 L22.247639,9.96858982 C22.4191379,9.90306244 22.6119293,9.92684355 22.7624047,10.032087 C22.9128801,10.1373304 23.0014896,10.3103627 22.999049,10.4940946 L22.999049,18.6032601 C23.0002964,18.8206982 22.8766217,19.0195229 22.6811153,19.1143014 L14.7966641,22.9471115 C14.6235627,23.0287533 14.4206227,23.0151763 14.259915,22.9112019 C14.0992072,22.8072275 14.003497,22.6275846 14.0066926,22.4360701 L14.0066926,22.4360701 Z M6.21383462,8.13655481 L13.765954,5.04137989 C13.8985227,4.98620435 14.0475959,4.98620435 14.1801646,5.04137989 L21.6648543,8.08352222 C21.880245,8.17010678 22.0213913,8.37909847 22.0213913,8.61143758 C22.0213913,8.84377668 21.880245,9.05276837 21.6648543,9.13935293 L13.3132121,12.2345279 C13.1804368,12.2886574 13.0317769,12.2886574 12.8990015,12.2345279 L6.19456902,9.17792209 C5.98993664,9.08328976 5.86051732,8.87654363 5.86459294,8.65094502 C5.8688646,8.42534642 6.00584229,8.22353842 6.21383462,8.13655481 Z M12.282502,22.865152 L5.28426892,18.8973499 C5.11164879,18.7976358 5.0038218,18.6146983 5.00010117,18.4152354 L5.00010117,10.5278426 C4.99654348,10.3399054 5.08835748,10.1629634 5.24400371,10.0577987 C5.39964993,9.95263409 5.59792767,9.9335714 5.77072558,10.007159 L12.7689586,13.0782282 C12.9751785,13.1687703 13.1077502,13.3735109 13.1061068,13.5989118 L13.1061068,22.3589318 C13.1141383,22.5594272 13.013319,22.7486199 12.8424935,22.853616 C12.671668,22.9586122 12.4574984,22.9630241 12.282502,22.865152 Z M6.75323657,14.2594086 C6.75393672,14.4559628 6.8559168,14.6382494 7.02299027,14.7415231 L10.177734,16.669981 C10.3498308,16.7729618 10.5640904,16.7748043 10.7379294,16.6747985 C10.9117683,16.5747927 11.0180418,16.3885544 11.0158232,16.1878665 C11.016057,15.9910679 10.9138392,15.8083564 10.7460695,15.7057521 L7.59132578,13.7772942 C7.41922899,13.6743134 7.2049694,13.6724708 7.03113042,13.7724767 C6.85729144,13.8724825 6.751018,14.0587208 6.75323657,14.2594086 Z" id="形状" fill="#FFFFFF"></path>
                </g>
            </g>
        </g>
    </g>
</svg>