<?xml version="1.0" encoding="UTF-8"?>
<svg width="28px" height="28px" viewBox="0 0 28 28" version="1.1" xmlns="http://www.w3.org/2000/svg" xmlns:xlink="http://www.w3.org/1999/xlink">
    <title>会场终端</title>
    <g id="事件信息、组织动态、辅助工具" stroke="none" stroke-width="1" fill="none" fill-rule="evenodd">
        <g id="雪碧图" transform="translate(-523.000000, -450.000000)" fill-rule="nonzero">
            <g id="编组-8" transform="translate(455.000000, 337.000000)">
                <g id="会场终端" transform="translate(68.000000, 113.000000)">
                    <circle id="Oval-9" stroke-opacity="0.5" stroke="#FFFFFF" stroke-width="2" fill="#8537D4" cx="14" cy="14" r="13"></circle>
                    <path d="M14.0004993,9.85832249 C13.1794304,9.85832249 12.4057308,10.1738957 11.8254562,10.7478443 C11.2432078,11.321793 10.9234646,12.0831133 10.9234646,12.8937419 C10.9234646,13.7043704 11.2432078,14.4656907 11.8254562,15.0396394 C12.4057308,15.6135881 13.1794304,15.9291612 14.0004993,15.9291612 C14.8215682,15.9291612 15.5952678,15.6135881 16.1755424,15.0396394 C16.7577908,14.4656907 17.077534,13.7043704 17.077534,12.8937419 C17.077534,12.0831133 16.7577908,11.321793 16.1755424,10.7478443 C15.593294,10.1719233 14.8195945,9.85832249 14.0004993,9.85832249 Z M15.836062,13.0791411 C15.7511919,13.9311886 15.0524938,14.6215049 14.188003,14.7043429 C13.0215325,14.8187382 12.0465132,13.8582124 12.1629629,12.7063703 C12.247833,11.8543228 12.946531,11.1640065 13.8110219,11.0811685 C14.9774924,10.9667732 15.9525117,11.927299 15.836062,13.0791411 L15.836062,13.0791411 Z M22,12.8937419 C22,8.0812511 17.6380714,4.27662214 12.6031032,5.11683569 C9.49054147,5.63555908 6.52798273,8.65125513 6.08389498,11.7359828 C5.5529634,15.4124102 7.59576706,18.6904264 10.6905653,20.082893 C9.32869615,20.4911658 8.07340811,21.1499248 6.98391282,22 L21.0151121,22 C19.923643,21.1499248 18.6703287,20.4911658 17.3084596,20.0809207 C20.0756197,18.8383514 22,16.0889202 22,12.8937419 Z M14.22353,17.1382009 C11.6675583,17.2664025 9.5694904,15.1934813 9.69778242,12.6728407 C9.80831092,10.5131368 11.5866357,8.75973341 13.7735211,8.6492828 C16.3294928,8.5210812 18.4275608,10.5940024 18.2992687,13.1146431 C18.1887402,15.2743469 16.4123892,17.0277503 14.22353,17.1382009 Z" id="形状备份-12" fill="#FFFFFF"></path>
                </g>
            </g>
        </g>
    </g>
</svg>