<?xml version="1.0" encoding="UTF-8"?>
<svg width="28px" height="28px" viewBox="0 0 28 28" version="1.1" xmlns="http://www.w3.org/2000/svg" xmlns:xlink="http://www.w3.org/1999/xlink">
    <title>应急队伍</title>
    <g id="事件信息、组织动态、辅助工具" stroke="none" stroke-width="1" fill="none" fill-rule="evenodd">
        <g id="雪碧图" transform="translate(-523.000000, -394.000000)" fill-rule="nonzero">
            <g id="编组-8" transform="translate(455.000000, 337.000000)">
                <g id="应急队伍" transform="translate(68.000000, 57.000000)">
                    <circle id="Oval-9" stroke-opacity="0.5" stroke="#FFFFFF" stroke-width="2" fill="#DC782B" cx="14" cy="14" r="13"></circle>
                    <path d="M9.61920501,10.4960594 C10.3678743,10.9767195 11.4074305,11.0990551 13.9576322,11.0774058 C16.5495579,11.0554199 17.4706817,11.1101602 18.2799408,10.5234071 C18.3093817,10.7213178 18.326267,10.9210473 18.3304859,11.1212877 C18.3649124,12.7123007 17.6066921,14.2078323 16.3280821,15.0709341 C16.2128266,15.1478348 16.1482899,15.2855618 16.1608205,15.4278852 C16.173351,15.5702085 16.2608517,15.6933103 16.3875987,15.7469317 C18.4144918,16.6215649 19.873562,18.5184953 20.256074,20.7762854 C20.3010987,21.0547902 20.2262065,21.3398668 20.0514251,21.55528 C19.8794602,21.767214 19.6278417,21.8905309 19.3619935,21.8932212 L19.3497382,21.8932212 L8.54689646,21.8932212 C8.27665814,21.8944775 8.0196948,21.7708625 7.84484461,21.5554819 C7.66995379,21.3400462 7.59500233,21.0548794 7.6400455,20.7762854 C8.0222785,18.5178671 9.48134873,16.6201739 11.5085208,15.7448005 C11.6342285,15.6911619 11.7210446,15.5689971 11.7338631,15.4277062 C11.7466817,15.2864152 11.6833823,15.1493703 11.5695613,15.0719885 C10.1149339,14.089692 9.36954842,12.322837 9.60742187,10.5767789 L9.61493389,10.5238783 L9.61918355,10.4960594 L9.61920501,10.4960594 Z M8.53307435,8.83924594 L8.57460508,8.84137722 L8.61963427,8.8447424 C7.83329756,11.0372928 8.34246223,13.5063714 9.9171317,15.1634541 L9.96516569,15.2134159 L9.96357744,15.2134159 C8.41238839,16.1753194 7.22630495,17.6681139 6.60495364,19.4389622 L6.58628091,19.4927219 L4.64251374,19.4927219 C4.45374144,19.4935865 4.27425834,19.4071775 4.15219351,19.2566591 C4.02998269,19.1059805 3.97754972,18.9066426 4.00888565,18.7118362 C4.27590573,17.1341718 5.29442823,15.8088287 6.70904876,15.198295 C6.79691012,15.1609671 6.85762646,15.0756698 6.86658654,14.9769782 C6.87562649,14.8782751 6.83144529,14.7824978 6.75193166,14.7284259 C5.58409169,13.9429476 5.06850962,12.4319138 5.49656593,11.0493177 C5.92035113,9.68054133 7.16359032,8.77808937 8.53305288,8.83926837 L8.53307435,8.83924594 Z M19.6525369,8.84137722 C20.9773137,8.91361645 22.1062629,9.8726932 22.4468578,11.215266 C22.7874742,12.5578613 22.2619119,13.9772052 21.1460337,14.7284035 C21.0661109,14.7821129 21.0214302,14.8778548 21.0301339,14.9767539 C21.0387678,15.0756399 21.0993703,15.161269 21.1873068,15.1988334 C22.6018201,15.8092773 23.6203211,17.1343737 23.8875129,18.7118586 C23.9183259,18.9064993 23.8655751,19.105447 23.7433036,19.2557393 C23.6235005,19.4030108 23.4485382,19.4888144 23.2636075,19.4910328 L23.2533482,19.4910328 L21.308465,19.4910328 C20.6917711,17.6956635 19.496244,16.1818927 17.9279919,15.2106115 C19.0552241,14.0590688 19.6748154,12.4688186 19.638586,10.8201713 C19.6250912,10.1447819 19.5008956,9.47681276 19.2713985,8.84530326 C19.3982443,8.83583588 19.5255194,8.83453468 19.6525369,8.84137722 L19.6525369,8.84137722 Z M13.9523094,5 C16.1670673,5 18.0010731,6.72207559 18.3369677,8.97405511 L18.7336023,8.97405511 C18.9231413,8.97717351 19.0752275,9.13867979 19.0752275,9.33682168 C19.0752275,9.53496358 18.9231413,9.69646986 18.7336023,9.69958826 L18.3919128,9.69958826 C18.3919128,9.70474821 18.3921274,9.70990815 18.3921274,9.71529244 C17.517943,10.5523253 16.7667411,10.4818808 13.9613238,10.5056614 C11.1559066,10.529442 10.2690591,10.3706055 9.51227679,9.71529244 C9.51227679,9.70990815 9.51249141,9.70474821 9.51249141,9.69958826 L9.17080185,9.69958826 C8.98124141,9.69646986 8.82915522,9.53496358 8.82915522,9.33682168 C8.82915522,9.13867979 8.98124141,8.97717351 9.17080185,8.97405511 L9.56700721,8.97405511 C9.90204327,6.72207559 11.7375515,5 13.9523094,5 Z M13.9587912,7.46779983 C13.3898094,7.46779983 12.9285714,7.94991818 12.9285714,8.54465794 C12.9285714,9.1393977 13.3898094,9.62151605 13.9587912,9.62151605 C14.527773,9.62151605 14.989011,9.1393977 14.989011,8.54465794 C14.989011,7.94991818 14.527773,7.46779983 13.9587912,7.46779983 Z" id="形状" fill="#FFFFFF"></path>
                </g>
            </g>
        </g>
    </g>
</svg>