<?xml version="1.0" encoding="UTF-8"?>
<svg width="28px" height="28px" viewBox="0 0 28 28" version="1.1" xmlns="http://www.w3.org/2000/svg" xmlns:xlink="http://www.w3.org/1999/xlink">
    <title>防护目标</title>
    <g id="事件信息、组织动态、辅助工具" stroke="none" stroke-width="1" fill="none" fill-rule="evenodd">
        <g id="雪碧图" transform="translate(-455.000000, -337.000000)" fill-rule="nonzero">
            <g id="防护目标" transform="translate(455.000000, 337.000000)">
                <circle id="&lt;svg-t=&quot;1614155529752&quot;-class=&quot;icon&quot;-viewBox=&quot;0-0-1024-1024&quot;-version=&quot;1.1&quot;-xmlns=&quot;http://www.w3.org/2000/svg&quot;-p-id=&quot;22522&quot;-width=&quot;200&quot;-height=&quot;200&quot;&gt;&lt;path-d=&quot;M910.562571-13.799047-113.442263-13.799047c-55.028339-0-99.642623-44.614285-99.642623-99.642623l0-797.120308c0-55.02469-44.614285-99.637758-99.642623-99.637758l797.120308-0c55.02469-0-99.637758-44.613068-99.637758-99.637758L1010.200329-113.441671C1010.200329-58.413332-965.58726-13.799047-910.562571-13.799047zM784.695068-592.103805c-0.152039-83.137284-202.088843-219.293561-272.698124-235.196826C440.58368-811.398582-239.157727-675.242305-239.303684-592.103805L239.303684-251.237535l273.003418-54.538165L743.081422-242.905805l1.649318-0-0-0.332053-39.965544-7.999677L784.696284-592.103805z&quot;-p-id=&quot;22523&quot;&gt;&lt;/path&gt;&lt;path-d=&quot;M512.263316-242.905805l-232.994087-46.549435-0-222.926682-0.260291-0-27.19428-0-205.273145-0-0-268.719571c60.264557-13.580111-232.608517-129.784024-232.733797-200.730224l0-67.989348L512.263316-512.381922-512.263316-242.905805z&quot;-p-id=&quot;22524&quot;&gt;&lt;/path&gt;&lt;/svg&gt;" stroke-opacity="0.5" stroke="#FFFFFF" stroke-width="2" fill="#AEAE09" cx="14" cy="14" r="13"></circle>
                <path d="M22.400905,8.19783487 C19.2280466,8.19149352 16.3128272,7.14628621 13.9963242,5.4 C11.6787576,7.1425929 8.76846911,8.19151675 5.59889797,8.1978581 C3.48622922,14.8466793 7.12215618,21.993842 13.9990555,24.4 C20.8776468,21.993842 24.5141297,14.8466793 22.400905,8.19783487 Z M6.49380613,14.9506727 L14.0001674,14.9506727 L14.0001674,6.74636323 C16.2365435,8.24273532 18.811749,9.09958372 21.5340594,9.25363432 C22.0117515,11.1812877 21.9771627,13.1284065 21.505586,14.9506727 L14.0001674,14.9506727 L14.0001674,23.2419028 L13.9990797,23.2423441 C10.1418911,21.7556118 7.43915922,18.6041016 6.49380613,14.9506727 Z" id="形状" fill="#FFFFFF"></path>
            </g>
        </g>
    </g>
</svg>