<?xml version="1.0" encoding="UTF-8"?>
<svg width="28px" height="28px" viewBox="0 0 28 28" version="1.1" xmlns="http://www.w3.org/2000/svg" xmlns:xlink="http://www.w3.org/1999/xlink">
    <title>避护场所</title>
    <g id="事件信息、组织动态、辅助工具" stroke="none" stroke-width="1" fill="none" fill-rule="evenodd">
        <g id="雪碧图" transform="translate(-591.000000, -394.000000)" fill-rule="nonzero">
            <g id="编组-8" transform="translate(455.000000, 337.000000)">
                <g id="编组" transform="translate(136.000000, 57.000000)">
                    <circle id="Oval-9" stroke-opacity="0.5" stroke="#FFFFFF" stroke-width="2" fill="#098330" cx="14" cy="14" r="13"></circle>
                    <g transform="translate(5.000000, 4.000000)" fill="#FFFFFF" id="形状">
                        <path d="M17.8972509,15.9449 L11.2261284,5.16646947 C11.2161416,5.13393224 11.2018204,5.10293841 11.1835636,5.0743514 L9.49434856,2.35532321 L10.5730626,0.6186815 C10.6296148,0.528013289 10.6478186,0.417990136 10.6235564,0.313499636 C10.5992942,0.209009136 10.5346159,0.118880176 10.444152,0.0635002194 C10.2548304,-0.0542931841 10.0076256,0.00339155099 9.88776906,0.193331027 L9.02005492,1.58870316 L8.15051658,0.192712791 C8.06246457,0.0552879703 7.90304449,-0.0164890657 7.74378164,0.00958511677 C7.5845188,0.0356592992 7.45531757,0.154688817 7.41414529,0.313269971 C7.38986025,0.418308693 7.40827566,0.528866537 7.46522307,0.61991799 L8.54150481,2.35594145 L8.45637516,2.49257292 C8.4466258,2.50615301 8.43749515,2.52018128 8.42901208,2.53461338 L7.2311166,4.46476482 L6.85107361,5.07682438 L6.84012838,5.09537163 L0.101510247,15.9449 C-0.0290124958,16.1594071 -0.0340027518,16.4292352 0.0884962529,16.6485795 C0.210995258,16.8679239 0.441456879,17.0018206 0.689512758,16.9978557 L6.36401053,16.9978557 C6.65527547,16.9978557 6.91552891,16.8129118 7.01464412,16.5347029 L8.36516486,12.6570892 C8.57798894,12.0450297 9.44144658,12.038229 9.66399975,12.6447244 L11.0953936,16.5439765 C11.1969411,16.8166212 11.4541542,16.9965296 11.7393385,16.9965296 L17.3092484,16.9965296 C17.8486054,16.9965296 18.1800029,16.4036356 17.8960348,15.9436636 L17.8972509,15.9436636 L17.8972509,15.9449 L17.8972509,15.9449 Z M11.0826242,8.48704711 C11.080283,8.7589403 10.8617667,8.97751563 10.594345,8.97545826 L9.4876598,8.97545826 L9.4876598,10.0821114 C9.48498547,10.3537623 9.26656719,10.5719631 8.99938058,10.5699188 L8.99816445,10.5699188 C8.73131577,10.5702778 8.51359699,10.352771 8.50927715,10.0814932 L8.50927715,8.97607651 L7.40259199,8.97607651 C7.13534026,8.97745633 6.91704195,8.75937061 6.91370471,8.48766534 C6.91370471,8.21873009 7.13260946,7.99925419 7.40198391,7.99925419 L8.50866908,7.99925419 L8.50866908,6.89260106 C8.50866908,6.62304757 8.7263577,6.40418989 8.99816445,6.40418989 C9.26814699,6.40418989 9.48644368,6.62242931 9.48644368,6.89260106 L9.48644368,7.99925419 L10.5931288,7.99925419 C10.8606171,7.9975332 11.0792859,8.21571762 11.0826242,8.48766534 L11.0826242,8.48704711 Z"></path>
                    </g>
                </g>
            </g>
        </g>
    </g>
</svg>