<?xml version="1.0" encoding="UTF-8"?>
<svg width="28px" height="28px" viewBox="0 0 28 28" version="1.1" xmlns="http://www.w3.org/2000/svg" xmlns:xlink="http://www.w3.org/1999/xlink">
    <title>风险隐患</title>
    <g id="事件信息、组织动态、辅助工具" stroke="none" stroke-width="1" fill="none" fill-rule="evenodd">
        <g id="雪碧图" transform="translate(-523.000000, -337.000000)" fill-rule="nonzero">
            <g id="编组-8" transform="translate(455.000000, 337.000000)">
                <g id="风险隐患" transform="translate(68.000000, 0.000000)">
                    <circle id="Oval-9" stroke-opacity="0.5" stroke="#FFFFFF" stroke-width="2" fill="#AD2723" cx="14" cy="14" r="13"></circle>
                    <path d="M6.22017274,20.5919583 C5.41982494,20.5919583 5.02765451,19.7073697 5.37980755,19.0318657 C5.86001623,18.1070686 12.8310456,5.90778809 13.2632334,5.1277418 C13.6474004,4.42811267 14.5678004,4.42007095 14.9599708,5.1277418 C15.5442247,6.21337323 22.363188,18.3644034 22.6993341,18.9996989 C23.1235184,19.7958286 22.5872854,20.6 21.8589689,20.6 L6.22017274,20.6 L6.22017274,20.5919583 Z M13.6714108,15.4452612 L14.4957691,15.4452612 L15.0480091,10.0090623 L13.1271743,10.0090623 L13.6714108,15.4452612 Z M13.1271743,16.2253075 L13.1271743,17.7773583 L15.0480091,17.7773583 L15.0480091,16.2253075 L13.1271743,16.2253075 Z" id="形状" fill="#FFFFFF"></path>
                </g>
            </g>
        </g>
    </g>
</svg>