<?xml version="1.0" encoding="UTF-8"?>
<svg width="48px" height="47px" viewBox="0 0 48 47" version="1.1" xmlns="http://www.w3.org/2000/svg" xmlns:xlink="http://www.w3.org/1999/xlink">
    <title>应急队伍备份</title>
    <defs>
        <ellipse id="path-1" cx="24" cy="8" rx="24" ry="8"></ellipse>
        <filter x="-8.3%" y="-25.0%" width="116.7%" height="150.0%" filterUnits="objectBoundingBox" id="filter-2">
            <feGaussianBlur stdDeviation="4" in="SourceAlpha" result="shadowBlurInner1"></feGaussianBlur>
            <feOffset dx="0" dy="0" in="shadowBlurInner1" result="shadowOffsetInner1"></feOffset>
            <feComposite in="shadowOffsetInner1" in2="SourceAlpha" operator="arithmetic" k2="-1" k3="1" result="shadowInnerInner1"></feComposite>
            <feColorMatrix values="0 0 0 0 0   0 0 0 0 0.568627451   0 0 0 0 1  0 0 0 1 0" type="matrix" in="shadowInnerInner1"></feColorMatrix>
        </filter>
        <filter x="0.0%" y="0.0%" width="100.0%" height="100.0%" filterUnits="objectBoundingBox" id="filter-3">
            <feGaussianBlur stdDeviation="0" in="SourceGraphic"></feGaussianBlur>
        </filter>
    </defs>
    <g id="页面-1" stroke="none" stroke-width="1" fill="none" fill-rule="evenodd">
        <g id="落点切图整合" transform="translate(-894.000000, -79.000000)">
            <g id="应急队伍备份" transform="translate(894.000000, 79.000000)">
                <g id="编组-7备份-22" transform="translate(0.000000, 30.400000)">
                    <g id="椭圆形" fill="black" fill-opacity="1">
                        <use filter="url(#filter-2)" xlink:href="#path-1"></use>
                    </g>
                    <ellipse id="椭圆形" fill="#00519B" opacity="0.703760901" filter="url(#filter-3)" cx="24" cy="8" rx="12" ry="4"></ellipse>
                </g>
                <g id="编组-8备份-22" transform="translate(8.000000, 0.000000)" fill-rule="nonzero">
                    <path d="M16.128,0.5 C20.443553,0.5 24.350553,2.24922348 27.1786648,5.07733522 C30.0067765,7.90544697 31.756,11.812447 31.756,16.128 C31.756,20.3446763 30.0860255,24.171316 27.3774173,26.9764069 L27.3774173,26.9764069 L16.1279487,38.2292741 L4.88087975,26.9820736 C2.17000743,24.1714555 0.5,20.3447505 0.5,16.128 C0.5,11.812447 2.24922348,7.90544697 5.07733522,5.07733522 C7.90544697,2.24922348 11.812447,0.5 16.128,0.5 Z" id="形状结合" stroke="#FFFFFF" fill="#0091FF"></path>
                    <path d="M23.9833554,21.1866707 C25.2460858,21.6927253 26,22.3294229 26,23.0216321 C26,24.6660423 21.7464134,26 16.499381,26 C11.2536014,26 7,24.6660423 7,23.0216321 C7,22.3294229 7.75298565,21.6927254 9.01603048,21.1866707 C8.71384872,21.4009033 8.54755464,21.6312234 8.54755464,21.8713108 C8.54755464,22.9888327 12.1080348,23.8937007 16.499376,23.8937007 C20.891975,23.8937007 24.4518263,22.9888327 24.4518263,21.8713108 C24.4518312,21.6312184 24.2864608,21.4009033 23.9833554,21.1866707 L23.9833554,21.1866707 Z M11.8356355,7.64963243 C12.7893502,7.64963243 13.5625134,8.43586813 13.5625134,9.40540563 C13.5625134,10.3752728 12.7893502,11.1618283 11.8356355,11.1618283 C10.8819061,11.1618283 10.1087576,10.3752679 10.1087576,9.40540563 C10.1087576,8.43586313 10.8819109,7.64963243 11.8356355,7.64963243 L11.8356355,7.64963243 Z M21.137697,7.64963243 C20.1845817,7.64963243 19.4114332,8.43586813 19.4114332,9.40540563 C19.4114332,10.3752728 20.1845817,11.1618283 21.137697,11.1618283 C22.0920406,11.1618283 22.865189,10.3752679 22.865189,9.40540563 C22.865189,8.43586313 22.0920405,7.64963243 21.137697,7.64963243 L21.137697,7.64963243 Z M19.4316009,17.7492365 L19.4316009,22.3780099 L20.6487341,22.3780099 L21.1348966,19.133355 L21.6223119,22.3780099 L22.9474075,22.3780099 L22.9474075,17.2516802 C23.4726772,16.9727731 23.8337998,16.4137099 23.8337998,15.7713418 L23.8337998,13.1488708 C23.8337998,12.2317024 23.0969582,11.4814286 22.1944219,11.4814286 L20.1771386,11.4814286 C20.0471415,11.4814286 19.9196255,11.4968915 19.798005,11.5265434 C20.0682427,11.9464902 20.2252365,12.447199 20.2252365,12.9841745 L20.2252365,15.8385493 C20.2252414,16.5689386 19.9301687,17.2539034 19.4316009,17.7492365 L19.4316009,17.7492365 Z M16.5285394,7 C17.5660546,7 18.407449,7.85564148 18.407449,8.91069215 C18.407449,9.96606257 17.5660546,10.821704 16.5285394,10.821704 C15.4904347,10.821704 14.649335,9.96606257 14.649335,8.91069215 C14.649335,7.85564148 15.4904298,7 16.5285394,7 L16.5285394,7 Z M18.3851196,17.4529679 C18.9609437,17.1519781 19.3586974,16.5399113 19.3586974,15.8385493 L19.3586974,12.9841745 C19.3586974,11.9865589 18.5557469,11.1700219 17.5747309,11.1700219 L15.3787532,11.1700219 C14.3970936,11.1700219 13.5944673,11.9865589 13.5944673,12.9841745 L13.5944673,15.8385493 C13.5944673,16.5367638 13.9875635,17.1459878 14.5599878,17.4492009 L14.5599878,23.0276274 L16.0017418,23.0276274 L16.5316395,19.496821 L17.0609624,23.0276274 L18.3851245,23.0276274 L18.3851245,17.4529679 L18.3851196,17.4529679 Z M13.5420263,17.7492365 C13.0437681,17.2538985 12.7490245,16.5689386 12.7490245,15.8385443 L12.7490245,12.9841695 C12.7490245,12.447189 12.9053895,11.9464852 13.1759219,11.5265384 C13.0543162,11.4968865 12.9271048,11.4814236 12.7968031,11.4814236 L10.7795198,11.4814236 C9.87698838,11.4814236 9.14012707,12.2316974 9.14012707,13.1488658 L9.14012707,15.7713368 C9.14012707,16.4137099 9.50126442,16.9727681 10.0268437,17.2516752 L10.0268437,22.3780049 L11.3516346,22.3780049 L11.8390499,19.13335 L12.3252125,22.3780049 L13.5420263,22.3780049 L13.5420263,17.7492365 Z" id="形状" fill="#FFFFFF"></path>
                </g>
            </g>
        </g>
    </g>
</svg>