<?xml version="1.0" encoding="UTF-8"?>
<svg width="28px" height="28px" viewBox="0 0 28 28" version="1.1" xmlns="http://www.w3.org/2000/svg" xmlns:xlink="http://www.w3.org/1999/xlink">
    <title>危化企业</title>
    <defs>
        <filter id="filter-1">
            <feColorMatrix in="SourceGraphic" type="matrix" values="0 0 0 0 1.000000 0 0 0 0 1.000000 0 0 0 0 1.000000 0 0 0 1.000000 0"></feColorMatrix>
        </filter>
    </defs>
    <g id="事件信息、组织动态、辅助工具" stroke="none" stroke-width="1" fill="none" fill-rule="evenodd">
        <g id="雪碧图" transform="translate(-591.000000, -337.000000)">
            <g id="编组-8" transform="translate(455.000000, 337.000000)">
                <g id="危化企业" transform="translate(136.000000, 0.000000)">
                    <circle id="&lt;svg-t=&quot;1614155799052&quot;-class=&quot;icon&quot;-viewBox=&quot;0-0-1024-1024&quot;-version=&quot;1.1&quot;-xmlns=&quot;http://www.w3.org/2000/svg&quot;-p-id=&quot;29217&quot;-width=&quot;200&quot;-height=&quot;200&quot;&gt;&lt;path-d=&quot;M895.419733-480.55296L526.414507-159.566507a24.917333-24.917333-0-0-0-32.802134-0l-366.544213-324.266666a25.72288-25.72288-0-0-0-6.557013-27.091627-26.845867-26.845867-0-0-0-24.599893-16.41472h50.018987v254.49472a90.565973-90.565973-0-0-0-19.68128-64.03072-74.540373-74.540373-0-0-0-58.217813-24.6272h465.769813a88.091307-88.091307-0-0-0-59.050667-22.162773-84.964693-84.964693-0-0-0-26.241707-66.495147v-256.955733h57.398613a23.08096-23.08096-0-0-0-17.22368-8.209067-26.781013-26.781013-0-0-0-3.293867-36.11648z-m-288.426666-47.414613l-112.0768-208.380587-0.157014-0.068267a7.7824-7.7824-0-0-1-7.113386-4.724054-8.004267-8.004267-0-0-1-8.00768-8.014507-7.509333-7.509333-0-0-1-0.17408-0.866987h-0.126294l15.018667-135.365973H423.594667a8.004267-8.004267-0-0-1-8.00768-8.014507-7.89504-7.89504-0-0-1-0.498346-2.49856l-0.09216-0.037546-64.044374-192.351574-0.095573-0.03072a7.932587-7.932587-0-0-1-7.509333-5.50912h80.052907a8.011093-8.011093-0-0-1-8.00768-8.014507-7.850667-7.850667-0-0-1-0.50176-2.505387l0.09216-0.03072-39.253333-117.681493H599.722667a8.00768-8.00768-0-0-1-8.004266-8.014507-7.91552-7.91552-0-0-1-0.771413-3.345066z&quot;-p-id=&quot;29218&quot;&gt;&lt;/path&gt;&lt;/svg&gt;" stroke-opacity="0.5" stroke="#FFFFFF" stroke-width="2" fill="#DC782B" fill-rule="nonzero" cx="14" cy="14" r="13"></circle>
                    <g filter="url(#filter-1)" id="编组">
                        <g transform="translate(5.000000, 6.000000)">
                            <path d="M8.54909004,0.00303318537 C8.75425316,0.00303318537 8.95175802,0.0848423767 9.09737931,0.230463671 C9.2430006,0.376084965 9.32480978,0.573589822 9.32480978,0.779529429 L9.32480978,10.5312913 L7.21105989,13.9799653 C7.52157711,14.8023404 7.71436463,15.3200046 7.78942244,15.5329578 L0.784127727,15.5329578 C0.355280699,15.5329578 0.00763149368,15.1853086 0.00763149368,14.7564616 C0.00763149368,14.3276146 0.355280699,13.9799653 0.784127727,13.9799653 L1.56062397,13.9799653 L1.56062397,0.779529429 C1.56062396,0.573589822 1.64243315,0.376084965 1.78805444,0.230463671 C1.93367573,0.0848423767 2.13118059,0.00303318537 2.33712019,0.00303318537 L8.54909004,0.00303318537 Z M6.21960135,9.32098797 L4.66660888,9.32098797 C4.23776186,9.32098797 3.89011265,9.66863717 3.89011265,10.0974842 C3.89011265,10.5263312 4.23776186,10.8739804 4.66660888,10.8739804 L4.66660888,10.8739804 L6.21960135,10.8739804 C6.64844838,10.8739804 6.99609758,10.5263312 6.99609758,10.0974842 C6.99609758,9.66863717 6.64844838,9.32098797 6.21960135,9.32098797 L6.21960135,9.32098797 Z M6.21960135,6.21500303 L4.66660888,6.21500303 C4.23776186,6.21500303 3.89011265,6.56265224 3.89011265,6.99149927 C3.89011265,7.42034629 4.23776186,7.7679955 4.66660888,7.7679955 L4.66660888,7.7679955 L6.21960135,7.7679955 C6.64844838,7.7679955 6.99609758,7.42034629 6.99609758,6.99149927 C6.99609758,6.56265224 6.64844838,6.21500303 6.21960135,6.21500303 L6.21960135,6.21500303 Z M6.21960135,3.10901812 L4.66660888,3.10901812 C4.23776186,3.10901812 3.89011266,3.45666732 3.89011266,3.88551434 C3.89011266,4.31436136 4.23776186,4.66201057 4.66660888,4.66201057 L4.66660888,4.66201057 L6.21960135,4.66201057 C6.64844837,4.66201057 6.99609757,4.31436136 6.99609757,3.88551434 C6.99609757,3.45666732 6.64844837,3.10901812 6.21960135,3.10901812 L6.21960135,3.10901812 Z M12.6241423,5.10771942 C12.6843128,5.14210866 12.7341813,5.19197721 12.7685706,5.25214771 L18.3112007,14.9521386 C18.3798299,15.0722845 18.3793313,15.2198752 18.3098916,15.3395546 C18.240452,15.4592339 18.1125668,15.5329584 17.9742013,15.5329584 L6.88894109,15.5329584 C6.75043698,15.5331903 6.62229791,15.4596206 6.55266891,15.3398907 C6.4830399,15.2201608 6.48246692,15.0724049 6.55116525,14.9521386 L12.0945718,5.25214771 C12.2009657,5.06607946 12.4380145,5.0014298 12.6241423,5.10771942 Z M12.4315712,6.22665047 L7.55672787,14.7564616 L17.305638,14.7564616 L12.4307947,6.22665047 L12.4315712,6.22665047 Z M12.4315712,12.6746752 C12.6536491,12.6746752 12.8431142,12.7383479 12.991425,12.8858822 C13.1389593,13.023322 13.2135029,13.2026926 13.2135029,13.4247705 C13.2192414,13.6309494 13.1387591,13.8301854 12.991425,13.9745299 C12.8371272,14.1113798 12.6378114,14.1865725 12.4315712,14.1857368 C12.228985,14.1892859 12.0339478,14.1089103 11.8926828,13.9636589 C11.7402971,13.8264989 11.6552446,13.629744 11.6597339,13.4247705 C11.6597339,13.2026926 11.7342776,13.023322 11.8926828,12.8858822 C12.0351657,12.7436656 12.230399,12.6671477 12.4315712,12.6746752 L12.4315712,12.6746752 Z M13.0970285,8.66717814 L12.8539852,12.0511487 L12.0192517,12.0511487 L11.7762084,8.66717814 L13.0970285,8.66717814 Z" id="形状" fill="#000000" fill-rule="nonzero"></path>
                        </g>
                    </g>
                </g>
            </g>
        </g>
    </g>
</svg>