<?xml version="1.0" encoding="UTF-8"?>
<svg width="15px" height="30px" viewBox="0 0 15 30" version="1.1" xmlns="http://www.w3.org/2000/svg" xmlns:xlink="http://www.w3.org/1999/xlink">
    <title>形状备份 5</title>
    <g id="页面-1" stroke="none" stroke-width="1" fill="none" fill-rule="evenodd">
        <g id="切图整合" transform="translate(-149.000000, -232.000000)" fill="#56E9FF" fill-rule="nonzero">
            <path d="M152.757244,240.93 L152.757244,238.27 C152.757244,237.89 153.137244,237.51 153.517244,237.51 C153.897244,237.51 154.277244,237.89 154.277244,238.27 L154.277244,240.93 L155.607244,240.93 L155.607244,238.27 C155.607244,237.89 155.987244,237.51 156.367244,237.51 C156.747244,237.51 156.937244,237.89 156.937244,238.27 L156.937244,240.93 L158.267244,240.93 L158.267244,233.14 C158.267244,232.57 158.837244,232 159.407244,232 C159.977244,232 160.547244,232.57 160.547244,233.14 L160.547244,240.93 C162.257244,240.93 163.587244,242.45 163.587244,243.97 L163.587244,258.03 C163.587244,259.74 162.257244,261.07 160.547244,261.07 L152.377244,261.07 C150.667244,261.07 149.337244,259.74 149.337244,258.03 L149.337244,243.97 C149.337244,242.26 150.667244,240.93 152.377244,240.93 L152.757244,240.93 Z M160.357244,243.21 L152.377244,243.21 C151.997244,243.21 151.617244,243.59 151.617244,243.97 L151.617244,258.03 C151.617244,258.6 151.997244,258.98 152.377244,258.98 L160.357244,258.98 C160.737244,258.98 161.117244,258.6 161.117244,258.03 L161.117244,243.97 C161.307244,243.59 160.927244,243.21 160.357244,243.21 L160.357244,243.21 Z M152.947244,244.35 L159.977244,244.35 C160.357244,244.35 160.737244,244.73 160.737244,244.92 L160.737244,249.29 C160.737244,249.67 160.357244,249.86 159.977244,249.86 L152.947244,249.86 C152.567244,250.05 152.187244,249.86 152.187244,249.48 L152.187244,245.11 C152.187244,244.73 152.567244,244.35 152.947244,244.35 Z M159.217244,245.68 L153.517244,245.68 L153.517244,248.72 L159.217244,248.72 L159.217244,245.68 Z M152.947244,253.09 C152.567244,253.09 152.187244,252.71 152.187244,252.33 C152.187244,251.95 152.567244,251.57 152.947244,251.57 L159.977244,251.57 C160.357244,251.57 160.737244,251.95 160.737244,252.33 C160.737244,252.71 160.357244,253.09 159.977244,253.09 L152.947244,253.09 Z M152.947244,255.94 C152.567244,255.94 152.187244,255.56 152.187244,255.37 C152.187244,254.99 152.567244,254.61 152.947244,254.61 L159.977244,254.61 C160.357244,254.61 160.737244,254.99 160.737244,255.37 C160.737244,255.75 160.357244,255.94 159.977244,255.94 L152.947244,255.94 Z" id="形状备份-5"></path>
        </g>
    </g>
</svg>