<?xml version="1.0" encoding="UTF-8"?>
<svg width="15px" height="30px" viewBox="0 0 15 30" version="1.1" xmlns="http://www.w3.org/2000/svg" xmlns:xlink="http://www.w3.org/1999/xlink">
    <title>形状</title>
    <g id="页面-1" stroke="none" stroke-width="1" fill="none" fill-rule="evenodd">
        <g id="切图整合" transform="translate(-149.000000, -182.000000)" fill="#FFFFFF" fill-rule="nonzero">
            <path d="M152.757244,190.93 L152.757244,188.27 C152.757244,187.89 153.137244,187.51 153.517244,187.51 C153.897244,187.51 154.277244,187.89 154.277244,188.27 L154.277244,190.93 L155.607244,190.93 L155.607244,188.27 C155.607244,187.89 155.987244,187.51 156.367244,187.51 C156.747244,187.51 156.937244,187.89 156.937244,188.27 L156.937244,190.93 L158.267244,190.93 L158.267244,183.14 C158.267244,182.57 158.837244,182 159.407244,182 C159.977244,182 160.547244,182.57 160.547244,183.14 L160.547244,190.93 C162.257244,190.93 163.587244,192.45 163.587244,193.97 L163.587244,208.03 C163.587244,209.74 162.257244,211.07 160.547244,211.07 L152.377244,211.07 C150.667244,211.07 149.337244,209.74 149.337244,208.03 L149.337244,193.97 C149.337244,192.26 150.667244,190.93 152.377244,190.93 L152.757244,190.93 Z M160.357244,193.21 L152.377244,193.21 C151.997244,193.21 151.617244,193.59 151.617244,193.97 L151.617244,208.03 C151.617244,208.6 151.997244,208.98 152.377244,208.98 L160.357244,208.98 C160.737244,208.98 161.117244,208.6 161.117244,208.03 L161.117244,193.97 C161.307244,193.59 160.927244,193.21 160.357244,193.21 L160.357244,193.21 Z M152.947244,194.35 L159.977244,194.35 C160.357244,194.35 160.737244,194.73 160.737244,194.92 L160.737244,199.29 C160.737244,199.67 160.357244,199.86 159.977244,199.86 L152.947244,199.86 C152.567244,200.05 152.187244,199.86 152.187244,199.48 L152.187244,195.11 C152.187244,194.73 152.567244,194.35 152.947244,194.35 Z M159.217244,195.68 L153.517244,195.68 L153.517244,198.72 L159.217244,198.72 L159.217244,195.68 Z M152.947244,203.09 C152.567244,203.09 152.187244,202.71 152.187244,202.33 C152.187244,201.95 152.567244,201.57 152.947244,201.57 L159.977244,201.57 C160.357244,201.57 160.737244,201.95 160.737244,202.33 C160.737244,202.71 160.357244,203.09 159.977244,203.09 L152.947244,203.09 Z M152.947244,205.94 C152.567244,205.94 152.187244,205.56 152.187244,205.37 C152.187244,204.99 152.567244,204.61 152.947244,204.61 L159.977244,204.61 C160.357244,204.61 160.737244,204.99 160.737244,205.37 C160.737244,205.75 160.357244,205.94 159.977244,205.94 L152.947244,205.94 Z" id="形状"></path>
        </g>
    </g>
</svg>