<?xml version="1.0" encoding="UTF-8"?>
<svg width="15px" height="15px" viewBox="0 0 15 15" version="1.1" xmlns="http://www.w3.org/2000/svg" xmlns:xlink="http://www.w3.org/1999/xlink">
    <title>形状</title>
    <g id="页面-1" stroke="none" stroke-width="1" fill="none" fill-rule="evenodd">
        <g id="切图整合" transform="translate(-118.000000, -331.000000)" fill="#FFFFFF" fill-rule="nonzero">
            <path d="M132.214628,345.962766 L129.222074,345.962766 L129.222074,345.925359 C128.997925,345.849003 128.847223,345.63846 128.847223,345.401662 C128.847223,345.164864 128.997925,344.954322 129.222074,344.877965 L129.222074,344.840559 L131.09242,344.840559 C131.505606,344.840559 131.840559,344.505606 131.840559,344.09242 L131.840559,342.222075 L131.877965,342.222075 C131.954322,341.997925 132.164864,341.847223 132.401662,341.847223 C132.63846,341.847223 132.849003,341.997925 132.925359,342.222075 L132.962766,342.222075 L132.962766,345.214628 C132.962766,345.627813 132.627813,345.962766 132.214628,345.962766 L132.214628,345.962766 Z M132.401662,335.114761 C132.165362,335.113967 131.955354,334.963962 131.877965,334.740692 L131.840559,334.740692 L131.840559,332.870346 C131.840559,332.45716 131.505606,332.122207 131.09242,332.122207 L129.222074,332.122207 L129.222074,332.084801 C128.997925,332.008444 128.847223,331.797902 128.847223,331.561104 C128.847223,331.324306 128.997925,331.113763 129.222074,331.037407 L129.222074,331 L132.214628,331 C132.627813,331 132.962766,331.334953 132.962766,331.748138 L132.962766,334.740692 L132.925359,334.740692 C132.84797,334.963962 132.637963,335.113967 132.401662,335.114761 L132.401662,335.114761 Z M131.09242,338.668418 C131.09242,338.668418 128.848005,341.848005 125.484001,341.848005 C122.119998,341.848005 119.875583,338.668418 119.875583,338.668418 C119.875583,338.668418 122.119998,335.485463 125.484001,335.485463 C128.848005,335.485463 131.09242,338.668418 131.09242,338.668418 Z M125.484001,336.544827 C124.333375,336.60885 123.445961,337.582547 123.488673,338.734162 C123.531385,339.885776 124.488489,340.791063 125.640697,340.769675 C126.792905,340.748288 127.715753,339.808106 127.715698,338.655699 C127.682072,337.45642 126.683318,336.51107 125.484001,336.543331 L125.484001,336.544827 Z M125.479139,339.715811 C125.186384,339.715655 124.904435,339.6052 124.689479,339.406456 C124.480931,339.214113 124.362307,338.943331 124.362307,338.659627 C124.362307,338.375923 124.480931,338.105141 124.689479,337.912798 C125.13514,337.500366 125.823137,337.500366 126.268799,337.912798 C126.477139,338.105258 126.595616,338.375996 126.595616,338.659627 C126.595616,338.943258 126.477139,339.213996 126.268799,339.406456 C126.053802,339.605137 125.77188,339.715582 125.479139,339.715811 L125.479139,339.715811 Z M122.114761,332.084801 L122.114761,332.122207 L119.870346,332.122207 C119.45716,332.122207 119.122207,332.45716 119.122207,332.870346 L119.122207,334.740692 L119.084801,334.740692 C119.008444,334.964841 118.797902,335.115543 118.561104,335.115543 C118.324306,335.115543 118.113763,334.964841 118.037407,334.740692 L118,334.740692 L118,331.748138 C118,331.334953 118.334953,331 118.748138,331 L122.114761,331 L122.114761,331.037407 C122.33891,331.113763 122.489612,331.324306 122.489612,331.561104 C122.489612,331.797902 122.33891,332.008444 122.114761,332.084801 L122.114761,332.084801 Z M118.561104,341.848005 C118.797404,341.848799 119.007412,341.998804 119.084801,342.222075 L119.122207,342.222075 L119.122207,344.09242 C119.122207,344.505606 119.45716,344.840559 119.870346,344.840559 L122.114761,344.840559 L122.114761,344.877965 C122.33891,344.954322 122.489612,345.164864 122.489612,345.401662 C122.489612,345.63846 122.33891,345.849003 122.114761,345.925359 L122.114761,345.962766 L118.748138,345.962766 C118.334953,345.962766 118,345.627813 118,345.214628 L118,342.222075 L118.037407,342.222075 C118.114796,341.998804 118.324803,341.848799 118.561104,341.848005 L118.561104,341.848005 Z" id="形状"></path>
        </g>
    </g>
</svg>