<?xml version="1.0" encoding="UTF-8"?>
<svg width="15px" height="15px" viewBox="0 0 15 15" version="1.1" xmlns="http://www.w3.org/2000/svg" xmlns:xlink="http://www.w3.org/1999/xlink">
    <title>形状备份 7</title>
    <g id="页面-1" stroke="none" stroke-width="1" fill="none" fill-rule="evenodd">
        <g id="切图整合" transform="translate(-118.000000, -361.000000)" fill="#56E9FF" fill-rule="nonzero">
            <path d="M132.214628,375.962766 L129.222074,375.962766 L129.222074,375.925359 C128.997925,375.849003 128.847223,375.63846 128.847223,375.401662 C128.847223,375.164864 128.997925,374.954322 129.222074,374.877965 L129.222074,374.840559 L131.09242,374.840559 C131.505606,374.840559 131.840559,374.505606 131.840559,374.09242 L131.840559,372.222075 L131.877965,372.222075 C131.954322,371.997925 132.164864,371.847223 132.401662,371.847223 C132.63846,371.847223 132.849003,371.997925 132.925359,372.222075 L132.962766,372.222075 L132.962766,375.214628 C132.962766,375.627813 132.627813,375.962766 132.214628,375.962766 L132.214628,375.962766 Z M132.401662,365.114761 C132.165362,365.113967 131.955354,364.963962 131.877965,364.740692 L131.840559,364.740692 L131.840559,362.870346 C131.840559,362.45716 131.505606,362.122207 131.09242,362.122207 L129.222074,362.122207 L129.222074,362.084801 C128.997925,362.008444 128.847223,361.797902 128.847223,361.561104 C128.847223,361.324306 128.997925,361.113763 129.222074,361.037407 L129.222074,361 L132.214628,361 C132.627813,361 132.962766,361.334953 132.962766,361.748138 L132.962766,364.740692 L132.925359,364.740692 C132.84797,364.963962 132.637963,365.113967 132.401662,365.114761 L132.401662,365.114761 Z M131.09242,368.668418 C131.09242,368.668418 128.848005,371.848005 125.484001,371.848005 C122.119998,371.848005 119.875583,368.668418 119.875583,368.668418 C119.875583,368.668418 122.119998,365.485463 125.484001,365.485463 C128.848005,365.485463 131.09242,368.668418 131.09242,368.668418 Z M125.484001,366.544827 C124.333375,366.60885 123.445961,367.582547 123.488673,368.734162 C123.531385,369.885776 124.488489,370.791063 125.640697,370.769675 C126.792905,370.748288 127.715753,369.808106 127.715698,368.655699 C127.682072,367.45642 126.683318,366.51107 125.484001,366.543331 L125.484001,366.544827 Z M125.479139,369.715811 C125.186384,369.715655 124.904435,369.6052 124.689479,369.406456 C124.480931,369.214113 124.362307,368.943331 124.362307,368.659627 C124.362307,368.375923 124.480931,368.105141 124.689479,367.912798 C125.13514,367.500366 125.823137,367.500366 126.268799,367.912798 C126.477139,368.105258 126.595616,368.375996 126.595616,368.659627 C126.595616,368.943258 126.477139,369.213996 126.268799,369.406456 C126.053802,369.605137 125.77188,369.715582 125.479139,369.715811 L125.479139,369.715811 Z M122.114761,362.084801 L122.114761,362.122207 L119.870346,362.122207 C119.45716,362.122207 119.122207,362.45716 119.122207,362.870346 L119.122207,364.740692 L119.084801,364.740692 C119.008444,364.964841 118.797902,365.115543 118.561104,365.115543 C118.324306,365.115543 118.113763,364.964841 118.037407,364.740692 L118,364.740692 L118,361.748138 C118,361.334953 118.334953,361 118.748138,361 L122.114761,361 L122.114761,361.037407 C122.33891,361.113763 122.489612,361.324306 122.489612,361.561104 C122.489612,361.797902 122.33891,362.008444 122.114761,362.084801 L122.114761,362.084801 Z M118.561104,371.848005 C118.797404,371.848799 119.007412,371.998804 119.084801,372.222075 L119.122207,372.222075 L119.122207,374.09242 C119.122207,374.505606 119.45716,374.840559 119.870346,374.840559 L122.114761,374.840559 L122.114761,374.877965 C122.33891,374.954322 122.489612,375.164864 122.489612,375.401662 C122.489612,375.63846 122.33891,375.849003 122.114761,375.925359 L122.114761,375.962766 L118.748138,375.962766 C118.334953,375.962766 118,375.627813 118,375.214628 L118,372.222075 L118.037407,372.222075 C118.114796,371.998804 118.324803,371.848799 118.561104,371.848005 L118.561104,371.848005 Z" id="形状备份-7"></path>
        </g>
    </g>
</svg>