<?xml version="1.0" encoding="UTF-8"?>
<svg width="16px" height="26px" viewBox="0 0 16 26" version="1.1" xmlns="http://www.w3.org/2000/svg" xmlns:xlink="http://www.w3.org/1999/xlink">
    <title>形状备份 4</title>
    <g id="页面-1" stroke="none" stroke-width="1" fill="none" fill-rule="evenodd">
        <g id="切图整合" transform="translate(-193.000000, -236.000000)" fill="#56E9FF" fill-rule="nonzero">
            <path d="M205.504475,236.87007 L196.93899,236.87007 C195.087703,236.87007 193.587244,238.370529 193.587244,240.221789 L193.587244,257.725299 C193.587244,259.576586 195.087703,261.077045 196.93899,261.077045 L205.504475,261.077045 C207.355735,261.077045 208.856221,259.576586 208.856221,257.725299 L208.856221,240.221789 C208.856221,238.370529 207.355735,236.87007 205.504475,236.87007 Z M201.221746,259.587374 C200.707425,259.587374 200.290735,259.170658 200.290735,258.656364 C200.290735,258.142042 200.707425,257.725299 201.221746,257.725299 C201.736067,257.725299 202.152783,258.142042 202.152783,258.656337 C202.152783,259.170658 201.736067,259.587374 201.221773,259.587374 L201.221746,259.587374 Z M206.994173,256.60806 L195.449319,256.60806 L195.449319,241.339029 L206.994173,241.339029 L206.994173,256.60806 Z" id="形状备份-4"></path>
        </g>
    </g>
</svg>