<?xml version="1.0" encoding="UTF-8"?>
<svg width="16px" height="26px" viewBox="0 0 16 26" version="1.1" xmlns="http://www.w3.org/2000/svg" xmlns:xlink="http://www.w3.org/1999/xlink">
    <title>形状</title>
    <g id="页面-1" stroke="none" stroke-width="1" fill="none" fill-rule="evenodd">
        <g id="切图整合" transform="translate(-193.000000, -186.000000)" fill="#FFFFFF" fill-rule="nonzero">
            <path d="M205.504475,186.87007 L196.93899,186.87007 C195.087703,186.87007 193.587244,188.370529 193.587244,190.221789 L193.587244,207.725299 C193.587244,209.576586 195.087703,211.077045 196.93899,211.077045 L205.504475,211.077045 C207.355735,211.077045 208.856221,209.576586 208.856221,207.725299 L208.856221,190.221789 C208.856221,188.370529 207.355735,186.87007 205.504475,186.87007 Z M201.221746,209.587374 C200.707425,209.587374 200.290735,209.170658 200.290735,208.656364 C200.290735,208.142042 200.707425,207.725299 201.221746,207.725299 C201.736067,207.725299 202.152783,208.142042 202.152783,208.656337 C202.152783,209.170658 201.736067,209.587374 201.221773,209.587374 L201.221746,209.587374 Z M206.994173,206.60806 L195.449319,206.60806 L195.449319,191.339029 L206.994173,191.339029 L206.994173,206.60806 Z" id="形状"></path>
        </g>
    </g>
</svg>