<?xml version="1.0" encoding="UTF-8"?>
<svg width="13px" height="16px" viewBox="0 0 13 16" version="1.1" xmlns="http://www.w3.org/2000/svg" xmlns:xlink="http://www.w3.org/1999/xlink">
    <title>形状备份 8</title>
    <g id="页面-1" stroke="none" stroke-width="1" fill="none" fill-rule="evenodd">
        <g id="切图整合" transform="translate(-96.000000, -361.000000)" fill="#56E9FF" fill-rule="nonzero">
            <path d="M108.86386,367.55946 C108.86386,363.93668 105.98418,361 102.43186,361 C98.87964,361 96,363.93668 96,367.55946 C96,367.67444 96.0111,367.78558 96.01692,367.89814 C96.01164,367.95374 96,368.00736 96,368.06442 C96,372.1017 101.93718,376.67484 101.93718,376.67484 C101.93718,376.67484 102.43192,377.0532 102.92668,376.67484 C103.42142,376.29606 108.86386,372.1017 108.86386,368.06442 C108.86386,368.00736 108.85222,367.95374 108.84694,367.89814 C108.8527,367.78558 108.86386,367.67444 108.86386,367.55946 L108.86386,367.55946 Z M102.43186,370.083 C101.06548,370.083 99.95812,368.95342 99.95812,367.55946 C99.95812,366.16648 101.06546,365.03686 102.43186,365.03686 C103.79832,365.03686 104.90574,366.16648 104.90574,367.55946 C104.90574,368.95342 103.79832,370.083 102.43186,370.083 L102.43186,370.083 Z" id="形状备份-8"></path>
        </g>
    </g>
</svg>