<?xml version="1.0" encoding="UTF-8"?>
<svg width="13px" height="16px" viewBox="0 0 13 16" version="1.1" xmlns="http://www.w3.org/2000/svg" xmlns:xlink="http://www.w3.org/1999/xlink">
    <title>形状</title>
    <g id="页面-1" stroke="none" stroke-width="1" fill="none" fill-rule="evenodd">
        <g id="切图整合" transform="translate(-96.000000, -331.000000)" fill="#FFFFFF" fill-rule="nonzero">
            <path d="M108.86386,337.55946 C108.86386,333.93668 105.98418,331 102.43186,331 C98.87964,331 96,333.93668 96,337.55946 C96,337.67444 96.0111,337.78558 96.01692,337.89814 C96.01164,337.95374 96,338.00736 96,338.06442 C96,342.1017 101.93718,346.67484 101.93718,346.67484 C101.93718,346.67484 102.43192,347.0532 102.92668,346.67484 C103.42142,346.29606 108.86386,342.1017 108.86386,338.06442 C108.86386,338.00736 108.85222,337.95374 108.84694,337.89814 C108.8527,337.78558 108.86386,337.67444 108.86386,337.55946 L108.86386,337.55946 Z M102.43186,340.083 C101.06548,340.083 99.95812,338.95342 99.95812,337.55946 C99.95812,336.16648 101.06546,335.03686 102.43186,335.03686 C103.79832,335.03686 104.90574,336.16648 104.90574,337.55946 C104.90574,338.95342 103.79832,340.083 102.43186,340.083 L102.43186,340.083 Z" id="形状"></path>
        </g>
    </g>
</svg>