<?xml version="1.0" encoding="UTF-8"?>
<svg width="16px" height="17px" viewBox="0 0 16 17" version="1.1" xmlns="http://www.w3.org/2000/svg" xmlns:xlink="http://www.w3.org/1999/xlink">
    <title>形状</title>
    <g id="页面-1" stroke="none" stroke-width="1" fill="none" fill-rule="evenodd">
        <g id="切图整合" transform="translate(-47.000000, -330.000000)" fill="#FFFFFF" fill-rule="nonzero">
            <path d="M62.253906,337.626953 C62.253906,333.414807 58.8390986,330 54.626953,330 C50.4148074,330 47,333.414807 47,337.626953 C47,340.71366 48.8347945,343.371454 51.4724262,344.572044 C50.1728564,344.967964 48.9777655,345.604002 47.9384763,346.425168 L61.3154297,346.425168 C60.2743075,345.604002 59.0792166,344.967964 57.7814798,344.572044 C60.4191115,343.371454 62.253906,340.71366 62.253906,337.626953 Z M54.626953,341.732787 C52.3595796,341.732787 50.5211191,339.894326 50.5211191,337.626953 C50.5211191,335.35958 52.3595796,333.521119 54.626953,333.521119 C56.8943264,333.521119 58.7327869,335.35958 58.7327869,337.626953 C58.7327869,339.894326 56.8943264,341.732787 54.626953,341.732787 Z M56.7000325,335.553873 C56.1464781,334.998486 55.4096276,334.694215 54.626953,334.694215 C53.8442784,334.694215 53.1074279,334.998486 52.5538735,335.553873 C51.9984861,336.107428 51.6942145,336.844278 51.6942145,337.626953 C51.6942145,338.409628 51.9984861,339.146478 52.5538735,339.700033 C53.1074279,340.25542 53.8442784,340.559691 54.626953,340.559691 C55.4096276,340.559691 56.1464781,340.25542 56.7000325,339.700033 C57.2554199,339.146478 57.5596915,338.409628 57.5596915,337.626953 C57.5596915,336.844278 57.2554199,336.107428 56.7000325,335.553873 Z M54.626953,339.386596 C53.6554834,339.386596 52.8673099,338.598423 52.8673099,337.626953 C52.8673099,336.655483 53.6554834,335.86731 54.626953,335.86731 C55.5984226,335.86731 56.3865961,336.655483 56.3865961,337.626953 C56.3865961,338.598423 55.5984226,339.386596 54.626953,339.386596 Z" id="形状"></path>
        </g>
    </g>
</svg>