<?xml version="1.0" encoding="UTF-8"?>
<svg width="16px" height="17px" viewBox="0 0 16 17" version="1.1" xmlns="http://www.w3.org/2000/svg" xmlns:xlink="http://www.w3.org/1999/xlink">
    <title>形状</title>
    <g id="页面-1" stroke="none" stroke-width="1" fill="none" fill-rule="evenodd">
        <g id="集群终端" transform="translate(-1316.000000, -400.000000)" fill="#56E9FF" fill-rule="nonzero">
            <g id="弹窗" transform="translate(554.000000, 142.000000)">
                <g id="编组-6备份-3" transform="translate(471.000000, 69.000000)">
                    <g id="编组-2备份-11" transform="translate(21.000000, 159.000000)">
                        <g id="编组-5" transform="translate(27.000000, 12.000000)">
                            <path d="M258.253906,25.626953 C258.253906,21.4148074 254.839099,18 250.626953,18 C246.414807,18 243,21.4148074 243,25.626953 C243,28.7136602 244.834795,31.3714545 247.472426,32.5720443 C246.172856,32.967964 244.977766,33.6040017 243.938476,34.4251684 L257.31543,34.4251684 C256.274308,33.6040017 255.079217,32.967964 253.78148,32.5720443 C256.419111,31.3714545 258.253906,28.7136602 258.253906,25.626953 Z M250.626953,29.7327869 C248.35958,29.7327869 246.521119,27.8943264 246.521119,25.626953 C246.521119,23.3595796 248.35958,21.5211191 250.626953,21.5211191 C252.894326,21.5211191 254.732787,23.3595796 254.732787,25.626953 C254.732787,27.8943264 252.894326,29.7327869 250.626953,29.7327869 Z M252.700033,23.5538735 C252.146478,22.9984861 251.409628,22.6942145 250.626953,22.6942145 C249.844278,22.6942145 249.107428,22.9984861 248.553873,23.5538735 C247.998486,24.1074279 247.694215,24.8442784 247.694215,25.626953 C247.694215,26.4096276 247.998486,27.1464781 248.553873,27.7000325 C249.107428,28.2554199 249.844278,28.5596915 250.626953,28.5596915 C251.409628,28.5596915 252.146478,28.2554199 252.700033,27.7000325 C253.25542,27.1464781 253.559691,26.4096276 253.559691,25.626953 C253.559691,24.8442784 253.25542,24.1074279 252.700033,23.5538735 Z M250.626953,27.3865961 C249.655483,27.3865961 248.86731,26.5984226 248.86731,25.626953 C248.86731,24.6554834 249.655483,23.8673099 250.626953,23.8673099 C251.598423,23.8673099 252.386596,24.6554834 252.386596,25.626953 C252.386596,26.5984226 251.598423,27.3865961 250.626953,27.3865961 Z" id="形状"></path>
                        </g>
                    </g>
                </g>
            </g>
        </g>
    </g>
</svg>