<?xml version="1.0" encoding="UTF-8"?>
<svg width="15px" height="16px" viewBox="0 0 15 16" version="1.1" xmlns="http://www.w3.org/2000/svg" xmlns:xlink="http://www.w3.org/1999/xlink">
    <title>形状结合</title>
    <g id="页面-1" stroke="none" stroke-width="1" fill="none" fill-rule="evenodd">
        <g id="切图整合" transform="translate(-72.000000, -331.000000)" fill="#FFFFFF" fill-rule="nonzero">
            <path d="M75.3193217,331 C77.1297085,331 78.5984498,332.468741 78.5984498,334.279128 L78.5984498,334.279128 L78.5984498,334.309273 C78.5984498,335.843329 77.5517414,337.131199 76.1349169,337.501315 C76.7981113,339.67177 78.3807344,341.433589 80.4205598,342.344644 C80.7789527,340.909398 82.0768711,339.844267 83.6226501,339.844267 C85.4447601,339.844267 86.921875,341.321382 86.921875,343.143492 C86.921875,343.454993 86.8783319,343.75477 86.7979447,344.039475 C86.7828721,344.10144 86.7594259,344.160055 86.7292807,344.213647 C86.3306941,345.367538 85.307432,346.230026 84.0614303,346.39415 C84.0095135,346.410897 83.9525726,346.420946 83.8956317,346.42262 C83.8487391,346.42262 83.8001719,346.42597 83.7516046,346.42597 C77.2620125,346.42597 72,341.182379 72,334.692787 C72,334.6124 72.0016747,334.532013 72.0033495,334.451626 C72.0016747,334.404733 72,334.357841 72,334.310948 C72,332.937667 72.8390415,331.762004 74.0314517,331.262933 C74.4266888,331.093785 74.8621195,331 75.3193217,331 Z M83.604228,332.969487 C83.8721854,332.701529 84.3076161,332.701529 84.5738987,332.969487 L84.5738987,332.969487 L86.4071379,334.801288 C86.5561577,334.927363 86.6505682,335.115766 86.6505682,335.325836 C86.6505682,335.534994 86.5572925,335.721847 86.4103453,335.847627 L84.5738987,337.683861 C84.3059414,337.951819 83.8721854,337.951819 83.604228,337.683861 C83.3362707,337.415904 83.3362707,336.980473 83.604228,336.714191 L83.604228,336.714191 L84.306,336.012 L81.2997948,336.012477 C80.9541907,336.012477 80.6694861,335.757807 80.6205778,335.427138 L80.6131541,335.325836 C80.6131541,334.947347 80.9196303,334.640871 81.2981201,334.639196 L81.2981201,334.639196 L84.304,334.639 L83.604228,333.939157 C83.3630664,333.697996 83.3389503,333.322537 83.5318796,333.054516 Z" id="形状结合"></path>
        </g>
    </g>
</svg>