<?xml version="1.0" encoding="UTF-8"?>
<svg width="21px" height="25px" viewBox="0 0 21 25" version="1.1" xmlns="http://www.w3.org/2000/svg" xmlns:xlink="http://www.w3.org/1999/xlink">
    <title>形状结合备份 2</title>
    <g id="页面-1" stroke="none" stroke-width="1" fill="none" fill-rule="evenodd">
        <g id="切图整合" transform="translate(-99.000000, -236.000000)" fill="#56E9FF" fill-rule="nonzero">
            <path d="M109.105917,236.047815 C111.790151,236.009311 114.345123,237.010398 116.278541,238.831056 C118.22846,240.665466 119.314804,243.113178 119.336806,245.725905 L119.336806,245.725905 L119.336806,245.874418 C119.361558,248.456893 118.335719,250.896355 116.446305,252.739015 C115.340709,253.819859 113.982091,254.63943 112.505213,255.120722 L112.505213,255.120722 L113.844579,258.55852 L116.553565,258.55852 C117.254875,258.55852 117.804923,259.182825 117.634408,259.884136 C117.513398,260.379179 117.029356,260.695456 116.520562,260.695456 L116.520562,260.695456 L101.828785,260.695456 C101.127474,260.695456 100.574676,260.068402 100.747941,259.367091 C100.868952,258.874798 101.352994,258.55852 101.861788,258.55852 L101.861788,258.55852 L104.53502,258.55852 L105.874387,255.117971 C101.815034,253.792356 99.0785462,250.167541 99.0400429,246.039433 L99.0400429,246.039433 L99.0400429,245.877169 C98.9960391,240.500451 103.511931,236.091818 109.105917,236.047815 Z M108.132333,255.291236 L106.905726,258.55852 L111.726895,258.55852 L110.500289,255.293987 C110.131757,255.33249 109.796227,255.351742 109.4772,255.354492 L109.4772,255.354492 L109.221427,255.354492 C108.883148,255.354492 108.525617,255.33249 108.132333,255.291236 L108.132333,255.291236 Z M109.188425,238.261757 L109.125169,238.261757 C104.705535,238.29476 101.141225,241.661052 101.176979,245.764409 L101.176979,245.764409 L101.176979,245.923923 C101.215482,249.944772 104.771541,253.217556 109.105917,253.217556 L109.105917,253.217556 L109.259931,253.217556 C110.728558,253.214806 112.188935,252.865526 113.432043,252.133962 C115.860504,250.701088 117.224623,248.335882 117.199871,245.78366 L117.199871,245.78366 L117.199871,245.637898 C117.164118,241.570294 113.569555,238.261757 109.188425,238.261757 L109.188425,238.261757 Z M109.188425,243.096677 C111.396866,243.096677 113.195523,245.008093 113.192776,247.354047 C113.192776,248.489896 112.774736,249.559738 112.01842,250.365559 C111.262105,251.171379 110.255517,251.614167 109.188425,251.614167 C108.118582,251.614167 107.111994,251.168628 106.355678,250.365559 C105.599363,249.562489 105.181326,248.492646 105.181326,247.354047 C105.181326,245.008093 106.979983,243.096677 109.188425,243.096677 Z M109.174673,245.20611 C108.135083,245.20611 107.29076,246.113689 107.29076,247.227536 C107.29076,247.769333 107.488777,248.275377 107.843558,248.65766 C108.198339,249.039943 108.67138,249.248961 109.174673,249.248961 C110.214264,249.248961 111.058587,248.341383 111.058587,247.227536 C111.058587,246.113689 110.214264,245.20611 109.174673,245.20611 Z M109.182924,239.867896 C109.776976,239.867896 110.255517,240.346438 110.255517,240.934989 C110.255517,241.52354 109.776976,242.002082 109.188425,242.002082 C108.599873,242.002082 108.121332,241.52079 108.118582,240.934989 C108.121332,240.558206 108.3276,240.203426 108.652128,240.013659 C108.817142,239.922901 109.001408,239.873397 109.182924,239.867896 Z" id="形状结合备份-2"></path>
        </g>
    </g>
</svg>