<?xml version="1.0" encoding="UTF-8"?>
<svg width="26px" height="25px" viewBox="0 0 26 25" version="1.1" xmlns="http://www.w3.org/2000/svg" xmlns:xlink="http://www.w3.org/1999/xlink">
    <title>形状结合</title>
    <g id="页面-1" stroke="none" stroke-width="1" fill="none" fill-rule="evenodd">
        <g id="切图整合" transform="translate(-43.000000, -183.000000)" fill="#FFFFFF" fill-rule="nonzero">
            <path d="M44.3066187,198.102024 C45.028901,198.102024 45.6119482,198.685071 45.6119482,199.407353 L45.611,201.707462 L46.1862931,201.707634 C46.9259799,201.707634 47.5264314,201.107182 47.5264314,200.367495 C47.5264314,199.648114 48.1094786,199.062166 48.8317609,199.062166 C49.5540432,199.062166 50.1370904,199.645213 50.1370904,200.367495 C50.1341896,202.545945 48.3618423,204.318293 46.1862931,204.318293 L45.611,204.317462 L45.6119482,206.621474 C45.6119482,207.340856 45.028901,207.923903 44.3066187,207.923903 C43.5872371,207.923903 43.0012892,207.340856 43.0012892,206.618573 L43.0012892,199.407353 C43.0012892,198.687972 43.5843364,198.102024 44.3066187,198.102024 Z M68.6524639,197.588594 C69.1658935,198.096222 69.1687942,198.922931 68.6611661,199.43346 L64.2085422,203.932495 C63.9532778,204.18776 63.6167928,204.318293 63.2803079,204.318293 C62.9496244,204.318293 62.6160402,204.193561 62.3607758,203.941198 C61.8502469,203.433569 61.8444455,202.606861 62.3520736,202.096332 L66.8075982,197.597296 C67.3123256,197.083867 68.141935,197.080966 68.6524639,197.588594 Z M49.8673223,183.992862 L66.2564591,193.455051 C66.6074477,193.658102 66.8453077,194.011991 66.8975209,194.412292 C66.9497341,194.812593 66.8133997,195.218696 66.5291279,195.505868 L59.358518,202.708386 C59.1061543,202.96075 58.7696694,203.091283 58.4331844,203.091283 C58.209828,203.091283 57.9835709,203.033268 57.7805197,202.917239 L43.653954,194.76038 C43.3551785,194.586336 43.1347229,194.302064 43.0448002,193.96848 C42.9548775,193.634896 43.0012892,193.278106 43.1753331,192.979331 L48.0862727,184.471483 C48.4459635,183.847826 49.2436649,183.633172 49.8673223,183.992862 Z M49.6961791,186.908098 L48.013,189.821462 L55.3932171,194.00619 C56.0197752,194.36298 56.2402309,195.15778 55.8834408,195.784339 C55.6455808,196.207846 55.2046695,196.445706 54.7492545,196.445706 C54.5316996,196.445706 54.311244,196.390592 54.105292,196.274562 L46.709,192.080462 L46.090569,193.153375 L58.2156295,200.155742 L63.4804584,194.867707 L49.6961791,186.908098 Z" id="形状结合"></path>
        </g>
    </g>
</svg>