<?xml version="1.0" encoding="UTF-8"?>
<svg width="26px" height="25px" viewBox="0 0 26 25" version="1.1" xmlns="http://www.w3.org/2000/svg" xmlns:xlink="http://www.w3.org/1999/xlink">
    <title>形状结合备份 3</title>
    <g id="页面-1" stroke="none" stroke-width="1" fill="none" fill-rule="evenodd">
        <g id="切图整合" transform="translate(-43.000000, -233.000000)" fill="#56E9FF" fill-rule="nonzero">
            <path d="M44.3066187,248.102024 C45.028901,248.102024 45.6119482,248.685071 45.6119482,249.407353 L45.611,251.707462 L46.1862931,251.707634 C46.9259799,251.707634 47.5264314,251.107182 47.5264314,250.367495 C47.5264314,249.648114 48.1094786,249.062166 48.8317609,249.062166 C49.5540432,249.062166 50.1370904,249.645213 50.1370904,250.367495 C50.1341896,252.545945 48.3618423,254.318293 46.1862931,254.318293 L45.611,254.317462 L45.6119482,256.621474 C45.6119482,257.340856 45.028901,257.923903 44.3066187,257.923903 C43.5872371,257.923903 43.0012892,257.340856 43.0012892,256.618573 L43.0012892,249.407353 C43.0012892,248.687972 43.5843364,248.102024 44.3066187,248.102024 Z M68.6524639,247.588594 C69.1658935,248.096222 69.1687942,248.922931 68.6611661,249.43346 L64.2085422,253.932495 C63.9532778,254.18776 63.6167928,254.318293 63.2803079,254.318293 C62.9496244,254.318293 62.6160402,254.193561 62.3607758,253.941198 C61.8502469,253.433569 61.8444455,252.606861 62.3520736,252.096332 L66.8075982,247.597296 C67.3123256,247.083867 68.141935,247.080966 68.6524639,247.588594 Z M49.8673223,233.992862 L66.2564591,243.455051 C66.6074477,243.658102 66.8453077,244.011991 66.8975209,244.412292 C66.9497341,244.812593 66.8133997,245.218696 66.5291279,245.505868 L59.358518,252.708386 C59.1061543,252.96075 58.7696694,253.091283 58.4331844,253.091283 C58.209828,253.091283 57.9835709,253.033268 57.7805197,252.917239 L43.653954,244.76038 C43.3551785,244.586336 43.1347229,244.302064 43.0448002,243.96848 C42.9548775,243.634896 43.0012892,243.278106 43.1753331,242.979331 L48.0862727,234.471483 C48.4459635,233.847826 49.2436649,233.633172 49.8673223,233.992862 Z M49.6961791,236.908098 L48.013,239.821462 L55.3932171,244.00619 C56.0197752,244.36298 56.2402309,245.15778 55.8834408,245.784339 C55.6455808,246.207846 55.2046695,246.445706 54.7492545,246.445706 C54.5316996,246.445706 54.311244,246.390592 54.105292,246.274562 L46.709,242.080462 L46.090569,243.153375 L58.2156295,250.155742 L63.4804584,244.867707 L49.6961791,236.908098 Z" id="形状结合备份-3"></path>
        </g>
    </g>
</svg>