<?xml version="1.0" encoding="UTF-8"?>
<svg width="12px" height="14px" viewBox="0 0 12 14" version="1.1" xmlns="http://www.w3.org/2000/svg" xmlns:xlink="http://www.w3.org/1999/xlink">
    <title>预览</title>
    <defs>
        <filter id="filter-1">
            <feColorMatrix in="SourceGraphic" type="matrix" values="0 0 0 0 0.337255 0 0 0 0 0.913725 0 0 0 0 1.000000 0 0 0 1.000000 0"></feColorMatrix>
        </filter>
    </defs>
    <g id="飞巡" stroke="none" stroke-width="1" fill="none" fill-rule="evenodd">
        <g id="雪碧图" transform="translate(-127.000000, -298.000000)">
            <g id="编组-4" transform="translate(0.000000, 15.000000)">
                <g id="垃圾桶" transform="translate(34.000000, 18.000000)" filter="url(#filter-1)">
                    <g transform="translate(93.000000, 265.000000)">
                        <path d="M10.7606771,1.80833333 L8.70078125,1.80833333 L8.70078125,1.16302083 C8.70078125,0.526822917 8.18307292,0.00911458333 7.546875,0.00911458333 L4.30208333,0.00911458333 C3.66588542,0.00911458333 3.14817708,0.526822917 3.14817708,1.16302083 L3.14817708,1.80833333 L1.08828125,1.80833333 C0.488541667,1.80833333 -1.32634644e-15,2.296875 -1.32634644e-15,2.89661458 L-1.32634644e-15,3.5984375 C-1.32634644e-15,4.19817708 0.488541667,4.68671875 1.08828125,4.68671875 L1.12109375,4.68671875 L1.12109375,12.2117188 C1.12109375,13.1979167 1.92317708,14 2.909375,14 L8.94140625,14 C9.92760417,14 10.7296875,13.1979167 10.7296875,12.2117188 L10.7296875,4.68671875 L10.7625,4.68671875 C11.3622396,4.68671875 11.8507812,4.19817708 11.8507812,3.5984375 L11.8507812,2.89661458 C11.8489583,2.296875 11.3622396,1.80833333 10.7606771,1.80833333 Z M3.9265625,1.16302083 C3.9265625,0.955208333 4.09427083,0.7875 4.30208333,0.7875 L7.546875,0.7875 C7.7546875,0.7875 7.92239583,0.955208333 7.92239583,1.16302083 L7.92239583,1.80833333 L3.9265625,1.80833333 L3.9265625,1.16302083 Z M9.94947917,12.2098958 C9.94947917,12.7658854 9.49739583,13.2197917 8.93958333,13.2197917 L2.90755208,13.2197917 C2.3515625,13.2197917 1.89765625,12.7677083 1.89765625,12.2098958 L1.89765625,4.68671875 L9.94947917,4.68671875 L9.94947917,12.2098958 Z M11.0705729,3.5984375 C11.0705729,3.76979167 10.9320312,3.90833333 10.7606771,3.90833333 L1.08828125,3.90833333 C0.916927083,3.90833333 0.778385417,3.76979167 0.778385417,3.5984375 L0.778385417,2.89661458 C0.778385417,2.72526042 0.916927083,2.58671875 1.08828125,2.58671875 L10.7625,2.58671875 C10.9338542,2.58671875 11.0723958,2.72526042 11.0723958,2.89661458 L11.0723958,3.5984375 L11.0705729,3.5984375 Z" id="形状" fill="#000000" fill-rule="nonzero"></path>
                        <path d="M3.44348958,6.07578125 L4.221875,6.07578125 L4.221875,11.8635417 L3.44348958,11.8635417 L3.44348958,6.07578125 Z M5.534375,6.07578125 L6.31276042,6.07578125 L6.31276042,11.8635417 L5.534375,11.8635417 L5.534375,6.07578125 Z M7.62708333,6.07578125 L8.40546875,6.07578125 L8.40546875,11.8635417 L7.62708333,11.8635417 L7.62708333,6.07578125 Z" id="形状" fill="#000000" fill-rule="nonzero"></path>
                    </g>
                </g>
            </g>
        </g>
    </g>
</svg>