<?xml version="1.0" encoding="UTF-8"?>
<svg width="13px" height="16px" viewBox="0 0 13 16" version="1.1" xmlns="http://www.w3.org/2000/svg" xmlns:xlink="http://www.w3.org/1999/xlink">
    <title>编组</title>
    <g id="飞巡" stroke="none" stroke-width="1" fill="none" fill-rule="evenodd" opacity="0.600000024">
        <g id="雪碧图" transform="translate(-464.000000, -44.000000)" fill="#FFFFFF" fill-rule="nonzero">
            <g id="编组-4" transform="translate(0.000000, 15.000000)">
                <g id="编组" transform="translate(34.000000, 18.000000)">
                    <path d="M442.86386,17.55946 C442.86386,13.93668 439.98418,11 436.43186,11 C432.87964,11 430,13.93668 430,17.55946 C430,17.67444 430.0111,17.78558 430.01692,17.89814 C430.01164,17.95374 430,18.00736 430,18.06442 C430,22.1017 435.93718,26.67484 435.93718,26.67484 C435.93718,26.67484 436.43192,27.0532 436.92668,26.67484 C437.42142,26.29606 442.86386,22.1017 442.86386,18.06442 C442.86386,18.00736 442.85222,17.95374 442.84694,17.89814 C442.8527,17.78558 442.86386,17.67444 442.86386,17.55946 L442.86386,17.55946 Z M436.43186,20.083 C435.06548,20.083 433.95812,18.95342 433.95812,17.55946 C433.95812,16.16648 435.06546,15.03686 436.43186,15.03686 C437.79832,15.03686 438.90574,16.16648 438.90574,17.55946 C438.90574,18.95342 437.79832,20.083 436.43186,20.083 L436.43186,20.083 Z" id="形状"></path>
                </g>
            </g>
        </g>
    </g>
</svg>