<?xml version="1.0" encoding="UTF-8"?>
<svg width="20px" height="22px" viewBox="0 0 20 22" version="1.1" xmlns="http://www.w3.org/2000/svg" xmlns:xlink="http://www.w3.org/1999/xlink">
    <title>形状结合</title>
    <g id="Page-1" stroke="none" stroke-width="1" fill="none" fill-rule="evenodd">
        <g id="雪碧图" transform="translate(-392.000000, -408.000000)" fill="#F7B500" fill-rule="nonzero">
            <g id="编组">
                <path d="M405.801429,408 C408.565714,408 410.105714,409.465714 410.208571,412.17 L410.214287,412.464286 L410.214287,423.714286 C410.214351,423.748983 410.211929,423.783146 410.207183,423.816598 C411.243252,424.120448 412,425.078993 412,426.214286 C412,427.594998 410.880712,428.714286 409.5,428.714286 C408.119288,428.714286 407,427.594998 407,426.214286 C407,425.078262 407.757724,424.119213 408.795343,423.814969 L408.785713,423.714286 L408.785713,412.464286 C408.785713,410.357143 407.871429,409.428571 405.801429,409.428571 C403.815714,409.428571 402.858571,410.288571 402.727143,412.197143 L402.714286,412.464286 L402.714286,424.964286 C402.714286,427.858571 401.147143,429.428571 398.255714,429.428571 C395.464286,429.428571 393.904286,427.965714 393.791429,425.258571 L393.785713,424.964286 L393.785713,413.714286 C393.785649,413.679249 393.788119,413.644757 393.792957,413.610993 C392.756748,413.308123 392,412.349578 392,411.214286 C392,409.833574 393.119288,408.714286 394.5,408.714286 C395.880712,408.714286 397,409.833574 397,411.214286 C397,412.35031 396.242276,413.309358 395.204657,413.613602 L395.214286,413.714286 L395.214286,424.962857 C395.22,427.068571 396.152857,428 398.255714,428 C400.27,428 401.205714,427.145714 401.281429,425.221429 L401.285713,424.964286 L401.285713,412.444286 C401.365714,409.56 402.947143,408 405.801429,408 Z" id="形状结合"></path>
            </g>
        </g>
    </g>
</svg>