<?xml version="1.0" encoding="UTF-8"?>
<svg width="16px" height="16px" viewBox="0 0 16 16" version="1.1" xmlns="http://www.w3.org/2000/svg" xmlns:xlink="http://www.w3.org/1999/xlink">
    <title>形状</title>
    <g id="Page-1" stroke="none" stroke-width="1" fill="none" fill-rule="evenodd">
        <g id="编组-16" transform="translate(-150.000000, 0.000000)" fill="#FFFFFF" fill-rule="nonzero">
            <path d="M158,0 C153.582143,0 150,3.58214286 150,8 C150,12.4178571 153.582143,16 158,16 C162.417857,16 166,12.4178571 166,8 C166,3.58214286 162.417857,0 158,0 Z M161.178571,9.91071429 L160.341071,9.91071429 C160.158929,9.91071429 159.985714,9.82321429 159.878571,9.675 L158,7.07857143 L156.121429,9.675 C156.014286,9.82321429 155.842857,9.91071429 155.658929,9.91071429 L154.821429,9.91071429 C154.705357,9.91071429 154.6375,9.77857143 154.705357,9.68392857 L157.883929,5.29107143 C157.941071,5.2125 158.057143,5.2125 158.114286,5.29107143 L161.292857,9.68392857 C161.3625,9.77857143 161.294643,9.91071429 161.178571,9.91071429 Z" id="形状"></path>
        </g>
    </g>
</svg>