<?xml version="1.0" encoding="UTF-8"?>
<svg width="33px" height="26px" viewBox="0 0 33 26" version="1.1" xmlns="http://www.w3.org/2000/svg" xmlns:xlink="http://www.w3.org/1999/xlink">
    <title>列表</title>
    <g id="事件信息、组织动态、辅助工具" stroke="none" stroke-width="1" fill="none" fill-rule="evenodd">
        <g id="选择事件-暂无数据" transform="translate(-773.000000, -20.000000)" fill="#FFFFFF" fill-rule="nonzero">
            <g id="编组-4" transform="translate(610.000000, 0.000000)">
                <g id="列表" transform="translate(163.000000, 20.000000)">
                    <path d="M3.77588165,20.1380354 C4.61496645,20.1380354 5.03450886,20.5575779 5.03450886,21.3966627 L5.03450886,23.9139171 C5.03450886,24.7530019 4.61496645,25.1725443 3.77588165,25.1725443 L1.25862721,25.1725443 C0.419542402,25.1725443 -6.66133815e-15,24.7530019 -6.66133815e-15,23.9139171 L-6.66133815e-15,21.3966627 C-6.66133815e-15,20.5575779 0.419542402,20.1380354 1.25862721,20.1380354 L3.77588165,20.1380354 Z M3.77588165,10.0690177 C4.61496645,10.0690177 5.03450886,10.4885601 5.03450886,11.3276449 L5.03450886,13.8448994 C5.03450886,14.6839842 4.61496645,15.1035266 3.77588165,15.1035266 L1.25862721,15.1035266 C0.419542402,15.1035266 -6.66133815e-15,14.6839842 -6.66133815e-15,13.8448994 L-6.66133815e-15,11.3276449 C-6.66133815e-15,10.4885601 0.419542402,10.0690177 1.25862721,10.0690177 L3.77588165,10.0690177 Z M3.77588165,1.24389388e-12 C4.61496645,1.24389388e-12 5.03450886,0.419542402 5.03450886,1.25862721 L5.03450886,3.77588165 C5.03450886,4.61496645 4.61496645,5.03450886 3.77588165,5.03450886 L1.25862721,5.03450886 C0.419542402,5.03450886 -6.66133815e-15,4.61496645 -6.66133815e-15,3.77588165 L-6.66133815e-15,1.25862721 C-6.66133815e-15,0.419542402 0.419542402,1.24389388e-12 1.25862721,1.24389388e-12 L3.77588165,1.24389388e-12 Z" id="形状结合" opacity="0.800000012"></path>
                    <path d="M31.4656804,20.1380354 C32.3047652,20.1380354 32.7243076,20.5575779 32.7243076,21.3966627 L32.7243076,23.9139171 C32.7243076,24.7530019 32.3047652,25.1725443 31.4656804,25.1725443 L8.8103905,25.1725443 C7.9713057,25.1725443 7.5517633,24.7530019 7.5517633,23.9139171 L7.5517633,21.3966627 C7.5517633,20.5575779 7.9713057,20.1380354 8.8103905,20.1380354 L31.4656804,20.1380354 Z M31.4656804,10.0690177 C32.3047652,10.0690177 32.7243076,10.4885601 32.7243076,11.3276449 L32.7243076,13.8448994 C32.7243076,14.6839842 32.3047652,15.1035266 31.4656804,15.1035266 L8.8103905,15.1035266 C7.9713057,15.1035266 7.5517633,14.6839842 7.5517633,13.8448994 L7.5517633,11.3276449 C7.5517633,10.4885601 7.9713057,10.0690177 8.8103905,10.0690177 L31.4656804,10.0690177 Z M31.4656804,1.24389388e-12 C32.3047652,1.24389388e-12 32.7243076,0.419542402 32.7243076,1.25862721 L32.7243076,3.77588165 C32.7243076,4.61496645 32.3047652,5.03450886 31.4656804,5.03450886 L8.8103905,5.03450886 C7.9713057,5.03450886 7.5517633,4.61496645 7.5517633,3.77588165 L7.5517633,1.25862721 C7.5517633,0.419542402 7.9713057,1.24389388e-12 8.8103905,1.24389388e-12 L31.4656804,1.24389388e-12 Z" id="形状结合"></path>
                </g>
            </g>
        </g>
    </g>
</svg>