<?xml version="1.0" encoding="UTF-8"?>
<svg width="51px" height="66px" viewBox="0 0 51 66" version="1.1" xmlns="http://www.w3.org/2000/svg" xmlns:xlink="http://www.w3.org/1999/xlink">
    <title>视频链摄像头</title>
    <defs>
        <ellipse id="path-1" cx="24" cy="58" rx="24" ry="8"></ellipse>
        <filter x="0.0%" y="0.0%" width="100.0%" height="100.0%" filterUnits="objectBoundingBox" id="filter-2">
            <feGaussianBlur stdDeviation="0" in="SourceGraphic"></feGaussianBlur>
        </filter>
        <filter x="-6.2%" y="-18.8%" width="112.5%" height="137.5%" filterUnits="objectBoundingBox" id="filter-3">
            <feMorphology radius="2" operator="erode" in="SourceAlpha" result="shadowSpreadInner1"></feMorphology>
            <feGaussianBlur stdDeviation="2" in="shadowSpreadInner1" result="shadowBlurInner1"></feGaussianBlur>
            <feOffset dx="0" dy="0" in="shadowBlurInner1" result="shadowOffsetInner1"></feOffset>
            <feComposite in="shadowOffsetInner1" in2="SourceAlpha" operator="arithmetic" k2="-1" k3="1" result="shadowInnerInner1"></feComposite>
            <feColorMatrix values="0 0 0 0 0   0 0 0 0 0.396886727   0 0 0 0 0.456691576  0 0 0 1 0" type="matrix" in="shadowInnerInner1"></feColorMatrix>
        </filter>
        <filter x="0.0%" y="0.0%" width="100.0%" height="100.0%" filterUnits="objectBoundingBox" id="filter-4">
            <feGaussianBlur stdDeviation="0" in="SourceGraphic"></feGaussianBlur>
        </filter>
        <linearGradient x1="50%" y1="0%" x2="50%" y2="100%" id="linearGradient-5">
            <stop stop-color="#0076B1" offset="0%"></stop>
            <stop stop-color="#56E9FF" offset="100%"></stop>
        </linearGradient>
        <linearGradient x1="50%" y1="0%" x2="50%" y2="100%" id="linearGradient-6">
            <stop stop-color="#006891" offset="0%"></stop>
            <stop stop-color="#56E9FF" offset="100%"></stop>
        </linearGradient>
        <path d="M24,8 C35.045695,8 44,16.954305 44,28 C44,33.2310375 41.991733,37.9930191 38.704141,41.5570027 L24,59.2 L9.30601755,41.5680071 C6.01240446,38.0028242 4,33.2364232 4,28 C4,16.954305 12.954305,8 24,8 Z" id="path-7"></path>
        <filter id="filter-8">
            <feColorMatrix in="SourceGraphic" type="matrix" values="0 0 0 0 1.000000 0 0 0 0 1.000000 0 0 0 0 1.000000 0 0 0 1.000000 0"></feColorMatrix>
        </filter>
    </defs>
    <g id="飞巡" stroke="none" stroke-width="1" fill="none" fill-rule="evenodd">
        <g id="雪碧图" transform="translate(-268.000000, -139.000000)">
            <g id="编组-4" transform="translate(0.000000, 15.000000)">
                <g id="视频链摄像头" transform="translate(268.000000, 124.000000)">
                    <g id="椭圆形" opacity="0.800000012" filter="url(#filter-2)" fill="black" fill-opacity="1">
                        <use filter="url(#filter-3)" xlink:href="#path-1"></use>
                    </g>
                    <ellipse id="椭圆形" fill="#006D7E" opacity="0.703760901" filter="url(#filter-4)" cx="24" cy="58" rx="12" ry="4"></ellipse>
                    <circle id="椭圆形" fill="#34A7ED" cx="24" cy="26" r="20"></circle>
                    <path d="M24,4 C35.045695,4 44,12.954305 44,24 C44,29.2310375 41.991733,33.9930191 38.704141,37.5570027 L24,55.2 L9.30601755,37.5680071 C6.01240446,34.0028242 4,29.2364232 4,24 C4,12.954305 12.954305,4 24,4 Z" id="形状结合" fill="#56E9FF"></path>
                    <g id="形状结合">
                        <use fill="url(#linearGradient-5)" xlink:href="#path-7"></use>
                        <use fill="url(#linearGradient-6)" xlink:href="#path-7"></use>
                    </g>
                    <circle id="椭圆形" fill="#FFFFFF" opacity="0.699999988" cx="24" cy="28" r="16"></circle>
                    <path d="M14,29.1186787 L17.5174875,29.45093 L17.5174875,33.6599378 L23.1061923,32.2795032 L23.1061923,30.751934 L22.4272591,30.751934 L22.4272591,28.8241146 L19.2180289,28.3099917 L17.3910772,26.5809821 L17.9731991,22.9448773 L28.8438755,24.6860559 C28.9200118,24.4121914 29.0153482,24.1604769 29.1251644,23.9387302 L16.9638337,21.9913174 L18.9408456,18.5082228 L20.2713994,18 L31.641768,19.8210025 L32.7169199,19.9932372 L33.9391817,20.1887529 L35.8248644,20.491061 L35.7568653,22.2244956 L33.6538611,24.5352337 L32.7047263,24.4021611 L33.1644942,21.5322133 L34.9419094,21.8167964 L34.9666654,21.1947748 L32.3864878,20.7815688 L32.2386649,20.8381117 L30.4250376,23.0057962 C30.9934909,23.2360489 31.285105,24.3555993 31.0818454,25.6262914 C30.8637617,26.9886322 30.1581795,28.0087161 29.506608,27.9041117 C29.1968756,27.8545997 28.954798,27.5596668 28.809876,27.1172305 L28.6369038,28.1964633 L30.4350186,30.1065578 L25.7252125,29.3522011 L25.7252125,30.7518603 L25.0846792,30.7518603 L25.0846792,33.5002408 L17.5174629,35.369649 L17.5174629,39.4182468 L14,40 L14,29.1186787 L14,29.1186787 Z M30.0728242,24.3685796 C29.7907978,24.3234927 29.4855151,24.7651669 29.3908917,25.3554506 C29.2962683,25.9452919 29.4485409,26.4605457 29.7305673,26.5056325 C30.0129378,26.5507439 30.3182206,26.1090698 30.412844,25.5188106 C30.507074,24.9289202 30.3551947,24.413691 30.0728242,24.3685796 Z M29.9844697,29.6279832 L30.6102034,30.1993865 L32.7239263,28.8880327 L33.3507909,24.9751133 L32.5298856,24.8438845 L31.962932,28.3849971 L29.9844697,29.6279832 L29.9844697,29.6279832 Z" id="形状" fill="#3B3C3D" fill-rule="nonzero"></path>
                    <g id="编组" transform="translate(31.000000, 0.000000)">
                        <circle id="椭圆形" stroke="#FFFFFF" fill="#FF3F3F" cx="10" cy="10" r="9.5"></circle>
                        <g filter="url(#filter-8)" id="链">
                            <g transform="translate(4.000000, 4.000000)">
                                <path d="M5.21669823,7.70814394 C5.05104167,7.70814394 4.89346591,7.64147727 4.77831439,7.52632575 L4.43892045,7.18693181 C3.95003156,6.69804292 3.6773043,6.04551767 3.6773043,5.35056819 C3.6773043,4.65561869 3.95003156,4.00915405 4.43892045,3.51420455 L7.1863952,0.766729797 C7.67528409,0.277840906 8.32780934,0.00511364062 9.02275884,0.00511364062 C9.71770834,0.00511364062 10.364173,0.277840906 10.8591225,0.766729797 L11.1985164,1.10612373 C11.6874053,1.59501263 11.9601326,2.24753788 11.9601326,2.94248738 C11.9601326,3.63743688 11.6874053,4.28390152 11.1985164,4.77885102 L10.1399306,5.83743688 C10.024779,5.95258839 9.8672033,6.01925506 9.70154672,6.01925505 C9.53589014,6.01925503 9.37023359,5.95258838 9.25508208,5.83743687 C9.01467803,5.58895203 9.01467803,5.19299244 9.25508208,4.95258839 L10.3136679,3.89400253 C10.5702336,3.63743687 10.7035669,3.30612375 10.7035669,2.95056819 C10.7035669,2.59501262 10.5621528,2.25561869 10.3136679,2.00713384 L9.97427398,1.66773991 C9.71770833,1.41117425 9.3863952,1.27784092 9.03083964,1.27784091 C8.67528408,1.27784089 8.33589014,1.41925505 8.0874053,1.66773991 L5.32578914,4.39905303 C5.06922348,4.65561869 4.93589016,4.98693181 4.93589016,5.34248738 C4.93589016,5.69804294 5.0773043,6.03743688 5.32578914,6.28592172 L5.66518308,6.62531566 C5.91366792,6.8738005 5.91366792,7.26976009 5.66518308,7.51016414 C5.55811237,7.61723484 5.40053661,7.68390152 5.24296086,7.69198233 L5.21669823,7.70814394 L5.21669823,7.70814394 Z" id="路径" fill="#2C2C2C" fill-rule="nonzero"></path>
                                <path d="M2.94195075,11.9445076 C2.24700125,11.9445076 1.60053661,11.6717803 1.10558713,11.1828914 L0.766193188,10.8434975 C0.277304297,10.3566288 0.00457701563,9.70208333 0.00457701563,9.00713384 C0.00457701563,8.31218434 0.277304281,7.6657197 0.766193188,7.1707702 L1.97427398,5.97885102 C2.0894255,5.8636995 2.25508206,5.79703283 2.41265783,5.79703283 C2.57831439,5.79703283 2.74397095,5.8636995 2.85912247,5.97885102 C2.97427398,6.09400253 3.04094066,6.25965909 3.04094066,6.42531566 C3.04094066,6.59097222 2.97427398,6.74854798 2.85912247,6.8717803 L1.65912247,8.0717803 C1.13791034,8.59299242 1.13791034,9.44551767 1.65912247,9.9667298 L1.99851642,10.3061237 C2.24700127,10.5546086 2.5863952,10.6960227 2.94195075,10.6960227 L2.95003156,10.6960227 C3.29750631,10.6960227 3.64498106,10.5546086 3.89346591,10.3061237 L6.64094066,7.55864898 C7.16215278,7.03743686 7.16215278,6.18491161 6.64094066,5.6636995 L6.30154672,5.32430556 C6.06114267,5.07582072 6.06114267,4.67986112 6.30154672,4.43945708 C6.41669823,4.32430556 6.5823548,4.25763889 6.73993056,4.25763889 C6.90558713,4.25763889 7.06316289,4.32430556 7.1863952,4.43945708 L7.52578914,4.77885102 C8.53589016,5.78895203 8.53589016,7.43541667 7.52578914,8.44551767 L4.77831439,11.1929924 C4.28336489,11.6798611 3.63690025,11.9445076 2.94195075,11.9445076 L2.94195075,11.9445076 Z" id="路径" fill="#2C2C2C" fill-rule="nonzero"></path>
                            </g>
                        </g>
                    </g>
                </g>
            </g>
        </g>
    </g>
</svg>