<?xml version="1.0" encoding="UTF-8"?>
<svg width="12px" height="12px" viewBox="0 0 12 12" version="1.1" xmlns="http://www.w3.org/2000/svg" xmlns:xlink="http://www.w3.org/1999/xlink">
    <title>路径</title>
    <g id="Page-1" stroke="none" stroke-width="1" fill="none" fill-rule="evenodd">
        <g id="雪碧图" transform="translate(-504.000000, 0.000000)" fill="#FFFFFF" fill-rule="nonzero">
            <g id="编组-2" transform="translate(504.000000, 0.000000)">
                <path d="M6.7914524,5.7864433 L11.3724241,1.2090673 C11.649296,0.93219538 11.649296,0.48452585 11.3724241,0.20945181 C11.0955521,-0.06742011 10.6478826,-0.06742011 10.3728086,0.20945181 L5.790039,4.7850299 L1.20726943,0.20765394 C0.93039751,-0.06921798 0.48272798,-0.06921798 0.20765394,0.20765394 C-0.06921798,0.48452585 -0.06921798,0.93219538 0.20765394,1.20726943 L4.7886256,5.7846454 L0.20765394,10.3638192 C-0.06921798,10.6406911 -0.06921798,11.0883607 0.20765394,11.3634347 C0.3460899,11.5018707 0.52767472,11.5701897 0.70746168,11.5701897 C0.88904651,11.5701897 1.06883347,11.5018707 1.20726943,11.3634347 L5.790039,6.7860588 L10.3728086,11.3652326 C10.5112445,11.5036685 10.6910315,11.5719876 10.8726163,11.5719876 C11.0542011,11.5719876 11.2339881,11.5036685 11.3724241,11.3652326 C11.649296,11.0883607 11.649296,10.6406911 11.3724241,10.3656171 L6.7914524,5.7864433 Z" id="路径"></path>
            </g>
        </g>
    </g>
</svg>