<?xml version="1.0" encoding="UTF-8"?>
<svg width="12px" height="12px" viewBox="0 0 12 12" version="1.1" xmlns="http://www.w3.org/2000/svg" xmlns:xlink="http://www.w3.org/1999/xlink">
    <title>路径</title>
    <g id="页面-1" stroke="none" stroke-width="1" fill="none" fill-rule="evenodd">
        <g id="通讯录-设置应急岗位" transform="translate(-907.000000, -634.000000)" fill="#F66E6E" fill-rule="nonzero">
            <g id="弹窗" transform="translate(540.000000, 153.000000)">
                <g id="编组-6备份" transform="translate(16.000000, 157.000000)">
                    <path d="M363,324.285375 C363,324.128419 362.875433,324 362.723183,324 L360.439446,324.010702 L357,328.237812 L353.564014,324.014269 L351.276817,324.003567 C351.124567,324.003567 351,324.128419 351,324.288942 C351,324.356718 351.024221,324.420927 351.065744,324.474435 L355.567474,330.003567 L351.065744,335.529132 C351.024221,335.58264 351,335.646849 351,335.714625 C351,335.871581 351.124567,336 351.276817,336 L353.564014,335.989298 L357,331.762188 L360.435986,335.985731 L362.719723,335.996433 C362.871972,335.996433 362.99654,335.871581 362.99654,335.711058 C362.99654,335.643282 362.972318,335.579073 362.930796,335.525565 L358.435986,330 L362.937716,324.470868 C362.979239,324.420927 363,324.353151 363,324.285375 Z" id="路径"></path>
                </g>
            </g>
        </g>
    </g>
</svg>