<?xml version="1.0" encoding="UTF-8"?>
<svg width="44px" height="44px" viewBox="0 0 44 44" version="1.1" xmlns="http://www.w3.org/2000/svg" xmlns:xlink="http://www.w3.org/1999/xlink">
    <title>编组-2</title>
    <g id="Page-1" stroke="none" stroke-width="1" fill="none" fill-rule="evenodd">
        <g id="雪碧图" transform="translate(-815.000000, -213.000000)" fill-rule="nonzero">
            <g id="编组-2" transform="translate(815.000000, 213.000000)">
                <circle id="椭圆形" fill="#F66E6E" cx="22" cy="22" r="22"></circle>
                <path d="M23.3160224,22.5008157 L31.6234281,14.1941272 C32.125524,13.6916803 32.125524,12.8792822 31.6234281,12.3800979 C31.121332,11.8776509 30.3095016,11.8776509 29.8106661,12.3800979 L21.5,20.6835236 L13.189334,12.3768352 C12.687238,11.8743883 11.8754075,11.8743883 11.376572,12.3768352 C10.874476,12.8792822 10.874476,13.6916803 11.376572,14.1908646 L19.6839776,22.497553 L11.376572,30.807504 C10.874476,31.309951 10.874476,32.1223491 11.376572,32.6215334 C11.6276199,32.872757 11.9569166,32.9967373 12.282953,32.9967373 C12.6122496,32.9967373 12.938286,32.872757 13.189334,32.6215334 L21.5,24.3148451 L29.8106661,32.6247961 C30.0617139,32.8760195 30.3877503,33 30.717047,33 C31.0463436,33 31.37238,32.8760195 31.6234281,32.6247961 C32.125524,32.1223491 32.125524,31.309951 31.6234281,30.8107667 L23.3160224,22.5008157 Z" id="路径" fill="#FFFFFF"></path>
            </g>
        </g>
    </g>
</svg>