<?xml version="1.0" encoding="UTF-8"?>
<svg width="45px" height="45px" viewBox="0 0 45 45" version="1.1" xmlns="http://www.w3.org/2000/svg" xmlns:xlink="http://www.w3.org/1999/xlink">
    <title>确认</title>
    <g id="Page-1" stroke="none" stroke-width="1" fill="none" fill-rule="evenodd">
        <circle id="Oval" fill="#FFFFFF" cx="22" cy="21" r="15"></circle>
        <g id="雪碧图" transform="translate(-762.000000, -156.000000)" fill="#00EFCC" fill-rule="nonzero">
            <g id="编组-2" transform="translate(504.000000, 0.000000)">
                <g id="确认" transform="translate(258.000000, 156.000000)">
                    <path d="M22.5,45 C10.07325,45 0,34.92675 0,22.5 C0,10.07325 10.07325,0 22.5,0 C34.92675,0 45,10.07325 45,22.5 C45,34.92675 34.92675,45 22.5,45 Z M35.664,15.336 C35.0955,14.7675 34.173,14.7675 33.6045,15.336 L19.47825,29.46225 L11.439,21.423 C10.8825,20.86575 9.9795,20.86575 9.423,21.423 C8.86575,21.9795 8.86575,22.8825 9.423,23.439 L18.17175,32.18775 C18.24,32.32425 18.3135,32.45925 18.4275,32.57325 C18.99525,33.14175 19.91775,33.14175 20.48625,32.57325 L35.664,17.3955 C36.2325,16.827 36.2325,15.9045 35.664,15.336 Z" id="Shape"></path>
                </g>
            </g>
        </g>
    </g>
</svg>