<?xml version="1.0" standalone="no"?><!DOCTYPE svg PUBLIC "-//W3C//DTD SVG 1.1//EN" "http://www.w3.org/Graphics/SVG/1.1/DTD/svg11.dtd"><svg t="1626755371673" class="icon" viewBox="0 0 1024 1024" version="1.1" xmlns="http://www.w3.org/2000/svg" p-id="1996" xmlns:xlink="http://www.w3.org/1999/xlink" width="48" height="48"><defs><style type="text/css"></style></defs><path d="M874.112 150.08c-96.64-96.64-225.28-149.76-362.24-149.76s-265.6 53.12-362.24 149.76c-199.68 199.68-199.68 524.16 0 723.84 96.64 96.64 225.28 149.76 362.24 149.76s265.6-53.12 362.24-149.76c96.64-96.64 149.76-224.64 149.76-361.6s-53.12-265.6-149.76-362.24z m-72.32 652.16c-77.44 76.8-180.48 119.68-289.92 119.68-109.44 0-212.48-42.88-289.92-119.68-160-160-160-419.84 0-579.2 77.44-77.44 180.48-119.68 289.92-119.68 109.44 0 212.48 42.88 289.92 119.68 77.44 77.44 119.68 180.48 119.68 289.92 0 109.44-42.88 211.84-119.68 289.28z m-176.64-531.2c-19.84-19.84-52.48-19.84-72.32 0l-204.8 204.8c-4.48 4.48-7.68 9.6-10.24 15.36 0 0.64-0.64 0.64-0.64 1.28-0.64 1.92-1.28 4.48-1.92 7.04 0 0.64-0.64 1.92-0.64 2.56-1.28 6.4-1.28 13.44 0 19.84 0 0.64 0.64 1.92 0.64 2.56 0.64 2.56 1.28 4.48 1.92 7.04 0 0.64 0.64 0.64 0.64 1.28 2.56 5.76 5.76 10.88 10.24 15.36l204.8 204.8c10.24 10.24 23.04 14.72 36.48 14.72s26.24-5.12 36.48-14.72c19.84-19.84 19.84-52.48 0-72.32l-169.6-168.32 168.32-168.32c20.48-20.48 20.48-52.48 0.64-72.96z" p-id="1997" fill="#ffffff"></path></svg>