<?xml version="1.0" encoding="UTF-8"?>
<svg width="23px" height="20px" viewBox="0 0 23 20" version="1.1" xmlns="http://www.w3.org/2000/svg" xmlns:xlink="http://www.w3.org/1999/xlink">
    <title>形状结合</title>
    <g id="事件信息、组织动态、辅助工具" stroke="none" stroke-width="1" fill="none" fill-rule="evenodd">
        <g id="补充右下角工具" transform="translate(-1456.000000, -205.000000)" fill="#FFFFFF" fill-rule="nonzero">
            <g id="工具栏备份-2" transform="translate(1441.000000, 74.000000)">
                <g id="编组-6" transform="translate(14.000000, 131.000000)">
                    <g id="出图" transform="translate(1.000000, 0.000000)">
                        <path d="M18.6486827,11.1690806 C21.0518489,11.1690806 23,13.0547204 23,15.380775 C23,17.0842464 21.9398356,18.6199831 20.3138597,19.2718733 C18.6878839,19.9237636 16.8163047,19.5634289 15.5718367,18.3588927 C14.3273687,17.1543565 13.9550884,15.3428317 14.6285897,13.7690293 C15.302091,12.195227 16.8887392,11.1690806 18.6486827,11.1690806 Z M19.8400028,12.9414071 C19.6092778,12.7257158 19.2425288,12.7288004 19.0157112,12.9483401 C18.7888936,13.1678797 18.7857067,13.5228606 19.0085484,13.7461822 L19.0085484,13.7461822 L20.0046473,14.7103188 C19.9829561,14.7049468 19.9609684,14.7007664 19.9387895,14.6977976 L19.9387895,14.6977976 L16.6459007,14.6977976 C16.2561981,14.6977976 15.9402817,15.003577 15.9402817,15.380775 C15.9402817,15.7579731 16.2561981,16.0637525 16.6459007,16.0637525 L16.6459007,16.0637525 L19.9387895,16.0637525 C19.9613383,16.0606777 19.9837116,16.0564986 20.0058233,16.0512312 L20.0058233,16.0512312 L19.0085484,17.0153678 C18.7857067,17.2386894 18.7888936,17.5936704 19.0157112,17.81321 C19.2425288,18.0327496 19.6092778,18.0358342 19.8400028,17.8201429 L19.8400028,17.8201429 L21.6499156,16.069444 C22.0426057,15.6889984 22.0426057,15.0725517 21.6499156,14.6921061 L21.6499156,14.6921061 Z M20.5103409,5.06098534 C21.1598453,5.06098534 21.6863726,5.57061771 21.6863726,6.19928112 L21.6863726,6.19928112 L21.6863726,10.9163789 C20.8945138,10.4166546 19.9825489,10.1237277 19.0391252,10.0660719 C18.9413414,9.91927708 18.7834523,9.81988012 18.6051695,9.79288096 C18.4440532,9.7849129 18.3088095,9.89874246 18.1912064,10.07404 C17.1697458,10.1526039 16.1916948,10.5076043 15.3687303,11.0985062 C15.3084471,11.0813573 15.2457138,11.0736712 15.1829173,11.0757403 C14.6963015,11.1217781 14.1406919,11.5871583 13.5771065,12.0963341 L13.1538754,12.4805597 C12.5901158,12.9881616 12.0336351,13.4456722 11.5454512,13.4775444 C10.7151728,13.5310443 9.38037687,11.8623027 8.56773896,12.036462 C7.63984995,12.2345254 6.51203555,14.0489689 6.19803509,14.9174886 C6.17677715,15.0765669 6.17677715,15.2376329 6.19803509,15.3967112 L6.19803509,15.3967112 L13.1225097,15.3967112 C13.1276479,16.1518423 13.3000923,16.8971195 13.6282034,17.5822391 L13.6282034,17.5822391 L5.22192876,17.5822391 C4.61198075,17.5782264 4.10644026,17.1235057 4.05765737,16.535007 C4.04797533,16.5056127 4.0439883,16.4747399 4.04589707,16.4439433 L4.04589707,16.4439433 L4.04589707,6.19928112 C4.04589709,5.57061772 4.5724244,5.06098534 5.22192876,5.06098534 L5.22192876,5.06098534 Z M16.5275305,0.149166896 C16.7971548,0.298905297 16.9935467,0.546971829 17.0728002,0.837907916 L17.9313034,3.92268953 L4.04236898,3.92268953 C3.3928646,3.92268953 2.86633727,4.43232192 2.86633727,5.06098534 L2.86633727,15.3056475 C2.8644285,15.3364441 2.86841555,15.3673169 2.87809759,15.3967112 C2.83093132,15.322468 2.79527083,15.2419301 2.77225474,15.157669 L0.0438611801,5.26587858 C-0.041011684,4.97449128 -0.00169899787,4.66233597 0.153008241,4.39921601 C0.307715479,4.13609604 0.564911703,3.94396069 0.867083381,3.86577475 L15.6380416,0.0411008762 C15.9375356,-0.0394940635 16.2579063,-0.000571504685 16.5275305,0.149166896 Z M8.18317659,7.38424704 C7.59790594,7.38487522 7.12474806,7.84336043 7.12474806,8.40871326 C7.12474806,8.97451033 7.59862265,9.43317947 8.18317659,9.43317947 C8.76773053,9.43317947 9.24160512,8.97451033 9.24160512,8.40871326 C9.24160512,7.84291619 8.76773053,7.38424704 8.18317659,7.38424704 L8.18317659,7.38424704 Z" id="形状结合"></path>
                    </g>
                </g>
            </g>
        </g>
    </g>
</svg>