<?xml version="1.0" encoding="UTF-8"?>
<svg width="20px" height="21px" viewBox="0 0 20 21" version="1.1" xmlns="http://www.w3.org/2000/svg" xmlns:xlink="http://www.w3.org/1999/xlink">
    <title>形状</title>
    <g id="事件信息、组织动态、辅助工具" stroke="none" stroke-width="1" fill="none" fill-rule="evenodd">
        <g id="补充右下角工具备份" transform="translate(-1459.000000, -205.000000)" fill="#FFFFFF" fill-rule="nonzero">
            <g id="工具栏备份-2" transform="translate(1304.000000, 74.000000)">
                <g id="编组-6" transform="translate(151.000000, 131.000000)">
                    <g id="出图" transform="translate(4.000000, 0.000000)">
                        <path d="M10.5469118,5.4609375 C9.03347478,5.4609375 7.80056577,4.23515625 7.80056577,2.73046875 C7.80056577,1.22578125 9.03347478,0 10.5469118,0 C12.0603489,0 13.2932579,1.22578125 13.2932579,2.73046875 C13.2932579,4.23515625 12.0603489,5.4609375 10.5469118,5.4609375 Z M4.69825554,7.62890625 C3.3144743,7.62890625 2.19000471,6.5109375 2.19000471,5.13515625 C2.19000471,3.759375 3.31683168,2.64140625 4.69825554,2.64140625 C6.08203678,2.64140625 7.20650636,3.759375 7.20650636,5.13515625 C7.20650636,6.5109375 6.08203678,7.62890625 4.69825554,7.62890625 Z M2.2135785,13.2726562 C0.992456388,13.2726562 0,12.2859375 0,11.071875 C0,9.86015625 0.992456388,8.8734375 2.2135785,8.8734375 C3.43234323,8.8734375 4.42479962,9.86015625 4.42479962,11.071875 C4.42479962,12.2859375 3.43234323,13.2726562 2.2135785,13.2726562 Z M4.69825554,18.8625 C3.66336634,18.8625 2.82178218,18.0257813 2.82178218,16.996875 C2.82178218,15.9679688 3.66336634,15.13125 4.69825554,15.13125 C5.73314474,15.13125 6.5747289,15.9679688 6.5747289,16.996875 C6.5747289,18.0257813 5.73314474,18.8625 4.69825554,18.8625 Z M10.5469118,21 C9.64403583,21 8.90853371,20.26875 8.90853371,19.3710938 C8.90853371,18.4734375 9.64403583,17.7421875 10.5469118,17.7421875 C11.4497878,17.7421875 12.18529,18.4734375 12.18529,19.3710938 C12.18529,20.26875 11.4497878,21 10.5469118,21 Z M16.4827911,18.2460938 C15.7543612,18.2460938 15.1603017,17.6554687 15.1603017,16.93125 C15.1603017,16.2046875 15.7543612,15.6164062 16.4827911,15.6164062 C17.2112211,15.6164062 17.8052805,16.2070312 17.8052805,16.93125 C17.8052805,17.6554687 17.2112211,18.2460938 16.4827911,18.2460938 Z M18.9132485,12.1617188 C18.3144743,12.1617188 17.8288543,11.6765625 17.8288543,11.0835938 C17.8288543,10.4882812 18.3168317,10.0054688 18.9132485,10.0054688 C19.5096653,10.0054688 20,10.490625 20,11.0835938 C20,11.6765625 19.5120226,12.1617188 18.9132485,12.1617188 Z M15.641207,5.21484375 C15.641207,5.6765625 16.0183876,6.0515625 16.4827911,6.0515625 C16.9471947,6.0515625 17.3243753,5.6765625 17.3243753,5.21484375 C17.3243753,4.753125 16.9471947,4.378125 16.4827911,4.378125 C16.0183876,4.378125 15.641207,4.753125 15.641207,5.21484375 Z" id="形状"></path>
                    </g>
                </g>
            </g>
        </g>
    </g>
</svg>