<?xml version="1.0" encoding="UTF-8"?>
<svg width="18px" height="20px" viewBox="0 0 18 20" version="1.1" xmlns="http://www.w3.org/2000/svg" xmlns:xlink="http://www.w3.org/1999/xlink">
    <title>形状</title>
    <g id="事件信息、组织动态、辅助工具" stroke="none" stroke-width="1" fill="none" fill-rule="evenodd">
        <g id="补充右下角工具" transform="translate(-1460.000000, -143.000000)" fill="#FFFFFF" fill-rule="nonzero">
            <g id="工具栏备份-2" transform="translate(1441.000000, 74.000000)">
                <g id="编组-5" transform="translate(14.000000, 69.000000)">
                    <path d="M22.1194018,8.66269746 L22.407848,8.84317032 C22.9990434,9.21361462 23.1778324,9.99012286 22.8059514,10.581409 C22.7058295,10.74051 22.5699499,10.8758647 22.407848,10.9779743 L14.6770141,15.815122 C14.2646076,16.0715834 13.7425439,16.0715834 13.3325213,15.815122 L5.59215202,10.9684758 C5.00095659,10.5980315 4.82216765,9.82152321 5.19404865,9.23023712 C5.29417045,9.07113604 5.43005005,8.9357814 5.59215202,8.83367175 L5.88059818,8.65319888 L13.3301374,13.3193723 C13.7425439,13.5758337 14.2646076,13.5758337 14.6746303,13.3193723 L22.117018,8.6650721 L22.1194018,8.66269746 Z M22.1194018,12.3695151 L22.407848,12.549988 C22.9990434,12.9204323 23.1778324,13.6969405 22.8059514,14.2882266 C22.7058295,14.4473277 22.5699499,14.5826823 22.407848,14.684792 L14.6770141,19.5219396 C14.2646076,19.7784011 13.7425439,19.7784011 13.3325213,19.5219396 L5.59215202,14.6752934 C5.00095659,14.3048491 4.82216765,13.5283408 5.19404865,12.9370548 C5.29417045,12.7779537 5.43005005,12.642599 5.59215202,12.5404894 L5.88059818,12.3600165 L13.3301374,17.0238153 C13.7425439,17.2802767 14.2646076,17.2802767 14.6746303,17.0238153 L22.117018,12.3695151 L22.1194018,12.3695151 Z M14.6674787,0.197095364 L22.4054641,5.04374161 C22.9966596,5.41418591 23.1754485,6.19069415 22.8035675,6.78198025 C22.7034457,6.94108132 22.5675661,7.07643597 22.4054641,7.17854562 L14.6770141,12.0133186 C14.2646076,12.2697801 13.7425439,12.2697801 13.3325213,12.0133186 L5.59215202,7.16429776 C5.00095659,6.79385346 4.82216765,6.01734522 5.19404865,5.42605913 C5.29417045,5.26695805 5.43005005,5.1316034 5.59215202,5.02949375 L13.3253697,0.192346078 C13.7377762,-0.0641153595 14.2598399,-0.0641153595 14.6698626,0.192346078 L14.6674787,0.197095364 Z" id="形状"></path>
                </g>
            </g>
        </g>
    </g>
</svg>