<?xml version="1.0" encoding="UTF-8"?>
<svg width="21px" height="21px" viewBox="0 0 21 21" version="1.1" xmlns="http://www.w3.org/2000/svg" xmlns:xlink="http://www.w3.org/1999/xlink">
    <title>形状</title>
    <g id="事件信息、组织动态、辅助工具" stroke="none" stroke-width="1" fill="none" fill-rule="evenodd">
        <g id="补充右下角工具" transform="translate(-1456.000000, -266.000000)" fill="#FFFFFF" fill-rule="nonzero">
            <g id="工具栏备份-2" transform="translate(1441.000000, 74.000000)">
                <g id="编组-7" transform="translate(14.000000, 192.000000)">
                    <path d="M21.8014873,14.0933451 L7.9066549,0.19851273 C7.64197126,-0.06617091 7.21212503,-0.06617091 6.94744139,0.19851273 L1.19851273,5.94744139 C0.93382909,6.21212503 0.93382909,6.64197126 1.19851273,6.9066549 L15.0933451,20.8014873 C15.3580287,21.0661709 15.787875,21.0661709 16.0525586,20.8014873 L21.8014873,15.0525586 C22.0661709,14.787875 22.0661709,14.3580287 21.8014873,14.0933451 Z M6.2677338,4.68966473 L8.791757,2.16564154 C8.8256365,2.13176204 8.87857323,2.13176204 8.91245274,2.16564154 L9.75097051,3.00415931 C9.78485001,3.03803882 9.78485001,3.09097555 9.75097051,3.12485505 L7.22694732,5.64887825 C7.19306781,5.68275775 7.14013108,5.68275775 7.10625158,5.64887825 L6.2677338,4.81036047 C6.23597177,4.77648097 6.23597177,4.72354424 6.2677338,4.68966473 L6.2677338,4.68966473 Z M8.65835644,5.64252584 L10.4624401,3.83844215 C10.4963196,3.80456264 10.5492564,3.80456264 10.5831359,3.83844215 L11.4216536,4.67695992 C11.4555331,4.71083943 11.4555331,4.76377615 11.4216536,4.79765566 L9.61756995,6.60173935 C9.58369045,6.63561886 9.53075372,6.63561886 9.49687421,6.60173935 L8.65835644,5.76322158 C8.6265944,5.72934207 8.6265944,5.67640534 8.65835644,5.64252584 Z M10.331157,7.31532644 L12.1352407,5.51124275 C12.1691202,5.47736325 12.222057,5.47736325 12.2559365,5.51124275 L13.0944542,6.34976052 C13.1283338,6.38364003 13.1283338,6.43657676 13.0944542,6.47045626 L11.2903706,8.27453995 C11.2564911,8.30841946 11.2035543,8.30841946 11.1696748,8.27453995 L10.331157,7.43602218 C10.2972775,7.40214268 10.2972775,7.34920595 10.331157,7.31532644 L10.331157,7.31532644 Z M11.2988404,9.72077136 L13.8228636,7.19674817 C13.8567431,7.16286867 13.9096799,7.16286867 13.9435594,7.19674817 L14.7820771,8.03526594 C14.8159566,8.06914545 14.8159566,8.12208218 14.7820771,8.15596168 L12.2580539,10.6799849 C12.2241744,10.7138644 12.1712377,10.7138644 12.1373582,10.6799849 L11.2988404,9.8414671 C11.2670784,9.8075876 11.2670784,9.75465087 11.2988404,9.72077136 L11.2988404,9.72077136 Z M14.5279808,11.632846 L13.6894631,10.7943282 C13.6555836,10.7604487 13.6555836,10.707512 13.6894631,10.6736325 L15.4935468,8.86954878 C15.5274263,8.83566927 15.580363,8.83566927 15.6142425,8.86954878 L16.4527603,9.70806655 C16.4866398,9.74194605 16.4866398,9.79488278 16.4527603,9.82876229 L14.6486766,11.632846 C14.6147971,11.6667255 14.5618603,11.6667255 14.5279808,11.632846 Z M15.3622637,12.3464331 L17.1663474,10.5423494 C17.2002269,10.5084699 17.2531636,10.5084699 17.2870431,10.5423494 L18.1255609,11.3808672 C18.1594404,11.4147467 18.1594404,11.4676834 18.1255609,11.5015629 L16.3214772,13.3056466 C16.2875977,13.3395261 16.234661,13.3395261 16.2007814,13.3056466 L15.3622637,12.4671288 C15.3283842,12.4332493 15.3283842,12.3803126 15.3622637,12.3464331 Z M17.1684648,15.7110915 L16.3299471,14.8725737 C16.2960676,14.8386942 16.2960676,14.7857575 16.3299471,14.751878 L18.8539703,12.2278548 C18.8878498,12.1939753 18.9407865,12.1939753 18.974666,12.2278548 L19.8131838,13.0663726 C19.8470633,13.1002521 19.8470633,13.1531888 19.8131838,13.1870683 L17.2891606,15.7110915 C17.2552811,15.7428535 17.2023443,15.7428535 17.1684648,15.7110915 Z" id="形状"></path>
                </g>
            </g>
        </g>
    </g>
</svg>