<?xml version="1.0" encoding="UTF-8"?>
<svg width="21px" height="18px" viewBox="0 0 21 18" version="1.1" xmlns="http://www.w3.org/2000/svg" xmlns:xlink="http://www.w3.org/1999/xlink">
    <title>形状</title>
    <g id="页面-1" stroke="none" stroke-width="1" fill="none" fill-rule="evenodd">
        <g id="图例" transform="translate(-1458.000000, -84.000000)" fill="#FFFFFF" fill-rule="nonzero">
            <g id="工具栏备份-3" transform="translate(1441.000000, 74.000000)">
                <g id="编组-16" transform="translate(14.000000, 10.000000)">
                    <path d="M22.9521537,13.002488 L20.854117,13.002488 L20.854117,11.0021053 C20.854117,10.4509091 20.3852819,10.0030622 19.8062707,10.0030622 C19.2272594,10.0030622 18.7560802,10.4509091 18.7560802,11.0021053 L18.7560802,13.002488 L16.6580435,13.002488 C16.0790322,13.002488 15.607853,13.4503349 15.607853,14.0015311 C15.607853,14.5527273 16.0766881,15.0005742 16.6580435,15.0005742 L18.7560802,15.0005742 L18.7560802,17.0009569 C18.7560802,17.5521531 19.2249153,18 19.8062707,18 C20.3876261,18 20.854117,17.5521531 20.854117,17.0009569 L20.854117,15.0005742 L22.9521537,15.0005742 C23.531165,15.0005742 24,14.5527273 24,14.0015311 C24,13.4503349 23.531165,13.002488 22.9521537,13.002488 Z M16.6580435,11.5096651 L17.1878271,11.5096651 L17.1878271,11.0044019 C17.1854829,9.62870813 18.3552263,8.51023923 19.7992382,8.51023923 C20.399347,8.51023923 20.9807024,8.70545455 21.4471933,9.06602871 C23.4936582,6.92784689 23.4163004,3.64593301 21.2174641,1.59502392 C18.9365817,-0.531674641 15.2421617,-0.531674641 12.9636235,1.59502392 C10.6827411,-0.531674641 6.98832108,-0.531674641 4.70978285,1.59502392 C2.43124462,3.72172249 2.42890045,7.16899522 4.70978285,9.29569378 L12.9636235,16.994067 L14.5646951,15.4989474 C14.2247897,15.0694737 14.041944,14.5435407 14.041944,14.0061244 C14.041944,12.6258373 15.2140316,11.5096651 16.6580435,11.5096651 Z" id="形状"></path>
                </g>
            </g>
        </g>
    </g>
</svg>