<?xml version="1.0" encoding="UTF-8"?>
<svg width="20px" height="20px" viewBox="0 0 20 20" version="1.1" xmlns="http://www.w3.org/2000/svg" xmlns:xlink="http://www.w3.org/1999/xlink">
    <title>形状</title>
    <g id="事件信息、组织动态、辅助工具" stroke="none" stroke-width="1" fill="none" fill-rule="evenodd">
        <g id="补充右下角工具" transform="translate(-1459.000000, -84.000000)" fill="#56E9FF" fill-rule="nonzero">
            <g id="工具栏备份-2" transform="translate(1441.000000, 74.000000)">
                <g id="编组-2" transform="translate(14.000000, 10.000000)">
                    <path d="M13,17.938 C9.37476905,17.4801426 6.51985741,14.6252309 6.06200001,11 L4.5,11 C4.36739176,11 4.2402148,10.9473216 4.14644661,10.8535534 C4.05267841,10.7597852 4,10.6326082 4,10.5 L4,9.5 C4,9.36739176 4.05267841,9.24021479 4.14644661,9.1464466 C4.2402148,9.05267841 4.36739176,9 4.5,9 L6.06200001,9 C6.51985741,5.37476905 9.37476905,2.51985741 13,2.06200001 L13,0.5 C13,0.367391764 13.0526784,0.2402148 13.1464466,0.146446607 C13.2402148,0.0526784136 13.3673918,0 13.5,0 L14.5,0 C14.6326082,0 14.7597852,0.0526784136 14.8535534,0.146446607 C14.9473216,0.2402148 15,0.367391764 15,0.5 L15,2.06200001 C18.6252309,2.51985741 21.4801426,5.37476905 21.938,9 L23.5,9 C23.6326082,9 23.7597852,9.05267841 23.8535534,9.1464466 C23.9473216,9.24021479 24,9.36739176 24,9.5 L24,10.5 C24,10.6326082 23.9473216,10.7597852 23.8535534,10.8535534 C23.7597852,10.9473216 23.6326082,11 23.5,11 L21.938,11 C21.4801426,14.6252309 18.6252309,17.4801426 15,17.938 L15,19.5 C15,19.6326082 14.9473216,19.7597852 14.8535534,19.8535534 C14.7597852,19.9473216 14.6326082,20 14.5,20 L13.5,20 C13.3673918,20 13.2402148,19.9473216 13.1464466,19.8535534 C13.0526784,19.7597852 13,19.6326082 13,19.5 L13,17.938 L13,17.938 Z M14,16 C17.3137085,16 20,13.3137085 20,10 C20,6.6862915 17.3137085,4 14,4 C10.6862915,4 8,6.6862915 8,10 C8,13.3137085 10.6862915,16 14,16 Z M14,13 C12.3431458,13 11,11.6568542 11,10 C11,8.34314575 12.3431458,7 14,7 C15.6568542,7 17,8.34314575 17,10 C17,11.6568542 15.6568542,13 14,13 Z" id="形状"></path>
                </g>
            </g>
        </g>
    </g>
</svg>