<?xml version="1.0" encoding="UTF-8"?>
<svg width="18px" height="18px" viewBox="0 0 18 18" version="1.1" xmlns="http://www.w3.org/2000/svg" xmlns:xlink="http://www.w3.org/1999/xlink">
    <title>形状</title>
    <defs>
        <filter id="filter-1">
            <feColorMatrix in="SourceGraphic" type="matrix" values="0 0 0 0 1.000000 0 0 0 0 1.000000 0 0 0 0 1.000000 0 0 0 1.000000 0"></feColorMatrix>
        </filter>
    </defs>
    <g id="页面-1" stroke="none" stroke-width="1" fill="none" fill-rule="evenodd">
        <g id="图例" transform="translate(-1460.000000, -466.000000)">
            <g id="工具栏备份-2" transform="translate(1441.000000, 210.000000)">
                <g id="编组" transform="translate(14.000000, 256.000000)" filter="url(#filter-1)">
                    <g transform="translate(5.000000, 0.000000)">
                        <path d="M16.5753,0 C17.361,0 18,0.6372 18,1.4238 L18,16.5753 C18,17.361 17.3628,18 16.5762,18 L1.4247,18 C0.638211255,18 0.00049683433,17.3626886 -1.58173474e-16,16.5762 L-1.58173474e-16,1.4247 C-1.58173474e-16,0.6453 0.6453,0 1.4247,0 L16.5753,0 Z M4.5,7.4916 L4.8987,7.479 C5.04,6.3891 5.9274,5.6403 6.4413,5.526 C6.9561,5.4 7.9326,5.5395 7.9326,5.5395 L7.92,12.3345 C7.92,12.7647 7.3287,12.9555 7.3287,12.9555 L6.7977,12.9636 C6.64912582,12.9659626 6.52884077,13.0850567 6.525,13.2336 C6.52330236,13.3036678 6.54995438,13.3714554 6.59891781,13.4216047 C6.64788123,13.4717541 6.71501164,13.5 6.7851,13.5 L11.2158,13.5 C11.3629286,13.5 11.4822,13.3807286 11.4822,13.2336 C11.4822,13.0864714 11.3629286,12.9672 11.2158,12.9672 L10.5678,12.9672 C10.1565,12.9294 9.9126,12.4092 9.9126,12.4092 L9.9252,5.463 C9.9252,5.463 10.5426,5.3487 11.4426,5.5143 C12.3426,5.679 13.1013,7.5168 13.1013,7.5168 L13.5,7.5168 L13.5,5.4 C13.5,4.90294373 13.0970563,4.5 12.6,4.5 L5.4,4.5 C4.90294373,4.5 4.5,4.90294373 4.5,5.4 L4.5,7.4916 Z" id="形状" fill="#000000" fill-rule="nonzero"></path>
                    </g>
                </g>
            </g>
        </g>
    </g>
</svg>