<?xml version="1.0" encoding="UTF-8"?>
<svg width="20px" height="20px" viewBox="0 0 20 20" version="1.1" xmlns="http://www.w3.org/2000/svg" xmlns:xlink="http://www.w3.org/1999/xlink">
    <title>编组</title>
    <defs>
        <filter id="filter-1">
            <feColorMatrix in="SourceGraphic" type="matrix" values="0 0 0 0 1.000000 0 0 0 0 1.000000 0 0 0 0 1.000000 0 0 0 1.000000 0"></feColorMatrix>
        </filter>
    </defs>
    <g id="页面-1" stroke="none" stroke-width="1" fill="none" fill-rule="evenodd">
        <g id="图例" transform="translate(-1389.000000, -152.000000)">
            <g id="工具栏备份-3" transform="translate(1371.000000, 142.000000)">
                <g id="编组" transform="translate(14.000000, 10.000000)" filter="url(#filter-1)">
                    <g transform="translate(4.000000, 0.000000)">
                        <path d="M3.28403207,0.107057447 C1.99804921,0.473948111 0.995629314,1.33209913 0.40736056,2.56709041 C0.0591253692,3.29465324 0.0491757813,3.34440112 0.0491757813,4.51098904 C0.0491757813,5.51714002 0.0889740944,5.79572819 0.278016053,6.26460201 C0.746889887,7.43865211 1.55280564,8.30675272 2.72436835,8.87512232 C3.56013283,9.28305498 4.21680492,9.35270202 6.86214875,9.32285329 L9.29979515,9.29300457 L9.32840019,6.7521313 C9.33834976,5.24725775 9.30850103,4.00356061 9.25004726,3.7038296 C8.95155995,2.28850225 7.95660222,1.05351098 6.59351016,0.395595188 C5.86843472,0.0560658621 5.7490398,0.026217137 4.77646863,0.00631798041 C4.14964527,-0.0135811762 3.55267065,0.026217137 3.28403207,0.105813744 L3.28403207,0.107057447 Z M13.6067184,0.166754917 C12.8020463,0.425443933 12.2548196,0.773679124 11.7075928,1.36194788 C11.090719,2.01986367 10.6330385,2.98621634 10.5434923,3.84312368 C10.4340469,4.75972847 10.4439965,8.84527359 10.5534419,9.11391218 L10.6330385,9.34275245 L13.4077268,9.34275245 C16.3329025,9.34275245 16.7196923,9.29300457 17.645003,8.82537444 C18.162381,8.56544174 18.9583472,7.80927387 19.2568345,7.30060174 C20.092599,5.86537523 20.1124981,4.09186311 19.3264815,2.51734253 C18.9284984,1.74003181 17.9832886,0.873174907 17.0579779,0.425443913 C16.3229529,0.067259134 16.1936084,0.0361667055 15.2173062,0.00631798041 C14.392735,-0.0135811762 14.0544493,0.016267549 13.6067184,0.166754917 Z M3.08504052,10.7282311 C2.28907435,10.9869201 1.80154507,11.2667519 1.31401578,11.7356258 C0.398654676,12.6198944 0.000671602923,13.5961967 0.000671602923,14.9306837 C0.000671602923,16.0077255 0.249411031,16.8646328 0.806587337,17.701641 C1.83139379,19.2363632 3.28278834,19.9639261 5.16325845,19.8843294 C6.01767839,19.8544807 6.19677078,19.8047328 6.87334202,19.4751531 C8.11703916,18.8781784 9.01250111,17.7215401 9.25129097,16.4069522 C9.30974473,16.0972716 9.33959346,14.7229863 9.32964389,13.2181128 L9.29979515,10.5876933 L6.46540936,10.5677941 C3.97801506,10.547895 3.56137654,10.5677941 3.08379682,10.7269874 L3.08504052,10.7282311 Z M10.6131393,10.6088362 C10.573341,10.6386849 10.5434923,11.7542812 10.5434923,13.0800624 C10.5434923,14.9033224 10.5832906,15.6209356 10.6927359,16.0686666 C11.1504165,17.8322292 12.3742145,19.1480607 14.1141468,19.7052371 C14.7011719,19.8955227 14.97976,19.9253714 15.7856758,19.8855731 C16.6214402,19.8557244 16.8589864,19.8059765 17.427356,19.5373379 C19.0180446,18.7886322 19.8936074,17.3733049 19.8936074,15.5612382 C19.8936074,14.1260117 19.3662799,12.8997263 18.3414734,11.9433232 C18.0031878,11.6249367 17.4858098,11.2468528 17.1873225,11.0976091 C16.1737093,10.6088362 15.6662808,10.5379454 13.0793908,10.5379454 C11.7573407,10.5379454 10.6429881,10.5690378 10.6131393,10.6088362 L10.6131393,10.6088362 Z" id="形状" fill="#000000" fill-rule="nonzero"></path>
                    </g>
                </g>
            </g>
        </g>
    </g>
</svg>