<?xml version="1.0" encoding="UTF-8"?>
<svg width="20px" height="20px" viewBox="0 0 20 20" version="1.1" xmlns="http://www.w3.org/2000/svg" xmlns:xlink="http://www.w3.org/1999/xlink">
    <title>形状备份</title>
    <g id="事件信息、组织动态、辅助工具" stroke="none" stroke-width="1" fill="none" fill-rule="evenodd">
        <g id="补充右下角工具" transform="translate(-1459.000000, -399.000000)" fill="#FFFFFF" fill-rule="nonzero">
            <g id="工具栏备份-3" transform="translate(1441.000000, 333.000000)">
                <g id="编组-16备份" transform="translate(14.000000, 66.000000)">
                    <path d="M14,0 C8.47767857,0 4,4.47767857 4,10 C4,15.5223214 8.47767857,20 14,20 C19.5223214,20 24,15.5223214 24,10 C24,4.47767857 19.5223214,0 14,0 Z M18.2857143,10.5357143 C18.2857143,10.6339286 18.2053571,10.7142857 18.1071429,10.7142857 L14.7142857,10.7142857 L13.2857143,10.7142857 L9.89285714,10.7142857 C9.79464286,10.7142857 9.71428571,10.6339286 9.71428571,10.5357143 L9.71428571,9.46428571 C9.71428571,9.36607143 9.79464286,9.28571429 9.89285714,9.28571429 L13.2857143,9.28571429 L14.7142857,9.28571429 L18.1071429,9.28571429 C18.2053571,9.28571429 18.2857143,9.36607143 18.2857143,9.46428571 L18.2857143,10.5357143 Z" id="形状备份"></path>
                </g>
            </g>
        </g>
    </g>
</svg>