<?xml version="1.0" encoding="UTF-8"?>
<svg width="15px" height="14px" viewBox="0 0 15 14" version="1.1" xmlns="http://www.w3.org/2000/svg" xmlns:xlink="http://www.w3.org/1999/xlink">
    <title>Fill 1</title>
    <g id="PC端" stroke="none" stroke-width="1" fill="none" fill-rule="evenodd">
        <g id="模板标绘-点" transform="translate(-1306.000000, -83.000000)" fill="#ADB6C2">
            <g id="标题" transform="translate(988.000000, 70.000000)">
                <path d="M331.749865,20.7774541 L327.583847,20.7774541 C326.893167,20.7774541 326.333721,21.2996693 326.333721,21.9443848 L326.333721,25.8330693 C326.333721,26.4777847 326.893167,27 327.583847,27 L331.749865,27 C332.440545,27 332.999996,26.4777847 332.999996,25.8330693 L332.999996,21.9460434 C333.001768,21.3013279 332.442322,20.7774541 331.749865,20.7774541 L331.749865,20.7774541 Z M331.749865,21.5564923 C331.981307,21.5564923 332.165321,21.7317478 332.165321,21.9443848 L332.165321,25.8330693 C332.165321,26.0491085 331.977662,26.2209618 331.749865,26.2209618 L327.583847,26.2209618 C327.352406,26.2209618 327.168392,26.0457063 327.168392,25.8330693 L327.168392,21.9460434 C327.168392,21.7300041 327.356051,21.558236 327.583847,21.558236 L331.749865,21.558236 L331.749865,21.5564923 Z M319.250126,20.7774541 L323.416167,20.7774541 C324.106756,20.7774541 324.666293,21.2996693 324.666293,21.9443848 L324.666293,25.8330693 C324.666293,26.4777847 324.106756,27 323.416167,27 L319.250126,27 C318.557647,27 318,26.4777847 318,25.8330693 L318,21.9460434 C318,21.3013279 318.559469,20.7774541 319.250126,20.7774541 L319.250126,20.7774541 Z M327.583847,13 L331.749865,13 C332.442322,13 332.999992,13.5222153 332.999992,14.1669307 L332.999992,18.0557003 C332.999992,18.7003307 332.440545,19.222631 331.749865,19.222631 L327.583847,19.222631 C326.893167,19.222631 326.333721,18.7003307 326.333721,18.0557003 L326.333721,14.1669307 C326.333721,13.5205354 326.893167,13 327.583847,13 L327.583847,13 Z M319.250126,13 L323.416167,13 C324.106756,13 324.666293,13.5222153 324.666293,14.1669307 L324.666293,18.0557003 C324.666293,18.7003307 324.106756,19.222631 323.416167,19.222631 L319.250126,19.222631 C318.557647,19.222631 318,18.6986721 318,18.0557003 L318,14.1669307 C318,13.5205354 318.559469,13 319.250126,13 L319.250126,13 Z" id="Fill-1"></path>
            </g>
        </g>
    </g>
</svg>