<?xml version="1.0" encoding="UTF-8"?>
<svg width="24px" height="22px" viewBox="0 0 24 22" version="1.1" xmlns="http://www.w3.org/2000/svg" xmlns:xlink="http://www.w3.org/1999/xlink">
    <title>编组</title>
    <g id="PC端" stroke="none" stroke-width="1" fill="none" fill-rule="evenodd">
        <g id="协同标绘首页" transform="translate(-15.000000, -14.000000)" fill="#0091FF" fill-rule="nonzero">
            <g id="编组" transform="translate(15.000000, 14.000000)">
                <path d="M11.7147121,18.0084246 L3.94737623,14.6423332 L3.94737624,14.6423332 C3.86092658,14.5984815 3.75874802,14.5984815 3.672299,14.6423332 L0.320703688,16.1624997 L0.320703688,16.1624997 C0.148792736,16.2383551 0.0709244659,16.4392094 0.146779649,16.6111199 C0.181036135,16.6887554 0.243068164,16.7507873 0.320703688,16.785044 L11.7002245,21.7219638 L11.7002246,21.7219638 C11.786674,21.7658156 11.8888528,21.7658156 11.9753018,21.7219638 L22.9422153,16.7850439 L22.9422153,16.7850439 C23.1141262,16.6997652 23.1843554,16.4912727 23.0990767,16.31936 C23.0653335,16.251338 23.0102373,16.1962418 22.9422153,16.1624987 L19.8512096,14.6133761 L19.8512096,14.6133761 C19.7580172,14.5558905 19.640369,14.5558905 19.5471763,14.6133761 L11.9463543,18.0373668 L11.9463542,18.0373668 C11.8666312,18.0649456 11.7799552,18.0649456 11.700233,18.0373668 L11.7147121,18.0084246 Z M22.9567113,5.13044947 L12.4313762,0.0849363929 L12.4313762,0.0849363919 C12.2186938,-0.028312131 11.9636029,-0.028312131 11.7509205,0.0849363939 L0.320727052,5.15939916 L0.32072708,5.15939915 C0.144818223,5.22545565 0.0557652159,5.42160845 0.121822143,5.5975171 C0.156327954,5.68940641 0.228837769,5.76191622 0.32072708,5.79642204 L11.7654166,10.6464716 L11.7654166,10.6464716 C11.9703115,10.7497189 12.2120218,10.7497189 12.4169163,10.6464716 L22.9133017,5.76747234 L22.9133017,5.76747235 C23.0864899,5.70561164 23.1767396,5.51506597 23.114878,5.341878 C23.0868502,5.26341012 23.0304225,5.19830118 22.956735,5.1594053 L22.9567113,5.13044947 Z" id="形状"></path>
                <path d="M11.729187,12.796419 L3.9111785,9.41585272 L3.91117849,9.41585271 C3.8483513,9.37112035 3.76407776,9.37112035 3.70125078,9.41585272 L0.154191979,11.0084083 L0.154191963,11.0084084 C0.0202614209,11.071209 -0.0374009481,11.2306918 0.0253996707,11.3646212 C0.0519668498,11.4212793 0.0975339053,11.4668463 0.154191963,11.4934135 L11.7364031,16.5606282 L11.7364031,16.5606282 C11.8021312,16.6045446 11.8878416,16.6045446 11.9535704,16.5606282 L23.0869764,11.4934135 L23.0869764,11.4934135 C23.2209069,11.4306129 23.2785693,11.2711301 23.2157687,11.1372006 C23.1892015,11.0805426 23.1436345,11.0349755 23.0869764,11.0084083 L19.8294782,9.35794273 L19.8294782,9.35794273 C19.7609527,9.3146079 19.6735982,9.3146079 19.6050735,9.35794273 L11.931856,12.7819335 L11.931856,12.7819335 C11.8695716,12.8197033 11.7914515,12.8197033 11.7291672,12.7819335 L11.729187,12.796419 Z" id="路径" opacity="0.6"></path>
            </g>
        </g>
    </g>
</svg>