<?xml version="1.0" encoding="UTF-8"?>
<svg width="40px" height="41px" viewBox="0 0 40 41" version="1.1" xmlns="http://www.w3.org/2000/svg" xmlns:xlink="http://www.w3.org/1999/xlink">
    <title>风险隐患备份</title>
    <defs>
        <ellipse id="path-1" cx="20" cy="33" rx="20" ry="7"></ellipse>
        <filter x="-7.5%" y="-21.4%" width="115.0%" height="142.9%" filterUnits="objectBoundingBox" id="filter-2">
            <feGaussianBlur stdDeviation="3" in="SourceAlpha" result="shadowBlurInner1"></feGaussianBlur>
            <feOffset dx="0" dy="0" in="shadowBlurInner1" result="shadowOffsetInner1"></feOffset>
            <feComposite in="shadowOffsetInner1" in2="SourceAlpha" operator="arithmetic" k2="-1" k3="1" result="shadowInnerInner1"></feComposite>
            <feColorMatrix values="0 0 0 0 0.541176471   0 0 0 0 0.560784314   0 0 0 0 0.6  0 0 0 1 0" type="matrix" in="shadowInnerInner1"></feColorMatrix>
        </filter>
        <filter x="0.0%" y="0.0%" width="100.0%" height="100.0%" filterUnits="objectBoundingBox" id="filter-3">
            <feGaussianBlur stdDeviation="0" in="SourceGraphic"></feGaussianBlur>
        </filter>
    </defs>
    <g id="页面-1" stroke="none" stroke-width="1" fill="none" fill-rule="evenodd">
        <g id="落点切图" transform="translate(-1248.000000, -152.000000)">
            <g id="风险隐患备份" transform="translate(1248.000000, 153.000000)">
                <g id="椭圆形备份-13" fill="black" fill-opacity="1">
                    <use filter="url(#filter-2)" xlink:href="#path-1"></use>
                </g>
                <ellipse id="椭圆形备份-14" fill="#8A8F99" opacity="0.703760901" filter="url(#filter-3)" cx="20" cy="33" rx="10" ry="3.5"></ellipse>
                <path d="M20,0 C27.7319865,0 34,6.2680135 34,14 C34,18.4749597 31.9004511,22.4595434 28.6326771,25.0224273 L20,33.6 L11.3885149,25.0390152 C8.108629,22.4767549 6,18.4846258 6,14 C6,6.2680135 12.2680135,0 20,0 Z" id="形状结合" stroke="#FFFFFF" fill="#999999" fill-rule="nonzero"></path>
                <path d="M28.8446374,19.2626489 L22.1332923,6.37895799 C21.2282563,4.81224004 18.9656661,4.81224004 18.0606301,6.37895799 L11.3512962,19.2626489 C10.7318493,20.3346138 11.506158,21.6760783 12.7450517,21.6760783 L27.452893,21.6760783 C28.6897756,21.6760783 29.4640843,20.3346138 28.8446374,19.2626489 Z M20.1200899,19.1822012 C19.4885759,19.1942684 18.9757221,18.6874482 18.9877893,18.0659901 C18.9978452,17.4807335 19.4845535,17.00207 20.0778549,16.9900028 C20.7093689,16.9779357 21.2222227,17.4847558 21.2101555,18.1062139 C21.2000996,18.6934818 20.7133913,19.1721453 20.1200899,19.1822012 Z M20.6711563,16.1754704 L19.5227661,16.1754704 C19.3256694,16.1754704 19.1587405,16.0326758 19.1265614,15.8396014 L18.3985102,12.0525284 C18.3442081,11.722693 18.4930362,11.3868241 18.7846589,11.2219064 C18.901308,11.1555371 19.038069,11.1173245 19.1808636,11.1173245 L21.0110476,11.1173245 C21.1558534,11.1173245 21.2906032,11.1555371 21.4072523,11.2219064 C21.6968638,11.3868241 21.8477032,11.722693 21.793401,12.0525284 L21.0653498,15.8396014 C21.0371931,16.0326758 20.868253,16.1754704 20.6711563,16.1754704 Z" id="形状" fill="#FFFFFF" fill-rule="nonzero"></path>
            </g>
        </g>
    </g>
</svg>