<?xml version="1.0" encoding="UTF-8"?>
<svg width="15px" height="18px" viewBox="0 0 15 18" version="1.1" xmlns="http://www.w3.org/2000/svg" xmlns:xlink="http://www.w3.org/1999/xlink">
    <title>pdf</title>
    <g id="页面-1" stroke="none" stroke-width="1" fill="none" fill-rule="evenodd">
        <g id="雪碧图" transform="translate(-310.000000, -292.000000)" fill-rule="nonzero">
            <g id="pdf" transform="translate(310.000000, 292.000000)">
                <path d="M1.87063276,0 L10.9544837,0 L14.914111,3.825 L14.914111,16.2 C14.914111,17.1941125 14.079859,18 13.050757,18 L1.87063276,18 C0.841530746,18 0.00727872671,17.1941125 0.00727872671,16.2 L0.00727872671,1.8 C0.00727872671,0.80588745 0.841530746,0 1.87063276,0 Z" id="路径" fill="#EF4E4E"></path>
                <path d="M10.9544837,2.925 L10.9544837,0 L14.914111,3.825 L11.8861607,3.825 C11.3716097,3.825 10.9544837,3.42205627 10.9544837,2.925 Z" id="路径" fill="#FFFFFF" opacity="0.6"></path>
                <path d="M2.13429736,7.1901 L3.4787073,7.1901 C3.78546196,7.1901 4.04283773,7.215525 4.25083463,7.26615 C4.45883152,7.316775 4.62536879,7.39665 4.75044643,7.506 C4.87552407,7.615125 4.96449922,7.75575 5.01690606,7.9272 C5.06931289,8.098875 5.09563276,8.303625 5.09563276,8.54145 C5.09563276,8.79885 5.06535326,9.0153 5.00479425,9.1908 C4.94423525,9.3663 4.84827252,9.509625 4.71713898,9.620775 C4.58600543,9.731925 4.41830357,9.812025 4.21449922,9.860625 C4.01069488,9.90945 3.7654309,9.93375 3.4787073,9.93375 L2.92762034,9.93375 L2.92762034,11.25 L2.13429736,11.25 L2.13429736,7.1901 Z M3.38181289,9.31365 C3.55137811,9.31365 3.69369177,9.30195 3.80875388,9.27855 C3.92381599,9.25515 4.01675078,9.2142 4.08732531,9.1557 C4.15789984,9.0972 4.20844332,9.019125 4.23872283,8.9217 C4.26900233,8.824275 4.28414208,8.7012 4.28414208,8.55315 C4.28414208,8.2764 4.21752717,8.083125 4.08429736,7.974 C3.95106755,7.864875 3.7169837,7.8102 3.38181289,7.8102 L2.92762034,7.8102 L2.92762034,9.31365 L3.38181289,9.31365 Z M7.25758929,7.1901 C7.56434394,7.1901 7.84291537,7.216425 8.09330357,7.269075 C8.34369177,7.321725 8.55751165,7.422075 8.73522904,7.57035 C8.91294643,7.718625 9.05106755,7.925175 9.15005823,8.19045 C9.24904891,8.455725 9.2984278,8.79885 9.2984278,9.22005 C9.2984278,9.6138 9.24904891,9.9405 9.15005823,10.199925 C9.05106755,10.45935 8.91294643,10.667025 8.73522904,10.82295 C8.55751165,10.978875 8.34369177,11.089125 8.09330357,11.153475 C7.84291537,11.217825 7.56457686,11.25 7.25758929,11.25 L5.89501165,11.25 L5.89501165,7.1901 L7.25758929,7.1901 L7.25758929,7.1901 Z M7.22125388,10.58895 C7.42319488,10.58895 7.60277562,10.567575 7.76022904,10.5246 C7.90993175,10.4860016 8.04664193,10.4103936 8.15689053,10.305225 C8.26403339,10.201725 8.34462345,10.06245 8.39912655,9.88695 C8.45362966,9.71145 8.48088121,9.48915 8.48088121,9.22005 C8.48088121,8.93925 8.45269798,8.7093 8.3960986,8.52975 C8.33949922,8.350425 8.25681289,8.2089 8.14780668,8.105625 C8.03792737,8.00181393 7.90076442,7.92898983 7.75114519,7.895025 C7.59578804,7.8579 7.41900233,7.83945 7.22125388,7.83945 L6.68833463,7.83945 L6.68833463,10.58895 L7.22125388,10.58895 L7.22125388,10.58895 Z M10.9759123,7.857 L10.9759123,8.92755 L12.5504464,8.92755 L12.5504464,9.59445 L10.9759123,9.59445 L10.9759123,11.25 L10.1825893,11.25 L10.1825893,7.1901 L12.6715644,7.1901 L12.6715644,7.857 L10.9759123,7.857 Z" id="形状" fill="#FFFEFE"></path>
            </g>
        </g>
    </g>
</svg>