<?xml version="1.0" encoding="UTF-8"?>
<svg width="9px" height="9px" viewBox="0 0 9 9" version="1.1" xmlns="http://www.w3.org/2000/svg" xmlns:xlink="http://www.w3.org/1999/xlink">
    <title>形状结合(2)</title>
    <g id="Page-1" stroke="none" stroke-width="1" fill="none" fill-rule="evenodd">
        <g id="形状结合(2)" fill="#56E9FF" fill-rule="nonzero">
            <path d="M8.6805435,0.195262 C8.940893,0.455612 8.940893,0.877722 8.6805435,1.138071 L5.381,4.438 L8.6805435,7.737734 C8.940893,7.998084 8.940893,8.420194 8.6805435,8.680544 C8.420194,8.940893 7.998084,8.940893 7.7377345,8.680544 L0.1952621,1.138071 C-0.0650874,0.877722 -0.0650874,0.455612 0.1952621,0.195262 C0.4556117,-0.065087 0.8777217,-0.065087 1.1380712,0.195262 L4.438,3.495 L7.7377345,0.195262 C7.998084,-0.065087 8.420194,-0.065087 8.6805435,0.195262 Z M3.0236893,5.852116 C3.2840388,6.112466 3.2840388,6.534576 3.0236893,6.794925 L1.1380712,8.680544 C0.8777217,8.940893 0.4556117,8.940893 0.1952621,8.680544 C-0.0650874,8.420194 -0.0650874,7.998084 0.1952621,7.737734 L2.0808802,5.852116 C2.3412298,5.591767 2.7633397,5.591767 3.0236893,5.852116 Z" id="形状结合"></path>
        </g>
    </g>
</svg>