<?xml version="1.0" encoding="UTF-8"?>
<svg width="33px" height="32px" viewBox="0 0 33 32" version="1.1" xmlns="http://www.w3.org/2000/svg" xmlns:xlink="http://www.w3.org/1999/xlink">
    <title>编组</title>
    <defs>
        <filter id="filter-1">
            <feColorMatrix in="SourceGraphic" type="matrix" values="0 0 0 0 0.000000 0 0 0 0 0.568627 0 0 0 0 1.000000 0 0 0 1.000000 0"></feColorMatrix>
        </filter>
    </defs>
    <g id="任务" stroke="none" stroke-width="1" fill="none" fill-rule="evenodd">
        <g id="任务详情" transform="translate(-586.000000, -1263.000000)">
            <g id="任务成员" transform="translate(20.000000, 1121.000000)">
                <g id="编组" transform="translate(20.000000, 112.000000)" filter="url(#filter-1)">
                    <g transform="translate(546.000000, 30.000000)">
                        <path d="M13.7188572,16.0114286 C13.6925048,16.8440343 14.1216504,17.6249236 14.8386364,18.0490202 C15.5556223,18.4731168 16.4466634,18.4731168 17.1636493,18.0490202 C17.8806353,17.6249236 18.309781,16.8440343 18.2834286,16.0114286 C18.2444236,14.7790658 17.2341228,13.8002355 16.0011429,13.8002355 C14.768163,13.8002355 13.7578621,14.7790658 13.7188572,16.0114286 Z" id="路径" fill="#000000" fill-rule="nonzero"></path>
                        <path d="M15.9931428,29.0742957 C12.5285018,29.0785797 9.20509369,27.7015042 6.75885716,25.248 C4.30535299,22.8017635 2.92827744,19.4783553 2.93256143,16.0137143 C2.92827744,12.5490732 4.30535299,9.22566511 6.75885716,6.77942856 C9.20471794,4.32508599 12.5281726,2.94716853 15.9931428,2.95084714 C19.4577839,2.94656315 22.781192,4.32363869 25.2274286,6.77714284 C27.6817712,9.22300363 29.0596886,12.5464583 29.05601,16.0114286 C29.060294,19.4760696 27.6832184,22.7994777 25.2297143,25.2457143 C22.7838535,27.7000569 19.4603988,29.0779743 15.9954286,29.0742957 L15.9931428,29.0742957 Z M15.9931428,5.23428572 C10.044595,5.24184412 5.22458236,10.0628792 5.21828572,16.0114286 C5.22458234,21.9599779 10.0445949,26.781013 15.9931428,26.7885714 C21.9425834,26.7822724 26.7639867,21.9608691 26.7702857,16.0114286 C26.7627273,10.0628807 21.9416922,5.24286806 15.9931428,5.23657144 L15.9931428,5.23428572 Z" id="形状" fill="#000000" fill-rule="nonzero"></path>
                        <path d="M14.8594286,0.0045714375 L17.1451428,0.0045714375 L17.1451428,9.14285716 L14.8594286,9.14285716 L14.8594286,0.0045714375 L14.8594286,0.0045714375 Z M14.8594286,22.8434286 L17.1451428,22.8434286 L17.1451428,31.9862857 L14.8594286,31.9862857 L14.8594286,22.8434286 L14.8594286,22.8434286 Z M0,14.8617143 L9.14285716,14.8617143 L9.14285716,17.1474286 L0,17.1474286 L0,14.8617143 Z M22.8662857,14.8754286 L32.0091428,14.8754286 L32.0091428,17.1611428 L22.8662857,17.1611428 L22.8662857,14.8754286 Z" id="形状" fill="#000000" fill-rule="nonzero"></path>
                    </g>
                </g>
            </g>
        </g>
    </g>
</svg>