<?xml version="1.0" encoding="UTF-8"?>
<svg width="22px" height="32px" viewBox="0 0 22 32" version="1.1" xmlns="http://www.w3.org/2000/svg" xmlns:xlink="http://www.w3.org/1999/xlink">
    <title>形状</title>
    <g id="任务" stroke="none" stroke-width="1" fill="none" fill-rule="evenodd">
        <g id="任务详情" transform="translate(-668.000000, -1738.000000)" fill="#999999" fill-rule="nonzero">
            <g id="任务成员" transform="translate(20.000000, 1121.000000)">
                <g id="1" transform="translate(20.000000, 587.000000)">
                    <path d="M650,57.7848518 C650,58.370289 649.88037,58.9147457 649.641109,59.4182217 C649.401849,59.9216978 649.072866,60.3666301 648.65416,60.7530187 C648.235454,61.1394073 647.74497,61.4438346 647.182708,61.6663008 C646.620446,61.8887669 646.016313,62 645.37031,62 L632.62969,62 C631.983687,62 631.379554,61.8887669 630.817292,61.6663008 C630.25503,61.4438346 629.764546,61.1394073 629.34584,60.7530187 C628.927134,60.3666301 628.598151,59.9216978 628.358891,59.4182217 C628.11963,58.9147457 628,58.370289 628,57.7848518 L628,34.2502744 C628,33.6648372 628.11963,33.1145262 628.358891,32.5993414 C628.598151,32.0841566 628.927134,31.6333699 629.34584,31.2469813 C629.764546,30.8605927 630.25503,30.5561654 630.817292,30.3336992 C631.379554,30.1112331 631.983687,30 632.62969,30 L645.37031,30 C646.016313,30 646.620446,30.1112331 647.182708,30.3336992 C647.74497,30.5561654 648.235454,30.8605927 648.65416,31.2469813 C649.072866,31.6333699 649.401849,32.0841566 649.641109,32.5993414 C649.88037,33.1145262 650,33.6648372 650,34.2502744 L650,57.7848518 L650,57.7848518 Z M647.092985,35.9363337 L630.871126,35.9363337 L630.871126,56.0636663 L647.092985,56.0636663 L647.092985,35.9363337 Z M638.982055,57.0472009 C638.479608,57.0472009 638.042958,57.2228321 637.672104,57.5740944 C637.301251,57.9253567 637.115824,58.3585803 637.115824,58.8737651 C637.115824,59.3655324 637.301251,59.7929016 637.672104,60.1558727 C638.042958,60.5188438 638.479608,60.7003293 638.982055,60.7003293 C639.508428,60.7003293 639.95106,60.5188438 640.309951,60.1558727 C640.668842,59.7929016 640.848287,59.3655324 640.848287,58.8737651 C640.848287,58.3585803 640.668842,57.9253568 640.309951,57.5740944 C639.95106,57.222832 639.508429,57.0472009 638.982055,57.0472009 Z M641.853181,32.9506038 C641.853181,32.7632638 641.793366,32.6169045 641.673736,32.5115258 C641.554105,32.4061471 641.422512,32.3534578 641.278956,32.3534578 L636.721044,32.3534578 C636.601414,32.3534578 636.475802,32.4061471 636.344209,32.5115258 C636.212616,32.6169045 636.146819,32.7632638 636.146819,32.9506038 C636.146819,33.1379437 636.206634,33.284303 636.326264,33.3896817 C636.445895,33.4950604 636.577488,33.5477497 636.721044,33.5477497 L641.278956,33.5477497 C641.422512,33.5477497 641.554105,33.4950604 641.673736,33.3896817 C641.793366,33.284303 641.853181,33.1379437 641.853181,32.9506038 Z" id="形状"></path>
                </g>
            </g>
        </g>
    </g>
</svg>