<?xml version="1.0" encoding="UTF-8"?>
<svg width="80px" height="28px" viewBox="0 0 80 28" version="1.1" xmlns="http://www.w3.org/2000/svg" xmlns:xlink="http://www.w3.org/1999/xlink">
    <title>发送成功</title>
    <defs>
        <filter id="filter-1">
            <feColorMatrix in="SourceGraphic" type="matrix" values="0 0 0 0 0.043137 0 0 0 0 0.823529 0 0 0 0 0.584314 0 0 0 1.000000 0"></feColorMatrix>
        </filter>
        <rect id="path-2" x="0" y="0" width="80" height="28" rx="3"></rect>
    </defs>
    <g id="页面-1" stroke="none" stroke-width="1" fill="none" fill-rule="evenodd">
        <g id="短信" transform="translate(-1688.000000, -468.000000)">
            <g id="弹窗" transform="translate(554.000000, 142.000000)">
                <g id="收信人" transform="translate(510.000000, 253.000000)">
                    <g id="发送成功" transform="translate(11.000000, 63.000000)" filter="url(#filter-1)">
                        <g transform="translate(613.000000, 10.000000)">
                            <mask id="mask-3" fill="white">
                                <use xlink:href="#path-2"></use>
                            </mask>
                            <rect stroke="#0091FF" x="0.5" y="0.5" width="79" height="27" rx="3"></rect>
                            <polygon id="路径-2" fill="#0091FF" fill-rule="nonzero" opacity="0.153459821" mask="url(#mask-3)" points="-23.2928932 32.7071068 16.7071068 -7.29289322 16 -8 -24 32"></polygon>
                            <polygon id="路径-2复制" fill="#0091FF" fill-rule="nonzero" opacity="0.153459821" mask="url(#mask-3)" points="-17.2928932 32.7071068 22.7071068 -7.29289322 22 -8 -18 32"></polygon>
                            <polygon id="路径-2复制-2" fill="#0091FF" fill-rule="nonzero" opacity="0.153459821" mask="url(#mask-3)" points="-11.2928932 32.7071068 28.7071068 -7.29289322 28 -8 -12 32"></polygon>
                            <polygon id="路径-2复制-3" fill="#0091FF" fill-rule="nonzero" opacity="0.153459821" mask="url(#mask-3)" points="-5.29289322 32.7071068 34.7071068 -7.29289322 34 -8 -6 32"></polygon>
                            <polygon id="路径-2复制-4" fill="#0091FF" fill-rule="nonzero" opacity="0.153459821" mask="url(#mask-3)" points="0.707106781 32.7071068 40.7071068 -7.29289322 40 -8 0 32"></polygon>
                            <polygon id="路径-2复制-5" fill="#0091FF" fill-rule="nonzero" opacity="0.153459821" mask="url(#mask-3)" points="6.70710678 32.7071068 46.7071068 -7.29289322 46 -8 6 32"></polygon>
                            <polygon id="路径-2复制-6" fill="#0091FF" fill-rule="nonzero" opacity="0.153459821" mask="url(#mask-3)" points="12.7071068 32.7071068 52.7071068 -7.29289322 52 -8 12 32"></polygon>
                            <polygon id="路径-2复制-7" fill="#0091FF" fill-rule="nonzero" opacity="0.153459821" mask="url(#mask-3)" points="18.7071068 32.7071068 58.7071068 -7.29289322 58 -8 18 32"></polygon>
                            <polygon id="路径-2复制-8" fill="#0091FF" fill-rule="nonzero" opacity="0.153459821" mask="url(#mask-3)" points="24.7071068 32.7071068 64.7071068 -7.29289322 64 -8 24 32"></polygon>
                            <polygon id="路径-2复制-9" fill="#0091FF" fill-rule="nonzero" opacity="0.153459821" mask="url(#mask-3)" points="30.7071068 32.7071068 70.7071068 -7.29289322 70 -8 30 32"></polygon>
                            <polygon id="路径-2复制-10" fill="#0091FF" fill-rule="nonzero" opacity="0.153459821" mask="url(#mask-3)" points="36.7071068 32.7071068 76.7071068 -7.29289322 76 -8 36 32"></polygon>
                            <polygon id="路径-2复制-11" fill="#0091FF" fill-rule="nonzero" opacity="0.153459821" mask="url(#mask-3)" points="42.7071068 32.7071068 82.7071068 -7.29289322 82 -8 42 32"></polygon>
                            <polygon id="路径-2复制-12" fill="#0091FF" fill-rule="nonzero" opacity="0.153459821" mask="url(#mask-3)" points="48.7071068 32.7071068 88.7071068 -7.29289322 88 -8 48 32"></polygon>
                            <polygon id="路径-2复制-13" fill="#0091FF" fill-rule="nonzero" opacity="0.153459821" mask="url(#mask-3)" points="54.7071068 32.7071068 94.7071068 -7.29289322 94 -8 54 32"></polygon>
                            <polygon id="路径-2复制-14" fill="#0091FF" fill-rule="nonzero" opacity="0.153459821" mask="url(#mask-3)" points="60.7071068 32.7071068 100.707107 -7.29289322 100 -8 60 32"></polygon>
                            <polygon id="路径-2复制-15" fill="#0091FF" fill-rule="nonzero" opacity="0.153459821" mask="url(#mask-3)" points="66.7071068 32.7071068 106.707107 -7.29289322 106 -8 66 32"></polygon>
                            <polygon id="路径-2复制-16" fill="#0091FF" fill-rule="nonzero" opacity="0.153459821" mask="url(#mask-3)" points="72.7071068 32.7071068 112.707107 -7.29289322 112 -8 72 32"></polygon>
                        </g>
                    </g>
                </g>
            </g>
        </g>
    </g>
</svg>