<?xml version="1.0" encoding="UTF-8"?>
<svg width="16px" height="16px" viewBox="0 0 16 16" version="1.1" xmlns="http://www.w3.org/2000/svg" xmlns:xlink="http://www.w3.org/1999/xlink">
    <title>形状</title>
    <g id="页面-1" stroke="none" stroke-width="1" fill="none" fill-rule="evenodd">
        <g id="短信-发短信" transform="translate(-1752.000000, -609.000000)" fill="#FFFFFF" fill-rule="nonzero">
            <g id="弹窗" transform="translate(554.000000, 142.000000)">
                <g id="发送短信" transform="translate(510.000000, 63.000000)">
                    <g id="收信人" transform="translate(10.000000, 234.000000)">
                        <g id="1" transform="translate(0.000000, 154.000000)">
                            <path d="M686,16 C681.582143,16 678,19.5821429 678,24 C678,28.4178571 681.582143,32 686,32 C690.417857,32 694,28.4178571 694,24 C694,19.5821429 690.417857,16 686,16 Z M688.953571,27.0392857 L687.775,27.0339286 L686,24.9178571 L684.226786,27.0321429 L683.046429,27.0375 C682.967857,27.0375 682.903571,26.975 682.903571,26.8946429 C682.903571,26.8607143 682.916071,26.8285714 682.9375,26.8017857 L685.260714,24.0339286 L682.9375,21.2678571 C682.916071,21.2410714 682.903571,21.2089286 682.903571,21.175 C682.903571,21.0964286 682.967857,21.0321429 683.046429,21.0321429 L684.226786,21.0375 L686,23.1535714 L687.773214,21.0392857 L688.951786,21.0339286 C689.030357,21.0339286 689.094643,21.0964286 689.094643,21.1767857 C689.094643,21.2107143 689.082143,21.2428571 689.060714,21.2696429 L686.741071,24.0357143 L689.0625,26.8035714 C689.083929,26.8303571 689.096429,26.8625 689.096429,26.8964286 C689.096429,26.975 689.032143,27.0392857 688.953571,27.0392857 Z" id="形状"></path>
                        </g>
                    </g>
                </g>
            </g>
        </g>
    </g>
</svg>