<?xml version="1.0" encoding="UTF-8"?>
<svg width="16px" height="16px" viewBox="0 0 16 16" version="1.1" xmlns="http://www.w3.org/2000/svg" xmlns:xlink="http://www.w3.org/1999/xlink">
    <title>编组</title>
    <defs>
        <filter id="filter-1">
            <feColorMatrix in="SourceGraphic" type="matrix" values="0 0 0 0 1.000000 0 0 0 0 1.000000 0 0 0 0 1.000000 0 0 0 1.000000 0"></feColorMatrix>
        </filter>
    </defs>
    <g id="页面-1" stroke="none" stroke-width="1" fill="none" fill-rule="evenodd">
        <g id="短信" transform="translate(-653.000000, -899.000000)">
            <g id="编组" transform="translate(554.000000, 142.000000)" filter="url(#filter-1)">
                <g transform="translate(99.000000, 757.000000)">
                    <path d="M7.98969072,15.9793814 C12.4020619,15.9793814 15.9793814,12.4020619 15.9793814,7.98969072 C15.9793814,3.57731959 12.4020619,0 7.98969072,0 C3.57731959,0 0,3.57731959 0,7.98969072 C0,12.4020619 3.57731959,15.9793814 7.98969072,15.9793814 Z M7.98969072,15.4639175 C3.86185567,15.4639175 0.515463918,12.1175258 0.515463918,7.98969072 C0.515463918,3.86185567 3.86185567,0.515463918 7.98969072,0.515463918 C12.1175258,0.515463918 15.4639175,3.86185567 15.4639175,7.98969072 C15.4639175,12.1175258 12.1175258,15.4639175 7.98969072,15.4639175 Z" id="形状" fill="#555555" fill-rule="nonzero"></path>
                    <path d="M7.21340206,2.87886598 L8.70515464,2.87886598 L8.44845361,10.1051546 L7.45360825,10.1051546 L7.21340206,2.87886598 L7.21340206,2.87886598 Z M7.95103093,11.2757732 C8.2242268,11.2757732 8.46443299,11.3561856 8.65721649,11.5484536 C8.83350515,11.7247423 8.92938144,11.9494845 8.92938144,12.2221649 C8.92938144,12.5108247 8.83350515,12.7350515 8.65670103,12.9118557 C8.46443299,13.0881443 8.22371134,13.1840206 7.95103093,13.1840206 C7.67835052,13.1840206 7.45412371,13.0881443 7.26134021,12.9118557 C7.06907216,12.7190722 6.98917526,12.4943299 6.98917526,12.2221649 C6.98917526,11.9489691 7.06907216,11.7247423 7.26134021,11.5484536 C7.45412371,11.3561856 7.67886598,11.2757732 7.95103093,11.2757732 Z" id="形状" fill="#555555" fill-rule="nonzero"></path>
                </g>
            </g>
        </g>
    </g>
</svg>