<?xml version="1.0" encoding="UTF-8"?>
<svg width="15px" height="26px" viewBox="0 0 15 26" version="1.1" xmlns="http://www.w3.org/2000/svg" xmlns:xlink="http://www.w3.org/1999/xlink">
    <title>形状结合</title>
    <defs>
        <path d="M291,24 C291,24.9664983 291.783502,25.75 292.75,25.75 C293.716498,25.75 294.5,24.9664983 294.5,24 C294.5,23.3747852 294.166452,22.7970629 293.625,22.4844555 C293.083548,22.1718481 292.416452,22.1718481 291.875,22.4844555 C291.333548,22.7970629 291,23.3747852 291,24 L291,24 Z M285.75,24 C285.75,24.6252148 286.083548,25.2029371 286.625,25.5155445 C287.166452,25.8281519 287.833548,25.8281519 288.375,25.5155445 C288.916452,25.2029371 289.25,24.6252148 289.25,24 C289.25,23.3747852 288.916452,22.7970629 288.375,22.4844555 C287.833548,22.1718481 287.166452,22.1718481 286.625,22.4844555 C286.083548,22.7970629 285.75,23.3747852 285.75,24 L285.75,24 Z M296.25,24 C296.25,24.9664983 297.033502,25.75 298,25.75 C298.966498,25.75 299.75,24.9664983 299.75,24 C299.75,23.0335017 298.966498,22.25 298,22.25 C297.033502,22.25 296.25,23.0335017 296.25,24 L296.25,24 Z" id="path-1"></path>
        <filter x="-64.3%" y="-257.1%" width="228.6%" height="614.3%" filterUnits="objectBoundingBox" id="filter-2">
            <feOffset dx="0" dy="0" in="SourceAlpha" result="shadowOffsetOuter1"></feOffset>
            <feGaussianBlur stdDeviation="3" in="shadowOffsetOuter1" result="shadowBlurOuter1"></feGaussianBlur>
            <feColorMatrix values="0 0 0 0 0.140585543   0 0 0 0 0.553507333   0 0 0 0 1  0 0 0 0.399748689 0" type="matrix" in="shadowBlurOuter1"></feColorMatrix>
        </filter>
    </defs>
    <g id="页面-1" stroke="none" stroke-width="1" fill="none" fill-rule="evenodd">
        <g id="短信" transform="translate(-1359.000000, -527.000000)">
            <g id="弹窗" transform="translate(554.000000, 142.000000)">
                <g id="收信人" transform="translate(510.000000, 253.000000)">
                    <g id="1" transform="translate(10.000000, 121.000000)">
                        <g id="形状结合" transform="translate(292.750000, 24.000000) scale(-1, -1) rotate(-270.000000) translate(-292.750000, -24.000000) ">
                            <use fill="black" fill-opacity="1" filter="url(#filter-2)" xlink:href="#path-1"></use>
                            <use fill="#56E9FF" fill-rule="evenodd" xlink:href="#path-1"></use>
                        </g>
                    </g>
                </g>
            </g>
        </g>
    </g>
</svg>