<?xml version="1.0" encoding="UTF-8"?>
<svg width="25px" height="20px" viewBox="0 0 25 20" version="1.1" xmlns="http://www.w3.org/2000/svg" xmlns:xlink="http://www.w3.org/1999/xlink">
    <title>编组</title>
    <defs>
        <filter id="filter-1">
            <feColorMatrix in="SourceGraphic" type="matrix" values="0 0 0 0 0.623529 0 0 0 0 0.784314 0 0 0 0 0.996078 0 0 0 1.000000 0"></feColorMatrix>
        </filter>
    </defs>
    <g id="页面-1" stroke="none" stroke-width="1" fill="none" fill-rule="evenodd">
        <g id="短信-回复" transform="translate(-1075.000000, -474.000000)">
            <g id="弹窗" transform="translate(554.000000, 142.000000)">
                <g id="发送短信" transform="translate(510.000000, 315.000000)">
                    <g id="编组" transform="translate(1.000000, 1.000000)" filter="url(#filter-1)">
                        <g transform="translate(10.000000, 16.000000)">
                            <path d="M20.0003576,10.1016725 C21.2444982,10.1016725 22.4393431,10.6180953 23.3207801,11.5382923 C24.9052872,13.1932218 25.1494278,15.7882923 23.9064701,17.7354754 C22.6623294,19.6838413 20.2761884,20.4408836 18.2069212,19.5453345 C16.1365262,18.6497854 14.9604699,16.3516725 15.3959067,14.054715 C15.8325264,11.757785 17.7597381,10.1028554 19.9992022,10.1016725 L20.0003576,10.1016725 Z M23.0085827,1.19440471 C23.0628982,1.36883061 23.0907515,1.55045012 23.0907515,1.7331371 L23.0907515,9.81294014 C22.7379997,9.58126526 22.3614367,9.38805907 21.9675121,9.23663072 C19.6552872,8.37984155 17.076667,9.11223592 15.4956811,11.0746864 C14.7091542,12.0795341 14.2400328,13.2960394 14.1482449,14.5687995 C14.0572649,15.8319778 14.3475774,17.0933813 14.9815966,18.1897007 C15.1775968,18.5242077 15.4029489,18.8387709 15.6552872,19.1286587 L1.66235695,19.1286587 C0.75275088,19.1286587 0.0156525088,18.3575319 0.0156525088,17.4068277 L0.0156525088,1.72727773 C0.0156525088,1.57586928 0.0344410211,1.42564371 0.0708076585,1.28009463 L0.874807438,1.83879842 L3.62951144,3.79417914 L6.94872359,6.12868618 L9.8278224,8.15803807 C10.2914558,8.48316461 10.7503576,8.83057328 11.2221886,9.14161532 L11.24216,9.15569982 C11.4470162,9.28732992 11.709839,9.28732992 11.9146952,9.15569982 L13.0461323,8.34584067 L15.7397942,6.41389745 L19.0144421,4.06648878 L21.8348647,2.04184089 C22.2233715,1.76015075 22.6177377,1.47964349 23.0085827,1.19440471 L23.0085827,1.19440471 Z M21.213991,12.4596446 C21.0378492,12.2717874 20.7720111,12.1971899 20.5238501,12.2659826 C20.2734203,12.3393644 20.0810794,12.5406477 20.0191461,12.7941516 C19.9523368,13.0504424 20.0219408,13.3230812 20.2034276,13.5159826 L20.4463853,13.7695037 L20.9006107,14.2448559 L17.3830051,14.2542639 C16.9909953,14.2787241 16.6880697,14.6080586 16.6963853,15.0007427 C16.6963853,15.3997854 16.9992022,15.729616 17.3830051,15.7460387 L20.9006107,15.7460387 L20.2034276,16.4807989 C20.0219408,16.6737003 19.9523368,16.9463391 20.0191461,17.2026298 C20.0848922,17.4608275 20.2773713,17.6603763 20.5238501,17.7307989 C20.7720111,17.7995915 21.0378492,17.7249941 21.213991,17.5371369 L21.4534276,17.285954 L23.1271182,15.5253906 C23.4013026,15.230714 23.4013026,14.7742926 23.1271182,14.479616 L22.8853433,14.2260949 L21.213991,12.4596446 Z M21.4440196,0.0147997359 C21.676414,0.0147997359 21.9064701,0.0652783891 22.1177377,0.163869938 L21.431118,0.662714569 L18.7362731,2.59463028 L15.4616252,4.94203895 L12.6365262,6.96201034 C12.2844135,7.21553147 11.9123294,7.45964459 11.5684419,7.71786972 L10.7691461,7.15215119 L8.02032901,5.21082746 L4.70106184,2.87632042 L1.81962478,0.846996039 C1.51796325,0.638066681 1.21985035,0.417391065 0.917033451,0.203785211 C1.14942782,0.0793628961 1.40647007,0.0147997359 1.66821633,0.0147997359 L21.4440196,0.0147997359 Z" id="形状" fill="#000000" fill-rule="nonzero"></path>
                        </g>
                    </g>
                </g>
            </g>
        </g>
    </g>
</svg>