<?xml version="1.0" encoding="UTF-8"?>
<svg width="16px" height="16px" viewBox="0 0 16 16" version="1.1" xmlns="http://www.w3.org/2000/svg" xmlns:xlink="http://www.w3.org/1999/xlink">
    <title>形状备份 13</title>
    <g id="页面-1" stroke="none" stroke-width="1" fill="none" fill-rule="evenodd">
        <g id="切图整合" transform="translate(-511.000000, -234.000000)" fill="#FFFFFF" fill-rule="nonzero">
            <path d="M523.445988,234.161233 C523.453302,234.168381 523.460451,234.175529 523.467599,234.18301 C523.700006,234.427221 523.703165,234.809911 523.474581,235.057944 L523.467599,235.065425 L522.113222,236.468345 L524.629135,236.468345 C525.962898,236.493448 527.023691,237.594638 526.999586,238.928235 L526.999586,247.539427 C527.024024,248.873356 525.963065,249.974712 524.629135,249.999815 L513.370865,249.999815 C512.036935,249.974712 510.975976,248.87319 511.000414,247.539427 L511.000414,238.928401 C510.975976,237.594471 512.036935,236.493115 513.370865,236.468013 L515.890601,236.468013 L514.536723,235.065093 C514.301822,234.818056 514.301822,234.430213 514.536723,234.183177 C514.760652,233.948442 515.132702,233.939798 515.36727,234.163726 C515.373754,234.170043 515.380403,234.176527 515.386721,234.183177 L517.592592,236.468179 L520.409403,236.468179 L522.615441,234.183177 C522.838704,233.947777 523.210589,233.937969 523.445988,234.161233 Z M517.981599,240.619895 C517.45062,240.631222 517.028531,241.069437 517.037176,241.600416 L517.037176,244.867578 C517.037839,245.042419 517.082367,245.214298 517.166678,245.367469 C517.425518,245.823805 518.005205,245.983896 518.461707,245.725223 L518.481656,245.713586 L518.481656,245.713586 L521.037135,244.099206 C521.167084,244.017389 521.275152,243.905156 521.351998,243.772207 C521.631618,243.31105 521.50145,242.711414 521.055588,242.407855 L518.481822,240.773858 C518.334857,240.67237 518.160196,240.618619 517.981599,240.619895 Z" id="形状备份-13"></path>
        </g>
    </g>
</svg>