<?xml version="1.0" encoding="UTF-8"?>
<svg width="19px" height="16px" viewBox="0 0 19 16" version="1.1" xmlns="http://www.w3.org/2000/svg" xmlns:xlink="http://www.w3.org/1999/xlink">
    <title>形状</title>
    <g id="页面-1" stroke="none" stroke-width="1" fill="none" fill-rule="evenodd" opacity="0.399488">
        <g id="切图整合" transform="translate(-316.000000, -193.000000)" fill="#FFFFFF" fill-rule="nonzero">
            <path d="M332.166611,193 L318.513389,193 C317.051275,193 316.34,193.721045 316.34,195.163337 L316.34,203.816646 C316.34,205.259018 317.007308,205.94068 318.432974,205.94068 L320.526028,205.94068 L320.268537,208.143341 C320.268491,208.409432 320.415753,208.653684 320.651094,208.777859 C320.756091,208.834663 320.873583,208.864446 320.99296,208.864446 C321.133446,208.864446 321.274053,208.823957 321.394274,208.74326 L325.549281,205.94068 L332.247006,205.94068 C333.696113,205.94068 334.34,205.259038 334.34,203.816646 L334.34,195.163337 C334.34,193.721045 333.615597,193 332.166611,193 Z M321.158375,200.516958 C320.582238,200.516958 320.113999,200.048537 320.113999,199.47411 C320.113999,198.899742 320.582258,198.429352 321.158375,198.429352 C321.734451,198.429352 322.202771,198.897852 322.202771,199.47411 C322.20267,200.050447 321.732501,200.516958 321.158375,200.516958 Z M325.337708,200.516958 C324.758536,200.516958 324.288005,200.048537 324.288005,199.47411 C324.288005,198.899742 324.758636,198.429352 325.337708,198.429352 C325.91682,198.429352 326.387351,198.897852 326.387351,199.47411 C326.387351,200.050447 325.91477,200.516958 325.337728,200.516958 L325.337708,200.516958 Z M329.523535,200.516958 C328.944342,200.516958 328.47546,200.048537 328.47546,199.47411 C328.47546,198.899742 328.944342,198.429352 329.523515,198.429352 C330.102446,198.429352 330.573078,198.897852 330.573078,199.47411 C330.573078,200.050447 330.102546,200.516958 329.523515,200.516958 L329.523535,200.516958 Z" id="形状"></path>
        </g>
    </g>
</svg>