<?xml version="1.0" encoding="UTF-8"?>
<svg width="16px" height="16px" viewBox="0 0 16 16" version="1.1" xmlns="http://www.w3.org/2000/svg" xmlns:xlink="http://www.w3.org/1999/xlink">
    <title>形状结合</title>
    <g id="页面-1" stroke="none" stroke-width="1" fill="none" fill-rule="evenodd" opacity="0.399488">
        <g id="切图整合" transform="translate(-412.000000, -193.000000)" fill="#FFFFFF" fill-rule="nonzero">
            <path d="M420.02,193 C424.438278,193 428.02,196.581722 428.02,201 C428.02,203.858125 426.495209,206.499141 424.02,207.928203 C421.544791,209.357266 418.495209,209.357266 416.02,207.928203 C413.544791,206.499141 412.02,203.858125 412.02,201 C412.02,196.581722 415.601722,193 420.02,193 Z M421.384727,196.616727 C421.150524,196.400843 420.78984,196.400843 420.555636,196.616727 C420.447346,196.71636 420.385125,196.856371 420.383724,197.003516 C420.38237,197.15066 420.441958,197.291812 420.548364,197.393455 L420.548364,197.393455 L420.555273,197.4 L420.618182,197.460364 C422.647636,199.443636 422.647636,202.592727 420.617091,204.576 L420.617091,204.576 L420.555273,204.635636 C420.453824,204.735347 420.397764,204.869205 420.397901,205.00888 C420.398038,205.148555 420.45436,205.282303 420.554182,205.38 C420.662545,205.485818 420.811273,205.545461 420.966909,205.545461 C421.11732,205.546169 421.262335,205.489464 421.372364,205.386909 L421.372364,205.386909 L421.378545,205.381091 L421.454182,205.307636 C423.903273,202.902909 423.905818,199.097455 421.46,196.689455 L421.46,196.689455 L421.385091,196.616727 Z M419.152727,198.227636 C418.923271,198.045482 418.598547,198.045482 418.369091,198.227636 L418.369091,198.227636 L418.362545,198.233091 L418.358909,198.235636 C418.156116,198.438146 418.153521,198.760847 418.350182,198.962909 L418.350182,198.962909 L418.356,198.969455 L418.357818,198.970909 L418.395273,199.006182 C419.563636,200.119636 419.563636,201.883273 418.395273,202.996364 L418.395273,202.996364 L418.359273,203.029818 C418.258679,203.126919 418.202844,203.257228 418.201734,203.39369 C418.200657,203.530152 418.254395,203.66134 418.350909,203.757818 L418.350909,203.757818 L418.36,203.766909 L418.370182,203.774909 C418.600242,203.953352 418.92194,203.953352 419.152,203.774909 L419.152,203.774909 L419.158909,203.769455 L419.161091,203.767636 L419.211636,203.718909 C420.774545,202.191636 420.774182,199.809818 419.211273,198.282545 L419.211273,198.282545 L419.163273,198.236727 L419.161455,198.234909 Z M417.024727,200.327636 C416.755761,200.216677 416.446517,200.277237 416.239273,200.481455 L416.239273,200.481455 L416.233091,200.487636 C415.951072,200.774507 415.950749,201.22437 416.226182,201.505455 L416.226182,201.505455 L416.232727,201.512 C416.446545,201.722909 416.755636,201.783636 417.024727,201.672364 C417.297071,201.560073 417.474777,201.294584 417.474777,201 C417.474777,200.705416 417.297071,200.439927 417.024727,200.327636 Z" id="形状结合"></path>
        </g>
    </g>
</svg>