<?xml version="1.0" encoding="UTF-8"?>
<svg width="14px" height="22px" viewBox="0 0 14 22" version="1.1" xmlns="http://www.w3.org/2000/svg" xmlns:xlink="http://www.w3.org/1999/xlink">
    <title>形状备份 20</title>
    <g id="页面-1" stroke="none" stroke-width="1" fill="none" fill-rule="evenodd">
        <g id="切图整合" transform="translate(-366.000000, -269.000000)" fill="#56E9FF" fill-rule="nonzero">
            <path d="M378.432975,274.164186 L377.107303,274.164186 L377.107303,272.838514 C377.107303,272.363646 376.731366,271.987709 376.256498,271.987709 L375.781631,271.987709 C375.306763,271.987709 374.930826,272.363646 374.930826,272.838514 L374.930826,274.164186 L370.934023,274.164186 L370.934023,270.088238 C370.934023,269.494654 370.439369,269 369.845785,269 C369.2522,269 368.757546,269.494654 368.757546,270.088238 L368.757546,274.164186 L367.946314,274.164186 C367.253798,274.164186 366.68,274.737985 366.68,275.4305 L366.68,280.654045 C366.68,281.287202 367.135082,281.801642 367.728666,281.900572 L367.728666,288.80594 C367.728666,289.498455 368.302465,290.072254 368.99498,290.072254 L377.364523,290.072254 C378.057039,290.072254 378.630837,289.498455 378.630837,288.80594 L378.630837,281.900572 C379.224422,281.801642 379.679503,281.287202 379.679503,280.654045 L379.679503,275.4305 C379.699289,274.737985 379.125491,274.164186 378.432975,274.164186 Z M376.45436,276.20216 C376.592863,276.20216 376.731366,276.320877 376.731366,276.479166 L376.731366,279.783454 C376.731366,279.941743 376.612649,280.06046 376.45436,280.06046 L369.924929,280.06046 C369.786426,280.06046 369.647923,279.941743 369.647923,279.783454 L369.647923,276.479166 C369.647923,276.320877 369.76664,276.20216 369.924929,276.20216 L376.45436,276.20216 L376.45436,276.20216 Z M376.375215,288.152997 C376.375215,288.390431 376.177354,288.588292 375.93992,288.588292 L370.459155,288.588292 C370.221722,288.588292 370.02386,288.390431 370.02386,288.152997 L370.02386,288.014494 C370.02386,287.77706 370.221722,287.579199 370.459155,287.579199 L375.93992,287.579199 C376.177354,287.579199 376.375215,287.77706 376.375215,288.014494 L376.375215,288.152997 Z M376.375215,285.97652 C376.375215,286.213954 376.177354,286.411815 375.93992,286.411815 L370.459155,286.411815 C370.221722,286.411815 370.02386,286.213954 370.02386,285.97652 L370.02386,285.838017 C370.02386,285.600583 370.221722,285.402722 370.459155,285.402722 L375.93992,285.402722 C376.177354,285.402722 376.375215,285.600583 376.375215,285.838017 L376.375215,285.97652 Z M376.375215,283.780257 C376.375215,284.017691 376.177354,284.215552 375.93992,284.215552 L370.459155,284.215552 C370.221722,284.215552 370.02386,284.017691 370.02386,283.780257 L370.02386,283.66154 C370.02386,283.424106 370.221722,283.226245 370.459155,283.226245 L375.93992,283.226245 C376.177354,283.226245 376.375215,283.424106 376.375215,283.66154 L376.375215,283.780257 Z" id="形状备份-20"></path>
        </g>
    </g>
</svg>