<?xml version="1.0" encoding="UTF-8"?>
<svg width="19px" height="16px" viewBox="0 0 19 16" version="1.1" xmlns="http://www.w3.org/2000/svg" xmlns:xlink="http://www.w3.org/1999/xlink">
    <title>形状备份 21</title>
    <g id="页面-1" stroke="none" stroke-width="1" fill="none" fill-rule="evenodd">
        <g id="切图整合" transform="translate(-316.000000, -273.000000)" fill="#56E9FF" fill-rule="nonzero">
            <path d="M332.166611,273 L318.513389,273 C317.051275,273 316.34,273.721045 316.34,275.163337 L316.34,283.816646 C316.34,285.259018 317.007308,285.94068 318.432974,285.94068 L320.526028,285.94068 L320.268537,288.143341 C320.268491,288.409432 320.415753,288.653684 320.651094,288.777859 C320.756091,288.834663 320.873583,288.864446 320.99296,288.864446 C321.133446,288.864446 321.274053,288.823957 321.394274,288.74326 L325.549281,285.94068 L332.247006,285.94068 C333.696113,285.94068 334.34,285.259038 334.34,283.816646 L334.34,275.163337 C334.34,273.721045 333.615597,273 332.166611,273 Z M321.158375,280.516958 C320.582238,280.516958 320.113999,280.048537 320.113999,279.47411 C320.113999,278.899742 320.582258,278.429352 321.158375,278.429352 C321.734451,278.429352 322.202771,278.897852 322.202771,279.47411 C322.20267,280.050447 321.732501,280.516958 321.158375,280.516958 Z M325.337708,280.516958 C324.758536,280.516958 324.288005,280.048537 324.288005,279.47411 C324.288005,278.899742 324.758636,278.429352 325.337708,278.429352 C325.91682,278.429352 326.387351,278.897852 326.387351,279.47411 C326.387351,280.050447 325.91477,280.516958 325.337728,280.516958 L325.337708,280.516958 Z M329.523535,280.516958 C328.944342,280.516958 328.47546,280.048537 328.47546,279.47411 C328.47546,278.899742 328.944342,278.429352 329.523515,278.429352 C330.102446,278.429352 330.573078,278.897852 330.573078,279.47411 C330.573078,280.050447 330.102546,280.516958 329.523515,280.516958 L329.523535,280.516958 Z" id="形状备份-21"></path>
        </g>
    </g>
</svg>