<?xml version="1.0" encoding="UTF-8"?>
<svg width="18px" height="19px" viewBox="0 0 18 19" version="1.1" xmlns="http://www.w3.org/2000/svg" xmlns:xlink="http://www.w3.org/1999/xlink">
    <title>形状备份 17</title>
    <g id="页面-1" stroke="none" stroke-width="1" fill="none" fill-rule="evenodd">
        <g id="切图整合" transform="translate(-556.000000, -271.000000)" fill="#56E9FF" fill-rule="nonzero">
            <path d="M571.63256,285.092681 L558.734174,285.092681 C558.415695,285.092681 558.137026,284.853822 558.137026,284.495534 L558.137026,284.256675 C558.137026,283.938196 558.375885,283.659527 558.734174,283.659527 L561.242193,283.659527 C561.640292,283.659527 561.99858,283.341048 561.99858,282.90314 C561.99858,282.465232 561.680102,282.226373 561.282003,282.226373 L558.734174,282.226373 C557.579689,282.226373 556.664062,283.141999 556.664062,284.296484 L556.664062,284.535343 C556.664062,285.689829 557.579689,286.605455 558.734174,286.605455 L571.59275,286.605455 C571.911229,286.605455 572.189898,286.844314 572.189898,287.202602 L572.189898,287.401651 C572.189898,287.72013 571.951039,287.998799 571.59275,287.998799 L560.963525,287.998799 C560.565426,287.998799 560.207138,288.317278 560.207138,288.755186 C560.207138,289.153284 560.525616,289.511573 560.963525,289.511573 L571.59275,289.511573 C572.747235,289.511573 573.662861,288.595946 573.662861,287.441461 L573.662861,287.202602 C573.702671,286.008307 572.747235,285.092681 571.63256,285.092681 Z M565.183367,271 C562.516108,271 560.366377,273.149731 560.366377,275.81699 C560.366377,278.484249 563.630783,283.181809 565.183367,283.181809 C567.173859,283.181809 570.000357,278.484249 570.000357,275.81699 C570.000357,273.149731 567.810816,271 565.183367,271 Z M565.183367,278.24539 C563.829833,278.24539 562.715157,277.130714 562.715157,275.77718 C562.715157,274.423646 563.829833,273.30897 565.183367,273.30897 C566.536901,273.30897 567.651577,274.423646 567.651577,275.77718 C567.651577,277.130714 566.536901,278.24539 565.183367,278.24539 Z" id="形状备份-17"></path>
        </g>
    </g>
</svg>