<?xml version="1.0" encoding="UTF-8"?>
<svg width="19px" height="14px" viewBox="0 0 19 14" version="1.1" xmlns="http://www.w3.org/2000/svg" xmlns:xlink="http://www.w3.org/1999/xlink">
    <title>形状备份 19</title>
    <g id="页面-1" stroke="none" stroke-width="1" fill="none" fill-rule="evenodd">
        <g id="切图整合" transform="translate(-460.000000, -275.000000)" fill="#56E9FF" fill-rule="nonzero">
            <path d="M474.674103,278.163599 C474.674103,276.821196 473.579229,275.733333 472.228495,275.733333 L462.80569,275.733333 C461.454956,275.733333 460.36,276.821196 460.36,278.163599 L460.36,286.335144 C460.36,287.677548 461.454956,288.765575 462.805607,288.765575 L472.228495,288.765575 C473.579229,288.765575 474.674103,287.677383 474.674103,286.335227 C474.674088,286.249402 474.714625,286.168616 474.783441,286.117329 C474.852256,286.066043 474.941258,286.050286 475.023499,286.074829 L477.087459,286.689902 C477.611306,286.846041 478.162619,286.547949 478.318759,286.02402 C478.346102,285.932287 478.36,285.837074 478.36,285.741352 L478.36,278.718871 C478.36,278.17226 477.916821,277.729081 477.37021,277.729081 C477.274461,277.72908 477.179219,277.742971 477.087459,277.770322 L474.986464,278.396447 C474.912932,278.418386 474.833358,278.404291 474.771835,278.35843 C474.710313,278.312568 474.674078,278.240334 474.674103,278.163599 L474.674103,278.163599 Z M465.5564,284.410002 L465.5564,280.171224 C465.5564,279.62453 465.999579,279.181433 466.546191,279.181433 C466.733679,279.181433 466.917317,279.234646 467.075729,279.334933 L470.42221,281.454157 C470.884112,281.746641 471.021363,282.358166 470.72888,282.819986 C470.650599,282.943584 470.545891,283.048292 470.422293,283.126573 L467.075811,285.24621 C466.613991,285.538775 466.002548,285.401524 465.709983,284.939705 C465.609651,284.781278 465.5564,284.597609 465.5564,284.410084 L465.5564,284.410002 Z" id="形状备份-19"></path>
        </g>
    </g>
</svg>