<?xml version="1.0" encoding="UTF-8"?>
<svg width="17px" height="16px" viewBox="0 0 17 16" version="1.1" xmlns="http://www.w3.org/2000/svg" xmlns:xlink="http://www.w3.org/1999/xlink">
    <title>路径备份 4</title>
    <g id="页面-1" stroke="none" stroke-width="1" fill="none" fill-rule="evenodd">
        <g id="切图整合" transform="translate(-603.000000, -274.000000)" fill="#56E9FF" fill-rule="nonzero">
            <path d="M619.58297,274.060737 C619.512113,273.996737 619.410398,273.98188 619.324684,274.023023 L603.802367,282.271039 C603.718938,282.311039 603.665224,282.396754 603.664062,282.490468 C603.662938,282.584183 603.715509,282.67104 603.797795,282.712183 L608.190947,284.912187 C608.270947,284.952187 608.366947,284.943044 608.438948,284.888187 L612.709813,280.74075 L609.948665,285.359045 C609.91095,285.407045 609.892665,285.473331 609.896093,285.539617 L610.156665,289.78534 C610.16238,289.879054 610.212665,289.960197 610.284665,289.988769 C610.304094,289.996769 610.323523,290.000197 610.342951,290.000197 C610.396666,290.000197 610.448094,289.971626 610.483523,289.919054 L612.374955,287.159049 L615.257247,288.564766 C615.320104,288.595623 615.392104,288.596766 615.456104,288.568195 C615.520105,288.539623 615.568105,288.484766 615.588676,288.417337 L619.652684,274.316737 C619.681256,274.225309 619.653827,274.124737 619.58297,274.060737 Z" id="路径备份-4"></path>
        </g>
    </g>
</svg>