<?xml version="1.0" encoding="UTF-8"?>
<svg width="11px" height="16px" viewBox="0 0 11 16" version="1.1" xmlns="http://www.w3.org/2000/svg" xmlns:xlink="http://www.w3.org/1999/xlink">
    <title>路径</title>
    <g id="页面-1" stroke="none" stroke-width="1" fill="none" fill-rule="evenodd">
        <g id="步行-骑行-驾车" transform="translate(-961.000000, -387.000000)" fill="#FFFFFF" fill-rule="nonzero">
            <g id="编组备份" transform="translate(945.000000, 131.000000)">
                <path d="M26.675181,262.399419 L22.4849993,262.399419 C22.3036739,262.399419 22.1566438,262.546449 22.1566438,262.727775 L22.1566438,271.101455 C22.1566438,271.464106 21.8625837,271.758166 21.4999329,271.758166 C21.1372821,271.758166 20.8432219,271.464106 20.8432219,271.101455 L20.8432219,262.727775 C20.8432219,262.546449 20.6961918,262.399419 20.5148665,262.399419 L16.3246848,262.399419 C16.1433594,262.397309 15.9979122,262.248696 16,262.06737 C16.000902,261.988931 16.0299211,261.913305 16.0818038,261.854212 L21.256876,256.107552 C21.378932,255.97336 21.5864626,255.963335 21.7208298,256.085391 C21.7285682,256.092426 21.7359549,256.099813 21.7429898,256.107552 L26.9182379,261.854212 C27.0380076,261.990514 27.0246412,262.198044 26.8883394,262.317638 C26.8294571,262.369685 26.7537651,262.398725 26.675181,262.399419 Z" id="路径"></path>
            </g>
        </g>
    </g>
</svg>