<?xml version="1.0" encoding="UTF-8"?>
<svg width="26px" height="32px" viewBox="0 0 26 32" version="1.1" xmlns="http://www.w3.org/2000/svg" xmlns:xlink="http://www.w3.org/1999/xlink">
    <title>形状</title>
    <g id="页面-1" stroke="none" stroke-width="1" fill="none" fill-rule="evenodd">
        <g id="筛地点" transform="translate(-1657.000000, -960.000000)" fill="#FFFFFF" fill-rule="nonzero">
            <g id="编组-16" transform="translate(1635.000000, 922.000000)">
                <path d="M34.5946267,38 C37.9590137,38 41.1792504,39.3653699 43.5175461,41.7833257 C48.310382,46.7381983 48.4163956,54.5500392 43.8037651,59.6299055 L43.662543,59.7830166 L43.5172992,59.9355279 L34.5946267,69.06864 L25.6717425,59.935281 C20.7761387,54.8741479 20.7760682,46.8444588 25.6716367,41.7834316 C28.0100029,39.3654052 31.2302397,38 34.5946267,38 Z M34.5946267,40.3989757 C31.8806305,40.3989757 29.2828221,41.5003588 27.3960416,43.4512136 C23.4838414,47.4956043 23.3973725,53.8716936 27.1616828,58.0173352 L27.2769042,58.1422584 L27.3957593,58.2671109 L34.5945561,65.6356705 L41.7932118,58.2673579 C45.7493344,54.1774572 45.7888469,47.7131703 41.9117847,43.5757486 L41.793106,43.4510725 C39.9067702,41.5004936 37.308856,40.3989757 34.5946267,40.3989757 Z M34.5824554,44.9145302 C36.0709311,44.9078367 37.5026212,45.4854404 38.5696941,46.5232078 L38.6021508,46.5549589 L38.6344312,46.5871334 L38.6889726,46.6423804 C40.5688875,48.5720035 40.8458634,51.5552709 39.3503843,53.7991246 C37.8384651,56.0676736 34.9346815,56.9524723 32.4146281,55.9124457 C29.89461,54.8724192 28.4600225,52.1972086 28.9881147,49.5226329 C29.5052351,46.9036571 31.7649643,44.9960481 34.4242641,44.9171641 L34.5049826,44.9153296 L34.5824554,44.9145302 L34.5824554,44.9145302 Z M34.6192867,47.3135997 L34.5938153,47.3135997 L34.5424137,47.3140936 C32.979481,47.338542 31.6447333,48.4523723 31.3416509,49.9873286 C31.0352524,51.5392189 31.8676264,53.091462 33.3298373,53.6949103 C34.792013,54.2983232 36.47687,53.7849777 37.354119,52.4686809 C38.213164,51.1797607 38.0642511,49.4703141 37.003163,48.3502747 L36.9707062,48.3165126 L36.9370853,48.2824684 L36.9157415,48.2611951 C36.3169168,47.6694681 35.5136284,47.3304431 34.6719231,47.3141994 L34.6458871,47.3138114 L34.6192867,47.3135997 L34.6192867,47.3135997 Z" id="形状"></path>
            </g>
        </g>
    </g>
</svg>