<?xml version="1.0" encoding="UTF-8"?>
<svg width="18px" height="17px" viewBox="0 0 18 17" version="1.1" xmlns="http://www.w3.org/2000/svg" xmlns:xlink="http://www.w3.org/1999/xlink">
    <title>形状结合</title>
    <g id="页面-1" stroke="none" stroke-width="1" fill="none" fill-rule="evenodd">
        <g id="输入框-历史记录" transform="translate(-524.000000, -164.000000)" fill="#FFFFFF" fill-rule="nonzero">
            <g id="编组" transform="translate(515.000000, 131.000000)">
                <path d="M13.7834924,41.2441439 C13.9984636,41.0291728 14.3424174,41.0291728 14.5573886,41.2441439 L14.5573886,41.2441439 L14.557,43.734 L25.9991401,43.7345848 L25.9991401,46.744181 L14.557,46.744 L14.5573886,49.2840653 C14.3663031,49.4751508 14.0733054,49.4963825 13.8595727,49.3477604 L13.7834924,49.2840653 L10.1504798,45.6510527 C9.95700577,45.4360815 9.95700577,45.0706306 10.1504798,44.8556594 L10.1504798,44.8556594 Z M21.4318629,33.1612284 C21.646834,32.9462572 21.9907879,32.9462572 22.2057591,33.1612284 L22.2057591,33.1612284 L25.8387716,36.7942409 C26.0537428,37.0092121 26.0537428,37.3746631 25.8387716,37.54664 L22.2057591,41.1796526 C21.9907879,41.3946238 21.646834,41.3946238 21.4318629,41.1796526 L21.4318629,41.1796526 L21.431,38.707 L10,38.7074843 L10,35.697888 L21.431,35.697 Z" id="形状结合" transform="translate(18.000000, 41.222647) rotate(-270.000000) translate(-18.000000, -41.222647) "></path>
            </g>
        </g>
    </g>
</svg>