<?xml version="1.0" encoding="UTF-8"?>
<svg width="16px" height="13px" viewBox="0 0 16 13" version="1.1" xmlns="http://www.w3.org/2000/svg" xmlns:xlink="http://www.w3.org/1999/xlink">
    <title>路径</title>
    <g id="页面-1" stroke="none" stroke-width="1" fill="none" fill-rule="evenodd">
        <g id="步行-骑行-驾车" transform="translate(-1418.000000, -390.000000)" fill="#FFFFFF" fill-rule="nonzero">
            <g id="编组备份-2" transform="translate(1405.000000, 131.000000)">
                <g id="编组-4" transform="translate(2.000000, 171.500000)">
                    <path d="M11.3420458,94.4912158 L13.9368267,94.4912158 C14.1414663,94.4912158 14.3075352,94.3253255 14.3075352,94.1205073 L14.3075352,93.1640936 C14.3075352,90.0359282 16.8433884,87.5 19.9715538,87.5 L20.2385139,87.5 C23.0650769,87.4873966 25.6528936,89.0832645 26.9109097,91.6146536 C27.105371,91.9750051 26.9709088,92.4248195 26.6105573,92.6192807 C26.2502057,92.813742 25.8005699,92.6794584 25.6059301,92.3189283 C24.4938046,90.406101 22.7072254,88.9827304 20.4904743,88.9827304 L20.0901234,88.9827304 C17.7730168,88.9418382 15.8614395,90.7869879 15.8205473,93.1040946 C15.8201901,93.1239157 15.8200115,93.144094 15.819833,93.1640936 L15.819833,94.1205073 C15.819833,94.3251469 15.9857232,94.4912158 16.1905415,94.4912158 L18.7853224,94.4912158 C18.989962,94.4912158 19.1560309,94.657106 19.1560309,94.8619243 C19.1560309,94.9421016 19.1299598,95.0201361 19.0819249,95.0844208 L15.3750185,100.029165 C15.2521633,100.192912 15.0198455,100.226126 14.856098,100.10345 C14.8280322,100.082289 14.8030854,100.057282 14.781992,100.029165 L11.0750857,95.0842422 C10.9515162,94.9210305 10.9838371,94.6883555 11.1472274,94.5649646 C11.2038337,94.5222867 11.2713326,94.4965728 11.3420458,94.4912158 Z" id="路径"></path>
                </g>
            </g>
        </g>
    </g>
</svg>