<?xml version="1.0" encoding="UTF-8"?>
<svg width="16px" height="11px" viewBox="0 0 16 11" version="1.1" xmlns="http://www.w3.org/2000/svg" xmlns:xlink="http://www.w3.org/1999/xlink">
    <title>路径</title>
    <g id="页面-1" stroke="none" stroke-width="1" fill="none" fill-rule="evenodd">
        <g id="步行-骑行-驾车" transform="translate(-958.000000, -308.000000)" fill="#FFFFFF" fill-rule="nonzero">
            <g id="编组备份" transform="translate(945.000000, 131.000000)">
                <path d="M29.0003626,186.928604 C29.0003626,187.335034 28.6708977,187.664677 28.2642897,187.664677 C27.8576817,187.664677 27.5282167,187.335212 27.5282167,186.928604 C27.5282167,184.489671 25.5510698,182.512702 23.1123147,182.512702 L19.0644492,182.512702 C18.8612345,182.512702 18.6964127,182.677524 18.6964127,182.880739 L18.6964127,186.119138 C18.6981984,186.322353 18.5348052,186.488603 18.3315905,186.490211 C18.2410546,186.491103 18.1535544,186.458425 18.0855186,186.398782 L13.1249726,182.056273 C12.9724723,181.921808 12.958008,181.689308 13.0922939,181.536807 C13.1024725,181.525379 13.1133654,181.514486 13.1249726,181.504307 L18.0855186,177.161977 C18.2381975,177.027691 18.4706979,177.04287 18.6048054,177.195548 C18.6644483,177.263406 18.697127,177.351085 18.6964127,177.44162 L18.6964127,180.68002 C18.6964127,180.883235 18.8612345,181.048056 19.0644492,181.048056 L23.1124933,181.048056 C26.3614286,181.047878 28.996434,183.67949 29.0003626,186.928604 L29.0003626,186.928604 Z" id="路径"></path>
            </g>
        </g>
    </g>
</svg>