<?xml version="1.0" encoding="UTF-8"?>
<svg width="16px" height="16px" viewBox="0 0 16 16" version="1.1" xmlns="http://www.w3.org/2000/svg" xmlns:xlink="http://www.w3.org/1999/xlink">
    <title>形状</title>
    <g id="Page-1" stroke="none" stroke-width="1" fill="none" fill-rule="evenodd">
        <g id="编组-16" transform="translate(-60.000000, 0.000000)" fill="#A6ADB4" fill-rule="nonzero">
            <path d="M68,0 C63.5821429,0 60,3.58214286 60,8 C60,12.4178571 63.5821429,16 68,16 C72.4178571,16 76,12.4178571 76,8 C76,3.58214286 72.4178571,0 68,0 Z M71.2946429,6.31607143 L68.1160714,10.7089286 C68.0589286,10.7875 67.9428571,10.7875 67.8857143,10.7089286 L64.7071429,6.31607143 C64.6392857,6.22142857 64.7071429,6.08928571 64.8232143,6.08928571 L65.6607143,6.08928571 C65.8428571,6.08928571 66.0160714,6.17678571 66.1232143,6.325 L68,8.92142857 L69.8785714,6.325 C69.9857143,6.17678571 70.1571429,6.08928571 70.3410714,6.08928571 L71.1785714,6.08928571 C71.2946429,6.08928571 71.3625,6.22142857 71.2946429,6.31607143 Z" id="形状"></path>
        </g>
    </g>
</svg>