<?xml version="1.0" encoding="UTF-8"?>
<svg width="19px" height="12px" viewBox="0 0 19 12" version="1.1" xmlns="http://www.w3.org/2000/svg" xmlns:xlink="http://www.w3.org/1999/xlink">
    <title>预览</title>
    <g id="Page-1" stroke="none" stroke-width="1" fill="none" fill-rule="evenodd">
        <g id="预览" fill="#56E9FF" fill-rule="nonzero">
            <g id="Group">
                <path d="M9.4150641,4.70753205 C8.68856837,4.70753205 8.13301282,5.2630876 8.13301282,5.98958333 C8.13301282,6.71607907 8.68856837,7.27163462 9.4150641,7.27163462 C10.1415598,7.27163462 10.6971154,6.71607907 10.6971154,5.98958333 C10.6971154,5.2630876 10.1415598,4.70753205 9.4150641,4.70753205 Z M9.4150641,1.71607907 C7.06463676,1.71607907 5.14155984,3.63915599 5.14155984,5.98958333 C5.14155984,8.34001068 7.06463676,10.2630876 9.4150641,10.2630876 C11.7654914,10.2630876 13.6885684,8.34001068 13.6885684,5.98958333 C13.6885684,3.63915599 11.7654914,1.71607907 9.4150641,1.71607907 Z M9.4150641,9.40838676 C7.53472222,9.40838676 5.99626068,7.86992522 5.99626068,5.98958333 C5.99626068,4.10924145 7.53472222,2.57077991 9.4150641,2.57077991 C11.295406,2.57077991 12.8338675,4.10924145 12.8338675,5.98958333 C12.8338675,7.86992522 11.295406,9.40838676 9.4150641,9.40838676 Z M9.4150641,0.00667734375 C4.20138888,0.00667734375 0.0133547075,4.28018163 0.0133547075,5.98958333 C0.0133547075,7.69898504 4.2013889,11.9724893 9.4150641,11.9724893 C14.6287393,11.9724893 18.8167735,7.69898506 18.8167735,5.98958333 C18.8167735,4.28018161 14.6287393,0.00667734375 9.4150641,0.00667734375 Z M9.4150641,11.1177885 C4.7142094,11.1177885 0.868055549,7.44257478 0.868055549,5.98958333 C0.868055549,4.53659189 4.7142094,0.861378205 9.4150641,0.861378205 C14.1159188,0.861378205 17.9620727,4.53659189 17.9620727,5.98958333 C17.9620727,7.44257478 14.1159188,11.1177885 9.4150641,11.1177885 Z" id="形状"></path>
            </g>
        </g>
    </g>
</svg>