<?xml version="1.0" encoding="UTF-8"?>
<svg width="19px" height="12px" viewBox="0 0 19 12" version="1.1" xmlns="http://www.w3.org/2000/svg" xmlns:xlink="http://www.w3.org/1999/xlink">
    <title>Group</title>
    <g id="Page-1" stroke="none" stroke-width="1" fill="none" fill-rule="evenodd">
        <g id="Group" fill="#56E9FF" fill-rule="nonzero">
            <g id="形状">
                <path d="M9.4150641,0.00667734375 C14.6287393,0.00667734375 18.8167735,4.28018161 18.8167735,5.98958333 C18.8167735,7.69898506 14.6287393,11.9724893 9.4150641,11.9724893 C4.2013889,11.9724893 0.0133547075,7.69898504 0.0133547075,5.98958333 C0.0133547075,4.28018163 4.20138888,0.00667734375 9.4150641,0.00667734375 Z M9.28685897,2.00667734 C6.93643163,2.00667734 5.01335471,3.92975427 5.01335471,6.28018161 C5.01335471,8.63060895 6.93643163,10.5536859 9.28685897,10.5536859 C11.6372863,10.5536859 13.5603632,8.63060895 13.5603632,6.28018161 C13.5603632,3.92975427 11.6372863,2.00667734 9.28685897,2.00667734 Z M9.29335471,7.56667734 C10.0002792,7.56667734 10.5733547,6.99360182 10.5733547,6.28667734 C10.5733547,5.57975286 10.0002792,5.00667734 9.29335471,5.00667734 C8.58643023,5.00667734 8.01335471,5.57975286 8.01335471,6.28667734 C8.01335471,6.99360182 8.58643023,7.56667734 9.29335471,7.56667734 Z"></path>
            </g>
        </g>
    </g>
</svg>