<?xml version="1.0" encoding="UTF-8"?>
<svg width="16px" height="16px" viewBox="0 0 16 16" version="1.1" xmlns="http://www.w3.org/2000/svg" xmlns:xlink="http://www.w3.org/1999/xlink">
    <title>形状</title>
    <g id="Page-1" stroke="none" stroke-width="1" fill="none" fill-rule="evenodd">
        <g id="编组-16" transform="translate(-30.000000, 0.000000)" fill="#A6ADB4" fill-rule="nonzero">
            <path d="M38,0 C33.5821429,0 30,3.58214286 30,8 C30,12.4178571 33.5821429,16 38,16 C42.4178571,16 46,12.4178571 46,8 C46,3.58214286 42.4178571,0 38,0 Z M41.1785714,9.91071429 L40.3410714,9.91071429 C40.1589286,9.91071429 39.9857143,9.82321429 39.8785714,9.675 L38,7.07857143 L36.1214286,9.675 C36.0142857,9.82321429 35.8428571,9.91071429 35.6589286,9.91071429 L34.8214286,9.91071429 C34.7053571,9.91071429 34.6375,9.77857143 34.7053571,9.68392857 L37.8839286,5.29107143 C37.9410714,5.2125 38.0571429,5.2125 38.1142857,5.29107143 L41.2928571,9.68392857 C41.3625,9.77857143 41.2946429,9.91071429 41.1785714,9.91071429 Z" id="形状"></path>
        </g>
    </g>
</svg>