<?xml version="1.0" encoding="UTF-8"?>
<svg width="22px" height="22px" viewBox="0 0 22 22" version="1.1" xmlns="http://www.w3.org/2000/svg" xmlns:xlink="http://www.w3.org/1999/xlink">
    <title>形状</title>
    <g id="PC端" stroke="none" stroke-width="1" fill="none" fill-rule="evenodd">
        <g id="分组" transform="translate(-39.000000, -631.000000)" fill="#0091FF" fill-rule="nonzero">
            <g id="编组-17备份" transform="translate(32.000000, 624.000000)">
                <path d="M17.25,26.6349 C13.4435075,26.1541497 10.4458503,23.1564925 9.96510001,19.35 L8.32500002,19.35 C8.18576135,19.35 8.05222554,19.2946877 7.95376894,19.1962311 C7.85531233,19.0977745 7.8,18.9642387 7.8,18.825 L7.8,17.775 C7.8,17.6357613 7.85531233,17.5022255 7.95376894,17.4037689 C8.05222554,17.3053123 8.18576135,17.25 8.32500002,17.25 L9.96510001,17.25 C10.4458503,13.4435075 13.4435075,10.4458503 17.25,9.96510001 L17.25,8.32500002 C17.25,8.18576135 17.3053123,8.05222554 17.4037689,7.95376894 C17.5022255,7.85531233 17.6357613,7.8 17.775,7.8 L18.825,7.8 C18.9642387,7.8 19.0977745,7.85531233 19.1962311,7.95376894 C19.2946877,8.05222554 19.35,8.18576135 19.35,8.32500002 L19.35,9.96510001 C23.1564925,10.4458503 26.1541497,13.4435075 26.6349,17.25 L28.275,17.25 C28.4142386,17.25 28.5477745,17.3053123 28.6462311,17.4037689 C28.7446877,17.5022255 28.8,17.6357613 28.8,17.775 L28.8,18.825 C28.8,18.9642387 28.7446877,19.0977745 28.6462311,19.1962311 C28.5477745,19.2946877 28.4142386,19.35 28.275,19.35 L26.6349,19.35 C26.1541497,23.1564925 23.1564925,26.1541497 19.35,26.6349 L19.35,28.275 C19.35,28.4142386 19.2946877,28.5477745 19.1962311,28.6462311 C19.0977745,28.7446877 18.9642387,28.8 18.825,28.8 L17.775,28.8 C17.6357613,28.8 17.5022255,28.7446877 17.4037689,28.6462311 C17.3053123,28.5477745 17.25,28.4142386 17.25,28.275 L17.25,26.6349 L17.25,26.6349 Z M18.3,24.6 C21.7793939,24.6 24.6,21.7793939 24.6,18.3 C24.6,14.8206061 21.7793939,12 18.3,12 C14.8206061,12 12,14.8206061 12,18.3 C12,21.7793939 14.8206061,24.6 18.3,24.6 Z M18.3,21.45 C16.560303,21.45 15.15,20.039697 15.15,18.3 C15.15,16.560303 16.560303,15.15 18.3,15.15 C20.039697,15.15 21.45,16.560303 21.45,18.3 C21.45,20.039697 20.039697,21.45 18.3,21.45 Z" id="形状"></path>
            </g>
        </g>
    </g>
</svg>