<?xml version="1.0" encoding="UTF-8"?>
<svg width="19px" height="21px" viewBox="0 0 19 21" version="1.1" xmlns="http://www.w3.org/2000/svg" xmlns:xlink="http://www.w3.org/1999/xlink">
    <title>形状</title>
    <g id="PC端" stroke="none" stroke-width="1" fill="none" fill-rule="evenodd">
        <g id="分组" transform="translate(-41.000000, -586.000000)" fill="#0091FF" fill-rule="nonzero">
            <g id="编组-17备份-2" transform="translate(32.000000, 578.000000)">
                <path d="M27.0704797,17.227656 L27.3749506,17.4198988 C27.9989903,17.8145025 28.1877119,18.6416526 27.7951709,19.2715008 C27.6894867,19.4409781 27.5460583,19.5851602 27.3749506,19.6939292 L19.214626,24.846543 C18.7793081,25.1197302 18.2282408,25.1197302 17.7954391,24.846543 L9.62504936,19.6838111 C9.00100973,19.2892074 8.81228807,18.4620573 9.20482913,17.8322091 C9.31051326,17.6627319 9.45394172,17.5185497 9.62504936,17.4097808 L9.92952031,17.2175379 L17.7929228,22.188027 C18.2282408,22.4612142 18.7793081,22.4612142 19.2121097,22.188027 L27.0679634,17.2301855 L27.0704797,17.227656 Z M27.0704797,21.1762226 L27.3749506,21.3684654 C27.9989903,21.7630691 28.1877119,22.5902192 27.7951709,23.2200675 C27.6894867,23.3895447 27.5460583,23.5337268 27.3749506,23.6424958 L19.214626,28.7951096 C18.7793081,29.0682968 18.2282408,29.0682968 17.7954391,28.7951096 L9.62504936,23.6323777 C9.00100973,23.237774 8.81228807,22.4106239 9.20482913,21.7807757 C9.31051326,21.6112985 9.45394172,21.4671164 9.62504936,21.3583474 L9.92952031,21.1661046 L17.7929228,26.1340641 C18.2282408,26.4072513 18.7793081,26.4072513 19.2121097,26.1340641 L27.0679634,21.1762226 L27.0704797,21.1762226 Z M19.2045609,8.20994941 L27.3724344,13.3726813 C27.996474,13.767285 28.1851956,14.5944351 27.7926546,15.2242833 C27.6869705,15.3937605 27.543542,15.5379427 27.3724344,15.6467116 L19.214626,20.796796 C18.7793081,21.0699831 18.2282408,21.0699831 17.7954391,20.796796 L9.62504936,15.6315346 C9.00100973,15.2369309 8.81228807,14.4097808 9.20482913,13.7799325 C9.31051326,13.6104553 9.45394172,13.4662732 9.62504936,13.3575042 L17.7878903,8.20489039 C18.2232082,7.9317032 18.7742755,7.9317032 19.2070772,8.20489039 L19.2045609,8.20994941 Z" id="形状"></path>
            </g>
        </g>
    </g>
</svg>