<?xml version="1.0" encoding="UTF-8"?>
<svg width="60px" height="60px" viewBox="0 0 60 60" version="1.1" xmlns="http://www.w3.org/2000/svg" xmlns:xlink="http://www.w3.org/1999/xlink">
    <title>相机</title>
    <g id="新增任务" stroke="none" stroke-width="1" fill="none" fill-rule="evenodd">
        <g id="发布任务" transform="translate(-86.000000, -1164.000000)" stroke="#999999" stroke-width="2">
            <g id="list" transform="translate(0.000000, 382.000000)">
                <g id="添加图片" transform="translate(40.000000, 767.000000)">
                    <g id="相机" transform="translate(46.000000, 15.000000)">
                        <path d="M36.5899351,8.2 C38.1088537,8.2 39.5454182,8.8904486 40.494304,10.0765557 L40.494304,10.0765557 L44.6773881,15.3049857 L54,15.3052632 C55.3807119,15.3052632 56.6307119,15.8649072 57.5355339,16.7697293 C58.4403559,17.6745513 59,18.9245513 59,20.3052632 L59,20.3052632 L59,47.7789474 C59,49.1596592 58.4403559,50.4096592 57.5355339,51.3144813 C56.6307119,52.2193033 55.3807119,52.7789474 54,52.7789474 L54,52.7789474 L6,52.7789474 C4.61928813,52.7789474 3.36928813,52.2193033 2.46446609,51.3144813 C1.55964406,50.4096592 1,49.1596592 1,47.7789474 L1,47.7789474 L1,20.3052632 C1,18.9245513 1.55964406,17.6745513 2.46446609,16.7697293 C3.36928813,15.8649072 4.61928813,15.3052632 6.00002977,15.3052632 L6.00002977,15.3052632 L15.3215346,15.3049857 L19.5057208,10.0765248 C20.4545818,8.8904486 21.8911463,8.2 23.4100649,8.2 L23.4100649,8.2 Z" id="Combined-Shape"></path>
                        <path d="" id="Rectangle-18"></path>
                        <circle id="椭圆形" fill-rule="nonzero" cx="30" cy="33" r="11"></circle>
                    </g>
                </g>
            </g>
        </g>
    </g>
</svg>