<?xml version="1.0" encoding="UTF-8"?>
<svg width="39px" height="34px" viewBox="0 0 39 34" version="1.1" xmlns="http://www.w3.org/2000/svg" xmlns:xlink="http://www.w3.org/1999/xlink">
    <title>形状</title>
    <g id="新增任务" stroke="none" stroke-width="1" fill="none" fill-rule="evenodd">
        <g id="提交信息后-发送文件类型" transform="translate(-266.000000, -1226.000000)" fill="#333333" fill-rule="nonzero">
            <g id="编组-2" transform="translate(0.000000, 1047.000000)">
                <g id="编组-7备份" transform="translate(233.000000, 143.000000)">
                    <g id="照片" transform="translate(28.000000, 28.000000)">
                        <path d="M42.4907256,14.7111771 L42.486027,14.7158966 C41.5228255,13.720075 40.1931375,13.1726091 38.8117655,13.2009263 L34.291766,13.2009263 L33.2533878,10.4541576 C32.9573795,9.76982518 32.478128,9.17988345 31.8673172,8.75512541 C31.261205,8.2926111 30.5282322,8.0283172 29.7717665,8 L19.3926825,8 C18.6409154,8.02359767 17.9126411,8.28789156 17.3206245,8.75512541 C16.7051152,9.17988345 16.2258637,9.76982518 15.9251569,10.4541576 L14.7975063,13.2009263 L10.1835359,13.2009263 C8.80216396,13.1726091 7.47247596,13.720075 6.50927441,14.7158966 C5.51788159,15.6834011 4.97285047,17.0190291 5.00104174,18.4018525 L5.00104174,36.6617289 C4.97285047,38.0492718 5.51788159,39.3848999 6.50927441,40.3524043 C7.47247596,41.3482259 8.80216396,41.8956919 10.1835359,41.8673747 L38.8164641,41.8673747 C40.1931375,41.8768137 41.5181269,41.3293478 42.4907256,40.3524043 C43.4633242,39.3754608 44.0083554,38.0445523 43.9989583,36.6617289 L43.9989583,18.4018525 C44.0271495,17.0143096 43.4821184,15.6786815 42.4907256,14.7111771 Z M24.5,35.8122128 C19.768566,35.8122128 15.9298555,31.9610732 15.9298555,27.2085026 C15.9298555,22.4559321 19.7638675,18.600073 24.4953015,18.600073 C29.2267354,18.600073 33.065446,22.4512125 33.065446,27.2037831 C33.0513504,31.9516341 29.2267354,35.7980542 24.5,35.8122128 L24.5,35.8122128 Z M24.5,21.5261839 C21.3190856,21.5261839 18.7442834,24.117208 18.7442834,27.3076128 C18.7442834,30.5027372 21.3237841,33.0890418 24.5,33.0890418 C27.6809144,33.0890418 30.2557166,30.4980177 30.2557166,27.3076128 C30.2698122,25.7690448 29.6683986,24.2918307 28.5830349,23.206338 C27.5023697,22.1161256 26.0317254,21.5120253 24.5,21.5261839 L24.5,21.5261839 Z" id="形状"></path>
                    </g>
                </g>
            </g>
        </g>
    </g>
</svg>