<?xml version="1.0" encoding="UTF-8"?>
<svg width="42px" height="31px" viewBox="0 0 42 31" version="1.1" xmlns="http://www.w3.org/2000/svg" xmlns:xlink="http://www.w3.org/1999/xlink">
    <title>形状</title>
    <g id="新增任务" stroke="none" stroke-width="1" fill="none" fill-rule="evenodd">
        <g id="提交信息后-发送文件类型" transform="translate(-444.000000, -1227.000000)" fill="#999999" fill-rule="nonzero">
            <g id="编组-2" transform="translate(0.000000, 1047.000000)">
                <g id="编组-7备份-2" transform="translate(413.000000, 143.000000)">
                    <g id="文件夹" transform="translate(28.000000, 28.000000)">
                        <path d="M43.5,21.2865854 L38.4375,21.2865854 L38.4375,15.9182927 C38.4375,15.0818598 37.7671875,14.4060976 36.9375,14.4060976 L22.171875,14.4060976 L16.6734375,9.10396341 C16.603125,9.03780488 16.509375,9 16.415625,9 L4.5,9 C3.6703125,9 3,9.6757622 3,10.5121951 L3,38.4878049 C3,39.3242378 3.6703125,40 4.5,40 L37.21875,40 C37.828125,40 38.38125,39.6266768 38.6109375,39.054878 L44.8921875,23.3658537 C44.9625,23.1862805 45,22.9925305 45,22.7987805 C45,21.9623476 44.3296875,21.2865854 43.5,21.2865854 Z M35.0625,21.2865854 L11.15625,21.2865854 C10.546875,21.2865854 9.99375,21.6599085 9.7640625,22.2317073 L6.375,30.7 L6.375,12.402439 L15.2109375,12.402439 L20.8171875,17.8085366 L35.0625,17.8085366 L35.0625,21.2865854 Z" id="形状"></path>
                    </g>
                </g>
            </g>
        </g>
    </g>
</svg>