<?xml version="1.0" encoding="UTF-8"?>
<svg width="45px" height="32px" viewBox="0 0 45 32" version="1.1" xmlns="http://www.w3.org/2000/svg" xmlns:xlink="http://www.w3.org/1999/xlink">
    <title>形状</title>
    <g id="新增任务" stroke="none" stroke-width="1" fill="none" fill-rule="evenodd">
        <g id="提交信息后-发送文件类型" transform="translate(-84.000000, -1391.000000)" fill="#333333" fill-rule="nonzero">
            <g id="编组-2" transform="translate(0.000000, 1047.000000)">
                <g id="编组-7备份-4" transform="translate(52.000000, 306.000000)">
                    <g id="编组-8" transform="translate(28.000000, 28.000000)">
                        <g id="照片" transform="translate(2.000000, 2.000000)">
                            <g id="视频" transform="translate(2.000000, 8.000000)">
                                <path d="M35.0097187,5.94399222 C35.0097187,2.66071523 32.3318558,0 29.0282033,0 L5.98171709,0 C2.67806464,0 0,2.66071523 0,5.94399222 L0,25.9301213 C0,29.2133983 2.67806464,31.874517 5.98151534,31.874517 L29.0282033,31.874517 C32.3318557,31.874517 35.0097187,29.2129948 35.0097187,25.930323 C35.0096826,25.7204109 35.1088294,25.5228232 35.2771398,25.3973851 C35.4454502,25.271947 35.6631329,25.2334084 35.8642785,25.2934379 L40.9123547,26.7977941 C42.1935892,27.1796831 43.5420023,26.4506039 43.9238913,25.1691676 C43.9907672,24.944806 44.02476,24.7119299 44.02476,24.4778134 L44.02476,7.30208873 C44.02476,5.96517465 42.9408247,4.88123934 41.6039107,4.88123934 C41.3697266,4.88123596 41.1367811,4.91521284 40.9123547,4.98210804 L35.7736984,6.51349704 C35.5938529,6.56715626 35.3992277,6.5326821 35.2487555,6.42051335 C35.0982833,6.3083446 35.0096592,6.13167202 35.0097187,5.94399222 L35.0097187,5.94399222 Z M12.7094593,21.2215693 L12.7094593,10.8542817 C12.7094593,9.51716592 13.7933946,8.43343234 15.1303087,8.43343234 C15.5888712,8.43343234 16.038016,8.56358157 16.4254631,8.80886572 L24.6103549,13.992106 C25.7400846,14.707467 26.0757757,16.2031485 25.3604147,17.3326764 C25.1689529,17.6349763 24.9128565,17.8910727 24.6105566,18.0825345 L16.4256648,23.2667835 C15.2961368,23.9823462 13.8006571,23.6466551 13.0850944,22.5171271 C12.8397026,22.1296435 12.7094593,21.680422 12.7094593,21.221771 L12.7094593,21.2215693 Z" id="形状"></path>
                            </g>
                        </g>
                    </g>
                </g>
            </g>
        </g>
    </g>
</svg>