<?xml version="1.0" encoding="UTF-8"?>
<svg width="16px" height="18px" viewBox="0 0 16 18" version="1.1" xmlns="http://www.w3.org/2000/svg" xmlns:xlink="http://www.w3.org/1999/xlink">
    <title>形状</title>
    <g id="页面-1" stroke="none" stroke-width="1" fill="none" fill-rule="evenodd">
        <g id="筛地点-选中地点之后" transform="translate(-1762.000000, -979.000000)" fill="#FFFFFF" fill-rule="nonzero">
            <g id="编组-16" transform="translate(1742.000000, 937.000000)">
                <path d="M35.2843792,45.8878526 L33.8851802,44.2429928 L32.6889186,42.9185602 C32.1851947,42.3346863 31.4520408,41.9993074 30.6809079,42.0000011 L22.6595461,42.0000011 C21.1907193,42.0000011 20,43.1907215 20,44.6595482 L20,57.0707632 C20,58.5395899 21.1907193,59.7303092 22.6595461,59.7303092 L33.3404539,59.7303092 C34.8092807,59.7303092 36,58.5395899 36,57.0707632 L36,47.6502024 C35.989926,46.9939958 35.7346436,46.3653152 35.2843792,45.8878526 L35.2843792,45.8878526 Z M30.8838451,51.4205629 L28.0106809,54.9666243 C27.8473691,55.1722985 27.6003811,55.2938322 27.3377837,55.2977325 C27.0773123,55.3020121 26.8278415,55.1928686 26.6542056,54.998667 L25.0947931,53.2256363 C24.8318416,52.8577076 24.8879842,52.3508297 25.2250788,52.0493629 C25.5621734,51.7478962 26.0721508,51.7484881 26.4085447,52.0507365 L27.2736983,53.03338 L29.506008,50.3097485 C29.6690785,49.99358 30.0053528,49.8055127 30.3601043,49.8320799 C30.7148559,49.8586471 31.0193677,50.0947028 31.1335278,50.431633 C31.2476879,50.7685632 31.149383,51.1411029 30.8838451,51.3778393 L30.8838451,51.4205629 Z M31.5246996,47.5006697 C30.9348093,47.5006697 30.4566088,47.0224692 30.4566088,46.4325789 L30.4566088,43.2283066 L34.4619493,47.5006697 L31.5246996,47.5006697 Z" id="形状"></path>
            </g>
        </g>
    </g>
</svg>