<?xml version="1.0" encoding="UTF-8"?>
<svg width="16px" height="18px" viewBox="0 0 16 18" version="1.1" xmlns="http://www.w3.org/2000/svg" xmlns:xlink="http://www.w3.org/1999/xlink">
    <title>形状备份 11</title>
    <g id="页面-1" stroke="none" stroke-width="1" fill="none" fill-rule="evenodd">
        <g id="筛地点-选中地点之后" transform="translate(-1762.000000, -1012.000000)" fill="#56E9FF" fill-rule="nonzero">
            <g id="编组-16" transform="translate(1742.000000, 937.000000)">
                <path d="M35.2843792,78.8878526 L33.8851802,77.2429928 L32.6889186,75.9185602 C32.1851947,75.3346863 31.4520408,74.9993074 30.6809079,75.0000011 L22.6595461,75.0000011 C21.1907193,75.0000011 20,76.1907215 20,77.6595482 L20,90.0707632 C20,91.5395899 21.1907193,92.7303092 22.6595461,92.7303092 L33.3404539,92.7303092 C34.8092807,92.7303092 36,91.5395899 36,90.0707632 L36,80.6502024 C35.989926,79.9939958 35.7346436,79.3653152 35.2843792,78.8878526 L35.2843792,78.8878526 Z M30.8838451,84.4205629 L28.0106809,87.9666243 C27.8473691,88.1722985 27.6003811,88.2938322 27.3377837,88.2977325 C27.0773123,88.3020121 26.8278415,88.1928686 26.6542056,87.998667 L25.0947931,86.2256363 C24.8318416,85.8577076 24.8879842,85.3508297 25.2250788,85.0493629 C25.5621734,84.7478962 26.0721508,84.7484881 26.4085447,85.0507365 L27.2736983,86.03338 L29.506008,83.3097485 C29.6690785,82.99358 30.0053528,82.8055127 30.3601043,82.8320799 C30.7148559,82.8586471 31.0193677,83.0947028 31.1335278,83.431633 C31.2476879,83.7685632 31.149383,84.1411029 30.8838451,84.3778393 L30.8838451,84.4205629 Z M31.5246996,80.5006697 C30.9348093,80.5006697 30.4566088,80.0224692 30.4566088,79.4325789 L30.4566088,76.2283066 L34.4619493,80.5006697 L31.5246996,80.5006697 Z" id="形状备份-11"></path>
            </g>
        </g>
    </g>
</svg>