<?xml version="1.0" encoding="UTF-8"?>
<svg width="16px" height="16px" viewBox="0 0 16 16" version="1.1" xmlns="http://www.w3.org/2000/svg" xmlns:xlink="http://www.w3.org/1999/xlink">
    <title>路径</title>
    <g id="页面-1" stroke="none" stroke-width="1" fill="none" fill-rule="evenodd">
        <g id="筛地点-选中地点之后" transform="translate(-1798.000000, -980.000000)" fill="#FFFFFF" fill-rule="nonzero">
            <g id="编组-16" transform="translate(1742.000000, 937.000000)">
                <path d="M71.9189074,43.0607369 C71.8480501,42.9967368 71.7463356,42.9818796 71.6606212,43.0230225 L56.1383043,51.2710391 C56.0548755,51.3110392 56.0011611,51.3967536 56,51.4904681 C55.9988754,51.5841826 56.0514469,51.6710399 56.1337328,51.7121828 L60.5268845,53.9121873 C60.6068847,53.9521873 60.7028849,53.9430445 60.774885,53.8881872 L65.0457507,49.7407503 L62.2846023,54.3590453 C62.246888,54.4070454 62.2286022,54.4733312 62.2320308,54.5396171 L62.4926027,58.7853399 C62.498317,58.8790544 62.5486029,58.9601974 62.620603,58.9887689 C62.6400316,58.9967689 62.6594602,59.0001975 62.6788888,59.0001975 C62.7326032,59.0001975 62.7840319,58.971626 62.8194605,58.9190545 L64.7108929,56.1590489 L67.5931844,57.564766 C67.6560417,57.5956232 67.7280418,57.5967661 67.792042,57.5681946 C67.8560421,57.5396231 67.9040422,57.4847659 67.9246137,57.4173372 L71.9886218,43.3167374 C72.0171933,43.2253086 71.9897647,43.124737 71.9189074,43.0607369 Z" id="路径"></path>
            </g>
        </g>
    </g>
</svg>