<?xml version="1.0" encoding="UTF-8"?>
<svg width="16px" height="16px" viewBox="0 0 16 16" version="1.1" xmlns="http://www.w3.org/2000/svg" xmlns:xlink="http://www.w3.org/1999/xlink">
    <title>切图</title>
    <g id="任务调度" stroke="none" stroke-width="1" fill="none" fill-rule="evenodd">
        <g id="切图" transform="translate(-419.000000, -59.000000)" fill="#56E9FF" fill-rule="nonzero">
            <g transform="translate(20.000000, 20.000000)" id="形状结合">
                <path d="M414.500697,47.9372299 C414.776839,47.9372299 415.000697,48.1610875 415.000697,48.4372299 L415.000697,54.4372299 C414.999983,54.4469929 415,54.4494022 415,54.4518154 C415,54.7279578 414.776142,54.9518154 414.5,54.9518154 L399.5,54.9518154 C399.223858,54.9518154 399,54.7279578 399,54.4518154 C399.000714,54.4419988 399.000697,54.4396163 399.000697,54.4372299 L399.000697,48.4372299 C399.000697,48.1610875 399.224555,47.9372299 399.500697,47.9372299 C399.776839,47.9372299 400.000697,48.1610875 400.000697,48.4372299 L400,53.9508154 L414,53.9508154 L414.000697,48.4372299 C414.000697,48.1610875 414.224555,47.9372299 414.500697,47.9372299 Z M407,39.4518154 C407.276142,39.4518154 407.5,39.675673 407.5,39.9518154 L407.499,50.7418154 L409.794433,48.4470227 C409.989696,48.2517605 410.306278,48.2517605 410.50154,48.4470227 C410.696802,48.6422848 410.696802,48.9588673 410.50154,49.1541295 L407.384755,52.2711535 C407.29304,52.381534 407.154727,52.4518154 407,52.4518154 L406.98247,52.4520563 C406.83386,52.4713852 406.678229,52.423969 406.564068,52.3098078 L403.442747,49.1884875 C403.247485,48.9932253 403.247485,48.6766428 403.442747,48.4813807 C403.63801,48.2861185 403.954592,48.2861185 404.149854,48.4813807 L406.499,50.8298154 L406.5,39.9518154 C406.5,39.675673 406.723858,39.4518154 407,39.4518154 Z"></path>
            </g>
        </g>
    </g>
</svg>