<?xml version="1.0" encoding="UTF-8"?>
<svg width="20px" height="20px" viewBox="0 0 20 20" version="1.1" xmlns="http://www.w3.org/2000/svg" xmlns:xlink="http://www.w3.org/1999/xlink">
    <title>附件</title>
    <defs>
        <linearGradient x1="50%" y1="4.15682264%" x2="50%" y2="100%" id="linearGradient-1">
            <stop stop-color="#1B7E8D" offset="0%"></stop>
            <stop stop-color="#2A3934" offset="100%"></stop>
        </linearGradient>
        <path d="M15.4068865,15.0015988 L5.22696411,15.0015988 C4.82589719,15.0015988 4.5,14.6829761 4.5,14.2901536 L4.5,5.71304404 C4.5,5.32022153 4.82589719,5.00159884 5.22647915,5.00159884 L8.23520854,5.00159884 C8.4015519,5.00159884 8.56256062,5.05688497 8.69204656,5.15872784 L10.2909796,6.42060951 L15.4088264,6.42060951 C15.8094083,6.42060951 16.1353104,6.73923221 16.1353104,7.13205471 L16.1353104,14.2872438 C16.1367604,14.6829761 15.8094083,15.0015988 15.4073715,15.0015988 L15.4068865,15.0015988 Z M14.1847721,9.37453773 C14.1847721,9.09180251 13.9558681,8.86289854 13.6736178,8.86289854 L8.29097963,8.85804866 C8.15198495,8.85792018 8.01863907,8.91304541 7.92030948,9.01128405 C7.82197989,9.10952268 7.76673133,9.24281748 7.76673133,9.38181222 C7.76673133,9.66018273 7.99224055,9.88520698 8.27012609,9.88520698 L13.6736178,9.88520698 C13.9558681,9.88520698 14.1842871,9.65678797 14.1842871,9.37453773 L14.1847721,9.37453773 Z" id="path-2"></path>
    </defs>
    <g id="任务调度" stroke="none" stroke-width="1" fill="none" fill-rule="evenodd">
        <g id="切图" transform="translate(-362.000000, -264.000000)">
            <g transform="translate(20.000000, 20.000000)" id="附件">
                <g transform="translate(342.000000, 244.000000)">
                    <circle id="椭圆形" fill="#FFFFFF" cx="10" cy="10" r="10"></circle>
                    <g id="形状" fill-rule="nonzero">
                        <use fill="#FFFFFF" xlink:href="#path-2"></use>
                        <use fill="url(#linearGradient-1)" xlink:href="#path-2"></use>
                    </g>
                </g>
            </g>
        </g>
    </g>
</svg>