<?xml version="1.0" encoding="UTF-8"?>
<svg width="20px" height="20px" viewBox="0 0 20 20" version="1.1" xmlns="http://www.w3.org/2000/svg" xmlns:xlink="http://www.w3.org/1999/xlink">
    <title>图片</title>
    <defs>
        <linearGradient x1="50%" y1="4.15682264%" x2="50%" y2="100%" id="linearGradient-1">
            <stop stop-color="#1B7E8D" offset="0%"></stop>
            <stop stop-color="#2A3934" offset="100%"></stop>
        </linearGradient>
        <path d="M11.8545699,8.85003389 L0.767550632,8.85003389 C0.506945643,8.85003389 0.264113429,8.71788488 0.122732877,8.49896365 C-0.0186476763,8.28004241 -0.0392477258,8.0043267 0.0680314121,7.76682691 C0.656492951,6.46874998 1.49591603,4.42067305 2.42043525,4.19855769 C3.7055314,3.88846154 4.66610832,6.36201923 4.66610832,6.36201923 C4.66610832,6.36201923 6.99831986,2.53846154 8.27187757,2.53846154 C9.54543527,2.53846154 11.7810122,6.11538461 12.5064929,7.88509615 C12.5960643,8.10160793 12.5710408,8.34861543 12.439867,8.54276434 C12.3086931,8.73691324 12.0888668,8.85230503 11.8545699,8.85003389 Z" id="path-2"></path>
    </defs>
    <g id="任务调度" stroke="none" stroke-width="1" fill="none" fill-rule="evenodd">
        <g id="切图" transform="translate(-158.000000, -264.000000)">
            <g transform="translate(20.000000, 20.000000)" id="图片">
                <g transform="translate(138.000000, 244.000000)">
                    <circle id="椭圆形" fill="#FFFFFF" fill-rule="nonzero" cx="10" cy="10" r="10"></circle>
                    <g id="编组-19" transform="translate(3.500000, 5.500000)">
                        <g id="路径">
                            <use fill="#D8D8D8" xlink:href="#path-2"></use>
                            <use fill="url(#linearGradient-1)" xlink:href="#path-2"></use>
                        </g>
                        <path d="M1.91466602,1.05865385 C1.91466602,1.64333223 2.38864149,2.1173077 2.97331987,2.1173077 C3.55799825,2.1173077 4.03197372,1.64333223 4.03197372,1.05865385 C4.03197372,0.473975474 3.55799825,2.13162821e-14 2.97331987,2.13162821e-14 C2.38864149,2.13162821e-14 1.91466602,0.473975474 1.91466602,1.05865385 L1.91466602,1.05865385 Z" id="路径" fill="#1B7E8D" fill-rule="nonzero"></path>
                    </g>
                </g>
            </g>
        </g>
    </g>
</svg>