<?xml version="1.0" encoding="UTF-8"?>
<svg width="13px" height="16px" viewBox="0 0 13 16" version="1.1" xmlns="http://www.w3.org/2000/svg" xmlns:xlink="http://www.w3.org/1999/xlink">
    <title>切图</title>
    <g id="任务调度" stroke="none" stroke-width="1" fill="none" fill-rule="evenodd" opacity="0.600000024">
        <g id="切图" transform="translate(-388.000000, -89.000000)" fill="#FFFFFF" fill-rule="nonzero">
            <g transform="translate(20.000000, 20.000000)" id="形状">
                <path d="M381,75.6244625 C381,71.9657817 378.089844,69 374.499929,69 C370.910116,69 368,71.9657817 368,75.6244625 C368,75.740582 368.011217,75.8528233 368.017099,75.9664988 C368.011763,76.0226498 368,76.0768011 368,76.1344266 C368,80.211715 374.000014,84.8301736 374.000014,84.8301736 C374.000014,84.8301736 374.49999,85.212283 374.999986,84.8301736 C375.499962,84.44764 381,80.211715 381,76.1344266 C381,76.0768011 380.988237,76.0226498 380.982901,75.9664988 C380.988722,75.8528233 381,75.740582 381,75.6244625 L381,75.6244625 Z M374.499929,78.1730102 C373.119089,78.1730102 372.000009,77.0322363 372.000009,75.6244625 C372.000009,74.2176785 373.119068,73.0768642 374.499929,73.0768642 C375.880851,73.0768642 376.999991,74.2176785 376.999991,75.6244625 C376.999991,77.0322363 375.880851,78.1730102 374.499929,78.1730102 L374.499929,78.1730102 Z"></path>
            </g>
        </g>
    </g>
</svg>