<?xml version="1.0" encoding="UTF-8"?>
<svg width="40px" height="58px" viewBox="0 0 40 58" version="1.1" xmlns="http://www.w3.org/2000/svg" xmlns:xlink="http://www.w3.org/1999/xlink">
    <title>人</title>
    <defs>
        <filter x="0.0%" y="0.0%" width="100.0%" height="100.0%" filterUnits="objectBoundingBox" id="filter-1">
            <feGaussianBlur stdDeviation="0" in="SourceGraphic"></feGaussianBlur>
        </filter>
        <linearGradient x1="50%" y1="0%" x2="50%" y2="100%" id="linearGradient-2">
            <stop stop-color="#006891" offset="0%"></stop>
            <stop stop-color="#56E9FF" offset="100%"></stop>
        </linearGradient>
        <filter id="filter-3">
            <feColorMatrix in="SourceGraphic" type="matrix" values="0 0 0 0 0.231373 0 0 0 0 0.235294 0 0 0 0 0.239216 0 0 0 1.000000 0"></feColorMatrix>
        </filter>
    </defs>
    <g id="任务调度" stroke="none" stroke-width="1" fill="none" fill-rule="evenodd">
        <g id="切图" transform="translate(-387.000000, -709.000000)">
            <g id="人" transform="translate(387.000000, 709.000000)">
                <ellipse id="椭圆形" fill="#006D7E" opacity="0.703760901" filter="url(#filter-1)" cx="20" cy="54" rx="12" ry="4"></ellipse>
                <circle id="椭圆形" fill="#34A7ED" cx="20" cy="22" r="20"></circle>
                <path d="M20,0 C31.045695,0 40,8.954305 40,20 C40,25.2310375 37.991733,29.9930191 34.704141,33.5570027 L20,51.2 L5.30601755,33.5680071 C2.01240446,30.0028242 0,25.2364232 0,20 C0,8.954305 8.954305,0 20,0 Z" id="形状结合" fill="#56E9FF"></path>
                <path d="M20,4 C31.045695,4 40,12.954305 40,24 C40,29.2310375 37.991733,33.9930191 34.704141,37.5570027 L20,55.2 L5.30601755,37.5680071 C2.01240446,34.0028242 0,29.2364232 0,24 C0,12.954305 8.954305,4 20,4 Z" id="形状结合" fill="url(#linearGradient-2)"></path>
                <circle id="椭圆形" fill="#FFFFFF" opacity="0.699999988" cx="20" cy="24" r="16"></circle>
                <g filter="url(#filter-3)" id="编组">
                    <g transform="translate(11.000000, 13.000000)">
                        <path d="M9.7735181,10.7475357 C12.4425878,10.3000825 14.494422,7.81820339 13.9861281,4.65481932 C13.8107208,3.56353654 13.8602046,2.74461141 13.4244811,1.95169643 C12.6423714,0.528863279 11.0450482,-0.0157731716 8.65018125,0.0209168663 C8.18212781,0.0924447252 7.71398837,0.163972616 7.24593496,0.235421644 C5.93085397,0.64259846 5.07853841,1.52564252 4.67153353,2.7669171 C3.49750914,6.34744855 5.60033177,11.4471689 9.7735181,10.7475357 Z M18.2924175,18.5565267 C18.2446104,16.5895694 18.1571648,14.7652344 17.3093204,13.5364132 C16.2870146,12.0545843 14.0785178,11.5829339 11.8797371,11.1765452 C10.8449636,11.8974988 9.15912002,12.4448939 7.52680141,11.8201778 L6.45019681,11.1765452 C5.9510172,11.2767236 5.45162261,11.3768626 4.952443,11.4769623 C3.55443054,11.8276656 2.12864524,12.3132275 1.34829824,13.2361143 C0.780675428,13.9072546 0.593101501,14.6701397 0.36533012,15.6817369 C0.242889043,16.2256246 -0.130711071,18.8786189 0.0845066513,19.5003399 C0.360601012,20.2979052 1.80293819,20.7786986 2.65886507,21.0879039 C5.80922974,22.2261626 11.6335222,22.3317401 15.1095079,21.3454043 C16.1290192,21.0561006 18.0209232,20.4031674 18.3391927,19.5003399 C18.3235132,19.1857392 18.3079214,18.8711348 18.2924175,18.5565267 L18.2924175,18.5565267 Z" id="形状" fill="#140504" fill-rule="nonzero"></path>
                    </g>
                </g>
            </g>
        </g>
    </g>
</svg>