<?xml version="1.0" encoding="UTF-8"?>
<svg width="20px" height="20px" viewBox="0 0 20 20" version="1.1" xmlns="http://www.w3.org/2000/svg" xmlns:xlink="http://www.w3.org/1999/xlink">
    <title>视频</title>
    <defs>
        <linearGradient x1="0%" y1="100%" x2="100%" y2="100%" id="linearGradient-1">
            <stop stop-color="#1B7E8D" offset="0%"></stop>
            <stop stop-color="#2A3934" offset="100%"></stop>
        </linearGradient>
    </defs>
    <g id="任务调度" stroke="none" stroke-width="1" fill="none" fill-rule="evenodd">
        <g id="切图" transform="translate(-226.000000, -264.000000)">
            <g transform="translate(20.000000, 20.000000)" id="视频">
                <g transform="translate(206.000000, 244.000000)">
                    <circle id="椭圆形" fill="#FFFFFF" fill-rule="nonzero" cx="10" cy="10" r="10"></circle>
                    <path d="M11.4472136,5.89442719 L15.6381966,14.2763932 C15.7616912,14.5233825 15.6615791,14.823719 15.4145898,14.9472136 C15.3451621,14.9819275 15.2686056,15 15.190983,15 L6.80901699,15 C6.53287462,15 6.30901699,14.7761424 6.30901699,14.5 C6.30901699,14.4223775 6.32708954,14.3458209 6.3618034,14.2763932 L10.5527864,5.89442719 C10.676281,5.64743794 10.9766175,5.54732577 11.2236068,5.67082039 C11.3203705,5.71920224 11.3988317,5.79766349 11.4472136,5.89442719 Z" id="三角形" fill="url(#linearGradient-1)" transform="translate(11.000000, 10.000000) rotate(-270.000000) translate(-11.000000, -10.000000) "></path>
                </g>
            </g>
        </g>
    </g>
</svg>