<?xml version="1.0" encoding="UTF-8"?>
<svg width="22px" height="22px" viewBox="0 0 22 22" version="1.1" xmlns="http://www.w3.org/2000/svg" xmlns:xlink="http://www.w3.org/1999/xlink">
    <title>形状</title>
    <g id="新增任务" stroke="none" stroke-width="1" fill="none" fill-rule="evenodd">
        <g id="任务搜索" transform="translate(-388.000000, -274.000000)" fill="#999999" fill-rule="nonzero">
            <g id="编组-2备份" transform="translate(217.000000, 274.000000)">
                <path d="M181.89917,-5.68434189e-14 C175.879999,-5.68434189e-14 171,4.8799994 171,10.8991705 C171,16.9183416 175.879999,21.798341 181.89917,21.798341 C187.918342,21.798341 192.798341,16.9183416 192.798341,10.8991705 C192.798341,4.8799994 187.918342,-5.68434189e-14 181.89917,-5.68434189e-14 Z M187.504097,14.8521721 C187.958756,15.3068304 187.958756,16.049439 187.504097,16.5040973 C187.049439,16.9587557 186.30683,16.9587557 185.852172,16.5040973 L181.89917,12.5510958 L177.946169,16.5040973 C177.491511,16.9587557 176.748902,16.9587557 176.294244,16.5040973 C175.839585,16.049439 175.839585,15.3068304 176.294244,14.8521721 L180.247245,10.8991705 L176.294244,6.9461689 C175.839585,6.49151056 175.839585,5.74890197 176.294244,5.29424364 C176.748902,4.8395853 177.491511,4.8395853 177.946169,5.29424364 L181.89917,9.24724524 L185.852172,5.29424364 C186.30683,4.8395853 187.049439,4.8395853 187.504097,5.29424364 C187.958756,5.74890197 187.958756,6.49151056 187.504097,6.9461689 L183.551096,10.8991705 L187.504097,14.8521721 L187.504097,14.8521721 Z" id="形状"></path>
            </g>
        </g>
    </g>
</svg>