<?xml version="1.0" encoding="UTF-8"?>
<svg width="18px" height="20px" viewBox="0 0 18 20" version="1.1" xmlns="http://www.w3.org/2000/svg" xmlns:xlink="http://www.w3.org/1999/xlink">
    <title>形状</title>
    <defs>
        <filter id="filter-1">
            <feColorMatrix in="SourceGraphic" type="matrix" values="0 0 0 0 0.649412 0 0 0 0 0.677647 0 0 0 0 0.705882 0 0 0 1.000000 0"></feColorMatrix>
        </filter>
    </defs>
    <g id="工具面板" stroke="none" stroke-width="1" fill="none" fill-rule="evenodd">
        <g id="通知" transform="translate(-1852.000000, -22.000000)" filter="url(#filter-1)">
            <g transform="translate(1852.000000, 22.000000)">
                <path d="M15.3469669,13.5615809 L15.3469669,8.59604779 C15.3469669,5.33547794 13.0101103,2.59420956 9.92876838,1.96231618 L9.92876838,1.37408088 C9.92876838,0.629595588 9.31985294,0.0206801471 8.57536765,0.0206801471 C7.83088235,0.0206801471 7.22196691,0.629595588 7.22196691,1.37408088 L7.22196691,1.96231618 C4.140625,2.59420956 1.80376838,5.33547794 1.80376838,8.59604779 L1.80376838,13.5615809 L0,13.5615809 L0,16.2706801 L17.1553309,16.2706801 L17.1553309,13.5615809 L15.3469669,13.5615809 Z M9.02803309,19.8828125 C10.5238971,19.8828125 11.7371324,18.6695772 11.7371324,17.1737132 L6.31893382,17.1737132 C6.31893382,18.6695772 7.53216912,19.8828125 9.02803309,19.8828125 Z" id="形状" fill="#000000" fill-rule="nonzero"></path>
            </g>
        </g>
    </g>
</svg>