<?xml version="1.0" encoding="UTF-8"?>
<svg width="26px" height="26px" viewBox="0 0 26 26" version="1.1" xmlns="http://www.w3.org/2000/svg" xmlns:xlink="http://www.w3.org/1999/xlink">
    <title>形状</title>
    <g id="工具面板" stroke="none" stroke-width="1" fill="none" fill-rule="evenodd">
        <g id="事件信息" transform="translate(-449.000000, -217.000000)" fill="#FFFFFF" fill-rule="nonzero">
            <g id="编组-9" transform="translate(430.000000, 132.000000)">
                <g id="Group-24备份-4" transform="translate(0.000000, 75.000000)">
                    <g id="视频通话" transform="translate(19.000000, 10.000000)">
                        <path d="M19.858792,2.7533531e-13 C20.6024195,2.7533531e-13 21.2052488,0.602829269 21.2052488,1.34645684 L21.2052488,6.7322843 C21.2052488,7.47591189 20.6024195,8.07874118 19.858792,8.07874118 L13.1265076,8.07874118 C12.38288,8.07874118 11.7800508,7.47591189 11.7800508,6.7322843 L11.7800508,1.34645684 C11.7800508,0.602829269 12.3828801,2.7533531e-13 13.1265076,2.7533531e-13 L19.858792,2.7533531e-13 Z M24.571391,1.09063006 C24.9432048,1.09063006 25.2446207,1.39204469 25.2446207,1.76385848 L25.2446207,6.31488266 C25.2450791,6.54854941 25.1243427,6.76574324 24.9256403,6.88869725 C24.7269378,7.01165127 24.4786907,7.0227787 24.2697846,6.91809535 L21.2092882,5.38582743 L21.2092882,2.69291371 L24.2711311,1.16064579 C24.3647483,1.11372545 24.4680202,1.08928359 24.5727374,1.08928359 L24.571391,1.09063006 Z M21.1556637,20.2466718 C21.7476155,20.5878966 21.9901487,21.3183906 21.7198291,21.9459004 C21.2916559,23.0876958 20.8594432,23.8767195 20.4218447,24.314318 C19.221735,25.5154603 17.4681361,25.9779083 15.8317733,25.5247827 C11.9779748,24.7277387 8.44284837,22.8171505 5.66467752,20.0298923 C2.87761749,17.2512319 0.967478706,13.7156025 0.171133517,9.86145004 C-0.28210314,8.2257455 0.179822236,6.47269242 1.38025179,5.27272505 C1.81785028,4.83512656 2.60687398,4.40291391 3.74732295,3.97608709 C4.3741341,3.70634234 5.1036324,3.9481586 5.44520504,4.53890607 L8.5959141,9.99609574 C8.95407161,10.6154659 8.7709535,11.1877101 8.17312665,11.7868834 C7.65339431,12.2527575 7.23060684,12.5826394 6.90476429,12.7778756 C7.57126043,14.013923 8.427607,15.1759153 9.47245751,16.2207658 C10.5186545,17.2669628 11.6806468,18.1233094 12.9193871,18.791152 C13.0621115,18.5151283 13.3933399,18.0950338 13.9130723,17.526829 C14.4179936,17.0219077 14.9606157,16.7701202 15.5530567,17.0232541 L15.6984741,17.0959628 L21.1556637,20.2466718 L21.1556637,20.2466718 Z" id="形状"></path>
                    </g>
                </g>
            </g>
        </g>
    </g>
</svg>