<?xml version="1.0" encoding="UTF-8"?>
<svg width="26px" height="26px" viewBox="0 0 26 26" version="1.1" xmlns="http://www.w3.org/2000/svg" xmlns:xlink="http://www.w3.org/1999/xlink">
    <title>形状</title>
    <g id="事件信息、组织动态、辅助工具" stroke="none" stroke-width="1" fill="none" fill-rule="evenodd">
        <g id="事件信息" transform="translate(-599.000000, -217.000000)" fill="#56E9FF" fill-rule="nonzero">
            <g id="编组-9" transform="translate(430.000000, 132.000000)">
                <g id="Group-24备份-4" transform="translate(0.000000, 75.000000)">
                    <g id="视频通话" transform="translate(19.000000, 10.000000)">
                        <path d="M169.858792,2.46913601e-13 C170.60242,2.46913601e-13 171.205249,0.602829269 171.205249,1.34645684 L171.205249,6.7322843 C171.205249,7.47591189 170.60242,8.07874118 169.858792,8.07874118 L163.126508,8.07874118 C162.38288,8.07874118 161.780051,7.47591189 161.780051,6.7322843 L161.780051,1.34645684 C161.780051,0.602829269 162.38288,2.46913601e-13 163.126508,2.46913601e-13 L169.858792,2.46913601e-13 Z M174.571391,1.09063006 C174.943205,1.09063006 175.244621,1.39204469 175.244621,1.76385848 L175.244621,6.31488266 C175.245079,6.54854941 175.124343,6.76574324 174.92564,6.88869725 C174.726938,7.01165127 174.478691,7.0227787 174.269785,6.91809535 L171.209288,5.38582743 L171.209288,2.69291371 L174.271131,1.16064579 C174.364748,1.11372545 174.46802,1.08928359 174.572737,1.08928359 L174.571391,1.09063006 Z M171.155664,20.2466718 C171.747615,20.5878966 171.990149,21.3183906 171.719829,21.9459004 C171.291656,23.0876958 170.859443,23.8767195 170.421845,24.314318 C169.221735,25.5154603 167.468136,25.9779083 165.831773,25.5247827 C161.977975,24.7277387 158.442848,22.8171505 155.664678,20.0298923 C152.877617,17.2512319 150.967479,13.7156025 150.171134,9.86145004 C149.717897,8.2257455 150.179822,6.47269242 151.380252,5.27272505 C151.81785,4.83512656 152.606874,4.40291391 153.747323,3.97608709 C154.374134,3.70634234 155.103632,3.9481586 155.445205,4.53890607 L158.595914,9.99609574 C158.954072,10.6154659 158.770953,11.1877101 158.173127,11.7868834 C157.653394,12.2527575 157.230607,12.5826394 156.904764,12.7778756 C157.57126,14.013923 158.427607,15.1759153 159.472458,16.2207658 C160.518654,17.2669628 161.680647,18.1233094 162.919387,18.791152 C163.062112,18.5151283 163.39334,18.0950338 163.913072,17.526829 C164.417994,17.0219077 164.960616,16.7701202 165.553057,17.0232541 L165.698474,17.0959628 L171.155664,20.2466718 L171.155664,20.2466718 Z" id="形状"></path>
                    </g>
                </g>
            </g>
        </g>
    </g>
</svg>