<?xml version="1.0" encoding="UTF-8"?>
<svg width="30px" height="21px" viewBox="0 0 30 21" version="1.1" xmlns="http://www.w3.org/2000/svg" xmlns:xlink="http://www.w3.org/1999/xlink">
    <title>形状</title>
    <g id="页面-1" stroke="none" stroke-width="1" fill="none" fill-rule="evenodd">
        <g id="2.1目标关注备份" transform="translate(-524.000000, -676.000000)" fill="#FFFFFF" fill-rule="nonzero">
            <g id="Group-24备份" transform="translate(505.000000, 598.000000)">
                <g id="编组备份" transform="translate(4.000000, 78.000000)">
                    <g id="紧急告警" transform="translate(15.000000, 0.000000)">
                        <path d="M-5.32907052e-15,6.14403416 L2.69696972,8.84100388 C9.39893949,2.13903412 20.2677275,2.13903412 26.9696973,8.84100388 L29.666667,6.14403416 C21.4746214,-2.04801139 8.19204555,-2.04801139 -5.32907052e-15,6.14403416 Z M10.7878789,16.9319131 L14.8333335,20.9773677 L18.8787881,16.9319131 C16.6470457,14.7001706 13.0196213,14.7001706 10.7878789,16.9319131 Z M5.39393944,11.5379736 L8.09090919,14.2349434 C11.8127274,10.5131251 17.8539396,10.5131251 21.5757578,14.2349434 L24.2727276,11.5379736 C19.0608336,6.32607962 10.6058334,6.32607962 5.39393944,11.5379736 Z" id="形状"></path>
                    </g>
                </g>
            </g>
        </g>
    </g>
</svg>