<?xml version="1.0" encoding="UTF-8"?>
<svg width="23px" height="23px" viewBox="0 0 23 23" version="1.1" xmlns="http://www.w3.org/2000/svg" xmlns:xlink="http://www.w3.org/1999/xlink">
    <title>形状</title>
    <g id="事件信息、组织动态、辅助工具" stroke="none" stroke-width="1" fill="none" fill-rule="evenodd">
        <g id="事件信息" transform="translate(-601.000000, -519.000000)" fill="#56E9FF" fill-rule="nonzero">
            <g id="编组-9" transform="translate(430.000000, 132.000000)">
                <g id="Group-24备份-8" transform="translate(0.000000, 375.000000)">
                    <path d="M177.471853,33.5562695 C173.790566,31.7019531 171.25,27.8832561 171.25,23.5 C171.25,17.3125 176.3125,12.25 182.5,12.25 C188.6875,12.25 193.75,17.3125 193.75,23.5 C193.75,27.8832561 191.209459,31.7019531 187.528147,33.5562695 L186.27111,31.0421959 C189.032081,29.6514648 190.9375,26.7874358 190.9375,23.5 C190.9375,18.859375 187.140625,15.0625 182.5,15.0625 C177.859375,15.0625 174.0625,18.859375 174.0625,23.5 C174.0625,26.7874358 175.967919,29.6514648 178.72889,31.0421959 L177.471853,33.5562695 Z M179.566914,29.3661468 C177.419495,28.2844643 175.937508,26.056889 175.937508,23.5 C175.937508,19.8906334 178.890633,16.9375084 182.5,16.9375084 C186.109367,16.9375084 189.062492,19.8906334 189.062492,23.5 C189.062492,26.056889 187.580505,28.2844643 185.433086,29.3661468 L184.595061,27.6901228 C186.128929,26.9174888 187.187508,25.3263672 187.187508,23.5 C187.187508,20.9218666 185.078133,18.8124916 182.5,18.8124916 C179.921867,18.8124916 177.812492,20.9218666 177.812492,23.5 C177.812492,25.3263672 178.871071,26.9174888 180.404939,27.6901228 L179.566914,29.3661468 L179.566914,29.3661468 Z M182.5,20.6875 C180.953125,20.6875 179.6875,21.953125 179.6875,23.5 C179.6875,25.046875 180.953125,26.3125 182.5,26.3125 C184.046875,26.3125 185.3125,25.046875 185.3125,23.5 C185.3125,21.953125 184.046875,20.6875 182.5,20.6875 Z M182.516749,27.2499916 L186.266741,34.7499916 L182.516749,34.7499916 L182.516749,27.2499916 L182.516749,27.2499916 Z M182.5,27.2499916 L178.750008,34.7499916 L182.5,34.7499916 L182.5,27.2499916 L182.5,27.2499916 Z" id="形状"></path>
                </g>
            </g>
        </g>
    </g>
</svg>