<?xml version="1.0" encoding="UTF-8"?>
<svg width="23px" height="23px" viewBox="0 0 23 23" version="1.1" xmlns="http://www.w3.org/2000/svg" xmlns:xlink="http://www.w3.org/1999/xlink">
    <title>形状</title>
    <g id="工具面板" stroke="none" stroke-width="1" fill="none" fill-rule="evenodd">
        <g id="事件信息" transform="translate(-451.000000, -519.000000)" fill="#FFFFFF" fill-rule="nonzero">
            <g id="编组-9" transform="translate(430.000000, 132.000000)">
                <g id="Group-24备份-8" transform="translate(0.000000, 375.000000)">
                    <path d="M27.4718527,33.5562695 C23.7905664,31.7019531 21.25,27.8832561 21.25,23.5 C21.25,17.3125 26.3125,12.25 32.5,12.25 C38.6875,12.25 43.75,17.3125 43.75,23.5 C43.75,27.8832561 41.2094587,31.7019531 37.5281473,33.5562695 L36.2711105,31.0421959 C39.0320815,29.6514648 40.9375,26.7874358 40.9375,23.5 C40.9375,18.859375 37.140625,15.0625 32.5,15.0625 C27.859375,15.0625 24.0625,18.859375 24.0625,23.5 C24.0625,26.7874358 25.9679185,29.6514648 28.7288895,31.0421959 L27.4718527,33.5562695 Z M29.5669141,29.3661468 C27.419495,28.2844643 25.9375084,26.056889 25.9375084,23.5 C25.9375084,19.8906334 28.8906334,16.9375084 32.5,16.9375084 C36.1093666,16.9375084 39.0624916,19.8906334 39.0624916,23.5 C39.0624916,26.056889 37.580505,28.2844643 35.4330859,29.3661468 L34.5950614,27.6901228 C36.1289286,26.9174888 37.1875084,25.3263672 37.1875084,23.5 C37.1875084,20.9218666 35.0781334,18.8124916 32.5,18.8124916 C29.9218666,18.8124916 27.8124916,20.9218666 27.8124916,23.5 C27.8124916,25.3263672 28.8710714,26.9174888 30.4049386,27.6901228 L29.5669141,29.3661468 L29.5669141,29.3661468 Z M32.5,20.6875 C30.953125,20.6875 29.6875,21.953125 29.6875,23.5 C29.6875,25.046875 30.953125,26.3125 32.5,26.3125 C34.046875,26.3125 35.3125,25.046875 35.3125,23.5 C35.3125,21.953125 34.046875,20.6875 32.5,20.6875 Z M32.5167494,27.2499916 L36.2667411,34.7499916 L32.5167494,34.7499916 L32.5167494,27.2499916 L32.5167494,27.2499916 Z M32.5,27.2499916 L28.7500084,34.7499916 L32.5,34.7499916 L32.5,27.2499916 L32.5,27.2499916 Z" id="形状"></path>
                </g>
            </g>
        </g>
    </g>
</svg>