<?xml version="1.0" encoding="UTF-8"?>
<svg width="21px" height="24px" viewBox="0 0 21 24" version="1.1" xmlns="http://www.w3.org/2000/svg" xmlns:xlink="http://www.w3.org/1999/xlink">
    <title>形状</title>
    <g id="工具面板" stroke="none" stroke-width="1" fill="none" fill-rule="evenodd">
        <g id="事件信息" transform="translate(-452.000000, -743.000000)" fill="#FFFFFF" fill-rule="nonzero">
            <g id="编组-9" transform="translate(430.000000, 132.000000)">
                <g id="Group-24备份-11" transform="translate(0.000000, 600.000000)">
                    <path d="M30.7105153,12.9129721 L30.7105153,12.7945205 C30.710627,11.8034015 31.514119,11 32.505238,11 C33.496357,11 34.299849,11.8034015 34.2999607,12.7945205 L34.2999607,12.9129721 C37.8705614,13.548304 40.58149,16.6684293 40.58149,20.4220918 L40.58149,26.8759145 L42.7710517,29.2341801 C43.0136595,29.4957728 43.0782546,29.8762372 42.9355788,30.2032431 C42.792903,30.5302491 42.470062,30.7417471 42.1132858,30.7417471 L22.8971902,30.7417471 C22.540414,30.7417471 22.217573,30.5302491 22.0748972,30.2032431 C21.9322214,29.8762372 21.9968165,29.4957728 22.2394243,29.2341801 L24.428986,26.8759145 L24.428986,20.4220918 C24.4294681,16.7286539 27.0752351,13.5658284 30.7105153,12.9129721 Z M35.197322,31.6391085 C35.197322,33.1259054 33.9920349,34.3311924 32.505238,34.3311924 C31.0184411,34.3311924 29.813154,33.1259054 29.813154,31.6391085 L35.197322,31.6391085 Z" id="形状"></path>
                </g>
            </g>
        </g>
    </g>
</svg>