<?xml version="1.0" encoding="UTF-8"?>
<svg width="24px" height="23px" viewBox="0 0 24 23" version="1.1" xmlns="http://www.w3.org/2000/svg" xmlns:xlink="http://www.w3.org/1999/xlink">
    <title>形状结合</title>
    <g id="页面-1" stroke="none" stroke-width="1" fill="none" fill-rule="evenodd">
        <g id="2.1目标关注备份" transform="translate(-525.000000, -734.000000)" fill="#56E9FF" fill-rule="nonzero">
            <g id="Group-24备份" transform="translate(505.000000, 598.000000)">
                <g id="编组备份-2" transform="translate(4.000000, 136.000000)">
                    <path d="M26.7816679,0.70072483 C27.2190749,-0.219338193 28.5222461,-0.237437794 28.9868025,0.670558829 L28.9868025,0.670558829 L31.81939,6.21506977 C32.0034026,6.57706178 32.3533282,6.82442298 32.754536,6.87570518 L32.754536,6.87570518 L38.9295164,7.6871706 C39.9400774,7.81990101 40.3593848,9.05369044 39.6384174,9.77465786 L39.6384174,9.77465786 L35.2371979,14.1849272 C34.9536375,14.4715042 34.8269403,14.8787452 34.8993387,15.2769364 L34.8993387,15.2769364 L36.0365969,21.3976179 C36.2206095,22.3991292 35.1768659,23.1804286 34.2688692,22.7188888 L34.2688692,22.7188888 L28.7183251,19.8983677 C28.3593497,19.7143551 27.9309925,19.7203883 27.5750337,19.9134507 L27.5750337,19.9134507 L22.1059377,22.8817852 C21.2100075,23.3674578 20.1451477,22.6163244 20.3050275,21.60878 L20.3050275,21.60878 L21.2733561,15.4579324 C21.3367047,15.0597412 21.1979411,14.6525002 20.9053309,14.374973 L20.9053309,14.374973 L16.386464,10.0914009 C15.6443804,9.39154965 16.0305052,8.14569382 17.0380496,7.98581401 L17.0380496,7.98581401 L23.1858806,7.00541899 C23.5870884,6.94207039 23.9279642,6.68565938 24.102927,6.32065077 L24.102927,6.32065077 Z M31.3669,1.44280845 C31.3397506,1.10193264 31.713809,0.875687634 32.0034026,1.05970024 L32.0034026,1.05970024 L33.7681136,2.19394187 C33.8827444,2.26634027 34.0245246,2.28142327 34.1512218,2.22712447 L34.1512218,2.22712447 L36.0818459,1.41264245 C36.3985889,1.27991204 36.7304149,1.56648905 36.6429335,1.89831506 L36.6429335,1.89831506 L36.1150285,3.92547031 C36.0818459,4.05518411 36.1120119,4.19696432 36.2025099,4.29952872 L36.2025099,4.29952872 L37.5720463,5.88626036 C37.7952747,6.14568797 37.6263451,6.54991238 37.2824527,6.57102858 C37.2824527,6.57102858 34.051674,6.44433137 32.890283,5.06272854 C31.6970022,3.64255632 31.4062851,1.74119021 31.3708422,1.474397 Z" id="形状结合"></path>
                </g>
            </g>
        </g>
    </g>
</svg>