<?xml version="1.0" encoding="UTF-8"?>
<svg width="21px" height="24px" viewBox="0 0 21 24" version="1.1" xmlns="http://www.w3.org/2000/svg" xmlns:xlink="http://www.w3.org/1999/xlink">
    <title>形状</title>
    <g id="事件信息、组织动态、辅助工具" stroke="none" stroke-width="1" fill="none" fill-rule="evenodd">
        <g id="事件信息" transform="translate(-602.000000, -743.000000)" fill="#56E9FF" fill-rule="nonzero">
            <g id="编组-9" transform="translate(430.000000, 132.000000)">
                <g id="Group-24备份-11" transform="translate(0.000000, 600.000000)">
                    <path d="M180.710515,12.9129721 L180.710515,12.7945205 C180.710627,11.8034015 181.514119,11 182.505238,11 C183.496357,11 184.299849,11.8034015 184.299961,12.7945205 L184.299961,12.9129721 C187.870561,13.548304 190.58149,16.6684293 190.58149,20.4220918 L190.58149,26.8759145 L192.771052,29.2341801 C193.01366,29.4957728 193.078255,29.8762372 192.935579,30.2032431 C192.792903,30.5302491 192.470062,30.7417471 192.113286,30.7417471 L172.89719,30.7417471 C172.540414,30.7417471 172.217573,30.5302491 172.074897,30.2032431 C171.932221,29.8762372 171.996816,29.4957728 172.239424,29.2341801 L174.428986,26.8759145 L174.428986,20.4220918 C174.429468,16.7286539 177.075235,13.5658284 180.710515,12.9129721 Z M185.197322,31.6391085 C185.197322,33.1259054 183.992035,34.3311924 182.505238,34.3311924 C181.018441,34.3311924 179.813154,33.1259054 179.813154,31.6391085 L185.197322,31.6391085 Z" id="形状"></path>
                </g>
            </g>
        </g>
    </g>
</svg>