<?xml version="1.0" encoding="UTF-8"?>
<svg width="26px" height="26px" viewBox="0 0 26 26" version="1.1" xmlns="http://www.w3.org/2000/svg" xmlns:xlink="http://www.w3.org/1999/xlink">
    <title>编组</title>
    <g id="飞巡" stroke="none" stroke-width="1" fill="none" fill-rule="evenodd">
        <g id="雪碧图" transform="translate(-34.000000, -37.000000)" fill="#FFFFFF" fill-rule="nonzero">
            <g id="编组-4" transform="translate(0.000000, 15.000000)">
                <g id="编组" transform="translate(34.000000, 18.000000)">
                    <path d="M6.33370536,26.1587054 C6.8984375,26.5122768 7.49017857,26.8216518 8.10892857,27.0819196 C9.65580357,27.7399554 11.3008929,28.0714286 13,28.0714286 C14.6991071,28.0714286 16.3441964,27.7399554 17.8935268,27.084375 C18.5122768,26.8216518 19.1040179,26.5147321 19.66875,26.1611607 C19.9339286,25.9941964 20.2727679,25.9991071 20.5305804,26.1783482 C20.9970982,26.4975446 20.9823661,27.1899554 20.5035714,27.4919643 C18.328125,28.8546875 15.7573661,29.6428571 13,29.6428571 C10.2426339,29.6428571 7.671875,28.8546875 5.49642857,27.4895089 C5.01763393,27.1899554 5.00290179,26.4975446 5.46941964,26.1758929 C5.72723214,25.9991071 6.06607143,25.9917411 6.33370536,26.1587054 Z M13,4.5 C19.0745536,4.5 24,9.42544643 24,15.5 C24,21.5745536 19.0745536,26.5 13,26.5 C6.92544643,26.5 2,21.5745536 2,15.5 C2,9.42544643 6.92544643,4.5 13,4.5 Z M13,10 C9.96272321,10 7.5,12.4627232 7.5,15.5 C7.5,18.5372768 9.96272321,21 13,21 C16.0372768,21 18.5,18.5372768 18.5,15.5 C18.5,12.4627232 16.0372768,10 13,10 Z M13,11.5714286 C14.0484375,11.5714286 15.0354911,11.9790179 15.7770089,12.7229911 C16.5209821,13.4645089 16.9285714,14.4515625 16.9285714,15.5 C16.9285714,16.5484375 16.5209821,17.5354911 15.7770089,18.2770089 C15.0354911,19.0209821 14.0484375,19.4285714 13,19.4285714 C11.9515625,19.4285714 10.9645089,19.0209821 10.2229911,18.2770089 C9.47901786,17.5354911 9.07142857,16.5484375 9.07142857,15.5 C9.07142857,14.4515625 9.47901786,13.4645089 10.2229911,12.7229911 C10.9645089,11.9790179 11.9515625,11.5714286 13,11.5714286 Z M13,7.25 C12.3493304,7.25 11.8214286,7.77790179 11.8214286,8.42857143 C11.8214286,9.07924107 12.3493304,9.60714286 13,9.60714286 C13.6506696,9.60714286 14.1785714,9.07924107 14.1785714,8.42857143 C14.1785714,7.77790179 13.6506696,7.25 13,7.25 Z" id="形状结合"></path>
                </g>
            </g>
        </g>
    </g>
</svg>