<?xml version="1.0" encoding="UTF-8"?>
<svg width="26px" height="26px" viewBox="0 0 26 26" version="1.1" xmlns="http://www.w3.org/2000/svg" xmlns:xlink="http://www.w3.org/1999/xlink">
    <title>编组</title>
    <g id="飞巡" stroke="none" stroke-width="1" fill="none" fill-rule="evenodd">
        <g id="雪碧图" transform="translate(-34.000000, -160.000000)" fill="#FFFFFF" fill-rule="nonzero">
            <g id="编组-4" transform="translate(0.000000, 15.000000)">
                <g id="编组" transform="translate(34.000000, 18.000000)">
                    <path d="M24.3329121,143.220898 L22.7612289,143.220898 L22.7612289,139.166456 C22.7612289,138.831456 22.4888455,138.559072 22.1538453,138.559072 L13.5847279,138.559072 L13.5847279,136.733791 L16.2208978,136.733791 C17.1163189,136.733791 17.8426745,136.007435 17.8426745,135.112014 L17.8426745,128.621777 C17.8426745,127.726356 17.1163189,127 16.2208978,127 L9.733791,127 C8.83836989,127 8.1120143,127.726356 8.1120143,128.621777 L8.1120143,135.108883 C8.1120143,136.004305 8.83836989,136.73066 9.733791,136.73066 L12.3699608,136.73066 L12.3699608,138.555942 L3.80397429,138.555942 C3.46897408,138.555942 3.19659074,138.828325 3.19659074,139.163325 L3.19659074,143.217767 L1.62177669,143.217767 C0.726355584,143.217767 0,143.944123 0,144.839544 L0,151.32665 C0,152.222071 0.726355584,152.948427 1.62177669,152.948427 L8.10888346,152.948427 C9.00430457,152.948427 9.73066015,152.222071 9.73066015,151.32665 L9.73066015,144.842674 C9.73066015,143.947253 9.00430457,143.220898 8.10888346,143.220898 L4.41135784,143.220898 L4.41135784,139.77384 L21.5464618,139.77384 L21.5464618,143.220898 L17.8426745,143.220898 C16.9472533,143.220898 16.2208978,143.947253 16.2208978,144.842674 L16.2208978,151.329781 C16.2208978,152.225202 16.9472533,152.951558 17.8426745,152.951558 L24.3297812,152.951558 C25.2252023,152.951558 25.951568,152.225202 25.951568,151.329781 L25.951568,144.842674 C25.9546888,143.947253 25.2283332,143.220898 24.3329121,143.220898 L24.3329121,143.220898 Z" id="路径"></path>
                </g>
            </g>
        </g>
    </g>
</svg>