<?xml version="1.0" encoding="UTF-8"?>
<svg width="26px" height="26px" viewBox="0 0 26 26" version="1.1" xmlns="http://www.w3.org/2000/svg" xmlns:xlink="http://www.w3.org/1999/xlink">
    <title>编组</title>
    <g id="飞巡" stroke="none" stroke-width="1" fill="none" fill-rule="evenodd">
        <g id="雪碧图" transform="translate(-90.000000, -37.000000)" fill="#56E9FF" fill-rule="nonzero">
            <g id="编组-4" transform="translate(0.000000, 15.000000)">
                <g id="编组" transform="translate(34.000000, 18.000000)">
                    <path d="M62.3337054,26.1587054 C62.8984375,26.5122768 63.4901786,26.8216518 64.1089286,27.0819196 C65.6558036,27.7399554 67.3008929,28.0714286 69,28.0714286 C70.6991071,28.0714286 72.3441964,27.7399554 73.8935268,27.084375 C74.5122768,26.8216518 75.1040179,26.5147321 75.66875,26.1611607 C75.9339286,25.9941964 76.2727679,25.9991071 76.5305804,26.1783482 C76.9970982,26.4975446 76.9823661,27.1899554 76.5035714,27.4919643 C74.328125,28.8546875 71.7573661,29.6428571 69,29.6428571 C66.2426339,29.6428571 63.671875,28.8546875 61.4964286,27.4895089 C61.0176339,27.1899554 61.0029018,26.4975446 61.4694196,26.1758929 C61.7272321,25.9991071 62.0660714,25.9917411 62.3337054,26.1587054 Z M69,4.5 C75.0745536,4.5 80,9.42544643 80,15.5 C80,21.5745536 75.0745536,26.5 69,26.5 C62.9254464,26.5 58,21.5745536 58,15.5 C58,9.42544643 62.9254464,4.5 69,4.5 Z M69,10 C65.9627232,10 63.5,12.4627232 63.5,15.5 C63.5,18.5372768 65.9627232,21 69,21 C72.0372768,21 74.5,18.5372768 74.5,15.5 C74.5,12.4627232 72.0372768,10 69,10 Z M69,11.5714286 C70.0484375,11.5714286 71.0354911,11.9790179 71.7770089,12.7229911 C72.5209821,13.4645089 72.9285714,14.4515625 72.9285714,15.5 C72.9285714,16.5484375 72.5209821,17.5354911 71.7770089,18.2770089 C71.0354911,19.0209821 70.0484375,19.4285714 69,19.4285714 C67.9515625,19.4285714 66.9645089,19.0209821 66.2229911,18.2770089 C65.4790179,17.5354911 65.0714286,16.5484375 65.0714286,15.5 C65.0714286,14.4515625 65.4790179,13.4645089 66.2229911,12.7229911 C66.9645089,11.9790179 67.9515625,11.5714286 69,11.5714286 Z M69,7.25 C68.3493304,7.25 67.8214286,7.77790179 67.8214286,8.42857143 C67.8214286,9.07924107 68.3493304,9.60714286 69,9.60714286 C69.6506696,9.60714286 70.1785714,9.07924107 70.1785714,8.42857143 C70.1785714,7.77790179 69.6506696,7.25 69,7.25 Z" id="形状结合"></path>
                </g>
            </g>
        </g>
    </g>
</svg>