<?xml version="1.0" encoding="UTF-8"?>
<svg width="26px" height="26px" viewBox="0 0 26 26" version="1.1" xmlns="http://www.w3.org/2000/svg" xmlns:xlink="http://www.w3.org/1999/xlink">
    <title>编组</title>
    <g id="飞巡" stroke="none" stroke-width="1" fill="none" fill-rule="evenodd">
        <g id="雪碧图" transform="translate(-90.000000, -225.000000)" fill="#56E9FF" fill-rule="nonzero">
            <g id="编组-4" transform="translate(0.000000, 15.000000)">
                <g id="编组" transform="translate(34.000000, 18.000000)">
                    <path d="M80.7812324,209.037303 C80.616295,209.037303 80.4590764,209.071022 80.315264,209.130334 L80.315264,209.129928 L80.3099827,209.131959 L80.3047015,209.133991 L68.9999908,213.811956 L57.6956863,209.134397 C57.6939978,209.133546 57.6922286,209.132865 57.690405,209.132366 L57.6851238,209.130334 L57.6847176,209.130741 C57.0689148,208.897975 56.379563,209.196314 56.127741,209.804573 C55.875919,210.412832 56.1526555,211.111136 56.7527807,211.38177 L56.7527807,211.382176 L68.5234599,216.252704 C68.5251484,216.253555 68.5269175,216.254236 68.5287411,216.254735 L68.5340224,216.256767 L68.5344286,216.25636 C68.8324107,216.380961 69.1678686,216.381108 69.4659592,216.256767 L69.4663654,216.257173 L69.4716467,216.255142 C69.4733352,216.254291 69.4751044,216.25361 69.4769279,216.25311 L81.2472008,211.382583 L81.2472008,211.382176 C81.7844999,211.159818 82.0898729,210.58885 81.976536,210.01851 C81.8631991,209.448169 81.3627249,209.037303 80.7812324,209.037303 Z M56.753187,200.819278 L56.753187,200.819684 L68.5238661,205.690212 L68.5291474,205.692243 L68.5344286,205.694274 L68.5348349,205.693868 C68.8326165,205.818765 69.1680687,205.818911 69.4659592,205.694274 L69.4663654,205.69468 L69.4716467,205.692649 C69.4733352,205.691798 69.4751044,205.691118 69.4769279,205.690618 L81.2472008,200.82009 L81.2472008,200.819684 C81.7026147,200.630891 81.9996403,200.186555 81.9999815,199.69356 C81.9999815,199.200612 81.7026963,198.756312 81.2472008,198.567842 L81.2472008,198.567436 L69.4769279,193.696908 C69.4752394,193.696057 69.4734703,193.695376 69.4716467,193.694876 L69.4663654,193.692845 L69.4659592,193.693251 C69.1678956,193.569057 68.8326004,193.568911 68.5344286,193.692845 L68.5340224,193.692439 L68.5287411,193.69447 C68.5270526,193.695321 68.5252834,193.696002 68.5234599,193.696501 L56.7527807,198.567436 L56.7527807,198.567842 C56.2972852,198.756312 56,199.200612 56,199.69356 C56,200.186606 56.2975321,200.630934 56.753187,200.819278 Z M80.7812324,203.756057 C80.616295,203.756057 80.4590764,203.789776 80.315264,203.849088 L80.315264,203.848682 L80.3099827,203.851119 C80.3082942,203.85197 80.3065251,203.852651 80.3047015,203.853151 L68.9999908,208.53071 L57.6956863,203.853151 C57.6939978,203.8523 57.6922286,203.851619 57.690405,203.851119 L57.6851238,203.848682 L57.6847176,203.849088 C57.0677765,203.612109 56.3743768,203.910025 56.121613,204.520668 C55.8688492,205.131312 56.1488379,205.832143 56.7527807,206.100524 L56.7527807,206.10093 L68.5234599,210.971458 L68.5287411,210.973489 L68.5340224,210.97552 L68.5344286,210.975114 C68.8324107,211.099715 69.1678686,211.099861 69.4659592,210.97552 L69.4663654,210.975927 L69.4716467,210.973895 C69.4733352,210.973044 69.4751044,210.972364 69.4769279,210.971864 L81.2472008,206.101336 L81.2472008,206.10093 C81.7844999,205.878572 82.0898729,205.307604 81.976536,204.737263 C81.8631991,204.166923 81.3627249,203.756057 80.7812324,203.756057 Z" id="形状"></path>
                </g>
            </g>
        </g>
    </g>
</svg>