<?xml version="1.0" encoding="UTF-8"?>
<svg width="26px" height="26px" viewBox="0 0 26 26" version="1.1" xmlns="http://www.w3.org/2000/svg" xmlns:xlink="http://www.w3.org/1999/xlink">
    <title>编组</title>
    <g id="飞巡" stroke="none" stroke-width="1" fill="none" fill-rule="evenodd">
        <g id="雪碧图" transform="translate(-90.000000, -160.000000)" fill="#56E9FF" fill-rule="nonzero">
            <g id="编组-4" transform="translate(0.000000, 15.000000)">
                <g id="编组" transform="translate(34.000000, 18.000000)">
                    <path d="M80.3329121,143.220898 L78.7612289,143.220898 L78.7612289,139.166456 C78.7612289,138.831456 78.4888455,138.559072 78.1538453,138.559072 L69.5847279,138.559072 L69.5847279,136.733791 L72.2208978,136.733791 C73.1163189,136.733791 73.8426745,136.007435 73.8426745,135.112014 L73.8426745,128.621777 C73.8426745,127.726356 73.1163189,127 72.2208978,127 L65.733791,127 C64.8383699,127 64.1120143,127.726356 64.1120143,128.621777 L64.1120143,135.108883 C64.1120143,136.004305 64.8383699,136.73066 65.733791,136.73066 L68.3699608,136.73066 L68.3699608,138.555942 L59.8039743,138.555942 C59.4689741,138.555942 59.1965907,138.828325 59.1965907,139.163325 L59.1965907,143.217767 L57.6217767,143.217767 C56.7263556,143.217767 56,143.944123 56,144.839544 L56,151.32665 C56,152.222071 56.7263556,152.948427 57.6217767,152.948427 L64.1088835,152.948427 C65.0043046,152.948427 65.7306602,152.222071 65.7306602,151.32665 L65.7306602,144.842674 C65.7306602,143.947253 65.0043046,143.220898 64.1088835,143.220898 L60.4113578,143.220898 L60.4113578,139.77384 L77.5464618,139.77384 L77.5464618,143.220898 L73.8426745,143.220898 C72.9472533,143.220898 72.2208978,143.947253 72.2208978,144.842674 L72.2208978,151.329781 C72.2208978,152.225202 72.9472533,152.951558 73.8426745,152.951558 L80.3297812,152.951558 C81.2252023,152.951558 81.951568,152.225202 81.951568,151.329781 L81.951568,144.842674 C81.9546888,143.947253 81.2283332,143.220898 80.3329121,143.220898 L80.3329121,143.220898 Z" id="路径"></path>
                </g>
            </g>
        </g>
    </g>
</svg>