<?xml version="1.0" encoding="UTF-8"?>
<svg width="26px" height="26px" viewBox="0 0 26 26" version="1.1" xmlns="http://www.w3.org/2000/svg" xmlns:xlink="http://www.w3.org/1999/xlink">
    <title>编组</title>
    <g id="飞巡" stroke="none" stroke-width="1" fill="none" fill-rule="evenodd">
        <g id="雪碧图" transform="translate(-34.000000, -98.000000)" fill="#FFFFFF" fill-rule="nonzero">
            <g id="编组-4" transform="translate(0.000000, 15.000000)">
                <g id="编组" transform="translate(34.000000, 18.000000)">
                    <path d="M20.3359027,67.3 L5.66436119,67.3 C4.19285161,67.3 3,68.4884073 3,69.9550281 L3,85.9776385 C3,87.4438149 4.19285161,88.6322222 5.66436119,88.6322222 L20.3359027,88.6322222 C21.8069678,88.6322222 22.999375,87.4438149 22.999375,85.9776385 L22.999375,69.9550281 C22.999375,68.4884073 21.8069678,67.3 20.3359027,67.3 Z M8.60204716,73.0802638 L9.43179901,73.0802638 C10.0691124,73.0802638 10.5859852,73.4784736 10.5859852,73.9700138 C10.5859852,74.461554 10.0691124,74.8602082 9.43179901,74.8602082 L8.60204716,74.8602082 C7.96428931,74.8602082 7.44741657,74.461554 7.44741657,73.9700138 C7.44741657,73.4784736 7.96428931,73.0802638 8.60204716,73.0802638 Z M17.3977723,83.3012777 L8.60204716,83.3012777 C7.96428931,83.3012777 7.44741657,82.9030679 7.44741657,82.4115278 C7.44741657,81.9199876 7.96428931,81.5217778 8.60204716,81.5217778 L17.3977723,81.5217778 C18.0355301,81.5217778 18.551514,81.9199876 18.551514,82.4115278 C18.551514,82.903068 18.0355301,83.3012777 17.3977723,83.3012777 Z M17.3977723,79.2947362 L8.60204716,79.2947362 C7.96428931,79.2947362 7.44741657,78.8987486 7.44741657,78.4103195 C7.44741657,77.9218903 7.96428931,77.5259027 8.60204716,77.5259027 L17.3977723,77.5259027 C18.0355301,77.5259027 18.551514,77.9218903 18.551514,78.4103195 C18.551514,78.8987486 18.0355301,79.2947362 17.3977723,79.2947362 Z M17.3977723,74.8602082 L13.8347725,74.8602082 C13.1970147,74.8602082 12.6801419,74.461554 12.6801419,73.9704582 C12.6801419,73.4784736 13.1970147,73.0802638 13.8347725,73.0802638 L17.3977723,73.0802638 C18.0355301,73.0802638 18.551514,73.4784736 18.551514,73.9704582 C18.551514,74.461554 18.0355301,74.8602082 17.3977723,74.8602082 Z" id="形状"></path>
                </g>
            </g>
        </g>
    </g>
</svg>