<?xml version="1.0" encoding="UTF-8"?>
<svg width="26px" height="26px" viewBox="0 0 26 26" version="1.1" xmlns="http://www.w3.org/2000/svg" xmlns:xlink="http://www.w3.org/1999/xlink">
    <title>编组</title>
    <g id="飞巡" stroke="none" stroke-width="1" fill="none" fill-rule="evenodd">
        <g id="雪碧图" transform="translate(-34.000000, -225.000000)" fill="#FFFFFF" fill-rule="nonzero">
            <g id="编组-4" transform="translate(0.000000, 15.000000)">
                <g id="编组" transform="translate(34.000000, 18.000000)">
                    <path d="M24.7812324,209.037303 C24.616295,209.037303 24.4590764,209.071022 24.315264,209.130334 L24.315264,209.129928 L24.3099827,209.131959 L24.3047015,209.133991 L12.9999908,213.811956 L1.6956863,209.134397 C1.69399779,209.133546 1.69222862,209.132865 1.69040505,209.132366 L1.6851238,209.130334 L1.68471755,209.130741 C1.06891476,208.897975 0.379562968,209.196314 0.127740987,209.804573 C-0.124080995,210.412832 0.152655514,211.111136 0.752780716,211.38177 L0.752780716,211.382176 L12.5234599,216.252704 C12.5251484,216.253555 12.5269175,216.254236 12.5287411,216.254735 L12.5340224,216.256767 L12.5344286,216.25636 C12.8324107,216.380961 13.1678686,216.381108 13.4659592,216.256767 L13.4663654,216.257173 L13.4716467,216.255142 C13.4733352,216.254291 13.4751044,216.25361 13.4769279,216.25311 L25.2472008,211.382583 L25.2472008,211.382176 C25.7844999,211.159818 26.0898729,210.58885 25.976536,210.01851 C25.8631991,209.448169 25.3627249,209.037303 24.7812324,209.037303 Z M0.753186965,200.819278 L0.753186965,200.819684 L12.5238661,205.690212 L12.5291474,205.692243 L12.5344286,205.694274 L12.5348349,205.693868 C12.8326165,205.818765 13.1680687,205.818911 13.4659592,205.694274 L13.4663654,205.69468 L13.4716467,205.692649 C13.4733352,205.691798 13.4751044,205.691118 13.4769279,205.690618 L25.2472008,200.82009 L25.2472008,200.819684 C25.7026147,200.630891 25.9996403,200.186555 25.9999815,199.69356 C25.9999815,199.200612 25.7026963,198.756312 25.2472008,198.567842 L25.2472008,198.567436 L13.4769279,193.696908 C13.4752394,193.696057 13.4734703,193.695376 13.4716467,193.694876 L13.4663654,193.692845 L13.4659592,193.693251 C13.1678956,193.569057 12.8326004,193.568911 12.5344286,193.692845 L12.5340224,193.692439 L12.5287411,193.69447 C12.5270526,193.695321 12.5252834,193.696002 12.5234599,193.696501 L0.752780716,198.567436 L0.752780716,198.567842 C0.297285247,198.756312 7.63833441e-14,199.200612 7.63833441e-14,199.69356 C7.63833441e-14,200.186606 0.297532142,200.630934 0.753186965,200.819278 Z M24.7812324,203.756057 C24.616295,203.756057 24.4590764,203.789776 24.315264,203.849088 L24.315264,203.848682 L24.3099827,203.851119 C24.3082942,203.85197 24.3065251,203.852651 24.3047015,203.853151 L12.9999908,208.53071 L1.6956863,203.853151 C1.69399779,203.8523 1.69222862,203.851619 1.69040505,203.851119 L1.6851238,203.848682 L1.68471755,203.849088 C1.06777654,203.612109 0.374376798,203.910025 0.121613011,204.520668 C-0.131150777,205.131312 0.14883787,205.832143 0.752780716,206.100524 L0.752780716,206.10093 L12.5234599,210.971458 L12.5287411,210.973489 L12.5340224,210.97552 L12.5344286,210.975114 C12.8324107,211.099715 13.1678686,211.099861 13.4659592,210.97552 L13.4663654,210.975927 L13.4716467,210.973895 C13.4733352,210.973044 13.4751044,210.972364 13.4769279,210.971864 L25.2472008,206.101336 L25.2472008,206.10093 C25.7844999,205.878572 26.0898729,205.307604 25.976536,204.737263 C25.8631991,204.166923 25.3627249,203.756057 24.7812324,203.756057 Z" id="形状"></path>
                </g>
            </g>
        </g>
    </g>
</svg>