<?xml version="1.0" encoding="UTF-8"?>
<svg width="29px" height="29px" viewBox="0 0 29 29" version="1.1" xmlns="http://www.w3.org/2000/svg" xmlns:xlink="http://www.w3.org/1999/xlink">
    <title>形状</title>
    <g id="事件信息、组织动态、辅助工具" stroke="none" stroke-width="1" fill="none" fill-rule="evenodd">
        <g id="事件信息" transform="translate(-599.000000, -363.000000)" fill="#56E9FF" fill-rule="nonzero">
            <g id="编组-9" transform="translate(430.000000, 132.000000)">
                <g id="Group-24备份-6" transform="translate(0.000000, 225.000000)">
                    <g id="巡逻" transform="translate(19.000000, 6.000000)">
                        <path d="M178.154167,2.6168699 L170.904167,0.0793698967 C170.541667,-0.0414634461 170.179167,-0.0414634461 169.816667,0.200203211 C169.575,0.441869868 169.333333,0.804369868 169.333333,1.1668699 L169.333333,12.0418699 C169.333333,12.7668699 169.816667,13.2502032 170.541667,13.2502032 C171.266667,13.2502032 171.75,12.7668699 171.75,12.0418699 L171.75,9.02103655 L178.395833,4.7918699 C178.879167,4.55020324 179,4.0668699 179,3.58353655 C179,3.10020321 178.6375,2.73770321 178.154167,2.6168699 Z M171.75,6.12103655 L171.75,2.85853655 L175.0125,4.0668699 L171.75,6.12103655 Z M161.2375,26.1793699 C160.875,26.0585366 160.5125,25.9377032 160.15,25.6960366 C159.666667,25.4543699 159.183333,25.6960366 158.941667,26.1793699 C158.7,26.6627032 158.941667,27.1460366 159.425,27.3877032 C159.7875,27.5085366 160.15,27.7502032 160.633333,27.8710366 L160.995833,27.8710366 C161.358333,27.8710366 161.720833,27.6293699 161.841667,27.2668699 C161.9625,26.9043699 161.720833,26.3002032 161.2375,26.1793699 L161.2375,26.1793699 Z M157.6125,9.26270321 C157.733333,9.38353655 157.854167,9.38353655 158.095833,9.38353655 C158.458333,9.38353655 158.7,9.26270321 158.941667,8.90020321 C159.0625,8.65853655 159.183333,8.41686987 159.425,8.17520321 C159.7875,7.81270321 159.7875,7.20853655 159.425,6.84603655 C159.0625,6.48353655 158.458333,6.48353655 158.095833,6.84603655 C157.854167,7.20853655 157.491667,7.57103655 157.25,7.93353655 C157.008333,8.4168699 157.129167,9.02103655 157.6125,9.26270321 L157.6125,9.26270321 Z M158.579167,11.8002032 C158.458333,11.3168699 157.975,10.9543699 157.491667,11.0752032 C157.008333,11.1960366 156.645833,11.6793699 156.766667,12.1627032 C156.8875,12.6460366 157.008333,13.1293699 157.129167,13.4918699 C157.25,13.8543699 157.6125,14.0960366 157.975,14.0960366 C158.095833,14.0960366 158.216667,14.0960366 158.3375,13.9752032 C158.820833,13.7335366 159.0625,13.2502032 158.820833,12.7668699 C158.7,12.5252032 158.579167,12.1627032 158.579167,11.8002032 L158.579167,11.8002032 Z M161.720833,15.6668699 C161.358333,15.5460366 161.116667,15.3043699 160.754167,15.1835366 C160.391667,14.9418699 159.7875,15.0627032 159.545833,15.4252032 C159.304167,15.7877032 159.425,16.3918699 159.7875,16.6335366 C160.15,16.8752032 160.5125,17.1168699 160.995833,17.3585366 C161.116667,17.4793699 161.2375,17.4793699 161.358333,17.4793699 C161.720833,17.4793699 161.9625,17.2377032 162.204167,16.9960366 C162.325,16.3918699 162.083333,15.9085366 161.720833,15.6668699 L161.720833,15.6668699 Z M168.004167,7.20853655 C167.7625,6.9668699 167.4,6.72520321 167.158333,6.48353655 C166.795833,6.2418699 166.191667,6.2418699 165.95,6.72520321 C165.708333,7.08770321 165.708333,7.69186987 166.191667,7.93353655 C166.433333,8.0543699 166.675,8.29603655 166.916667,8.53770321 C167.0375,8.65853655 167.279167,8.7793699 167.520833,8.7793699 C167.7625,8.7793699 168.004167,8.65853655 168.245833,8.4168699 C168.366667,8.17520324 168.366667,7.57103655 168.004167,7.20853655 L168.004167,7.20853655 Z M169.575,24.0043699 C169.091667,23.8835366 168.608333,24.1252032 168.366667,24.6085366 L168.245833,24.8502032 L167.883333,25.5752032 C167.641667,25.9377032 167.7625,26.5418699 168.125,26.7835366 C168.245833,26.9043699 168.4875,26.9043699 168.608333,26.9043699 C168.85,26.9043699 169.2125,26.7835366 169.333333,26.5418699 C169.575,26.1793699 169.695833,25.8168699 169.816667,25.4543699 L169.9375,25.2127032 C170.3,24.6085366 170.058333,24.1252032 169.575,24.0043699 L169.575,24.0043699 Z M164.1375,6.12103655 C164.1375,5.63770321 163.775,5.1543699 163.291667,5.1543699 L161.9625,5.1543699 C161.479167,5.1543699 161.116667,5.63770324 161.116667,6.12103655 C161.116667,6.60436987 161.6,6.9668699 161.9625,6.9668699 L163.170833,6.9668699 C163.654167,6.9668699 164.1375,6.6043699 164.1375,6.12103655 Z M169.454167,19.6543699 C169.091667,19.2918699 168.608333,19.2918699 168.125,19.5335366 C167.7625,19.8960366 167.641667,20.3793699 168.004167,20.8627032 C168.245833,21.1043699 168.366667,21.4668699 168.4875,21.7085366 C168.608333,22.0710366 168.970833,22.3127032 169.333333,22.3127032 C169.454167,22.3127032 169.575,22.3127032 169.695833,22.1918699 C170.179167,21.9502032 170.420833,21.4668699 170.179167,20.9835366 C169.9375,20.5002032 169.695833,20.1377032 169.454167,19.6543699 L169.454167,19.6543699 Z M166.191667,17.3585366 C165.829167,17.1168699 165.345833,16.9960366 164.983333,16.8752032 C164.5,16.7543699 164.016667,16.9960366 163.775,17.3585366 C163.654167,17.8418699 163.895833,18.3252032 164.258333,18.5668699 C164.620833,18.6877032 164.983333,18.8085366 165.345833,19.0502032 C165.466667,19.0502032 165.5875,19.1710366 165.708333,19.1710366 C166.070833,19.1710366 166.433333,18.9293699 166.554167,18.6877032 C166.916667,18.0835366 166.675,17.4793699 166.191667,17.3585366 Z M165.5875,26.7835366 L164.5,26.7835366 C164.016667,26.7835366 163.654167,27.1460366 163.654167,27.6293699 C163.654167,28.1127032 164.016667,28.5960366 164.5,28.5960366 L164.8625,28.5960366 C165.225,28.5960366 165.5875,28.5960366 165.95,28.4752032 C166.433333,28.3543699 166.795833,27.9918699 166.675,27.5085366 C166.554167,27.0252032 166.070833,26.6627032 165.5875,26.7835366 Z M154.470833,18.6877032 C152.054167,18.6877032 150,20.6210366 150,23.1585366 C150,24.3668699 150.483333,25.4543699 151.329167,26.3002032 C152.054167,27.0252032 153.504167,28.5960366 153.504167,28.5960366 C153.745833,28.8377032 154.108333,28.9585366 154.470833,28.9585366 C154.833333,28.9585366 155.075,28.8377032 155.316667,28.5960366 C155.316667,28.5960366 157.008333,26.9043699 157.6125,26.1793699 C158.3375,25.3335366 158.820833,24.2460366 158.820833,23.0377032 C158.820833,20.6210366 156.8875,18.6877032 154.470833,18.6877032 L154.470833,18.6877032 Z M154.470833,21.1043699 C155.558333,21.1043699 156.525,21.9502032 156.525,23.1585366 C156.525,23.7627032 156.283333,24.3668699 155.8,24.7293699 C155.679167,24.7293699 155.679167,24.8502032 155.558333,24.8502032 C154.833333,25.3335366 153.745833,25.2127032 153.141667,24.6085366 C152.658333,24.1252032 152.416667,23.6418699 152.416667,23.1585366 C152.416667,21.9502032 153.2625,21.1043699 154.470833,21.1043699 Z" id="形状"></path>
                    </g>
                </g>
            </g>
        </g>
    </g>
</svg>