<?xml version="1.0" encoding="UTF-8"?>
<svg width="26px" height="26px" viewBox="0 0 26 26" version="1.1" xmlns="http://www.w3.org/2000/svg" xmlns:xlink="http://www.w3.org/1999/xlink">
    <title>编组</title>
    <g id="飞巡" stroke="none" stroke-width="1" fill="none" fill-rule="evenodd">
        <g id="雪碧图" transform="translate(-90.000000, -98.000000)" fill="#56E9FF" fill-rule="nonzero">
            <g id="编组-4" transform="translate(0.000000, 15.000000)">
                <g id="编组" transform="translate(34.000000, 18.000000)">
                    <path d="M76.3359027,67.3 L61.6643612,67.3 C60.1928516,67.3 59,68.4884073 59,69.9550281 L59,85.9776385 C59,87.4438149 60.1928516,88.6322222 61.6643612,88.6322222 L76.3359027,88.6322222 C77.8069678,88.6322222 78.999375,87.4438149 78.999375,85.9776385 L78.999375,69.9550281 C78.999375,68.4884073 77.8069678,67.3 76.3359027,67.3 Z M64.6020472,73.0802638 L65.431799,73.0802638 C66.0691124,73.0802638 66.5859852,73.4784736 66.5859852,73.9700138 C66.5859852,74.461554 66.0691124,74.8602082 65.431799,74.8602082 L64.6020472,74.8602082 C63.9642893,74.8602082 63.4474166,74.461554 63.4474166,73.9700138 C63.4474166,73.4784736 63.9642893,73.0802638 64.6020472,73.0802638 Z M73.3977723,83.3012777 L64.6020472,83.3012777 C63.9642893,83.3012777 63.4474166,82.9030679 63.4474166,82.4115278 C63.4474166,81.9199876 63.9642893,81.5217778 64.6020472,81.5217778 L73.3977723,81.5217778 C74.0355301,81.5217778 74.551514,81.9199876 74.551514,82.4115278 C74.551514,82.903068 74.0355301,83.3012777 73.3977723,83.3012777 Z M73.3977723,79.2947362 L64.6020472,79.2947362 C63.9642893,79.2947362 63.4474166,78.8987486 63.4474166,78.4103195 C63.4474166,77.9218903 63.9642893,77.5259027 64.6020472,77.5259027 L73.3977723,77.5259027 C74.0355301,77.5259027 74.551514,77.9218903 74.551514,78.4103195 C74.551514,78.8987486 74.0355301,79.2947362 73.3977723,79.2947362 Z M73.3977723,74.8602082 L69.8347725,74.8602082 C69.1970147,74.8602082 68.6801419,74.461554 68.6801419,73.9704582 C68.6801419,73.4784736 69.1970147,73.0802638 69.8347725,73.0802638 L73.3977723,73.0802638 C74.0355301,73.0802638 74.551514,73.4784736 74.551514,73.9704582 C74.551514,74.461554 74.0355301,74.8602082 73.3977723,74.8602082 Z" id="形状"></path>
                </g>
            </g>
        </g>
    </g>
</svg>