<?xml version="1.0" encoding="UTF-8"?>
<svg width="29px" height="29px" viewBox="0 0 29 29" version="1.1" xmlns="http://www.w3.org/2000/svg" xmlns:xlink="http://www.w3.org/1999/xlink">
    <title>形状</title>
    <g id="工具面板" stroke="none" stroke-width="1" fill="none" fill-rule="evenodd">
        <g id="事件信息" transform="translate(-449.000000, -363.000000)" fill="#FFFFFF" fill-rule="nonzero">
            <g id="编组-9" transform="translate(430.000000, 132.000000)">
                <g id="Group-24备份-6" transform="translate(0.000000, 225.000000)">
                    <g id="巡逻" transform="translate(19.000000, 6.000000)">
                        <path d="M28.1541667,2.6168699 L20.9041667,0.0793698967 C20.5416667,-0.0414634461 20.1791667,-0.0414634461 19.8166667,0.200203211 C19.575,0.441869868 19.3333333,0.804369868 19.3333333,1.1668699 L19.3333333,12.0418699 C19.3333333,12.7668699 19.8166667,13.2502032 20.5416667,13.2502032 C21.2666666,13.2502032 21.75,12.7668699 21.75,12.0418699 L21.75,9.02103655 L28.3958333,4.7918699 C28.8791667,4.55020324 29,4.0668699 29,3.58353655 C29,3.10020321 28.6375,2.73770321 28.1541667,2.6168699 Z M21.75,6.12103655 L21.75,2.85853655 L25.0125,4.0668699 L21.75,6.12103655 Z M11.2375,26.1793699 C10.875,26.0585366 10.5125,25.9377032 10.15,25.6960366 C9.66666666,25.4543699 9.18333334,25.6960366 8.94166666,26.1793699 C8.7,26.6627032 8.94166666,27.1460366 9.425,27.3877032 C9.7875,27.5085366 10.15,27.7502032 10.6333333,27.8710366 L10.9958333,27.8710366 C11.3583333,27.8710366 11.7208333,27.6293699 11.8416667,27.2668699 C11.9625,26.9043699 11.7208333,26.3002032 11.2375,26.1793699 L11.2375,26.1793699 Z M7.6125,9.26270321 C7.73333334,9.38353655 7.85416666,9.38353655 8.09583334,9.38353655 C8.45833334,9.38353655 8.7,9.26270321 8.94166666,8.90020321 C9.0625,8.65853655 9.18333331,8.41686987 9.425,8.17520321 C9.7875,7.81270321 9.7875,7.20853655 9.425,6.84603655 C9.0625,6.48353655 8.45833334,6.48353655 8.09583334,6.84603655 C7.85416669,7.20853655 7.49166669,7.57103655 7.25,7.93353655 C7.00833334,8.4168699 7.12916667,9.02103655 7.6125,9.26270321 L7.6125,9.26270321 Z M8.57916666,11.8002032 C8.45833331,11.3168699 7.975,10.9543699 7.49166666,11.0752032 C7.00833331,11.1960366 6.64583331,11.6793699 6.76666666,12.1627032 C6.8875,12.6460366 7.00833331,13.1293699 7.12916666,13.4918699 C7.25,13.8543699 7.6125,14.0960366 7.975,14.0960366 C8.09583334,14.0960366 8.21666666,14.0960366 8.3375,13.9752032 C8.82083334,13.7335366 9.0625,13.2502032 8.82083334,12.7668699 C8.7,12.5252032 8.57916669,12.1627032 8.57916666,11.8002032 L8.57916666,11.8002032 Z M11.7208333,15.6668699 C11.3583333,15.5460366 11.1166667,15.3043699 10.7541667,15.1835366 C10.3916667,14.9418699 9.7875,15.0627032 9.54583334,15.4252032 C9.30416669,15.7877032 9.425,16.3918699 9.7875,16.6335366 C10.15,16.8752032 10.5125,17.1168699 10.9958333,17.3585366 C11.1166667,17.4793699 11.2375,17.4793699 11.3583333,17.4793699 C11.7208333,17.4793699 11.9625,17.2377032 12.2041667,16.9960366 C12.325,16.3918699 12.0833333,15.9085366 11.7208333,15.6668699 L11.7208333,15.6668699 Z M18.0041667,7.20853655 C17.7625,6.9668699 17.4,6.72520321 17.1583333,6.48353655 C16.7958333,6.2418699 16.1916667,6.2418699 15.95,6.72520321 C15.7083333,7.08770321 15.7083333,7.69186987 16.1916667,7.93353655 C16.4333333,8.0543699 16.675,8.29603655 16.9166667,8.53770321 C17.0375,8.65853655 17.2791667,8.7793699 17.5208333,8.7793699 C17.7625,8.7793699 18.0041667,8.65853655 18.2458333,8.4168699 C18.3666667,8.17520324 18.3666667,7.57103655 18.0041667,7.20853655 L18.0041667,7.20853655 Z M19.575,24.0043699 C19.0916667,23.8835366 18.6083333,24.1252032 18.3666667,24.6085366 L18.2458333,24.8502032 L17.8833333,25.5752032 C17.6416667,25.9377032 17.7625,26.5418699 18.125,26.7835366 C18.2458333,26.9043699 18.4875,26.9043699 18.6083333,26.9043699 C18.85,26.9043699 19.2125,26.7835366 19.3333333,26.5418699 C19.575,26.1793699 19.6958333,25.8168699 19.8166667,25.4543699 L19.9375,25.2127032 C20.3,24.6085366 20.0583333,24.1252032 19.575,24.0043699 L19.575,24.0043699 Z M14.1375,6.12103655 C14.1375,5.63770321 13.775,5.1543699 13.2916667,5.1543699 L11.9625,5.1543699 C11.4791667,5.1543699 11.1166667,5.63770324 11.1166667,6.12103655 C11.1166667,6.60436987 11.6,6.9668699 11.9625,6.9668699 L13.1708333,6.9668699 C13.6541667,6.9668699 14.1375,6.6043699 14.1375,6.12103655 Z M19.4541667,19.6543699 C19.0916667,19.2918699 18.6083333,19.2918699 18.125,19.5335366 C17.7625,19.8960366 17.6416667,20.3793699 18.0041667,20.8627032 C18.2458333,21.1043699 18.3666667,21.4668699 18.4875,21.7085366 C18.6083333,22.0710366 18.9708333,22.3127032 19.3333333,22.3127032 C19.4541667,22.3127032 19.575,22.3127032 19.6958333,22.1918699 C20.1791667,21.9502032 20.4208333,21.4668699 20.1791667,20.9835366 C19.9375,20.5002032 19.6958333,20.1377032 19.4541667,19.6543699 L19.4541667,19.6543699 Z M16.1916667,17.3585366 C15.8291667,17.1168699 15.3458333,16.9960366 14.9833333,16.8752032 C14.5,16.7543699 14.0166667,16.9960366 13.775,17.3585366 C13.6541667,17.8418699 13.8958333,18.3252032 14.2583333,18.5668699 C14.6208333,18.6877032 14.9833333,18.8085366 15.3458333,19.0502032 C15.4666667,19.0502032 15.5875,19.1710366 15.7083333,19.1710366 C16.0708333,19.1710366 16.4333333,18.9293699 16.5541667,18.6877032 C16.9166667,18.0835366 16.675,17.4793699 16.1916667,17.3585366 Z M15.5875,26.7835366 L14.5,26.7835366 C14.0166667,26.7835366 13.6541667,27.1460366 13.6541667,27.6293699 C13.6541667,28.1127032 14.0166667,28.5960366 14.5,28.5960366 L14.8625,28.5960366 C15.225,28.5960366 15.5875,28.5960366 15.95,28.4752032 C16.4333333,28.3543699 16.7958333,27.9918699 16.675,27.5085366 C16.5541667,27.0252032 16.0708333,26.6627032 15.5875,26.7835366 Z M4.47083334,18.6877032 C2.05416669,18.6877032 0,20.6210366 0,23.1585366 C0,24.3668699 0.483333343,25.4543699 1.32916666,26.3002032 C2.05416666,27.0252032 3.50416666,28.5960366 3.50416666,28.5960366 C3.74583331,28.8377032 4.10833331,28.9585366 4.47083334,28.9585366 C4.83333337,28.9585366 5.075,28.8377032 5.31666666,28.5960366 C5.31666666,28.5960366 7.00833331,26.9043699 7.6125,26.1793699 C8.3375,25.3335366 8.82083334,24.2460366 8.82083334,23.0377032 C8.82083334,20.6210366 6.8875,18.6877032 4.47083334,18.6877032 L4.47083334,18.6877032 Z M4.47083334,21.1043699 C5.55833334,21.1043699 6.525,21.9502032 6.525,23.1585366 C6.525,23.7627032 6.28333334,24.3668699 5.8,24.7293699 C5.67916666,24.7293699 5.67916666,24.8502032 5.55833334,24.8502032 C4.83333334,25.3335366 3.74583334,25.2127032 3.14166666,24.6085366 C2.65833331,24.1252032 2.41666666,23.6418699 2.41666666,23.1585366 C2.41666666,21.9502032 3.2625,21.1043699 4.47083334,21.1043699 Z" id="形状"></path>
                    </g>
                </g>
            </g>
        </g>
    </g>
</svg>