<?xml version="1.0" encoding="UTF-8"?>
<svg width="23px" height="20px" viewBox="0 0 23 20" version="1.1" xmlns="http://www.w3.org/2000/svg" xmlns:xlink="http://www.w3.org/1999/xlink">
    <title>形状</title>
    <g id="工具面板" stroke="none" stroke-width="1" fill="none" fill-rule="evenodd">
        <g id="事件信息" transform="translate(-451.000000, -596.000000)" fill="#FFFFFF" fill-rule="nonzero">
            <g id="编组-9" transform="translate(430.000000, 132.000000)">
                <g id="Group-24备份-9" transform="translate(0.000000, 450.000000)">
                    <path d="M33.300391,14.5996825 L43.3362111,31.6600903 C43.5573987,32.0361292 43.5602223,32.5018352 43.3436107,32.8805285 C43.1269991,33.2592219 42.7241415,33.4928558 42.2878741,33.4928558 L22.2162339,33.4928558 C21.7799665,33.4928558 21.3771089,33.2592219 21.1604973,32.8805285 C20.9438857,32.5018352 20.9467093,32.0361292 21.1678969,31.6600903 L31.203717,14.5996825 C31.4222061,14.2281408 31.8210311,14 32.252054,14 C32.6830769,14 33.0819019,14.2281408 33.300391,14.5996825 Z M32.252054,18.8988371 C31.5803828,18.8988371 31.0358858,19.4433342 31.0358858,20.1150054 L31.0358858,26.1958465 C31.0358858,26.8675176 31.5803828,27.4120147 32.252054,27.4120147 C32.9237252,27.4120147 33.4682222,26.8675176 33.4682222,26.1958465 L33.4682222,20.1150054 C33.4682222,19.4433342 32.9237252,18.8988371 32.252054,18.8988371 Z M32.252054,31.0605193 C32.6865491,31.0605193 33.0880391,30.828719 33.3052866,30.4524352 C33.5225342,30.0761515 33.5225342,29.6125508 33.3052866,29.236267 C33.0880391,28.8599832 32.6865491,28.6281829 32.252054,28.6281829 C31.5803829,28.6281829 31.0358858,29.17268 31.0358858,29.8443511 C31.0358858,30.5160223 31.5803829,31.0605193 32.252054,31.0605193 Z" id="形状"></path>
                </g>
            </g>
        </g>
    </g>
</svg>