<?xml version="1.0" encoding="UTF-8"?>
<svg width="23px" height="20px" viewBox="0 0 23 20" version="1.1" xmlns="http://www.w3.org/2000/svg" xmlns:xlink="http://www.w3.org/1999/xlink">
    <title>形状</title>
    <g id="事件信息、组织动态、辅助工具" stroke="none" stroke-width="1" fill="none" fill-rule="evenodd">
        <g id="事件信息" transform="translate(-601.000000, -596.000000)" fill="#56E9FF" fill-rule="nonzero">
            <g id="编组-9" transform="translate(430.000000, 132.000000)">
                <g id="Group-24备份-9" transform="translate(0.000000, 450.000000)">
                    <path d="M183.300391,14.5996825 L193.336211,31.6600903 C193.557399,32.0361292 193.560222,32.5018352 193.343611,32.8805285 C193.126999,33.2592219 192.724142,33.4928558 192.287874,33.4928558 L172.216234,33.4928558 C171.779966,33.4928558 171.377109,33.2592219 171.160497,32.8805285 C170.943886,32.5018352 170.946709,32.0361292 171.167897,31.6600903 L181.203717,14.5996825 C181.422206,14.2281408 181.821031,14 182.252054,14 C182.683077,14 183.081902,14.2281408 183.300391,14.5996825 Z M182.252054,18.8988371 C181.580383,18.8988371 181.035886,19.4433342 181.035886,20.1150054 L181.035886,26.1958465 C181.035886,26.8675176 181.580383,27.4120147 182.252054,27.4120147 C182.923725,27.4120147 183.468222,26.8675176 183.468222,26.1958465 L183.468222,20.1150054 C183.468222,19.4433342 182.923725,18.8988371 182.252054,18.8988371 Z M182.252054,31.0605193 C182.686549,31.0605193 183.088039,30.828719 183.305287,30.4524352 C183.522534,30.0761515 183.522534,29.6125508 183.305287,29.236267 C183.088039,28.8599832 182.686549,28.6281829 182.252054,28.6281829 C181.580383,28.6281829 181.035886,29.17268 181.035886,29.8443511 C181.035886,30.5160223 181.580383,31.0605193 182.252054,31.0605193 Z" id="形状"></path>
                </g>
            </g>
        </g>
    </g>
</svg>