<?xml version="1.0" encoding="UTF-8"?>
<svg width="26px" height="21px" viewBox="0 0 26 21" version="1.1" xmlns="http://www.w3.org/2000/svg" xmlns:xlink="http://www.w3.org/1999/xlink">
    <title>编组</title>
    <defs>
        <filter id="filter-1">
            <feColorMatrix in="SourceGraphic" type="matrix" values="0 0 0 0 0.337255 0 0 0 0 0.913725 0 0 0 0 1.000000 0 0 0 1.000000 0"></feColorMatrix>
        </filter>
    </defs>
    <g id="事件信息、组织动态、辅助工具" stroke="none" stroke-width="1" fill="none" fill-rule="evenodd">
        <g id="雪碧图" transform="translate(-220.000000, -764.000000)">
            <g id="编组" transform="translate(0.000000, -18.979320)">
                <g id="编组" transform="translate(158.000000, 339.979320)" filter="url(#filter-1)">
                    <g transform="translate(62.000000, 443.000000)">
                        <polygon id="路径" fill="#000000" fill-rule="nonzero" points="18.1750617 0.00133216175 25.6664493 2.84319266 25.1450071 6.94520537 17.6058206 5.03759565"></polygon>
                        <polygon id="路径" fill="#000000" fill-rule="nonzero" points="17.1843214 9.61325176 17.5754031 5.39825991 25.0798268 7.29717894 24.6496369 10.8560226 17.2190842 9.96087997"></polygon>
                        <path d="M16.3022148,10.0999313 L11.7656669,10.7821516 C11.5223271,10.0912406 11.0747558,9.49592726 10.4924786,9.07442807 C11.0877919,8.12714124 11.6222702,6.28905714 11.7569762,5.80672305 L16.6672244,5.17230157 L16.254416,9.61325176 L16.3022148,10.0999313 L16.3022148,10.0999313 Z" id="路径" fill="#000000" fill-rule="nonzero"></path>
                        <path d="M8.38498263,14.8450561 C6.798929,14.8450561 5.50835933,13.5544865 5.50835933,11.9684328 C5.50835933,10.3823791 6.798929,9.09180949 8.38498263,9.09180949 C9.97103627,9.09180949 11.261606,10.3823792 11.261606,11.9684328 C11.261606,13.5544864 9.9710363,14.8450561 8.38498263,14.8450561 Z" id="路径" fill="#000000" fill-rule="nonzero"></path>
                        <path d="M17.1017597,0.514083738 L16.7019872,4.81163731 L16.6976419,4.81163731 L11.4788736,5.48516696 L11.4484561,5.5981461 C11.4441108,5.62421822 10.8357614,7.86207472 10.1969946,8.87888721 C9.78418614,8.63554748 9.3192334,8.47476944 8.82386325,8.41393451 L8.40236406,4.67258606 L17.1017597,0.514083738 Z" id="路径" fill="#000000" fill-rule="nonzero"></path>
                        <path d="M7.89395781,8.4226252 C6.51648109,8.61382069 5.3823441,9.58717964 4.96953563,10.8820947 L1.10217195,10.2824361 L1.14128013,9.94349858 L0.728471626,6.69752028 C2.0103506,6.61061323 2.97067349,6.1934594 3.58771354,5.45040411 C4.14391866,4.78121983 4.30469671,3.98602034 4.33511415,3.39505241 L7.47245865,4.72038493 L7.89395781,8.4226252 Z" id="路径" fill="#000000" fill-rule="nonzero"></path>
                        <path d="M0.085359455,1.59607649 L3.98314062,3.2429651 C3.97444993,3.78613416 3.8484347,4.57698828 3.3183017,5.22010045 C2.76209658,5.88928474 1.87999004,6.26298502 0.685018118,6.34120138 L0.085359455,1.59607649 Z" id="路径" fill="#000000" fill-rule="nonzero"></path>
                        <path d="M0.033215253,19.2468982 L0.993538144,11.1949601 L4.80875759,11.785928 C4.80441222,11.8467629 4.80006689,11.9075979 4.80006689,11.9684328 C4.80006689,12.8070858 5.09120549,13.5762132 5.57788495,14.1889079 L3.59640424,15.7793069 L2.97067349,19.7987579 L0.033215253,19.2468982 Z" id="路径" fill="#000000" fill-rule="nonzero"></path>
                        <path d="M3.3183017,19.8639382 L3.92230569,15.9748478 L5.80818866,14.4626651 C6.38612053,15.0623238 7.16828399,15.4577508 8.04604516,15.5403125 L7.50722146,20.650447 L3.3183017,19.8639382 Z" id="路径" fill="#000000" fill-rule="nonzero"></path>
                        <path d="M8.41540012,20.8199158 L8.97595056,15.5055497 C10.6749834,15.2231018 11.9742438,13.745682 11.9742438,11.9727782 C11.9742438,11.8771804 11.9655531,11.7815827 11.9612077,11.6903303 L16.3934672,11.021146 L16.7628222,14.8016026 C14.8161043,14.892855 13.3647566,15.4925136 12.4478872,16.5962332 C11.3789305,17.8868029 11.3311316,19.4902379 11.3876212,20.2854374 L8.4979618,20.8372972 L8.41540012,20.8199158 Z" id="路径" fill="#000000" fill-rule="nonzero"></path>
                        <path d="M12.7216444,16.8221915 C13.5733335,15.792343 14.9464648,15.2404832 16.797585,15.1535762 L17.1769576,19.1845224 L11.7395947,20.2202571 C11.6961412,19.4641658 11.7613215,17.9867459 12.7216444,16.8221915 Z" id="路径" fill="#000000" fill-rule="nonzero"></path>
                        <polygon id="路径" fill="#000000" fill-rule="nonzero" points="18.0968454 18.9948677 17.3016459 10.8820947 24.527967 11.7728919 25.6273412 20.7069366 21.1820456 19.678828 20.595423 13.9281868 23.5806802 14.2845057 23.6241337 13.9325321 20.199996 13.524069 20.8300721 19.5988717"></polygon>
                        <path d="M10.140505,11.9727782 C10.140505,12.9417917 9.35399625,13.7283005 8.38498263,13.7283005 C7.41596905,13.7283005 6.62946026,12.9417917 6.62946026,11.9727782 C6.62946026,11.0037646 7.41596905,10.2172558 8.38498263,10.2172558 C9.35834158,10.2172558 10.140505,10.9994192 10.140505,11.9727782 Z" id="路径" fill="#000000" fill-rule="nonzero"></path>
                    </g>
                </g>
            </g>
        </g>
    </g>
</svg>