<?xml version="1.0" encoding="UTF-8"?>
<svg width="26px" height="28px" viewBox="0 0 26 28" version="1.1" xmlns="http://www.w3.org/2000/svg" xmlns:xlink="http://www.w3.org/1999/xlink">
    <title>路径备份 3</title>
    <g id="事件信息、组织动态、辅助工具" stroke="none" stroke-width="1" fill="none" fill-rule="evenodd">
        <g id="雪碧图" transform="translate(-361.000000, -615.000000)" fill="#56E9FF" fill-rule="nonzero">
            <g id="编组" transform="translate(0.000000, -18.979320)">
                <path d="M386.945293,657.873555 C386.702631,656.728188 385.770984,655.9624 384.611841,655.955029 C384.294792,655.952818 383.977021,655.955029 383.65925,655.955029 C384.967872,655.386218 385.816822,654.074445 385.815761,652.622852 C385.81865,650.624726 384.239183,649.000281 382.289945,648.998069 C380.345041,648.995121 378.756186,650.620304 378.752575,652.615482 C378.749277,654.069298 379.5998,655.383635 380.911252,655.951344 C380.57037,655.950607 380.23021,655.951344 379.889329,655.959451 C378.789407,655.985248 377.879426,656.7304 377.643264,657.823436 C377.568877,658.16911 377.586932,658.483828 377.571766,658.842031 C377.562377,659.065355 377.569599,659.469993 377.569599,659.469993 L377.366659,659.469993 C377.366659,658.96954 377.369548,658.751375 377.365937,658.372534 C377.352937,656.95225 376.331736,655.933655 374.949432,655.92997 C374.654049,655.929233 374.358666,655.932918 374.064006,655.933655 C375.351154,655.356247 376.182214,654.05701 376.182239,652.622115 C376.182961,650.625463 374.599161,648.999543 372.652813,648.997332 C370.704298,648.995858 369.124831,650.614407 369.120497,652.616219 C369.115116,654.062869 369.956817,655.372971 371.258953,655.94471 C370.95707,655.946922 370.655188,655.945448 370.352583,655.948396 C370.075255,655.950607 369.784928,655.999989 369.522767,656.091382 C368.552843,656.428211 367.947633,657.322983 367.935356,658.386538 C367.931022,658.777171 367.934633,659.169279 367.934633,659.548856 L367.958466,659.896741 C365.133914,659.461148 362.959348,656.970676 362.959348,653.963536 L362.959348,652.96263 C362.959348,649.686469 365.539072,647.018369 368.731228,646.960142 C375.009375,646.963828 380.439651,646.954983 386.777741,646.954983 L386.992958,646.954983 C386.995847,646.954983 386.998736,646.87833 386.998736,646.846638 C386.998736,645.678423 387.000903,644.515367 386.99657,643.347152 C386.995859,643.181893 386.978433,643.01715 386.944571,642.855543 C386.701909,641.710177 385.770262,640.944388 384.611119,640.937018 C384.29407,640.934806 383.976299,640.937018 383.658528,640.937018 C384.967149,640.368206 385.8161,639.056433 385.815039,637.604841 C385.817927,635.606714 384.23846,633.982269 382.289223,633.980058 C380.344319,633.97711 378.755463,635.602292 378.751852,637.597471 C378.748555,639.051287 379.599078,640.365623 380.91053,640.933332 C380.569648,640.932595 380.229488,640.933332 379.888606,640.94144 C378.788685,640.967236 377.878704,641.712388 377.642542,642.805424 C377.568155,643.151098 377.58621,643.466553 377.571044,643.824019 C377.561655,644.047344 377.568877,644.451981 377.568877,644.451981 L377.365937,644.451981 C377.365937,643.951528 377.368826,643.7341 377.365215,643.354522 C377.352215,641.934238 376.331014,640.915643 374.948709,640.911958 C374.653327,640.911221 374.357944,640.915643 374.063283,640.915643 C375.350432,640.338236 376.181492,639.038998 376.181517,637.604104 C376.182239,635.607451 374.598439,633.981532 372.652091,633.97932 C370.703576,633.977847 369.124109,635.596396 369.119775,637.597471 C369.114394,639.04412 369.956095,640.354222 371.258231,640.925962 C370.956348,640.928173 370.654466,640.927436 370.351861,640.929647 C370.074533,640.931858 369.784206,640.98124 369.522045,641.072634 C368.55212,641.409463 367.946911,642.304234 367.934633,643.367789 C367.9303,643.758423 367.933911,644.15053 367.933911,644.530108 L367.96641,645.004764 C364.054214,645.448465 361,648.846975 361,652.96263 L361,653.963536 C361,658.042338 364.000049,661.412841 367.86169,661.905186 L367.857357,661.972995 L367.857357,661.978154 C374.71327,661.982576 380.225877,661.972995 386.778463,661.972995 L386.993681,661.972995 C386.99657,661.972995 386.999458,661.896342 386.999458,661.864649 C386.999458,660.696434 387.001625,659.533378 386.997292,658.364426 C386.996578,658.199411 386.979152,658.034913 386.945293,657.873555 L386.945293,657.873555 Z" id="路径备份-3"></path>
            </g>
        </g>
    </g>
</svg>