<?xml version="1.0" encoding="UTF-8"?>
<svg width="26px" height="28px" viewBox="0 0 26 28" version="1.1" xmlns="http://www.w3.org/2000/svg" xmlns:xlink="http://www.w3.org/1999/xlink">
    <title>路径</title>
    <g id="事件信息、组织动态、辅助工具" stroke="none" stroke-width="1" fill="none" fill-rule="evenodd">
        <g id="雪碧图" transform="translate(-314.000000, -615.000000)" fill="#FFFFFF" fill-rule="nonzero">
            <g id="编组" transform="translate(0.000000, -18.979320)">
                <path d="M339.945293,657.873555 C339.702631,656.728188 338.770984,655.9624 337.611841,655.955029 C337.294792,655.952818 336.977021,655.955029 336.65925,655.955029 C337.967872,655.386218 338.816822,654.074445 338.815761,652.622852 C338.81865,650.624726 337.239183,649.000281 335.289945,648.998069 C333.345041,648.995121 331.756186,650.620304 331.752575,652.615482 C331.749277,654.069298 332.5998,655.383635 333.911252,655.951344 C333.57037,655.950607 333.23021,655.951344 332.889329,655.959451 C331.789407,655.985248 330.879426,656.7304 330.643264,657.823436 C330.568877,658.16911 330.586932,658.483828 330.571766,658.842031 C330.562377,659.065355 330.569599,659.469993 330.569599,659.469993 L330.366659,659.469993 C330.366659,658.96954 330.369548,658.751375 330.365937,658.372534 C330.352937,656.95225 329.331736,655.933655 327.949432,655.92997 C327.654049,655.929233 327.358666,655.932918 327.064006,655.933655 C328.351154,655.356247 329.182214,654.05701 329.182239,652.622115 C329.182961,650.625463 327.599161,648.999543 325.652813,648.997332 C323.704298,648.995858 322.124831,650.614407 322.120497,652.616219 C322.115116,654.062869 322.956817,655.372971 324.258953,655.94471 C323.95707,655.946922 323.655188,655.945448 323.352583,655.948396 C323.075255,655.950607 322.784928,655.999989 322.522767,656.091382 C321.552843,656.428211 320.947633,657.322983 320.935356,658.386538 C320.931022,658.777171 320.934633,659.169279 320.934633,659.548856 L320.958466,659.896741 C318.133914,659.461148 315.959348,656.970676 315.959348,653.963536 L315.959348,652.96263 C315.959348,649.686469 318.539072,647.018369 321.731228,646.960142 C328.009375,646.963828 333.439651,646.954983 339.777741,646.954983 L339.992958,646.954983 C339.995847,646.954983 339.998736,646.87833 339.998736,646.846638 C339.998736,645.678423 340.000903,644.515367 339.99657,643.347152 C339.995859,643.181893 339.978433,643.01715 339.944571,642.855543 C339.701909,641.710177 338.770262,640.944388 337.611119,640.937018 C337.29407,640.934806 336.976299,640.937018 336.658528,640.937018 C337.967149,640.368206 338.8161,639.056433 338.815039,637.604841 C338.817927,635.606714 337.23846,633.982269 335.289223,633.980058 C333.344319,633.97711 331.755463,635.602292 331.751852,637.597471 C331.748555,639.051287 332.599078,640.365623 333.91053,640.933332 C333.569648,640.932595 333.229488,640.933332 332.888606,640.94144 C331.788685,640.967236 330.878704,641.712388 330.642542,642.805424 C330.568155,643.151098 330.58621,643.466553 330.571044,643.824019 C330.561655,644.047344 330.568877,644.451981 330.568877,644.451981 L330.365937,644.451981 C330.365937,643.951528 330.368826,643.7341 330.365215,643.354522 C330.352215,641.934238 329.331014,640.915643 327.948709,640.911958 C327.653327,640.911221 327.357944,640.915643 327.063283,640.915643 C328.350432,640.338236 329.181492,639.038998 329.181517,637.604104 C329.182239,635.607451 327.598439,633.981532 325.652091,633.97932 C323.703576,633.977847 322.124109,635.596396 322.119775,637.597471 C322.114394,639.04412 322.956095,640.354222 324.258231,640.925962 C323.956348,640.928173 323.654466,640.927436 323.351861,640.929647 C323.074533,640.931858 322.784206,640.98124 322.522045,641.072634 C321.55212,641.409463 320.946911,642.304234 320.934633,643.367789 C320.9303,643.758423 320.933911,644.15053 320.933911,644.530108 L320.96641,645.004764 C317.054214,645.448465 314,648.846975 314,652.96263 L314,653.963536 C314,658.042338 317.000049,661.412841 320.86169,661.905186 L320.857357,661.972995 L320.857357,661.978154 C327.71327,661.982576 333.225877,661.972995 339.778463,661.972995 L339.993681,661.972995 C339.99657,661.972995 339.999458,661.896342 339.999458,661.864649 C339.999458,660.696434 340.001625,659.533378 339.997292,658.364426 C339.996578,658.199411 339.979152,658.034913 339.945293,657.873555 L339.945293,657.873555 Z" id="路径"></path>
            </g>
        </g>
    </g>
</svg>