<?xml version="1.0" encoding="UTF-8"?>
<svg width="21px" height="24px" viewBox="0 0 21 24" version="1.1" xmlns="http://www.w3.org/2000/svg" xmlns:xlink="http://www.w3.org/1999/xlink">
    <title>路径备份 2</title>
    <g id="事件信息、组织动态、辅助工具" stroke="none" stroke-width="1" fill="none" fill-rule="evenodd">
        <g id="雪碧图" transform="translate(-364.000000, -506.000000)" fill="#56E9FF" fill-rule="nonzero">
            <g id="编组" transform="translate(0.000000, -18.979320)">
                <path d="M378.310804,537.029032 L378.310804,536.589907 C379.917091,535.424429 380.962277,533.529838 380.962277,531.389446 C380.962277,527.848825 378.104517,524.97932 374.578388,524.97932 C371.052259,524.97932 368.194499,527.848825 368.194499,531.389446 C368.194499,533.529838 369.239685,535.424429 370.845972,536.589907 L370.845972,536.968273 C366.852259,538.523163 364,542.549861 364,547.258721 C364,548.208779 364.95442,548.97932 366.13163,548.97932 L382.868368,548.97932 C384.045578,548.97932 385,548.208779 385,547.258721 C385.002748,542.61062 382.224753,538.628112 378.310804,537.029032 L378.310804,537.029032 Z" id="路径备份-2"></path>
            </g>
        </g>
    </g>
</svg>