<?xml version="1.0" encoding="UTF-8"?>
<svg width="21px" height="24px" viewBox="0 0 21 24" version="1.1" xmlns="http://www.w3.org/2000/svg" xmlns:xlink="http://www.w3.org/1999/xlink">
    <title>路径</title>
    <g id="事件信息、组织动态、辅助工具" stroke="none" stroke-width="1" fill="none" fill-rule="evenodd">
        <g id="雪碧图" transform="translate(-320.000000, -506.000000)" fill="#FFFFFF" fill-rule="nonzero">
            <g id="编组" transform="translate(0.000000, -18.979320)">
                <path d="M334.310804,537.029032 L334.310804,536.589907 C335.917091,535.424429 336.962277,533.529838 336.962277,531.389446 C336.962277,527.848825 334.104517,524.97932 330.578388,524.97932 C327.052259,524.97932 324.194499,527.848825 324.194499,531.389446 C324.194499,533.529838 325.239685,535.424429 326.845972,536.589907 L326.845972,536.968273 C322.852259,538.523163 320,542.549861 320,547.258721 C320,548.208779 320.95442,548.97932 322.13163,548.97932 L338.868368,548.97932 C340.045578,548.97932 341,548.208779 341,547.258721 C341.002748,542.61062 338.224753,538.628112 334.310804,537.029032 L334.310804,537.029032 Z" id="路径"></path>
            </g>
        </g>
    </g>
</svg>