<?xml version="1.0" encoding="UTF-8"?>
<svg width="25px" height="21px" viewBox="0 0 25 21" version="1.1" xmlns="http://www.w3.org/2000/svg" xmlns:xlink="http://www.w3.org/1999/xlink">
    <title>形状</title>
    <g id="工具面板" stroke="none" stroke-width="1" fill="none" fill-rule="evenodd">
        <g id="事件信息" transform="translate(-526.000000, -270.000000)" fill="#FFFFFF" fill-rule="nonzero">
            <g id="编组-9" transform="translate(430.000000, 132.000000)">
                <g id="Group-24备份" transform="translate(75.000000, 0.000000)">
                    <g id="编组备份-2" transform="translate(4.000000, 138.000000)">
                        <path d="M39.875,7.32875 L39.875,9.81375 C39.875,15.5437043 35.2299543,20.18875 29.5,20.18875 C23.7700457,20.18875 19.125,15.5437043 19.125,9.81375 L19.125,7.45375 C17.75,6.95375 17,6.33625 17,5.715 L17,2.485 C17.0823382,2.15240468 17.3127049,1.87596461 17.625,1.735 C19.25,0.75 24,0 29.5,0 C35.125,0 39.75,0.75 41.375,1.73875 C41.6872951,1.87971461 41.9176618,2.15615468 42,2.48875 L42,5.71875 C42,6.335 41.125,6.8325 39.875,7.32875 Z M25.75,13.665 C25.75,15.7360678 27.4289322,17.4149999 29.5,17.4149999 C31.5710678,17.4149999 33.25,15.7360678 33.25,13.665 L33.25,11.18 C33.25,9.10893219 31.5710678,7.43 29.5,7.43 C27.4289322,7.43 25.75,9.10893219 25.75,11.18 L25.75,13.66375 L25.75,13.665 Z M39.5,3.7275 C39.4772308,3.16337276 39.0580499,2.69441406 38.5,2.60875 C35.5326394,2.05833426 32.5175347,1.80707553 29.5,1.85875 C26.3117336,1.82454051 23.1283782,2.11774429 20,2.73375 C19.7368156,2.84206676 19.5479027,3.07820783 19.5,3.35875 L19.5,4.97375 C19.5040133,5.15324943 19.5953876,5.31949053 19.7447775,5.41908379 C19.8941674,5.51867704 20.0827647,5.53908369 20.25,5.47375 C23.3088416,4.98112748 26.4017513,4.73035101 29.5,4.72375 C32.5983462,4.82565967 35.6875017,5.11787709 38.75,5.59875 C39.1282176,5.62857292 39.4611309,5.35114518 39.5,4.97375 L39.5,3.72625 L39.5,3.7275 Z M28.25,11.51375 C29.0241873,11.0697304 29.9758127,11.0697304 30.75,11.51375 C31.72992,12.0795071 32.207672,13.2329023 31.9148146,14.3258611 C31.6219571,15.4188199 30.6315142,16.1788135 29.5,16.1788135 C28.3684858,16.1788135 27.3780429,15.4188199 27.0851854,14.3258611 C26.792328,13.2329023 27.27008,12.0795071 28.25,11.51375 L28.25,11.51375 Z" id="形状"></path>
                    </g>
                </g>
            </g>
        </g>
    </g>
</svg>