<?xml version="1.0" encoding="UTF-8"?>
<svg width="26px" height="23px" viewBox="0 0 26 23" version="1.1" xmlns="http://www.w3.org/2000/svg" xmlns:xlink="http://www.w3.org/1999/xlink">
    <title>形状</title>
    <g id="飞巡" stroke="none" stroke-width="1" fill="none" fill-rule="evenodd">
        <g id="雪碧图备份" transform="translate(-90.000000, -226.000000)" fill="#56E9FF" fill-rule="nonzero">
            <path d="M114.781232,241.437303 C114.616295,241.437303 114.459076,241.471022 114.315264,241.530334 L114.315264,241.529928 L114.309983,241.531959 L114.304701,241.533991 L102.999991,246.211956 L91.6956863,241.534397 C91.6939978,241.533546 91.6922286,241.532865 91.690405,241.532366 L91.6851238,241.530334 L91.6847176,241.530741 C91.0689148,241.297975 90.379563,241.596314 90.127741,242.204573 C89.875919,242.812832 90.1526555,243.511136 90.7527807,243.78177 L90.7527807,243.782176 L102.52346,248.652704 C102.525148,248.653555 102.526918,248.654236 102.528741,248.654735 L102.534022,248.656767 L102.534429,248.65636 C102.832411,248.780961 103.167869,248.781108 103.465959,248.656767 L103.466365,248.657173 L103.471647,248.655142 C103.473335,248.654291 103.475104,248.65361 103.476928,248.65311 L115.247201,243.782583 L115.247201,243.782176 C115.7845,243.559818 116.089873,242.98885 115.976536,242.41851 C115.863199,241.848169 115.362725,241.437303 114.781232,241.437303 Z M90.753187,233.219278 L90.753187,233.219684 L102.523866,238.090212 L102.529147,238.092243 L102.534429,238.094274 L102.534835,238.093868 C102.832616,238.218765 103.168069,238.218911 103.465959,238.094274 L103.466365,238.09468 L103.471647,238.092649 C103.473335,238.091798 103.475104,238.091118 103.476928,238.090618 L115.247201,233.22009 L115.247201,233.219684 C115.702615,233.030891 115.99964,232.586555 115.999982,232.09356 C115.999982,231.600612 115.702696,231.156312 115.247201,230.967842 L115.247201,230.967436 L103.476928,226.096908 C103.475239,226.096057 103.47347,226.095376 103.471647,226.094876 L103.466365,226.092845 L103.465959,226.093251 C103.167896,225.969057 102.8326,225.968911 102.534429,226.092845 L102.534022,226.092439 L102.528741,226.09447 C102.527053,226.095321 102.525283,226.096002 102.52346,226.096501 L90.7527807,230.967436 L90.7527807,230.967842 C90.2972852,231.156312 90,231.600612 90,232.09356 C90,232.586606 90.2975321,233.030934 90.753187,233.219278 Z M114.781232,236.156057 C114.616295,236.156057 114.459076,236.189776 114.315264,236.249088 L114.315264,236.248682 L114.309983,236.251119 C114.308294,236.25197 114.306525,236.252651 114.304701,236.253151 L102.999991,240.93071 L91.6956863,236.253151 C91.6939978,236.2523 91.6922286,236.251619 91.690405,236.251119 L91.6851238,236.248682 L91.6847176,236.249088 C91.0677765,236.012109 90.3743768,236.310025 90.121613,236.920668 C89.8688492,237.531312 90.1488379,238.232143 90.7527807,238.500524 L90.7527807,238.50093 L102.52346,243.371458 L102.528741,243.373489 L102.534022,243.37552 L102.534429,243.375114 C102.832411,243.499715 103.167869,243.499861 103.465959,243.37552 L103.466365,243.375927 L103.471647,243.373895 C103.473335,243.373044 103.475104,243.372364 103.476928,243.371864 L115.247201,238.501336 L115.247201,238.50093 C115.7845,238.278572 116.089873,237.707604 115.976536,237.137263 C115.863199,236.566923 115.362725,236.156057 114.781232,236.156057 Z" id="形状"></path>
        </g>
    </g>
</svg>