<?xml version="1.0" encoding="UTF-8"?>
<svg width="26px" height="23px" viewBox="0 0 26 23" version="1.1" xmlns="http://www.w3.org/2000/svg" xmlns:xlink="http://www.w3.org/1999/xlink">
    <title>形状1</title>
    <g id="飞巡" stroke="none" stroke-width="1" fill="none" fill-rule="evenodd">
        <g id="雪碧图备份" transform="translate(-34.000000, -226.000000)" fill="#FFFFFF" fill-rule="nonzero">
            <path d="M58.7812324,241.437303 C58.616295,241.437303 58.4590764,241.471022 58.315264,241.530334 L58.315264,241.529928 L58.3099827,241.531959 L58.3047015,241.533991 L46.9999908,246.211956 L35.6956863,241.534397 C35.6939978,241.533546 35.6922286,241.532865 35.690405,241.532366 L35.6851238,241.530334 L35.6847176,241.530741 C35.0689148,241.297975 34.379563,241.596314 34.127741,242.204573 C33.875919,242.812832 34.1526555,243.511136 34.7527807,243.78177 L34.7527807,243.782176 L46.5234599,248.652704 C46.5251484,248.653555 46.5269175,248.654236 46.5287411,248.654735 L46.5340224,248.656767 L46.5344286,248.65636 C46.8324107,248.780961 47.1678686,248.781108 47.4659592,248.656767 L47.4663654,248.657173 L47.4716467,248.655142 C47.4733352,248.654291 47.4751044,248.65361 47.4769279,248.65311 L59.2472008,243.782583 L59.2472008,243.782176 C59.7844999,243.559818 60.0898729,242.98885 59.976536,242.41851 C59.8631991,241.848169 59.3627249,241.437303 58.7812324,241.437303 Z M34.753187,233.219278 L34.753187,233.219684 L46.5238661,238.090212 L46.5291474,238.092243 L46.5344286,238.094274 L46.5348349,238.093868 C46.8326165,238.218765 47.1680687,238.218911 47.4659592,238.094274 L47.4663654,238.09468 L47.4716467,238.092649 C47.4733352,238.091798 47.4751044,238.091118 47.4769279,238.090618 L59.2472008,233.22009 L59.2472008,233.219684 C59.7026147,233.030891 59.9996403,232.586555 59.9999815,232.09356 C59.9999815,231.600612 59.7026963,231.156312 59.2472008,230.967842 L59.2472008,230.967436 L47.4769279,226.096908 C47.4752394,226.096057 47.4734703,226.095376 47.4716467,226.094876 L47.4663654,226.092845 L47.4659592,226.093251 C47.1678956,225.969057 46.8326004,225.968911 46.5344286,226.092845 L46.5340224,226.092439 L46.5287411,226.09447 C46.5270526,226.095321 46.5252834,226.096002 46.5234599,226.096501 L34.7527807,230.967436 L34.7527807,230.967842 C34.2972852,231.156312 34,231.600612 34,232.09356 C34,232.586606 34.2975321,233.030934 34.753187,233.219278 Z M58.7812324,236.156057 C58.616295,236.156057 58.4590764,236.189776 58.315264,236.249088 L58.315264,236.248682 L58.3099827,236.251119 C58.3082942,236.25197 58.3065251,236.252651 58.3047015,236.253151 L46.9999908,240.93071 L35.6956863,236.253151 C35.6939978,236.2523 35.6922286,236.251619 35.690405,236.251119 L35.6851238,236.248682 L35.6847176,236.249088 C35.0677765,236.012109 34.3743768,236.310025 34.121613,236.920668 C33.8688492,237.531312 34.1488379,238.232143 34.7527807,238.500524 L34.7527807,238.50093 L46.5234599,243.371458 L46.5287411,243.373489 L46.5340224,243.37552 L46.5344286,243.375114 C46.8324107,243.499715 47.1678686,243.499861 47.4659592,243.37552 L47.4663654,243.375927 L47.4716467,243.373895 C47.4733352,243.373044 47.4751044,243.372364 47.4769279,243.371864 L59.2472008,238.501336 L59.2472008,238.50093 C59.7844999,238.278572 60.0898729,237.707604 59.976536,237.137263 C59.8631991,236.566923 59.3627249,236.156057 58.7812324,236.156057 Z" id="形状1"></path>
        </g>
    </g>
</svg>