<?xml version="1.0" encoding="UTF-8"?>
<svg width="21px" height="22px" viewBox="0 0 21 22" version="1.1" xmlns="http://www.w3.org/2000/svg" xmlns:xlink="http://www.w3.org/1999/xlink">
    <title>形状结合备份 2</title>
    <g id="事件信息、组织动态、辅助工具" stroke="none" stroke-width="1" fill="none" fill-rule="evenodd">
        <g id="雪碧图" transform="translate(-364.000000, -360.000000)" fill="#56E9FF" fill-rule="nonzero">
            <g id="编组" transform="translate(0.000000, -18.979320)">
                <path d="M375.427267,389.428844 L384.609304,398.709498 C384.944463,399.043578 385.076815,399.533563 384.956114,399.993437 C384.835414,400.45331 384.48017,400.812555 384.025245,400.934788 C383.57032,401.057021 383.085474,400.9235 382.754771,400.584913 L374.5,392.241484 L366.245229,400.584913 C365.914526,400.9235 365.42968,401.057021 364.974755,400.934788 C364.51983,400.812555 364.164586,400.45331 364.043886,399.993437 C363.923185,399.533563 364.055537,399.043578 364.390696,398.709498 L373.572733,389.428844 C374.084932,388.911433 374.915068,388.911433 375.427267,389.428844 Z M375.427267,379.367378 L384.609304,388.648032 C384.944463,388.982112 385.076815,389.472097 384.956114,389.931971 C384.835414,390.391845 384.48017,390.751089 384.025245,390.873322 C383.57032,390.995556 383.085474,390.862034 382.754771,390.523447 L374.5,382.180019 L366.245229,390.523447 C365.914526,390.862034 365.42968,390.995556 364.974755,390.873322 C364.51983,390.751089 364.164586,390.391845 364.043886,389.931971 C363.923185,389.472097 364.055537,388.982112 364.390696,388.648032 L373.572733,379.367378 C374.084932,378.849967 374.915068,378.849967 375.427267,379.367378 Z" id="形状结合备份-2"></path>
            </g>
        </g>
    </g>
</svg>