<?xml version="1.0" encoding="UTF-8"?>
<svg width="21px" height="22px" viewBox="0 0 21 22" version="1.1" xmlns="http://www.w3.org/2000/svg" xmlns:xlink="http://www.w3.org/1999/xlink">
    <title>形状结合</title>
    <g id="事件信息、组织动态、辅助工具" stroke="none" stroke-width="1" fill="none" fill-rule="evenodd">
        <g id="雪碧图" transform="translate(-320.000000, -360.000000)" fill="#FFFFFF" fill-rule="nonzero">
            <g id="编组" transform="translate(0.000000, -18.979320)">
                <path d="M331.427267,389.428844 L340.609304,398.709498 C340.944463,399.043578 341.076815,399.533563 340.956114,399.993437 C340.835414,400.45331 340.48017,400.812555 340.025245,400.934788 C339.57032,401.057021 339.085474,400.9235 338.754771,400.584913 L330.5,392.241484 L322.245229,400.584913 C321.914526,400.9235 321.42968,401.057021 320.974755,400.934788 C320.51983,400.812555 320.164586,400.45331 320.043886,399.993437 C319.923185,399.533563 320.055537,399.043578 320.390696,398.709498 L329.572733,389.428844 C330.084932,388.911433 330.915068,388.911433 331.427267,389.428844 Z M331.427267,379.367378 L340.609304,388.648032 C340.944463,388.982112 341.076815,389.472097 340.956114,389.931971 C340.835414,390.391845 340.48017,390.751089 340.025245,390.873322 C339.57032,390.995556 339.085474,390.862034 338.754771,390.523447 L330.5,382.180019 L322.245229,390.523447 C321.914526,390.862034 321.42968,390.995556 320.974755,390.873322 C320.51983,390.751089 320.164586,390.391845 320.043886,389.931971 C319.923185,389.472097 320.055537,388.982112 320.390696,388.648032 L329.572733,379.367378 C330.084932,378.849967 330.915068,378.849967 331.427267,379.367378 Z" id="形状结合"></path>
            </g>
        </g>
    </g>
</svg>