<?xml version="1.0" encoding="UTF-8"?>
<svg width="22px" height="22px" viewBox="0 0 22 22" version="1.1" xmlns="http://www.w3.org/2000/svg" xmlns:xlink="http://www.w3.org/1999/xlink">
    <title>形状</title>
    <g id="事件信息、组织动态、辅助工具" stroke="none" stroke-width="1" fill="none" fill-rule="evenodd">
        <g id="事件信息" transform="translate(-593.000000, -143.000000)" fill="#FFFFFF" fill-rule="nonzero">
            <g id="Group-24" transform="translate(430.000000, 132.000000)">
                <path d="M184.818868,12.7861805 C184.757294,14.8133494 184.320115,16.7618397 183.588747,18.6501239 C182.715074,20.9092233 181.436377,22.8960266 179.643875,24.538697 C179.498149,24.6727926 179.452994,24.8144139 179.472151,25.0025581 C179.535094,25.6114614 179.584353,26.2203646 179.646612,26.8265312 C179.792338,28.2441126 179.296321,29.4051338 178.153773,30.226811 C176.927756,31.1100628 175.654533,31.9255826 174.388835,32.752049 C173.591788,33.2720113 172.612753,32.798572 172.523128,31.8537457 C172.424751,30.7676471 172.338997,29.680442 172.265884,28.5923506 C172.228255,28.0484426 172.243306,28.0429693 171.715818,27.9738691 C170.316709,27.7891456 169.220683,27.1248254 168.469475,25.920018 C168.08224,25.299484 167.890674,24.6132706 167.823627,23.8907966 C167.803102,23.6752859 167.716213,23.620553 167.512334,23.6096065 C166.379363,23.5466637 165.247761,23.4803001 164.117527,23.3954641 C163.176806,23.3243114 162.699945,22.3315939 163.204172,21.5044433 C163.558567,20.9229065 163.934856,20.3543688 164.300882,19.7796736 C164.694275,19.1611921 165.085615,18.539974 165.480376,17.9221766 C166.203534,16.7905745 167.245511,16.1796187 168.578256,16.167988 C169.342464,16.1625147 170.106672,16.2966103 170.870195,16.3787096 C171.014553,16.3937611 171.117177,16.3746046 171.215697,16.2630864 C172.987673,14.2831246 175.181093,12.9469583 177.663229,12.05276 C179.059932,11.5479063 180.513176,11.2159004 181.990547,11.0641475 C182.737651,10.9875214 183.48886,10.9587867 184.235279,11.0969872 C184.640987,11.1722449 184.66288,11.1893489 184.725138,11.5861623 C184.788765,11.9829756 184.838709,12.3818414 184.818868,12.7861805 Z M180.544915,17.783292 C180.559967,16.4471257 179.453678,15.2977353 178.138037,15.2758421 C176.772452,15.2532648 175.588169,16.2466665 175.556014,17.7983435 C175.529331,19.0920918 176.700615,20.2633754 178.008046,20.2729536 C178.674803,20.2798812 179.316934,20.0213126 179.792835,19.5542674 C180.268736,19.0872223 180.539319,18.4500614 180.544915,17.783292 L180.544915,17.783292 Z M165.853243,25.4123705 C166.187798,25.4164755 166.37389,25.5642543 166.493618,25.9077031 C166.965005,27.2493427 167.821574,28.2673741 169.064695,28.9570083 C169.339043,29.1088921 169.627075,29.2327252 169.926053,29.3346652 C170.46312,29.5180203 170.585584,30.0400351 170.186719,30.4430059 C169.596972,31.0382259 169.001068,31.6266043 168.411321,32.2238768 C168.216335,32.420231 168.001509,32.5119085 167.72716,32.4113369 C167.448707,32.3073444 167.313927,32.1007278 167.300244,31.8120119 C167.290665,31.629341 167.295454,31.4459858 167.29135,31.2626307 C167.283824,30.9253393 167.280403,30.9226027 166.970478,31.025911 C166.30821,31.2441583 165.645258,31.467879 164.983675,31.6861263 C164.787321,31.7511216 164.59165,31.778488 164.40077,31.6703906 C164.121632,31.5102969 164.015587,31.2270543 164.127789,30.8774481 C164.348089,30.1967079 164.579336,29.5200728 164.804425,28.840701 C164.90226,28.5458276 164.896102,28.5396702 164.577283,28.5355652 C164.385718,28.5328286 164.193469,28.5355652 164.001904,28.5246186 C163.72345,28.5109354 163.523675,28.377524 163.420367,28.1120696 C163.319795,27.8541409 163.383422,27.6317886 163.572251,27.4415919 C164.187311,26.8231104 164.805793,26.2046289 165.42359,25.5888841 C165.546739,25.4664193 165.692465,25.397319 165.853243,25.4123705 Z" id="形状"></path>
            </g>
        </g>
    </g>
</svg>