<?xml version="1.0" encoding="UTF-8"?>
<svg width="22px" height="25px" viewBox="0 0 22 25" version="1.1" xmlns="http://www.w3.org/2000/svg" xmlns:xlink="http://www.w3.org/1999/xlink">
    <title>路径</title>
    <g id="工具面板" stroke="none" stroke-width="1" fill="none" fill-rule="evenodd">
        <g id="事件信息" transform="translate(-528.000000, -330.000000)" fill="#FFFFFF" fill-rule="nonzero">
            <g id="编组-9" transform="translate(430.000000, 132.000000)">
                <g id="Group-24备份" transform="translate(75.000000, 0.000000)">
                    <g id="编组备份-3" transform="translate(4.000000, 198.000000)">
                        <path d="M33.5228657,12.178217 L33.5228657,11.7344085 C35.1529548,10.5565016 36.2136292,8.64170521 36.2136292,6.47848765 C36.2136292,2.90010713 33.3135221,0 29.7351415,0 C26.156761,0 23.2566539,2.90010713 23.2566539,6.47848765 C23.2566539,8.64170521 24.3173283,10.5565016 25.9474174,11.7344085 L25.9474174,12.1168095 C21.8945246,13.6882824 19,17.7579226 19,22.5170013 C19,23.4771907 19.9685632,24.255949 21.1632176,24.255949 L38.1479644,24.255949 C39.3426187,24.255949 40.311184,23.4771907 40.311184,22.5170013 C40.3139732,17.8193301 37.4948123,13.7943498 33.5228657,12.178217 L33.5228657,12.178217 Z" id="路径"></path>
                    </g>
                </g>
            </g>
        </g>
    </g>
</svg>