<?xml version="1.0" encoding="UTF-8"?>
<svg width="22px" height="22px" viewBox="0 0 22 22" version="1.1" xmlns="http://www.w3.org/2000/svg" xmlns:xlink="http://www.w3.org/1999/xlink">
    <title>形状</title>
    <g id="工具面板" stroke="none" stroke-width="1" fill="none" fill-rule="evenodd">
        <g id="事件信息" transform="translate(-453.000000, -143.000000)" fill="#56E9FF" fill-rule="nonzero">
            <g id="Group-24" transform="translate(430.000000, 132.000000)">
                <path d="M44.8188685,12.7861805 C44.757294,14.8133494 44.3201151,16.7618397 43.5887471,18.6501239 C42.7150736,20.9092233 41.4363768,22.8960266 39.6438752,24.538697 C39.4981489,24.6727926 39.4529943,24.8144139 39.4721508,25.0025581 C39.5350936,25.6114614 39.5843532,26.2203646 39.6466118,26.8265312 C39.7923381,28.2441126 39.2963214,29.4051338 38.1537727,30.226811 C36.9277563,31.1100628 35.6545328,31.9255826 34.388835,32.752049 C33.5917876,33.2720113 32.6127533,32.798572 32.5231282,31.8537457 C32.4247505,30.7676471 32.3389966,29.680442 32.2658837,28.5923506 C32.2282548,28.0484426 32.2433064,28.0429693 31.7158183,27.9738691 C30.3167092,27.7891456 29.2206833,27.1248254 28.4694746,25.920018 C28.0822395,25.299484 27.8906745,24.6132706 27.8236267,23.8907966 C27.8031019,23.6752859 27.7162134,23.620553 27.5123335,23.6096065 C26.379363,23.5466637 25.2477608,23.4803001 24.117527,23.3954641 C23.1768057,23.3243114 22.6999455,22.3315939 23.2041721,21.5044433 C23.5585675,20.9229065 23.934856,20.3543688 24.3008821,19.7796736 C24.6942746,19.1611921 25.0856147,18.539974 25.4803755,17.9221766 C26.2035336,16.7905745 27.2455107,16.1796187 28.5782562,16.167988 C29.342464,16.1625147 30.1066717,16.2966103 30.8701954,16.3787096 C31.0145533,16.3937611 31.1171775,16.3746046 31.2156966,16.2630864 C32.9876735,14.2831246 35.1810934,12.9469583 37.6632293,12.05276 C39.0599318,11.5479063 40.5131757,11.2159004 41.9905472,11.0641475 C42.7376509,10.9875214 43.4888596,10.9587867 44.2352792,11.0969872 C44.6409866,11.1722449 44.6628798,11.1893489 44.7251384,11.5861623 C44.7887654,11.9829756 44.8387091,12.3818414 44.8188685,12.7861805 Z M40.5449151,17.783292 C40.5599667,16.4471257 39.4536784,15.2977353 38.138037,15.2758421 C36.7724517,15.2532648 35.5881692,16.2466665 35.5560136,17.7983435 C35.5293313,19.0920918 36.7006148,20.2633754 38.0080464,20.2729536 C38.6748033,20.2798812 39.3169338,20.0213126 39.7928347,19.5542674 C40.2687356,19.0872223 40.5393188,18.4500614 40.5449151,17.783292 L40.5449151,17.783292 Z M25.8532432,25.4123705 C26.1877979,25.4164755 26.3738897,25.5642543 26.4936179,25.9077031 C26.9650047,27.2493427 27.8215742,28.2673741 29.0646947,28.9570083 C29.3390432,29.1088921 29.6270749,29.2327252 29.9260533,29.3346652 C30.4631196,29.5180203 30.5855844,30.0400351 30.1867186,30.4430059 C29.5969719,31.0382259 29.0010677,31.6266043 28.411321,32.2238768 C28.2163351,32.420231 28.0015086,32.5119085 27.72716,32.4113369 C27.4487065,32.3073444 27.3139268,32.1007278 27.3002436,31.8120119 C27.2906654,31.629341 27.2954545,31.4459858 27.2913495,31.2626307 C27.2838238,30.9253393 27.280403,30.9226027 26.970478,31.025911 C26.3082103,31.2441583 25.6452583,31.467879 24.9836747,31.6861263 C24.7873205,31.7511216 24.5916505,31.778488 24.4007696,31.6703906 C24.1216319,31.5102969 24.015587,31.2270543 24.1277894,30.8774481 C24.3480892,30.1967079 24.5793356,29.5200728 24.8044245,28.840701 C24.9022595,28.5458276 24.8961021,28.5396702 24.5772831,28.5355652 C24.385718,28.5328286 24.1934688,28.5355652 24.0019038,28.5246186 C23.7234503,28.5109354 23.5236753,28.377524 23.4203669,28.1120696 C23.3197953,27.8541409 23.3834223,27.6317886 23.5722507,27.4415919 C24.1873114,26.8231104 24.8057928,26.2046289 25.4235902,25.5888841 C25.5467391,25.4664193 25.6924654,25.397319 25.8532432,25.4123705 Z" id="形状"></path>
            </g>
        </g>
    </g>
</svg>