<?xml version="1.0" encoding="UTF-8"?>
<svg width="27px" height="28px" viewBox="0 0 27 28" version="1.1" xmlns="http://www.w3.org/2000/svg" xmlns:xlink="http://www.w3.org/1999/xlink">
    <title>路径</title>
    <g id="工具面板" stroke="none" stroke-width="1" fill="none" fill-rule="evenodd">
        <g id="事件信息" transform="translate(-522.000000, -459.000000)" fill="#FFFFFF" fill-rule="nonzero">
            <g id="编组-9" transform="translate(430.000000, 132.000000)">
                <g id="Group-24备份" transform="translate(75.000000, 0.000000)">
                    <g id="编组备份-5" transform="translate(4.000000, 327.000000)">
                        <path d="M39.3447505,23.7737092 C39.0983529,22.63412 38.1523618,21.8721939 36.975373,21.8648606 C36.6534427,21.8626606 36.3307791,21.8648606 36.0081155,21.8648606 C37.3368847,21.2989187 38.1989057,19.9937623 38.1978281,18.549492 C38.2007614,16.5614442 36.5969765,14.9451928 34.6177286,14.9429928 C32.6428807,14.9400595 31.0295626,16.5570442 31.025896,18.5421587 C31.0225474,19.9886417 31.8861654,21.2963483 33.2178085,21.861194 C32.8716785,21.8604607 32.5262818,21.861194 32.1801517,21.8692606 C31.0632956,21.894927 30.1393044,22.63632 29.8995066,23.723843 C29.823974,24.0677731 29.8423072,24.3809035 29.8269073,24.7373001 C29.8173741,24.959498 29.8247073,25.3620942 29.8247073,25.3620942 L29.6186426,25.3620942 C29.6186426,24.8641655 29.6215759,24.6471009 29.6179093,24.2701712 C29.6047094,22.8570512 28.5677859,21.8435942 27.1641992,21.8399275 C26.8642687,21.8391942 26.5643382,21.8428608 26.2651411,21.8435942 C27.5721064,21.2690992 28.4159618,19.9764151 28.4159874,18.5487587 C28.4167207,16.5621775 26.8085359,14.9444595 24.8322213,14.9422595 C22.8537067,14.9407929 21.2499219,16.5511776 21.2455219,18.5428921 C21.2400577,19.9822447 22.0947179,21.2857385 23.4169014,21.854594 C23.1103709,21.856794 22.8038405,21.8553274 22.4965767,21.8582607 C22.2149794,21.8604607 21.9201822,21.9095935 21.6539847,22.000526 C20.6691274,22.3356562 20.0545999,23.2259144 20.0421333,24.2841044 C20.0377334,24.6727674 20.0414,25.062897 20.0414,25.4405601 L20.0655998,25.7866901 C17.1975603,25.3532942 14.9895145,22.8753844 14.9895145,19.8834127 L14.9895145,18.8875555 C14.9895145,15.6279197 17.6089564,12.9732781 20.850259,12.9153454 C27.2250653,12.919012 32.7389464,12.9102121 39.1746188,12.9102121 L39.3931501,12.9102121 C39.3960834,12.9102121 39.3990167,12.8339461 39.3990167,12.8024131 C39.3990167,11.6400908 39.4012167,10.4829017 39.3968167,9.32057941 C39.3960951,9.15615402 39.3784014,8.99224235 39.3440172,8.8314507 C39.0976195,7.6918615 38.1516285,6.92993538 36.9746396,6.92260211 C36.6527094,6.92040213 36.3300457,6.92260211 36.0073821,6.92260211 C37.3361514,6.35666018 38.1981723,5.05150383 38.1970947,3.60723351 C38.200028,1.61918567 36.5962432,0.00293430657 34.6169953,0.000734327405 C32.6421473,-0.00219897815 31.0288293,1.61478571 31.0251626,3.59990024 C31.0218141,5.04638318 31.8854321,6.3540898 33.2170752,6.91893548 C32.8709452,6.91820216 32.5255484,6.91893548 32.1794184,6.92700207 C31.0625623,6.9526685 30.138571,7.69406147 29.8987733,8.78158451 C29.8232407,9.12551459 29.8415739,9.43937828 29.826174,9.79504158 C29.8166408,10.0172395 29.823974,10.4198357 29.823974,10.4198357 L29.6179093,10.4198357 C29.6179093,9.92190704 29.6208426,9.70557576 29.617176,9.32791267 C29.6039761,7.91479272 28.5670526,6.90133565 27.1634659,6.89766902 C26.8635354,6.89693569 26.5636049,6.90133565 26.2644077,6.90133565 C27.5713731,6.32684065 28.4152285,5.03415661 28.415254,3.60650018 C28.4159874,1.61991899 26.8078026,0.00220098018 24.831488,0 C22.8529734,-0.00146565176 21.2491886,1.6089191 21.2447886,3.59990024 C21.2393244,5.03925285 22.0939845,6.34274671 23.416168,6.91160222 C23.1096376,6.9138022 22.8031072,6.91306887 22.4958434,6.91526885 C22.2142461,6.91746883 21.9194489,6.9666017 21.6532514,7.05753417 C20.6683941,7.39266433 20.0538665,8.28292257 20.0414,9.34111254 C20.037,9.72977553 20.0406667,10.1199052 20.0406667,10.4975683 L20.0736663,10.9698305 C16.1012373,11.4112929 13,14.7926609 13,18.8875555 L13,19.8834127 C13,23.941641 16.0462378,27.2951425 19.967334,27.7850046 L19.9629341,27.8524706 L19.9629341,27.8576039 C26.9244015,27.8620038 32.5218818,27.8524706 39.1753521,27.8524706 L39.3938834,27.8524706 C39.3968167,27.8524706 39.39975,27.7762046 39.39975,27.7446716 C39.39975,26.5823493 39.40195,25.4251602 39.39755,24.2621046 C39.396825,24.0979218 39.3791311,23.9342536 39.3447505,23.7737092 L39.3447505,23.7737092 Z" id="路径"></path>
                    </g>
                </g>
            </g>
        </g>
    </g>
</svg>