<?xml version="1.0" encoding="UTF-8"?>
<svg width="18px" height="20px" viewBox="0 0 18 20" version="1.1" xmlns="http://www.w3.org/2000/svg" xmlns:xlink="http://www.w3.org/1999/xlink">
    <title>形状</title>
    <g id="事件信息、组织动态、辅助工具" stroke="none" stroke-width="1" fill="none" fill-rule="evenodd">
        <g id="事件信息" transform="translate(-603.000000, -895.000000)" fill="#56E9FF" fill-rule="nonzero">
            <g id="编组-9" transform="translate(430.000000, 132.000000)">
                <g id="Group-24备份-13" transform="translate(0.000000, 750.000000)">
                    <path d="M178.996855,16.0173001 L185.003145,16.0173001 C185.833552,16.0173001 186.508257,15.342595 186.508257,14.5121887 L186.508257,14.5051114 C186.508257,13.6747051 185.833552,13 185.003145,13 L178.996855,13 C178.166448,13 177.491743,13.6747051 177.491743,14.5051114 L177.491743,14.5121887 C177.491743,15.342595 178.166448,16.0173001 178.996855,16.0173001 L178.996855,16.0173001 Z M188.584273,14.4885976 L187.508519,14.4885976 L187.508519,14.5074705 C187.508519,15.8922674 186.385583,17.0175623 184.998427,17.0175623 L179.001573,17.0175623 C177.616776,17.0175623 176.491481,15.8946265 176.491481,14.5074705 L176.491481,14.4885976 L175.415727,14.4885976 C174.082831,14.4885976 173,15.5690695 173,16.904325 L173,30.110616 C173,31.4435125 174.080472,32.5263434 175.415727,32.5263434 L188.584273,32.5263434 C189.917169,32.5263434 191,31.4458716 191,30.110616 L191,16.904325 C190.997641,15.5690695 189.917169,14.4885976 188.584273,14.4885976 Z M186.225164,26.7889908 L177.774836,26.7889908 C177.442202,26.7889908 177.170904,26.5176933 177.170904,26.185059 C177.170904,25.8524246 177.442202,25.5811271 177.774836,25.5811271 L186.225164,25.5811271 C186.557798,25.5811271 186.829096,25.8524246 186.829096,26.185059 C186.829096,26.5176933 186.560157,26.7889908 186.225164,26.7889908 Z M186.26055,21.9598952 L177.73945,21.9598952 C177.425688,21.9598952 177.170904,21.6885976 177.170904,21.3559633 C177.170904,21.023329 177.425688,20.7520315 177.73945,20.7520315 L186.26291,20.7520315 C186.576671,20.7520315 186.831455,21.023329 186.831455,21.3559633 C186.829096,21.6885976 186.574312,21.9598952 186.26055,21.9598952 L186.26055,21.9598952 Z" id="形状"></path>
                </g>
            </g>
        </g>
    </g>
</svg>