<?xml version="1.0" encoding="UTF-8"?>
<svg width="18px" height="20px" viewBox="0 0 18 20" version="1.1" xmlns="http://www.w3.org/2000/svg" xmlns:xlink="http://www.w3.org/1999/xlink">
    <title>形状</title>
    <g id="事件信息、组织动态、辅助工具" stroke="none" stroke-width="1" fill="none" fill-rule="evenodd">
        <g id="事件信息" transform="translate(-453.000000, -895.000000)" fill="#FFFFFF" fill-rule="nonzero">
            <g id="编组-9" transform="translate(430.000000, 132.000000)">
                <g id="Group-24备份-13" transform="translate(0.000000, 750.000000)">
                    <path d="M28.9968545,16.0173001 L35.0031455,16.0173001 C35.8335518,16.0173001 36.5082569,15.342595 36.5082569,14.5121887 L36.5082569,14.5051114 C36.5082569,13.6747051 35.8335518,13 35.0031455,13 L28.9968545,13 C28.1664482,13 27.4917431,13.6747051 27.4917431,14.5051114 L27.4917431,14.5121887 C27.4917431,15.342595 28.1664482,16.0173001 28.9968545,16.0173001 L28.9968545,16.0173001 Z M38.5842726,14.4885976 L37.508519,14.4885976 L37.508519,14.5074705 C37.508519,15.8922674 36.3855832,17.0175623 34.9984273,17.0175623 L29.0015727,17.0175623 C27.6167759,17.0175623 26.491481,15.8946265 26.491481,14.5074705 L26.491481,14.4885976 L25.4157274,14.4885976 C24.0828309,14.4885976 23,15.5690695 23,16.904325 L23,30.110616 C23,31.4435125 24.0804718,32.5263434 25.4157274,32.5263434 L38.5842726,32.5263434 C39.9171691,32.5263434 41,31.4458716 41,30.110616 L41,16.904325 C40.9976409,15.5690695 39.9171691,14.4885976 38.5842726,14.4885976 Z M36.2251638,26.7889908 L27.7748362,26.7889908 C27.4422018,26.7889908 27.1709043,26.5176933 27.1709043,26.185059 C27.1709043,25.8524246 27.4422018,25.5811271 27.7748362,25.5811271 L36.2251638,25.5811271 C36.5577982,25.5811271 36.8290957,25.8524246 36.8290957,26.185059 C36.8290957,26.5176933 36.5601573,26.7889908 36.2251638,26.7889908 Z M36.2605505,21.9598952 L27.7394495,21.9598952 C27.4256881,21.9598952 27.1709043,21.6885976 27.1709043,21.3559633 C27.1709043,21.023329 27.4256881,20.7520315 27.7394495,20.7520315 L36.2629096,20.7520315 C36.576671,20.7520315 36.8314548,21.023329 36.8314548,21.3559633 C36.8290957,21.6885976 36.5743119,21.9598952 36.2605505,21.9598952 L36.2605505,21.9598952 Z" id="形状"></path>
                </g>
            </g>
        </g>
    </g>
</svg>