<?xml version="1.0" encoding="UTF-8"?>
<svg width="30px" height="30px" viewBox="0 0 30 30" version="1.1" xmlns="http://www.w3.org/2000/svg" xmlns:xlink="http://www.w3.org/1999/xlink">
    <title>切图</title>
    <g id="页面-1" stroke="none" stroke-width="1" fill="none" fill-rule="evenodd">
        <g id="切图" transform="translate(-96.000000, -60.000000)" fill="#666" fill-rule="nonzero">
            <g id="编组-7备份" transform="translate(96.000000, 60.000000)">
                <path d="M24.8790308,16.9193035 L21.7707683,16.9193035 L18.6625964,11.5732044 C19.4085118,11.2002769 19.9058893,10.3300323 19.9058893,9.45972726 L19.9058893,4.48661602 C19.9058893,3.11887302 18.7868351,2 17.4193035,2 L12.4462225,2 C11.0786909,2 9.95975746,3.11893342 9.95975746,4.48661602 L9.95975746,9.45969706 C9.95975746,10.3300021 10.4570444,11.0758872 11.2029296,11.5731742 L8.09475769,16.9193035 L4.98661602,16.9193035 C3.61887302,16.9193035 2.5,18.0382369 2.5,19.4058893 L2.5,24.3789704 C2.5,25.746502 3.61893342,26.8654354 4.98661602,26.8654354 L9.95969706,26.8654354 C11.3271985,26.8654354 12.4461621,25.746502 12.4461621,24.3789704 L12.4461621,22.7626594 L17.4192431,22.7626594 L17.4192431,24.3789704 C17.4192431,25.746502 18.5381765,26.8654354 19.9058289,26.8654354 L24.87891,26.8654354 C26.2464416,26.8654354 27.365375,25.746502 27.365375,24.3789704 L27.365375,19.4058893 C27.365375,18.0382067 26.2464416,16.9193035 24.87891,16.9193035 L24.87891,16.9193035 L24.8790308,16.9193035 Z M12.4462225,20.8978408 L12.4462225,19.4058591 C12.4462225,18.1625662 11.4515278,17.0436328 10.2083858,16.9192733 L13.0678689,11.9461923 L16.6734184,11.9461923 L19.5329015,16.9192733 C18.2896086,17.0436026 17.295095,18.0382067 17.295095,19.4058591 L17.295095,20.8978408 L12.4462527,20.8978408 L12.4462225,20.8978408 Z" id="形状"></path>
            </g>
        </g>
    </g>
</svg>