<?xml version="1.0" encoding="UTF-8"?>
<svg width="30px" height="30px" viewBox="0 0 30 30" version="1.1" xmlns="http://www.w3.org/2000/svg" xmlns:xlink="http://www.w3.org/1999/xlink">
    <title>切图</title>
    <g id="页面-1" stroke="none" stroke-width="1" fill="none" fill-rule="evenodd">
        <g id="切图" transform="translate(-366.000000, -559.000000)" fill="#56E9FF" fill-rule="nonzero">
            <g id="编组" transform="translate(366.000000, 479.000000)">
                <path d="M23.8509934,85.8462334 L20.4243067,85.8462334 C20.423453,85.8462334 20.4228839,85.8453798 20.4228839,85.8448106 L20.4228839,84.9342146 C20.4225993,84.4308257 20.0145385,84.0230495 19.5114342,84.0227649 C19.0077608,84.0224803 18.5988462,84.4305412 18.5985617,84.9342146 L18.5985617,85.8448106 C18.5985617,85.8456643 18.597708,85.8462334 18.5971389,85.8462334 L11.3021264,85.8462334 C11.3012728,85.8462334 11.3007036,85.8453798 11.3007036,85.8448106 L11.3007036,84.9342146 C11.3007036,84.3864342 10.8178032,83.95134 10.2546565,84.0315863 C9.80135037,84.0961817 9.47638142,84.5059499 9.47638142,84.9640935 L9.47638142,85.8450952 C9.47638142,85.8459489 9.47552773,85.846518 9.47495861,85.846518 L6.04798738,85.846518 C5.03950228,85.846518 4.00313017,86.8828901 4.00313017,87.8913752 L4.00313017,103.870059 C4.00313017,104.878544 5.03950228,105.914916 6.04798738,105.914916 L23.8509934,105.914916 C24.8594785,105.914916 25.8958506,104.878544 25.8958506,103.870059 L25.8958506,87.8908061 C25.8958506,86.882321 24.8594785,85.8462334 23.8509934,85.8462334 Z M19.7877432,96.4805722 L14.6275093,101.640806 C14.2732305,101.997077 13.6975631,101.998784 13.3412924,101.644505 L13.3375931,101.640806 L10.1331488,98.4363618 C9.80931809,98.112531 9.74927566,97.5932067 10.0241618,97.2269764 C10.3656353,96.771963 11.0147196,96.7381002 11.4020075,97.125388 L13.9807016,99.7040822 C13.9809861,99.7043667 13.9815553,99.7043667 13.9818398,99.7043667 C13.9824089,99.7043667 13.9826935,99.7043667 13.9829781,99.7040822 L18.4972579,95.1898024 C18.8535286,94.8335317 19.4311879,94.8338162 19.787174,95.1900869 L19.7885969,95.1915097 C20.1440139,95.5474959 20.1437293,96.1245861 19.7877432,96.4805722 L19.7877432,96.4805722 Z M24.0715284,91.3143626 C24.0715284,91.3169236 24.0692519,91.3192001 24.0666908,91.3192001 L5.83228994,91.3192001 C5.8311517,91.3192001 5.82972889,91.318631 5.82887521,91.3177773 C5.82800346,91.3168487 5.8274524,91.3156355 5.8274524,91.3143626 L5.8274524,87.6753932 C5.8274524,87.6725476 5.82972889,87.6705557 5.83228994,87.6705557 L9.47125931,87.6705557 C9.47410493,87.6705557 9.47609685,87.6728322 9.47609685,87.6753932 L9.47609685,88.5825745 C9.47609685,89.105029 9.91517488,89.5250414 10.4447434,89.4931705 C10.9321968,89.4638607 11.3004191,89.0353115 11.3004191,88.5470043 L11.3004191,87.6753932 C11.3004191,87.6725476 11.3026956,87.6705557 11.3052566,87.6705557 L18.593155,87.6705557 C18.5960006,87.6705557 18.5979925,87.6728322 18.5979925,87.6753932 L18.5979925,88.5825745 C18.5982771,89.0859634 19.006338,89.4937397 19.5094423,89.4940242 C20.0131157,89.4943088 20.4220302,89.0862479 20.4223148,88.5825745 L20.4223148,87.6753932 C20.4223148,87.6725476 20.4245913,87.6705557 20.4271523,87.6705557 L24.0661217,87.6705557 C24.0686827,87.6705557 24.0709592,87.6728322 24.0709592,87.6753932 L24.0709592,91.3143626 L24.0715284,91.3143626 Z" id="形状"></path>
            </g>
        </g>
    </g>
</svg>