<?xml version="1.0" encoding="UTF-8"?>
<svg width="30px" height="30px" viewBox="0 0 30 30" version="1.1" xmlns="http://www.w3.org/2000/svg" xmlns:xlink="http://www.w3.org/1999/xlink">
    <title>切图</title>
    <g id="页面-1" stroke="none" stroke-width="1" fill="none" fill-rule="evenodd">
        <g id="切图" transform="translate(-179.000000, -60.000000)" fill="#FFFFFF" fill-rule="nonzero">
            <g id="编组-9备份" transform="translate(179.000000, 60.000000)">
                <path d="M21.8047864,4 C24.3115909,4 26.34375,6.03215907 26.34375,8.5389636 L26.34375,21.3047864 C26.34375,23.8115909 24.3115909,25.84375 21.8047864,25.84375 L9.0389636,25.84375 C6.53215907,25.84375 4.5,23.8115909 4.5,21.3047864 L4.5,8.5389636 C4.5,6.03215907 6.53215907,4 9.0389636,4 L21.8047864,4 Z M10.741075,15.5176226 C9.42500134,15.5176226 8.3581092,16.5844901 8.3581092,17.9005637 C8.3581092,19.2166373 9.42500134,20.2835295 10.741075,20.2835295 C12.0571239,20.2835295 13.124016,19.2166373 13.124016,17.9005637 C13.124016,16.5845147 12.0571486,15.5176226 10.741075,15.5176226 Z M10.741075,16.6523635 C11.4304351,16.6523635 11.9892751,17.2112035 11.9892751,17.9005637 C11.9892751,18.5899485 11.4304351,19.1487886 10.741075,19.1487886 C10.0516901,19.1487886 9.4928501,18.5899485 9.4928501,17.9005637 C9.4928501,17.2112035 10.0516901,16.6523635 10.741075,16.6523635 Z M22.7693137,17.162955 L16.1878362,17.162955 C15.7804725,17.162955 15.4502522,17.4932 15.4502522,17.900539 C15.4502522,18.3079028 15.7804725,18.6381231 16.1878362,18.6381231 L22.7693137,18.6381231 C23.1766774,18.6381231 23.5068977,18.3079028 23.5068977,17.900539 C23.5068977,17.4932 23.1766774,17.162955 22.7693137,17.162955 Z M13.5291609,9.20487747 C13.3175034,8.98170633 12.9650202,8.97238699 12.741849,9.18404455 L10.4026448,11.4026151 L9.21450254,10.2144729 C8.99416665,9.99416168 8.63694984,9.99416168 8.41663861,10.2144729 C8.19630273,10.4348088 8.19630273,10.7920256 8.41663861,11.0123368 L9.88470626,12.4804045 C9.9092739,12.5050024 9.93605479,12.5272855 9.96470961,12.5469712 C9.97450706,12.5591302 9.98478796,12.5708915 9.99552755,12.5822269 C10.2071604,12.8053734 10.5596683,12.8147174 10.7828394,12.6030599 L13.5073911,10.0189886 C13.7354438,9.80267138 13.7480175,9.44345757 13.535571,9.21175603 C13.5334537,9.20944517 13.5313169,9.20715224 13.5291609,9.20487747 L13.5291609,9.20487747 Z M22.7693137,10.1843453 L16.1878362,10.1843453 C15.7804725,10.1843453 15.4502522,10.5145656 15.4502522,10.9219047 C15.4502522,11.3292684 15.7804725,11.6594887 16.1878362,11.6594887 L22.7693137,11.6594887 C23.1766774,11.6594887 23.5068977,11.3292684 23.5068977,10.9219047 C23.5068977,10.5145656 23.1766774,10.1843453 22.7693137,10.1843453 L22.7693137,10.1843453 Z" id="形状"></path>
            </g>
        </g>
    </g>
</svg>