<?xml version="1.0" encoding="UTF-8"?>
<svg width="30px" height="30px" viewBox="0 0 30 30" version="1.1" xmlns="http://www.w3.org/2000/svg" xmlns:xlink="http://www.w3.org/1999/xlink">
    <title>切图</title>
    <g id="页面-1" stroke="none" stroke-width="1" fill="none" fill-rule="evenodd">
        <g id="切图" transform="translate(-326.000000, -519.000000)" fill="#666" fill-rule="nonzero">
            <g id="编组-19" transform="translate(326.000000, 479.000000)">
                <path d="M20.747625,43.5 C24.6365342,44.266681 28.280125,45.7846742 28.4085342,47.5441742 L28.4133258,47.6754658 L28.4133258,61.7945908 C28.4133258,64.392625 21.877485,66.5 14.9966667,66.5 C8.23275748,66.5 1.76975748,64.4635409 1.58479166,61.925875 L1.58,61.793625 L1.58,47.6754658 C1.58,45.8603817 5.26,44.2858408 9.24665918,43.5 L9.24665918,49.9783408 C10.9860342,50.2926749 12.9745684,50.4996749 14.9966592,50.4996749 C17.0187433,50.4996749 19.00825,50.2926749 20.747625,49.9783408 L20.747625,43.5 L20.747625,43.5 Z M16.0431592,58.6311243 L13.3550342,63.1122992 L9.41437498,60.1567992 L6.72337498,63.5205492 C8.8959159,64.1377151 11.9175342,64.6178401 14.9966592,64.6178401 C16.8117432,64.6178401 18.602875,64.4510901 20.2109433,64.1894651 L16.0431592,58.6311243 L16.0431592,58.6311243 Z M26.4966592,50.18439 C24.2905751,51.5049741 19.4356592,52.3818491 14.9966592,52.3818491 C10.5576592,52.3818491 5.70274998,51.5049741 3.49665916,50.18439 L3.49665916,61.7917309 C3.51965916,62.111815 3.99882508,62.4817309 4.80861824,62.8458968 L9.07895906,57.508931 L12.8039932,60.303431 L15.8668341,55.2012718 L22.2982091,63.7754876 C24.7304591,63.1985717 26.4008341,62.4357376 26.4918682,61.8540285 L26.4966592,61.7936535 L26.4966592,50.18439 L26.4966592,50.18439 Z M21.705,53.0833559 L21.7049999,53.0833559 C23.2928175,53.0833559 24.5799999,54.370536 24.5799999,55.9583559 C24.5799999,57.5461734 23.2928197,58.8333559 21.7049999,58.8333559 C21.7049999,58.8333559 21.7049998,58.8333559 21.7049998,58.8333559 L21.7049997,58.8333559 C20.1171821,58.8333559 18.8299997,57.5461734 18.8299997,55.9583559 C18.8299997,54.3705383 20.1171821,53.0833559 21.7049997,53.0833559 L21.705,53.0833559 Z M21.705,55.0000218 L21.705,55.0000218 C21.1757282,54.9999407 20.7466008,55.4289358 20.7465199,55.9582076 C20.7464389,56.4874794 21.175434,56.9166068 21.7047058,56.9166877 C21.7048036,56.9166877 21.7049014,56.9166877 21.7049992,56.9166877 L21.7049993,56.9166877 C22.234271,56.9166067 22.663266,56.4874794 22.6631851,55.9582076 C22.6631041,55.4290504 22.2341565,55.0001026 21.7049993,55.0000218 L21.705,55.0000218 Z M7.33000672,49.565306 L7.33000672,45.882431 L6.8661659,46.0108476 C4.96483181,46.5532635 3.4966659,47.1867226 3.4966659,47.6754726 C3.4966659,48.2341816 5.02712498,48.9797635 7.33000672,49.5662635 L7.33000672,49.565306 Z M22.6633266,45.8824242 L22.6642991,49.5643401 L23.1626332,49.4320901 C25.1847173,48.8705061 26.4966674,48.1929651 26.4966674,47.6754651 C26.4966674,47.1483811 24.7841265,46.4516742 22.6633266,45.8824242 L22.6633266,45.8824242 Z" id="形状"></path>
            </g>
        </g>
    </g>
</svg>