<?xml version="1.0" encoding="UTF-8"?>
<svg width="31px" height="30px" viewBox="0 0 31 30" version="1.1" xmlns="http://www.w3.org/2000/svg" xmlns:xlink="http://www.w3.org/1999/xlink">
    <title>切图</title>
    <g id="页面-1" stroke="none" stroke-width="1" fill="none" fill-rule="evenodd">
        <g id="切图" transform="translate(-17.000000, -60.000000)" fill="#FFFFFF" fill-rule="nonzero">
            <g id="编组-2备份" transform="translate(17.000000, 60.000000)">
                <path d="M15.8850066,7.08582659 C20.9760057,7.08582659 25.1030673,11.2128882 25.1030673,16.3038873 L25.1030673,23.0368282 C25.1030673,23.5475203 24.6890636,23.9615239 24.1783715,23.9615239 L7.59164163,23.9615239 C7.0809495,23.9615239 6.66694588,23.5475203 6.66694588,23.0368282 L6.66694588,16.3038873 C6.66694588,11.2128882 10.7940075,7.08582659 15.8850066,7.08582659 Z M15.0758978,2 L16.6941154,2 C16.8217892,2 16.9252893,2.1035001 16.9252893,2.23117394 L16.9252893,5.00526117 C16.9252893,5.13293501 16.8217892,5.2364351 16.6941154,5.2364351 L15.0758978,5.2364351 C14.948224,5.2364351 14.8447239,5.13293501 14.8447239,5.00526117 L14.8447239,2.23117394 C14.8447239,2.1035001 14.948224,2 15.0758978,2 Z M6.21196668,5.57328442 C6.25532054,5.52992832 6.31412234,5.50557093 6.37543555,5.50557093 C6.43674875,5.50557093 6.49555055,5.52992832 6.53890442,5.57328442 L8.50047306,7.53485306 C8.54382916,7.57820693 8.56818655,7.63700873 8.56818655,7.69832193 C8.56818655,7.75963514 8.54382916,7.81843694 8.50047306,7.8617908 L7.35621987,9.00604399 C7.312866,9.04940009 7.2540642,9.07375748 7.192751,9.07375748 C7.1314378,9.07375748 7.07263599,9.04940009 7.02928213,9.00604399 L5.06771349,7.04447535 C5.02435739,7.00112149 5,6.94231969 5,6.88100648 C5,6.81969328 5.02435739,6.76089148 5.06771349,6.71753761 L6.21196668,5.57328442 L6.21196668,5.57328442 Z M25.5611673,5.57328442 L26.7054205,6.71753761 C26.7487766,6.76089148 26.773134,6.81969328 26.773134,6.88100648 C26.773134,6.94231969 26.7487766,7.00112149 26.7054205,7.04447535 L24.7438519,9.00604399 C24.700498,9.04940009 24.6416962,9.07375748 24.580383,9.07375748 C24.5190698,9.07375748 24.460268,9.04940009 24.4169141,9.00604399 L23.2726609,7.8617908 C23.2293048,7.81843694 23.2049475,7.75963514 23.2049475,7.69832193 C23.2049475,7.63700873 23.2293048,7.57820693 23.2726609,7.53485306 L25.2342296,5.57328442 C25.2775834,5.52992832 25.3363852,5.50557093 25.3976985,5.50557093 C25.4590117,5.50557093 25.5178135,5.52992832 25.5611673,5.57328442 L25.5611673,5.57328442 Z M6.63804914,25.8109154 L25.131964,25.8109154 C25.6426561,25.8109154 26.0566598,26.224919 26.0566598,26.7356111 L26.0566598,27.4291329 C26.0566598,27.5568068 25.9531597,27.6603069 25.8254858,27.6603069 L5.94452733,27.6603069 C5.81685349,27.6603069 5.7133534,27.5568068 5.7133534,27.4291329 L5.7133534,26.7356111 C5.7133534,26.224919 6.12735702,25.8109154 6.63804914,25.8109154 Z M10.914767,16.6506482 L10.914767,23.9615239 L12.7641584,23.9615239 L12.7641584,16.6506482 L10.914767,16.6506482 Z" id="形状"></path>
            </g>
        </g>
    </g>
</svg>