<?xml version="1.0" encoding="UTF-8"?>
<svg width="30px" height="30px" viewBox="0 0 30 30" version="1.1" xmlns="http://www.w3.org/2000/svg" xmlns:xlink="http://www.w3.org/1999/xlink">
    <title>切图</title>
    <g id="页面-1" stroke="none" stroke-width="1" fill="none" fill-rule="evenodd">
        <g id="切图" transform="translate(-326.000000, -559.000000)" fill="#56E9FF" fill-rule="nonzero">
            <g id="编组-19" transform="translate(326.000000, 479.000000)">
                <path d="M20.747625,83.5 C24.6365342,84.266681 28.280125,85.7846742 28.4085342,87.5441742 L28.4133258,87.6754658 L28.4133258,101.794591 C28.4133258,104.392625 21.877485,106.5 14.9966667,106.5 C8.23275748,106.5 1.76975748,104.463541 1.58479166,101.925875 L1.58,101.793625 L1.58,87.6754658 C1.58,85.8603817 5.26,84.2858408 9.24665918,83.5 L9.24665918,89.9783408 C10.9860342,90.2926749 12.9745684,90.4996749 14.9966592,90.4996749 C17.0187433,90.4996749 19.00825,90.2926749 20.747625,89.9783408 L20.747625,83.5 L20.747625,83.5 Z M16.0431592,98.6311243 L13.3550342,103.112299 L9.41437498,100.156799 L6.72337498,103.520549 C8.8959159,104.137715 11.9175342,104.61784 14.9966592,104.61784 C16.8117432,104.61784 18.602875,104.45109 20.2109433,104.189465 L16.0431592,98.6311243 L16.0431592,98.6311243 Z M26.4966592,90.18439 C24.2905751,91.5049741 19.4356592,92.3818491 14.9966592,92.3818491 C10.5576592,92.3818491 5.70274998,91.5049741 3.49665916,90.18439 L3.49665916,101.791731 C3.51965916,102.111815 3.99882508,102.481731 4.80861824,102.845897 L9.07895906,97.508931 L12.8039932,100.303431 L15.8668341,95.2012718 L22.2982091,103.775488 C24.7304591,103.198572 26.4008341,102.435738 26.4918682,101.854029 L26.4966592,101.793654 L26.4966592,90.18439 L26.4966592,90.18439 Z M21.705,93.0833559 L21.7049999,93.0833559 C23.2928175,93.0833559 24.5799999,94.370536 24.5799999,95.9583559 C24.5799999,97.5461734 23.2928197,98.8333559 21.7049999,98.8333559 C21.7049999,98.8333559 21.7049998,98.8333559 21.7049998,98.8333559 L21.7049997,98.8333559 C20.1171821,98.8333559 18.8299997,97.5461734 18.8299997,95.9583559 C18.8299997,94.3705383 20.1171821,93.0833559 21.7049997,93.0833559 L21.705,93.0833559 Z M21.705,95.0000218 L21.705,95.0000218 C21.1757282,94.9999407 20.7466008,95.4289358 20.7465199,95.9582076 C20.7464389,96.4874794 21.175434,96.9166068 21.7047058,96.9166877 C21.7048036,96.9166877 21.7049014,96.9166877 21.7049992,96.9166877 L21.7049993,96.9166877 C22.234271,96.9166067 22.663266,96.4874794 22.6631851,95.9582076 C22.6631041,95.4290504 22.2341565,95.0001026 21.7049993,95.0000218 L21.705,95.0000218 Z M7.33000672,89.565306 L7.33000672,85.882431 L6.8661659,86.0108476 C4.96483181,86.5532635 3.4966659,87.1867226 3.4966659,87.6754726 C3.4966659,88.2341816 5.02712498,88.9797635 7.33000672,89.5662635 L7.33000672,89.565306 Z M22.6633266,85.8824242 L22.6642991,89.5643401 L23.1626332,89.4320901 C25.1847173,88.8705061 26.4966674,88.1929651 26.4966674,87.6754651 C26.4966674,87.1483811 24.7841265,86.4516742 22.6633266,85.8824242 L22.6633266,85.8824242 Z" id="形状"></path>
            </g>
        </g>
    </g>
</svg>