<?xml version="1.0" encoding="UTF-8"?>
<svg width="30px" height="30px" viewBox="0 0 30 30" version="1.1" xmlns="http://www.w3.org/2000/svg" xmlns:xlink="http://www.w3.org/1999/xlink">
    <title>切图</title>
    <g id="页面-1" stroke="none" stroke-width="1" fill="none" fill-rule="evenodd">
        <g id="切图" transform="translate(-139.000000, -60.000000)" fill="#666" fill-rule="nonzero">
            <g id="编组-8备份" transform="translate(139.000000, 60.000000)">
                <path d="M15.04,3.00000016 C15.6949998,2.99974542 16.3125413,3.30538864 16.7095801,3.82633489 C17.106619,4.34728115 17.2375989,5.02375692 17.0636964,5.65524941 L21.8223727,9.29454577 L23.4327273,9.29454577 C25.170918,9.29454577 26.58,10.7036278 26.58,12.4418185 L26.58,22.9327276 C26.58,24.6709183 25.170918,26.0800003 23.4327273,26.0800003 L6.64727273,26.0800003 C4.909082,26.0800003 3.5,24.6709183 3.5,22.9327276 L3.5,12.4418185 C3.5,10.7036278 4.909082,9.29454577 6.64727273,9.29454577 L8.25657818,9.29454577 L13.0163036,5.65420032 C12.9759747,5.50690025 12.9518772,5.35563117 12.9444409,5.20309123 L12.9418182,5.09818214 C12.9418182,3.93938832 13.8812062,3.00000016 15.04,3.00000016 Z M20.5477273,19.2609094 L9.53227273,19.2609094 C9.00772727,19.2609094 8.74545455,19.5231821 8.74545455,20.0477276 L8.74545455,20.0477276 L8.75091856,20.1733999 C8.79098801,20.6141638 9.05143939,20.8345458 9.53227273,20.8345458 L9.53227273,20.8345458 L20.5477273,20.8345458 C21.0722727,20.8345458 21.3345455,20.572273 21.3345455,20.0477276 L21.3345455,20.0477276 L21.3290814,19.9220552 C21.289012,19.4812914 21.0285606,19.2609094 20.5477273,19.2609094 L20.5477273,19.2609094 Z M20.5477273,14.5400003 L9.53227273,14.5400003 C9.00772727,14.5400003 8.74545455,14.802273 8.74545455,15.3268185 L8.74545455,15.3268185 L8.75091856,15.4524908 C8.79098801,15.8932547 9.05143939,16.1136367 9.53227273,16.1136367 L9.53227273,16.1136367 L20.5477273,16.1136367 C21.0722727,16.1136367 21.3345455,15.851364 21.3345455,15.3268185 L21.3345455,15.3268185 L21.3290814,15.2011462 C21.289012,14.7603823 21.0285606,14.5400003 20.5477273,14.5400003 L20.5477273,14.5400003 Z M13.97255,6.90471668 L10.8467836,9.29454577 L19.2321673,9.29454577 L16.1069255,6.90524123 C15.8145332,7.07831727 15.4842908,7.17735398 15.1449091,7.19374123 L15.04,7.19636395 C14.6644308,7.19690853 14.2956659,7.09615508 13.97255,6.90471668 Z" id="形状结合"></path>
            </g>
        </g>
    </g>
</svg>