<?xml version="1.0" encoding="UTF-8"?>
<svg width="31px" height="30px" viewBox="0 0 31 30" version="1.1" xmlns="http://www.w3.org/2000/svg" xmlns:xlink="http://www.w3.org/1999/xlink">
    <title>切图</title>
    <g id="页面-1" stroke="none" stroke-width="1" fill="none" fill-rule="evenodd">
        <g id="切图" transform="translate(-55.000000, -96.000000)" fill="#666" fill-rule="nonzero">
            <g id="编组-5备份-2" transform="translate(55.000000, 96.000000)">
                <path d="M22.2955,17.540625 C23.248375,17.540625 24.139375,17.82525 24.931375,18.345 L24.931375,7.9005 L21.87475,7.9005 C21.13225,7.9005 20.550625,7.269375 20.550625,6.452625 L20.550625,3 L8.051875,3 C7.47025,3 7,3.51975 7,4.150875 L7,24.9285 C7,25.559625 7.47025,26.079375 8.051875,26.079375 L17.86525,26.079375 C17.382625,25.20075 17.12275,24.198375 17.12275,23.196 C17.12275,20.089875 19.44925,17.540625 22.2955,17.540625 Z M10.96,9.348375 L20.98375,9.348375 C21.3055,9.348375 21.515875,9.5835 21.515875,9.93 C21.515875,10.2765 21.3055,10.511625 20.98375,10.511625 L10.96,10.511625 C10.63825,10.511625 10.427875,10.2765 10.427875,9.93 C10.427875,9.5835 10.63825,9.348375 10.96,9.348375 Z M10.96,13.395 L20.98375,13.395 C21.3055,13.395 21.515875,13.630125 21.515875,13.976625 C21.515875,14.323125 21.3055,14.55825 20.98375,14.55825 L10.96,14.55825 C10.63825,14.55825 10.427875,14.323125 10.427875,13.976625 C10.427875,13.61775 10.63825,13.395 10.96,13.395 Z M15.811,18.580125 L10.96,18.580125 C10.63825,18.580125 10.427875,18.345 10.427875,17.9985 C10.427875,17.652 10.63825,17.416875 10.96,17.416875 L15.811,17.416875 C16.13275,17.416875 16.343125,17.652 16.343125,17.9985 C16.33075,18.357375 16.120375,18.580125 15.811,18.580125 Z M21.87475,7.33125 L24.931375,7.33125 L21.13225,3 L21.13225,6.465 C21.08275,6.922875 21.454,7.33125 21.87475,7.33125 L21.87475,7.33125 Z M25.079875,19.3845 C24.325,18.753375 23.372125,18.406875 22.382125,18.41925 C19.956625,18.41925 17.96425,20.523 17.96425,23.084625 C17.96425,24.16125 18.286,25.138875 18.88,25.930875 C19.684375,27.069375 20.98375,27.75 22.382125,27.75 C24.807625,27.75 26.8,25.64625 26.8,23.084625 C26.8,21.599625 26.094625,20.238375 25.079875,19.3845 Z M21.9985,24.693375 C21.87475,24.817125 21.664375,24.817125 21.52825,24.693375 L19.7215,22.936125 C19.387375,22.57725 19.560625,22.23075 19.69675,22.107 C19.8205,21.98325 20.2165,21.93375 20.476375,22.193625 L21.751,23.455875 L24.34975,20.906625 C24.59725,20.659125 24.931375,20.523 25.253125,20.807625 C25.4635,20.99325 25.4635,21.253125 25.2655,21.525375 C25.154125,21.698625 22.010875,24.693375 21.9985,24.693375 L21.9985,24.693375 Z" id="形状"></path>
            </g>
        </g>
    </g>
</svg>