<?xml version="1.0" encoding="UTF-8"?>
<svg width="23px" height="23px" viewBox="0 0 23 23" version="1.1" xmlns="http://www.w3.org/2000/svg" xmlns:xlink="http://www.w3.org/1999/xlink">
    <title>形状</title>
    <g id="页面-1" stroke="none" stroke-width="1" fill="none" fill-rule="evenodd">
        <g id="现场支援" transform="translate(-531.000000, -292.000000)" fill="#FFFFFF" fill-rule="nonzero">
            <g id="编组-9" transform="translate(430.000000, 132.000000)">
                <g id="Group-24备份-14" transform="translate(80.000000, 120.000000)">
                    <path d="M32.5091273,62.2794252 L32.5091273,51.0059817 C32.5077514,50.7112636 32.6856839,50.4453353 32.9585174,50.3345034 L43.039754,46.3487559 C43.2589024,46.2650265 43.5052594,46.2954135 43.6975432,46.4298911 C43.889827,46.5643688 44.0030559,46.7854657 43.9999372,47.0202342 L43.9999372,57.3819457 C44.0015312,57.6597833 43.8434945,57.913837 43.5936681,58.0349429 L33.5185861,62.9324225 C33.2973898,63.0367426 33.0380647,63.0193941 32.8327055,62.886538 C32.6273464,62.7536819 32.5050439,62.5241381 32.5091273,62.2794252 L32.5091273,62.2794252 Z M22.5510869,44.0078223 L32.2015015,40.0528766 C32.3709034,39.9823745 32.5613953,39.9823745 32.7307972,40.0528766 L42.2950473,43.9400584 C42.5702826,44.0506943 42.7506452,44.3177392 42.7506452,44.6146169 C42.7506452,44.9114947 42.5702826,45.1785396 42.2950473,45.2891754 L31.622969,49.2441212 C31.4533031,49.3132867 31.2633392,49.3132867 31.0936733,49.2441212 L22.5264685,45.3384583 C22.2649807,45.2175392 22.0996033,44.9533636 22.1048113,44.6650987 C22.1102698,44.3768338 22.2853056,44.118968 22.5510869,44.0078223 Z M30.3058843,62.8276965 L21.3632489,57.7577271 C21.1426677,57.6303147 21.0048818,57.3965612 21.0001275,57.141692 L21.0001275,47.0633567 C20.9955813,46.8232147 21.1129051,46.5971221 21.3117963,46.4627451 C21.5106876,46.328368 21.7640552,46.3040102 21.9848636,46.3980387 L30.927499,50.3221827 C31.1910154,50.4378754 31.3604211,50.6994884 31.3583211,50.9875007 L31.3583211,62.1808596 C31.3685841,62.4370481 31.239753,62.6787944 31.021465,62.8129561 C30.803177,62.9471178 30.5295021,62.9527553 30.3058843,62.8276965 Z M23.2403573,51.8314688 C23.241252,52.0826214 23.3715664,52.3155432 23.5850599,52.447504 L27.6163236,54.9116447 C27.8362361,55.0432312 28.110026,55.0455856 28.3321648,54.9178004 C28.5543035,54.7900151 28.6901041,54.5520439 28.6872691,54.2956095 C28.6875679,54.0441446 28.5569497,53.8106799 28.3425666,53.6795743 L24.3113028,51.2154337 C24.0913904,51.0838472 23.8176005,51.0814928 23.5954617,51.209278 C23.373323,51.3370632 23.2375223,51.5750344 23.2403573,51.8314688 Z" id="形状"></path>
                </g>
            </g>
        </g>
    </g>
</svg>