<?xml version="1.0" encoding="UTF-8"?>
<svg width="23px" height="23px" viewBox="0 0 23 23" version="1.1" xmlns="http://www.w3.org/2000/svg" xmlns:xlink="http://www.w3.org/1999/xlink">
    <title>形状</title>
    <g id="页面-1" stroke="none" stroke-width="1" fill="none" fill-rule="evenodd">
        <g id="现场支援" transform="translate(-531.000000, -252.000000)" fill="#56E9FF" fill-rule="nonzero">
            <g id="编组-9" transform="translate(430.000000, 132.000000)">
                <g id="Group-24备份-14" transform="translate(80.000000, 120.000000)">
                    <path d="M32.5091273,22.2794252 L32.5091273,11.0059817 C32.5077514,10.7112636 32.6856839,10.4453353 32.9585174,10.3345034 L43.039754,6.34875592 C43.2589024,6.26502648 43.5052594,6.29541346 43.6975432,6.42989114 C43.889827,6.56436882 44.0030559,6.78546567 43.9999372,7.02023423 L43.9999372,17.3819457 C44.0015312,17.6597833 43.8434945,17.913837 43.5936681,18.0349429 L33.5185861,22.9324225 C33.2973898,23.0367426 33.0380647,23.0193941 32.8327055,22.886538 C32.6273464,22.7536819 32.5050439,22.5241381 32.5091273,22.2794252 L32.5091273,22.2794252 Z M22.5510869,4.00782229 L32.2015015,0.0528765575 C32.3709034,-0.0176255192 32.5613953,-0.0176255192 32.7307972,0.0528765575 L42.2950473,3.94005843 C42.5702826,4.05069425 42.7506452,4.31773919 42.7506452,4.61461693 C42.7506452,4.91149468 42.5702826,5.17853961 42.2950473,5.28917544 L31.622969,9.24412118 C31.4533031,9.3132867 31.2633392,9.3132867 31.0936733,9.24412118 L22.5264685,5.33845825 C22.2649807,5.21753917 22.0996033,4.95336356 22.1048113,4.66509867 C22.1102698,4.37683379 22.2853056,4.11896801 22.5510869,4.00782229 Z M30.3058843,22.8276965 L21.3632489,17.7577271 C21.1426677,17.6303147 21.0048818,17.3965612 21.0001275,17.141692 L21.0001275,7.0633567 C20.9955813,6.82321471 21.1129051,6.59712212 21.3117963,6.46274508 C21.5106876,6.32836803 21.7640552,6.30401015 21.9848636,6.39803873 L30.927499,10.3221827 C31.1910154,10.4378754 31.3604211,10.6994884 31.3583211,10.9875007 L31.3583211,22.1808596 C31.3685841,22.4370481 31.239753,22.6787944 31.021465,22.8129561 C30.803177,22.9471178 30.5295021,22.9527553 30.3058843,22.8276965 Z M23.2403573,11.8314688 C23.241252,12.0826214 23.3715664,12.3155432 23.5850599,12.447504 L27.6163236,14.9116447 C27.8362361,15.0432312 28.110026,15.0455856 28.3321648,14.9178004 C28.5543035,14.7900151 28.6901041,14.5520439 28.6872691,14.2956095 C28.6875679,14.0441446 28.5569497,13.8106799 28.3425666,13.6795743 L24.3113028,11.2154337 C24.0913904,11.0838472 23.8176005,11.0814928 23.5954617,11.209278 C23.373323,11.3370632 23.2375223,11.5750344 23.2403573,11.8314688 Z" id="形状"></path>
                </g>
            </g>
        </g>
    </g>
</svg>