<?xml version="1.0" encoding="UTF-8"?>
<svg width="25px" height="28px" viewBox="0 0 25 28" version="1.1" xmlns="http://www.w3.org/2000/svg" xmlns:xlink="http://www.w3.org/1999/xlink">
    <title>形状备份 11</title>
    <g id="事件信息、组织动态、辅助工具" stroke="none" stroke-width="1" fill="none" fill-rule="evenodd">
        <g id="雪碧图" transform="translate(-361.000000, -560.000000)" fill="#56E9FF" fill-rule="nonzero">
            <g id="编组" transform="translate(0.000000, -18.979320)">
                <path d="M383.012496,600.295449 L364.044281,600.295449 C363.57593,600.295449 363.166123,599.934159 363.166123,599.392223 L363.166123,599.030933 C363.166123,598.549212 363.517387,598.127707 364.044281,598.127707 L367.732545,598.127707 C368.317984,598.127707 368.844879,597.645987 368.844879,596.983621 C368.844879,596.321255 368.376528,595.959965 367.791089,595.959965 L364.044281,595.959965 C362.346509,595.959965 361,597.344911 361,599.091148 L361,599.452438 C361,601.198675 362.346509,602.583621 364.044281,602.583621 L382.953952,602.583621 C383.422303,602.583621 383.83211,602.944911 383.83211,603.486847 L383.83211,603.787922 C383.83211,604.269642 383.480847,604.691148 382.953952,604.691148 L367.322738,604.691148 C366.7373,604.691148 366.210405,605.172868 366.210405,605.835234 C366.210405,606.437384 366.678756,606.97932 367.322738,606.97932 L382.953952,606.97932 C384.651725,606.97932 385.998234,605.594374 385.998234,603.848137 L385.998234,603.486847 C386.056778,601.680395 384.651725,600.295449 383.012496,600.295449 Z M373.528389,578.97932 C369.605949,578.97932 366.44458,582.230933 366.44458,586.265341 C366.44458,590.29975 371.245178,597.405126 373.528389,597.405126 C376.455582,597.405126 380.612197,590.29975 380.612197,586.265341 C380.612197,582.230933 377.392284,578.97932 373.528389,578.97932 Z M373.528389,589.93846 C371.537897,589.93846 369.898669,588.252438 369.898669,586.205126 C369.898669,584.157814 371.537897,582.471793 373.528389,582.471793 C375.51888,582.471793 377.158109,584.157814 377.158109,586.205126 C377.158109,588.252438 375.51888,589.93846 373.528389,589.93846 Z" id="形状备份-11"></path>
            </g>
        </g>
    </g>
</svg>