<?xml version="1.0" encoding="UTF-8"?>
<svg width="25px" height="28px" viewBox="0 0 25 28" version="1.1" xmlns="http://www.w3.org/2000/svg" xmlns:xlink="http://www.w3.org/1999/xlink">
    <title>形状</title>
    <g id="事件信息、组织动态、辅助工具" stroke="none" stroke-width="1" fill="none" fill-rule="evenodd">
        <g id="雪碧图" transform="translate(-317.000000, -560.000000)" fill="#FFFFFF" fill-rule="nonzero">
            <g id="编组" transform="translate(0.000000, -18.979320)">
                <path d="M339.012496,600.295449 L320.044281,600.295449 C319.57593,600.295449 319.166123,599.934159 319.166123,599.392223 L319.166123,599.030933 C319.166123,598.549212 319.517387,598.127707 320.044281,598.127707 L323.732545,598.127707 C324.317984,598.127707 324.844879,597.645987 324.844879,596.983621 C324.844879,596.321255 324.376528,595.959965 323.791089,595.959965 L320.044281,595.959965 C318.346509,595.959965 317,597.344911 317,599.091148 L317,599.452438 C317,601.198675 318.346509,602.583621 320.044281,602.583621 L338.953952,602.583621 C339.422303,602.583621 339.83211,602.944911 339.83211,603.486847 L339.83211,603.787922 C339.83211,604.269642 339.480847,604.691148 338.953952,604.691148 L323.322738,604.691148 C322.7373,604.691148 322.210405,605.172868 322.210405,605.835234 C322.210405,606.437384 322.678756,606.97932 323.322738,606.97932 L338.953952,606.97932 C340.651725,606.97932 341.998234,605.594374 341.998234,603.848137 L341.998234,603.486847 C342.056778,601.680395 340.651725,600.295449 339.012496,600.295449 Z M329.528389,578.97932 C325.605949,578.97932 322.44458,582.230933 322.44458,586.265341 C322.44458,590.29975 327.245178,597.405126 329.528389,597.405126 C332.455582,597.405126 336.612197,590.29975 336.612197,586.265341 C336.612197,582.230933 333.392284,578.97932 329.528389,578.97932 Z M329.528389,589.93846 C327.537897,589.93846 325.898669,588.252438 325.898669,586.205126 C325.898669,584.157814 327.537897,582.471793 329.528389,582.471793 C331.51888,582.471793 333.158109,584.157814 333.158109,586.205126 C333.158109,588.252438 331.51888,589.93846 329.528389,589.93846 Z" id="形状"></path>
            </g>
        </g>
    </g>
</svg>