<?xml version="1.0" encoding="UTF-8"?>
<svg width="23px" height="24px" viewBox="0 0 23 24" version="1.1" xmlns="http://www.w3.org/2000/svg" xmlns:xlink="http://www.w3.org/1999/xlink">
    <title>形状备份 24</title>
    <g id="页面-1" stroke="none" stroke-width="1" fill="none" fill-rule="evenodd">
        <g id="发起会议" transform="translate(-526.000000, -539.000000)" fill="#56E9FF" fill-rule="nonzero">
            <g id="Group-24备份" transform="translate(505.000000, 72.000000)">
                <g id="编组备份-7" transform="translate(4.000000, 467.000000)">
                    <path d="M37.217438,14.119238 C35.6816147,14.119238 34.438213,15.3634525 34.438213,16.9009872 C34.438213,18.4359976 35.6815719,19.6793564 37.217438,19.6793564 C38.7541169,19.6793564 40,18.4359976 40,16.9009872 C40,15.3634525 38.7541169,14.119238 37.217438,14.119238 Z M28.5004064,5.56178699 C30.0379411,5.56178699 31.2812999,4.31842812 31.2812999,2.78256203 C31.2812999,1.24335888 30.0379411,2.13162821e-13 28.5004064,2.13162821e-13 C26.9628718,2.13162821e-13 25.7195129,1.24335888 25.7195129,2.78256203 C25.7195129,4.31842812 26.9629146,5.56178699 28.5004064,5.56178699 Z M37.7881629,12.4664033 C38.4131794,12.5466213 38.9939583,12.7480008 39.5111617,13.0571934 C39.5120173,13.0179186 39.5170229,12.9803124 39.5170229,12.9410376 C39.5170229,8.46388466 36.8272144,4.60922403 32.9817521,2.88789374 C32.9675482,3.49789341 32.8355199,4.07610535 32.6015398,4.60173701 C35.5445808,6.05477522 37.6135228,9.01202016 37.7881629,12.4664033 Z M22.561787,16.9009444 C22.561787,15.3634098 21.3142354,14.1183824 19.7808935,14.1183824 C18.242546,14.1183824 17,15.3634526 17,16.9009444 C17,18.4359548 18.242546,19.6801694 19.7808935,19.6801694 C21.3141926,19.6801694 22.561787,18.4359548 22.561787,16.9009444 Z M19.2109815,12.4647347 C19.3872901,9.01035163 21.4554192,6.05396236 24.3984174,4.60083855 C24.165293,4.07524968 24.0332647,3.49699497 24.0182051,2.88699528 C20.1727428,4.60751269 17.4821214,8.4629862 17.4821214,12.9409948 C17.4821214,12.9794139 17.487127,13.0162073 17.4879826,13.0546264 C18.0043732,12.7463323 18.585965,12.5440972 19.2109815,12.4647347 Z M28.4995936,22.2471479 C26.3295126,22.2471479 24.3357831,21.4951088 22.7514867,20.245033 C22.2977732,20.6477919 21.7646546,20.9544603 21.175533,21.14831 C23.1241264,22.8897483 25.6860994,23.958467 28.4995936,23.958467 C31.3130877,23.958467 33.8750607,22.8897483 35.8245098,21.1474971 C35.2345753,20.9544603 34.7014567,20.6486476 34.2477432,20.245033 C32.663404,21.4951088 30.6696317,22.2471479 28.4995936,22.2471479 Z" id="形状备份-24"></path>
                </g>
            </g>
        </g>
    </g>
</svg>