<?xml version="1.0" encoding="UTF-8"?>
<svg width="22px" height="19px" viewBox="0 0 22 19" version="1.1" xmlns="http://www.w3.org/2000/svg" xmlns:xlink="http://www.w3.org/1999/xlink">
    <title>形状</title>
    <g id="事件信息、组织动态、辅助工具" stroke="none" stroke-width="1" fill="none" fill-rule="evenodd">
        <g id="事件信息" transform="translate(-601.000000, -823.000000)" fill="#56E9FF" fill-rule="nonzero">
            <g id="编组-9" transform="translate(430.000000, 132.000000)">
                <g id="Group-24备份-12" transform="translate(0.000000, 675.000000)">
                    <path d="M192.20675,32.923199 C192.64485,32.923199 193,33.2783492 193,33.7164491 L193,33.8219514 C193,34.2600514 192.64485,34.6152016 192.20675,34.6152016 L171.79325,34.6152016 C171.35515,34.6152016 171,34.2600514 171,33.8219514 L171,33.7164491 C171,33.2783492 171.35515,32.923199 171.79325,32.923199 L192.20675,32.923199 Z M176.976347,21.076801 C177.414447,21.076801 177.769597,21.4319512 177.769597,21.8700512 L177.769597,31.2835509 C177.769597,31.7216508 177.414447,32.076801 176.976347,32.076801 L173.486046,32.076801 C173.047946,32.076801 172.692796,31.7216508 172.692796,31.2835509 L172.692796,21.8700512 C172.692796,21.4319512 173.047946,21.076801 173.486046,21.076801 L176.976347,21.076801 Z M190.513954,23.6152016 C190.952054,23.6152016 191.307204,23.9703518 191.307204,24.4084517 L191.307204,31.2835509 C191.307204,31.7216508 190.952054,32.076801 190.513954,32.076801 L187.023653,32.076801 C186.585553,32.076801 186.230403,31.7216508 186.230403,31.2835509 L186.230403,24.4084517 C186.230403,23.9703518 186.585553,23.6152016 187.023653,23.6152016 L190.513954,23.6152016 L190.513954,23.6152016 Z M183.74515,16 C184.18325,16 184.538401,16.3551502 184.538401,16.7932502 L184.538401,31.2835509 C184.538401,31.7216508 184.18325,32.076801 183.74515,32.076801 L180.25485,32.076801 C179.81675,32.076801 179.461599,31.7216508 179.461599,31.2835509 L179.461599,16.7932502 C179.461599,16.3551502 179.81675,16 180.25485,16 L183.74515,16 Z" id="形状"></path>
                </g>
            </g>
        </g>
    </g>
</svg>