<?xml version="1.0" encoding="UTF-8"?>
<svg width="22px" height="19px" viewBox="0 0 22 19" version="1.1" xmlns="http://www.w3.org/2000/svg" xmlns:xlink="http://www.w3.org/1999/xlink">
    <title>形状</title>
    <g id="事件信息、组织动态、辅助工具" stroke="none" stroke-width="1" fill="none" fill-rule="evenodd">
        <g id="事件信息" transform="translate(-451.000000, -823.000000)" fill="#FFFFFF" fill-rule="nonzero">
            <g id="编组-9" transform="translate(430.000000, 132.000000)">
                <g id="Group-24备份-12" transform="translate(0.000000, 675.000000)">
                    <path d="M42.2067498,32.923199 C42.6448498,32.923199 43,33.2783492 43,33.7164491 L43,33.8219514 C43,34.2600514 42.6448498,34.6152016 42.2067498,34.6152016 L21.7932502,34.6152016 C21.3551502,34.6152016 21,34.2600514 21,33.8219514 L21,33.7164491 C21,33.2783492 21.3551502,32.923199 21.7932502,32.923199 L42.2067498,32.923199 Z M26.9763467,21.076801 C27.4144467,21.076801 27.7695969,21.4319512 27.7695969,21.8700512 L27.7695969,31.2835509 C27.7695969,31.7216508 27.4144467,32.076801 26.9763467,32.076801 L23.486046,32.076801 C23.047946,32.076801 22.6927958,31.7216508 22.6927958,31.2835509 L22.6927958,21.8700512 C22.6927958,21.4319512 23.047946,21.076801 23.486046,21.076801 L26.9763467,21.076801 Z M40.513954,23.6152016 C40.952054,23.6152016 41.3072042,23.9703518 41.3072042,24.4084517 L41.3072042,31.2835509 C41.3072042,31.7216508 40.952054,32.076801 40.513954,32.076801 L37.0236533,32.076801 C36.5855533,32.076801 36.2304031,31.7216508 36.2304031,31.2835509 L36.2304031,24.4084517 C36.2304031,23.9703518 36.5855533,23.6152016 37.0236533,23.6152016 L40.513954,23.6152016 L40.513954,23.6152016 Z M33.7451504,16 C34.1832503,16 34.5384005,16.3551502 34.5384005,16.7932502 L34.5384005,31.2835509 C34.5384005,31.7216508 34.1832503,32.076801 33.7451504,32.076801 L30.2548496,32.076801 C29.8167497,32.076801 29.4615995,31.7216508 29.4615995,31.2835509 L29.4615995,16.7932502 C29.4615995,16.3551502 29.8167497,16 30.2548496,16 L33.7451504,16 Z" id="形状"></path>
                </g>
            </g>
        </g>
    </g>
</svg>