<?xml version="1.0" encoding="UTF-8"?>
<svg width="28px" height="20px" viewBox="0 0 28 20" version="1.1" xmlns="http://www.w3.org/2000/svg" xmlns:xlink="http://www.w3.org/1999/xlink">
    <title>形状</title>
    <g id="工具面板" stroke="none" stroke-width="1" fill="none" fill-rule="evenodd">
        <g id="事件信息" transform="translate(-448.000000, -671.000000)" fill="#FFFFFF" fill-rule="nonzero">
            <g id="编组-9" transform="translate(430.000000, 132.000000)">
                <g id="Group-24备份-10" transform="translate(0.000000, 525.000000)">
                    <path d="M40.1624289,22.2355989 C39.9373343,22.3700304 39.7122396,22.4606935 39.4433766,22.4606935 C39.1745136,22.4606935 38.949419,22.3700304 38.7243244,22.2355989 C37.6019776,21.5165466 34.9508633,19.6751476 34.5475688,17.3835594 C34.5038004,17.2928963 34.4569057,16.8896018 34.4569057,16.7989387 C34.4569057,15.2701711 35.7168103,14.0133929 37.1986831,14.0133929 C37.9177354,14.0133929 38.5898929,14.2822559 39.1307452,14.8231082 C39.3089451,15.0013081 39.5809345,15.0013081 39.715366,14.8231082 C40.253092,14.3291506 40.9283758,14.0133929 41.6474281,14.0133929 C43.1293009,14.0133929 44.3423108,15.2264027 44.3860792,16.7082756 L44.3860792,16.7989387 C44.3423108,19.3625162 41.4192071,21.4727782 40.1624289,22.2355989 Z M18.7534301,24.9398606 C21.9328915,24.1238926 24.5965111,22.5419777 25.7970157,22.0105043 C27.3539201,21.3227152 28.2480459,21.8791991 31.8526861,22.6764092 C35.4541999,23.4736193 37.0111043,23.5642824 37.0111043,23.5642824 C37.5300724,24.4333977 36.8610412,25.8527443 35.6667892,26.2216493 C34.4725373,26.5936807 30.080066,26.1778809 28.9389613,25.999681 C28.3887301,25.9121442 28.3168248,26.5749228 28.9702245,27.2314488 C29.6705188,27.9348694 31.4493915,28.5226165 32.7843277,28.9196584 C34.7195161,29.4917738 37.4612935,28.6601743 37.4612935,28.6601743 C37.4612935,28.6601743 41.2691441,26.5624176 43.7389322,25.999681 C46.2118466,25.4400708 45.9804994,27.5503328 45.9804994,27.5503328 C45.9804994,27.5503328 41.3629335,30.548468 39.924829,31.314415 C38.4867245,32.0834882 36.2795468,34.121845 34.3193479,33.9717819 C32.3591489,33.8248452 25.3280686,31.9990777 23.7805431,32.1991618 C23.092754,32.2898249 22.0235546,32.5649406 21.0137552,32.8056668 L20.9293447,32.8244247 C20.8480605,32.8494352 20.76365,32.877572 20.6729869,32.877572 C20.3728608,32.877572 20.1196293,32.7118773 19.9664399,32.4774038 C19.9320505,32.4117512 19.897661,32.3367197 19.8632716,32.2648144 C19.1348404,30.7329205 18.393904,27.6785117 18.0406305,26.1153546 C17.9218305,25.5963865 18.2375883,25.0742921 18.7534301,24.9398606 Z" id="形状"></path>
                </g>
            </g>
        </g>
    </g>
</svg>