<?xml version="1.0" encoding="UTF-8"?>
<svg width="28px" height="20px" viewBox="0 0 28 20" version="1.1" xmlns="http://www.w3.org/2000/svg" xmlns:xlink="http://www.w3.org/1999/xlink">
    <title>形状</title>
    <g id="事件信息、组织动态、辅助工具" stroke="none" stroke-width="1" fill="none" fill-rule="evenodd">
        <g id="事件信息" transform="translate(-598.000000, -671.000000)" fill="#56E9FF" fill-rule="nonzero">
            <g id="编组-9" transform="translate(430.000000, 132.000000)">
                <g id="Group-24备份-10" transform="translate(0.000000, 525.000000)">
                    <path d="M190.162429,22.2355989 C189.937334,22.3700304 189.71224,22.4606935 189.443377,22.4606935 C189.174514,22.4606935 188.949419,22.3700304 188.724324,22.2355989 C187.601978,21.5165466 184.950863,19.6751476 184.547569,17.3835594 C184.5038,17.2928963 184.456906,16.8896018 184.456906,16.7989387 C184.456906,15.2701711 185.71681,14.0133929 187.198683,14.0133929 C187.917735,14.0133929 188.589893,14.2822559 189.130745,14.8231082 C189.308945,15.0013081 189.580934,15.0013081 189.715366,14.8231082 C190.253092,14.3291506 190.928376,14.0133929 191.647428,14.0133929 C193.129301,14.0133929 194.342311,15.2264027 194.386079,16.7082756 L194.386079,16.7989387 C194.342311,19.3625162 191.419207,21.4727782 190.162429,22.2355989 Z M168.75343,24.9398606 C171.932891,24.1238926 174.596511,22.5419777 175.797016,22.0105043 C177.35392,21.3227152 178.248046,21.8791991 181.852686,22.6764092 C185.4542,23.4736193 187.011104,23.5642824 187.011104,23.5642824 C187.530072,24.4333977 186.861041,25.8527443 185.666789,26.2216493 C184.472537,26.5936807 180.080066,26.1778809 178.938961,25.999681 C178.38873,25.9121442 178.316825,26.5749228 178.970224,27.2314488 C179.670519,27.9348694 181.449392,28.5226165 182.784328,28.9196584 C184.719516,29.4917738 187.461294,28.6601743 187.461294,28.6601743 C187.461294,28.6601743 191.269144,26.5624176 193.738932,25.999681 C196.211847,25.4400708 195.980499,27.5503328 195.980499,27.5503328 C195.980499,27.5503328 191.362933,30.548468 189.924829,31.314415 C188.486725,32.0834882 186.279547,34.121845 184.319348,33.9717819 C182.359149,33.8248452 175.328069,31.9990777 173.780543,32.1991618 C173.092754,32.2898249 172.023555,32.5649406 171.013755,32.8056668 L170.929345,32.8244247 C170.848061,32.8494352 170.76365,32.877572 170.672987,32.877572 C170.372861,32.877572 170.119629,32.7118773 169.96644,32.4774038 C169.93205,32.4117512 169.897661,32.3367197 169.863272,32.2648144 C169.13484,30.7329205 168.393904,27.6785117 168.04063,26.1153546 C167.921831,25.5963865 168.237588,25.0742921 168.75343,24.9398606 Z" id="形状"></path>
                </g>
            </g>
        </g>
    </g>
</svg>