<?xml version="1.0" encoding="UTF-8"?>
<svg width="20px" height="23px" viewBox="0 0 20 23" version="1.1" xmlns="http://www.w3.org/2000/svg" xmlns:xlink="http://www.w3.org/1999/xlink">
    <title>形状</title>
    <g id="事件信息、组织动态、辅助工具" stroke="none" stroke-width="1" fill="none" fill-rule="evenodd">
        <g id="事件信息" transform="translate(-603.000000, -294.000000)" fill="#56E9FF" fill-rule="nonzero">
            <g id="编组-9" transform="translate(430.000000, 132.000000)">
                <g id="Group-24备份-5" transform="translate(0.000000, 150.000000)">
                    <path d="M192.086368,16.854956 L190.339119,14.8009373 L188.845287,13.1470521 C188.216262,12.4179395 187.300736,11.9991351 186.337784,12.0000013 L176.321108,12.0000013 C174.486911,12.0000013 173,13.4869135 173,15.3211108 L173,30.8196155 C173,32.6538129 174.486911,34.1407236 176.321108,34.1407236 L189.658892,34.1407236 C191.493089,34.1407236 192.98,32.6538129 192.98,30.8196155 L192.98,19.0556903 C192.96742,18.2362523 192.648636,17.4511874 192.086368,16.854956 L192.086368,16.854956 Z M186.591202,23.7639279 L183.003338,28.1920721 C182.799402,28.4489077 182.490976,28.600673 182.163057,28.6055434 C181.837794,28.6108876 181.526267,28.4745947 181.309439,28.2320855 L179.362123,26.0180134 C179.033762,25.5585624 179.10387,24.9255985 179.524817,24.549142 C179.945764,24.1726854 180.582598,24.1734245 181.00267,24.5508572 L182.083031,25.7779333 L184.870628,22.3767984 C185.074262,21.981983 185.494184,21.7471339 185.93718,21.7803098 C186.380176,21.8134856 186.760435,22.1082601 186.902993,22.5290017 C187.04555,22.9497433 186.922792,23.4149522 186.591202,23.7105768 L186.591202,23.7639279 Z M187.391469,18.8689613 C186.654843,18.8689613 186.05769,18.2718084 186.05769,17.5351829 L186.05769,13.5338478 L191.059359,18.8689613 L187.391469,18.8689613 Z" id="形状"></path>
                </g>
            </g>
        </g>
    </g>
</svg>