<?xml version="1.0" encoding="UTF-8"?>
<svg width="20px" height="23px" viewBox="0 0 20 23" version="1.1" xmlns="http://www.w3.org/2000/svg" xmlns:xlink="http://www.w3.org/1999/xlink">
    <title>形状</title>
    <g id="工具面板" stroke="none" stroke-width="1" fill="none" fill-rule="evenodd">
        <g id="事件信息" transform="translate(-453.000000, -294.000000)" fill="#FFFFFF" fill-rule="nonzero">
            <g id="编组-9" transform="translate(430.000000, 132.000000)">
                <g id="Group-24备份-5" transform="translate(0.000000, 150.000000)">
                    <path d="M42.0863685,16.854956 L40.3391188,14.8009373 L38.845287,13.1470521 C38.2162619,12.4179395 37.300736,11.9991351 36.3377837,12.0000013 L26.3211081,12.0000013 C24.4869108,12.0000013 23,13.4869135 23,15.3211108 L23,30.8196155 C23,32.6538129 24.4869108,34.1407236 26.3211081,34.1407236 L39.6588919,34.1407236 C41.4930892,34.1407236 42.98,32.6538129 42.98,30.8196155 L42.98,19.0556903 C42.9674201,18.2362523 42.6486362,17.4511874 42.0863685,16.854956 L42.0863685,16.854956 Z M36.5912016,23.7639279 L33.0033378,28.1920721 C32.7994021,28.4489077 32.4909759,28.600673 32.1630574,28.6055434 C31.8377937,28.6108876 31.5262671,28.4745947 31.3094393,28.2320855 L29.3621228,26.0180134 C29.0337623,25.5585624 29.1038702,24.9255985 29.5248171,24.549142 C29.945764,24.1726854 30.5825983,24.1734245 31.0026702,24.5508572 L32.0830307,25.7779333 L34.8706275,22.3767984 C35.0742618,21.981983 35.4941842,21.7471339 35.9371803,21.7803098 C36.3801763,21.8134856 36.7604354,22.1082601 36.9029928,22.5290017 C37.0455503,22.9497433 36.9227921,23.4149522 36.5912016,23.7105768 L36.5912016,23.7639279 Z M37.3914686,18.8689613 C36.6548432,18.8689613 36.0576903,18.2718084 36.0576903,17.5351829 L36.0576903,13.5338478 L41.0593591,18.8689613 L37.3914686,18.8689613 Z" id="形状"></path>
                </g>
            </g>
        </g>
    </g>
</svg>