<?xml version="1.0" encoding="UTF-8"?>
<svg width="25px" height="20px" viewBox="0 0 25 20" version="1.1" xmlns="http://www.w3.org/2000/svg" xmlns:xlink="http://www.w3.org/1999/xlink">
    <title>形状备份 10</title>
    <g id="事件信息、组织动态、辅助工具" stroke="none" stroke-width="1" fill="none" fill-rule="evenodd">
        <g id="雪碧图" transform="translate(-362.000000, -456.000000)" fill="#56E9FF" fill-rule="nonzero">
            <g id="编组" transform="translate(0.000000, -18.979320)">
                <path d="M384.875,482.239551 L384.875,484.701318 C384.875,490.377702 380.229954,494.97932 374.5,494.97932 C368.770046,494.97932 364.125,490.377702 364.125,484.701318 L364.125,482.363383 C362.75,481.868057 362,481.256331 362,480.640889 L362,477.441087 C362.082338,477.111601 362.312705,476.837746 362.625,476.698099 C364.25,475.722308 369,474.97932 374.5,474.97932 C380.125,474.97932 384.75,475.722308 386.375,476.701814 C386.687295,476.841461 386.917662,477.115316 387,477.444802 L387,480.644604 C387,481.255092 386.125,481.747941 384.875,482.239551 Z M370.75,488.516562 C370.75,490.568267 372.428932,492.231502 374.5,492.231502 C376.571068,492.231502 378.25,490.568267 378.25,488.516562 L378.25,486.054795 C378.25,484.00309 376.571068,482.339855 374.5,482.339855 C372.428932,482.339855 370.75,484.00309 370.75,486.054795 L370.75,488.515324 L370.75,488.516562 Z M384.5,478.67197 C384.477231,478.113117 384.05805,477.648543 383.5,477.56368 C380.532639,477.01841 377.517535,476.769501 374.5,476.820692 C371.311734,476.786802 368.128378,477.077265 365,477.687511 C364.736816,477.794815 364.547903,478.028749 364.5,478.306668 L364.5,479.906569 C364.504013,480.08439 364.595388,480.249077 364.744777,480.347739 C364.894167,480.446401 365.082765,480.466617 365.25,480.401894 C368.308842,479.913877 371.401751,479.665446 374.5,479.658906 C377.598346,479.759863 380.687502,480.049349 383.75,480.525726 C384.128218,480.55527 384.461131,480.280436 384.5,479.906569 L384.5,478.670732 L384.5,478.67197 Z M373.25,486.385425 C374.024187,485.945556 374.975813,485.945556 375.75,486.385425 C376.72992,486.945892 377.207672,488.088504 376.914815,489.171245 C376.621957,490.253985 375.631514,491.006873 374.5,491.006873 C373.368486,491.006873 372.378043,490.253985 372.085185,489.171245 C371.792328,488.088504 372.27008,486.945892 373.25,486.385425 L373.25,486.385425 Z" id="形状备份-10"></path>
            </g>
        </g>
    </g>
</svg>