<?xml version="1.0" encoding="UTF-8"?>
<svg width="27px" height="20px" viewBox="0 0 27 20" version="1.1" xmlns="http://www.w3.org/2000/svg" xmlns:xlink="http://www.w3.org/1999/xlink">
    <title>形状结合</title>
    <g id="事件信息、组织动态、辅助工具" stroke="none" stroke-width="1" fill="none" fill-rule="evenodd">
        <g id="事件信息" transform="translate(-599.000000, -445.000000)" fill="#56E9FF" fill-rule="nonzero">
            <g id="编组-9" transform="translate(430.000000, 132.000000)">
                <g id="Group-24备份-7" transform="translate(0.000000, 300.000000)">
                    <g id="群组" transform="translate(19.000000, 13.000000)">
                        <path d="M160.666267,11.9999581 C165.084379,11.9999581 168.665967,15.5815458 168.665967,19.9996581 L150,19.9996581 C150,15.5815458 153.581588,11.9999581 157.9997,11.9999581 L160.666267,11.9999581 Z M168.668633,11.9999581 C172.969612,12.0005171 176.50038,15.4017155 176.661667,19.6996693 L176.668333,19.9996581 L169.99925,19.9996581 C170.00117,16.7336203 168.294225,13.7046141 165.499419,12.0146243 C165.664746,12.0052913 165.832739,11.9999581 166.002066,11.9999581 L168.668633,11.9999581 Z M156.668965,0.71457242 C158.319102,-0.238190807 160.352197,-0.238190807 162.002334,0.71457242 C163.652471,1.66733565 164.668929,3.42809929 164.668783,5.33354153 C164.668929,7.23898377 163.652471,8.99974741 162.002334,9.95251064 C160.352197,10.9052739 158.319102,10.9052739 156.668965,9.95251064 C155.018828,8.99974741 154.002371,7.23898377 154.002517,5.33354153 C154.002371,3.42809929 155.018828,1.66733565 156.668965,0.71457242 Z M166.002066,0.000400089521 C168.170244,0.0026627183 170.12125,1.31733085 170.937397,3.32603785 C171.753544,5.33474486 171.272363,7.6376213 169.720187,9.15147314 C168.16801,10.665325 165.853826,11.0887926 163.866147,10.2226915 C165.229836,8.96290145 166.00433,7.19007486 166.002066,5.33354153 C166.004318,3.47794605 165.230905,1.70586207 163.868813,0.445724873 C164.541265,0.150778723 165.267776,-0.000880391037 166.002066,0.000400089521 Z" id="形状结合"></path>
                    </g>
                </g>
            </g>
        </g>
    </g>
</svg>