<?xml version="1.0" encoding="UTF-8"?>
<svg width="27px" height="20px" viewBox="0 0 27 20" version="1.1" xmlns="http://www.w3.org/2000/svg" xmlns:xlink="http://www.w3.org/1999/xlink">
    <title>形状结合</title>
    <g id="工具面板" stroke="none" stroke-width="1" fill="none" fill-rule="evenodd">
        <g id="事件信息" transform="translate(-449.000000, -445.000000)" fill="#FFFFFF" fill-rule="nonzero">
            <g id="编组-9" transform="translate(430.000000, 132.000000)">
                <g id="Group-24备份-7" transform="translate(0.000000, 300.000000)">
                    <g id="群组" transform="translate(19.000000, 13.000000)">
                        <path d="M10.6662666,11.9999581 C15.0843789,11.9999581 18.6659665,15.5815458 18.6659665,19.9996581 L-1.65201186e-13,19.9996581 C-1.65201186e-13,15.5815458 3.58158765,11.9999581 7.99969993,11.9999581 L10.6662666,11.9999581 Z M18.6686331,11.9999581 C22.969612,12.0005171 26.5003799,15.4017155 26.6616666,19.6996693 L26.668333,19.9996581 L19.9992498,19.9996581 C20.00117,16.7336203 18.2942246,13.7046141 15.4994186,12.0146243 C15.6647458,12.0052913 15.8327394,11.9999581 16.0020664,11.9999581 L18.6686331,11.9999581 Z M6.66896534,0.71457242 C8.31910242,-0.238190807 10.3521972,-0.238190807 12.0023343,0.71457242 C13.6524714,1.66733565 14.668929,3.42809929 14.6687831,5.33354153 C14.668929,7.23898377 13.6524714,8.99974741 12.0023343,9.95251064 C10.3521972,10.9052739 8.31910242,10.9052739 6.66896534,9.95251064 C5.01882826,8.99974741 4.0023707,7.23898377 4.00251655,5.33354153 C4.0023707,3.42809929 5.01882826,1.66733565 6.66896534,0.71457242 Z M16.0020664,0.000400089521 C18.1702442,0.0026627183 20.1212496,1.31733085 20.9373966,3.32603785 C21.7535436,5.33474486 21.2723635,7.6376213 19.7201868,9.15147314 C18.1680101,10.665325 15.8538258,11.0887926 13.8661466,10.2226915 C15.2298365,8.96290145 16.0043301,7.19007486 16.0020664,5.33354153 C16.0043185,3.47794605 15.2309048,1.70586207 13.8688131,0.445724873 C14.5412649,0.150778723 15.2677756,-0.000880391037 16.0020664,0.000400089521 Z" id="形状结合"></path>
                    </g>
                </g>
            </g>
        </g>
    </g>
</svg>