<?xml version="1.0" encoding="UTF-8"?>
<svg width="25px" height="25px" viewBox="0 0 25 25" version="1.1" xmlns="http://www.w3.org/2000/svg" xmlns:xlink="http://www.w3.org/1999/xlink">
    <title>编组-2</title>
    <g id="Page-1" stroke="none" stroke-width="1" fill="none" fill-rule="evenodd">
        <g id="雪碧图" transform="translate(-833.000000, -24.000000)" fill-rule="nonzero">
            <g id="编组-2" transform="translate(833.000000, 24.000000)">
                <circle id="椭圆形" fill="#5ABBE0" cx="12.5" cy="12.5" r="12.5"></circle>
                <path d="M13.7914524,12.7864433 L18.3724241,8.2090673 C18.649296,7.93219538 18.649296,7.48452585 18.3724241,7.20945181 C18.0955521,6.93257989 17.6478826,6.93257989 17.3728086,7.20945181 L12.790039,11.7850299 L8.20726943,7.20765394 C7.93039751,6.93078202 7.48272798,6.93078202 7.20765394,7.20765394 C6.93078202,7.48452585 6.93078202,7.93219538 7.20765394,8.20726943 L11.7886256,12.7846454 L7.20765394,17.3638192 C6.93078202,17.6406911 6.93078202,18.0883607 7.20765394,18.3634347 C7.3460899,18.5018707 7.52767472,18.5701897 7.70746168,18.5701897 C7.88904651,18.5701897 8.06883347,18.5018707 8.20726943,18.3634347 L12.790039,13.7860588 L17.3728086,18.3652326 C17.5112445,18.5036685 17.6910315,18.5719876 17.8726163,18.5719876 C18.0542011,18.5719876 18.2339881,18.5036685 18.3724241,18.3652326 C18.649296,18.0883607 18.649296,17.6406911 18.3724241,17.3656171 L13.7914524,12.7864433 Z" id="路径" fill="#56E9FF"></path>
            </g>
        </g>
    </g>
</svg>